<svg width="149" height="191" viewBox="0 0 149 191" fill="none" xmlns="http://www.w3.org/2000/svg">
<path d="M146.87 24.9996C152.548 36.7251 135.292 37.9788 136.177 43.2147C137.799 52.6541 136.693 66.6656 135.439 80.456C133.301 103.833 150.778 159.806 114.348 182.298C107.49 186.575 91.1921 188.935 75.1156 189.304H75.0419H74.9681C58.8917 188.935 40.3817 186.575 33.5234 182.298C-2.83301 159.806 14.6446 103.833 12.5797 80.456C11.2523 66.6656 10.1461 52.6541 11.8423 43.2147C12.7272 37.9788 -4.52914 36.7988 1.14923 24.9996C6.01642 14.8965 18.0369 23.8197 21.0604 20.6486C36.4732 4.64594 55.2044 0.368726 69.9535 0C71.4284 0 78.0654 0 78.0654 0C92.7407 0.737452 111.472 4.71969 126.958 20.6486C129.982 23.8197 141.929 14.8965 146.87 24.9996ZM67.0037 86.2819C66.34 86.5768 65.2338 93.8039 68.6261 94.1726C70.9122 94.3938 77.1805 95.1313 78.6554 94.1726C81.5315 92.329 81.2365 87.9043 79.6141 86.7981C76.8855 85.0282 67.7411 85.9131 67.0037 86.2819ZM48.2724 32.1529C40.6766 31.268 27.9187 38.3475 26.0014 53.3915C23.9365 69.0255 42.3728 84.512 60.0716 69.0255C69.5848 60.6923 72.9033 35.029 48.2724 32.1529ZM99.599 32.1529C74.9681 35.029 78.2867 60.6923 87.7998 69.0255C105.499 84.512 123.935 69.0255 121.87 53.3915C120.026 38.3475 107.269 31.268 99.599 32.1529Z" fill="#8CC5E7"/>
<path d="M74.0093 71.0166C78.6552 70.3529 89.7908 75.6626 89.0533 81.9309C88.1684 89.2317 60.3664 90.1904 58.8915 81.4885C58.0066 76.1788 62.2101 72.7865 74.0093 71.0166ZM136.766 129.792C134.48 129.718 133.005 126.694 133.005 124.851C133.005 121.532 133.448 117.624 135.881 115.927C140.896 112.461 144.878 129.865 136.766 129.792ZM11.1784 129.792C3.06643 129.865 7.04867 112.461 12.0633 115.927C14.4969 117.624 14.9394 121.532 14.9394 124.851C14.9394 126.694 13.4645 129.718 11.1784 129.792ZM121.354 183.257C122.829 185.395 122.902 186.87 120.542 187.976C111.546 192.106 103.507 186.575 106.531 185.027C112.947 181.782 116.929 176.693 121.354 183.257ZM26.5911 183.994C31.0159 177.431 34.9981 182.519 41.4139 185.764C44.4375 187.313 36.3993 192.844 27.4023 188.714C25.0425 187.608 25.1162 186.133 26.5911 183.994Z" fill="#B8937F"/>
<path d="M133.079 26.7695C133.448 25.2208 137.283 24.4834 139.421 27.1382C142.002 30.3092 135.66 34.6602 135.365 32.8903C134.628 28.0969 132.637 28.3181 133.079 26.7695ZM14.8656 26.7695C15.3081 28.3181 13.317 28.0969 12.5795 32.8903C12.2845 34.6602 5.94246 30.3092 8.52354 27.1382C10.5884 24.4834 14.4231 25.2208 14.8656 26.7695ZM101.295 62.6834C96.6519 62.6834 92.888 58.9194 92.888 54.2764C92.888 49.6334 96.6519 45.8695 101.295 45.8695C105.938 45.8695 109.702 49.6334 109.702 54.2764C109.702 58.9194 105.938 62.6834 101.295 62.6834ZM99.0826 53.3177C100.549 53.3177 101.737 52.1291 101.737 50.6629C101.737 49.1967 100.549 48.0081 99.0826 48.0081C97.6164 48.0081 96.4278 49.1967 96.4278 50.6629C96.4278 52.1291 97.6164 53.3177 99.0826 53.3177ZM66.4135 74.5563C67.2984 71.1641 70.3957 70.0579 72.9031 69.9841C79.3189 69.8366 81.7525 73.3027 81.9737 76.0312C82.4162 80.6772 64.4224 81.7834 66.4135 74.5563ZM46.6498 62.6834C42.0068 62.6834 38.2428 58.9194 38.2428 54.2764C38.2428 49.6334 42.0068 45.8695 46.6498 45.8695C51.2928 45.8695 55.0567 49.6334 55.0567 54.2764C55.0567 58.9194 51.2928 62.6834 46.6498 62.6834ZM48.8621 53.3177C50.3284 53.3177 51.517 52.1291 51.517 50.6629C51.517 49.1967 50.3284 48.0081 48.8621 48.0081C47.3959 48.0081 46.2073 49.1967 46.2073 50.6629C46.2073 52.1291 47.3959 53.3177 48.8621 53.3177Z" fill="black"/>
</svg>
