<svg width="183" height="189" viewBox="0 0 183 189" fill="none" xmlns="http://www.w3.org/2000/svg">
<path d="M180.574 139.062C181.839 136.79 182.625 134.23 182.625 131.931V52.1306C182.625 49.8317 181.84 47.2721 180.574 45L102 92.0312L180.574 139.062Z" fill="#7F3A86"/>
<path d="M87.6092 186.4L154.27 146.5C156.19 145.351 157.936 143.366 159.201 141.094L80.6271 94.0625L2.05371 141.094C3.31899 143.366 5.06479 145.351 6.98453 146.5L73.6449 186.4C77.4847 188.699 83.7694 188.699 87.6092 186.4Z" fill="#662579"/>
<path d="M159.199 47.031C157.934 44.7583 156.187 42.7735 154.268 41.6241L87.6071 1.72417C83.7674 -0.574722 77.4827 -0.574722 73.6429 1.72417L6.98226 41.6241C3.14175 43.9224 0 49.5648 0 54.1619V133.962C0 136.261 0.785689 138.821 2.05143 141.094L80.625 94.0625L159.199 47.031Z" fill="#9A5196"/>
<path d="M80.8837 147.812C51.1035 147.812 26.875 123.7 26.875 94.0625C26.875 64.4247 51.1035 40.3125 80.8837 40.3125C99.7452 40.3125 117.359 50.2273 127.112 66.259L103.983 80.1312C99.0962 72.1325 90.2993 67.1875 80.8837 67.1875C65.9929 67.1875 53.8797 79.2436 53.8797 94.0625C53.8797 108.881 65.9929 120.938 80.8837 120.938C90.2745 120.938 99.0485 116.02 103.944 108.059L127.122 121.851C117.371 137.892 99.7513 147.812 80.8837 147.812Z" fill="white"/>
<path fill-rule="evenodd" clip-rule="evenodd" d="M141.094 73.9062V80.6075H127.656V73.9062H120.938V80.6075H114.219V87.3438H120.938V100.746H114.219V107.5H120.938V114.219H127.656L127.656 107.5H141.094V114.219H147.812V107.5H154.531V100.781H147.812V87.3438H154.531V80.6075H147.812V73.9062H141.094ZM141.094 100.781V87.3438H127.656V100.746L141.094 100.781Z" fill="white"/>
</svg>
