<svg width="155" height="175" viewBox="0 0 155 175" fill="none" xmlns="http://www.w3.org/2000/svg">
<path fill-rule="evenodd" clip-rule="evenodd" d="M92.3481 19.9515L128.147 40.6205C129.155 39.5527 130.332 38.61 131.668 37.8341C139.093 33.5661 148.562 36.1002 152.875 43.5248C157.143 50.9493 154.609 60.419 147.184 64.7315C145.859 65.4934 144.466 66.0386 143.049 66.3778V107.732C144.451 108.072 145.828 108.614 147.14 109.368C154.609 113.68 157.143 123.15 152.83 130.574C148.562 137.999 139.048 140.533 131.624 136.265C130.145 135.415 128.861 134.358 127.786 133.15L92.2054 153.693C92.714 155.23 92.9893 156.874 92.9893 158.583C92.9893 167.119 86.0537 174.099 77.4733 174.099C68.8928 174.099 61.9573 167.164 61.9573 158.583C61.9573 157.058 62.1764 155.585 62.585 154.193L26.7958 133.53C25.7985 134.576 24.6373 135.502 23.3229 136.265C15.8539 140.533 6.38426 137.999 2.11625 130.574C-2.15176 123.15 0.382372 113.68 7.80693 109.368C9.11966 108.613 10.4963 108.071 11.8971 107.731V66.3778C10.4801 66.0386 9.08799 65.4934 7.76247 64.7315C0.337913 60.4634 -2.19622 50.9493 2.07179 43.5248C6.3398 36.1002 15.8539 33.5661 23.2785 37.8341C24.6069 38.6057 25.7788 39.5425 26.7832 40.6031L62.5916 19.9285C62.1788 18.5303 61.9573 17.0494 61.9573 15.516C61.9573 6.93551 68.8928 0 77.4733 0C86.0537 0 92.9893 6.93551 92.9893 15.516C92.9893 17.0578 92.7653 18.5465 92.3481 19.9515ZM88.6183 26.3196L124.502 47.0379C123.393 50.9336 123.8 55.2533 125.977 59.0408C128.162 62.8406 131.72 65.3595 135.669 66.3411V107.747C135.468 107.796 135.268 107.85 135.069 107.907L88.2017 26.7335C88.3431 26.5982 88.482 26.4602 88.6183 26.3196ZM66.7547 26.7429L19.8884 107.915C19.6858 107.856 19.482 107.802 19.2772 107.751V66.3411C23.2264 65.3595 26.7848 62.8406 28.9691 59.0408C31.1507 55.2458 31.5551 50.9166 30.4376 47.0148L66.3115 26.3024C66.4563 26.4522 66.604 26.599 66.7547 26.7429ZM81.8086 30.4202L128.664 111.574C127.616 112.574 126.691 113.739 125.933 115.058C125.179 116.37 124.637 117.747 124.297 119.149H30.6501C30.3102 117.748 29.7682 116.371 29.0136 115.058C28.2521 113.747 27.3299 112.589 26.2865 111.593L73.151 30.424C74.5226 30.8199 75.9728 31.032 77.4733 31.032C78.9785 31.032 80.4332 30.8185 81.8086 30.4202ZM88.9478 148.13L124.599 127.546C124.492 127.21 124.396 126.871 124.312 126.529H30.6302C30.5806 126.73 30.5269 126.93 30.4693 127.129L66.2952 147.814C69.116 144.886 73.0789 143.067 77.4733 143.067C82.0238 143.067 86.1117 145.018 88.9478 148.13Z" fill="#E535AB"/>
</svg>
