<?xml version="1.0" encoding="utf-8"?>
<!-- Generator: Adobe Illustrator 27.3.1, SVG Export Plug-In . SVG Version: 6.00 Build 0)  -->
<svg version="1.1" xmlns="http://www.w3.org/2000/svg" xmlns:xlink="http://www.w3.org/1999/xlink" x="0px" y="0px"
	 viewBox="0 0 659.9 500.1" style="enable-background:new 0 0 659.9 500.1;" xml:space="preserve">
<style type="text/css">
	.st0{fill:#343358;}
	.st1{fill:url(#SVGID_1_);}
	.st2{fill:url(#SVGID_00000144320399987954106260000006505917667251708584_);}
	.st3{fill:url(#SVGID_00000026865241064233571200000010427004390256146568_);}
	.st4{fill:#FFFFFF;}
	.st5{fill:url(#SVGID_00000142885169589502139590000017397848383305800856_);}
	.st6{fill:url(#SVGID_00000067230800406502337810000010576167824155313841_);}
	.st7{fill:#9D76B3;}
	.st8{fill:#00BFDF;}
	.st9{fill:#61E7CD;}
	.st10{fill:#717DBC;}
	.st11{fill:#FEC977;}
	.st12{fill:#FB887B;}
</style>
<g id="bk">
</g>
<g id="graphics">
	<g>
		<path class="st4" d="M430.6,205.6l-90.2-51.8l90.2-51.8c1.6-0.9,2.6-2.7,2.6-4.5s-1-3.6-2.6-4.5l-98-56.3c-1.6-0.9-3.6-0.9-5.2,0
			l-98,56.3c0,0-0.1,0.1-0.1,0.1c-0.4,0.2-0.7,0.5-1,0.8c0,0,0,0,0,0c-0.3,0.3-0.5,0.6-0.7,1c-0.1,0.1-0.1,0.2-0.2,0.3
			c-0.1,0.3-0.3,0.6-0.4,0.9c0,0.1-0.1,0.2-0.1,0.3c-0.1,0.4-0.2,0.8-0.2,1.2v112.7c0,0.4,0.1,0.8,0.2,1.2c0,0.1,0.1,0.2,0.1,0.3
			c0.1,0.3,0.2,0.6,0.4,0.9c0.1,0.1,0.1,0.2,0.2,0.3c0.2,0.3,0.5,0.7,0.7,1c0,0,0,0,0,0c0.3,0.3,0.6,0.5,1,0.8c0,0,0.1,0.1,0.1,0.1
			l98,56.3c0.8,0.5,1.7,0.7,2.6,0.7c0.9,0,1.8-0.2,2.6-0.7l98-56.3c1.6-0.9,2.6-2.7,2.6-4.5C433.2,208.2,432.2,206.5,430.6,205.6z
			 M237.2,106.5l82.3,47.3l-82.3,47.3V106.5z M330,47.1l87.6,50.3L330,147.8l-87.6-50.3L330,47.1z M330,260.4l-87.6-50.3l87.6-50.3
			l87.6,50.3L330,260.4z"/>
		<path class="st4" d="M81.1,343.6c-1.9-0.1-4.1-0.2-6.5-0.3c-2.4-0.1-4.9-0.2-7.5-0.2c-6.6,0-12,1.1-16.3,3.3
			c-4.3,2.2-7.6,5.2-10.1,9.1c-2.5,3.9-4.2,8.5-5.1,13.8c-0.9,5.4-1.4,11.3-1.4,17.8c0,14.7,2.9,25.3,8.6,31.9
			c5.7,6.6,14.4,9.9,26,9.9c5.5,0,9.8-0.2,13.1-0.5c1.9-0.1,3.6-0.3,5-0.5c0-0.8,0.1-1.7,0.2-2.7c0-0.9,0-1.9,0.1-3
			c0.1-1.1,0.1-2.3,0.1-3.7c0-1.3,0-2.7,0-4.2c0-1.5-0.1-3-0.3-4.5c-1.6,0.1-3.2,0.2-5,0.3c-1.6,0.1-3.3,0.2-5.2,0.3
			c-1.9,0.1-4,0.1-6.2,0.1c-5.3,0-9.1-1.8-11.5-5.3c-2.4-3.5-3.6-9.5-3.6-18c0-3.6,0.2-6.9,0.5-10.1c0.3-3.1,1-5.8,2-8.1
			c1-2.3,2.4-4.1,4.1-5.4c1.7-1.3,4-1.9,6.8-1.9c2.5,0,4.8,0.1,7,0.2c2.2,0.1,4.1,0.2,5.8,0.3c2,0.2,3.8,0.4,5.4,0.5
			c0-0.8,0.1-1.7,0.2-2.9c0-0.9,0-1.9,0.1-3.1c0.1-1.2,0.1-2.5,0.1-3.9c0-1.3,0-2.8,0-4.3c0-1.5-0.1-3-0.3-4.4
			C85.1,343.8,83.2,343.7,81.1,343.6z"/>
		<path class="st4" d="M160.1,353.9c-2.7-3.5-6.4-6.2-11.1-8.1c-4.7-1.8-10.6-2.8-17.7-2.8c-7.2,0-13.1,0.9-17.7,2.8
			c-4.7,1.9-8.4,4.5-11.1,8.1c-2.7,3.5-4.6,7.8-5.7,12.8c-1.1,5-1.6,10.8-1.6,17.3c0,14.7,2.9,25.8,8.6,33.4
			c5.7,7.6,14.9,11.4,27.6,11.4c12.7,0,21.9-3.8,27.7-11.4c5.8-7.6,8.7-18.7,8.7-33.4c0-6.5-0.6-12.2-1.7-17.3
			C164.8,361.7,162.9,357.4,160.1,353.9z M143.7,403.9c-2.3,4.5-6.5,6.8-12.4,6.8c-2.9,0-5.3-0.6-7.3-1.9c-2-1.3-3.6-3.1-4.8-5.4
			c-1.2-2.3-2.1-5-2.7-8.3c-0.6-3.2-0.8-6.8-0.8-10.7c0-7.9,1.1-13.8,3.4-17.6c2.3-3.8,6.4-5.7,12.3-5.7c5.9,0,10,2,12.4,6.1
			c2.3,4.1,3.5,10,3.5,17.8C147.2,393.2,146,399.4,143.7,403.9z"/>
		<path class="st4" d="M239.6,351.2c-2.7-2.9-6.3-4.9-10.7-6.1c-4.5-1.2-10.1-1.8-16.8-1.8c-4.3,0-8.2,0.1-11.9,0.2
			c-3.7,0.1-7,0.3-9.9,0.5c-3.4,0.2-6.4,0.4-9.2,0.5v83.4c3.5,0.3,6.8,0.5,10.1,0.5c1.6,0,3,0,4.3,0c1.3,0,2.4-0.1,3.3-0.2
			c1.1-0.1,2.1-0.2,3-0.3v-65.9h10.4c5.5,0,9.3,1.1,11.3,3.2c2.1,2.1,3.1,6.2,3.1,12.2v50.5c3.5,0.3,6.8,0.5,10.1,0.5
			c1.6,0,3,0,4.3,0c1.3,0,2.4-0.1,3.3-0.2c1.1-0.1,2.1-0.2,3-0.3v-49c0-6.5-0.6-12-1.8-16.5C244.2,357.8,242.3,354.1,239.6,351.2z"
			/>
		<path class="st4" d="M401.4,354.1c-3-3.5-6.7-6.2-11.1-8.1c-4.4-1.9-9.3-2.9-14.9-2.9c-12,0-21.2,3.5-27.6,10.5
			c-6.4,7-9.7,17.6-9.7,32c0,14.5,3.1,25.4,9.4,32.6c6.3,7.2,16.6,10.8,30.9,10.8c4.6,0,8.6-0.3,12.2-0.8c3.5-0.5,6.5-1.1,9-1.8
			c2.9-0.7,5.4-1.5,7.6-2.5c-0.2-1.7-0.6-3.6-1-5.6c-0.5-1.7-1-3.6-1.7-5.6c-0.7-2-1.5-4.2-2.5-6.4c-2,0.9-4.2,1.7-6.5,2.3
			c-2.1,0.6-4.6,1.1-7.4,1.5c-2.8,0.4-6,0.7-9.6,0.7c-5.8,0-10.5-1.3-14.2-4c-3.6-2.7-5.4-7.1-5.4-13.5h51.3
			c0.1-0.8,0.2-1.7,0.3-2.7c0.1-0.9,0.2-1.9,0.3-3.1c0.1-1.2,0.1-2.5,0.1-4.1c0-6.2-0.8-11.7-2.4-16.7
			C406.7,361.9,404.4,357.6,401.4,354.1z M389.1,377.5h-30c0.1-4.9,1.4-8.9,3.9-12c2.5-3.1,6.6-4.6,12.3-4.6c2.5,0,4.6,0.4,6.4,1.3
			c1.8,0.8,3.2,1.9,4.3,3.3c1.1,1.3,1.9,2.9,2.3,4.5c0.5,1.7,0.8,3.4,0.8,5V377.5z"/>
		<path class="st4" d="M467.6,346.4c-0.1-1-0.2-1.9-0.2-2.7c-2,0-4.1-0.1-6.4-0.2c-1.9-0.1-4.2-0.2-6.8-0.2
			c-2.6-0.1-5.5-0.1-8.5-0.1c-3.2,0-6.2,0.1-8.8,0.2c-2.6,0.1-4.9,0.3-6.8,0.5c-2.1,0.2-4.1,0.4-5.9,0.5v83.4
			c3.4,0.3,6.7,0.5,9.9,0.5c1.6,0,3,0,4.2,0c1.2,0,2.3-0.1,3.4-0.2c1.1-0.1,2.2-0.2,3.2-0.3v-65.9h22.5c0.3-3,0.5-5.9,0.5-8.7
			c0-1.3,0-2.6-0.1-3.7C467.8,348.4,467.8,347.3,467.6,346.4z"/>
		<path class="st4" d="M518.3,343.3c-4.3-0.1-8.7-0.1-13.3-0.1c-6.2,0-11.5,1-16.1,3.1c-4.6,2.1-8.4,5-11.5,8.6
			c-3.1,3.7-5.4,8.1-6.9,13.1c-1.5,5-2.3,10.6-2.3,16.6c0,15.3,2.8,26.4,8.3,33.2c5.5,6.8,14.5,10.2,26.9,10.2c1.9,0,3.8,0,5.7-0.1
			c1.9-0.1,3.6-0.1,5.2-0.2c1.9-0.1,3.7-0.3,5.4-0.5c0,6.2-1.3,10.9-4,14.1c-2.7,3.2-6.9,4.7-12.8,4.7c-3.4,0-6.5-0.3-9.3-0.8
			c-2.9-0.6-5.4-1.2-7.6-1.8c-2.6-0.8-4.9-1.7-7-2.7c-1.1,2.2-2,4.4-2.6,6.4c-0.6,2-1.1,3.9-1.6,5.6c-0.5,2-0.8,3.9-1,5.6
			c2.3,1.1,5,2.1,8.1,3.1c2.6,0.8,5.6,1.5,9.2,2c3.6,0.6,7.6,0.8,11.9,0.8c6.9,0,12.8-1,17.5-3c4.8-2,8.6-4.9,11.6-8.7
			c3-3.8,5.1-8.4,6.4-13.9c1.3-5.5,1.9-11.6,1.9-18.4v-76.3c-3.5,0-7.1-0.1-10.9-0.2C526.3,343.5,522.6,343.4,518.3,343.3z
			 M519.8,410.7h-14.6c-5.9,0-10-2.2-12.3-6.5c-2.3-4.3-3.4-10.8-3.4-19.5c0-3.1,0.3-6.1,1-8.9c0.7-2.8,1.7-5.3,3.2-7.4
			c1.5-2.1,3.2-3.8,5.4-5c2.1-1.2,4.7-1.8,7.7-1.8h13.1V410.7z"/>
		<path class="st4" d="M623.3,366.8c-1.6-5-3.9-9.2-7-12.8c-3-3.5-6.7-6.2-11.1-8.1c-4.4-1.9-9.3-2.9-14.9-2.9
			c-12,0-21.2,3.5-27.6,10.5c-6.4,7-9.7,17.6-9.7,32c0,14.5,3.1,25.4,9.4,32.6c6.3,7.2,16.6,10.8,30.9,10.8c4.6,0,8.6-0.3,12.2-0.8
			c3.5-0.5,6.5-1.1,9-1.8c2.9-0.7,5.4-1.5,7.6-2.5c-0.2-1.7-0.6-3.6-1-5.6c-0.5-1.7-1-3.6-1.7-5.6c-0.7-2-1.5-4.2-2.5-6.4
			c-2,0.9-4.2,1.7-6.5,2.3c-2.1,0.6-4.6,1.1-7.4,1.5c-2.8,0.4-6,0.7-9.6,0.7c-5.8,0-10.5-1.3-14.2-4c-3.6-2.7-5.5-7.1-5.5-13.5H625
			c0.1-0.8,0.2-1.7,0.3-2.7c0.1-0.9,0.2-1.9,0.3-3.1c0.1-1.2,0.1-2.5,0.1-4.1C625.7,377.4,624.9,371.8,623.3,366.8z M604.1,377.5
			h-30c0.1-4.9,1.4-8.9,3.9-12c2.5-3.1,6.6-4.6,12.3-4.6c2.5,0,4.6,0.4,6.4,1.3c1.8,0.8,3.2,1.9,4.3,3.3c1.1,1.3,1.9,2.9,2.3,4.5
			c0.5,1.7,0.8,3.4,0.8,5V377.5z"/>
		<path class="st4" d="M301.6,378.3c-2.8,8.2-4.8,14.7-6,19.5c-0.6,2.5-1.1,4.7-1.4,6.5c-0.3-1.9-0.8-4.1-1.5-6.8
			c-1.2-4.8-3.2-11.3-6-19.5l-12.1-33.8h-22.4l32.1,83.9c0.8,0.1,1.7,0.2,2.9,0.3c0.9,0.1,2,0.2,3.2,0.2c1.2,0,2.6,0,4,0
			c3.1,0,6.4-0.2,9.7-0.5l32.3-83.9h-22.4L301.6,378.3z"/>
	</g>
</g>
</svg>
