<?xml version="1.0" encoding="utf-8"?>
<!-- Generator: Adobe Illustrator 27.3.1, SVG Export Plug-In . SVG Version: 6.00 Build 0)  -->
<svg version="1.1" xmlns="http://www.w3.org/2000/svg" xmlns:xlink="http://www.w3.org/1999/xlink" x="0px" y="0px"
	 viewBox="0 0 989.9 345.2" style="enable-background:new 0 0 989.9 345.2;" xml:space="preserve">
<style type="text/css">
	.st0{fill:#343358;}
	.st1{fill:url(#SVGID_1_);}
	.st2{fill:url(#SVGID_00000145768741617720933720000017219926215995594899_);}
	.st3{fill:url(#SVGID_00000065795523378306226070000005271200684917862062_);}
	.st4{fill:#FFFFFF;}
	.st5{fill:url(#SVGID_00000031927682488728799750000004160892749655590551_);}
	.st6{fill:url(#SVGID_00000040566122068007605640000001028468681647377580_);}
	.st7{fill:#9D76B3;}
	.st8{fill:#00BFDF;}
	.st9{fill:#61E7CD;}
	.st10{fill:#717DBC;}
	.st11{fill:#FEC977;}
	.st12{fill:#FB887B;}
</style>
<g id="bk">
</g>
<g id="graphics">
	<g>
		<g>
			<path class="st4" d="M375.3,73.7c-0.6,3.9-1.2,8-1.8,12h-0.2c-0.8-4-1.7-8.1-2.5-12l-4.6-19h-5.8l-4.6,19c-0.8,4-1.7,8-2.4,12
				H353c-0.6-4-1.3-8-1.9-12l-3.3-19H341l7.5,37.7h8.1l4.6-19.8c0.6-2.9,1.2-5.8,1.7-8.7h0.2c0.5,2.9,1,5.7,1.7,8.7l4.7,19.8h8.3
				l7.2-37.7h-6.4L375.3,73.7z"/>
			<polygon class="st4" points="397.5,75.6 411.1,75.6 411.1,70 397.5,70 397.5,60.3 413.5,60.3 413.5,54.7 390.8,54.7 390.8,92.4 
				414.1,92.4 414.1,86.8 397.5,86.8 			"/>
			<path class="st4" d="M440.7,54.7l-12.3,37.7h6.8l2.9-10.2h12.6l2.9,10.2h7.1l-12.3-37.7H440.7z M439.7,76.9l1.3-4.6
				c1.2-4,2.3-8.3,3.3-12.4h0.2c1.1,4.1,2.2,8.4,3.4,12.4l1.3,4.6H439.7z"/>
			<path class="st4" d="M491.7,65.9c0-8.4-6-11.2-13.9-11.2h-12.7v37.7h6.7V77.7h5.7l8.1,14.7h7.5l-9-15.7
				C488.7,75.1,491.7,71.6,491.7,65.9z M471.8,60.1h5.3c5.2,0,8,1.5,8,5.8c0,4.3-2.8,6.4-8,6.4h-5.3V60.1z"/>
			<polygon class="st4" points="505.9,86.8 505.9,75.6 519.5,75.6 519.5,70 505.9,70 505.9,60.3 521.9,60.3 521.9,54.7 499.3,54.7 
				499.3,92.4 522.5,92.4 522.5,86.8 			"/>
		</g>
		<path class="st4" d="M262.3,224.4l-90.2-51.8l90.2-51.8c1.6-0.9,2.6-2.7,2.6-4.5s-1-3.6-2.6-4.5l-98-56.3c-1.6-0.9-3.6-0.9-5.2,0
			l-98,56.3c0,0-0.1,0.1-0.1,0.1c-0.4,0.2-0.7,0.5-1,0.8c0,0,0,0,0,0c-0.3,0.3-0.5,0.6-0.7,1c-0.1,0.1-0.1,0.2-0.2,0.3
			c-0.1,0.3-0.3,0.6-0.4,0.9c0,0.1-0.1,0.2-0.1,0.3c-0.1,0.4-0.2,0.8-0.2,1.2v112.7c0,0.4,0.1,0.8,0.2,1.2c0,0.1,0.1,0.2,0.1,0.3
			c0.1,0.3,0.2,0.6,0.4,0.9c0.1,0.1,0.1,0.2,0.2,0.3c0.2,0.3,0.5,0.7,0.7,1c0,0,0,0,0,0c0.3,0.3,0.6,0.5,1,0.8c0,0,0.1,0.1,0.1,0.1
			l98,56.3c0.8,0.5,1.7,0.7,2.6,0.7s1.8-0.2,2.6-0.7l98-56.3c1.6-0.9,2.6-2.7,2.6-4.5C264.9,227.1,263.9,225.3,262.3,224.4z
			 M68.9,125.3l82.3,47.3l-82.3,47.3V125.3z M161.7,65.9l87.6,50.3l-87.6,50.3l-87.6-50.3L161.7,65.9z M161.7,279.2l-87.6-50.3
			l87.6-50.3l87.6,50.3L161.7,279.2z"/>
		<g>
			<path class="st4" d="M386.8,130.2c-1.9-0.1-4.1-0.2-6.5-0.3c-2.4-0.1-4.9-0.2-7.5-0.2c-6.6,0-12,1.1-16.3,3.3
				c-4.3,2.2-7.6,5.2-10.1,9.1c-2.5,3.9-4.2,8.5-5.1,13.8c-0.9,5.4-1.4,11.3-1.4,17.8c0,14.7,2.9,25.3,8.6,31.9
				c5.7,6.6,14.4,9.9,26,9.9c5.5,0,9.8-0.2,13.1-0.5c1.9-0.1,3.6-0.3,5-0.5c0-0.8,0.1-1.7,0.2-2.7c0-0.9,0-1.9,0.1-3
				c0.1-1.1,0.1-2.3,0.1-3.7c0-1.3,0-2.7,0-4.2c0-1.5-0.1-3-0.3-4.5c-1.6,0.1-3.2,0.2-5,0.3c-1.6,0.1-3.3,0.2-5.2,0.3
				c-1.9,0.1-4,0.1-6.2,0.1c-5.3,0-9.1-1.8-11.5-5.3c-2.4-3.5-3.6-9.5-3.6-18c0-3.6,0.2-6.9,0.5-10.1c0.3-3.1,1-5.8,2-8.1
				c1-2.3,2.4-4.1,4.1-5.4c1.7-1.3,4-1.9,6.8-1.9c2.5,0,4.8,0.1,7,0.2c2.2,0.1,4.1,0.2,5.8,0.3c2,0.2,3.8,0.4,5.4,0.5
				c0-0.8,0.1-1.7,0.2-2.9c0-0.9,0-1.9,0.1-3.1c0.1-1.2,0.1-2.5,0.1-3.9c0-1.3,0-2.8,0-4.3c0-1.5-0.1-3-0.3-4.4
				C390.9,130.5,388.9,130.3,386.8,130.2z"/>
			<path class="st4" d="M465.9,140.5c-2.7-3.5-6.4-6.2-11.1-8.1c-4.7-1.8-10.6-2.8-17.7-2.8c-7.2,0-13.1,0.9-17.7,2.8
				c-4.7,1.9-8.4,4.5-11.1,8.1c-2.7,3.5-4.6,7.8-5.7,12.8c-1.1,5-1.6,10.8-1.6,17.3c0,14.7,2.9,25.8,8.6,33.4
				c5.7,7.6,14.9,11.4,27.6,11.4c12.7,0,21.9-3.8,27.7-11.4c5.8-7.6,8.7-18.7,8.7-33.4c0-6.5-0.6-12.2-1.7-17.3
				C470.6,148.3,468.6,144.1,465.9,140.5z M449.4,190.6c-2.3,4.5-6.5,6.8-12.4,6.8c-2.9,0-5.3-0.6-7.3-1.9c-2-1.3-3.6-3.1-4.8-5.4
				c-1.2-2.3-2.1-5-2.7-8.3c-0.6-3.2-0.8-6.8-0.8-10.7c0-7.9,1.1-13.8,3.4-17.6c2.3-3.8,6.4-5.7,12.3-5.7c5.9,0,10,2,12.4,6.1
				c2.3,4.1,3.5,10,3.5,17.8C452.9,179.8,451.7,186.1,449.4,190.6z"/>
			<path class="st4" d="M545.3,137.9c-2.7-2.9-6.3-4.9-10.7-6.1c-4.5-1.2-10.1-1.8-16.8-1.8c-4.3,0-8.2,0.1-11.9,0.2
				c-3.7,0.1-7,0.3-9.9,0.5c-3.4,0.2-6.4,0.4-9.2,0.5v83.4c3.5,0.3,6.8,0.5,10.1,0.5c1.6,0,3,0,4.3,0c1.3,0,2.4-0.1,3.3-0.2
				c1.1-0.1,2.1-0.2,3-0.3v-65.9h10.4c5.5,0,9.3,1.1,11.3,3.2c2.1,2.1,3.1,6.2,3.1,12.2v50.5c3.5,0.3,6.8,0.5,10.1,0.5
				c1.6,0,3,0,4.3,0c1.3,0,2.4-0.1,3.3-0.2c1.1-0.1,2.1-0.2,3-0.3v-49c0-6.5-0.6-12-1.8-16.5C550,144.4,548,140.7,545.3,137.9z"/>
			<path class="st4" d="M707.1,140.7c-3-3.5-6.7-6.2-11.1-8.1c-4.4-1.9-9.3-2.9-14.9-2.9c-12,0-21.2,3.5-27.6,10.5
				c-6.4,7-9.7,17.6-9.7,32c0,14.5,3.1,25.4,9.4,32.6c6.3,7.2,16.6,10.8,30.9,10.8c4.6,0,8.6-0.3,12.2-0.8c3.5-0.5,6.5-1.1,9-1.8
				c2.9-0.7,5.4-1.5,7.6-2.5c-0.2-1.7-0.6-3.6-1-5.6c-0.5-1.7-1-3.6-1.7-5.6c-0.7-2-1.5-4.2-2.5-6.4c-2,0.9-4.2,1.7-6.5,2.3
				c-2.1,0.6-4.6,1.1-7.4,1.5c-2.8,0.4-6,0.7-9.6,0.7c-5.8,0-10.5-1.3-14.2-4c-3.6-2.7-5.4-7.1-5.4-13.5h51.3
				c0.1-0.8,0.2-1.7,0.3-2.7c0.1-0.9,0.2-1.9,0.3-3.1c0.1-1.2,0.1-2.5,0.1-4.1c0-6.2-0.8-11.7-2.4-16.7
				C712.4,148.5,710.1,144.2,707.1,140.7z M694.9,164.1h-30c0.1-4.9,1.4-8.9,3.9-12c2.5-3.1,6.6-4.6,12.3-4.6c2.5,0,4.6,0.4,6.4,1.3
				c1.8,0.8,3.2,1.9,4.3,3.3c1.1,1.3,1.9,2.9,2.3,4.5c0.5,1.7,0.8,3.4,0.8,5V164.1z"/>
			<path class="st4" d="M773.4,133.1c-0.1-1-0.2-1.9-0.2-2.7c-2,0-4.1-0.1-6.4-0.2c-1.9-0.1-4.2-0.2-6.8-0.2
				c-2.6-0.1-5.5-0.1-8.5-0.1c-3.2,0-6.2,0.1-8.8,0.2c-2.6,0.1-4.9,0.3-6.8,0.5c-2.1,0.2-4.1,0.4-5.9,0.5v83.4
				c3.4,0.3,6.7,0.5,9.9,0.5c1.6,0,3,0,4.2,0c1.2,0,2.3-0.1,3.4-0.2c1.1-0.1,2.2-0.2,3.2-0.3v-65.9h22.5c0.3-3,0.5-5.9,0.5-8.7
				c0-1.3,0-2.6-0.1-3.7C773.6,135,773.5,134,773.4,133.1z"/>
			<path class="st4" d="M824.1,130c-4.3-0.1-8.7-0.1-13.3-0.1c-6.2,0-11.5,1-16.1,3.1c-4.6,2.1-8.4,4.9-11.5,8.6
				c-3.1,3.7-5.4,8.1-6.9,13.1s-2.3,10.6-2.3,16.6c0,15.3,2.8,26.4,8.3,33.2c5.5,6.8,14.5,10.2,26.9,10.2c1.9,0,3.8,0,5.7-0.1
				c1.9-0.1,3.6-0.1,5.2-0.2c1.9-0.1,3.7-0.3,5.4-0.5c0,6.2-1.3,10.9-4,14.1c-2.7,3.2-6.9,4.7-12.8,4.7c-3.4,0-6.5-0.3-9.3-0.8
				c-2.9-0.6-5.4-1.2-7.6-1.8c-2.6-0.8-4.9-1.7-7-2.7c-1.1,2.2-2,4.4-2.6,6.4c-0.6,2-1.1,3.9-1.6,5.6c-0.5,2-0.8,3.9-1,5.6
				c2.3,1.1,5,2.1,8.1,3.1c2.6,0.8,5.6,1.5,9.2,2c3.6,0.6,7.6,0.8,11.9,0.8c6.9,0,12.8-1,17.5-3c4.8-2,8.6-4.9,11.6-8.7
				c3-3.8,5.1-8.4,6.4-13.9c1.3-5.5,1.9-11.6,1.9-18.4v-76.3c-3.5,0-7.1-0.1-10.9-0.2C832,130.1,828.3,130,824.1,130z M825.6,197.3
				H811c-5.9,0-10-2.2-12.3-6.5c-2.3-4.3-3.4-10.8-3.4-19.5c0-3.1,0.3-6.1,1-8.9c0.7-2.8,1.7-5.3,3.2-7.4c1.5-2.1,3.2-3.8,5.4-4.9
				c2.1-1.2,4.7-1.8,7.7-1.8h13.1V197.3z"/>
			<path class="st4" d="M929,153.5c-1.6-5-3.9-9.2-7-12.8c-3-3.5-6.7-6.2-11.1-8.1c-4.4-1.9-9.3-2.9-14.9-2.9
				c-12,0-21.2,3.5-27.6,10.5c-6.4,7-9.7,17.6-9.7,32c0,14.5,3.1,25.4,9.4,32.6c6.3,7.2,16.6,10.8,30.9,10.8c4.6,0,8.6-0.3,12.2-0.8
				c3.5-0.5,6.5-1.1,9-1.8c2.9-0.7,5.4-1.5,7.6-2.5c-0.2-1.7-0.6-3.6-1-5.6c-0.5-1.7-1-3.6-1.7-5.6c-0.7-2-1.5-4.2-2.5-6.4
				c-2,0.9-4.2,1.7-6.5,2.3c-2.1,0.6-4.6,1.1-7.4,1.5c-2.8,0.4-6,0.7-9.6,0.7c-5.8,0-10.5-1.3-14.2-4c-3.6-2.7-5.5-7.1-5.5-13.5
				h51.4c0.1-0.8,0.2-1.7,0.3-2.7c0.1-0.9,0.2-1.9,0.3-3.1c0.1-1.2,0.1-2.5,0.1-4.1C931.4,164,930.6,158.4,929,153.5z M909.8,164.1
				h-30c0.1-4.9,1.4-8.9,3.9-12c2.5-3.1,6.6-4.6,12.3-4.6c2.5,0,4.6,0.4,6.4,1.3c1.8,0.8,3.2,1.9,4.3,3.3c1.1,1.3,1.9,2.9,2.3,4.5
				c0.5,1.7,0.8,3.4,0.8,5V164.1z"/>
			<path class="st4" d="M607.3,164.9c-2.8,8.2-4.8,14.7-6,19.5c-0.6,2.5-1.1,4.7-1.4,6.5c-0.3-1.9-0.8-4.1-1.5-6.8
				c-1.2-4.8-3.2-11.3-6-19.5l-12.1-33.8h-22.4l32.1,83.9c0.8,0.1,1.7,0.2,2.9,0.3c0.9,0.1,2,0.2,3.2,0.2c1.2,0,2.6,0,4,0
				c3.1,0,6.4-0.2,9.7-0.5l32.3-83.9h-22.4L607.3,164.9z"/>
		</g>
	</g>
</g>
</svg>
