<?xml version="1.0" encoding="UTF-8" standalone="no" ?>
<!DOCTYPE svg PUBLIC "-//W3C//DTD SVG 1.1//EN" "http://www.w3.org/Graphics/SVG/1.1/DTD/svg11.dtd">
<svg xmlns="http://www.w3.org/2000/svg" xmlns:xlink="http://www.w3.org/1999/xlink" version="1.1" width="1080" height="1080" viewBox="0 0 1080 1080" xml:space="preserve">
<desc>Created with Fabric.js 5.2.4</desc>
<defs>
</defs>
<g transform="matrix(1 0 0 1 540 540)" id="5b19607d-6913-4183-bf1a-0b71267f4b13"  >
<rect style="stroke: none; stroke-width: 1; stroke-dasharray: none; stroke-linecap: butt; stroke-dashoffset: 0; stroke-linejoin: miter; stroke-miterlimit: 4; fill: rgb(255,255,255); fill-rule: nonzero; opacity: 1;" vector-effect="non-scaling-stroke"  x="-540" y="-540" rx="0" ry="0" width="1080" height="1080" />
</g>
<g transform="matrix(1 0 0 1 540 540)" id="c49fb803-eb29-4e94-863a-1c6f9e750dc5"  >
</g>
<g transform="matrix(1 0 0 1 540 540)"  >
<g style="" vector-effect="non-scaling-stroke"   >
		<g transform="matrix(0.71 0.71 -0.71 0.71 -0.11 -365.62)"  >
<rect style="stroke: rgb(158,170,133); stroke-width: 0.93; stroke-dasharray: none; stroke-linecap: butt; stroke-dashoffset: 0; stroke-linejoin: miter; stroke-miterlimit: 4; fill: none; fill-rule: nonzero; opacity: 1;" vector-effect="non-scaling-stroke"  x="-51.63" y="-51.63" rx="0" ry="0" width="103.26" height="103.26" />
</g>
		<g transform="matrix(0.71 0.71 -0.71 0.71 -146.14 -219.59)"  >
<rect style="stroke: rgb(158,170,133); stroke-width: 0.93; stroke-dasharray: none; stroke-linecap: butt; stroke-dashoffset: 0; stroke-linejoin: miter; stroke-miterlimit: 4; fill: none; fill-rule: nonzero; opacity: 1;" vector-effect="non-scaling-stroke"  x="-51.63" y="-51.63" rx="0" ry="0" width="103.26" height="103.26" />
</g>
		<g transform="matrix(0.71 0.71 -0.71 0.71 -292.17 -73.57)"  >
<rect style="stroke: rgb(158,170,133); stroke-width: 0.93; stroke-dasharray: none; stroke-linecap: butt; stroke-dashoffset: 0; stroke-linejoin: miter; stroke-miterlimit: 4; fill: none; fill-rule: nonzero; opacity: 1;" vector-effect="non-scaling-stroke"  x="-51.63" y="-51.63" rx="0" ry="0" width="103.26" height="103.26" />
</g>
		<g transform="matrix(0.71 0.71 -0.71 0.71 -146.14 73.34)"  >
<rect style="stroke: rgb(158,170,133); stroke-width: 0.93; stroke-dasharray: none; stroke-linecap: butt; stroke-dashoffset: 0; stroke-linejoin: miter; stroke-miterlimit: 4; fill: none; fill-rule: nonzero; opacity: 1;" vector-effect="non-scaling-stroke"  x="-51.63" y="-51.63" rx="0" ry="0" width="103.26" height="103.26" />
</g>
		<g transform="matrix(0.71 0.71 -0.71 0.71 0.33 -73.13)"  >
<rect style="stroke: rgb(158,170,133); stroke-width: 0.93; stroke-dasharray: none; stroke-linecap: butt; stroke-dashoffset: 0; stroke-linejoin: miter; stroke-miterlimit: 4; fill: none; fill-rule: nonzero; opacity: 1;" vector-effect="non-scaling-stroke"  x="-51.63" y="-51.63" rx="0" ry="0" width="103.26" height="103.26" />
</g>
		<g transform="matrix(0.71 0.71 -0.71 0.71 72.91 -292.61)"  >
<rect style="stroke: rgb(158,170,133); stroke-width: 0.93; stroke-dasharray: none; stroke-linecap: butt; stroke-dashoffset: 0; stroke-linejoin: miter; stroke-miterlimit: 4; fill: none; fill-rule: nonzero; opacity: 1;" vector-effect="non-scaling-stroke"  x="-51.63" y="-51.63" rx="0" ry="0" width="103.26" height="103.26" />
</g>
		<g transform="matrix(0.71 0.71 -0.71 0.71 -73.12 -146.58)"  >
<rect style="stroke: rgb(158,170,133); stroke-width: 0.93; stroke-dasharray: none; stroke-linecap: butt; stroke-dashoffset: 0; stroke-linejoin: miter; stroke-miterlimit: 4; fill: none; fill-rule: nonzero; opacity: 1;" vector-effect="non-scaling-stroke"  x="-51.63" y="-51.63" rx="0" ry="0" width="103.26" height="103.26" />
</g>
		<g transform="matrix(0.71 0.71 -0.71 0.71 -219.15 -0.55)"  >
<rect style="stroke: rgb(158,170,133); stroke-width: 0.93; stroke-dasharray: none; stroke-linecap: butt; stroke-dashoffset: 0; stroke-linejoin: miter; stroke-miterlimit: 4; fill: none; fill-rule: nonzero; opacity: 1;" vector-effect="non-scaling-stroke"  x="-51.63" y="-51.63" rx="0" ry="0" width="103.26" height="103.26" />
</g>
		<g transform="matrix(0.71 0.71 -0.71 0.71 -73.12 146.36)"  >
<rect style="stroke: rgb(158,170,133); stroke-width: 0.93; stroke-dasharray: none; stroke-linecap: butt; stroke-dashoffset: 0; stroke-linejoin: miter; stroke-miterlimit: 4; fill: none; fill-rule: nonzero; opacity: 1;" vector-effect="non-scaling-stroke"  x="-51.63" y="-51.63" rx="0" ry="0" width="103.26" height="103.26" />
</g>
		<g transform="matrix(0.71 0.71 -0.71 0.71 73.34 -0.11)"  >
<rect style="stroke: rgb(158,170,133); stroke-width: 0.93; stroke-dasharray: none; stroke-linecap: butt; stroke-dashoffset: 0; stroke-linejoin: miter; stroke-miterlimit: 4; fill: none; fill-rule: nonzero; opacity: 1;" vector-effect="non-scaling-stroke"  x="-51.63" y="-51.63" rx="0" ry="0" width="103.26" height="103.26" />
</g>
		<g transform="matrix(0.71 0.71 -0.71 0.71 218.93 -146.58)"  >
<rect style="stroke: rgb(158,170,133); stroke-width: 0.93; stroke-dasharray: none; stroke-linecap: butt; stroke-dashoffset: 0; stroke-linejoin: miter; stroke-miterlimit: 4; fill: none; fill-rule: nonzero; opacity: 1;" vector-effect="non-scaling-stroke"  x="-51.63" y="-51.63" rx="0" ry="0" width="103.26" height="103.26" />
</g>
		<g transform="matrix(0.71 0.71 -0.71 0.71 145.92 -219.59)"  >
<rect style="stroke: rgb(158,170,133); stroke-width: 0.93; stroke-dasharray: none; stroke-linecap: butt; stroke-dashoffset: 0; stroke-linejoin: miter; stroke-miterlimit: 4; fill: none; fill-rule: nonzero; opacity: 1;" vector-effect="non-scaling-stroke"  x="-51.63" y="-51.63" rx="0" ry="0" width="103.26" height="103.26" />
</g>
		<g transform="matrix(0.71 0.71 -0.71 0.71 364.96 -0.55)"  >
<rect style="stroke: rgb(158,170,133); stroke-width: 0.93; stroke-dasharray: none; stroke-linecap: butt; stroke-dashoffset: 0; stroke-linejoin: miter; stroke-miterlimit: 4; fill: none; fill-rule: nonzero; opacity: 1;" vector-effect="non-scaling-stroke"  x="-51.63" y="-51.63" rx="0" ry="0" width="103.26" height="103.26" />
</g>
		<g transform="matrix(0.71 0.71 -0.71 0.71 291.95 -73.57)"  >
<rect style="stroke: rgb(158,170,133); stroke-width: 0.93; stroke-dasharray: none; stroke-linecap: butt; stroke-dashoffset: 0; stroke-linejoin: miter; stroke-miterlimit: 4; fill: none; fill-rule: nonzero; opacity: 1;" vector-effect="non-scaling-stroke"  x="-51.63" y="-51.63" rx="0" ry="0" width="103.26" height="103.26" />
</g>
		<g transform="matrix(0.71 0.71 -0.71 0.71 218.71 145.7)"  >
<rect style="stroke: rgb(158,170,133); stroke-width: 0.93; stroke-dasharray: none; stroke-linecap: butt; stroke-dashoffset: 0; stroke-linejoin: miter; stroke-miterlimit: 4; fill: none; fill-rule: nonzero; opacity: 1;" vector-effect="non-scaling-stroke"  x="-51.63" y="-51.63" rx="0" ry="0" width="103.26" height="103.26" />
</g>
		<g transform="matrix(0.71 0.71 -0.71 0.71 72.69 291.73)"  >
<rect style="stroke: rgb(158,170,133); stroke-width: 0.93; stroke-dasharray: none; stroke-linecap: butt; stroke-dashoffset: 0; stroke-linejoin: miter; stroke-miterlimit: 4; fill: none; fill-rule: nonzero; opacity: 1;" vector-effect="non-scaling-stroke"  x="-51.63" y="-51.63" rx="0" ry="0" width="103.26" height="103.26" />
</g>
		<g transform="matrix(0.71 0.71 -0.71 0.71 -0.11 -219.59)"  >
<rect style="stroke: rgb(158,170,133); stroke-width: 0.93; stroke-dasharray: none; stroke-linecap: butt; stroke-dashoffset: 0; stroke-linejoin: miter; stroke-miterlimit: 4; fill: none; fill-rule: nonzero; opacity: 1;" vector-effect="non-scaling-stroke"  x="-51.63" y="-51.63" rx="0" ry="0" width="103.26" height="103.26" />
</g>
		<g transform="matrix(0.71 0.71 -0.71 0.71 -146.14 -73.57)"  >
<rect style="stroke: rgb(158,170,133); stroke-width: 0.93; stroke-dasharray: none; stroke-linecap: butt; stroke-dashoffset: 0; stroke-linejoin: miter; stroke-miterlimit: 4; fill: none; fill-rule: nonzero; opacity: 1;" vector-effect="non-scaling-stroke"  x="-51.63" y="-51.63" rx="0" ry="0" width="103.26" height="103.26" />
</g>
		<g transform="matrix(0.71 0.71 -0.71 0.71 -292.61 72.9)"  >
<rect style="stroke: rgb(158,170,133); stroke-width: 0.93; stroke-dasharray: none; stroke-linecap: butt; stroke-dashoffset: 0; stroke-linejoin: miter; stroke-miterlimit: 4; fill: none; fill-rule: nonzero; opacity: 1;" vector-effect="non-scaling-stroke"  x="-51.63" y="-51.63" rx="0" ry="0" width="103.26" height="103.26" />
</g>
		<g transform="matrix(0.71 0.71 -0.71 0.71 -146.14 219.37)"  >
<rect style="stroke: rgb(158,170,133); stroke-width: 0.93; stroke-dasharray: none; stroke-linecap: butt; stroke-dashoffset: 0; stroke-linejoin: miter; stroke-miterlimit: 4; fill: none; fill-rule: nonzero; opacity: 1;" vector-effect="non-scaling-stroke"  x="-51.63" y="-51.63" rx="0" ry="0" width="103.26" height="103.26" />
</g>
		<g transform="matrix(0.71 0.71 -0.71 0.71 0.33 72.9)"  >
<rect style="stroke: rgb(158,170,133); stroke-width: 0.93; stroke-dasharray: none; stroke-linecap: butt; stroke-dashoffset: 0; stroke-linejoin: miter; stroke-miterlimit: 4; fill: none; fill-rule: nonzero; opacity: 1;" vector-effect="non-scaling-stroke"  x="-51.63" y="-51.63" rx="0" ry="0" width="103.26" height="103.26" />
</g>
		<g transform="matrix(0.71 0.71 -0.71 0.71 145.92 -73.57)"  >
<rect style="stroke: rgb(158,170,133); stroke-width: 0.93; stroke-dasharray: none; stroke-linecap: butt; stroke-dashoffset: 0; stroke-linejoin: miter; stroke-miterlimit: 4; fill: none; fill-rule: nonzero; opacity: 1;" vector-effect="non-scaling-stroke"  x="-51.63" y="-51.63" rx="0" ry="0" width="103.26" height="103.26" />
</g>
		<g transform="matrix(0.71 0.71 -0.71 0.71 291.95 72.46)"  >
<rect style="stroke: rgb(158,170,133); stroke-width: 0.93; stroke-dasharray: none; stroke-linecap: butt; stroke-dashoffset: 0; stroke-linejoin: miter; stroke-miterlimit: 4; fill: none; fill-rule: nonzero; opacity: 1;" vector-effect="non-scaling-stroke"  x="-51.63" y="-51.63" rx="0" ry="0" width="103.26" height="103.26" />
</g>
		<g transform="matrix(0.71 0.71 -0.71 0.71 145.7 218.71)"  >
<rect style="stroke: rgb(158,170,133); stroke-width: 0.93; stroke-dasharray: none; stroke-linecap: butt; stroke-dashoffset: 0; stroke-linejoin: miter; stroke-miterlimit: 4; fill: none; fill-rule: nonzero; opacity: 1;" vector-effect="non-scaling-stroke"  x="-51.63" y="-51.63" rx="0" ry="0" width="103.26" height="103.26" />
</g>
		<g transform="matrix(0.71 0.71 -0.71 0.71 -0.33 364.74)"  >
<rect style="stroke: rgb(158,170,133); stroke-width: 0.93; stroke-dasharray: none; stroke-linecap: butt; stroke-dashoffset: 0; stroke-linejoin: miter; stroke-miterlimit: 4; fill: none; fill-rule: nonzero; opacity: 1;" vector-effect="non-scaling-stroke"  x="-51.63" y="-51.63" rx="0" ry="0" width="103.26" height="103.26" />
</g>
		<g transform="matrix(0.71 0.71 -0.71 0.71 -73.12 -292.61)"  >
<rect style="stroke: rgb(158,170,133); stroke-width: 0.93; stroke-dasharray: none; stroke-linecap: butt; stroke-dashoffset: 0; stroke-linejoin: miter; stroke-miterlimit: 4; fill: none; fill-rule: nonzero; opacity: 1;" vector-effect="non-scaling-stroke"  x="-51.63" y="-51.63" rx="0" ry="0" width="103.26" height="103.26" />
</g>
		<g transform="matrix(0.71 0.71 -0.71 0.71 -219.15 -146.58)"  >
<rect style="stroke: rgb(158,170,133); stroke-width: 0.93; stroke-dasharray: none; stroke-linecap: butt; stroke-dashoffset: 0; stroke-linejoin: miter; stroke-miterlimit: 4; fill: none; fill-rule: nonzero; opacity: 1;" vector-effect="non-scaling-stroke"  x="-51.63" y="-51.63" rx="0" ry="0" width="103.26" height="103.26" />
</g>
		<g transform="matrix(0.71 0.71 -0.71 0.71 -365.62 -0.11)"  >
<rect style="stroke: rgb(158,170,133); stroke-width: 0.93; stroke-dasharray: none; stroke-linecap: butt; stroke-dashoffset: 0; stroke-linejoin: miter; stroke-miterlimit: 4; fill: none; fill-rule: nonzero; opacity: 1;" vector-effect="non-scaling-stroke"  x="-51.63" y="-51.63" rx="0" ry="0" width="103.26" height="103.26" />
</g>
		<g transform="matrix(0.71 0.71 -0.71 0.71 -219.15 146.36)"  >
<rect style="stroke: rgb(158,170,133); stroke-width: 0.93; stroke-dasharray: none; stroke-linecap: butt; stroke-dashoffset: 0; stroke-linejoin: miter; stroke-miterlimit: 4; fill: none; fill-rule: nonzero; opacity: 1;" vector-effect="non-scaling-stroke"  x="-51.63" y="-51.63" rx="0" ry="0" width="103.26" height="103.26" />
</g>
		<g transform="matrix(0.71 0.71 -0.71 0.71 -72.69 -0.11)"  >
<rect style="stroke: rgb(158,170,133); stroke-width: 0.93; stroke-dasharray: none; stroke-linecap: butt; stroke-dashoffset: 0; stroke-linejoin: miter; stroke-miterlimit: 4; fill: none; fill-rule: nonzero; opacity: 1;" vector-effect="non-scaling-stroke"  x="-51.63" y="-51.63" rx="0" ry="0" width="103.26" height="103.26" />
</g>
		<g transform="matrix(0.71 0.71 -0.71 0.71 72.91 -146.58)"  >
<rect style="stroke: rgb(158,170,133); stroke-width: 0.93; stroke-dasharray: none; stroke-linecap: butt; stroke-dashoffset: 0; stroke-linejoin: miter; stroke-miterlimit: 4; fill: none; fill-rule: nonzero; opacity: 1;" vector-effect="non-scaling-stroke"  x="-51.63" y="-51.63" rx="0" ry="0" width="103.26" height="103.26" />
</g>
		<g transform="matrix(0.71 0.71 -0.71 0.71 218.93 -0.55)"  >
<rect style="stroke: rgb(158,170,133); stroke-width: 0.93; stroke-dasharray: none; stroke-linecap: butt; stroke-dashoffset: 0; stroke-linejoin: miter; stroke-miterlimit: 4; fill: none; fill-rule: nonzero; opacity: 1;" vector-effect="non-scaling-stroke"  x="-51.63" y="-51.63" rx="0" ry="0" width="103.26" height="103.26" />
</g>
		<g transform="matrix(0.71 0.71 -0.71 0.71 145.7 72.68)"  >
<rect style="stroke: rgb(158,170,133); stroke-width: 0.93; stroke-dasharray: none; stroke-linecap: butt; stroke-dashoffset: 0; stroke-linejoin: miter; stroke-miterlimit: 4; fill: none; fill-rule: nonzero; opacity: 1;" vector-effect="non-scaling-stroke"  x="-51.63" y="-51.63" rx="0" ry="0" width="103.26" height="103.26" />
</g>
		<g transform="matrix(0.71 0.71 -0.71 0.71 -0.55 218.93)"  >
<rect style="stroke: rgb(158,170,133); stroke-width: 0.93; stroke-dasharray: none; stroke-linecap: butt; stroke-dashoffset: 0; stroke-linejoin: miter; stroke-miterlimit: 4; fill: none; fill-rule: nonzero; opacity: 1;" vector-effect="non-scaling-stroke"  x="-51.63" y="-51.63" rx="0" ry="0" width="103.26" height="103.26" />
</g>
		<g transform="matrix(0.71 0.71 -0.71 0.71 72.69 145.7)"  >
<rect style="stroke: rgb(158,170,133); stroke-width: 0.93; stroke-dasharray: none; stroke-linecap: butt; stroke-dashoffset: 0; stroke-linejoin: miter; stroke-miterlimit: 4; fill: none; fill-rule: nonzero; opacity: 1;" vector-effect="non-scaling-stroke"  x="-51.63" y="-51.63" rx="0" ry="0" width="103.26" height="103.26" />
</g>
		<g transform="matrix(0.71 0.71 -0.71 0.71 -73.34 291.73)"  >
<rect style="stroke: rgb(158,170,133); stroke-width: 0.93; stroke-dasharray: none; stroke-linecap: butt; stroke-dashoffset: 0; stroke-linejoin: miter; stroke-miterlimit: 4; fill: none; fill-rule: nonzero; opacity: 1;" vector-effect="non-scaling-stroke"  x="-51.63" y="-51.63" rx="0" ry="0" width="103.26" height="103.26" />
</g>
		<g transform="matrix(0.71 0.71 -0.71 0.71 0.33 -109.97)"  >
<rect style="stroke: rgb(158,170,133); stroke-width: 0.93; stroke-dasharray: none; stroke-linecap: butt; stroke-dashoffset: 0; stroke-linejoin: miter; stroke-miterlimit: 4; fill: none; fill-rule: nonzero; opacity: 1;" vector-effect="non-scaling-stroke"  x="-25.58" y="-25.58" rx="0" ry="0" width="51.16" height="51.16" />
</g>
		<g transform="matrix(0.71 0.71 -0.71 0.71 0.33 -109.97)"  >
<rect style="stroke: rgb(158,170,133); stroke-width: 0.93; stroke-dasharray: none; stroke-linecap: butt; stroke-dashoffset: 0; stroke-linejoin: miter; stroke-miterlimit: 4; fill: none; fill-rule: nonzero; opacity: 1;" vector-effect="non-scaling-stroke"  x="-25.58" y="-25.58" rx="0" ry="0" width="51.16" height="51.16" />
</g>
		<g transform="matrix(0.71 0.71 -0.71 0.71 -72.9 -36.73)"  >
<rect style="stroke: rgb(158,170,133); stroke-width: 0.93; stroke-dasharray: none; stroke-linecap: butt; stroke-dashoffset: 0; stroke-linejoin: miter; stroke-miterlimit: 4; fill: none; fill-rule: nonzero; opacity: 1;" vector-effect="non-scaling-stroke"  x="-25.58" y="-25.58" rx="0" ry="0" width="51.16" height="51.16" />
</g>
		<g transform="matrix(0.71 0.71 -0.71 0.71 72.91 -37.39)"  >
<rect style="stroke: rgb(158,170,133); stroke-width: 0.93; stroke-dasharray: none; stroke-linecap: butt; stroke-dashoffset: 0; stroke-linejoin: miter; stroke-miterlimit: 4; fill: none; fill-rule: nonzero; opacity: 1;" vector-effect="non-scaling-stroke"  x="-25.58" y="-25.58" rx="0" ry="0" width="51.16" height="51.16" />
</g>
		<g transform="matrix(0.71 0.71 -0.71 0.71 0.77 -37.17)"  >
<rect style="stroke: rgb(158,170,133); stroke-width: 0.93; stroke-dasharray: none; stroke-linecap: butt; stroke-dashoffset: 0; stroke-linejoin: miter; stroke-miterlimit: 4; fill: none; fill-rule: nonzero; opacity: 1;" vector-effect="non-scaling-stroke"  x="-25.58" y="-25.58" rx="0" ry="0" width="51.16" height="51.16" />
</g>
		<g transform="matrix(0.71 0.71 -0.71 0.71 -73.34 36.06)"  >
<rect style="stroke: rgb(158,170,133); stroke-width: 0.93; stroke-dasharray: none; stroke-linecap: butt; stroke-dashoffset: 0; stroke-linejoin: miter; stroke-miterlimit: 4; fill: none; fill-rule: nonzero; opacity: 1;" vector-effect="non-scaling-stroke"  x="-25.58" y="-25.58" rx="0" ry="0" width="51.16" height="51.16" />
</g>
		<g transform="matrix(0.71 0.71 -0.71 0.71 72.91 34.97)"  >
<rect style="stroke: rgb(158,170,133); stroke-width: 0.93; stroke-dasharray: none; stroke-linecap: butt; stroke-dashoffset: 0; stroke-linejoin: miter; stroke-miterlimit: 4; fill: none; fill-rule: nonzero; opacity: 1;" vector-effect="non-scaling-stroke"  x="-25.58" y="-25.58" rx="0" ry="0" width="51.16" height="51.16" />
</g>
		<g transform="matrix(0.71 0.71 -0.71 0.71 36.51 -73.79)"  >
<rect style="stroke: rgb(158,170,133); stroke-width: 0.93; stroke-dasharray: none; stroke-linecap: butt; stroke-dashoffset: 0; stroke-linejoin: miter; stroke-miterlimit: 4; fill: none; fill-rule: nonzero; opacity: 1;" vector-effect="non-scaling-stroke"  x="-25.58" y="-25.58" rx="0" ry="0" width="51.16" height="51.16" />
</g>
		<g transform="matrix(0.71 0.71 -0.71 0.71 -36.07 0.1)"  >
<rect style="stroke: rgb(158,170,133); stroke-width: 0.93; stroke-dasharray: none; stroke-linecap: butt; stroke-dashoffset: 0; stroke-linejoin: miter; stroke-miterlimit: 4; fill: none; fill-rule: nonzero; opacity: 1;" vector-effect="non-scaling-stroke"  x="-25.58" y="-25.58" rx="0" ry="0" width="51.16" height="51.16" />
</g>
		<g transform="matrix(0.71 0.71 -0.71 0.71 109.08 -1.21)"  >
<rect style="stroke: rgb(158,170,133); stroke-width: 0.93; stroke-dasharray: none; stroke-linecap: butt; stroke-dashoffset: 0; stroke-linejoin: miter; stroke-miterlimit: 4; fill: none; fill-rule: nonzero; opacity: 1;" vector-effect="non-scaling-stroke"  x="-25.58" y="-25.58" rx="0" ry="0" width="51.16" height="51.16" />
</g>
		<g transform="matrix(0.71 0.71 -0.71 0.71 -0.11 36.5)"  >
<rect style="stroke: rgb(158,170,133); stroke-width: 0.93; stroke-dasharray: none; stroke-linecap: butt; stroke-dashoffset: 0; stroke-linejoin: miter; stroke-miterlimit: 4; fill: none; fill-rule: nonzero; opacity: 1;" vector-effect="non-scaling-stroke"  x="-25.58" y="-25.58" rx="0" ry="0" width="51.16" height="51.16" />
</g>
		<g transform="matrix(0.71 0.71 -0.71 0.71 36.22 72.53)"  >
<rect style="stroke: rgb(158,170,133); stroke-width: 0.93; stroke-dasharray: none; stroke-linecap: butt; stroke-dashoffset: 0; stroke-linejoin: miter; stroke-miterlimit: 4; fill: none; fill-rule: nonzero; opacity: 1;" vector-effect="non-scaling-stroke"  x="-25.58" y="-25.58" rx="0" ry="0" width="51.16" height="51.16" />
</g>
		<g transform="matrix(0.71 0.71 -0.71 0.71 -0.99 109.74)"  >
<rect style="stroke: rgb(158,170,133); stroke-width: 0.93; stroke-dasharray: none; stroke-linecap: butt; stroke-dashoffset: 0; stroke-linejoin: miter; stroke-miterlimit: 4; fill: none; fill-rule: nonzero; opacity: 1;" vector-effect="non-scaling-stroke"  x="-25.58" y="-25.58" rx="0" ry="0" width="51.16" height="51.16" />
</g>
		<g transform="matrix(0.71 0.71 -0.71 0.71 -36.29 72.68)"  >
<rect style="stroke: rgb(158,170,133); stroke-width: 0.93; stroke-dasharray: none; stroke-linecap: butt; stroke-dashoffset: 0; stroke-linejoin: miter; stroke-miterlimit: 4; fill: none; fill-rule: nonzero; opacity: 1;" vector-effect="non-scaling-stroke"  x="-25.58" y="-25.58" rx="0" ry="0" width="51.16" height="51.16" />
</g>
		<g transform="matrix(0.71 0.71 -0.71 0.71 0.11 0.11)"  >
<circle style="stroke: rgb(158,170,133); stroke-width: 0.93; stroke-dasharray: none; stroke-linecap: butt; stroke-dashoffset: 0; stroke-linejoin: miter; stroke-miterlimit: 4; fill: none; fill-rule: nonzero; opacity: 1;" vector-effect="non-scaling-stroke"  cx="0" cy="0" r="310.085" />
</g>
		<g transform="matrix(0.71 0.71 -0.71 0.71 109.52 -109.3)"  >
<circle style="stroke: rgb(158,170,133); stroke-width: 0.93; stroke-dasharray: none; stroke-linecap: butt; stroke-dashoffset: 0; stroke-linejoin: miter; stroke-miterlimit: 4; fill: none; fill-rule: nonzero; opacity: 1;" vector-effect="non-scaling-stroke"  cx="0" cy="0" r="155.042" />
</g>
		<g transform="matrix(0.71 0.71 -0.71 0.71 -109.74 109.96)"  >
<circle style="stroke: rgb(158,170,133); stroke-width: 0.93; stroke-dasharray: none; stroke-linecap: butt; stroke-dashoffset: 0; stroke-linejoin: miter; stroke-miterlimit: 4; fill: none; fill-rule: nonzero; opacity: 1;" vector-effect="non-scaling-stroke"  cx="0" cy="0" r="155.042" />
</g>
		<g transform="matrix(0.71 0.71 -0.71 0.71 108.86 109.3)"  >
<circle style="stroke: rgb(158,170,133); stroke-width: 0.93; stroke-dasharray: none; stroke-linecap: butt; stroke-dashoffset: 0; stroke-linejoin: miter; stroke-miterlimit: 4; fill: none; fill-rule: nonzero; opacity: 1;" vector-effect="non-scaling-stroke"  cx="0" cy="0" r="155.042" />
</g>
		<g transform="matrix(0.71 0.71 -0.71 0.71 -109.74 -109.3)"  >
<circle style="stroke: rgb(158,170,133); stroke-width: 0.93; stroke-dasharray: none; stroke-linecap: butt; stroke-dashoffset: 0; stroke-linejoin: miter; stroke-miterlimit: 4; fill: none; fill-rule: nonzero; opacity: 1;" vector-effect="non-scaling-stroke"  cx="0" cy="0" r="155.042" />
</g>
</g>
</g>
<g transform="matrix(7.23 0 0 7.23 540.74 539.74)"  >
<path style="stroke: rgb(205,171,218); stroke-width: 0; stroke-dasharray: none; stroke-linecap: butt; stroke-dashoffset: 0; stroke-linejoin: miter; stroke-miterlimit: 4; fill: rgb(205,171,218); fill-rule: nonzero; opacity: 1;" vector-effect="non-scaling-stroke"  transform=" translate(-50, -50)" d="M 50 92.875 C 26.358 92.875 7.125 73.642 7.125 50 C 7.125 26.358000000000004 26.358 7.125 50 7.125 C 73.642 7.125 92.875 26.358 92.875 50 C 92.875 73.642 73.642 92.875 50 92.875 z M 50 9.125 C 27.461 9.125 9.125 27.461 9.125 50 C 9.125 72.538 27.461 90.875 50 90.875 C 72.538 90.875 90.875 72.538 90.875 50 C 90.875 27.461 72.538 9.125 50 9.125 z" stroke-linecap="round" />
</g>
<g transform="matrix(0 0 0 0 0 0)"  >
<g style=""   >
</g>
</g>
<g transform="matrix(0 0 0 0 0 0)"  >
<g style=""   >
</g>
</g>
<g transform="matrix(1 0 0 1 540 180.91)" style="" id="804d949a-72b1-4f11-8db2-18f2b9c3e4d2"  >
		<text xml:space="preserve" font-family="Lato" font-size="32" font-style="normal" font-weight="400" style="stroke: none; stroke-width: 1; stroke-dasharray: none; stroke-linecap: butt; stroke-dashoffset: 0; stroke-linejoin: miter; stroke-miterlimit: 4; fill: rgb(205,171,218); fill-rule: nonzero; opacity: 1; white-space: pre;" ><tspan x="-50.22" y="10.05" >Testing</tspan></text>
</g>
<g transform="matrix(0 0 0 0 0 0)"  >
<g style=""   >
</g>
</g>
<g transform="matrix(1 0 0 1 177.18 540)" style=""  >
		<text xml:space="preserve" font-family="Lato" font-size="32" font-style="normal" font-weight="400" style="stroke: none; stroke-width: 1; stroke-dasharray: none; stroke-linecap: butt; stroke-dashoffset: 0; stroke-linejoin: miter; stroke-miterlimit: 4; fill: rgb(205,171,218); fill-rule: nonzero; opacity: 1; white-space: pre;" ><tspan x="-50.22" y="10.05" >Testing</tspan></text>
</g>
<g transform="matrix(1 0 0 1 540 896.19)" style=""  >
		<text xml:space="preserve" font-family="Lato" font-size="32" font-style="normal" font-weight="400" style="stroke: none; stroke-width: 1; stroke-dasharray: none; stroke-linecap: butt; stroke-dashoffset: 0; stroke-linejoin: miter; stroke-miterlimit: 4; fill: rgb(205,171,218); fill-rule: nonzero; opacity: 1; white-space: pre;" ><tspan x="-50.22" y="10.05" >Testing</tspan></text>
</g>
<g transform="matrix(1 0 0 1 908.03 540)" style=""  >
		<text xml:space="preserve" font-family="Lato" font-size="32" font-style="normal" font-weight="400" style="stroke: none; stroke-width: 1; stroke-dasharray: none; stroke-linecap: butt; stroke-dashoffset: 0; stroke-linejoin: miter; stroke-miterlimit: 4; fill: rgb(205,171,218); fill-rule: nonzero; opacity: 1; white-space: pre;" ><tspan x="-50.22" y="10.05" >Testing</tspan></text>
</g>
</svg>