<svg width="88" height="92" viewBox="0 0 88 92" fill="none" xmlns="http://www.w3.org/2000/svg">
<g id="Group 1113">
<rect id="Rectangle 1616" width="15.5449" height="15.5449" transform="matrix(0.707108 0.707106 -0.707108 0.707106 21.7793 45.6917)" stroke="#C1A973" stroke-width="1"/>
<rect id="Rectangle 1621" width="15.5449" height="15.5449" transform="matrix(0.707108 0.707106 -0.707108 0.707106 21.7793 24.2207)" stroke="#C1A973" stroke-width="1"/>
<rect id="Rectangle 1617" width="15.5449" height="15.5449" transform="matrix(0.707108 0.707106 -0.707108 0.707106 65.9209 45.6917)" stroke="#C1A973" stroke-width="1"/>
<rect id="Rectangle 1622" width="15.5449" height="15.5449" transform="matrix(0.707108 0.707106 -0.707108 0.707106 65.9209 24.2207)" stroke="#C1A973" stroke-width="1"/>
<rect id="Rectangle 1618" width="15.5449" height="15.5449" transform="matrix(0.707108 0.707106 -0.707108 0.707106 44.0205 67.7417)" stroke="#C1A973" stroke-width="1"/>
<rect id="Rectangle 1623" width="15.5449" height="15.5449" transform="matrix(0.707108 0.707106 -0.707108 0.707106 44.0205 2.02075)" stroke="#C1A973" stroke-width="1"/>
<rect id="Rectangle 1619" width="15.5449" height="15.5449" transform="matrix(0.707108 0.707106 -0.707108 0.707106 44.0205 23.9417)" stroke="#C1A973" stroke-width="1"/>
<rect id="Rectangle 1620" width="15.5449" height="15.5449" transform="matrix(0.707108 0.707106 -0.707108 0.707106 44.0205 45.8416)" stroke="#C1A973" stroke-width="1"/>
</g>
</svg>
