<svg width="878" height="879" viewBox="0 0 878 879" fill="none" xmlns="http://www.w3.org/2000/svg">
<g id="tech-30 1" clip-path="url(#clip0_2_2)">
<g id="Clip path group">
<mask id="mask0_2_2" style="mask-type:luminance" maskUnits="userSpaceOnUse" x="0" y="0" width="878" height="879">
<g id="clip0_1_2">
<path id="Vector" d="M878 0H0V879H878V0Z" fill="white"/>
</g>
</mask>
<g mask="url(#mask0_2_2)">
<g id="Group">
<g id="Mask group">
<mask id="mask1_2_2" style="mask-type:luminance" maskUnits="userSpaceOnUse" x="0" y="0" width="878" height="879">
<g id="Group_2">
<path id="Vector_2" d="M878 7.62939e-06H0V879H878V7.62939e-06Z" fill="white"/>
</g>
</mask>
<g mask="url(#mask1_2_2)">
<g id="Group_3">
<g id="Mask group_2">
<mask id="mask2_2_2" style="mask-type:luminance" maskUnits="userSpaceOnUse" x="0" y="0" width="878" height="879">
<g id="Group_4">
<path id="Vector_3" d="M878 7.62939e-06H0V879H878V7.62939e-06Z" fill="white"/>
</g>
</mask>
<g mask="url(#mask2_2_2)">
<g id="Group_5">
<path id="Vector_4" d="M512.76 74.0144L439.746 1.00001L366.732 74.0144L439.746 147.029L512.76 74.0144Z" stroke="#9EAA85" stroke-width="0.930255"/>
<path id="Vector_5" d="M366.731 220.043L293.717 147.029L220.703 220.043L293.717 293.058L366.731 220.043Z" stroke="#9EAA85" stroke-width="0.930255"/>
<path id="Vector_6" d="M220.702 366.072L147.688 293.058L74.6736 366.072L147.688 439.087L220.702 366.072Z" stroke="#9EAA85" stroke-width="0.930255"/>
<path id="Vector_7" d="M366.731 512.979L293.717 439.965L220.703 512.979L293.717 585.994L366.731 512.979Z" stroke="#9EAA85" stroke-width="0.930255"/>
<path id="Vector_8" d="M513.199 366.511L440.185 293.497L367.171 366.511L440.185 439.526L513.199 366.511Z" stroke="#9EAA85" stroke-width="0.930255"/>
<path id="Vector_9" d="M585.775 147.029L512.761 74.0146L439.747 147.029L512.761 220.043L585.775 147.029Z" stroke="#9EAA85" stroke-width="0.930255"/>
<path id="Vector_10" d="M439.745 293.058L366.731 220.044L293.717 293.058L366.731 366.073L439.745 293.058Z" stroke="#9EAA85" stroke-width="0.930255"/>
<path id="Vector_11" d="M293.716 439.087L220.702 366.073L147.688 439.087L220.702 512.102L293.716 439.087Z" stroke="#9EAA85" stroke-width="0.930255"/>
<path id="Vector_12" d="M439.745 585.993L366.731 512.979L293.717 585.993L366.731 659.008L439.745 585.993Z" stroke="#9EAA85" stroke-width="0.930255"/>
<path id="Vector_13" d="M586.213 439.526L513.199 366.512L440.185 439.526L513.199 512.541L586.213 439.526Z" stroke="#9EAA85" stroke-width="0.930255"/>
<path id="Vector_14" d="M731.804 293.058L658.79 220.044L585.776 293.058L658.79 366.073L731.804 293.058Z" stroke="#9EAA85" stroke-width="0.930255"/>
<path id="Vector_15" d="M658.789 220.043L585.775 147.029L512.761 220.043L585.775 293.058L658.789 220.043Z" stroke="#9EAA85" stroke-width="0.930255"/>
<path id="Vector_16" d="M877.833 439.087L804.819 366.073L731.805 439.087L804.819 512.102L877.833 439.087Z" stroke="#9EAA85" stroke-width="0.930255"/>
<path id="Vector_17" d="M804.819 366.072L731.805 293.058L658.791 366.072L731.805 439.087L804.819 366.072Z" stroke="#9EAA85" stroke-width="0.930255"/>
<path id="Vector_18" d="M731.584 585.336L658.57 512.322L585.556 585.336L658.57 658.351L731.584 585.336Z" stroke="#9EAA85" stroke-width="0.930255"/>
<path id="Vector_19" d="M585.556 731.365L512.542 658.351L439.528 731.365L512.542 804.38L585.556 731.365Z" stroke="#9EAA85" stroke-width="0.930255"/>
<path id="Vector_20" d="M512.76 220.043L439.746 147.029L366.732 220.043L439.746 293.058L512.76 220.043Z" stroke="#9EAA85" stroke-width="0.930255"/>
<path id="Vector_21" d="M366.731 366.072L293.717 293.058L220.703 366.072L293.717 439.087L366.731 366.072Z" stroke="#9EAA85" stroke-width="0.930255"/>
<path id="Vector_22" d="M220.263 512.54L147.249 439.526L74.2346 512.54L147.249 585.555L220.263 512.54Z" stroke="#9EAA85" stroke-width="0.930255"/>
<path id="Vector_23" d="M366.731 659.008L293.717 585.994L220.703 659.008L293.717 732.023L366.731 659.008Z" stroke="#9EAA85" stroke-width="0.930255"/>
<path id="Vector_24" d="M513.199 512.54L440.185 439.526L367.171 512.54L440.185 585.555L513.199 512.54Z" stroke="#9EAA85" stroke-width="0.930255"/>
<path id="Vector_25" d="M658.789 366.072L585.775 293.058L512.761 366.072L585.775 439.087L658.789 366.072Z" stroke="#9EAA85" stroke-width="0.930255"/>
<path id="Vector_26" d="M804.819 512.102L731.805 439.088L658.791 512.102L731.805 585.117L804.819 512.102Z" stroke="#9EAA85" stroke-width="0.930255"/>
<path id="Vector_27" d="M658.571 658.35L585.557 585.336L512.543 658.35L585.557 731.365L658.571 658.35Z" stroke="#9EAA85" stroke-width="0.930255"/>
<path id="Vector_28" d="M512.541 804.38L439.527 731.366L366.513 804.38L439.527 877.395L512.541 804.38Z" stroke="#9EAA85" stroke-width="0.930255"/>
<path id="Vector_29" d="M439.745 147.029L366.731 74.0146L293.717 147.029L366.731 220.043L439.745 147.029Z" stroke="#9EAA85" stroke-width="0.930255"/>
<path id="Vector_30" d="M293.716 293.058L220.702 220.044L147.688 293.058L220.702 366.073L293.716 293.058Z" stroke="#9EAA85" stroke-width="0.930255"/>
<path id="Vector_31" d="M147.249 439.526L74.2344 366.512L1.21997 439.526L74.2344 512.541L147.249 439.526Z" stroke="#9EAA85" stroke-width="0.930255"/>
<path id="Vector_32" d="M293.716 585.994L220.702 512.98L147.688 585.994L220.702 659.009L293.716 585.994Z" stroke="#9EAA85" stroke-width="0.930255"/>
<path id="Vector_33" d="M440.184 439.526L367.17 366.512L294.156 439.526L367.17 512.541L440.184 439.526Z" stroke="#9EAA85" stroke-width="0.930255"/>
<path id="Vector_34" d="M585.775 293.058L512.761 220.044L439.747 293.058L512.761 366.073L585.775 293.058Z" stroke="#9EAA85" stroke-width="0.930255"/>
<path id="Vector_35" d="M731.804 439.087L658.79 366.073L585.776 439.087L658.79 512.102L731.804 439.087Z" stroke="#9EAA85" stroke-width="0.930255"/>
<path id="Vector_36" d="M658.571 512.321L585.557 439.307L512.543 512.321L585.557 585.336L658.571 512.321Z" stroke="#9EAA85" stroke-width="0.930255"/>
<path id="Vector_37" d="M512.322 658.57L439.308 585.556L366.294 658.57L439.308 731.585L512.322 658.57Z" stroke="#9EAA85" stroke-width="0.930255"/>
<path id="Vector_38" d="M585.555 585.336L512.541 512.322L439.527 585.336L512.541 658.351L585.555 585.336Z" stroke="#9EAA85" stroke-width="0.930255"/>
<path id="Vector_39" d="M439.526 731.365L366.512 658.351L293.498 731.365L366.512 804.38L439.526 731.365Z" stroke="#9EAA85" stroke-width="0.930255"/>
<path id="Vector_40" d="M476.363 329.675L440.185 293.497L404.007 329.675L440.185 365.854L476.363 329.675Z" stroke="#9EAA85" stroke-width="0.930255"/>
<path id="Vector_41" d="M476.363 329.675L440.185 293.497L404.007 329.675L440.185 365.854L476.363 329.675Z" stroke="#9EAA85" stroke-width="0.930255"/>
<path id="Vector_42" d="M403.129 402.909L366.951 366.731L330.773 402.909L366.951 439.088L403.129 402.909Z" stroke="#9EAA85" stroke-width="0.930255"/>
<path id="Vector_43" d="M548.939 402.251L512.761 366.073L476.583 402.251L512.761 438.43L548.939 402.251Z" stroke="#9EAA85" stroke-width="0.930255"/>
<path id="Vector_44" d="M476.801 402.47L440.623 366.292L404.445 402.47L440.623 438.649L476.801 402.47Z" stroke="#9EAA85" stroke-width="0.930255"/>
<path id="Vector_45" d="M402.691 475.704L366.513 439.526L330.335 475.704L366.513 511.883L402.691 475.704Z" stroke="#9EAA85" stroke-width="0.930255"/>
<path id="Vector_46" d="M548.939 474.608L512.761 438.43L476.583 474.608L512.761 510.787L548.939 474.608Z" stroke="#9EAA85" stroke-width="0.930255"/>
<path id="Vector_47" d="M512.541 365.854L476.363 329.676L440.185 365.854L476.363 402.033L512.541 365.854Z" stroke="#9EAA85" stroke-width="0.930255"/>
<path id="Vector_48" d="M439.965 439.745L403.787 403.567L367.609 439.745L403.787 475.924L439.965 439.745Z" stroke="#9EAA85" stroke-width="0.930255"/>
<path id="Vector_49" d="M585.117 438.429L548.939 402.251L512.761 438.429L548.939 474.608L585.117 438.429Z" stroke="#9EAA85" stroke-width="0.930255"/>
<path id="Vector_50" d="M475.924 476.143L439.746 439.965L403.568 476.143L439.746 512.322L475.924 476.143Z" stroke="#9EAA85" stroke-width="0.930255"/>
<path id="Vector_51" d="M512.249 512.175L476.071 475.997L439.893 512.175L476.071 548.354L512.249 512.175Z" stroke="#9EAA85" stroke-width="0.930255"/>
<path id="Vector_52" d="M475.046 549.377L438.868 513.199L402.69 549.377L438.868 585.556L475.046 549.377Z" stroke="#9EAA85" stroke-width="0.930255"/>
<path id="Vector_53" d="M439.745 512.321L403.567 476.143L367.389 512.321L403.567 548.5L439.745 512.321Z" stroke="#9EAA85" stroke-width="0.930255"/>
<path id="Vector_54" d="M220.702 659.009C341.798 780.105 538.132 780.105 659.228 659.009C780.324 537.913 780.324 341.579 659.228 220.483C538.132 99.3871 341.798 99.3871 220.702 220.483C99.6061 341.579 99.6061 537.913 220.702 659.009Z" stroke="#9EAA85" stroke-width="0.930255"/>
<path id="Vector_55" d="M439.746 439.964C500.293 500.512 598.461 500.512 659.008 439.964C719.556 379.417 719.556 281.249 659.008 220.702C598.461 160.154 500.293 160.154 439.746 220.702C379.198 281.249 379.198 379.417 439.746 439.964Z" stroke="#9EAA85" stroke-width="0.930255"/>
<path id="Vector_56" d="M220.483 659.227C281.03 719.775 379.198 719.775 439.745 659.227C500.293 598.68 500.293 500.512 439.745 439.965C379.198 379.417 281.03 379.417 220.483 439.965C159.935 500.512 159.935 598.68 220.483 659.227Z" stroke="#9EAA85" stroke-width="0.930255"/>
<path id="Vector_57" d="M439.089 658.569C499.636 719.117 597.804 719.117 658.351 658.569C718.899 598.022 718.899 499.854 658.351 439.307C597.804 378.759 499.636 378.759 439.089 439.307C378.541 499.854 378.541 598.022 439.089 658.569Z" stroke="#9EAA85" stroke-width="0.930255"/>
<path id="Vector_58" d="M220.483 439.964C281.03 500.512 379.198 500.512 439.745 439.964C500.293 379.417 500.293 281.249 439.745 220.702C379.198 160.154 281.03 160.154 220.483 220.702C159.935 281.249 159.935 379.417 220.483 439.964Z" stroke="#9EAA85" stroke-width="0.930255"/>
<path id="Vector_59" d="M440.827 293.998L586.43 437.457L657.536 365.288L511.934 221.829L440.827 293.998Z" stroke="#D0E6A4" stroke-opacity="0.3" stroke-width="4"/>
<path id="Vector_60" d="M221.829 512.475L366.376 656.997L438.01 585.351L293.462 440.829L221.829 512.475Z" stroke="#D0E6A4" stroke-opacity="0.3" stroke-width="4"/>
<path id="Vector_61" d="M366.815 221.777L221.882 365.913L293.324 437.75L438.257 293.614L366.815 221.777Z" stroke="#D0E6A4" stroke-opacity="0.3" stroke-width="4"/>
<path id="Vector_62" d="M585.165 439.829L440.828 584.561L512.566 656.103L656.903 511.37L585.165 439.829Z" stroke="#D0E6A4" stroke-opacity="0.3" stroke-width="4"/>
<path id="Vector_63" d="M331 485C416.604 485 486 415.604 486 330C486 244.396 416.604 175 331 175C245.396 175 176 244.396 176 330C176 415.604 245.396 485 331 485Z" stroke="#FB887B" stroke-opacity="0.3" stroke-width="4"/>
<path id="Vector_64" d="M549 485C634.604 485 704 415.604 704 330C704 244.396 634.604 175 549 175C463.396 175 394 244.396 394 330C394 415.604 463.396 485 549 485Z" stroke="#FB887B" stroke-opacity="0.3" stroke-width="4"/>
<path id="Vector_65" d="M330 704C415.604 704 485 634.604 485 549C485 463.396 415.604 394 330 394C244.396 394 175 463.396 175 549C175 634.604 244.396 704 330 704Z" stroke="#FB887B" stroke-opacity="0.3" stroke-width="4"/>
<path id="Vector_66" d="M549 704C634.604 704 704 634.604 704 549C704 463.396 634.604 394 549 394C463.396 394 394 463.396 394 549C394 634.604 463.396 704 549 704Z" stroke="#FB887B" stroke-opacity="0.3" stroke-width="4"/>
</g>
</g>
</g>
</g>
</g>
</g>
<path id="Vector_67" d="M145.921 292.933L0 440.148L147.215 586.069L293.135 438.854L145.921 292.933Z" stroke="#FEDD95" stroke-opacity="0.3" stroke-width="4"/>
<path id="Vector_68" d="M292.921 146L147 293.215L294.215 439.136L440.135 291.921L292.921 146Z" stroke="#FEDD95" stroke-opacity="0.3" stroke-width="4"/>
<path id="Vector_69" d="M439.078 -1.00089L292.999 146.057L440.057 292.136L586.136 145.078L439.078 -1.00089Z" stroke="#FEDD95" stroke-opacity="0.3" stroke-width="4"/>
<path id="Vector_70" d="M294.079 439L148 586.058L295.058 732.137L441.137 585.079L294.079 439Z" stroke="#FEDD95" stroke-opacity="0.3" stroke-width="4"/>
<path id="Vector_71" d="M441.079 292L295 439.058L442.058 585.137L588.137 438.079L441.079 292Z" stroke="#FEDD95" stroke-opacity="0.3" stroke-width="4"/>
<path id="Vector_72" d="M587.079 146L441 293.058L588.058 439.137L734.137 292.079L587.079 146Z" stroke="#FEDD95" stroke-opacity="0.3" stroke-width="4"/>
<path id="Vector_73" d="M439.079 586L293 733.058L440.058 879.137L586.137 732.079L439.079 586Z" stroke="#FEDD95" stroke-opacity="0.3" stroke-width="4"/>
<path id="Vector_74" d="M587.079 439L441 586.058L588.058 732.137L734.137 585.079L587.079 439Z" stroke="#FEDD95" stroke-opacity="0.3" stroke-width="4"/>
<path id="Vector_75" d="M732.6 292L586 438.539L732.539 585.139L879.138 438.6L732.6 292Z" stroke="#FEDD95" stroke-opacity="0.3" stroke-width="4"/>
</g>
</g>
</g>
<circle id="cycle-1" cx="440.5" cy="441.5" r="309.5" stroke="#CDABDA" stroke-opacity="0.3" stroke-width="5" stroke-dasharray="8 8"/>
</g>
<defs>
<clipPath id="clip0_2_2">
<rect width="878" height="879" fill="white"/>
</clipPath>
</defs>
</svg>
