<?xml version="1.0" encoding="UTF-8" standalone="no" ?>
<!DOCTYPE svg PUBLIC "-//W3C//DTD SVG 1.1//EN" "http://www.w3.org/Graphics/SVG/1.1/DTD/svg11.dtd">
<svg xmlns="http://www.w3.org/2000/svg" xmlns:xlink="http://www.w3.org/1999/xlink" version="1.1" width="1080" height="1080" viewBox="0 0 1080 1080" xml:space="preserve">
<desc>Created with Fabric.js 5.2.4</desc>
<defs>
</defs>
<g transform="matrix(1 0 0 1 540 540)" id="27bb743e-1aad-40f1-a9f4-ff050931ca99"  >
<rect style="stroke: none; stroke-width: 1; stroke-dasharray: none; stroke-linecap: butt; stroke-dashoffset: 0; stroke-linejoin: miter; stroke-miterlimit: 4; fill: transparent; fill-opacity: 0; fill-rule: nonzero; opacity: 1;" vector-effect="non-scaling-stroke"  x="-540" y="-540" rx="0" ry="0" width="1080" height="1080" />
</g>
<g transform="matrix(1 0 0 1 540 540)" id="affc9d08-742f-42fc-a7ea-745771996878"  >
</g>
<g transform="matrix(1 0 0 1 540 540)"  >
<rect style="stroke: none; stroke-width: 1; stroke-dasharray: none; stroke-linecap: butt; stroke-dashoffset: 0; stroke-linejoin: miter; stroke-miterlimit: 4; fill: transparent; fill-rule: nonzero; opacity: 1;" vector-effect="non-scaling-stroke"  x="-540" y="-540" rx="0" ry="0" width="1080" height="1080" />
</g>
<g transform="matrix(0.71 0.71 -0.71 0.71 539.89 174.38)"  >
<rect style="stroke: rgb(158,170,133); stroke-width: 0.93; stroke-dasharray: none; stroke-linecap: butt; stroke-dashoffset: 0; stroke-linejoin: miter; stroke-miterlimit: 4; fill: none; fill-rule: nonzero; opacity: 1;" vector-effect="non-scaling-stroke"  x="-51.63" y="-51.63" rx="0" ry="0" width="103.26" height="103.26" />
</g>
<g transform="matrix(0.71 0.71 -0.71 0.71 393.86 320.41)"  >
<rect style="stroke: rgb(158,170,133); stroke-width: 0.93; stroke-dasharray: none; stroke-linecap: butt; stroke-dashoffset: 0; stroke-linejoin: miter; stroke-miterlimit: 4; fill: none; fill-rule: nonzero; opacity: 1;" vector-effect="non-scaling-stroke"  x="-51.63" y="-51.63" rx="0" ry="0" width="103.26" height="103.26" />
</g>
<g transform="matrix(0.71 0.71 -0.71 0.71 247.83 466.43)"  >
<rect style="stroke: rgb(158,170,133); stroke-width: 0.93; stroke-dasharray: none; stroke-linecap: butt; stroke-dashoffset: 0; stroke-linejoin: miter; stroke-miterlimit: 4; fill: none; fill-rule: nonzero; opacity: 1;" vector-effect="non-scaling-stroke"  x="-51.63" y="-51.63" rx="0" ry="0" width="103.26" height="103.26" />
</g>
<g transform="matrix(0.71 0.71 -0.71 0.71 393.86 613.34)"  >
<rect style="stroke: rgb(158,170,133); stroke-width: 0.93; stroke-dasharray: none; stroke-linecap: butt; stroke-dashoffset: 0; stroke-linejoin: miter; stroke-miterlimit: 4; fill: none; fill-rule: nonzero; opacity: 1;" vector-effect="non-scaling-stroke"  x="-51.63" y="-51.63" rx="0" ry="0" width="103.26" height="103.26" />
</g>
<g transform="matrix(0.71 0.71 -0.71 0.71 540.33 466.87)"  >
<rect style="stroke: rgb(158,170,133); stroke-width: 0.93; stroke-dasharray: none; stroke-linecap: butt; stroke-dashoffset: 0; stroke-linejoin: miter; stroke-miterlimit: 4; fill: none; fill-rule: nonzero; opacity: 1;" vector-effect="non-scaling-stroke"  x="-51.63" y="-51.63" rx="0" ry="0" width="103.26" height="103.26" />
</g>
<g transform="matrix(0.71 0.71 -0.71 0.71 612.91 247.39)"  >
<rect style="stroke: rgb(158,170,133); stroke-width: 0.93; stroke-dasharray: none; stroke-linecap: butt; stroke-dashoffset: 0; stroke-linejoin: miter; stroke-miterlimit: 4; fill: none; fill-rule: nonzero; opacity: 1;" vector-effect="non-scaling-stroke"  x="-51.63" y="-51.63" rx="0" ry="0" width="103.26" height="103.26" />
</g>
<g transform="matrix(0.71 0.71 -0.71 0.71 466.88 393.42)"  >
<rect style="stroke: rgb(158,170,133); stroke-width: 0.93; stroke-dasharray: none; stroke-linecap: butt; stroke-dashoffset: 0; stroke-linejoin: miter; stroke-miterlimit: 4; fill: none; fill-rule: nonzero; opacity: 1;" vector-effect="non-scaling-stroke"  x="-51.63" y="-51.63" rx="0" ry="0" width="103.26" height="103.26" />
</g>
<g transform="matrix(0.71 0.71 -0.71 0.71 320.85 539.45)"  >
<rect style="stroke: rgb(158,170,133); stroke-width: 0.93; stroke-dasharray: none; stroke-linecap: butt; stroke-dashoffset: 0; stroke-linejoin: miter; stroke-miterlimit: 4; fill: none; fill-rule: nonzero; opacity: 1;" vector-effect="non-scaling-stroke"  x="-51.63" y="-51.63" rx="0" ry="0" width="103.26" height="103.26" />
</g>
<g transform="matrix(0.71 0.71 -0.71 0.71 466.88 686.36)"  >
<rect style="stroke: rgb(158,170,133); stroke-width: 0.93; stroke-dasharray: none; stroke-linecap: butt; stroke-dashoffset: 0; stroke-linejoin: miter; stroke-miterlimit: 4; fill: none; fill-rule: nonzero; opacity: 1;" vector-effect="non-scaling-stroke"  x="-51.63" y="-51.63" rx="0" ry="0" width="103.26" height="103.26" />
</g>
<g transform="matrix(0.71 0.71 -0.71 0.71 613.34 539.89)"  >
<rect style="stroke: rgb(158,170,133); stroke-width: 0.93; stroke-dasharray: none; stroke-linecap: butt; stroke-dashoffset: 0; stroke-linejoin: miter; stroke-miterlimit: 4; fill: none; fill-rule: nonzero; opacity: 1;" vector-effect="non-scaling-stroke"  x="-51.63" y="-51.63" rx="0" ry="0" width="103.26" height="103.26" />
</g>
<g transform="matrix(0.71 0.71 -0.71 0.71 758.93 393.42)"  >
<rect style="stroke: rgb(158,170,133); stroke-width: 0.93; stroke-dasharray: none; stroke-linecap: butt; stroke-dashoffset: 0; stroke-linejoin: miter; stroke-miterlimit: 4; fill: none; fill-rule: nonzero; opacity: 1;" vector-effect="non-scaling-stroke"  x="-51.63" y="-51.63" rx="0" ry="0" width="103.26" height="103.26" />
</g>
<g transform="matrix(0.71 0.71 -0.71 0.71 685.92 320.41)"  >
<rect style="stroke: rgb(158,170,133); stroke-width: 0.93; stroke-dasharray: none; stroke-linecap: butt; stroke-dashoffset: 0; stroke-linejoin: miter; stroke-miterlimit: 4; fill: none; fill-rule: nonzero; opacity: 1;" vector-effect="non-scaling-stroke"  x="-51.63" y="-51.63" rx="0" ry="0" width="103.26" height="103.26" />
</g>
<g transform="matrix(0.71 0.71 -0.71 0.71 904.96 539.45)"  >
<rect style="stroke: rgb(158,170,133); stroke-width: 0.93; stroke-dasharray: none; stroke-linecap: butt; stroke-dashoffset: 0; stroke-linejoin: miter; stroke-miterlimit: 4; fill: none; fill-rule: nonzero; opacity: 1;" vector-effect="non-scaling-stroke"  x="-51.63" y="-51.63" rx="0" ry="0" width="103.26" height="103.26" />
</g>
<g transform="matrix(0.71 0.71 -0.71 0.71 831.95 466.43)"  >
<rect style="stroke: rgb(158,170,133); stroke-width: 0.93; stroke-dasharray: none; stroke-linecap: butt; stroke-dashoffset: 0; stroke-linejoin: miter; stroke-miterlimit: 4; fill: none; fill-rule: nonzero; opacity: 1;" vector-effect="non-scaling-stroke"  x="-51.63" y="-51.63" rx="0" ry="0" width="103.26" height="103.26" />
</g>
<g transform="matrix(0.71 0.71 -0.71 0.71 758.71 685.7)"  >
<rect style="stroke: rgb(158,170,133); stroke-width: 0.93; stroke-dasharray: none; stroke-linecap: butt; stroke-dashoffset: 0; stroke-linejoin: miter; stroke-miterlimit: 4; fill: none; fill-rule: nonzero; opacity: 1;" vector-effect="non-scaling-stroke"  x="-51.63" y="-51.63" rx="0" ry="0" width="103.26" height="103.26" />
</g>
<g transform="matrix(0.71 0.71 -0.71 0.71 612.69 831.73)"  >
<rect style="stroke: rgb(158,170,133); stroke-width: 0.93; stroke-dasharray: none; stroke-linecap: butt; stroke-dashoffset: 0; stroke-linejoin: miter; stroke-miterlimit: 4; fill: none; fill-rule: nonzero; opacity: 1;" vector-effect="non-scaling-stroke"  x="-51.63" y="-51.63" rx="0" ry="0" width="103.26" height="103.26" />
</g>
<g transform="matrix(0.71 0.71 -0.71 0.71 539.89 320.41)"  >
<rect style="stroke: rgb(158,170,133); stroke-width: 0.93; stroke-dasharray: none; stroke-linecap: butt; stroke-dashoffset: 0; stroke-linejoin: miter; stroke-miterlimit: 4; fill: none; fill-rule: nonzero; opacity: 1;" vector-effect="non-scaling-stroke"  x="-51.63" y="-51.63" rx="0" ry="0" width="103.26" height="103.26" />
</g>
<g transform="matrix(0.71 0.71 -0.71 0.71 393.86 466.43)"  >
<rect style="stroke: rgb(158,170,133); stroke-width: 0.93; stroke-dasharray: none; stroke-linecap: butt; stroke-dashoffset: 0; stroke-linejoin: miter; stroke-miterlimit: 4; fill: none; fill-rule: nonzero; opacity: 1;" vector-effect="non-scaling-stroke"  x="-51.63" y="-51.63" rx="0" ry="0" width="103.26" height="103.26" />
</g>
<g transform="matrix(0.71 0.71 -0.71 0.71 247.39 612.9)"  >
<rect style="stroke: rgb(158,170,133); stroke-width: 0.93; stroke-dasharray: none; stroke-linecap: butt; stroke-dashoffset: 0; stroke-linejoin: miter; stroke-miterlimit: 4; fill: none; fill-rule: nonzero; opacity: 1;" vector-effect="non-scaling-stroke"  x="-51.63" y="-51.63" rx="0" ry="0" width="103.26" height="103.26" />
</g>
<g transform="matrix(0.71 0.71 -0.71 0.71 393.86 759.37)"  >
<rect style="stroke: rgb(158,170,133); stroke-width: 0.93; stroke-dasharray: none; stroke-linecap: butt; stroke-dashoffset: 0; stroke-linejoin: miter; stroke-miterlimit: 4; fill: none; fill-rule: nonzero; opacity: 1;" vector-effect="non-scaling-stroke"  x="-51.63" y="-51.63" rx="0" ry="0" width="103.26" height="103.26" />
</g>
<g transform="matrix(0.71 0.71 -0.71 0.71 540.33 612.9)"  >
<rect style="stroke: rgb(158,170,133); stroke-width: 0.93; stroke-dasharray: none; stroke-linecap: butt; stroke-dashoffset: 0; stroke-linejoin: miter; stroke-miterlimit: 4; fill: none; fill-rule: nonzero; opacity: 1;" vector-effect="non-scaling-stroke"  x="-51.63" y="-51.63" rx="0" ry="0" width="103.26" height="103.26" />
</g>
<g transform="matrix(0.71 0.71 -0.71 0.71 685.92 466.43)"  >
<rect style="stroke: rgb(158,170,133); stroke-width: 0.93; stroke-dasharray: none; stroke-linecap: butt; stroke-dashoffset: 0; stroke-linejoin: miter; stroke-miterlimit: 4; fill: none; fill-rule: nonzero; opacity: 1;" vector-effect="non-scaling-stroke"  x="-51.63" y="-51.63" rx="0" ry="0" width="103.26" height="103.26" />
</g>
<g transform="matrix(0.71 0.71 -0.71 0.71 831.95 612.46)"  >
<rect style="stroke: rgb(158,170,133); stroke-width: 0.93; stroke-dasharray: none; stroke-linecap: butt; stroke-dashoffset: 0; stroke-linejoin: miter; stroke-miterlimit: 4; fill: none; fill-rule: nonzero; opacity: 1;" vector-effect="non-scaling-stroke"  x="-51.63" y="-51.63" rx="0" ry="0" width="103.26" height="103.26" />
</g>
<g transform="matrix(0.71 0.71 -0.71 0.71 685.7 758.71)"  >
<rect style="stroke: rgb(158,170,133); stroke-width: 0.93; stroke-dasharray: none; stroke-linecap: butt; stroke-dashoffset: 0; stroke-linejoin: miter; stroke-miterlimit: 4; fill: none; fill-rule: nonzero; opacity: 1;" vector-effect="non-scaling-stroke"  x="-51.63" y="-51.63" rx="0" ry="0" width="103.26" height="103.26" />
</g>
<g transform="matrix(0.71 0.71 -0.71 0.71 539.67 904.74)"  >
<rect style="stroke: rgb(158,170,133); stroke-width: 0.93; stroke-dasharray: none; stroke-linecap: butt; stroke-dashoffset: 0; stroke-linejoin: miter; stroke-miterlimit: 4; fill: none; fill-rule: nonzero; opacity: 1;" vector-effect="non-scaling-stroke"  x="-51.63" y="-51.63" rx="0" ry="0" width="103.26" height="103.26" />
</g>
<g transform="matrix(0.71 0.71 -0.71 0.71 466.88 247.39)"  >
<rect style="stroke: rgb(158,170,133); stroke-width: 0.93; stroke-dasharray: none; stroke-linecap: butt; stroke-dashoffset: 0; stroke-linejoin: miter; stroke-miterlimit: 4; fill: none; fill-rule: nonzero; opacity: 1;" vector-effect="non-scaling-stroke"  x="-51.63" y="-51.63" rx="0" ry="0" width="103.26" height="103.26" />
</g>
<g transform="matrix(0.71 0.71 -0.71 0.71 320.85 393.42)"  >
<rect style="stroke: rgb(158,170,133); stroke-width: 0.93; stroke-dasharray: none; stroke-linecap: butt; stroke-dashoffset: 0; stroke-linejoin: miter; stroke-miterlimit: 4; fill: none; fill-rule: nonzero; opacity: 1;" vector-effect="non-scaling-stroke"  x="-51.63" y="-51.63" rx="0" ry="0" width="103.26" height="103.26" />
</g>
<g transform="matrix(0.71 0.71 -0.71 0.71 174.38 539.89)"  >
<rect style="stroke: rgb(158,170,133); stroke-width: 0.93; stroke-dasharray: none; stroke-linecap: butt; stroke-dashoffset: 0; stroke-linejoin: miter; stroke-miterlimit: 4; fill: none; fill-rule: nonzero; opacity: 1;" vector-effect="non-scaling-stroke"  x="-51.63" y="-51.63" rx="0" ry="0" width="103.26" height="103.26" />
</g>
<g transform="matrix(0.71 0.71 -0.71 0.71 320.85 686.36)"  >
<rect style="stroke: rgb(158,170,133); stroke-width: 0.93; stroke-dasharray: none; stroke-linecap: butt; stroke-dashoffset: 0; stroke-linejoin: miter; stroke-miterlimit: 4; fill: none; fill-rule: nonzero; opacity: 1;" vector-effect="non-scaling-stroke"  x="-51.63" y="-51.63" rx="0" ry="0" width="103.26" height="103.26" />
</g>
<g transform="matrix(0.71 0.71 -0.71 0.71 467.31 539.89)"  >
<rect style="stroke: rgb(158,170,133); stroke-width: 0.93; stroke-dasharray: none; stroke-linecap: butt; stroke-dashoffset: 0; stroke-linejoin: miter; stroke-miterlimit: 4; fill: none; fill-rule: nonzero; opacity: 1;" vector-effect="non-scaling-stroke"  x="-51.63" y="-51.63" rx="0" ry="0" width="103.26" height="103.26" />
</g>
<g transform="matrix(0.71 0.71 -0.71 0.71 612.91 393.42)"  >
<rect style="stroke: rgb(158,170,133); stroke-width: 0.93; stroke-dasharray: none; stroke-linecap: butt; stroke-dashoffset: 0; stroke-linejoin: miter; stroke-miterlimit: 4; fill: none; fill-rule: nonzero; opacity: 1;" vector-effect="non-scaling-stroke"  x="-51.63" y="-51.63" rx="0" ry="0" width="103.26" height="103.26" />
</g>
<g transform="matrix(0.71 0.71 -0.71 0.71 758.93 539.45)"  >
<rect style="stroke: rgb(158,170,133); stroke-width: 0.93; stroke-dasharray: none; stroke-linecap: butt; stroke-dashoffset: 0; stroke-linejoin: miter; stroke-miterlimit: 4; fill: none; fill-rule: nonzero; opacity: 1;" vector-effect="non-scaling-stroke"  x="-51.63" y="-51.63" rx="0" ry="0" width="103.26" height="103.26" />
</g>
<g transform="matrix(0.71 0.71 -0.71 0.71 685.7 612.68)"  >
<rect style="stroke: rgb(158,170,133); stroke-width: 0.93; stroke-dasharray: none; stroke-linecap: butt; stroke-dashoffset: 0; stroke-linejoin: miter; stroke-miterlimit: 4; fill: none; fill-rule: nonzero; opacity: 1;" vector-effect="non-scaling-stroke"  x="-51.63" y="-51.63" rx="0" ry="0" width="103.26" height="103.26" />
</g>
<g transform="matrix(0.71 0.71 -0.71 0.71 539.45 758.93)"  >
<rect style="stroke: rgb(158,170,133); stroke-width: 0.93; stroke-dasharray: none; stroke-linecap: butt; stroke-dashoffset: 0; stroke-linejoin: miter; stroke-miterlimit: 4; fill: none; fill-rule: nonzero; opacity: 1;" vector-effect="non-scaling-stroke"  x="-51.63" y="-51.63" rx="0" ry="0" width="103.26" height="103.26" />
</g>
<g transform="matrix(0.71 0.71 -0.71 0.71 612.69 685.7)"  >
<rect style="stroke: rgb(158,170,133); stroke-width: 0.93; stroke-dasharray: none; stroke-linecap: butt; stroke-dashoffset: 0; stroke-linejoin: miter; stroke-miterlimit: 4; fill: none; fill-rule: nonzero; opacity: 1;" vector-effect="non-scaling-stroke"  x="-51.63" y="-51.63" rx="0" ry="0" width="103.26" height="103.26" />
</g>
<g transform="matrix(0.71 0.71 -0.71 0.71 466.66 831.73)"  >
<rect style="stroke: rgb(158,170,133); stroke-width: 0.93; stroke-dasharray: none; stroke-linecap: butt; stroke-dashoffset: 0; stroke-linejoin: miter; stroke-miterlimit: 4; fill: none; fill-rule: nonzero; opacity: 1;" vector-effect="non-scaling-stroke"  x="-51.63" y="-51.63" rx="0" ry="0" width="103.26" height="103.26" />
</g>
<g transform="matrix(0.71 0.71 -0.71 0.71 540.33 430.03)"  >
<rect style="stroke: rgb(158,170,133); stroke-width: 0.93; stroke-dasharray: none; stroke-linecap: butt; stroke-dashoffset: 0; stroke-linejoin: miter; stroke-miterlimit: 4; fill: none; fill-rule: nonzero; opacity: 1;" vector-effect="non-scaling-stroke"  x="-25.58" y="-25.58" rx="0" ry="0" width="51.16" height="51.16" />
</g>
<g transform="matrix(0.71 0.71 -0.71 0.71 540.33 430.03)"  >
<rect style="stroke: rgb(158,170,133); stroke-width: 0.93; stroke-dasharray: none; stroke-linecap: butt; stroke-dashoffset: 0; stroke-linejoin: miter; stroke-miterlimit: 4; fill: none; fill-rule: nonzero; opacity: 1;" vector-effect="non-scaling-stroke"  x="-25.58" y="-25.58" rx="0" ry="0" width="51.16" height="51.16" />
</g>
<g transform="matrix(0.71 0.71 -0.71 0.71 467.1 503.27)"  >
<rect style="stroke: rgb(158,170,133); stroke-width: 0.93; stroke-dasharray: none; stroke-linecap: butt; stroke-dashoffset: 0; stroke-linejoin: miter; stroke-miterlimit: 4; fill: none; fill-rule: nonzero; opacity: 1;" vector-effect="non-scaling-stroke"  x="-25.58" y="-25.58" rx="0" ry="0" width="51.16" height="51.16" />
</g>
<g transform="matrix(0.71 0.71 -0.71 0.71 612.91 502.61)"  >
<rect style="stroke: rgb(158,170,133); stroke-width: 0.93; stroke-dasharray: none; stroke-linecap: butt; stroke-dashoffset: 0; stroke-linejoin: miter; stroke-miterlimit: 4; fill: none; fill-rule: nonzero; opacity: 1;" vector-effect="non-scaling-stroke"  x="-25.58" y="-25.58" rx="0" ry="0" width="51.16" height="51.16" />
</g>
<g transform="matrix(0.71 0.71 -0.71 0.71 540.77 502.83)"  >
<rect style="stroke: rgb(158,170,133); stroke-width: 0.93; stroke-dasharray: none; stroke-linecap: butt; stroke-dashoffset: 0; stroke-linejoin: miter; stroke-miterlimit: 4; fill: none; fill-rule: nonzero; opacity: 1;" vector-effect="non-scaling-stroke"  x="-25.58" y="-25.58" rx="0" ry="0" width="51.16" height="51.16" />
</g>
<g transform="matrix(0.71 0.71 -0.71 0.71 466.66 576.06)"  >
<rect style="stroke: rgb(158,170,133); stroke-width: 0.93; stroke-dasharray: none; stroke-linecap: butt; stroke-dashoffset: 0; stroke-linejoin: miter; stroke-miterlimit: 4; fill: none; fill-rule: nonzero; opacity: 1;" vector-effect="non-scaling-stroke"  x="-25.58" y="-25.58" rx="0" ry="0" width="51.16" height="51.16" />
</g>
<g transform="matrix(0.71 0.71 -0.71 0.71 612.91 574.97)"  >
<rect style="stroke: rgb(158,170,133); stroke-width: 0.93; stroke-dasharray: none; stroke-linecap: butt; stroke-dashoffset: 0; stroke-linejoin: miter; stroke-miterlimit: 4; fill: none; fill-rule: nonzero; opacity: 1;" vector-effect="non-scaling-stroke"  x="-25.58" y="-25.58" rx="0" ry="0" width="51.16" height="51.16" />
</g>
<g transform="matrix(0.71 0.71 -0.71 0.71 576.51 466.21)"  >
<rect style="stroke: rgb(158,170,133); stroke-width: 0.93; stroke-dasharray: none; stroke-linecap: butt; stroke-dashoffset: 0; stroke-linejoin: miter; stroke-miterlimit: 4; fill: none; fill-rule: nonzero; opacity: 1;" vector-effect="non-scaling-stroke"  x="-25.58" y="-25.58" rx="0" ry="0" width="51.16" height="51.16" />
</g>
<g transform="matrix(0.71 0.71 -0.71 0.71 503.93 540.1)"  >
<rect style="stroke: rgb(158,170,133); stroke-width: 0.93; stroke-dasharray: none; stroke-linecap: butt; stroke-dashoffset: 0; stroke-linejoin: miter; stroke-miterlimit: 4; fill: none; fill-rule: nonzero; opacity: 1;" vector-effect="non-scaling-stroke"  x="-25.58" y="-25.58" rx="0" ry="0" width="51.16" height="51.16" />
</g>
<g transform="matrix(0.71 0.71 -0.71 0.71 649.08 538.79)"  >
<rect style="stroke: rgb(158,170,133); stroke-width: 0.93; stroke-dasharray: none; stroke-linecap: butt; stroke-dashoffset: 0; stroke-linejoin: miter; stroke-miterlimit: 4; fill: none; fill-rule: nonzero; opacity: 1;" vector-effect="non-scaling-stroke"  x="-25.58" y="-25.58" rx="0" ry="0" width="51.16" height="51.16" />
</g>
<g transform="matrix(0.71 0.71 -0.71 0.71 539.89 576.5)"  >
<rect style="stroke: rgb(158,170,133); stroke-width: 0.93; stroke-dasharray: none; stroke-linecap: butt; stroke-dashoffset: 0; stroke-linejoin: miter; stroke-miterlimit: 4; fill: none; fill-rule: nonzero; opacity: 1;" vector-effect="non-scaling-stroke"  x="-25.58" y="-25.58" rx="0" ry="0" width="51.16" height="51.16" />
</g>
<g transform="matrix(0.71 0.71 -0.71 0.71 576.22 612.53)"  >
<rect style="stroke: rgb(158,170,133); stroke-width: 0.93; stroke-dasharray: none; stroke-linecap: butt; stroke-dashoffset: 0; stroke-linejoin: miter; stroke-miterlimit: 4; fill: none; fill-rule: nonzero; opacity: 1;" vector-effect="non-scaling-stroke"  x="-25.58" y="-25.58" rx="0" ry="0" width="51.16" height="51.16" />
</g>
<g transform="matrix(0.71 0.71 -0.71 0.71 539.01 649.74)"  >
<rect style="stroke: rgb(158,170,133); stroke-width: 0.93; stroke-dasharray: none; stroke-linecap: butt; stroke-dashoffset: 0; stroke-linejoin: miter; stroke-miterlimit: 4; fill: none; fill-rule: nonzero; opacity: 1;" vector-effect="non-scaling-stroke"  x="-25.58" y="-25.58" rx="0" ry="0" width="51.16" height="51.16" />
</g>
<g transform="matrix(0.71 0.71 -0.71 0.71 503.71 612.68)"  >
<rect style="stroke: rgb(158,170,133); stroke-width: 0.93; stroke-dasharray: none; stroke-linecap: butt; stroke-dashoffset: 0; stroke-linejoin: miter; stroke-miterlimit: 4; fill: none; fill-rule: nonzero; opacity: 1;" vector-effect="non-scaling-stroke"  x="-25.58" y="-25.58" rx="0" ry="0" width="51.16" height="51.16" />
</g>
<g transform="matrix(0.71 0.71 -0.71 0.71 540.11 540.11)"  >
<circle style="stroke: rgb(158,170,133); stroke-width: 0.93; stroke-dasharray: none; stroke-linecap: butt; stroke-dashoffset: 0; stroke-linejoin: miter; stroke-miterlimit: 4; fill: none; fill-rule: nonzero; opacity: 1;" vector-effect="non-scaling-stroke"  cx="0" cy="0" r="310.085" />
</g>
<g transform="matrix(0.71 0.71 -0.71 0.71 649.52 430.7)"  >
<circle style="stroke: rgb(158,170,133); stroke-width: 0.93; stroke-dasharray: none; stroke-linecap: butt; stroke-dashoffset: 0; stroke-linejoin: miter; stroke-miterlimit: 4; fill: none; fill-rule: nonzero; opacity: 1;" vector-effect="non-scaling-stroke"  cx="0" cy="0" r="155.042" />
</g>
<g transform="matrix(0.71 0.71 -0.71 0.71 430.26 649.96)"  >
<circle style="stroke: rgb(158,170,133); stroke-width: 0.93; stroke-dasharray: none; stroke-linecap: butt; stroke-dashoffset: 0; stroke-linejoin: miter; stroke-miterlimit: 4; fill: none; fill-rule: nonzero; opacity: 1;" vector-effect="non-scaling-stroke"  cx="0" cy="0" r="155.042" />
</g>
<g transform="matrix(0.71 0.71 -0.71 0.71 648.86 649.3)"  >
<circle style="stroke: rgb(158,170,133); stroke-width: 0.93; stroke-dasharray: none; stroke-linecap: butt; stroke-dashoffset: 0; stroke-linejoin: miter; stroke-miterlimit: 4; fill: none; fill-rule: nonzero; opacity: 1;" vector-effect="non-scaling-stroke"  cx="0" cy="0" r="155.042" />
</g>
<g transform="matrix(0.71 0.71 -0.71 0.71 430.26 430.7)"  >
<circle style="stroke: rgb(158,170,133); stroke-width: 0.93; stroke-dasharray: none; stroke-linecap: butt; stroke-dashoffset: 0; stroke-linejoin: miter; stroke-miterlimit: 4; fill: none; fill-rule: nonzero; opacity: 1;" vector-effect="non-scaling-stroke"  cx="0" cy="0" r="155.042" />
</g>
</svg>