<svg viewBox="0 0 1351 1296" fill="none" xmlns="http://www.w3.org/2000/svg">
<g opacity="0.65">
<path d="M116.978 523.209C119.32 523.209 121.219 521.396 121.219 519.159C121.219 516.923 119.32 515.109 116.978 515.109C114.636 515.109 112.737 516.923 112.737 519.159C112.737 521.396 114.636 523.209 116.978 523.209Z" fill="#FBFBFB"/>
<path d="M184.563 578.391C186.905 578.391 188.804 576.577 188.804 574.341C188.804 572.104 186.905 570.291 184.563 570.291C182.221 570.291 180.322 572.104 180.322 574.341C180.322 576.577 182.221 578.391 184.563 578.391Z" fill="#FBFBFB"/>
<path d="M151.433 482.962C153.775 482.962 155.674 481.149 155.674 478.912C155.674 476.676 153.775 474.862 151.433 474.862C149.091 474.862 147.192 476.676 147.192 478.912C147.192 481.149 149.091 482.962 151.433 482.962Z" fill="#FBFBFB"/>
<path d="M338.286 554.344C340.628 554.344 342.526 552.53 342.526 550.294C342.526 548.057 340.628 546.244 338.286 546.244C335.943 546.244 334.045 548.057 334.045 550.294C334.045 552.53 335.943 554.344 338.286 554.344Z" fill="#FBFBFB"/>
<path d="M280.772 567.253C283.114 567.253 285.013 565.44 285.013 563.203C285.013 560.967 283.114 559.153 280.772 559.153C278.43 559.153 276.531 560.967 276.531 563.203C276.531 565.44 278.43 567.253 280.772 567.253Z" fill="#FBFBFB"/>
<path d="M258.244 623.953C260.586 623.953 262.484 622.14 262.484 619.903C262.484 617.666 260.586 615.853 258.244 615.853C255.902 615.853 254.003 617.666 254.003 619.903C254.003 622.14 255.902 623.953 258.244 623.953Z" fill="#FBFBFB"/>
<path d="M319.203 585.984C321.545 585.984 323.443 584.171 323.443 581.934C323.443 579.698 321.545 577.884 319.203 577.884C316.861 577.884 314.962 579.698 314.962 581.934C314.962 584.171 316.861 585.984 319.203 585.984Z" fill="#FBFBFB"/>
<path d="M342.526 611.297C345.746 611.297 348.357 608.803 348.357 605.728C348.357 602.652 345.746 600.159 342.526 600.159C339.306 600.159 336.695 602.652 336.695 605.728C336.695 608.803 339.306 611.297 342.526 611.297Z" fill="#FBFBFB"/>
<path d="M433.17 586.997C436.39 586.997 439.001 584.504 439.001 581.428C439.001 578.353 436.39 575.859 433.17 575.859C429.949 575.859 427.339 578.353 427.339 581.428C427.339 584.504 429.949 586.997 433.17 586.997Z" fill="#FBFBFB"/>
<path d="M494.129 575.353C497.349 575.353 499.96 572.86 499.96 569.785C499.96 566.709 497.349 564.216 494.129 564.216C490.908 564.216 488.298 566.709 488.298 569.785C488.298 572.86 490.908 575.353 494.129 575.353Z" fill="#FBFBFB"/>
<path d="M361.874 685.209C365.094 685.209 367.705 682.716 367.705 679.641C367.705 676.565 365.094 674.072 361.874 674.072C358.654 674.072 356.043 676.565 356.043 679.641C356.043 682.716 358.654 685.209 361.874 685.209Z" fill="#FBFBFB"/>
<path d="M468.685 608.765C471.906 608.765 474.516 606.272 474.516 603.197C474.516 600.121 471.906 597.628 468.685 597.628C465.465 597.628 462.854 600.121 462.854 603.197C462.854 606.272 465.465 608.765 468.685 608.765Z" fill="#FBFBFB"/>
<path d="M522.488 617.119C525.708 617.119 528.319 614.626 528.319 611.55C528.319 608.475 525.708 605.981 522.488 605.981C519.268 605.981 516.657 608.475 516.657 611.55C516.657 614.626 519.268 617.119 522.488 617.119Z" fill="#FBFBFB"/>
<path d="M359.224 582.694C363.322 582.694 366.645 579.52 366.645 575.606C366.645 571.692 363.322 568.519 359.224 568.519C355.125 568.519 351.803 571.692 351.803 575.606C351.803 579.52 355.125 582.694 359.224 582.694Z" fill="#FBFBFB"/>
<path d="M403.485 575.859C406.705 575.859 409.316 573.366 409.316 570.29C409.316 567.215 406.705 564.722 403.485 564.722C400.265 564.722 397.654 567.215 397.654 570.29C397.654 573.366 400.265 575.859 403.485 575.859Z" fill="#FBFBFB"/>
<path d="M434.495 457.144C437.715 457.144 440.326 454.651 440.326 451.575C440.326 448.5 437.715 446.006 434.495 446.006C431.275 446.006 428.664 448.5 428.664 451.575C428.664 454.651 431.275 457.144 434.495 457.144Z" fill="#FBFBFB"/>
<path d="M392.884 377.409C396.104 377.409 398.714 374.916 398.714 371.841C398.714 368.765 396.104 366.272 392.884 366.272C389.663 366.272 387.053 368.765 387.053 371.841C387.053 374.916 389.663 377.409 392.884 377.409Z" fill="#FBFBFB"/>
<path d="M551.642 373.359C554.863 373.359 557.473 370.866 557.473 367.79C557.473 364.715 554.863 362.222 551.642 362.222C548.422 362.222 545.812 364.715 545.812 367.79C545.812 370.866 548.422 373.359 551.642 373.359Z" fill="#FBFBFB"/>
<path d="M608.89 426.262C612.111 426.262 614.721 423.769 614.721 420.694C614.721 417.618 612.111 415.125 608.89 415.125C605.67 415.125 603.06 417.618 603.06 420.694C603.06 423.769 605.67 426.262 608.89 426.262Z" fill="#FBFBFB"/>
<path d="M587.157 351.591C590.377 351.591 592.988 349.097 592.988 346.022C592.988 342.946 590.377 340.453 587.157 340.453C583.937 340.453 581.326 342.946 581.326 346.022C581.326 349.097 583.937 351.591 587.157 351.591Z" fill="#FBFBFB"/>
<path d="M570.725 401.709C573.946 401.709 576.556 399.216 576.556 396.141C576.556 393.065 573.946 390.572 570.725 390.572C567.505 390.572 564.895 393.065 564.895 396.141C564.895 399.216 567.505 401.709 570.725 401.709Z" fill="#FBFBFB"/>
<path d="M515.596 474.103C518.817 474.103 521.427 471.61 521.427 468.535C521.427 465.459 518.817 462.966 515.596 462.966C512.376 462.966 509.766 465.459 509.766 468.535C509.766 471.61 512.376 474.103 515.596 474.103Z" fill="#FBFBFB"/>
<path d="M496.249 398.419C499.469 398.419 502.08 395.926 502.08 392.85C502.08 389.774 499.469 387.281 496.249 387.281C493.029 387.281 490.418 389.774 490.418 392.85C490.418 395.926 493.029 398.419 496.249 398.419Z" fill="#FBFBFB"/>
<path d="M499.96 335.39C503.18 335.39 505.791 332.897 505.791 329.822C505.791 326.746 503.18 324.253 499.96 324.253C496.739 324.253 494.129 326.746 494.129 329.822C494.129 332.897 496.739 335.39 499.96 335.39Z" fill="#FBFBFB"/>
<path d="M529.644 441.197C532.865 441.197 535.475 438.704 535.475 435.628C535.475 432.553 532.865 430.06 529.644 430.06C526.424 430.06 523.813 432.553 523.813 435.628C523.813 438.704 526.424 441.197 529.644 441.197Z" fill="#FBFBFB"/>
<path d="M426.808 356.147C430.029 356.147 432.639 353.654 432.639 350.578C432.639 347.502 430.029 345.009 426.808 345.009C423.588 345.009 420.978 347.502 420.978 350.578C420.978 353.654 423.588 356.147 426.808 356.147Z" fill="#FBFBFB"/>
<path d="M423.893 617.119C427.114 617.119 429.724 614.626 429.724 611.55C429.724 608.475 427.114 605.981 423.893 605.981C420.673 605.981 418.062 608.475 418.062 611.55C418.062 614.626 420.673 617.119 423.893 617.119Z" fill="#FBFBFB"/>
<path d="M418.062 770.26C421.283 770.26 423.893 767.766 423.893 764.691C423.893 761.615 421.283 759.122 418.062 759.122C414.842 759.122 412.231 761.615 412.231 764.691C412.231 767.766 414.842 770.26 418.062 770.26Z" fill="#FBFBFB"/>
<path d="M452.253 797.597C455.473 797.597 458.084 795.104 458.084 792.028C458.084 788.953 455.473 786.459 452.253 786.459C449.032 786.459 446.422 788.953 446.422 792.028C446.422 795.104 449.032 797.597 452.253 797.597Z" fill="#FBFBFB"/>
<path d="M444.302 918.084C447.522 918.084 450.132 915.591 450.132 912.516C450.132 909.44 447.522 906.947 444.302 906.947C441.081 906.947 438.471 909.44 438.471 912.516C438.471 915.591 441.081 918.084 444.302 918.084Z" fill="#FBFBFB"/>
<path d="M492.804 999.591C496.024 999.591 498.634 997.097 498.634 994.022C498.634 990.946 496.024 988.453 492.804 988.453C489.583 988.453 486.973 990.946 486.973 994.022C486.973 997.097 489.583 999.591 492.804 999.591Z" fill="#FBFBFB"/>
<path d="M502.875 781.65C506.095 781.65 508.706 779.157 508.706 776.081C508.706 773.006 506.095 770.513 502.875 770.513C499.655 770.513 497.044 773.006 497.044 776.081C497.044 779.157 499.655 781.65 502.875 781.65Z" fill="#FBFBFB"/>
<path d="M675.416 653.569C678.636 653.569 681.247 651.075 681.247 648C681.247 644.924 678.636 642.431 675.416 642.431C672.196 642.431 669.585 644.924 669.585 648C669.585 651.075 672.196 653.569 675.416 653.569Z" fill="#FBFBFB"/>
<path d="M631.949 623.7C635.169 623.7 637.78 621.207 637.78 618.131C637.78 615.056 635.169 612.562 631.949 612.562C628.729 612.562 626.118 615.056 626.118 618.131C626.118 621.207 628.729 623.7 631.949 623.7Z" fill="#FBFBFB"/>
<path d="M734.784 662.934C738.004 662.934 740.615 660.441 740.615 657.366C740.615 654.29 738.004 651.797 734.784 651.797C731.564 651.797 728.953 654.29 728.953 657.366C728.953 660.441 731.564 662.934 734.784 662.934Z" fill="#FBFBFB"/>
<path d="M681.246 581.175C684.466 581.175 687.077 578.682 687.077 575.606C687.077 572.531 684.466 570.038 681.246 570.038C678.026 570.038 675.415 572.531 675.415 575.606C675.415 578.682 678.026 581.175 681.246 581.175Z" fill="#FBFBFB"/>
<path d="M758.903 477.14C762.123 477.14 764.734 474.647 764.734 471.572C764.734 468.496 762.123 466.003 758.903 466.003C755.683 466.003 753.072 468.496 753.072 471.572C753.072 474.647 755.683 477.14 758.903 477.14Z" fill="#FBFBFB"/>
<path d="M746.446 572.569C749.666 572.569 752.277 570.075 752.277 567C752.277 563.924 749.666 561.431 746.446 561.431C743.226 561.431 740.615 563.924 740.615 567C740.615 570.075 743.226 572.569 746.446 572.569Z" fill="#FBFBFB"/>
<path d="M829.933 491.316C833.154 491.316 835.764 488.823 835.764 485.747C835.764 482.671 833.154 480.178 829.933 480.178C826.713 480.178 824.103 482.671 824.103 485.747C824.103 488.823 826.713 491.316 829.933 491.316Z" fill="#FBFBFB"/>
<path d="M852.196 392.85C855.416 392.85 858.027 390.357 858.027 387.281C858.027 384.206 855.416 381.712 852.196 381.712C848.976 381.712 846.365 384.206 846.365 387.281C846.365 390.357 848.976 392.85 852.196 392.85Z" fill="#FBFBFB"/>
<path d="M934.624 480.431C937.844 480.431 940.455 477.938 940.455 474.863C940.455 471.787 937.844 469.294 934.624 469.294C931.403 469.294 928.793 471.787 928.793 474.863C928.793 477.938 931.403 480.431 934.624 480.431Z" fill="#FBFBFB"/>
<path d="M1057.07 464.484C1060.29 464.484 1062.9 461.991 1062.9 458.915C1062.9 455.84 1060.29 453.347 1057.07 453.347C1053.85 453.347 1051.24 455.84 1051.24 458.915C1051.24 461.991 1053.85 464.484 1057.07 464.484Z" fill="#FBFBFB"/>
<path d="M1112.99 657.366C1116.22 657.366 1118.83 654.872 1118.83 651.797C1118.83 648.721 1116.22 646.228 1112.99 646.228C1109.77 646.228 1107.16 648.721 1107.16 651.797C1107.16 654.872 1109.77 657.366 1112.99 657.366Z" fill="#FBFBFB"/>
<path d="M1036.13 516.628C1039.35 516.628 1041.96 514.135 1041.96 511.059C1041.96 507.984 1039.35 505.491 1036.13 505.491C1032.91 505.491 1030.3 507.984 1030.3 511.059C1030.3 514.135 1032.91 516.628 1036.13 516.628Z" fill="#FBFBFB"/>
<path d="M882.676 694.069C885.896 694.069 888.506 691.575 888.506 688.5C888.506 685.424 885.896 682.931 882.676 682.931C879.455 682.931 876.845 685.424 876.845 688.5C876.845 691.575 879.455 694.069 882.676 694.069Z" fill="#FBFBFB"/>
<path d="M1000.62 701.662C1003.84 701.662 1006.45 699.169 1006.45 696.094C1006.45 693.018 1003.84 690.525 1000.62 690.525C997.398 690.525 994.787 693.018 994.787 696.094C994.787 699.169 997.398 701.662 1000.62 701.662Z" fill="#FBFBFB"/>
<path d="M1043.29 746.466C1046.51 746.466 1049.12 743.972 1049.12 740.897C1049.12 737.821 1046.51 735.328 1043.29 735.328C1040.07 735.328 1037.46 737.821 1037.46 740.897C1037.46 743.972 1040.07 746.466 1043.29 746.466Z" fill="#FBFBFB"/>
<path d="M1034.54 708.75C1037.76 708.75 1040.37 706.257 1040.37 703.181C1040.37 700.105 1037.76 697.612 1034.54 697.612C1031.32 697.612 1028.71 700.105 1028.71 703.181C1028.71 706.257 1031.32 708.75 1034.54 708.75Z" fill="#FBFBFB"/>
<path d="M1127.57 802.153C1130.79 802.153 1133.4 799.66 1133.4 796.584C1133.4 793.509 1130.79 791.016 1127.57 791.016C1124.35 791.016 1121.74 793.509 1121.74 796.584C1121.74 799.66 1124.35 802.153 1127.57 802.153Z" fill="#FBFBFB"/>
<path d="M1175.01 867.966C1178.23 867.966 1180.85 865.472 1180.85 862.397C1180.85 859.321 1178.23 856.828 1175.01 856.828C1171.79 856.828 1169.18 859.321 1169.18 862.397C1169.18 865.472 1171.79 867.966 1175.01 867.966Z" fill="#FBFBFB"/>
<path d="M1248.96 880.116C1252.18 880.116 1254.79 877.622 1254.79 874.547C1254.79 871.471 1252.18 868.978 1248.96 868.978C1245.74 868.978 1243.13 871.471 1243.13 874.547C1243.13 877.622 1245.74 880.116 1248.96 880.116Z" fill="#FBFBFB"/>
<path d="M1260.62 919.603C1265.31 919.603 1269.1 915.977 1269.1 911.503C1269.1 907.03 1265.31 903.403 1260.62 903.403C1255.94 903.403 1252.14 907.03 1252.14 911.503C1252.14 915.977 1255.94 919.603 1260.62 919.603Z" fill="#FBFBFB"/>
<path d="M1213.71 977.062C1216.93 977.062 1219.54 974.569 1219.54 971.494C1219.54 968.418 1216.93 965.925 1213.71 965.925C1210.49 965.925 1207.88 968.418 1207.88 971.494C1207.88 974.569 1210.49 977.062 1213.71 977.062Z" fill="#FBFBFB"/>
<path d="M1026.86 778.106C1030.08 778.106 1032.69 775.613 1032.69 772.538C1032.69 769.462 1030.08 766.969 1026.86 766.969C1023.64 766.969 1021.03 769.462 1021.03 772.538C1021.03 775.613 1023.64 778.106 1026.86 778.106Z" fill="#FBFBFB"/>
<path d="M1041.43 859.613C1044.65 859.613 1047.27 857.119 1047.27 854.044C1047.27 850.968 1044.65 848.475 1041.43 848.475C1038.21 848.475 1035.6 850.968 1035.6 854.044C1035.6 857.119 1038.21 859.613 1041.43 859.613Z" fill="#FBFBFB"/>
<path d="M872.604 569.025C875.825 569.025 878.435 566.532 878.435 563.456C878.435 560.381 875.825 557.888 872.604 557.888C869.384 557.888 866.773 560.381 866.773 563.456C866.773 566.532 869.384 569.025 872.604 569.025Z" fill="#FBFBFB"/>
<path d="M956.886 633.066C960.107 633.066 962.717 630.573 962.717 627.497C962.717 624.421 960.107 621.928 956.886 621.928C953.666 621.928 951.056 624.421 951.056 627.497C951.056 630.573 953.666 633.066 956.886 633.066Z" fill="#FBFBFB"/>
<path d="M1080.66 796.838C1083.88 796.838 1086.49 794.345 1086.49 791.269C1086.49 788.193 1083.88 785.7 1080.66 785.7C1077.44 785.7 1074.83 788.193 1074.83 791.269C1074.83 794.345 1077.44 796.838 1080.66 796.838Z" fill="#FBFBFB"/>
<path d="M1073.24 832.275C1076.46 832.275 1079.07 829.782 1079.07 826.706C1079.07 823.631 1076.46 821.138 1073.24 821.138C1070.02 821.138 1067.41 823.631 1067.41 826.706C1067.41 829.782 1070.02 832.275 1073.24 832.275Z" fill="#FBFBFB"/>
<path d="M1139.5 858.094C1142.72 858.094 1145.33 855.6 1145.33 852.525C1145.33 849.449 1142.72 846.956 1139.5 846.956C1136.28 846.956 1133.67 849.449 1133.67 852.525C1133.67 855.6 1136.28 858.094 1139.5 858.094Z" fill="#FBFBFB"/>
<path d="M1219.54 921.122C1222.76 921.122 1225.37 918.629 1225.37 915.553C1225.37 912.478 1222.76 909.984 1219.54 909.984C1216.32 909.984 1213.71 912.478 1213.71 915.553C1213.71 918.629 1216.32 921.122 1219.54 921.122Z" fill="#FBFBFB"/>
<path d="M1129.16 890.241C1132.38 890.241 1134.99 887.747 1134.99 884.672C1134.99 881.596 1132.38 879.103 1129.16 879.103C1125.94 879.103 1123.33 881.596 1123.33 884.672C1123.33 887.747 1125.94 890.241 1129.16 890.241Z" fill="#FBFBFB"/>
<path d="M1093.12 851.006C1095.46 851.006 1097.36 849.193 1097.36 846.956C1097.36 844.72 1095.46 842.906 1093.12 842.906C1090.78 842.906 1088.88 844.72 1088.88 846.956C1088.88 849.193 1090.78 851.006 1093.12 851.006Z" fill="#FBFBFB"/>
<path d="M1123.07 828.731C1125.41 828.731 1127.31 826.918 1127.31 824.681C1127.31 822.445 1125.41 820.631 1123.07 820.631C1120.72 820.631 1118.83 822.445 1118.83 824.681C1118.83 826.918 1120.72 828.731 1123.07 828.731Z" fill="#FBFBFB"/>
<path d="M1165.21 832.781C1167.55 832.781 1169.45 830.968 1169.45 828.731C1169.45 826.494 1167.55 824.681 1165.21 824.681C1162.87 824.681 1160.97 826.494 1160.97 828.731C1160.97 830.968 1162.87 832.781 1165.21 832.781Z" fill="#FBFBFB"/>
<path d="M1212.39 886.191C1214.73 886.191 1216.63 884.378 1216.63 882.141C1216.63 879.904 1214.73 878.091 1212.39 878.091C1210.04 878.091 1208.14 879.904 1208.14 882.141C1208.14 884.378 1210.04 886.191 1212.39 886.191Z" fill="#FBFBFB"/>
<path d="M1171.83 967.697C1174.18 967.697 1176.07 965.883 1176.07 963.647C1176.07 961.41 1174.18 959.597 1171.83 959.597C1169.49 959.597 1167.59 961.41 1167.59 963.647C1167.59 965.883 1169.49 967.697 1171.83 967.697Z" fill="#FBFBFB"/>
<path d="M934.624 675.591C937.844 675.591 940.455 673.097 940.455 670.022C940.455 666.946 937.844 664.453 934.624 664.453C931.403 664.453 928.793 666.946 928.793 670.022C928.793 673.097 931.403 675.591 934.624 675.591Z" fill="#FBFBFB"/>
<path d="M1084.9 764.437C1089.44 764.437 1093.12 760.924 1093.12 756.591C1093.12 752.257 1089.44 748.744 1084.9 748.744C1080.36 748.744 1076.68 752.257 1076.68 756.591C1076.68 760.924 1080.36 764.437 1084.9 764.437Z" fill="#FBFBFB"/>
<path d="M1076.68 890.241C1081.22 890.241 1084.9 886.727 1084.9 882.394C1084.9 878.06 1081.22 874.547 1076.68 874.547C1072.15 874.547 1068.47 878.06 1068.47 882.394C1068.47 886.727 1072.15 890.241 1076.68 890.241Z" fill="#FBFBFB"/>
<path d="M956.886 717.609C960.107 717.609 962.717 715.116 962.717 712.04C962.717 708.965 960.107 706.472 956.886 706.472C953.666 706.472 951.056 708.965 951.056 712.04C951.056 715.116 953.666 717.609 956.886 717.609Z" fill="#FBFBFB"/>
<path d="M972.26 772.537C975.48 772.537 978.09 770.044 978.09 766.969C978.09 763.893 975.48 761.4 972.26 761.4C969.039 761.4 966.429 763.893 966.429 766.969C966.429 770.044 969.039 772.537 972.26 772.537Z" fill="#FBFBFB"/>
<path d="M987.896 662.934C991.117 662.934 993.727 660.441 993.727 657.366C993.727 654.29 991.117 651.797 987.896 651.797C984.676 651.797 982.065 654.29 982.065 657.366C982.065 660.441 984.676 662.934 987.896 662.934Z" fill="#FBFBFB"/>
<path d="M1135.52 524.981C1138.74 524.981 1141.35 522.488 1141.35 519.412C1141.35 516.337 1138.74 513.844 1135.52 513.844C1132.3 513.844 1129.69 516.337 1129.69 519.412C1129.69 522.488 1132.3 524.981 1135.52 524.981Z" fill="#FBFBFB"/>
<path d="M1261.42 474.609C1264.64 474.609 1267.25 472.116 1267.25 469.04C1267.25 465.965 1264.64 463.472 1261.42 463.472C1258.2 463.472 1255.59 465.965 1255.59 469.04C1255.59 472.116 1258.2 474.609 1261.42 474.609Z" fill="#FBFBFB"/>
<path d="M1121.74 595.856C1124.96 595.856 1127.57 593.363 1127.57 590.287C1127.57 587.212 1124.96 584.719 1121.74 584.719C1118.52 584.719 1115.91 587.212 1115.91 590.287C1115.91 593.363 1118.52 595.856 1121.74 595.856Z" fill="#FBFBFB"/>
<path d="M758.638 630.028C761.858 630.028 764.468 627.535 764.468 624.459C764.468 621.384 761.858 618.891 758.638 618.891C755.417 618.891 752.807 621.384 752.807 624.459C752.807 627.535 755.417 630.028 758.638 630.028Z" fill="#FBFBFB"/>
<path d="M781.961 675.591C785.181 675.591 787.792 673.097 787.792 670.022C787.792 666.946 785.181 664.453 781.961 664.453C778.74 664.453 776.13 666.946 776.13 670.022C776.13 673.097 778.74 675.591 781.961 675.591Z" fill="#FBFBFB"/>
<path d="M824.102 701.662C827.323 701.662 829.933 699.169 829.933 696.094C829.933 693.018 827.323 690.525 824.102 690.525C820.882 690.525 818.271 693.018 818.271 696.094C818.271 699.169 820.882 701.662 824.102 701.662Z" fill="#FBFBFB"/>
<path d="M471.865 877.838C475.085 877.838 477.696 875.345 477.696 872.269C477.696 869.193 475.085 866.7 471.865 866.7C468.645 866.7 466.034 869.193 466.034 872.269C466.034 875.345 468.645 877.838 471.865 877.838Z" fill="#FBFBFB"/>
<path d="M555.088 779.372C558.308 779.372 560.919 776.879 560.919 773.803C560.919 770.728 558.308 768.234 555.088 768.234C551.867 768.234 549.257 770.728 549.257 773.803C549.257 776.879 551.867 779.372 555.088 779.372Z" fill="#FBFBFB"/>
<path d="M616.577 742.416C619.797 742.416 622.408 739.923 622.408 736.847C622.408 733.772 619.797 731.278 616.577 731.278C613.357 731.278 610.746 733.772 610.746 736.847C610.746 739.923 613.357 742.416 616.577 742.416Z" fill="#FBFBFB"/>
<path d="M710.931 741.15C714.151 741.15 716.761 738.657 716.761 735.581C716.761 732.506 714.151 730.013 710.931 730.013C707.71 730.013 705.1 732.506 705.1 735.581C705.1 738.657 707.71 741.15 710.931 741.15Z" fill="#FBFBFB"/>
<path d="M781.961 780.637C785.181 780.637 787.792 778.144 787.792 775.069C787.792 771.993 785.181 769.5 781.961 769.5C778.74 769.5 776.13 771.993 776.13 775.069C776.13 778.144 778.74 780.637 781.961 780.637Z" fill="#FBFBFB"/>
<path d="M821.187 871.003C824.408 871.003 827.018 868.51 827.018 865.434C827.018 862.359 824.408 859.866 821.187 859.866C817.967 859.866 815.356 862.359 815.356 865.434C815.356 868.51 817.967 871.003 821.187 871.003Z" fill="#FBFBFB"/>
<path d="M123.339 486.759C126.121 486.759 128.375 484.606 128.375 481.95C128.375 479.294 126.121 477.141 123.339 477.141C120.558 477.141 118.304 479.294 118.304 481.95C118.304 484.606 120.558 486.759 123.339 486.759Z" fill="#FBFBFB"/>
<path d="M158.324 547.256C161.105 547.256 163.36 545.103 163.36 542.447C163.36 539.791 161.105 537.638 158.324 537.638C155.543 537.638 153.288 539.791 153.288 542.447C153.288 545.103 155.543 547.256 158.324 547.256Z" fill="#FBFBFB"/>
<path d="M226.439 498.15C229.22 498.15 231.475 495.997 231.475 493.341C231.475 490.684 229.22 488.531 226.439 488.531C223.658 488.531 221.403 490.684 221.403 493.341C221.403 495.997 223.658 498.15 226.439 498.15Z" fill="#FBFBFB"/>
<path d="M314.168 536.625C316.949 536.625 319.203 534.472 319.203 531.816C319.203 529.16 316.949 527.006 314.168 527.006C311.386 527.006 309.132 529.16 309.132 531.816C309.132 534.472 311.386 536.625 314.168 536.625Z" fill="#FBFBFB"/>
<path d="M323.444 652.809C326.225 652.809 328.48 650.656 328.48 648C328.48 645.344 326.225 643.19 323.444 643.19C320.663 643.19 318.408 645.344 318.408 648C318.408 650.656 320.663 652.809 323.444 652.809Z" fill="#FBFBFB"/>
<path d="M376.981 732.291C379.762 732.291 382.017 730.137 382.017 727.481C382.017 724.825 379.762 722.672 376.981 722.672C374.2 722.672 371.945 724.825 371.945 727.481C371.945 730.137 374.2 732.291 376.981 732.291Z" fill="#FBFBFB"/>
<path d="M254.798 466.256C257.58 466.256 259.834 464.103 259.834 461.447C259.834 458.791 257.58 456.638 254.798 456.638C252.017 456.638 249.763 458.791 249.763 461.447C249.763 464.103 252.017 466.256 254.798 466.256Z" fill="#FBFBFB"/>
<path d="M291.373 438.412C295.179 438.412 298.264 435.466 298.264 431.831C298.264 428.197 295.179 425.25 291.373 425.25C287.568 425.25 284.482 428.197 284.482 431.831C284.482 435.466 287.568 438.412 291.373 438.412Z" fill="#FBFBFB"/>
<path d="M334.31 511.819C337.091 511.819 339.346 509.666 339.346 507.01C339.346 504.353 337.091 502.2 334.31 502.2C331.529 502.2 329.274 504.353 329.274 507.01C329.274 509.666 331.529 511.819 334.31 511.819Z" fill="#FBFBFB"/>
<path d="M314.168 463.472C316.949 463.472 319.203 461.319 319.203 458.662C319.203 456.006 316.949 453.853 314.168 453.853C311.386 453.853 309.132 456.006 309.132 458.662C309.132 461.319 311.386 463.472 314.168 463.472Z" fill="#FBFBFB"/>
<path d="M423.098 399.431C425.879 399.431 428.134 397.278 428.134 394.622C428.134 391.966 425.879 389.812 423.098 389.812C420.317 389.812 418.062 391.966 418.062 394.622C418.062 397.278 420.317 399.431 423.098 399.431Z" fill="#FBFBFB"/>
<path d="M517.717 371.84C520.499 371.84 522.753 369.687 522.753 367.031C522.753 364.375 520.499 362.222 517.717 362.222C514.936 362.222 512.682 364.375 512.682 367.031C512.682 369.687 514.936 371.84 517.717 371.84Z" fill="#FBFBFB"/>
<path d="M458.348 394.116C461.129 394.116 463.384 391.963 463.384 389.306C463.384 386.65 461.129 384.497 458.348 384.497C455.567 384.497 453.312 386.65 453.312 389.306C453.312 391.963 455.567 394.116 458.348 394.116Z" fill="#FBFBFB"/>
<path d="M515.332 305.775C518.113 305.775 520.367 303.622 520.367 300.966C520.367 298.309 518.113 296.156 515.332 296.156C512.55 296.156 510.296 298.309 510.296 300.966C510.296 303.622 512.55 305.775 515.332 305.775Z" fill="#FBFBFB"/>
<path d="M277.327 532.828C280.108 532.828 282.363 530.675 282.363 528.019C282.363 525.363 280.108 523.209 277.327 523.209C274.546 523.209 272.291 525.363 272.291 528.019C272.291 530.675 274.546 532.828 277.327 532.828Z" fill="#FBFBFB"/>
<path d="M184.563 447.525C186.32 447.525 187.744 446.165 187.744 444.488C187.744 442.81 186.32 441.45 184.563 441.45C182.807 441.45 181.383 442.81 181.383 444.488C181.383 446.165 182.807 447.525 184.563 447.525Z" fill="#FBFBFB"/>
<path d="M215.838 546.75C218.326 546.75 220.343 544.823 220.343 542.447C220.343 540.07 218.326 538.144 215.838 538.144C213.349 538.144 211.332 540.07 211.332 542.447C211.332 544.823 213.349 546.75 215.838 546.75Z" fill="#FBFBFB"/>
<path d="M145.867 601.172C150.551 601.172 154.348 597.545 154.348 593.072C154.348 588.598 150.551 584.972 145.867 584.972C141.183 584.972 137.386 588.598 137.386 593.072C137.386 597.545 141.183 601.172 145.867 601.172Z" fill="#FBFBFB"/>
<path d="M183.768 477.9C185.525 477.9 186.949 476.54 186.949 474.863C186.949 473.185 185.525 471.825 183.768 471.825C182.012 471.825 180.588 473.185 180.588 474.863C180.588 476.54 182.012 477.9 183.768 477.9Z" fill="#FBFBFB"/>
<path d="M212.922 464.231C215.704 464.231 217.958 462.078 217.958 459.422C217.958 456.766 215.704 454.612 212.922 454.612C210.141 454.612 207.887 456.766 207.887 459.422C207.887 462.078 210.141 464.231 212.922 464.231Z" fill="#FBFBFB"/>
<path d="M288.193 480.431C289.95 480.431 291.374 479.072 291.374 477.394C291.374 475.716 289.95 474.356 288.193 474.356C286.437 474.356 285.013 475.716 285.013 477.394C285.013 479.072 286.437 480.431 288.193 480.431Z" fill="#FBFBFB"/>
<path d="M323.443 428.034C325.2 428.034 326.624 426.675 326.624 424.997C326.624 423.319 325.2 421.959 323.443 421.959C321.687 421.959 320.263 423.319 320.263 424.997C320.263 426.675 321.687 428.034 323.443 428.034Z" fill="#FBFBFB"/>
<path d="M315.227 488.278C316.984 488.278 318.408 486.918 318.408 485.241C318.408 483.563 316.984 482.203 315.227 482.203C313.471 482.203 312.047 483.563 312.047 485.241C312.047 486.918 313.471 488.278 315.227 488.278Z" fill="#FBFBFB"/>
<path d="M350.212 476.634C352.847 476.634 354.983 474.595 354.983 472.078C354.983 469.562 352.847 467.522 350.212 467.522C347.577 467.522 345.441 469.562 345.441 472.078C345.441 474.595 347.577 476.634 350.212 476.634Z" fill="#FBFBFB"/>
<path d="M407.991 510.047C410.626 510.047 412.762 508.007 412.762 505.491C412.762 502.974 410.626 500.935 407.991 500.935C405.357 500.935 403.221 502.974 403.221 505.491C403.221 508.007 405.357 510.047 407.991 510.047Z" fill="#FBFBFB"/>
<path d="M299.325 509.794C302.838 509.794 305.686 507.074 305.686 503.719C305.686 500.363 302.838 497.644 299.325 497.644C295.812 497.644 292.964 500.363 292.964 503.719C292.964 507.074 295.812 509.794 299.325 509.794Z" fill="#FBFBFB"/>
<path d="M290.049 596.109C291.805 596.109 293.229 594.749 293.229 593.072C293.229 591.394 291.805 590.034 290.049 590.034C288.292 590.034 286.868 591.394 286.868 593.072C286.868 594.749 288.292 596.109 290.049 596.109Z" fill="#FBFBFB"/>
<path d="M261.425 499.922C263.181 499.922 264.605 498.562 264.605 496.884C264.605 495.207 263.181 493.847 261.425 493.847C259.668 493.847 258.244 495.207 258.244 496.884C258.244 498.562 259.668 499.922 261.425 499.922Z" fill="#FBFBFB"/>
<path d="M359.223 534.853C360.98 534.853 362.404 533.493 362.404 531.816C362.404 530.138 360.98 528.778 359.223 528.778C357.467 528.778 356.043 530.138 356.043 531.816C356.043 533.493 357.467 534.853 359.223 534.853Z" fill="#FBFBFB"/>
<path d="M401.63 440.944C403.386 440.944 404.81 439.584 404.81 437.906C404.81 436.229 403.386 434.869 401.63 434.869C399.873 434.869 398.449 436.229 398.449 437.906C398.449 439.584 399.873 440.944 401.63 440.944Z" fill="#FBFBFB"/>
<path d="M362.139 357.159C363.896 357.159 365.32 355.8 365.32 354.122C365.32 352.444 363.896 351.084 362.139 351.084C360.383 351.084 358.959 352.444 358.959 354.122C358.959 355.8 360.383 357.159 362.139 357.159Z" fill="#FBFBFB"/>
<path d="M461.529 331.847C463.578 331.847 465.239 330.26 465.239 328.303C465.239 326.346 463.578 324.759 461.529 324.759C459.48 324.759 457.818 326.346 457.818 328.303C457.818 330.26 459.48 331.847 461.529 331.847Z" fill="#FBFBFB"/>
<path d="M529.644 338.428C531.401 338.428 532.825 337.068 532.825 335.391C532.825 333.713 531.401 332.353 529.644 332.353C527.888 332.353 526.464 333.713 526.464 335.391C526.464 337.068 527.888 338.428 529.644 338.428Z" fill="#FBFBFB"/>
<path d="M531.234 406.265C532.991 406.265 534.415 404.905 534.415 403.228C534.415 401.55 532.991 400.19 531.234 400.19C529.478 400.19 528.054 401.55 528.054 403.228C528.054 404.905 529.478 406.265 531.234 406.265Z" fill="#FBFBFB"/>
<path d="M554.557 425.756C556.314 425.756 557.738 424.396 557.738 422.719C557.738 421.041 556.314 419.681 554.557 419.681C552.801 419.681 551.377 421.041 551.377 422.719C551.377 424.396 552.801 425.756 554.557 425.756Z" fill="#FBFBFB"/>
<path d="M596.169 494.1C597.925 494.1 599.349 492.74 599.349 491.062C599.349 489.385 597.925 488.025 596.169 488.025C594.412 488.025 592.988 489.385 592.988 491.062C592.988 492.74 594.412 494.1 596.169 494.1Z" fill="#FBFBFB"/>
<path d="M582.652 608.765C584.409 608.765 585.833 607.405 585.833 605.728C585.833 604.05 584.409 602.69 582.652 602.69C580.896 602.69 579.472 604.05 579.472 605.728C579.472 607.405 580.896 608.765 582.652 608.765Z" fill="#FBFBFB"/>
<path d="M538.655 508.528C540.412 508.528 541.836 507.168 541.836 505.491C541.836 503.813 540.412 502.453 538.655 502.453C536.899 502.453 535.475 503.813 535.475 505.491C535.475 507.168 536.899 508.528 538.655 508.528Z" fill="#FBFBFB"/>
<path d="M516.657 516.628C518.414 516.628 519.837 515.268 519.837 513.591C519.837 511.913 518.414 510.553 516.657 510.553C514.9 510.553 513.477 511.913 513.477 513.591C513.477 515.268 514.9 516.628 516.657 516.628Z" fill="#FBFBFB"/>
<path d="M476.371 361.716C478.127 361.716 479.551 360.356 479.551 358.678C479.551 357.001 478.127 355.641 476.371 355.641C474.614 355.641 473.19 357.001 473.19 358.678C473.19 360.356 474.614 361.716 476.371 361.716Z" fill="#FBFBFB"/>
<path d="M560.653 336.909C562.41 336.909 563.834 335.55 563.834 333.872C563.834 332.194 562.41 330.834 560.653 330.834C558.897 330.834 557.473 332.194 557.473 333.872C557.473 335.55 558.897 336.909 560.653 336.909Z" fill="#FBFBFB"/>
<path d="M664.284 334.885C666.041 334.885 667.464 333.525 667.464 331.847C667.464 330.17 666.041 328.81 664.284 328.81C662.527 328.81 661.104 330.17 661.104 331.847C661.104 333.525 662.527 334.885 664.284 334.885Z" fill="#FBFBFB"/>
<path d="M692.908 390.319C694.665 390.319 696.088 388.959 696.088 387.281C696.088 385.604 694.665 384.244 692.908 384.244C691.152 384.244 689.728 385.604 689.728 387.281C689.728 388.959 691.152 390.319 692.908 390.319Z" fill="#FBFBFB"/>
<path d="M314.167 622.941C315.923 622.941 317.347 621.581 317.347 619.903C317.347 618.226 315.923 616.866 314.167 616.866C312.41 616.866 310.986 618.226 310.986 619.903C310.986 621.581 312.41 622.941 314.167 622.941Z" fill="#FBFBFB"/>
<path d="M356.044 640.659C357.8 640.659 359.224 639.3 359.224 637.622C359.224 635.944 357.8 634.584 356.044 634.584C354.287 634.584 352.863 635.944 352.863 637.622C352.863 639.3 354.287 640.659 356.044 640.659Z" fill="#FBFBFB"/>
<path d="M334.045 700.144C335.801 700.144 337.225 698.784 337.225 697.106C337.225 695.429 335.801 694.069 334.045 694.069C332.288 694.069 330.864 695.429 330.864 697.106C330.864 698.784 332.288 700.144 334.045 700.144Z" fill="#FBFBFB"/>
<path d="M423.893 731.531C426.235 731.531 428.134 729.718 428.134 727.481C428.134 725.244 426.235 723.431 423.893 723.431C421.551 723.431 419.652 725.244 419.652 727.481C419.652 729.718 421.551 731.531 423.893 731.531Z" fill="#FBFBFB"/>
<path d="M377.247 606.234C379.003 606.234 380.427 604.874 380.427 603.197C380.427 601.519 379.003 600.159 377.247 600.159C375.49 600.159 374.066 601.519 374.066 603.197C374.066 604.874 375.49 606.234 377.247 606.234Z" fill="#FBFBFB"/>
<path d="M433.17 645.975C434.926 645.975 436.35 644.615 436.35 642.937C436.35 641.26 434.926 639.9 433.17 639.9C431.413 639.9 429.989 641.26 429.989 642.937C429.989 644.615 431.413 645.975 433.17 645.975Z" fill="#FBFBFB"/>
<path d="M411.172 679.64C412.928 679.64 414.352 678.28 414.352 676.603C414.352 674.925 412.928 673.565 411.172 673.565C409.415 673.565 407.991 674.925 407.991 676.603C407.991 678.28 409.415 679.64 411.172 679.64Z" fill="#FBFBFB"/>
<path d="M458.084 762.159C459.84 762.159 461.264 760.799 461.264 759.122C461.264 757.444 459.84 756.084 458.084 756.084C456.327 756.084 454.903 757.444 454.903 759.122C454.903 760.799 456.327 762.159 458.084 762.159Z" fill="#FBFBFB"/>
<path d="M506.85 753.3C508.607 753.3 510.031 751.94 510.031 750.263C510.031 748.585 508.607 747.225 506.85 747.225C505.094 747.225 503.67 748.585 503.67 750.263C503.67 751.94 505.094 753.3 506.85 753.3Z" fill="#FBFBFB"/>
<path d="M665.344 740.644C667.1 740.644 668.524 739.284 668.524 737.606C668.524 735.929 667.1 734.569 665.344 734.569C663.587 734.569 662.163 735.929 662.163 737.606C662.163 739.284 663.587 740.644 665.344 740.644Z" fill="#FBFBFB"/>
<path d="M710.931 817.341C712.687 817.341 714.111 815.981 714.111 814.303C714.111 812.626 712.687 811.266 710.931 811.266C709.174 811.266 707.75 812.626 707.75 814.303C707.75 815.981 709.174 817.341 710.931 817.341Z" fill="#FBFBFB"/>
<path d="M831.789 899.606C833.545 899.606 834.969 898.246 834.969 896.569C834.969 894.891 833.545 893.531 831.789 893.531C830.032 893.531 828.608 894.891 828.608 896.569C828.608 898.246 830.032 899.606 831.789 899.606Z" fill="#FBFBFB"/>
<path d="M495.984 807.975C497.741 807.975 499.165 806.615 499.165 804.937C499.165 803.26 497.741 801.9 495.984 801.9C494.228 801.9 492.804 803.26 492.804 804.937C492.804 806.615 494.228 807.975 495.984 807.975Z" fill="#FBFBFB"/>
<path d="M538.655 807.975C540.412 807.975 541.836 806.615 541.836 804.937C541.836 803.26 540.412 801.9 538.655 801.9C536.899 801.9 535.475 803.26 535.475 804.937C535.475 806.615 536.899 807.975 538.655 807.975Z" fill="#FBFBFB"/>
<path d="M535.474 865.181C537.231 865.181 538.655 863.822 538.655 862.144C538.655 860.466 537.231 859.106 535.474 859.106C533.718 859.106 532.294 860.466 532.294 862.144C532.294 863.822 533.718 865.181 535.474 865.181Z" fill="#FBFBFB"/>
<path d="M429.989 877.331C431.746 877.331 433.17 875.971 433.17 874.294C433.17 872.616 431.746 871.256 429.989 871.256C428.233 871.256 426.809 872.616 426.809 874.294C426.809 875.971 428.233 877.331 429.989 877.331Z" fill="#FBFBFB"/>
<path d="M492.804 917.072C494.56 917.072 495.984 915.712 495.984 914.035C495.984 912.357 494.56 910.997 492.804 910.997C491.047 910.997 489.623 912.357 489.623 914.035C489.623 915.712 491.047 917.072 492.804 917.072Z" fill="#FBFBFB"/>
<path d="M454.903 1000.1C456.66 1000.1 458.084 998.737 458.084 997.059C458.084 995.382 456.66 994.022 454.903 994.022C453.147 994.022 451.723 995.382 451.723 997.059C451.723 998.737 453.147 1000.1 454.903 1000.1Z" fill="#FBFBFB"/>
<path d="M382.282 556.116C384.039 556.116 385.462 554.756 385.462 553.078C385.462 551.4 384.039 550.041 382.282 550.041C380.525 550.041 379.102 551.4 379.102 553.078C379.102 554.756 380.525 556.116 382.282 556.116Z" fill="#FBFBFB"/>
<path d="M468.685 510.806C470.442 510.806 471.866 509.447 471.866 507.769C471.866 506.091 470.442 504.731 468.685 504.731C466.929 504.731 465.505 506.091 465.505 507.769C465.505 509.447 466.929 510.806 468.685 510.806Z" fill="#FBFBFB"/>
<path d="M468.685 544.978C470.88 544.978 472.66 543.278 472.66 541.181C472.66 539.084 470.88 537.384 468.685 537.384C466.489 537.384 464.709 539.084 464.709 541.181C464.709 543.278 466.489 544.978 468.685 544.978Z" fill="#FBFBFB"/>
<path d="M439.001 499.922C441.197 499.922 442.977 498.222 442.977 496.125C442.977 494.028 441.197 492.328 439.001 492.328C436.805 492.328 435.025 494.028 435.025 496.125C435.025 498.222 436.805 499.922 439.001 499.922Z" fill="#FBFBFB"/>
<path d="M485.913 630.534C487.669 630.534 489.093 629.175 489.093 627.497C489.093 625.819 487.669 624.459 485.913 624.459C484.156 624.459 482.732 625.819 482.732 627.497C482.732 629.175 484.156 630.534 485.913 630.534Z" fill="#FBFBFB"/>
<path d="M427.339 549.028C429.095 549.028 430.519 547.668 430.519 545.991C430.519 544.313 429.095 542.953 427.339 542.953C425.582 542.953 424.158 544.313 424.158 545.991C424.158 547.668 425.582 549.028 427.339 549.028Z" fill="#FBFBFB"/>
<path d="M239.426 520.425C241.621 520.425 243.401 518.725 243.401 516.628C243.401 514.531 241.621 512.831 239.426 512.831C237.23 512.831 235.45 514.531 235.45 516.628C235.45 518.725 237.23 520.425 239.426 520.425Z" fill="#FBFBFB"/>
<path d="M149.578 507.515C152.066 507.515 154.084 505.589 154.084 503.212C154.084 500.836 152.066 498.909 149.578 498.909C147.09 498.909 145.072 500.836 145.072 503.212C145.072 505.589 147.09 507.515 149.578 507.515Z" fill="#FBFBFB"/>
<path d="M186.948 539.662C189.436 539.662 191.454 537.736 191.454 535.359C191.454 532.983 189.436 531.056 186.948 531.056C184.46 531.056 182.442 532.983 182.442 535.359C182.442 537.736 184.46 539.662 186.948 539.662Z" fill="#FBFBFB"/>
<path d="M70.3311 486.759C75.4543 486.759 79.6074 482.793 79.6074 477.9C79.6074 473.007 75.4543 469.041 70.3311 469.041C65.2079 469.041 61.0547 473.007 61.0547 477.9C61.0547 482.793 65.2079 486.759 70.3311 486.759Z" fill="#FBFBFB"/>
<path d="M417.002 325.266C421.393 325.266 424.953 321.866 424.953 317.672C424.953 313.478 421.393 310.078 417.002 310.078C412.611 310.078 409.051 313.478 409.051 317.672C409.051 321.866 412.611 325.266 417.002 325.266Z" fill="#FBFBFB"/>
<path d="M494.129 435.628C498.52 435.628 502.08 432.228 502.08 428.034C502.08 423.84 498.52 420.44 494.129 420.44C489.738 420.44 486.178 423.84 486.178 428.034C486.178 432.228 489.738 435.628 494.129 435.628Z" fill="#FBFBFB"/>
<path d="M574.7 465.244C579.092 465.244 582.651 461.844 582.651 457.65C582.651 453.456 579.092 450.056 574.7 450.056C570.309 450.056 566.749 453.456 566.749 457.65C566.749 461.844 570.309 465.244 574.7 465.244Z" fill="#FBFBFB"/>
<path d="M627.708 331.594C632.099 331.594 635.659 328.194 635.659 324C635.659 319.806 632.099 316.406 627.708 316.406C623.317 316.406 619.757 319.806 619.757 324C619.757 328.194 623.317 331.594 627.708 331.594Z" fill="#FBFBFB"/>
<path d="M614.722 371.587C619.113 371.587 622.673 368.188 622.673 363.994C622.673 359.8 619.113 356.4 614.722 356.4C610.33 356.4 606.771 359.8 606.771 363.994C606.771 368.188 610.33 371.587 614.722 371.587Z" fill="#FBFBFB"/>
<path d="M734.254 366.272C738.645 366.272 742.205 362.872 742.205 358.678C742.205 354.484 738.645 351.084 734.254 351.084C729.863 351.084 726.303 354.484 726.303 358.678C726.303 362.872 729.863 366.272 734.254 366.272Z" fill="#FBFBFB"/>
<path d="M188.803 511.059C193.78 511.059 197.815 507.206 197.815 502.453C197.815 497.7 193.78 493.847 188.803 493.847C183.827 493.847 179.792 497.7 179.792 502.453C179.792 507.206 183.827 511.059 188.803 511.059Z" fill="#FBFBFB"/>
<path d="M254.003 558.141C258.102 558.141 261.424 554.968 261.424 551.053C261.424 547.139 258.102 543.966 254.003 543.966C249.905 543.966 246.582 547.139 246.582 551.053C246.582 554.968 249.905 558.141 254.003 558.141Z" fill="#FBFBFB"/>
<path d="M278.387 676.603C282.485 676.603 285.808 673.43 285.808 669.516C285.808 665.601 282.485 662.428 278.387 662.428C274.288 662.428 270.966 665.601 270.966 669.516C270.966 673.43 274.288 676.603 278.387 676.603Z" fill="#FBFBFB"/>
<path d="M459.144 836.325C463.242 836.325 466.565 833.152 466.565 829.237C466.565 825.323 463.242 822.15 459.144 822.15C455.045 822.15 451.723 825.323 451.723 829.237C451.723 833.152 455.045 836.325 459.144 836.325Z" fill="#FBFBFB"/>
<path d="M660.838 704.7C664.937 704.7 668.259 701.527 668.259 697.612C668.259 693.698 664.937 690.525 660.838 690.525C656.74 690.525 653.417 693.698 653.417 697.612C653.417 701.527 656.74 704.7 660.838 704.7Z" fill="#FBFBFB"/>
<path d="M705.1 612.816C709.198 612.816 712.521 609.642 712.521 605.728C712.521 601.814 709.198 598.641 705.1 598.641C701.001 598.641 697.679 601.814 697.679 605.728C697.679 609.642 701.001 612.816 705.1 612.816Z" fill="#FBFBFB"/>
<path d="M604.65 562.191C608.748 562.191 612.071 559.017 612.071 555.103C612.071 551.189 608.748 548.016 604.65 548.016C600.551 548.016 597.229 551.189 597.229 555.103C597.229 559.017 600.551 562.191 604.65 562.191Z" fill="#FBFBFB"/>
<path d="M693.968 491.569C698.067 491.569 701.389 488.395 701.389 484.481C701.389 480.567 698.067 477.394 693.968 477.394C689.869 477.394 686.547 480.567 686.547 484.481C686.547 488.395 689.869 491.569 693.968 491.569Z" fill="#FBFBFB"/>
<path d="M821.187 741.909C825.285 741.909 828.608 738.736 828.608 734.822C828.608 730.908 825.285 727.734 821.187 727.734C817.088 727.734 813.766 730.908 813.766 734.822C813.766 738.736 817.088 741.909 821.187 741.909Z" fill="#FBFBFB"/>
<path d="M847.16 661.162C851.259 661.162 854.581 657.989 854.581 654.075C854.581 650.16 851.259 646.987 847.16 646.987C843.062 646.987 839.739 650.16 839.739 654.075C839.739 657.989 843.062 661.162 847.16 661.162Z" fill="#FBFBFB"/>
<path d="M891.157 740.897C895.256 740.897 898.578 737.723 898.578 733.809C898.578 729.895 895.256 726.722 891.157 726.722C887.059 726.722 883.736 729.895 883.736 733.809C883.736 737.723 887.059 740.897 891.157 740.897Z" fill="#FBFBFB"/>
<path d="M770.034 848.475C774.133 848.475 777.455 845.302 777.455 841.387C777.455 837.473 774.133 834.3 770.034 834.3C765.936 834.3 762.613 837.473 762.613 841.387C762.613 845.302 765.936 848.475 770.034 848.475Z" fill="#FBFBFB"/>
<path d="M741.941 793.294C746.039 793.294 749.362 790.121 749.362 786.206C749.362 782.292 746.039 779.119 741.941 779.119C737.842 779.119 734.52 782.292 734.52 786.206C734.52 790.121 737.842 793.294 741.941 793.294Z" fill="#FBFBFB"/>
<path d="M821.187 821.391C825.285 821.391 828.608 818.218 828.608 814.303C828.608 810.389 825.285 807.216 821.187 807.216C817.088 807.216 813.766 810.389 813.766 814.303C813.766 818.218 817.088 821.391 821.187 821.391Z" fill="#FBFBFB"/>
<path d="M696.618 780.891C700.717 780.891 704.039 777.718 704.039 773.803C704.039 769.889 700.717 766.716 696.618 766.716C692.52 766.716 689.197 769.889 689.197 773.803C689.197 777.718 692.52 780.891 696.618 780.891Z" fill="#FBFBFB"/>
<path d="M401.895 929.728C405.993 929.728 409.316 926.555 409.316 922.641C409.316 918.726 405.993 915.553 401.895 915.553C397.796 915.553 394.474 918.726 394.474 922.641C394.474 926.555 397.796 929.728 401.895 929.728Z" fill="#FBFBFB"/>
<path d="M511.091 846.703C515.19 846.703 518.512 843.53 518.512 839.616C518.512 835.702 515.19 832.528 511.091 832.528C506.992 832.528 503.67 835.702 503.67 839.616C503.67 843.53 506.992 846.703 511.091 846.703Z" fill="#FBFBFB"/>
<path d="M397.655 655.088C401.753 655.088 405.076 651.914 405.076 648C405.076 644.086 401.753 640.913 397.655 640.913C393.556 640.913 390.233 644.086 390.233 648C390.233 651.914 393.556 655.088 397.655 655.088Z" fill="#FBFBFB"/>
<path d="M468.685 736.594C473.955 736.594 478.226 732.514 478.226 727.481C478.226 722.448 473.955 718.369 468.685 718.369C463.415 718.369 459.144 722.448 459.144 727.481C459.144 732.514 463.415 736.594 468.685 736.594Z" fill="#FBFBFB"/>
<path d="M604.65 691.79C609.919 691.79 614.191 687.711 614.191 682.678C614.191 677.645 609.919 673.565 604.65 673.565C599.38 673.565 595.108 677.645 595.108 682.678C595.108 687.711 599.38 691.79 604.65 691.79Z" fill="#FBFBFB"/>
<path d="M717.027 537.384C722.296 537.384 726.568 533.304 726.568 528.272C726.568 523.239 722.296 519.159 717.027 519.159C711.757 519.159 707.485 523.239 707.485 528.272C707.485 533.304 711.757 537.384 717.027 537.384Z" fill="#FBFBFB"/>
<path d="M894.338 633.066C900.778 633.066 905.999 628.079 905.999 621.928C905.999 615.777 900.778 610.791 894.338 610.791C887.897 610.791 882.676 615.777 882.676 621.928C882.676 628.079 887.897 633.066 894.338 633.066Z" fill="#FBFBFB"/>
<path d="M876.58 458.916C883.02 458.916 888.241 453.929 888.241 447.778C888.241 441.627 883.02 436.641 876.58 436.641C870.139 436.641 864.918 441.627 864.918 447.778C864.918 453.929 870.139 458.916 876.58 458.916Z" fill="#FBFBFB"/>
<path d="M802.634 599.4C807.904 599.4 812.176 595.32 812.176 590.287C812.176 585.255 807.904 581.175 802.634 581.175C797.365 581.175 793.093 585.255 793.093 590.287C793.093 595.32 797.365 599.4 802.634 599.4Z" fill="#FBFBFB"/>
<path d="M824.102 550.294C829.372 550.294 833.643 546.214 833.643 541.181C833.643 536.149 829.372 532.069 824.102 532.069C818.832 532.069 814.561 536.149 814.561 541.181C814.561 546.214 818.832 550.294 824.102 550.294Z" fill="#FBFBFB"/>
<path d="M940.455 573.834C945.724 573.834 949.996 569.755 949.996 564.722C949.996 559.689 945.724 555.609 940.455 555.609C935.185 555.609 930.913 559.689 930.913 564.722C930.913 569.755 935.185 573.834 940.455 573.834Z" fill="#FBFBFB"/>
<path d="M1008.83 582.187C1014.1 582.187 1018.38 578.108 1018.38 573.075C1018.38 568.042 1014.1 563.962 1008.83 563.962C1003.56 563.962 999.293 568.042 999.293 573.075C999.293 578.108 1003.56 582.187 1008.83 582.187Z" fill="#FBFBFB"/>
<path d="M972.259 516.881C977.529 516.881 981.801 512.801 981.801 507.769C981.801 502.736 977.529 498.656 972.259 498.656C966.99 498.656 962.718 502.736 962.718 507.769C962.718 512.801 966.99 516.881 972.259 516.881Z" fill="#FBFBFB"/>
<path d="M1093.12 500.681C1098.39 500.681 1102.66 496.601 1102.66 491.569C1102.66 486.536 1098.39 482.456 1093.12 482.456C1087.85 482.456 1083.58 486.536 1083.58 491.569C1083.58 496.601 1087.85 500.681 1093.12 500.681Z" fill="#FBFBFB"/>
<path d="M1037.72 644.456C1042.99 644.456 1047.27 640.377 1047.27 635.344C1047.27 630.311 1042.99 626.231 1037.72 626.231C1032.45 626.231 1028.18 630.311 1028.18 635.344C1028.18 640.377 1032.45 644.456 1037.72 644.456Z" fill="#FBFBFB"/>
<path d="M1010.69 748.997C1015.96 748.997 1020.23 744.917 1020.23 739.884C1020.23 734.852 1015.96 730.772 1010.69 730.772C1005.42 730.772 1001.15 734.852 1001.15 739.884C1001.15 744.917 1005.42 748.997 1010.69 748.997Z" fill="#FBFBFB"/>
<path d="M1155.93 920.616C1161.2 920.616 1165.47 916.536 1165.47 911.503C1165.47 906.47 1161.2 902.391 1155.93 902.391C1150.66 902.391 1146.39 906.47 1146.39 911.503C1146.39 916.536 1150.66 920.616 1155.93 920.616Z" fill="#FBFBFB"/>
<path d="M1212.65 507.769C1217.92 507.769 1222.19 503.689 1222.19 498.656C1222.19 493.624 1217.92 489.544 1212.65 489.544C1207.38 489.544 1203.11 493.624 1203.11 498.656C1203.11 503.689 1207.38 507.769 1212.65 507.769Z" fill="#FBFBFB"/>
<path d="M1071.38 578.138C1076.65 578.138 1080.92 574.058 1080.92 569.025C1080.92 563.992 1076.65 559.913 1071.38 559.913C1066.11 559.913 1061.84 563.992 1061.84 569.025C1061.84 574.058 1066.11 578.138 1071.38 578.138Z" fill="#FBFBFB"/>
<path d="M949.731 418.162C955 418.162 959.272 414.083 959.272 409.05C959.272 404.017 955 399.938 949.731 399.938C944.461 399.938 940.189 404.017 940.189 409.05C940.189 414.083 944.461 418.162 949.731 418.162Z" fill="#FBFBFB"/>
<path d="M880.29 516.881C885.56 516.881 889.832 512.801 889.832 507.769C889.832 502.736 885.56 498.656 880.29 498.656C875.021 498.656 870.749 502.736 870.749 507.769C870.749 512.801 875.021 516.881 880.29 516.881Z" fill="#FBFBFB"/>
<path d="M811.911 444.741C817.18 444.741 821.452 440.661 821.452 435.628C821.452 430.595 817.18 426.516 811.911 426.516C806.641 426.516 802.369 430.595 802.369 435.628C802.369 440.661 806.641 444.741 811.911 444.741Z" fill="#FBFBFB"/>
<path d="M997.438 454.613C1002.71 454.613 1006.98 450.533 1006.98 445.5C1006.98 440.468 1002.71 436.388 997.438 436.388C992.168 436.388 987.896 440.468 987.896 445.5C987.896 450.533 992.168 454.613 997.438 454.613Z" fill="#FBFBFB"/>
<path d="M1139.23 471.825C1144.5 471.825 1148.78 467.745 1148.78 462.713C1148.78 457.68 1144.5 453.6 1139.23 453.6C1133.96 453.6 1129.69 457.68 1129.69 462.713C1129.69 467.745 1133.96 471.825 1139.23 471.825Z" fill="#FBFBFB"/>
<path d="M1216.63 429.806C1221.89 429.806 1226.17 425.726 1226.17 420.694C1226.17 415.661 1221.89 411.581 1216.63 411.581C1211.36 411.581 1207.08 415.661 1207.08 420.694C1207.08 425.726 1211.36 429.806 1216.63 429.806Z" fill="#FBFBFB"/>
<path d="M772.419 525.741C777.689 525.741 781.961 521.661 781.961 516.628C781.961 511.595 777.689 507.516 772.419 507.516C767.15 507.516 762.878 511.595 762.878 516.628C762.878 521.661 767.15 525.741 772.419 525.741Z" fill="#FBFBFB"/>
<path d="M713.316 697.613C718.585 697.613 722.857 693.533 722.857 688.5C722.857 683.468 718.585 679.388 713.316 679.388C708.046 679.388 703.774 683.468 703.774 688.5C703.774 693.533 708.046 697.613 713.316 697.613Z" fill="#FBFBFB"/>
<path d="M760.493 742.922C765.762 742.922 770.034 738.842 770.034 733.809C770.034 728.777 765.762 724.697 760.493 724.697C755.223 724.697 750.951 728.777 750.951 733.809C750.951 738.842 755.223 742.922 760.493 742.922Z" fill="#FBFBFB"/>
<path d="M717.027 880.369C722.296 880.369 726.568 876.289 726.568 871.256C726.568 866.223 722.296 862.144 717.027 862.144C711.757 862.144 707.485 866.223 707.485 871.256C707.485 876.289 711.757 880.369 717.027 880.369Z" fill="#FBFBFB"/>
<path d="M462.324 957.825C467.593 957.825 471.865 953.745 471.865 948.713C471.865 943.68 467.593 939.6 462.324 939.6C457.054 939.6 452.782 943.68 452.782 948.713C452.782 953.745 457.054 957.825 462.324 957.825Z" fill="#FBFBFB"/>
<path d="M370.62 508.022C374.28 508.022 377.246 505.189 377.246 501.694C377.246 498.199 374.28 495.366 370.62 495.366C366.961 495.366 363.994 498.199 363.994 501.694C363.994 505.189 366.961 508.022 370.62 508.022Z" fill="#FBFBFB"/>
<path d="M405.075 481.19C408.735 481.19 411.701 478.357 411.701 474.862C411.701 471.367 408.735 468.534 405.075 468.534C401.416 468.534 398.449 471.367 398.449 474.862C398.449 478.357 401.416 481.19 405.075 481.19Z" fill="#FBFBFB"/>
<path d="M384.933 417.909C389.324 417.909 392.884 414.509 392.884 410.315C392.884 406.122 389.324 402.722 384.933 402.722C380.541 402.722 376.981 406.122 376.981 410.315C376.981 414.509 380.541 417.909 384.933 417.909Z" fill="#FBFBFB"/>
<path d="M70.3311 477.9L123.339 481.95L149.578 503.212L116.978 519.159L145.867 593.072" stroke="#FBFBFB" stroke-width="0.5" stroke-miterlimit="10"/>
<path d="M158.324 542.447L149.578 503.212H186.949V534.853" stroke="#FBFBFB" stroke-width="0.5" stroke-miterlimit="10"/>
<path d="M183.768 474.862L151.434 478.912" stroke="#FBFBFB" stroke-width="0.5" stroke-miterlimit="10"/>
<path d="M215.837 542.447L184.563 574.341L145.867 593.072L158.324 542.447" stroke="#FBFBFB" stroke-width="0.5" stroke-miterlimit="10"/>
<path d="M186.948 535.359L158.324 542.447" stroke="#FBFBFB" stroke-width="0.5" stroke-miterlimit="10"/>
<path d="M213.717 459.675L226.439 493.34L188.804 502.453" stroke="#FBFBFB" stroke-width="0.5" stroke-miterlimit="10"/>
<path d="M183.768 474.862L188.803 502.453L215.307 542.447L188.008 535.359" stroke="#FBFBFB" stroke-width="0.5" stroke-miterlimit="10" stroke-linecap="round" stroke-linejoin="round"/>
<path d="M216.898 542.447L239.427 516.628L227.5 493.847L255.859 461.447L212.923 459.422L183.768 474.862L184.563 444.487L151.434 477.9" stroke="#FBFBFB" stroke-width="0.5" stroke-miterlimit="10"/>
<path d="M254.003 551.812L277.326 529.284" stroke="#FBFBFB" stroke-width="0.5" stroke-miterlimit="10"/>
<path d="M261.425 496.884L277.327 528.019" stroke="#FBFBFB" stroke-width="0.5" stroke-miterlimit="10"/>
<path d="M255.859 461.447L288.194 477.394L261.425 496.884L254.799 461.447" stroke="#FBFBFB" stroke-width="0.5" stroke-miterlimit="10"/>
<path d="M300.12 503.719L314.962 486.506" stroke="#FBFBFB" stroke-width="0.5" stroke-miterlimit="10"/>
<path d="M261.425 496.884L298.795 502.453L289.254 477.9L315.228 485.241" stroke="#FBFBFB" stroke-width="0.5" stroke-miterlimit="10"/>
<path d="M281.568 564.216L290.049 593.072L319.203 581.935L280.772 564.216" stroke="#FBFBFB" stroke-width="0.5" stroke-miterlimit="10"/>
<path d="M254.799 553.078L280.773 563.203L278.387 528.019L298.795 503.212L314.168 531.816" stroke="#FBFBFB" stroke-width="0.5" stroke-miterlimit="10"/>
<path d="M314.167 531.815L319.203 581.934L342.526 605.728L291.639 593.831L314.167 619.903H257.184L290.048 593.831" stroke="#FBFBFB" stroke-width="0.5" stroke-miterlimit="10"/>
<path d="M359.489 531.056L334.31 507.009L315.228 531.816" stroke="#FBFBFB" stroke-width="0.5" stroke-miterlimit="10"/>
<path d="M278.387 669.516L257.184 619.903L323.443 648L314.167 619.903L356.043 637.622L343.321 606.235L359.224 575.606L319.998 581.935" stroke="#FBFBFB" stroke-width="0.5" stroke-miterlimit="10"/>
<path d="M278.387 669.516L324.238 648" stroke="#FBFBFB" stroke-width="0.5" stroke-miterlimit="10"/>
<path d="M341.202 606.234L377.247 603.197L359.224 575.606L338.286 550.294L359.224 531.815L360.549 574.34L382.283 553.078L403.486 570.29L378.307 603.197L398.715 648" stroke="#FBFBFB" stroke-width="0.5" stroke-miterlimit="10"/>
<path d="M323.443 646.481L356.043 637.622" stroke="#FBFBFB" stroke-width="0.5" stroke-miterlimit="10"/>
<path d="M291.374 432.844L322.384 424.997L314.167 458.663L350.213 472.078L370.621 501.694L315.228 485.241L349.418 472.838" stroke="#FBFBFB" stroke-width="0.5" stroke-miterlimit="10"/>
<path d="M288.193 477.394L314.167 458.662L290.314 431.831L288.193 477.394Z" stroke="#FBFBFB" stroke-width="0.5" stroke-miterlimit="10"/>
<path d="M278.387 669.516L334.045 697.106L361.874 679.641L278.387 669.516Z" stroke="#FBFBFB" stroke-width="0.5" stroke-miterlimit="10"/>
<path d="M334.045 697.106L376.981 727.481H423.893L361.874 679.641L356.043 637.622L397.654 648L361.874 679.641L323.443 648.506" stroke="#FBFBFB" stroke-width="0.5" stroke-miterlimit="10"/>
<path d="M376.981 727.481L361.874 679.641" stroke="#FBFBFB" stroke-width="0.5" stroke-miterlimit="10"/>
<path d="M411.171 676.603L433.169 642.938L398.714 648L411.171 676.603ZM411.171 676.603L363.994 679.641" stroke="#FBFBFB" stroke-width="0.5" stroke-miterlimit="10"/>
<path d="M370.62 500.935L401.63 437.906L350.212 472.078L323.443 424.997" stroke="#FBFBFB" stroke-width="0.5" stroke-miterlimit="10"/>
<path d="M314.167 485.241L334.31 507.009L370.62 501.694L405.075 474.863L401.63 437.906L434.495 451.575L407.991 505.491L371.68 501.694L359.224 531.816H315.227L338.286 550.294L319.203 581.934" stroke="#FBFBFB" stroke-width="0.5" stroke-miterlimit="10"/>
<path d="M434.495 451.575L405.075 474.863" stroke="#FBFBFB" stroke-width="0.5" stroke-miterlimit="10"/>
<path d="M439.001 496.125L435.025 451.575L468.685 507.769L439.001 496.125ZM439.001 496.125L407.991 505.491" stroke="#FBFBFB" stroke-width="0.5" stroke-miterlimit="10"/>
<path d="M401.63 437.906L384.933 410.316L423.098 394.622L401.63 437.906Z" stroke="#FBFBFB" stroke-width="0.5" stroke-miterlimit="10" stroke-linecap="round" stroke-linejoin="round"/>
<path d="M423.099 394.622L392.884 371.841L362.14 354.122L417.003 317.672L394.209 369.563L426.809 350.578L419.653 316.153" stroke="#FBFBFB" stroke-width="0.5" stroke-miterlimit="10" stroke-linecap="round" stroke-linejoin="round"/>
<path d="M428.134 351.084L423.894 394.622" stroke="#FBFBFB" stroke-width="0.5" stroke-miterlimit="10" stroke-linecap="round" stroke-linejoin="round"/>
<path d="M383.872 409.303L392.883 371.841" stroke="#FBFBFB" stroke-width="0.5" stroke-miterlimit="10" stroke-linecap="round" stroke-linejoin="round"/>
<path d="M417.002 317.672L461.528 328.303L515.331 300.966L499.959 329.822H461.528L426.808 350.578L476.371 358.678L462.589 328.81" stroke="#FBFBFB" stroke-width="0.5" stroke-miterlimit="10" stroke-linecap="round" stroke-linejoin="round"/>
<path d="M515.332 300.966L560.654 333.872L529.644 335.391L515.332 301.978" stroke="#FBFBFB" stroke-width="0.5" stroke-miterlimit="10" stroke-linecap="round" stroke-linejoin="round"/>
<path d="M458.349 390.572L494.924 428.034L496.249 392.85L458.349 389.306L476.371 358.678L517.717 367.031L499.96 329.822L529.644 335.391L517.717 367.031" stroke="#FBFBFB" stroke-width="0.5" stroke-miterlimit="10" stroke-linecap="round" stroke-linejoin="round"/>
<path d="M499.96 329.822L476.371 358.678" stroke="#FBFBFB" stroke-width="0.5" stroke-miterlimit="10" stroke-linecap="round" stroke-linejoin="round"/>
<path d="M517.187 468.028L529.644 436.641L574.701 457.65L538.655 505.491L515.597 468.534L494.129 428.034L529.644 435.628L531.234 403.228L496.249 392.85L517.717 367.031L560.654 333.872L587.158 346.022L627.709 324L664.284 331.847L614.722 363.994L587.158 347.794L551.642 367.791L560.654 335.391" stroke="#FBFBFB" stroke-width="0.5" stroke-miterlimit="10" stroke-linecap="round" stroke-linejoin="round"/>
<path d="M515.597 468.534L516.657 513.59L538.655 505.49" stroke="#FBFBFB" stroke-width="0.5" stroke-miterlimit="10" stroke-linecap="round" stroke-linejoin="round"/>
<path d="M627.708 324L614.721 363.994L570.725 396.141L608.89 420.694L614.721 366.272L551.642 367.791L531.234 403.228L554.557 422.719L529.644 436.641" stroke="#FBFBFB" stroke-width="0.5" stroke-miterlimit="10" stroke-linecap="round" stroke-linejoin="round"/>
<path d="M517.717 367.031L551.642 367.791L570.725 396.141L574.7 457.65L608.89 420.694L596.168 491.062L574.7 460.434L554.557 422.719L568.339 396.141" stroke="#FBFBFB" stroke-width="0.5" stroke-miterlimit="10" stroke-linecap="round" stroke-linejoin="round"/>
<path d="M423.894 727.481H468.685L506.851 750.263L555.088 773.803L538.655 804.938L502.875 776.081L506.851 751.781L458.084 759.122L468.685 730.013" stroke="#FBFBFB" stroke-width="0.5" stroke-miterlimit="10"/>
<path d="M423.098 727.481L418.062 764.691L458.083 759.122L452.253 792.028L502.875 776.081L495.984 804.938L511.091 839.616L538.655 804.938" stroke="#FBFBFB" stroke-width="0.5" stroke-miterlimit="10"/>
<path d="M418.062 764.69L459.144 829.237L452.253 792.028L418.858 764.69" stroke="#FBFBFB" stroke-width="0.5" stroke-miterlimit="10"/>
<path d="M429.99 874.294L401.896 922.641L462.324 948.713" stroke="#FBFBFB" stroke-width="0.5" stroke-miterlimit="10"/>
<path d="M401.896 922.641L442.977 912.516L429.99 874.294H473.191L462.324 948.712L444.302 912.516L471.866 872.269L511.092 839.616L459.144 829.238L495.984 804.938" stroke="#FBFBFB" stroke-width="0.5" stroke-miterlimit="10"/>
<path d="M429.989 874.294L459.144 829.237L471.865 872.269L492.804 914.034" stroke="#FBFBFB" stroke-width="0.5" stroke-miterlimit="10"/>
<path d="M468.685 603.197L425.483 611.55" stroke="#FBFBFB" stroke-width="0.5" stroke-miterlimit="10"/>
<path d="M494.129 569.784L522.488 611.55L485.913 627.497L468.685 603.197L494.129 569.784ZM494.129 569.784L485.913 627.497L433.17 642.937L468.685 603.197L433.17 581.428L427.339 545.991L494.129 569.784ZM494.129 569.784L468.685 541.181L427.339 545.991L403.485 570.291L433.17 581.428L423.893 611.55" stroke="#FBFBFB" stroke-width="0.5" stroke-miterlimit="10"/>
<path d="M675.416 650.531L660.839 697.613L733.459 659.137L713.316 688.5L760.493 737.606L781.962 775.069L821.187 734.822L760.493 733.809L734.785 657.366L675.416 648L604.65 682.678L616.577 736.847L659.779 699.384L606.506 683.691" stroke="#FBFBFB" stroke-width="0.5" stroke-miterlimit="10"/>
<path d="M710.931 814.303L741.94 786.206" stroke="#FBFBFB" stroke-width="0.5" stroke-miterlimit="10"/>
<path d="M760.493 733.81L741.94 786.206L770.035 841.388L781.961 775.069L821.187 814.303" stroke="#FBFBFB" stroke-width="0.5" stroke-miterlimit="10"/>
<path d="M770.034 841.388L821.187 814.303V865.434L831.788 896.569" stroke="#FBFBFB" stroke-width="0.5" stroke-miterlimit="10"/>
<path d="M675.416 648L631.949 618.131L681.246 575.606L705.1 605.728L717.027 528.272L746.446 567L707.485 608.513L677.271 648L758.638 624.459L734.784 657.366L781.961 670.022L824.103 696.094L891.157 733.809L934.624 670.022L882.676 688.5L891.157 730.013" stroke="#FBFBFB" stroke-width="0.5" stroke-miterlimit="10"/>
<path d="M693.968 484.481L758.902 471.572L717.026 525.741" stroke="#FBFBFB" stroke-width="0.5" stroke-miterlimit="10"/>
<path d="M949.73 411.581L934.623 474.862L994.787 447.778L972.259 507.769L1057.07 458.915L997.438 445.5L949.73 409.05L876.58 447.778L829.933 485.747L772.419 516.628L758.902 471.572" stroke="#FBFBFB" stroke-width="0.5" stroke-miterlimit="10"/>
<path d="M876.58 447.778L932.238 474.863L880.291 507.769L829.933 485.747L824.103 541.181L772.42 516.628" stroke="#FBFBFB" stroke-width="0.5" stroke-miterlimit="10"/>
<path d="M802.634 590.287L824.102 541.181L880.29 507.769L872.604 563.456L934.623 474.862L972.259 507.769L940.454 564.722L894.337 621.928L870.749 563.456L802.634 590.287Z" stroke="#FBFBFB" stroke-width="0.5" stroke-miterlimit="10"/>
<path d="M872.604 563.456L940.455 564.722L1008.83 573.075L972.259 507.769" stroke="#FBFBFB" stroke-width="0.5" stroke-miterlimit="10"/>
<path d="M894.338 621.928L956.887 627.497L1008.83 573.834" stroke="#FBFBFB" stroke-width="0.5" stroke-miterlimit="10"/>
<path d="M956.887 627.497L987.896 657.366L1037.72 635.344L1071.38 569.025L1135.52 519.412L1093.12 491.569L1036.13 511.059L1057.07 458.916L1139.23 462.712L1212.65 498.656L1137.64 519.412L1139.23 465.75L1094.97 489.544" stroke="#FBFBFB" stroke-width="0.5" stroke-miterlimit="10"/>
<path d="M1000.62 696.094L1037.72 635.344L1008.83 573.075L1036.13 511.06L1071.38 569.025L1119.09 590.288L1112.99 651.797" stroke="#FBFBFB" stroke-width="0.5" stroke-miterlimit="10"/>
<path d="M959.273 709.256L987.897 658.378L1000.62 696.094L956.887 712.041L934.624 670.022L984.981 657.366" stroke="#FBFBFB" stroke-width="0.5" stroke-miterlimit="10"/>
<path d="M1000.62 696.094L1034.54 703.181L1010.69 739.884L1043.29 740.897L1036.13 703.181" stroke="#FBFBFB" stroke-width="0.5" stroke-miterlimit="10"/>
<path d="M1173.16 862.397L1141.09 852.525L1163.62 829.997L1123.07 824.681L1127.31 798.356L1080.66 791.269L1084.9 758.109L1026.86 772.538L1043.29 740.897L1084.9 756.591L1127.57 796.584L1165.21 828.731L1175.01 862.397L1155.93 911.503L1129.16 884.672L1139.5 852.525L1155.93 905.934" stroke="#FBFBFB" stroke-width="0.5" stroke-miterlimit="10"/>
<path d="M1010.69 739.884L1025.27 772.537L972.259 766.969L1007.51 741.656" stroke="#FBFBFB" stroke-width="0.5" stroke-miterlimit="10"/>
<path d="M1026.86 772.538L1079.07 791.269" stroke="#FBFBFB" stroke-width="0.5" stroke-miterlimit="10"/>
<path d="M1139.5 852.525L1123.07 824.681" stroke="#FBFBFB" stroke-width="0.5" stroke-miterlimit="10"/>
<path d="M1041.43 854.044L1093.12 846.956" stroke="#FBFBFB" stroke-width="0.5" stroke-miterlimit="10"/>
<path d="M1246.58 874.547L1261.68 911.503L1213.71 971.494L1171.83 963.647L1219.54 915.553L1213.18 968.709" stroke="#FBFBFB" stroke-width="0.5" stroke-miterlimit="10"/>
<path d="M1221.66 915.553L1258.24 911.503" stroke="#FBFBFB" stroke-width="0.5" stroke-miterlimit="10"/>
<path d="M1219.54 916.819L1248.96 874.547L1212.38 882.141L1219.54 916.819Z" stroke="#FBFBFB" stroke-width="0.5" stroke-miterlimit="10"/>
<path d="M1155.93 911.503L1219.54 915.806" stroke="#FBFBFB" stroke-width="0.5" stroke-miterlimit="10"/>
<path d="M631.949 618.131L604.65 555.103L582.651 605.728" stroke="#FBFBFB" stroke-width="0.5" stroke-miterlimit="10"/>
<path d="M664.284 331.847L734.254 358.678L692.908 387.281" stroke="#FBFBFB" stroke-width="0.5" stroke-miterlimit="10"/>
<path d="M123.339 481.95L151.433 478.913L149.578 502.453" stroke="#FBFBFB" stroke-width="0.5" stroke-miterlimit="10"/>
<path d="M1212.65 498.656L1216.62 420.694L1141.35 458.916" stroke="#FBFBFB" stroke-width="0.5" stroke-miterlimit="10"/>
<path d="M829.933 485.747L811.91 435.628L852.196 386.016" stroke="#FBFBFB" stroke-width="0.5" stroke-miterlimit="10"/>
<path d="M401.896 922.641L454.903 997.059L462.324 948.712" stroke="#FBFBFB" stroke-width="0.5" stroke-miterlimit="10"/>
<path d="M717.026 872.269L770.034 841.388" stroke="#FBFBFB" stroke-width="0.5" stroke-miterlimit="10"/>
<path d="M1076.68 884.672H1129.16L1093.12 846.956L1123.07 824.681L1073.24 826.706L1041.43 854.044L1076.68 882.394L1093.12 846.956L1074.83 828.731" stroke="#FBFBFB" stroke-width="0.5" stroke-miterlimit="10"/>
<path d="M1216.63 420.694L1261.42 469.041L1214.5 498.656" stroke="#FBFBFB" stroke-width="0.5" stroke-miterlimit="10"/>
<path d="M696.619 773.803L710.931 814.303L717.027 871.256L741.941 786.206L712.521 735.581L713.316 688.5L660.839 697.613L665.344 739.125L696.619 773.803ZM696.619 773.803L710.931 735.581L665.344 737.606L616.577 736.847" stroke="#FBFBFB" stroke-width="0.5" stroke-miterlimit="10"/>
<path d="M334.31 507.009L299.325 503.972L280.772 563.203L315.228 531.815" stroke="#FBFBFB" stroke-width="0.5" stroke-miterlimit="10"/>
<path d="M802.634 590.288L847.16 654.075L882.676 688.5" stroke="#FBFBFB" stroke-width="0.5" stroke-miterlimit="10"/>
<path d="M934.624 474.862L940.455 564.722L955.562 627.244L934.624 670.022L894.338 621.928L882.676 688.5L824.103 696.094L847.161 654.075L781.962 670.022L758.638 624.459L746.446 567L802.635 590.287L760.493 623.953L849.016 651.797L894.338 621.928L807.405 590.287L772.42 516.628L717.027 528.272L693.969 484.481L681.247 575.606L604.65 555.103" stroke="#FBFBFB" stroke-width="0.5" stroke-miterlimit="10"/>
<path d="M770.035 520.931L746.446 567" stroke="#FBFBFB" stroke-width="0.5" stroke-miterlimit="10"/>
<path d="M705.1 605.728L758.638 624.459" stroke="#FBFBFB" stroke-width="0.5" stroke-miterlimit="10"/>
<path d="M184.563 444.487L212.923 459.422" stroke="#FBFBFB" stroke-width="0.5" stroke-miterlimit="10"/>
<path d="M492.804 914.034L535.475 862.144L511.092 839.616L492.804 914.034ZM492.804 914.034L464.445 948.713L492.804 994.022L454.903 997.059" stroke="#FBFBFB" stroke-width="0.5" stroke-miterlimit="10"/>
<path d="M356.043 637.622L377.246 603.197L423.893 611.55L403.485 570.291" stroke="#FBFBFB" stroke-width="0.5" stroke-miterlimit="10"/>
<path d="M433.17 642.937L423.893 611.55L397.654 648" stroke="#FBFBFB" stroke-width="0.5" stroke-miterlimit="10"/>
<path d="M184.563 574.34L158.325 542.447L116.979 519.159" stroke="#FBFBFB" stroke-width="0.5" stroke-miterlimit="10"/>
<path d="M186.948 535.359L183.768 573.328" stroke="#FBFBFB" stroke-width="0.5" stroke-miterlimit="10"/>
<path d="M227.5 493.847L261.425 496.884L239.426 516.628L254.004 551.053L215.838 542.447" stroke="#FBFBFB" stroke-width="0.5" stroke-miterlimit="10"/>
</g>
</svg>
