<svg width="878" height="879" viewBox="0 0 878 879" fill="none" xmlns="http://www.w3.org/2000/svg">
<circle cx="438.965" cy="438.746" r="310.085" transform="rotate(45 438.965 438.746)" stroke="#9EAA85" stroke-width="0.930255"/>
<circle cx="548.377" cy="329.333" r="155.042" transform="rotate(45 548.377 329.333)" stroke="#9EAA85" stroke-width="0.930255"/>
<circle cx="329.114" cy="548.596" r="155.042" transform="rotate(45 329.114 548.596)" stroke="#9EAA85" stroke-width="0.930255"/>
<circle cx="547.72" cy="547.938" r="155.042" transform="rotate(45 547.72 547.938)" stroke="#9EAA85" stroke-width="0.930255"/>
<circle cx="329.114" cy="329.333" r="155.042" transform="rotate(45 329.114 329.333)" stroke="#9EAA85" stroke-width="0.930255"/>
<rect x="439.746" y="1" width="103.258" height="103.258" transform="rotate(45 439.746 1)" stroke="#9EAA85" stroke-width="0.930255"/>
<rect x="293.717" y="147.029" width="103.258" height="103.258" transform="rotate(45 293.717 147.029)" stroke="#9EAA85" stroke-width="0.930255"/>
<rect x="147.688" y="293.058" width="103.258" height="103.258" transform="rotate(45 147.688 293.058)" stroke="#9EAA85" stroke-width="0.930255"/>
<rect x="293.717" y="439.965" width="103.258" height="103.258" transform="rotate(45 293.717 439.965)" stroke="#9EAA85" stroke-width="0.930255"/>
<rect x="440.185" y="293.497" width="103.258" height="103.258" transform="rotate(45 440.185 293.497)" stroke="#9EAA85" stroke-width="0.930255"/>
<rect x="512.761" y="74.0146" width="103.258" height="103.258" transform="rotate(45 512.761 74.0146)" stroke="#9EAA85" stroke-width="0.930255"/>
<rect x="366.731" y="220.044" width="103.258" height="103.258" transform="rotate(45 366.731 220.044)" stroke="#9EAA85" stroke-width="0.930255"/>
<rect x="220.702" y="366.073" width="103.258" height="103.258" transform="rotate(45 220.702 366.073)" stroke="#9EAA85" stroke-width="0.930255"/>
<rect x="366.731" y="512.979" width="103.258" height="103.258" transform="rotate(45 366.731 512.979)" stroke="#9EAA85" stroke-width="0.930255"/>
<rect x="513.199" y="366.512" width="103.258" height="103.258" transform="rotate(45 513.199 366.512)" stroke="#9EAA85" stroke-width="0.930255"/>
<rect x="658.79" y="220.044" width="103.258" height="103.258" transform="rotate(45 658.79 220.044)" stroke="#9EAA85" stroke-width="0.930255"/>
<rect x="585.775" y="147.029" width="103.258" height="103.258" transform="rotate(45 585.775 147.029)" stroke="#9EAA85" stroke-width="0.930255"/>
<rect x="804.819" y="366.073" width="103.258" height="103.258" transform="rotate(45 804.819 366.073)" stroke="#9EAA85" stroke-width="0.930255"/>
<rect x="731.805" y="293.058" width="103.258" height="103.258" transform="rotate(45 731.805 293.058)" stroke="#9EAA85" stroke-width="0.930255"/>
<rect x="658.57" y="512.322" width="103.258" height="103.258" transform="rotate(45 658.57 512.322)" stroke="#9EAA85" stroke-width="0.930255"/>
<rect x="512.542" y="658.351" width="103.258" height="103.258" transform="rotate(45 512.542 658.351)" stroke="#9EAA85" stroke-width="0.930255"/>
<rect x="439.746" y="147.029" width="103.258" height="103.258" transform="rotate(45 439.746 147.029)" stroke="#9EAA85" stroke-width="0.930255"/>
<rect x="293.717" y="293.058" width="103.258" height="103.258" transform="rotate(45 293.717 293.058)" stroke="#9EAA85" stroke-width="0.930255"/>
<rect x="147.249" y="439.526" width="103.258" height="103.258" transform="rotate(45 147.249 439.526)" stroke="#9EAA85" stroke-width="0.930255"/>
<rect x="293.717" y="585.994" width="103.258" height="103.258" transform="rotate(45 293.717 585.994)" stroke="#9EAA85" stroke-width="0.930255"/>
<rect x="440.185" y="439.526" width="103.258" height="103.258" transform="rotate(45 440.185 439.526)" stroke="#9EAA85" stroke-width="0.930255"/>
<rect x="585.775" y="293.058" width="103.258" height="103.258" transform="rotate(45 585.775 293.058)" stroke="#9EAA85" stroke-width="0.930255"/>
<rect x="731.805" y="439.088" width="103.258" height="103.258" transform="rotate(45 731.805 439.088)" stroke="#9EAA85" stroke-width="0.930255"/>
<rect x="585.557" y="585.336" width="103.258" height="103.258" transform="rotate(45 585.557 585.336)" stroke="#9EAA85" stroke-width="0.930255"/>
<rect x="439.527" y="731.366" width="103.258" height="103.258" transform="rotate(45 439.527 731.366)" stroke="#9EAA85" stroke-width="0.930255"/>
<rect x="366.731" y="74.0146" width="103.258" height="103.258" transform="rotate(45 366.731 74.0146)" stroke="#9EAA85" stroke-width="0.930255"/>
<rect x="220.702" y="220.044" width="103.258" height="103.258" transform="rotate(45 220.702 220.044)" stroke="#9EAA85" stroke-width="0.930255"/>
<rect x="74.2344" y="366.512" width="103.258" height="103.258" transform="rotate(45 74.2344 366.512)" stroke="#9EAA85" stroke-width="0.930255"/>
<rect x="220.702" y="512.98" width="103.258" height="103.258" transform="rotate(45 220.702 512.98)" stroke="#9EAA85" stroke-width="0.930255"/>
<rect x="367.17" y="366.512" width="103.258" height="103.258" transform="rotate(45 367.17 366.512)" stroke="#9EAA85" stroke-width="0.930255"/>
<rect x="512.761" y="220.044" width="103.258" height="103.258" transform="rotate(45 512.761 220.044)" stroke="#9EAA85" stroke-width="0.930255"/>
<rect x="658.79" y="366.073" width="103.258" height="103.258" transform="rotate(45 658.79 366.073)" stroke="#9EAA85" stroke-width="0.930255"/>
<rect x="585.557" y="439.307" width="103.258" height="103.258" transform="rotate(45 585.557 439.307)" stroke="#9EAA85" stroke-width="0.930255"/>
<rect x="439.308" y="585.556" width="103.258" height="103.258" transform="rotate(45 439.308 585.556)" stroke="#9EAA85" stroke-width="0.930255"/>
<rect x="512.541" y="512.322" width="103.258" height="103.258" transform="rotate(45 512.541 512.322)" stroke="#9EAA85" stroke-width="0.930255"/>
<rect x="366.512" y="658.351" width="103.258" height="103.258" transform="rotate(45 366.512 658.351)" stroke="#9EAA85" stroke-width="0.930255"/>
<rect x="440.185" y="293.497" width="51.164" height="51.164" transform="rotate(45 440.185 293.497)" stroke="#9EAA85" stroke-width="0.930255"/>
<rect x="440.185" y="293.497" width="51.164" height="51.164" transform="rotate(45 440.185 293.497)" stroke="#9EAA85" stroke-width="0.930255"/>
<rect x="366.951" y="366.731" width="51.164" height="51.164" transform="rotate(45 366.951 366.731)" stroke="#9EAA85" stroke-width="0.930255"/>
<rect x="512.761" y="366.073" width="51.164" height="51.164" transform="rotate(45 512.761 366.073)" stroke="#9EAA85" stroke-width="0.930255"/>
<rect x="440.623" y="366.292" width="51.164" height="51.164" transform="rotate(45 440.623 366.292)" stroke="#9EAA85" stroke-width="0.930255"/>
<rect x="366.513" y="439.526" width="51.164" height="51.164" transform="rotate(45 366.513 439.526)" stroke="#9EAA85" stroke-width="0.930255"/>
<rect x="512.761" y="438.43" width="51.164" height="51.164" transform="rotate(45 512.761 438.43)" stroke="#9EAA85" stroke-width="0.930255"/>
<rect x="476.363" y="329.676" width="51.164" height="51.164" transform="rotate(45 476.363 329.676)" stroke="#9EAA85" stroke-width="0.930255"/>
<rect x="403.787" y="403.567" width="51.164" height="51.164" transform="rotate(45 403.787 403.567)" stroke="#9EAA85" stroke-width="0.930255"/>
<rect x="548.939" y="402.251" width="51.164" height="51.164" transform="rotate(45 548.939 402.251)" stroke="#9EAA85" stroke-width="0.930255"/>
<rect x="439.746" y="439.965" width="51.164" height="51.164" transform="rotate(45 439.746 439.965)" stroke="#9EAA85" stroke-width="0.930255"/>
<rect x="476.071" y="475.997" width="51.164" height="51.164" transform="rotate(45 476.071 475.997)" stroke="#9EAA85" stroke-width="0.930255"/>
<rect x="438.868" y="513.199" width="51.164" height="51.164" transform="rotate(45 438.868 513.199)" stroke="#9EAA85" stroke-width="0.930255"/>
<rect x="403.567" y="476.143" width="51.164" height="51.164" transform="rotate(45 403.567 476.143)" stroke="#9EAA85" stroke-width="0.930255"/>
</svg>
