<svg width="878" height="879" viewBox="0 0 878 879" fill="none" xmlns="http://www.w3.org/2000/svg">
<g id="main-bg 1" clip-path="url(#clip0_1_2)">
<path id="Vector" d="M512.76 74.0144L439.746 1L366.732 74.0144L439.746 147.029L512.76 74.0144Z" stroke="#9EAA85" stroke-width="0.930255"/>
<path id="Vector_2" d="M366.731 220.043L293.717 147.029L220.703 220.043L293.717 293.058L366.731 220.043Z" stroke="#9EAA85" stroke-width="0.930255"/>
<path id="Vector_3" d="M220.702 366.072L147.688 293.058L74.6736 366.072L147.688 439.087L220.702 366.072Z" stroke="#9EAA85" stroke-width="0.930255"/>
<path id="Vector_4" d="M366.731 512.979L293.717 439.965L220.703 512.979L293.717 585.994L366.731 512.979Z" stroke="#9EAA85" stroke-width="0.930255"/>
<path id="Vector_5" d="M513.199 366.511L440.185 293.497L367.171 366.511L440.185 439.526L513.199 366.511Z" stroke="#9EAA85" stroke-width="0.930255"/>
<path id="Vector_6" d="M585.775 147.029L512.761 74.0146L439.747 147.029L512.761 220.043L585.775 147.029Z" stroke="#9EAA85" stroke-width="0.930255"/>
<path id="Vector_7" d="M439.745 293.058L366.731 220.044L293.717 293.058L366.731 366.073L439.745 293.058Z" stroke="#9EAA85" stroke-width="0.930255"/>
<path id="Vector_8" d="M293.716 439.087L220.702 366.073L147.688 439.087L220.702 512.102L293.716 439.087Z" stroke="#9EAA85" stroke-width="0.930255"/>
<path id="Vector_9" d="M439.745 585.993L366.731 512.979L293.717 585.993L366.731 659.008L439.745 585.993Z" stroke="#9EAA85" stroke-width="0.930255"/>
<path id="Vector_10" d="M586.213 439.526L513.199 366.512L440.185 439.526L513.199 512.541L586.213 439.526Z" stroke="#9EAA85" stroke-width="0.930255"/>
<path id="Vector_11" d="M731.804 293.058L658.79 220.044L585.776 293.058L658.79 366.073L731.804 293.058Z" stroke="#9EAA85" stroke-width="0.930255"/>
<path id="Vector_12" d="M658.789 220.043L585.775 147.029L512.761 220.043L585.775 293.058L658.789 220.043Z" stroke="#9EAA85" stroke-width="0.930255"/>
<path id="Vector_13" d="M877.833 439.087L804.819 366.073L731.805 439.087L804.819 512.102L877.833 439.087Z" stroke="#9EAA85" stroke-width="0.930255"/>
<path id="Vector_14" d="M804.819 366.072L731.805 293.058L658.791 366.072L731.805 439.087L804.819 366.072Z" stroke="#9EAA85" stroke-width="0.930255"/>
<path id="Vector_15" d="M731.584 585.336L658.57 512.322L585.556 585.336L658.57 658.351L731.584 585.336Z" stroke="#9EAA85" stroke-width="0.930255"/>
<path id="Vector_16" d="M585.556 731.365L512.542 658.351L439.528 731.365L512.542 804.38L585.556 731.365Z" stroke="#9EAA85" stroke-width="0.930255"/>
<path id="Vector_17" d="M512.76 220.043L439.746 147.029L366.732 220.043L439.746 293.058L512.76 220.043Z" stroke="#9EAA85" stroke-width="0.930255"/>
<path id="Vector_18" d="M366.731 366.072L293.717 293.058L220.703 366.072L293.717 439.087L366.731 366.072Z" stroke="#9EAA85" stroke-width="0.930255"/>
<path id="Vector_19" d="M220.263 512.54L147.249 439.526L74.2346 512.54L147.249 585.555L220.263 512.54Z" stroke="#9EAA85" stroke-width="0.930255"/>
<path id="Vector_20" d="M366.731 659.008L293.717 585.994L220.703 659.008L293.717 732.023L366.731 659.008Z" stroke="#9EAA85" stroke-width="0.930255"/>
<path id="Vector_21" d="M513.199 512.54L440.185 439.526L367.171 512.54L440.185 585.555L513.199 512.54Z" stroke="#9EAA85" stroke-width="0.930255"/>
<path id="Vector_22" d="M658.789 366.072L585.775 293.058L512.761 366.072L585.775 439.087L658.789 366.072Z" stroke="#9EAA85" stroke-width="0.930255"/>
<path id="Vector_23" d="M804.819 512.102L731.805 439.088L658.791 512.102L731.805 585.117L804.819 512.102Z" stroke="#9EAA85" stroke-width="0.930255"/>
<path id="Vector_24" d="M658.571 658.35L585.557 585.336L512.543 658.35L585.557 731.365L658.571 658.35Z" stroke="#9EAA85" stroke-width="0.930255"/>
<path id="Vector_25" d="M512.541 804.38L439.527 731.366L366.513 804.38L439.527 877.395L512.541 804.38Z" stroke="#9EAA85" stroke-width="0.930255"/>
<path id="Vector_26" d="M439.745 147.029L366.731 74.0146L293.717 147.029L366.731 220.043L439.745 147.029Z" stroke="#9EAA85" stroke-width="0.930255"/>
<path id="Vector_27" d="M293.716 293.058L220.702 220.044L147.688 293.058L220.702 366.073L293.716 293.058Z" stroke="#9EAA85" stroke-width="0.930255"/>
<path id="Vector_28" d="M147.249 439.526L74.2344 366.512L1.21995 439.526L74.2344 512.541L147.249 439.526Z" stroke="#9EAA85" stroke-width="0.930255"/>
<path id="Vector_29" d="M293.716 585.994L220.702 512.98L147.688 585.994L220.702 659.009L293.716 585.994Z" stroke="#9EAA85" stroke-width="0.930255"/>
<path id="Vector_30" d="M440.184 439.526L367.17 366.512L294.156 439.526L367.17 512.541L440.184 439.526Z" stroke="#9EAA85" stroke-width="0.930255"/>
<path id="Vector_31" d="M585.775 293.058L512.761 220.044L439.747 293.058L512.761 366.073L585.775 293.058Z" stroke="#9EAA85" stroke-width="0.930255"/>
<path id="Vector_32" d="M731.804 439.087L658.79 366.073L585.776 439.087L658.79 512.102L731.804 439.087Z" stroke="#9EAA85" stroke-width="0.930255"/>
<path id="Vector_33" d="M658.571 512.321L585.557 439.307L512.543 512.321L585.557 585.336L658.571 512.321Z" stroke="#9EAA85" stroke-width="0.930255"/>
<path id="Vector_34" d="M512.322 658.57L439.308 585.556L366.294 658.57L439.308 731.585L512.322 658.57Z" stroke="#9EAA85" stroke-width="0.930255"/>
<path id="Vector_35" d="M585.555 585.336L512.541 512.322L439.527 585.336L512.541 658.351L585.555 585.336Z" stroke="#9EAA85" stroke-width="0.930255"/>
<path id="Vector_36" d="M439.526 731.365L366.512 658.351L293.498 731.365L366.512 804.38L439.526 731.365Z" stroke="#9EAA85" stroke-width="0.930255"/>
<path id="Vector_37" d="M476.363 329.675L440.185 293.497L404.007 329.675L440.185 365.854L476.363 329.675Z" stroke="#9EAA85" stroke-width="0.930255"/>
<path id="Vector_38" d="M476.363 329.675L440.185 293.497L404.007 329.675L440.185 365.854L476.363 329.675Z" stroke="#9EAA85" stroke-width="0.930255"/>
<path id="Vector_39" d="M403.129 402.909L366.951 366.731L330.773 402.909L366.951 439.088L403.129 402.909Z" stroke="#9EAA85" stroke-width="0.930255"/>
<path id="Vector_40" d="M548.939 402.251L512.761 366.073L476.583 402.251L512.761 438.43L548.939 402.251Z" stroke="#9EAA85" stroke-width="0.930255"/>
<path id="Vector_41" d="M476.801 402.47L440.623 366.292L404.445 402.47L440.623 438.649L476.801 402.47Z" stroke="#9EAA85" stroke-width="0.930255"/>
<path id="Vector_42" d="M402.691 475.704L366.513 439.526L330.335 475.704L366.513 511.883L402.691 475.704Z" stroke="#9EAA85" stroke-width="0.930255"/>
<path id="Vector_43" d="M548.939 474.608L512.761 438.43L476.583 474.608L512.761 510.787L548.939 474.608Z" stroke="#9EAA85" stroke-width="0.930255"/>
<path id="Vector_44" d="M512.541 365.854L476.363 329.676L440.185 365.854L476.363 402.033L512.541 365.854Z" stroke="#9EAA85" stroke-width="0.930255"/>
<path id="Vector_45" d="M439.965 439.745L403.787 403.567L367.609 439.745L403.787 475.924L439.965 439.745Z" stroke="#9EAA85" stroke-width="0.930255"/>
<path id="Vector_46" d="M585.117 438.429L548.939 402.251L512.761 438.429L548.939 474.608L585.117 438.429Z" stroke="#9EAA85" stroke-width="0.930255"/>
<path id="Vector_47" d="M475.924 476.143L439.746 439.965L403.568 476.143L439.746 512.322L475.924 476.143Z" stroke="#9EAA85" stroke-width="0.930255"/>
<path id="Vector_48" d="M512.249 512.175L476.071 475.997L439.893 512.175L476.071 548.354L512.249 512.175Z" stroke="#9EAA85" stroke-width="0.930255"/>
<path id="Vector_49" d="M475.046 549.377L438.868 513.199L402.69 549.377L438.868 585.556L475.046 549.377Z" stroke="#9EAA85" stroke-width="0.930255"/>
<path id="Vector_50" d="M439.745 512.321L403.567 476.143L367.389 512.321L403.567 548.5L439.745 512.321Z" stroke="#9EAA85" stroke-width="0.930255"/>
<path id="Vector_51" d="M220.702 659.009C341.798 780.105 538.132 780.105 659.228 659.009C780.324 537.913 780.324 341.579 659.228 220.483C538.132 99.3871 341.798 99.3871 220.702 220.483C99.6061 341.579 99.6061 537.913 220.702 659.009Z" stroke="#9EAA85" stroke-width="0.930255"/>
<path id="Vector_52" d="M439.746 439.964C500.293 500.512 598.461 500.512 659.008 439.964C719.556 379.417 719.556 281.249 659.008 220.702C598.461 160.154 500.293 160.154 439.746 220.702C379.198 281.249 379.198 379.417 439.746 439.964Z" stroke="#9EAA85" stroke-width="0.930255"/>
<path id="Vector_53" d="M220.483 659.227C281.03 719.775 379.198 719.775 439.745 659.227C500.293 598.68 500.293 500.512 439.745 439.965C379.198 379.417 281.03 379.417 220.483 439.965C159.935 500.512 159.935 598.68 220.483 659.227Z" stroke="#9EAA85" stroke-width="0.930255"/>
<path id="Vector_54" d="M439.089 658.569C499.636 719.117 597.804 719.117 658.351 658.569C718.899 598.022 718.899 499.854 658.351 439.307C597.804 378.759 499.636 378.759 439.089 439.307C378.541 499.854 378.541 598.022 439.089 658.569Z" stroke="#9EAA85" stroke-width="0.930255"/>
<path id="Vector_55" d="M220.483 439.964C281.03 500.512 379.198 500.512 439.745 439.964C500.293 379.417 500.293 281.249 439.745 220.702C379.198 160.154 281.03 160.154 220.483 220.702C159.935 281.249 159.935 379.417 220.483 439.964Z" stroke="#9EAA85" stroke-width="0.930255"/>
<rect id="green-rectangle-2" x="586.43" y="437.457" width="204.403" height="101.314" transform="rotate(-135.425 586.43 437.457)" stroke="#D0E6A4" stroke-opacity="0.3" stroke-width="4"/>
<rect id="green-rectangle-4" x="366.376" y="656.997" width="204.403" height="101.314" transform="rotate(-135.005 366.376 656.997)" stroke="#D0E6A4" stroke-opacity="0.3" stroke-width="4"/>
<rect id="green-rectangle-1" x="221.882" y="365.913" width="204.403" height="101.314" transform="rotate(-44.842 221.882 365.913)" stroke="#D0E6A4" stroke-opacity="0.3" stroke-width="4"/>
<rect id="green-rectangle-3" x="440.828" y="584.561" width="204.403" height="101.314" transform="rotate(-45.0784 440.828 584.561)" stroke="#D0E6A4" stroke-opacity="0.3" stroke-width="4"/>
</g>
<defs>
<clipPath id="clip0_1_2">
<rect width="878" height="879" fill="white"/>
</clipPath>
</defs>
</svg>
