<svg width="4250" height="4250" viewBox="0 0 4250 4250" fill="none" xmlns="http://www.w3.org/2000/svg">
<g id="Clip path group">
<mask id="mask0_1_42" style="mask-type:luminance" maskUnits="userSpaceOnUse" x="0" y="0" width="4250" height="4250">
<g id="clip0_761_2069">
<path id="Vector" d="M4249.72 2124.86L2124.86 0L0.00426632 2124.86L2124.86 4249.71L4249.72 2124.86Z" fill="white"/>
</g>
</mask>
<g mask="url(#mask0_1_42)">
<g id="Group">
<path id="Vector_2" d="M3894.39 1769.53L1773.07 3890.85" stroke="#9EAA85" stroke-width="5"/>
<path id="Vector_3" d="M3540.84 1415.98L1419.52 3537.3" stroke="#9EAA85" stroke-width="5"/>
<path id="Vector_4" d="M3187.28 1062.43L1065.96 3183.75" stroke="#9EAA85" stroke-width="5"/>
<path id="Vector_5" d="M2833.73 708.875L712.408 2830.19" stroke="#9EAA85" stroke-width="5"/>
<path id="Vector_6" d="M2480.18 355.321L358.857 2476.64" stroke="#9EAA85" stroke-width="5"/>
<path id="Vector_7" d="M2126.62 1.76782L5.30249 2123.09" stroke="#9EAA85" stroke-width="5"/>
<path id="Vector_8" d="M4247.94 2123.09L2126.62 4244.41" stroke="#9EAA85" stroke-width="5"/>
<path id="Vector_9" d="M1769.53 355.321L3890.85 2476.64" stroke="#9EAA85" stroke-width="5"/>
<path id="Vector_10" d="M1415.98 708.875L3537.3 2830.19" stroke="#9EAA85" stroke-width="5"/>
<path id="Vector_11" d="M1062.43 1062.43L3183.75 3183.75" stroke="#9EAA85" stroke-width="5"/>
<path id="Vector_12" d="M708.873 1415.98L2830.19 3537.3" stroke="#9EAA85" stroke-width="5"/>
<path id="Vector_13" d="M355.322 1769.53L2476.64 3890.85" stroke="#9EAA85" stroke-width="5"/>
<path id="Vector_14" d="M1.76758 2123.09L2123.09 4244.41" stroke="#9EAA85" stroke-width="5"/>
<path id="Vector_15" d="M2123.09 1.7677L4244.41 2123.09" stroke="#9EAA85" stroke-width="5"/>
<path id="Vector_16" d="M1948.43 1587.81L2655.54 2294.92" stroke="#9EAA85" stroke-width="5"/>
<path id="Vector_17" d="M1594.88 1941.36L2301.99 2648.47" stroke="#9EAA85" stroke-width="5"/>
<path id="Vector_18" d="M1592.76 2296.33L2299.87 1589.22" stroke="#9EAA85" stroke-width="5"/>
<path id="Vector_19" d="M1946.31 2649.88L2653.42 1942.78" stroke="#9EAA85" stroke-width="5"/>
<path id="Vector_20" d="M1064.2 2121.32C1357.09 2414.21 1831.97 2414.21 2124.86 2121.32C2417.75 1828.43 2417.75 1353.55 2124.86 1060.66C1831.97 767.767 1357.09 767.767 1064.2 1060.66C771.306 1353.55 771.306 1828.43 1064.2 2121.32Z" stroke="#9EAA85" stroke-width="5"/>
<path id="Vector_21" d="M2125.56 3182.69C2418.45 3475.58 2893.33 3475.58 3186.22 3182.69C3479.11 2889.8 3479.11 2414.92 3186.22 2122.03C2893.33 1829.14 2418.45 1829.14 2125.56 2122.03C1832.67 2414.92 1832.67 2889.8 2125.56 3182.69Z" stroke="#9EAA85" stroke-width="5"/>
<path id="Vector_22" d="M1062.78 3180.57C1648.57 3766.36 2598.31 3766.36 3184.1 3180.57C3769.89 2594.78 3769.89 1645.04 3184.1 1059.25C2598.31 473.463 1648.57 473.463 1062.78 1059.25C476.993 1645.04 476.993 2594.78 1062.78 3180.57Z" stroke="#9EAA85" stroke-width="5"/>
<path id="Vector_23" d="M2124.86 2121.32C2417.75 2414.21 2892.63 2414.21 3185.52 2121.32C3478.41 1828.43 3478.41 1353.55 3185.52 1060.66C2892.63 767.767 2417.75 767.767 2124.86 1060.66C1831.97 1353.55 1831.97 1828.43 2124.86 2121.32Z" stroke="#9EAA85" stroke-width="5"/>
<path id="Vector_24" d="M1064.2 3181.98C1357.09 3474.87 1831.97 3474.87 2124.86 3181.98C2417.75 2889.09 2417.75 2414.21 2124.86 2121.32C1831.97 1828.43 1357.09 1828.43 1064.2 2121.32C771.307 2414.21 771.307 2889.09 1064.2 3181.98Z" stroke="#9EAA85" stroke-width="5"/>
<path id="Vector_25" d="M2124.47 3.35604L1417.36 710.463L2124.47 1417.57L2831.57 710.463L2124.47 3.35604Z" stroke="#9EAA85" stroke-width="5"/>
<path id="Vector_26" d="M2124.47 1417.25L1417.36 2124.36L2124.47 2831.47L2831.57 2124.36L2124.47 1417.25Z" stroke="#9EAA85" stroke-width="5"/>
<path id="Vector_27" d="M710.466 1417.56L3.35913 2124.67L710.466 2831.78L1417.57 2124.67L710.466 1417.56Z" stroke="#9EAA85" stroke-width="5"/>
<path id="Vector_28" d="M1417.47 2125.35L710.359 2832.46L1417.47 3539.57L2124.57 2832.46L1417.47 2125.35Z" stroke="#9EAA85" stroke-width="5"/>
<path id="Vector_29" d="M2831.47 2125.35L2124.36 2832.46L2831.47 3539.57L3538.57 2832.46L2831.47 2125.35Z" stroke="#9EAA85" stroke-width="5"/>
<path id="Vector_30" d="M2477.68 1772.57L1770.57 2479.68L2477.68 3186.79L3184.78 2479.68L2477.68 1772.57Z" stroke="#9EAA85" stroke-width="5"/>
<path id="Vector_31" d="M1768.47 1063.35L1061.36 1770.46L1768.47 2477.57L2475.57 1770.46L1768.47 1063.35Z" stroke="#9EAA85" stroke-width="5"/>
<path id="Vector_32" d="M2477.68 1063.35L1770.57 1770.46L2477.68 2477.57L3184.78 1770.46L2477.68 1063.35Z" stroke="#9EAA85" stroke-width="5"/>
<path id="Vector_33" d="M1768.47 1772.57L1061.36 2479.68L1768.47 3186.79L2475.57 2479.68L1768.47 1772.57Z" stroke="#9EAA85" stroke-width="5"/>
<g id="talent 1">
<g id="Group 4">
<path id="sq-4" d="M2479.68 1772.57L1772.57 2479.68L2479.68 3186.79L3186.78 2479.68L2479.68 1772.57Z" stroke="#61E7CD" stroke-width="15"/>
<path id="text-4" d="M1482.54 2583.03L1520.96 2545.97L1508.37 2532.91L1515.14 2526.38L1548.06 2560.52L1541.29 2567.05L1528.69 2553.99L1490.27 2591.04L1482.54 2583.03ZM1517.87 2621.32C1514.85 2618.19 1512.81 2614.69 1511.75 2610.82C1510.73 2606.91 1510.83 2602.95 1512.03 2598.95C1513.28 2594.9 1515.77 2591.07 1519.5 2587.47C1523.19 2583.92 1527.08 2581.59 1531.17 2580.49C1535.31 2579.43 1539.25 2579.41 1542.99 2580.43C1546.73 2581.45 1549.86 2583.27 1552.39 2585.9C1555.37 2588.98 1557.17 2592.23 1557.78 2595.63C1558.45 2599 1558.07 2602.38 1556.65 2605.8C1555.27 2609.17 1553 2612.39 1549.82 2615.45C1548.16 2617.05 1546.76 2618.18 1545.62 2618.84L1524.83 2597.28C1522.19 2600.53 1520.9 2603.86 1520.98 2607.26C1521.05 2610.65 1522.4 2613.71 1525.02 2616.43C1526.44 2617.9 1527.96 2619.06 1529.57 2619.9C1531.28 2620.75 1533.12 2621.42 1535.11 2621.91L1532.73 2629.4C1530.11 2628.81 1527.51 2627.86 1524.9 2626.54C1522.3 2625.23 1519.96 2623.49 1517.87 2621.32ZM1530.15 2592.01L1544.68 2607.07C1547.3 2604.54 1548.8 2601.99 1549.16 2599.42C1549.57 2596.8 1548.66 2594.34 1546.44 2592.03C1544.53 2590.05 1542.08 2588.99 1539.1 2588.85C1536.21 2588.7 1533.22 2589.76 1530.15 2592.01ZM1546.78 2651.3C1544.56 2649 1542.78 2646.27 1541.43 2643.12C1540.13 2639.93 1539.35 2636.86 1539.09 2633.92L1547.8 2632.72C1548.11 2635.35 1548.66 2637.76 1549.43 2639.94C1550.21 2642.13 1551.42 2644.07 1553.06 2645.78C1554.84 2647.62 1556.54 2648.6 1558.17 2648.72C1559.79 2648.84 1561.18 2648.35 1562.33 2647.24C1563.3 2646.3 1563.73 2645.18 1563.62 2643.87C1563.6 2642.55 1563.28 2641.12 1562.68 2639.57C1562.12 2637.98 1561.49 2636.36 1560.8 2634.72C1559.93 2632.71 1559.17 2630.59 1558.54 2628.36C1557.99 2626.13 1557.89 2623.96 1558.25 2621.84C1558.65 2619.67 1559.79 2617.68 1561.68 2615.86C1564.68 2612.97 1568.18 2611.72 1572.21 2612.11C1576.23 2612.5 1580.06 2614.59 1583.7 2618.36C1586.01 2620.76 1587.66 2623.3 1588.66 2625.99C1589.65 2628.68 1590.28 2631.22 1590.55 2633.63L1582.18 2634.63C1581.91 2632.59 1581.42 2630.7 1580.73 2628.97C1580.12 2627.24 1579.18 2625.7 1577.89 2624.37C1576.25 2622.66 1574.66 2621.75 1573.12 2621.63C1571.63 2621.47 1570.35 2621.9 1569.29 2622.92C1567.96 2624.21 1567.61 2625.88 1568.25 2627.93C1568.89 2629.98 1569.78 2632.23 1570.91 2634.7C1571.87 2636.8 1572.65 2638.98 1573.24 2641.26C1573.88 2643.49 1574.02 2645.71 1573.66 2647.92C1573.35 2650.18 1572.13 2652.33 1570.01 2654.37C1567.11 2657.17 1563.53 2658.44 1559.28 2658.18C1555.08 2657.88 1550.91 2655.58 1546.78 2651.3ZM1576.58 2682.2C1572.8 2678.28 1571.24 2674.41 1571.9 2670.57C1572.65 2666.74 1574.84 2663.07 1578.48 2659.56L1594.65 2643.96L1589.99 2639.13L1595.93 2633.39L1601.34 2638.31L1611.53 2630.35L1617.93 2636.99L1608.67 2645.91L1617 2654.55L1610.71 2660.62L1602.38 2651.98L1586.21 2667.57C1582.25 2671.39 1581.8 2674.89 1584.87 2678.07C1585.45 2678.67 1586.11 2679.23 1586.87 2679.74C1587.68 2680.2 1588.4 2680.58 1589.03 2680.86L1584.49 2687.91C1583.27 2687.3 1581.98 2686.51 1580.59 2685.53C1579.2 2684.65 1577.87 2683.53 1576.58 2682.2ZM1589.96 2694.41L1623.89 2661.69L1631.55 2669.64L1597.62 2702.36L1589.96 2694.41ZM1633.69 2659.97C1632.32 2658.54 1631.62 2656.99 1631.61 2655.32C1631.59 2653.64 1632.28 2652.14 1633.66 2650.8C1634.99 2649.52 1636.5 2648.91 1638.17 2648.98C1639.84 2649.06 1641.37 2649.81 1642.75 2651.24C1644.12 2652.67 1644.82 2654.22 1644.84 2655.89C1644.85 2657.57 1644.19 2659.05 1642.85 2660.34C1641.47 2661.67 1639.94 2662.3 1638.27 2662.23C1636.6 2662.15 1635.07 2661.4 1633.69 2659.97ZM1607.4 2712.5L1641.33 2679.78L1647.66 2686.34L1643.63 2691.29L1643.9 2691.57C1646.84 2691.67 1649.7 2692.11 1652.5 2692.88C1655.29 2693.66 1657.79 2695.19 1660.02 2697.5C1663.53 2701.14 1664.91 2704.92 1664.16 2708.84C1663.41 2712.77 1660.89 2716.8 1656.6 2720.93L1635.32 2741.45L1627.66 2733.51L1647.9 2713.98C1650.71 2711.27 1652.29 2708.95 1652.65 2707.01C1653 2705.07 1652.26 2703.15 1650.44 2701.26C1649.02 2699.79 1647.39 2698.83 1645.54 2698.39C1643.78 2697.95 1641.52 2697.68 1638.76 2697.59L1615.06 2720.45L1607.4 2712.5ZM1641.09 2777.44C1638.51 2774.77 1636.5 2772.04 1635.06 2769.25C1633.66 2766.51 1633.03 2763.88 1633.16 2761.34C1633.3 2758.9 1634.36 2756.73 1636.34 2754.82C1639.15 2752.11 1643.12 2751.39 1648.26 2752.66L1648.54 2752.39C1648.24 2750.98 1648.27 2749.53 1648.61 2748.05C1649 2746.61 1649.89 2745.22 1651.27 2743.89C1652.61 2742.6 1654.16 2741.81 1655.93 2741.53C1657.79 2741.24 1659.53 2741.25 1661.16 2741.55L1661.43 2741.29C1661.2 2739.29 1661.42 2737.08 1662.1 2734.64C1662.82 2732.26 1664.17 2730.11 1666.15 2728.2C1668.78 2725.67 1671.59 2724.16 1674.58 2723.67C1677.58 2723.18 1680.52 2723.5 1683.39 2724.64C1686.36 2725.78 1688.98 2727.53 1691.24 2729.88C1692.13 2730.8 1692.88 2731.76 1693.5 2732.77C1694.2 2733.78 1694.77 2734.74 1695.21 2735.65L1706.94 2747.81L1701.07 2753.48L1695.07 2747.26C1694.96 2748.43 1694.57 2749.7 1693.91 2751.04C1693.3 2752.34 1692.4 2753.57 1691.2 2754.73C1688.71 2757.13 1686.04 2758.59 1683.17 2759.13C1680.36 2759.62 1677.58 2759.32 1674.84 2758.23C1672.1 2757.14 1669.57 2755.4 1667.26 2753C1666.55 2752.26 1665.89 2751.44 1665.27 2750.52C1664.65 2749.6 1664.13 2748.6 1663.7 2747.51C1662.75 2747.44 1661.89 2747.47 1661.11 2747.59C1660.39 2747.76 1659.63 2748.22 1658.85 2748.98C1657.88 2749.91 1657.5 2751.04 1657.7 2752.35C1657.95 2753.72 1659.07 2755.43 1661.07 2757.51L1666.87 2763.52C1670.82 2767.62 1673.13 2771.35 1673.79 2774.71C1674.55 2778.07 1673.45 2781.18 1670.5 2784.02C1668.29 2786.15 1665.58 2787.35 1662.36 2787.61C1659.09 2787.91 1655.62 2787.21 1651.94 2785.52C1648.26 2783.82 1644.64 2781.13 1641.09 2777.44ZM1672.24 2748.2C1673.79 2749.82 1675.72 2750.62 1678.03 2750.62C1680.34 2750.61 1682.58 2749.57 1684.74 2747.48C1686.86 2745.44 1687.94 2743.28 1687.98 2741.02C1688.12 2738.76 1687.38 2736.8 1685.78 2735.14C1684.18 2733.48 1682.25 2732.63 1679.99 2732.59C1677.73 2732.55 1675.51 2733.58 1673.35 2735.66C1671.18 2737.75 1670.06 2739.95 1669.97 2742.26C1669.88 2744.56 1670.64 2746.55 1672.24 2748.2ZM1647.47 2773.69C1650.09 2776.41 1652.78 2778.09 1655.53 2778.72C1658.28 2779.36 1660.36 2778.99 1661.79 2777.62C1663.13 2776.33 1663.52 2774.93 1662.95 2773.43C1662.44 2771.97 1661.25 2770.27 1659.38 2768.34L1654.92 2763.71C1653.14 2761.87 1651.81 2760.17 1650.93 2758.61C1647.91 2758.15 1645.57 2758.72 1643.91 2760.32C1642.39 2761.78 1641.97 2763.7 1642.65 2766.07C1643.29 2768.48 1644.89 2771.02 1647.47 2773.69Z" fill="#61E7CD"/>
</g>
<g id="Group 2">
<path id="text-2" d="M2573.17 1536.43L2616.43 1490.94L2628.61 1502.51C2635.56 1509.13 2639.2 1516.17 2639.53 1523.63C2639.85 1531.09 2636.44 1538.58 2629.3 1546.09C2622.11 1553.65 2614.74 1557.55 2607.18 1557.78C2599.67 1557.97 2592.53 1554.85 2585.76 1548.41L2573.17 1536.43ZM2587.46 1537.57L2591 1540.94C2595.6 1545.31 2600.4 1547.36 2605.42 1547.1C2610.48 1546.79 2615.68 1543.83 2621.02 1538.22C2626.31 1532.65 2628.92 1527.41 2628.84 1522.47C2628.76 1517.54 2626.42 1512.89 2621.83 1508.52L2618.28 1505.15L2587.46 1537.57ZM2623.44 1585.83C2620.47 1583 2618.92 1579.76 2618.78 1576.1C2618.69 1572.48 2620.05 1569.18 2622.88 1566.22C2626.36 1562.55 2630.65 1561.25 2635.75 1562.29C2640.89 1563.3 2647.31 1566.76 2655.02 1572.67C2656.69 1570.82 2657.68 1568.8 2657.99 1566.62C2658.39 1564.44 2657.43 1562.25 2655.11 1560.04C2653.44 1558.45 2651.49 1557.21 2649.24 1556.32C2647.05 1555.47 2644.75 1554.78 2642.33 1554.25L2644.51 1546.12C2647.55 1546.72 2650.68 1547.7 2653.88 1549.07C2657.13 1550.48 2660.1 1552.47 2662.79 1555.03C2667.06 1559.08 2669.02 1563.38 2668.69 1567.92C2668.44 1572.45 2666.04 1577.11 2661.5 1581.88L2642.25 1602.13L2635.64 1595.84L2638.65 1591.56L2638.38 1591.29C2635.61 1591.13 2632.93 1590.66 2630.33 1589.86C2627.77 1589.11 2625.48 1587.77 2623.44 1585.83ZM2631.96 1582.01C2633.36 1583.34 2634.92 1584.2 2636.65 1584.61C2638.47 1585.02 2640.58 1585.26 2642.98 1585.34L2650.26 1577.68C2645.05 1573.88 2640.96 1571.71 2638.01 1571.2C2635.1 1570.64 2632.82 1571.22 2631.19 1572.93C2629.74 1574.46 2629.14 1576.02 2629.41 1577.6C2629.67 1579.17 2630.53 1580.65 2631.96 1582.01ZM2661.98 1622.48C2658.03 1618.73 2656.31 1614.92 2656.8 1611.06C2657.38 1607.2 2659.42 1603.44 2662.9 1599.77L2678.38 1583.49L2673.51 1578.86L2679.2 1572.88L2684.82 1577.56L2694.66 1569.17L2701.33 1575.52L2692.47 1584.84L2701.17 1593.11L2695.15 1599.44L2686.45 1591.17L2670.97 1607.45C2667.18 1611.44 2666.88 1614.95 2670.08 1617.99C2670.68 1618.57 2671.38 1619.09 2672.16 1619.57C2672.98 1620 2673.72 1620.35 2674.36 1620.6L2670.12 1627.84C2668.89 1627.28 2667.56 1626.55 2666.13 1625.63C2664.71 1624.81 2663.32 1623.76 2661.98 1622.48ZM2681.86 1641.39C2678.89 1638.56 2677.34 1635.32 2677.2 1631.66C2677.11 1628.04 2678.48 1624.74 2681.3 1621.78C2684.78 1618.11 2689.08 1616.8 2694.17 1617.85C2699.31 1618.86 2705.74 1622.32 2713.45 1628.23C2715.12 1626.38 2716.11 1624.36 2716.42 1622.18C2716.81 1620 2715.85 1617.81 2713.54 1615.6C2711.87 1614.01 2709.91 1612.77 2707.67 1611.88C2705.48 1611.03 2703.17 1610.34 2700.76 1609.81L2702.93 1601.68C2705.98 1602.28 2709.11 1603.26 2712.31 1604.63C2715.56 1606.04 2718.53 1608.03 2721.22 1610.59C2725.49 1614.64 2727.45 1618.94 2727.11 1623.48C2726.86 1628.01 2724.47 1632.66 2719.92 1637.44L2700.67 1657.69L2694.06 1651.4L2697.08 1647.11L2696.8 1646.85C2694.04 1646.69 2691.35 1646.22 2688.75 1645.42C2686.2 1644.67 2683.9 1643.33 2681.86 1641.39ZM2690.39 1637.57C2691.78 1638.9 2693.34 1639.76 2695.07 1640.17C2696.89 1640.58 2699 1640.82 2701.41 1640.89L2708.68 1633.24C2703.47 1629.44 2699.39 1627.27 2696.43 1626.76C2693.52 1626.2 2691.25 1626.78 2689.62 1628.49C2688.16 1630.02 2687.57 1631.58 2687.83 1633.16C2688.1 1634.73 2688.95 1636.21 2690.39 1637.57Z" fill="#61E7CD"/>
<path id="sq-2" d="M1770.46 1063.35L1063.35 1770.46L1770.46 2477.57L2477.57 1770.46L1770.46 1063.35Z" stroke="#61E7CD" stroke-width="15"/>
</g>
<g id="Group 3">
<path id="text-3" d="M2573.43 2795.14C2570.36 2798.04 2566.83 2800.28 2562.85 2801.84C2558.91 2803.36 2554.84 2804.08 2550.63 2804.01L2550.16 2794.01C2553.24 2794.01 2556.29 2793.51 2559.31 2792.5C2562.28 2791.46 2564.81 2789.94 2566.9 2787.96C2569.51 2785.5 2570.98 2783.1 2571.32 2780.75C2571.65 2778.41 2570.99 2776.35 2569.32 2774.59C2567.51 2772.68 2565.54 2771.94 2563.4 2772.38C2561.31 2772.78 2558.82 2773.5 2555.94 2774.55L2547.09 2777.77C2544.98 2778.52 2542.73 2779.07 2540.32 2779.41C2537.96 2779.71 2535.56 2779.5 2533.14 2778.8C2530.76 2778.06 2528.51 2776.57 2526.4 2774.33C2524.12 2771.92 2522.72 2769.14 2522.22 2766C2521.72 2762.77 2522.09 2759.52 2523.31 2756.25C2524.54 2752.89 2526.64 2749.8 2529.61 2746.99C2532.26 2744.48 2535.33 2742.6 2538.8 2741.34C2542.24 2740.03 2545.67 2739.43 2549.11 2739.52L2549.87 2748.58C2547.29 2748.73 2544.85 2749.23 2542.57 2750.07C2540.33 2750.87 2538.23 2752.19 2536.28 2754.03C2534.14 2756.06 2532.85 2758.19 2532.43 2760.45C2532.01 2762.61 2532.59 2764.53 2534.17 2766.2C2535.27 2767.36 2536.52 2768.03 2537.92 2768.21C2539.32 2768.29 2540.84 2768.08 2542.48 2767.59C2544.08 2767.04 2545.75 2766.43 2547.49 2765.76L2556.14 2762.47C2559.94 2761.08 2563.6 2760.53 2567.12 2760.81C2570.6 2761.04 2573.9 2762.81 2577.02 2766.11C2579.35 2768.57 2580.83 2771.44 2581.47 2774.72C2582.1 2778 2581.78 2781.43 2580.5 2785.02C2579.23 2788.51 2576.87 2791.89 2573.43 2795.14ZM2611.44 2759.2C2608.6 2761.88 2605.29 2763.69 2601.51 2764.63C2597.68 2765.51 2593.74 2765.36 2589.7 2764.16C2585.62 2762.91 2581.79 2760.41 2578.23 2756.64C2574.63 2752.83 2572.34 2748.87 2571.37 2744.77C2570.35 2740.62 2570.42 2736.68 2571.56 2732.96C2572.66 2729.19 2574.63 2725.96 2577.47 2723.28C2580.35 2720.55 2583.71 2718.74 2587.54 2717.85C2591.32 2716.92 2595.25 2717.07 2599.34 2718.32C2603.38 2719.52 2607.2 2722.03 2610.81 2725.84C2614.37 2729.61 2616.66 2733.56 2617.67 2737.71C2618.65 2741.81 2618.58 2745.75 2617.48 2749.52C2616.33 2753.25 2614.32 2756.47 2611.44 2759.2ZM2605.24 2752.64C2607.75 2750.27 2608.73 2747.35 2608.2 2743.9C2607.66 2740.44 2605.79 2737.02 2602.58 2733.62C2599.32 2730.18 2595.99 2728.09 2592.57 2727.37C2589.15 2726.64 2586.18 2727.46 2583.67 2729.83C2581.16 2732.21 2580.17 2735.12 2580.71 2738.58C2581.29 2741.99 2583.21 2745.42 2586.46 2748.86C2589.67 2752.25 2592.97 2754.34 2596.34 2755.11C2599.76 2755.84 2602.73 2755.02 2605.24 2752.64ZM2636.03 2734.36L2609.65 2706.46L2605.04 2710.81L2599.37 2704.81L2603.65 2700.11L2600.28 2696.55C2596.9 2692.97 2595.01 2689.21 2594.62 2685.26C2594.19 2681.26 2596 2677.35 2600.04 2673.52C2601.25 2672.38 2602.52 2671.4 2603.86 2670.58C2605.2 2669.75 2606.39 2669.15 2607.44 2668.77L2611.58 2676.22C2609.8 2676.85 2608.28 2677.76 2607.02 2678.95C2604.14 2681.67 2604.52 2684.97 2608.17 2688.83L2611.67 2692.52L2623.46 2681.38L2615.59 2671.11L2622.22 2664.84L2631.06 2674.19L2639.85 2665.88L2645.85 2672.23L2637.06 2680.54L2652.49 2696.86C2656.28 2700.86 2659.79 2701.32 2663.05 2698.24C2663.65 2697.67 2664.22 2697.01 2664.74 2696.25C2665.21 2695.45 2665.59 2694.74 2665.88 2694.11L2672.88 2698.72C2672.26 2699.92 2671.46 2701.21 2670.47 2702.59C2669.57 2703.97 2668.42 2705.32 2667.03 2706.64C2663.07 2710.37 2659.21 2711.87 2655.42 2711.13C2651.6 2710.35 2647.95 2708.12 2644.47 2704.44L2629.04 2688.12L2617.67 2698.87L2644.05 2726.77L2636.03 2734.36ZM2685.04 2688.02L2643.59 2662.34L2651.68 2654.69L2672.61 2668.59C2674.52 2669.86 2676.37 2671.21 2678.14 2672.61C2679.95 2673.98 2681.82 2675.34 2683.73 2676.71L2684.01 2676.44C2682.75 2674.46 2681.51 2672.5 2680.3 2670.57C2679.09 2668.54 2677.94 2666.54 2676.87 2664.56L2664.51 2642.56L2671.84 2635.63L2693.19 2649.13C2695.15 2650.36 2697.08 2651.62 2698.99 2652.89C2700.9 2654.17 2702.84 2655.47 2704.79 2656.79L2705.07 2656.53C2703.81 2654.54 2702.56 2652.61 2701.3 2650.72C2700.04 2648.82 2698.8 2646.91 2697.59 2644.98L2684.88 2623.3L2692.42 2616.17L2716.08 2658.67L2706.52 2667.7L2687.44 2655.49C2685.53 2654.21 2683.67 2652.94 2681.85 2651.67C2679.98 2650.35 2678.01 2648.95 2675.92 2647.49L2675.64 2647.76C2677.03 2649.88 2678.33 2651.91 2679.54 2653.84C2680.76 2655.78 2681.95 2657.73 2683.12 2659.71L2694.25 2679.31L2685.04 2688.02ZM2739.98 2637.65C2737 2640.47 2733.68 2641.85 2730.02 2641.79C2726.4 2641.69 2723.18 2640.15 2720.37 2637.17C2716.89 2633.5 2715.82 2629.15 2717.13 2624.11C2718.41 2619.03 2722.2 2612.8 2728.52 2605.42C2726.76 2603.65 2724.8 2602.55 2722.64 2602.13C2720.48 2601.61 2718.24 2602.46 2715.91 2604.66C2714.24 2606.24 2712.9 2608.13 2711.88 2610.32C2710.92 2612.46 2710.11 2614.72 2709.45 2617.11L2701.44 2614.5C2702.21 2611.49 2703.36 2608.42 2704.89 2605.3C2706.48 2602.13 2708.62 2599.27 2711.31 2596.72C2715.59 2592.67 2719.99 2590.94 2724.5 2591.52C2729.01 2592.01 2733.53 2594.65 2738.06 2599.44L2757.26 2619.73L2750.63 2626L2746.51 2622.76L2746.23 2623.02C2745.93 2625.78 2745.31 2628.43 2744.38 2630.99C2743.49 2633.5 2742.03 2635.72 2739.98 2637.65ZM2736.63 2628.94C2738.02 2627.62 2738.97 2626.1 2739.47 2624.4C2739.97 2622.6 2740.32 2620.51 2740.53 2618.11L2733.27 2610.44C2729.19 2615.44 2726.82 2619.4 2726.15 2622.33C2725.43 2625.2 2725.89 2627.5 2727.52 2629.22C2728.97 2630.76 2730.49 2631.43 2732.08 2631.25C2733.67 2631.07 2735.18 2630.3 2736.63 2628.94ZM2766.86 2610.66L2734.47 2576.41L2741.1 2570.14L2747.39 2575.68L2747.67 2575.42C2746.77 2572.04 2746.63 2568.96 2747.25 2566.17C2747.83 2563.33 2749.03 2561.06 2750.84 2559.34C2752.47 2557.81 2753.99 2556.81 2755.4 2556.35L2760.61 2564.64C2759.82 2565.03 2759.13 2565.42 2758.54 2565.81C2757.94 2566.2 2757.26 2566.75 2756.52 2567.45C2755.17 2568.72 2754.26 2570.6 2753.78 2573.08C2753.26 2575.51 2753.7 2578.53 2755.09 2582.15L2774.88 2603.07L2766.86 2610.66ZM2807.64 2573.68C2804.47 2576.67 2800.95 2578.68 2797.08 2579.7C2793.16 2580.68 2789.2 2580.55 2785.2 2579.3C2781.17 2578.01 2777.37 2575.48 2773.8 2571.72C2770.29 2568 2768 2564.08 2766.93 2559.98C2765.92 2555.83 2765.94 2551.89 2766.99 2548.17C2768.05 2544.44 2769.9 2541.32 2772.55 2538.81C2775.67 2535.87 2778.93 2534.1 2782.34 2533.52C2785.71 2532.89 2789.09 2533.3 2792.5 2534.75C2795.85 2536.16 2799.05 2538.47 2802.08 2541.68C2803.66 2543.35 2804.78 2544.76 2805.42 2545.91L2783.66 2566.49C2786.89 2569.16 2790.21 2570.48 2793.6 2570.44C2797 2570.4 2800.07 2569.08 2802.81 2566.48C2804.3 2565.08 2805.47 2563.57 2806.33 2561.96C2807.2 2560.27 2807.88 2558.43 2808.39 2556.45L2815.86 2558.9C2815.24 2561.51 2814.26 2564.11 2812.92 2566.7C2811.58 2569.29 2809.82 2571.62 2807.64 2573.68ZM2778.45 2561.12L2793.65 2546.74C2791.15 2544.09 2788.61 2542.57 2786.04 2542.18C2783.43 2541.74 2780.96 2542.63 2778.63 2544.82C2776.63 2546.71 2775.55 2549.15 2775.37 2552.13C2775.2 2555.03 2776.22 2558.02 2778.45 2561.12Z" fill="#61E7CD"/>
<path id="sq-3" d="M2479.68 1063.35L1772.57 1770.46L2479.68 2477.57L3186.78 1770.46L2479.68 1063.35Z" stroke="#61E7CD" stroke-width="15"/>
</g>
<g id="Group 1">
<path id="text-1" d="M1382.54 1853.5C1379.11 1856.86 1375.45 1859.11 1371.55 1860.26C1367.65 1861.4 1363.51 1861.16 1359.13 1859.53C1354.8 1857.87 1350.24 1854.59 1345.44 1849.71L1320.75 1824.57L1328.69 1816.77L1353.99 1842.52C1357.17 1845.76 1360.07 1847.98 1362.69 1849.18C1365.3 1850.29 1367.7 1850.58 1369.87 1850.06C1372.01 1849.49 1373.96 1848.33 1375.74 1846.58C1377.57 1844.79 1378.79 1842.83 1379.39 1840.71C1380 1838.49 1379.77 1836.07 1378.71 1833.44C1377.65 1830.71 1375.53 1827.73 1372.34 1824.49L1347.05 1798.74L1354.65 1791.27L1379.34 1816.4C1384.14 1821.29 1387.33 1825.91 1388.92 1830.27C1390.51 1834.63 1390.7 1838.75 1389.49 1842.63C1388.33 1846.47 1386.01 1850.09 1382.54 1853.5ZM1418.93 1817.75C1416.65 1819.99 1413.94 1821.8 1410.8 1823.17C1407.62 1824.5 1404.56 1825.31 1401.62 1825.6L1400.34 1816.9C1402.97 1816.56 1405.37 1816 1407.55 1815.2C1409.73 1814.41 1411.66 1813.18 1413.35 1811.52C1415.18 1809.72 1416.14 1808.01 1416.25 1806.39C1416.35 1804.76 1415.85 1803.37 1414.72 1802.23C1413.78 1801.27 1412.65 1800.85 1411.34 1800.98C1410.03 1801.01 1408.6 1801.34 1407.06 1801.96C1405.47 1802.53 1403.85 1803.17 1402.22 1803.88C1400.22 1804.77 1398.11 1805.55 1395.88 1806.2C1393.66 1806.77 1391.49 1806.89 1389.36 1806.55C1387.2 1806.17 1385.19 1805.05 1383.35 1803.17C1380.44 1800.21 1379.16 1796.71 1379.51 1792.69C1379.86 1788.66 1381.91 1784.81 1385.65 1781.13C1388.03 1778.8 1390.55 1777.12 1393.23 1776.11C1395.91 1775.09 1398.45 1774.43 1400.85 1774.14L1401.93 1782.5C1399.89 1782.8 1398.01 1783.3 1396.29 1784.01C1394.56 1784.63 1393.04 1785.59 1391.71 1786.89C1390.02 1788.55 1389.13 1790.15 1389.02 1791.68C1388.87 1793.18 1389.31 1794.45 1390.35 1795.5C1391.65 1796.82 1393.32 1797.15 1395.36 1796.49C1397.4 1795.83 1399.65 1794.92 1402.1 1793.77C1404.2 1792.79 1406.37 1792 1408.64 1791.38C1410.87 1790.72 1413.09 1790.56 1415.3 1790.9C1417.56 1791.19 1419.72 1792.39 1421.78 1794.49C1424.61 1797.36 1425.91 1800.93 1425.7 1805.18C1425.43 1809.39 1423.18 1813.57 1418.93 1817.75ZM1453.42 1783.86C1450.32 1786.91 1446.84 1788.98 1442.98 1790.08C1439.08 1791.13 1435.12 1791.08 1431.1 1789.91C1427.04 1788.7 1423.19 1786.24 1419.56 1782.54C1415.97 1778.89 1413.61 1775.02 1412.47 1770.94C1411.37 1766.81 1411.32 1762.87 1412.3 1759.12C1413.28 1755.38 1415.08 1752.23 1417.68 1749.67C1420.74 1746.66 1423.97 1744.84 1427.37 1744.19C1430.72 1743.49 1434.11 1743.84 1437.54 1745.23C1440.92 1746.57 1444.16 1748.82 1447.26 1751.97C1448.87 1753.61 1450.01 1755 1450.68 1756.14L1429.32 1777.13C1432.6 1779.74 1435.93 1780.99 1439.33 1780.88C1442.72 1780.78 1445.77 1779.4 1448.46 1776.76C1449.92 1775.32 1451.07 1773.79 1451.9 1772.17C1452.73 1770.46 1453.38 1768.61 1453.85 1766.62L1461.36 1768.93C1460.8 1771.55 1459.87 1774.17 1458.58 1776.78C1457.29 1779.39 1455.57 1781.75 1453.42 1783.86ZM1424 1771.86L1438.93 1757.19C1436.37 1754.59 1433.81 1753.12 1431.23 1752.78C1428.61 1752.39 1426.16 1753.32 1423.87 1755.56C1421.91 1757.49 1420.87 1759.95 1420.75 1762.93C1420.64 1765.83 1421.72 1768.8 1424 1771.86ZM1472.94 1763.07L1439.91 1729.44L1446.42 1723.05L1452.82 1728.47L1453.09 1728.2C1452.13 1724.85 1451.93 1721.77 1452.49 1718.97C1453.02 1716.12 1454.17 1713.82 1455.95 1712.07C1457.55 1710.5 1459.05 1709.47 1460.46 1708.99L1465.82 1717.18C1465.04 1717.58 1464.36 1717.99 1463.77 1718.39C1463.18 1718.79 1462.52 1719.35 1461.79 1720.07C1460.46 1721.37 1459.58 1723.26 1459.16 1725.75C1458.68 1728.19 1459.17 1731.2 1460.64 1734.79L1480.82 1755.33L1472.94 1763.07ZM1512.89 1723.83L1468.89 1679.04L1495.87 1652.54L1502.46 1659.25L1483.42 1677.95L1494.66 1689.39L1510.75 1673.58L1517.35 1680.29L1501.25 1696.1L1514.24 1709.32L1533.96 1689.94L1540.55 1696.65L1512.89 1723.83ZM1542.4 1694.83L1535.86 1666.81L1510.05 1660.54L1518.55 1652.19L1528.57 1654.86C1529.97 1655.28 1531.41 1655.75 1532.9 1656.26C1534.39 1656.68 1535.84 1657.1 1537.23 1657.52L1537.51 1657.25C1537.02 1655.93 1536.54 1654.57 1536.05 1653.16C1535.52 1651.71 1535.01 1650.33 1534.53 1649.01L1531.49 1639.48L1539.64 1631.47L1546.39 1658.21L1573.42 1664.36L1564.93 1672.7L1554.3 1670.09C1552.76 1669.63 1551.21 1669.18 1549.63 1668.76C1548.09 1668.3 1546.56 1667.88 1545.02 1667.5L1544.75 1667.77C1545.23 1669.18 1545.72 1670.63 1546.2 1672.13C1546.64 1673.58 1547.13 1675.08 1547.65 1676.62L1550.62 1686.76L1542.4 1694.83ZM1592.46 1671.76L1546.38 1624.85L1552.89 1618.46L1556.93 1621.48L1557.21 1621.21C1557.46 1618.64 1558.02 1616.06 1558.9 1613.49C1559.83 1610.87 1561.21 1608.67 1563.04 1606.87C1567.24 1602.75 1572 1601.11 1577.34 1601.98C1582.71 1602.79 1587.96 1605.8 1593.07 1611.01C1596.84 1614.84 1599.38 1618.8 1600.71 1622.89C1601.98 1626.93 1602.22 1630.73 1601.42 1634.3C1600.66 1637.82 1599.03 1640.82 1596.52 1643.28C1595.06 1644.72 1593.28 1645.84 1591.19 1646.63C1589.06 1647.38 1586.75 1647.86 1584.26 1648.06L1589.98 1653.48L1600.34 1664.02L1592.46 1671.76ZM1588.48 1638.39C1590.72 1636.2 1591.63 1633.38 1591.21 1629.93C1590.78 1626.49 1588.71 1622.87 1584.99 1619.08C1581.67 1615.7 1578.52 1613.64 1575.54 1612.89C1572.56 1612.14 1569.79 1613.02 1567.24 1615.53C1564.86 1617.86 1563.63 1621.54 1563.54 1626.56L1578.95 1642.25C1581.17 1642.04 1583.07 1641.6 1584.66 1640.94C1586.21 1640.23 1587.48 1639.38 1588.48 1638.39ZM1633.26 1607.19C1630.15 1610.24 1626.67 1612.32 1622.82 1613.41C1618.91 1614.47 1614.95 1614.41 1610.94 1613.24C1606.87 1612.03 1603.03 1609.57 1599.39 1605.88C1595.81 1602.22 1593.44 1598.35 1592.3 1594.27C1591.21 1590.14 1591.15 1586.21 1592.13 1582.46C1593.12 1578.71 1594.91 1575.56 1597.51 1573C1600.57 1570 1603.8 1568.17 1607.2 1567.52C1610.56 1566.83 1613.95 1567.17 1617.38 1568.56C1620.76 1569.9 1624 1572.15 1627.09 1575.3C1628.71 1576.95 1629.85 1578.34 1630.52 1579.47L1609.15 1600.46C1612.43 1603.07 1615.77 1604.32 1619.16 1604.22C1622.56 1604.11 1625.6 1602.74 1628.3 1600.09C1629.76 1598.65 1630.9 1597.13 1631.73 1595.5C1632.56 1593.79 1633.21 1591.94 1633.68 1589.96L1641.2 1592.26C1640.63 1594.88 1639.7 1597.5 1638.41 1600.11C1637.12 1602.73 1635.4 1605.09 1633.26 1607.19ZM1603.83 1595.19L1618.76 1580.52C1616.21 1577.92 1613.64 1576.45 1611.06 1576.11C1608.44 1575.72 1605.99 1576.65 1603.71 1578.9C1601.74 1580.82 1600.7 1583.28 1600.59 1586.27C1600.47 1589.16 1601.55 1592.14 1603.83 1595.19ZM1652.78 1586.4L1619.74 1552.78L1626.25 1546.39L1632.65 1551.81L1632.93 1551.54C1631.96 1548.18 1631.76 1545.1 1632.33 1542.3C1632.85 1539.45 1634 1537.15 1635.78 1535.41C1637.38 1533.84 1638.88 1532.81 1640.29 1532.32L1645.65 1540.52C1644.88 1540.92 1644.19 1541.32 1643.6 1541.72C1643.01 1542.12 1642.35 1542.68 1641.62 1543.4C1640.3 1544.7 1639.42 1546.59 1638.99 1549.08C1638.51 1551.52 1639.01 1554.53 1640.47 1558.12L1660.65 1578.67L1652.78 1586.4ZM1678.32 1561.31L1645.29 1527.68L1653.17 1519.94L1686.2 1553.57L1678.32 1561.31ZM1643.48 1517.89C1642.06 1519.28 1640.52 1519.99 1638.84 1520.02C1637.17 1520.05 1635.66 1519.38 1634.31 1518.01C1633.01 1516.69 1632.39 1515.19 1632.45 1513.51C1632.51 1511.84 1633.25 1510.31 1634.66 1508.92C1636.08 1507.53 1637.63 1506.82 1639.3 1506.79C1640.97 1506.76 1642.46 1507.4 1643.76 1508.73C1645.11 1510.1 1645.75 1511.62 1645.69 1513.29C1645.63 1514.97 1644.89 1516.5 1643.48 1517.89ZM1711.44 1530.39C1708.33 1533.44 1704.85 1535.51 1700.99 1536.61C1697.09 1537.66 1693.13 1537.61 1689.12 1536.44C1685.05 1535.23 1681.21 1532.77 1677.57 1529.07C1673.99 1525.42 1671.62 1521.55 1670.48 1517.47C1669.39 1513.34 1669.33 1509.4 1670.31 1505.66C1671.3 1501.91 1673.09 1498.76 1675.69 1496.2C1678.75 1493.19 1681.98 1491.37 1685.38 1490.72C1688.74 1490.02 1692.13 1490.37 1695.56 1491.76C1698.94 1493.1 1702.18 1495.35 1705.27 1498.5C1706.89 1500.14 1708.03 1501.53 1708.7 1502.67L1687.33 1523.66C1690.61 1526.27 1693.95 1527.52 1697.34 1527.41C1700.74 1527.31 1703.78 1525.93 1706.48 1523.29C1707.94 1521.85 1709.08 1520.32 1709.91 1518.7C1710.74 1516.99 1711.39 1515.14 1711.86 1513.15L1719.38 1515.46C1718.81 1518.08 1717.88 1520.7 1716.59 1523.31C1715.3 1525.92 1713.58 1528.28 1711.44 1530.39ZM1682.01 1518.39L1696.94 1503.72C1694.39 1501.12 1691.82 1499.65 1689.24 1499.31C1686.62 1498.92 1684.17 1499.85 1681.89 1502.09C1679.92 1504.02 1678.88 1506.48 1678.77 1509.46C1678.65 1512.36 1679.73 1515.33 1682.01 1518.39ZM1730.96 1509.6L1697.92 1475.97L1704.43 1469.58L1709.42 1473.56L1709.69 1473.3C1709.76 1470.35 1710.17 1467.48 1710.92 1464.69C1711.67 1461.89 1713.19 1459.37 1715.47 1457.12C1719.08 1453.58 1722.85 1452.16 1726.78 1452.88C1730.71 1453.59 1734.76 1456.07 1738.93 1460.32L1759.65 1481.41L1751.78 1489.15L1732.06 1469.08C1729.33 1466.3 1726.99 1464.74 1725.05 1464.4C1723.1 1464.07 1721.2 1464.82 1719.32 1466.66C1717.86 1468.1 1716.92 1469.74 1716.5 1471.59C1716.07 1473.35 1715.83 1475.61 1715.76 1478.37L1738.83 1501.86L1730.96 1509.6ZM1784.12 1458.98C1781.07 1461.99 1777.63 1464.02 1773.82 1465.07C1770.01 1466.03 1766.1 1465.93 1762.08 1464.76C1758.06 1463.5 1754.24 1461.03 1750.6 1457.33C1746.93 1453.58 1744.59 1449.65 1743.58 1445.52C1742.53 1441.35 1742.61 1437.32 1743.82 1433.44C1745.04 1429.47 1747.13 1426.02 1750.09 1423.11C1752.24 1421 1754.47 1419.53 1756.79 1418.69C1759.1 1417.85 1761.39 1417.35 1763.66 1417.19L1764.87 1426.09C1763.24 1426.17 1761.76 1426.45 1760.45 1426.94C1759.08 1427.38 1757.88 1428.11 1756.83 1429.14C1754.13 1431.79 1752.93 1434.99 1753.21 1438.75C1753.54 1442.46 1755.37 1446.01 1758.68 1449.39C1761.96 1452.72 1765.43 1454.61 1769.09 1455.05C1772.8 1455.44 1775.97 1454.34 1778.62 1451.74C1779.95 1450.44 1780.91 1448.95 1781.51 1447.28C1782.12 1445.52 1782.52 1443.79 1782.71 1442.07L1791.05 1444.11C1790.84 1447 1790.11 1449.74 1788.87 1452.31C1787.62 1454.87 1786.04 1457.1 1784.12 1458.98ZM1814.43 1429.21C1811.32 1432.26 1807.84 1434.34 1803.99 1435.43C1800.08 1436.49 1796.13 1436.43 1792.11 1435.26C1788.05 1434.05 1784.2 1431.59 1780.57 1427.89C1776.98 1424.24 1774.61 1420.37 1773.47 1416.29C1772.38 1412.16 1772.32 1408.23 1773.31 1404.48C1774.29 1400.73 1776.08 1397.58 1778.68 1395.02C1781.74 1392.02 1784.97 1390.19 1788.37 1389.54C1791.73 1388.85 1795.12 1389.19 1798.55 1390.58C1801.93 1391.92 1805.17 1394.17 1808.26 1397.32C1809.88 1398.96 1811.02 1400.35 1811.69 1401.49L1790.32 1422.48C1793.6 1425.09 1796.94 1426.34 1800.33 1426.24C1803.73 1426.13 1806.77 1424.76 1809.47 1422.11C1810.93 1420.67 1812.07 1419.15 1812.9 1417.52C1813.73 1415.81 1814.38 1413.96 1814.85 1411.97L1822.37 1414.28C1821.8 1416.9 1820.87 1419.52 1819.58 1422.13C1818.29 1424.74 1816.57 1427.11 1814.43 1429.21ZM1785 1417.21L1799.93 1402.54C1797.38 1399.94 1794.81 1398.47 1792.23 1398.13C1789.61 1397.74 1787.16 1398.67 1784.88 1400.91C1782.91 1402.84 1781.87 1405.3 1781.76 1408.29C1781.64 1411.18 1782.72 1414.16 1785 1417.21Z" fill="#61E7CD"/>
<path id="sq-1" d="M1770.46 1772.57L1063.35 2479.68L1770.46 3186.79L2477.57 2479.68L1770.46 1772.57Z" stroke="#61E7CD" stroke-width="15"/>
</g>
</g>
</g>
</g>
</g>
</svg>
