<svg width="878" height="879" viewBox="0 0 878 879" fill="none" xmlns="http://www.w3.org/2000/svg">
<g id="main-bg 1" clip-path="url(#clip0_1_2)">
<path id="Vector" d="M512.76 74.0144L439.746 1L366.732 74.0144L439.746 147.029L512.76 74.0144Z" stroke="#9EAA85" stroke-width="0.930255"/>
<path id="Vector_2" d="M366.731 220.043L293.717 147.029L220.703 220.043L293.717 293.058L366.731 220.043Z" stroke="#9EAA85" stroke-width="0.930255"/>
<path id="Vector_3" d="M220.702 366.072L147.688 293.058L74.6736 366.072L147.688 439.087L220.702 366.072Z" stroke="#9EAA85" stroke-width="0.930255"/>
<path id="Vector_4" d="M366.731 512.979L293.717 439.965L220.703 512.979L293.717 585.994L366.731 512.979Z" stroke="#9EAA85" stroke-width="0.930255"/>
<path id="Vector_5" d="M513.199 366.511L440.185 293.497L367.171 366.511L440.185 439.526L513.199 366.511Z" stroke="#9EAA85" stroke-width="0.930255"/>
<path id="Vector_6" d="M585.775 147.029L512.761 74.0146L439.747 147.029L512.761 220.043L585.775 147.029Z" stroke="#9EAA85" stroke-width="0.930255"/>
<path id="Vector_7" d="M439.745 293.058L366.731 220.044L293.717 293.058L366.731 366.073L439.745 293.058Z" stroke="#9EAA85" stroke-width="0.930255"/>
<path id="Vector_8" d="M293.716 439.087L220.702 366.073L147.688 439.087L220.702 512.102L293.716 439.087Z" stroke="#9EAA85" stroke-width="0.930255"/>
<path id="Vector_9" d="M439.745 585.993L366.731 512.979L293.717 585.993L366.731 659.008L439.745 585.993Z" stroke="#9EAA85" stroke-width="0.930255"/>
<path id="Vector_10" d="M586.213 439.526L513.199 366.512L440.185 439.526L513.199 512.541L586.213 439.526Z" stroke="#9EAA85" stroke-width="0.930255"/>
<path id="Vector_11" d="M731.804 293.058L658.79 220.044L585.776 293.058L658.79 366.073L731.804 293.058Z" stroke="#9EAA85" stroke-width="0.930255"/>
<path id="Vector_12" d="M658.789 220.043L585.775 147.029L512.761 220.043L585.775 293.058L658.789 220.043Z" stroke="#9EAA85" stroke-width="0.930255"/>
<path id="Vector_13" d="M877.833 439.087L804.819 366.073L731.805 439.087L804.819 512.102L877.833 439.087Z" stroke="#9EAA85" stroke-width="0.930255"/>
<path id="Vector_14" d="M804.819 366.072L731.805 293.058L658.791 366.072L731.805 439.087L804.819 366.072Z" stroke="#9EAA85" stroke-width="0.930255"/>
<path id="Vector_15" d="M731.584 585.336L658.57 512.322L585.556 585.336L658.57 658.351L731.584 585.336Z" stroke="#9EAA85" stroke-width="0.930255"/>
<path id="Vector_16" d="M585.556 731.365L512.542 658.351L439.528 731.365L512.542 804.38L585.556 731.365Z" stroke="#9EAA85" stroke-width="0.930255"/>
<path id="Vector_17" d="M512.76 220.043L439.746 147.029L366.732 220.043L439.746 293.058L512.76 220.043Z" stroke="#9EAA85" stroke-width="0.930255"/>
<path id="Vector_18" d="M366.731 366.072L293.717 293.058L220.703 366.072L293.717 439.087L366.731 366.072Z" stroke="#9EAA85" stroke-width="0.930255"/>
<path id="Vector_19" d="M220.263 512.54L147.249 439.526L74.2346 512.54L147.249 585.555L220.263 512.54Z" stroke="#9EAA85" stroke-width="0.930255"/>
<path id="Vector_20" d="M366.731 659.008L293.717 585.994L220.703 659.008L293.717 732.023L366.731 659.008Z" stroke="#9EAA85" stroke-width="0.930255"/>
<path id="Vector_21" d="M513.199 512.54L440.185 439.526L367.171 512.54L440.185 585.555L513.199 512.54Z" stroke="#9EAA85" stroke-width="0.930255"/>
<path id="Vector_22" d="M658.789 366.072L585.775 293.058L512.761 366.072L585.775 439.087L658.789 366.072Z" stroke="#9EAA85" stroke-width="0.930255"/>
<path id="Vector_23" d="M804.819 512.102L731.805 439.088L658.791 512.102L731.805 585.117L804.819 512.102Z" stroke="#9EAA85" stroke-width="0.930255"/>
<path id="Vector_24" d="M658.571 658.35L585.557 585.336L512.543 658.35L585.557 731.365L658.571 658.35Z" stroke="#9EAA85" stroke-width="0.930255"/>
<path id="Vector_25" d="M512.541 804.38L439.527 731.366L366.513 804.38L439.527 877.395L512.541 804.38Z" stroke="#9EAA85" stroke-width="0.930255"/>
<path id="Vector_26" d="M439.745 147.029L366.731 74.0146L293.717 147.029L366.731 220.043L439.745 147.029Z" stroke="#9EAA85" stroke-width="0.930255"/>
<path id="Vector_27" d="M293.716 293.058L220.702 220.044L147.688 293.058L220.702 366.073L293.716 293.058Z" stroke="#9EAA85" stroke-width="0.930255"/>
<path id="Vector_28" d="M147.249 439.526L74.2344 366.512L1.21995 439.526L74.2344 512.541L147.249 439.526Z" stroke="#9EAA85" stroke-width="0.930255"/>
<path id="Vector_29" d="M293.716 585.994L220.702 512.98L147.688 585.994L220.702 659.009L293.716 585.994Z" stroke="#9EAA85" stroke-width="0.930255"/>
<path id="Vector_30" d="M440.184 439.526L367.17 366.512L294.156 439.526L367.17 512.541L440.184 439.526Z" stroke="#9EAA85" stroke-width="0.930255"/>
<path id="Vector_31" d="M585.775 293.058L512.761 220.044L439.747 293.058L512.761 366.073L585.775 293.058Z" stroke="#9EAA85" stroke-width="0.930255"/>
<path id="Vector_32" d="M731.804 439.087L658.79 366.073L585.776 439.087L658.79 512.102L731.804 439.087Z" stroke="#9EAA85" stroke-width="0.930255"/>
<path id="Vector_33" d="M658.571 512.321L585.557 439.307L512.543 512.321L585.557 585.336L658.571 512.321Z" stroke="#9EAA85" stroke-width="0.930255"/>
<path id="Vector_34" d="M512.322 658.57L439.308 585.556L366.294 658.57L439.308 731.585L512.322 658.57Z" stroke="#9EAA85" stroke-width="0.930255"/>
<path id="Vector_35" d="M585.555 585.336L512.541 512.322L439.527 585.336L512.541 658.351L585.555 585.336Z" stroke="#9EAA85" stroke-width="0.930255"/>
<path id="Vector_36" d="M439.526 731.365L366.512 658.351L293.498 731.365L366.512 804.38L439.526 731.365Z" stroke="#9EAA85" stroke-width="0.930255"/>
<path id="Vector_37" d="M476.363 329.675L440.185 293.497L404.007 329.675L440.185 365.854L476.363 329.675Z" stroke="#9EAA85" stroke-width="0.930255"/>
<path id="Vector_38" d="M476.363 329.675L440.185 293.497L404.007 329.675L440.185 365.854L476.363 329.675Z" stroke="#9EAA85" stroke-width="0.930255"/>
<path id="Vector_39" d="M403.129 402.909L366.951 366.731L330.773 402.909L366.951 439.088L403.129 402.909Z" stroke="#9EAA85" stroke-width="0.930255"/>
<path id="Vector_40" d="M548.939 402.251L512.761 366.073L476.583 402.251L512.761 438.43L548.939 402.251Z" stroke="#9EAA85" stroke-width="0.930255"/>
<path id="Vector_41" d="M476.801 402.47L440.623 366.292L404.445 402.47L440.623 438.649L476.801 402.47Z" stroke="#9EAA85" stroke-width="0.930255"/>
<path id="Vector_42" d="M402.691 475.704L366.513 439.526L330.335 475.704L366.513 511.883L402.691 475.704Z" stroke="#9EAA85" stroke-width="0.930255"/>
<path id="Vector_43" d="M548.939 474.608L512.761 438.43L476.583 474.608L512.761 510.787L548.939 474.608Z" stroke="#9EAA85" stroke-width="0.930255"/>
<path id="Vector_44" d="M512.541 365.854L476.363 329.676L440.185 365.854L476.363 402.033L512.541 365.854Z" stroke="#9EAA85" stroke-width="0.930255"/>
<path id="Vector_45" d="M439.965 439.745L403.787 403.567L367.609 439.745L403.787 475.924L439.965 439.745Z" stroke="#9EAA85" stroke-width="0.930255"/>
<path id="Vector_46" d="M585.117 438.429L548.939 402.251L512.761 438.429L548.939 474.608L585.117 438.429Z" stroke="#9EAA85" stroke-width="0.930255"/>
<path id="Vector_47" d="M475.924 476.143L439.746 439.965L403.568 476.143L439.746 512.322L475.924 476.143Z" stroke="#9EAA85" stroke-width="0.930255"/>
<path id="Vector_48" d="M512.249 512.175L476.071 475.997L439.893 512.175L476.071 548.354L512.249 512.175Z" stroke="#9EAA85" stroke-width="0.930255"/>
<path id="Vector_49" d="M475.046 549.377L438.868 513.199L402.69 549.377L438.868 585.556L475.046 549.377Z" stroke="#9EAA85" stroke-width="0.930255"/>
<path id="Vector_50" d="M439.745 512.321L403.567 476.143L367.389 512.321L403.567 548.5L439.745 512.321Z" stroke="#9EAA85" stroke-width="0.930255"/>
<path id="Vector_51" d="M220.702 659.009C341.798 780.105 538.132 780.105 659.228 659.009C780.324 537.913 780.324 341.579 659.228 220.483C538.132 99.3871 341.798 99.3871 220.702 220.483C99.6061 341.579 99.6061 537.913 220.702 659.009Z" stroke="#9EAA85" stroke-width="0.930255"/>
<path id="Vector_52" d="M439.746 439.964C500.293 500.512 598.461 500.512 659.008 439.964C719.556 379.417 719.556 281.249 659.008 220.702C598.461 160.154 500.293 160.154 439.746 220.702C379.198 281.249 379.198 379.417 439.746 439.964Z" stroke="#9EAA85" stroke-width="0.930255"/>
<path id="Vector_53" d="M220.483 659.227C281.03 719.775 379.198 719.775 439.745 659.227C500.293 598.68 500.293 500.512 439.745 439.965C379.198 379.417 281.03 379.417 220.483 439.965C159.935 500.512 159.935 598.68 220.483 659.227Z" stroke="#9EAA85" stroke-width="0.930255"/>
<path id="Vector_54" d="M439.089 658.569C499.636 719.117 597.804 719.117 658.351 658.569C718.899 598.022 718.899 499.854 658.351 439.307C597.804 378.759 499.636 378.759 439.089 439.307C378.541 499.854 378.541 598.022 439.089 658.569Z" stroke="#9EAA85" stroke-width="0.930255"/>
<path id="Vector_55" d="M220.483 439.964C281.03 500.512 379.198 500.512 439.745 439.964C500.293 379.417 500.293 281.249 439.745 220.702C379.198 160.154 281.03 160.154 220.483 220.702C159.935 281.249 159.935 379.417 220.483 439.964Z" stroke="#9EAA85" stroke-width="0.930255"/>
<g id="Group 1">
<rect id="green-rectangle-1" x="221.882" y="365.913" width="204.403" height="101.314" transform="rotate(-44.842 221.882 365.913)" stroke="#D0E6A4" stroke-width="4"/>
<path id="text-1" d="M287.802 362.419L288.805 361.43L294.215 366.915C294.774 367.482 295.139 368.119 295.311 368.827C295.483 369.53 295.454 370.248 295.224 370.98C294.991 371.71 294.55 372.395 293.9 373.036C293.25 373.677 292.559 374.109 291.826 374.332C291.09 374.552 290.371 374.572 289.668 374.393C288.965 374.209 288.334 373.833 287.775 373.267L282.365 367.781L283.368 366.792L288.699 372.197C289.098 372.601 289.542 372.874 290.031 373.014C290.517 373.151 291.014 373.148 291.522 373.004C292.029 372.855 292.513 372.553 292.974 372.098C293.435 371.643 293.744 371.163 293.9 370.658C294.054 370.15 294.064 369.653 293.931 369.167C293.797 368.676 293.531 368.229 293.132 367.824L287.802 362.419ZM298.496 358.704L297.878 359.792C297.683 359.703 297.466 359.642 297.228 359.611C296.99 359.575 296.738 359.6 296.472 359.686C296.207 359.773 295.935 359.953 295.657 360.227C295.277 360.602 295.046 361.002 294.966 361.427C294.885 361.847 294.976 362.191 295.24 362.458C295.474 362.695 295.745 362.797 296.053 362.765C296.362 362.732 296.744 362.581 297.201 362.311L298.347 361.628C299.036 361.215 299.653 361.013 300.2 361.022C300.743 361.028 301.229 361.249 301.657 361.683C302.009 362.039 302.22 362.458 302.292 362.941C302.366 363.421 302.301 363.921 302.096 364.442C301.892 364.963 301.548 365.461 301.066 365.937C300.432 366.562 299.772 366.942 299.085 367.077C298.398 367.211 297.739 367.069 297.107 366.649L297.79 365.529C298.206 365.778 298.616 365.868 299.021 365.799C299.429 365.727 299.828 365.498 300.219 365.112C300.664 364.673 300.925 364.23 301 363.783C301.076 363.331 300.982 362.972 300.718 362.705C300.506 362.489 300.252 362.383 299.957 362.386C299.66 362.387 299.319 362.505 298.934 362.741L297.659 363.519C296.957 363.946 296.333 364.149 295.787 364.129C295.24 364.104 294.756 363.877 294.333 363.448C293.987 363.097 293.78 362.69 293.711 362.226C293.644 361.76 293.706 361.281 293.897 360.789C294.091 360.295 294.406 359.832 294.843 359.402C295.458 358.795 296.074 358.454 296.69 358.378C297.31 358.299 297.912 358.408 298.496 358.704ZM307.535 359.557C306.936 360.147 306.29 360.525 305.595 360.689C304.9 360.847 304.2 360.803 303.494 360.557C302.789 360.306 302.122 359.862 301.495 359.226C300.867 358.589 300.43 357.914 300.183 357.2C299.936 356.48 299.887 355.778 300.037 355.093C300.186 354.403 300.541 353.782 301.102 353.229C301.426 352.909 301.799 352.648 302.221 352.445C302.643 352.241 303.103 352.134 303.601 352.121C304.097 352.106 304.617 352.22 305.162 352.465C305.706 352.71 306.265 353.122 306.836 353.702L307.235 354.107L302.446 358.831L301.632 358.005L305.451 354.239C305.105 353.888 304.726 353.645 304.315 353.508C303.906 353.369 303.495 353.346 303.082 353.439C302.671 353.53 302.293 353.746 301.948 354.086C301.568 354.461 301.332 354.88 301.24 355.343C301.149 355.8 301.177 356.252 301.323 356.697C301.47 357.143 301.713 357.537 302.05 357.88L302.593 358.43C303.056 358.899 303.529 359.217 304.013 359.384C304.496 359.545 304.968 359.567 305.427 359.45C305.883 359.33 306.304 359.08 306.689 358.699C306.94 358.452 307.132 358.193 307.265 357.924C307.398 357.649 307.469 357.367 307.476 357.078C307.481 356.786 307.417 356.492 307.285 356.196L308.463 355.546C308.674 355.954 308.783 356.39 308.787 356.854C308.789 357.314 308.687 357.777 308.48 358.242C308.271 358.704 307.956 359.142 307.535 359.557ZM311.433 355.458L305.304 349.244L306.227 348.334L307.152 349.273L307.217 349.209C307.027 348.79 306.986 348.338 307.094 347.854C307.202 347.37 307.442 346.945 307.814 346.577C307.884 346.508 307.973 346.423 308.081 346.322C308.189 346.221 308.272 346.147 308.332 346.099L309.289 347.07C309.249 347.094 309.163 347.155 309.031 347.253C308.899 347.346 308.769 347.455 308.643 347.58C308.341 347.878 308.133 348.207 308.021 348.568C307.909 348.923 307.893 349.279 307.974 349.636C308.054 349.988 308.233 350.304 308.509 350.584L312.387 354.516L311.433 355.458ZM319.005 347.99L310.834 339.705L315.834 334.774L316.712 335.664L312.715 339.606L315.476 342.405L319.214 338.718L320.091 339.608L316.353 343.295L319.13 346.111L323.192 342.105L324.07 342.995L319.005 347.99ZM320.267 334.487L324.262 335.559L323.245 331.551L324.345 330.465L325.403 335.551L330.473 336.679L329.373 337.764L325.506 336.822L326.396 340.701L325.295 341.786L324.205 336.732L319.167 335.572L320.267 334.487ZM334.134 337.666L325.708 329.122L326.63 328.212L327.603 329.199L327.717 329.088C327.68 328.911 327.642 328.677 327.601 328.388C327.56 328.093 327.592 327.764 327.696 327.4C327.801 327.031 328.055 326.647 328.46 326.248C328.983 325.732 329.573 325.408 330.23 325.276C330.887 325.144 331.564 325.208 332.262 325.467C332.959 325.726 333.629 326.182 334.273 326.835C334.922 327.493 335.373 328.174 335.625 328.877C335.875 329.578 335.932 330.256 335.796 330.911C335.657 331.564 335.329 332.146 334.811 332.656C334.412 333.05 334.027 333.299 333.657 333.404C333.284 333.506 332.949 333.535 332.652 333.493C332.352 333.448 332.112 333.404 331.93 333.36L331.849 333.439L335.088 336.724L334.134 337.666ZM329.71 331.303C330.173 331.772 330.65 332.119 331.141 332.342C331.63 332.562 332.106 332.643 332.57 332.585C333.031 332.523 333.453 332.304 333.836 331.926C334.235 331.533 334.465 331.099 334.524 330.625C334.584 330.146 334.504 329.661 334.285 329.169C334.066 328.672 333.739 328.203 333.302 327.76C332.872 327.323 332.416 326.996 331.935 326.779C331.455 326.556 330.978 326.475 330.507 326.536C330.035 326.591 329.597 326.819 329.192 327.218C328.804 327.601 328.574 328.021 328.504 328.478C328.432 328.933 328.501 329.402 328.712 329.886C328.92 330.367 329.253 330.839 329.71 331.303ZM341.511 326.049C340.912 326.64 340.265 327.017 339.57 327.181C338.875 327.34 338.175 327.296 337.47 327.05C336.764 326.799 336.098 326.355 335.47 325.718C334.842 325.082 334.405 324.406 334.158 323.692C333.912 322.973 333.863 322.271 334.012 321.586C334.162 320.896 334.517 320.274 335.078 319.721C335.401 319.402 335.774 319.141 336.196 318.937C336.618 318.734 337.078 318.626 337.576 318.613C338.072 318.598 338.592 318.713 339.137 318.958C339.682 319.203 340.24 319.615 340.812 320.195L341.211 320.599L336.421 325.323L335.607 324.498L339.426 320.732C339.08 320.381 338.702 320.137 338.29 320C337.881 319.861 337.47 319.838 337.057 319.932C336.647 320.023 336.269 320.238 335.924 320.579C335.543 320.954 335.307 321.373 335.216 321.835C335.124 322.293 335.152 322.744 335.299 323.19C335.446 323.636 335.688 324.03 336.026 324.372L336.568 324.922C337.031 325.392 337.505 325.71 337.988 325.876C338.472 326.038 338.943 326.06 339.402 325.942C339.858 325.822 340.279 325.572 340.665 325.192C340.916 324.944 341.108 324.686 341.241 324.416C341.374 324.141 341.444 323.859 341.451 323.57C341.456 323.278 341.393 322.984 341.261 322.689L342.438 322.038C342.65 322.447 342.758 322.883 342.763 323.346C342.765 323.807 342.663 324.27 342.456 324.734C342.246 325.196 341.931 325.634 341.511 326.049ZM345.408 321.95L339.28 315.736L340.202 314.827L341.128 315.765L341.193 315.702C341.003 315.282 340.962 314.831 341.069 314.347C341.177 313.863 341.417 313.437 341.789 313.07C341.859 313.001 341.948 312.916 342.056 312.815C342.164 312.714 342.248 312.639 342.307 312.591L343.264 313.562C343.224 313.586 343.138 313.647 343.006 313.745C342.874 313.838 342.745 313.947 342.618 314.072C342.316 314.37 342.109 314.699 341.997 315.06C341.884 315.416 341.868 315.772 341.949 316.129C342.03 316.48 342.208 316.796 342.485 317.077L346.363 321.009L345.408 321.95ZM349.647 317.77L343.518 311.556L344.473 310.615L350.601 316.828L349.647 317.77ZM342.983 310.042C342.796 310.225 342.573 310.32 342.314 310.327C342.056 310.33 341.84 310.243 341.665 310.065C341.489 309.887 341.405 309.669 341.412 309.412C341.422 309.153 341.52 308.931 341.706 308.747C341.892 308.564 342.114 308.47 342.371 308.467C342.631 308.46 342.848 308.546 343.024 308.724C343.199 308.902 343.282 309.121 343.272 309.381C343.265 309.638 343.169 309.858 342.983 310.042ZM355.083 312.664C354.484 313.254 353.837 313.632 353.143 313.796C352.448 313.954 351.748 313.91 351.042 313.665C350.337 313.413 349.67 312.969 349.042 312.333C348.415 311.696 347.978 311.021 347.731 310.307C347.484 309.587 347.435 308.885 347.585 308.201C347.734 307.51 348.089 306.889 348.65 306.336C348.974 306.016 349.347 305.755 349.769 305.552C350.19 305.349 350.651 305.241 351.149 305.228C351.644 305.213 352.165 305.327 352.709 305.572C353.254 305.817 353.812 306.229 354.384 306.809L354.783 307.214L349.993 311.938L349.18 311.112L352.998 307.346C352.653 306.996 352.274 306.752 351.862 306.615C351.454 306.476 351.043 306.453 350.629 306.546C350.219 306.637 349.841 306.853 349.496 307.193C349.116 307.568 348.88 307.987 348.788 308.45C348.697 308.907 348.724 309.359 348.871 309.804C349.018 310.25 349.26 310.644 349.598 310.987L350.141 311.537C350.604 312.006 351.077 312.324 351.561 312.491C352.044 312.652 352.515 312.674 352.974 312.557C353.43 312.437 353.851 312.187 354.237 311.806C354.488 311.559 354.68 311.301 354.813 311.031C354.946 310.756 355.016 310.474 355.024 310.185C355.028 309.893 354.965 309.599 354.833 309.303L356.011 308.653C356.222 309.061 356.33 309.497 356.335 309.961C356.337 310.421 356.235 310.884 356.028 311.349C355.819 311.811 355.504 312.249 355.083 312.664ZM356.249 303.885L359.935 307.623L358.98 308.565L352.852 302.351L353.775 301.441L354.732 302.412L354.813 302.332C354.647 301.873 354.619 301.402 354.726 300.918C354.832 300.431 355.119 299.956 355.588 299.493C356.009 299.078 356.462 298.802 356.948 298.663C357.431 298.522 357.932 298.539 358.45 298.714C358.966 298.886 359.484 299.236 360.006 299.765L363.9 303.713L362.945 304.655L359.115 300.771C358.633 300.283 358.132 300.028 357.609 300.006C357.085 299.98 356.601 300.186 356.159 300.622C355.854 300.923 355.647 301.257 355.537 301.626C355.43 301.993 355.433 302.37 355.545 302.759C355.658 303.149 355.892 303.524 356.249 303.885ZM368.296 299.633C367.714 300.207 367.076 300.564 366.384 300.704C365.692 300.844 364.995 300.784 364.292 300.525C363.59 300.266 362.933 299.826 362.321 299.205C361.698 298.574 361.265 297.903 361.021 297.192C360.777 296.475 360.729 295.774 360.879 295.089C361.028 294.399 361.383 293.778 361.944 293.224C362.381 292.794 362.855 292.486 363.365 292.302C363.875 292.118 364.386 292.062 364.897 292.132C365.408 292.203 365.882 292.405 366.319 292.741L365.364 293.682C365.012 293.471 364.603 293.38 364.137 293.408C363.671 293.432 363.227 293.651 362.806 294.066C362.434 294.433 362.204 294.852 362.115 295.323C362.026 295.788 362.076 296.274 362.265 296.778C362.455 297.278 362.781 297.762 363.244 298.232C363.717 298.712 364.205 299.055 364.707 299.262C365.212 299.467 365.7 299.53 366.172 299.453C366.647 299.373 367.073 299.147 367.45 298.775C367.699 298.53 367.881 298.265 367.998 297.979C368.115 297.693 368.164 297.401 368.145 297.1C368.126 296.8 368.034 296.508 367.87 296.223L368.825 295.281C369.132 295.701 369.325 296.163 369.402 296.667C369.478 297.166 369.428 297.673 369.25 298.189C369.073 298.699 368.755 299.18 368.296 299.633ZM374.741 293.277C374.142 293.868 373.495 294.245 372.8 294.409C372.105 294.567 371.405 294.524 370.7 294.278C369.994 294.026 369.328 293.582 368.7 292.946C368.072 292.309 367.635 291.634 367.388 290.92C367.142 290.2 367.093 289.498 367.242 288.814C367.392 288.124 367.747 287.502 368.308 286.949C368.631 286.63 369.004 286.368 369.426 286.165C369.848 285.962 370.308 285.854 370.807 285.841C371.302 285.826 371.822 285.94 372.367 286.185C372.912 286.43 373.47 286.843 374.042 287.422L374.441 287.827L369.651 292.551L368.837 291.725L372.656 287.959C372.31 287.609 371.932 287.365 371.52 287.228C371.111 287.089 370.7 287.066 370.287 287.159C369.877 287.25 369.499 287.466 369.154 287.806C368.773 288.181 368.537 288.6 368.446 289.063C368.354 289.52 368.382 289.972 368.529 290.418C368.676 290.863 368.918 291.257 369.256 291.6L369.799 292.15C370.261 292.619 370.735 292.937 371.218 293.104C371.702 293.265 372.173 293.287 372.632 293.17C373.088 293.05 373.509 292.8 373.895 292.419C374.146 292.172 374.338 291.914 374.471 291.644C374.604 291.369 374.674 291.087 374.681 290.798C374.686 290.506 374.623 290.212 374.491 289.916L375.668 289.266C375.88 289.674 375.988 290.11 375.993 290.574C375.995 291.034 375.893 291.497 375.686 291.962C375.476 292.424 375.161 292.862 374.741 293.277Z" fill="#D0E6A4"/>
</g>
<g id="Group 3">
<rect id="green-rectangle-3" x="440.828" y="584.561" width="204.403" height="101.314" transform="rotate(-45.0784 440.828 584.561)" stroke="#D0E6A4" stroke-width="4"/>
<path id="text-3" d="M495.939 596.44C495.486 596.078 494.975 595.954 494.407 596.068C493.838 596.182 493.303 596.486 492.801 596.981C492.434 597.343 492.172 597.719 492.014 598.109C491.859 598.496 491.806 598.869 491.857 599.229C491.911 599.585 492.068 599.896 492.329 600.16C492.547 600.381 492.787 600.519 493.049 600.575C493.312 600.625 493.578 600.62 493.849 600.56C494.117 600.498 494.376 600.41 494.626 600.296C494.874 600.18 495.094 600.067 495.288 599.955L496.352 599.352C496.624 599.196 496.941 599.037 497.304 598.877C497.669 598.713 498.059 598.598 498.472 598.531C498.884 598.459 499.302 598.478 499.725 598.588C500.147 598.698 500.55 598.947 500.933 599.336C501.374 599.783 501.656 600.304 501.778 600.896C501.902 601.486 501.846 602.109 501.608 602.763C501.373 603.415 500.938 604.055 500.301 604.683C499.708 605.268 499.1 605.679 498.477 605.916C497.856 606.15 497.253 606.218 496.667 606.12C496.084 606.02 495.553 605.759 495.074 605.338L496.109 604.316C496.445 604.603 496.805 604.758 497.191 604.782C497.576 604.801 497.96 604.72 498.341 604.541C498.723 604.356 499.078 604.101 499.407 603.777C499.79 603.399 500.073 602.998 500.255 602.573C500.435 602.146 500.504 601.733 500.461 601.333C500.416 600.931 500.244 600.579 499.946 600.277C499.675 600.002 499.377 599.854 499.053 599.833C498.729 599.812 498.389 599.871 498.031 600.011C497.674 600.15 497.31 600.323 496.939 600.529L495.632 601.243C494.801 601.696 494.027 601.935 493.309 601.963C492.591 601.99 491.957 601.724 491.406 601.166C490.949 600.702 490.675 600.174 490.585 599.581C490.496 598.983 490.57 598.379 490.807 597.767C491.044 597.15 491.427 596.58 491.956 596.059C492.49 595.533 493.059 595.16 493.663 594.942C494.265 594.721 494.849 594.656 495.416 594.745C495.986 594.832 496.484 595.078 496.91 595.483L495.939 596.44ZM507.323 597.726C506.762 598.279 506.138 598.631 505.452 598.781C504.768 598.929 504.07 598.88 503.359 598.634C502.651 598.386 501.981 597.94 501.348 597.298C500.709 596.651 500.269 595.971 500.028 595.256C499.789 594.54 499.749 593.84 499.906 593.158C500.066 592.474 500.427 591.855 500.988 591.302C501.548 590.748 502.171 590.398 502.855 590.25C503.542 590.099 504.241 590.15 504.951 590.401C505.665 590.65 506.341 591.098 506.979 591.745C507.612 592.387 508.047 593.065 508.283 593.779C508.521 594.49 508.561 595.188 508.401 595.873C508.243 596.555 507.884 597.172 507.323 597.726ZM506.477 596.868C506.903 596.448 507.146 595.993 507.206 595.503C507.266 595.013 507.186 594.525 506.967 594.039C506.748 593.553 506.434 593.102 506.024 592.686C505.615 592.271 505.167 591.949 504.681 591.721C504.195 591.492 503.706 591.403 503.212 591.454C502.719 591.504 502.259 591.739 501.833 592.159C501.407 592.579 501.166 593.036 501.109 593.528C501.052 594.021 501.134 594.511 501.356 595C501.577 595.489 501.893 595.942 502.302 596.357C502.712 596.772 503.158 597.093 503.642 597.318C504.125 597.544 504.612 597.63 505.102 597.578C505.593 597.525 506.051 597.288 506.477 596.868ZM508.107 584.439L508.905 585.248L505.556 588.552L504.758 587.743L508.107 584.439ZM511.889 592.967L504.915 585.896C504.564 585.54 504.355 585.161 504.288 584.758C504.221 584.356 504.263 583.964 504.413 583.582C504.563 583.2 504.786 582.863 505.083 582.57C505.318 582.339 505.528 582.169 505.713 582.06C505.899 581.952 506.044 581.878 506.149 581.838L506.687 582.935C506.623 582.967 506.536 583.013 506.425 583.074C506.318 583.132 506.195 583.229 506.058 583.364C505.742 583.676 505.593 583.98 505.609 584.277C505.629 584.572 505.79 584.873 506.093 585.181L512.844 592.026L511.889 592.967ZM512.148 580.455L512.946 581.264L509.726 584.44L508.928 583.63L512.148 580.455ZM508.398 581.216L509.353 580.275L515.194 586.197C515.46 586.467 515.698 586.63 515.909 586.688C516.121 586.74 516.311 586.728 516.48 586.652C516.649 586.57 516.804 586.46 516.944 586.322C517.05 586.218 517.131 586.127 517.187 586.05C517.241 585.97 517.285 585.906 517.317 585.858L518.357 586.524C518.316 586.612 518.25 586.726 518.158 586.864C518.069 587.006 517.935 587.164 517.757 587.34C517.487 587.606 517.166 587.808 516.793 587.948C516.422 588.085 516.035 588.118 515.631 588.048C515.229 587.976 514.851 587.759 514.494 587.398L508.398 581.216ZM521.12 583.864L513.098 579.517L514.102 578.528L520.137 581.96L520.201 581.897L516.836 575.831L517.856 574.825L523.842 578.274L523.907 578.21L520.574 572.144L521.578 571.155L525.812 579.236L524.874 580.161L518.807 576.728L518.71 576.824L522.058 582.938L521.12 583.864ZM530.94 574.466C530.546 574.854 530.116 575.132 529.649 575.301C529.179 575.466 528.71 575.5 528.242 575.403C527.771 575.304 527.336 575.052 526.937 574.647C526.586 574.291 526.372 573.933 526.294 573.574C526.213 573.212 526.228 572.852 526.337 572.493C526.447 572.135 526.613 571.786 526.835 571.444C527.057 571.098 527.294 570.763 527.545 570.441C527.875 570.02 528.145 569.681 528.355 569.426C528.566 569.165 528.695 568.95 528.742 568.782C528.791 568.611 528.74 568.448 528.588 568.294L528.556 568.262C528.163 567.863 527.748 567.66 527.311 567.655C526.877 567.646 526.44 567.859 526.001 568.293C525.545 568.742 525.286 569.194 525.224 569.649C525.162 570.104 525.19 570.497 525.308 570.827L524.083 571.397C523.872 570.86 523.798 570.353 523.86 569.877C523.923 569.395 524.073 568.954 524.312 568.554C524.55 568.149 524.826 567.792 525.139 567.483C525.338 567.286 525.591 567.084 525.898 566.878C526.205 566.665 526.552 566.512 526.938 566.419C527.327 566.322 527.747 566.341 528.199 566.476C528.651 566.61 529.12 566.924 529.607 567.418L533.644 571.512L532.69 572.453L531.86 571.612L531.811 571.66C531.88 571.858 531.914 572.109 531.915 572.412C531.915 572.714 531.843 573.043 531.699 573.398C531.554 573.754 531.301 574.109 530.94 574.466ZM530.24 573.465C530.617 573.092 530.863 572.704 530.975 572.301C531.09 571.894 531.099 571.509 530.999 571.144C530.903 570.776 530.727 570.463 530.471 570.204L529.61 569.33C529.617 569.418 529.572 569.551 529.474 569.727C529.377 569.898 529.254 570.086 529.105 570.291C528.956 570.491 528.809 570.684 528.663 570.87C528.517 571.051 528.399 571.199 528.31 571.314C528.094 571.591 527.914 571.872 527.77 572.158C527.626 572.438 527.559 572.715 527.567 572.988C527.576 573.256 527.7 573.511 527.94 573.754C528.267 574.086 528.637 574.216 529.05 574.143C529.463 574.066 529.86 573.84 530.24 573.465ZM535.387 569.793L529.259 563.579L530.181 562.67L531.107 563.608L531.171 563.544C530.982 563.125 530.94 562.673 531.048 562.189C531.156 561.705 531.396 561.28 531.768 560.913C531.838 560.844 531.927 560.759 532.035 560.657C532.143 560.556 532.227 560.482 532.286 560.434L533.243 561.405C533.203 561.429 533.117 561.49 532.985 561.588C532.853 561.681 532.724 561.79 532.597 561.915C532.295 562.213 532.088 562.542 531.975 562.903C531.863 563.258 531.847 563.615 531.928 563.971C532.008 564.323 532.187 564.639 532.464 564.919L536.342 568.851L535.387 569.793ZM542.169 563.359C541.571 563.95 540.924 564.327 540.229 564.491C539.534 564.65 538.834 564.606 538.129 564.36C537.423 564.109 536.757 563.665 536.129 563.028C535.501 562.392 535.064 561.716 534.817 561.002C534.57 560.283 534.522 559.581 534.671 558.896C534.82 558.206 535.176 557.584 535.737 557.031C536.06 556.712 536.433 556.451 536.855 556.247C537.277 556.044 537.737 555.936 538.235 555.923C538.731 555.908 539.251 556.023 539.796 556.268C540.341 556.512 540.899 556.925 541.471 557.505L541.87 557.909L537.08 562.633L536.266 561.808L540.085 558.041C539.739 557.691 539.36 557.447 538.949 557.31C538.54 557.171 538.129 557.148 537.716 557.242C537.305 557.332 536.928 557.548 536.582 557.889C536.202 558.264 535.966 558.683 535.875 559.145C535.783 559.603 535.811 560.054 535.958 560.5C536.105 560.946 536.347 561.34 536.685 561.682L537.227 562.232C537.69 562.702 538.163 563.02 538.647 563.186C539.131 563.348 539.602 563.37 540.061 563.252C540.517 563.132 540.938 562.882 541.324 562.502C541.574 562.254 541.766 561.996 541.899 561.726C542.033 561.451 542.103 561.169 542.11 560.88C542.115 560.588 542.051 560.294 541.919 559.999L543.097 559.348C543.309 559.757 543.417 560.193 543.422 560.656C543.424 561.117 543.321 561.579 543.115 562.044C542.905 562.506 542.59 562.944 542.169 563.359ZM549.4 555.973L541.229 547.688L546.23 542.756L547.107 543.646L543.11 547.588L545.871 550.388L549.609 546.701L550.487 547.591L546.749 551.278L549.526 554.093L553.587 550.088L554.465 550.978L549.4 555.973ZM553.348 544.706L557.034 548.444L556.079 549.386L549.951 543.172L550.873 542.262L551.831 543.233L551.912 543.153C551.746 542.694 551.717 542.223 551.825 541.739C551.93 541.252 552.218 540.777 552.687 540.314C553.108 539.899 553.561 539.622 554.047 539.484C554.53 539.343 555.031 539.359 555.549 539.534C556.065 539.707 556.583 540.057 557.105 540.586L560.998 544.534L560.044 545.476L556.214 541.592C555.732 541.104 555.23 540.849 554.708 540.826C554.183 540.801 553.7 541.007 553.258 541.443C552.953 541.744 552.746 542.078 552.636 542.447C552.529 542.813 552.532 543.191 552.644 543.58C552.757 543.969 552.991 544.345 553.348 544.706ZM567.677 542.8C567.216 543.254 566.761 543.586 566.312 543.795C565.866 544.006 565.438 544.125 565.028 544.151C564.623 544.178 564.25 544.147 563.908 544.059L564.142 542.775C564.34 542.803 564.576 542.825 564.852 542.84C565.131 542.858 565.438 542.808 565.773 542.69C566.114 542.572 566.472 542.328 566.847 541.958C567.349 541.463 567.643 540.934 567.73 540.369C567.817 539.805 567.605 539.264 567.094 538.746L565.85 537.484L565.769 537.563C565.81 537.746 565.849 537.984 565.884 538.279C565.92 538.569 565.881 538.897 565.769 539.263C565.657 539.624 565.398 540.004 564.994 540.403C564.492 540.897 563.925 541.223 563.291 541.379C562.661 541.533 562.006 541.497 561.327 541.273C560.651 541.046 559.994 540.609 559.356 539.962C558.728 539.325 558.293 538.661 558.052 537.968C557.808 537.272 557.757 536.598 557.901 535.946C558.042 535.291 558.374 534.705 558.898 534.189C559.302 533.79 559.69 533.541 560.06 533.442C560.43 533.337 560.763 533.307 561.057 533.352C561.351 533.392 561.587 533.431 561.763 533.47L561.86 533.374L560.887 532.387L561.809 531.477L568.113 537.869C568.64 538.403 568.946 538.957 569.034 539.531C569.126 540.104 569.046 540.67 568.793 541.228C568.545 541.786 568.173 542.31 567.677 542.8ZM564.277 539.417C564.66 539.04 564.897 538.633 564.989 538.197C565.08 537.761 565.033 537.31 564.846 536.846C564.659 536.381 564.339 535.92 563.887 535.461C563.445 535.013 562.988 534.685 562.516 534.475C562.043 534.266 561.579 534.194 561.123 534.261C560.667 534.327 560.245 534.552 559.857 534.935C559.452 535.334 559.216 535.769 559.149 536.24C559.084 536.708 559.154 537.181 559.36 537.66C559.568 538.135 559.88 538.583 560.295 539.004C560.72 539.435 561.164 539.751 561.626 539.949C562.088 540.143 562.546 540.202 562.999 540.128C563.452 540.048 563.878 539.811 564.277 539.417ZM569.685 535.967L563.557 529.754L564.512 528.812L570.64 535.026L569.685 535.967ZM563.021 528.239C562.835 528.423 562.612 528.518 562.352 528.524C562.095 528.527 561.878 528.44 561.703 528.262C561.527 528.084 561.443 527.867 561.45 527.61C561.46 527.35 561.558 527.128 561.744 526.945C561.93 526.761 562.152 526.668 562.409 526.664C562.669 526.658 562.887 526.744 563.062 526.922C563.238 527.1 563.321 527.319 563.311 527.578C563.304 527.835 563.207 528.056 563.021 528.239ZM569.657 528.622L573.343 532.36L572.388 533.301L566.26 527.087L567.183 526.178L568.14 527.149L568.221 527.069C568.055 526.61 568.027 526.138 568.134 525.654C568.24 525.167 568.527 524.693 568.996 524.23C569.417 523.815 569.87 523.538 570.356 523.399C570.839 523.258 571.34 523.275 571.858 523.45C572.374 523.622 572.892 523.973 573.414 524.501L577.308 528.45L576.353 529.391L572.523 525.508C572.041 525.02 571.54 524.764 571.017 524.742C570.493 524.717 570.009 524.922 569.567 525.359C569.262 525.659 569.055 525.994 568.945 526.363C568.838 526.729 568.841 527.107 568.953 527.496C569.066 527.885 569.3 528.26 569.657 528.622ZM581.785 524.289C581.186 524.88 580.54 525.257 579.845 525.421C579.15 525.579 578.45 525.536 577.744 525.29C577.039 525.038 576.372 524.595 575.745 523.958C575.117 523.322 574.68 522.646 574.433 521.932C574.186 521.213 574.137 520.51 574.287 519.826C574.436 519.136 574.791 518.514 575.352 517.961C575.676 517.642 576.049 517.38 576.471 517.177C576.893 516.974 577.353 516.866 577.851 516.853C578.347 516.838 578.867 516.953 579.412 517.198C579.956 517.442 580.515 517.855 581.086 518.435L581.485 518.839L576.696 523.563L575.882 522.738L579.701 518.971C579.355 518.621 578.976 518.377 578.565 518.24C578.156 518.101 577.745 518.078 577.332 518.171C576.921 518.262 576.543 518.478 576.198 518.819C575.818 519.194 575.582 519.612 575.49 520.075C575.399 520.533 575.426 520.984 575.573 521.43C575.72 521.875 575.963 522.269 576.3 522.612L576.843 523.162C577.306 523.631 577.779 523.949 578.263 524.116C578.746 524.278 579.218 524.3 579.676 524.182C580.133 524.062 580.554 523.812 580.939 523.432C581.19 523.184 581.382 522.926 581.515 522.656C581.648 522.381 581.719 522.099 581.726 521.81C581.731 521.518 581.667 521.224 581.535 520.929L582.713 520.278C582.924 520.687 583.032 521.123 583.037 521.586C583.039 522.047 582.937 522.509 582.73 522.974C582.521 523.436 582.206 523.874 581.785 524.289ZM588.416 517.75C587.817 518.341 587.17 518.718 586.475 518.882C585.78 519.04 585.08 518.997 584.375 518.751C583.669 518.499 583.003 518.055 582.375 517.419C581.747 516.782 581.31 516.107 581.063 515.393C580.817 514.673 580.768 513.971 580.917 513.287C581.067 512.597 581.422 511.975 581.983 511.422C582.306 511.103 582.679 510.841 583.101 510.638C583.523 510.435 583.983 510.327 584.481 510.314C584.977 510.299 585.497 510.414 586.042 510.658C586.587 510.903 587.145 511.316 587.717 511.895L588.116 512.3L583.326 517.024L582.512 516.199L586.331 512.432C585.985 512.082 585.607 511.838 585.195 511.701C584.786 511.562 584.375 511.539 583.962 511.632C583.552 511.723 583.174 511.939 582.829 512.279C582.448 512.654 582.212 513.073 582.121 513.536C582.029 513.993 582.057 514.445 582.204 514.891C582.351 515.336 582.593 515.73 582.931 516.073L583.473 516.623C583.936 517.092 584.409 517.41 584.893 517.577C585.377 517.738 585.848 517.76 586.307 517.643C586.763 517.523 587.184 517.273 587.57 516.893C587.821 516.645 588.012 516.387 588.146 516.117C588.279 515.842 588.349 515.56 588.356 515.271C588.361 514.979 588.297 514.685 588.166 514.39L589.343 513.739C589.555 514.147 589.663 514.583 589.668 515.047C589.67 515.508 589.568 515.97 589.361 516.435C589.151 516.897 588.836 517.335 588.416 517.75ZM592.313 513.651L586.185 507.437L587.107 506.528L588.033 507.466L588.098 507.402C587.908 506.983 587.867 506.531 587.974 506.047C588.082 505.563 588.322 505.138 588.694 504.771C588.764 504.702 588.853 504.616 588.961 504.515C589.069 504.414 589.153 504.34 589.212 504.292L590.169 505.263C590.129 505.287 590.043 505.348 589.911 505.446C589.779 505.539 589.65 505.648 589.523 505.773C589.221 506.071 589.014 506.4 588.902 506.761C588.789 507.116 588.773 507.473 588.854 507.829C588.935 508.181 589.113 508.497 589.39 508.777L593.268 512.709L592.313 513.651ZM596.552 509.471L590.423 503.257L591.378 502.315L597.506 508.529L596.552 509.471ZM589.888 501.743C589.701 501.926 589.478 502.021 589.219 502.027C588.961 502.031 588.745 501.944 588.57 501.766C588.394 501.588 588.31 501.37 588.317 501.113C588.327 500.853 588.425 500.632 588.611 500.448C588.797 500.265 589.019 500.171 589.276 500.167C589.536 500.161 589.753 500.247 589.929 500.425C590.104 500.603 590.187 500.822 590.177 501.082C590.17 501.339 590.074 501.559 589.888 501.743ZM596.523 502.125L600.21 505.863L599.255 506.805L593.127 500.591L594.049 499.681L595.007 500.652L595.088 500.572C594.922 500.113 594.893 499.642 595.001 499.157C595.106 498.671 595.393 498.196 595.863 497.733C596.283 497.318 596.737 497.041 597.222 496.903C597.705 496.762 598.206 496.778 598.725 496.953C599.24 497.126 599.759 497.476 600.28 498.005L604.174 501.953L603.219 502.895L599.389 499.011C598.908 498.523 598.406 498.268 597.884 498.245C597.359 498.22 596.876 498.426 596.433 498.862C596.129 499.163 595.921 499.497 595.812 499.866C595.705 500.232 595.707 500.61 595.82 500.999C595.932 501.388 596.167 501.764 596.523 502.125ZM610.853 500.219C610.391 500.673 609.937 501.005 609.488 501.214C609.042 501.425 608.614 501.544 608.204 501.57C607.799 501.597 607.426 501.566 607.083 501.478L607.317 500.194C607.515 500.222 607.752 500.244 608.028 500.259C608.306 500.277 608.613 500.227 608.949 500.109C609.29 499.991 609.648 499.747 610.023 499.377C610.524 498.882 610.819 498.353 610.906 497.788C610.993 497.224 610.781 496.682 610.27 496.165L609.025 494.902L608.944 494.982C608.986 495.165 609.024 495.403 609.06 495.698C609.095 495.988 609.057 496.316 608.945 496.682C608.832 497.043 608.574 497.423 608.169 497.821C607.668 498.316 607.1 498.642 606.467 498.798C605.837 498.952 605.182 498.916 604.503 498.692C603.827 498.465 603.17 498.028 602.531 497.381C601.904 496.744 601.469 496.08 601.227 495.387C600.983 494.691 600.933 494.017 601.077 493.365C601.218 492.71 601.55 492.124 602.073 491.608C602.478 491.209 602.865 490.96 603.236 490.861C603.606 490.756 603.938 490.726 604.233 490.771C604.527 490.811 604.762 490.85 604.939 490.889L605.036 490.793L604.063 489.806L604.985 488.896L611.289 495.288C611.815 495.822 612.122 496.376 612.209 496.95C612.302 497.523 612.221 498.089 611.968 498.647C611.721 499.205 611.349 499.729 610.853 500.219ZM607.453 496.836C607.836 496.458 608.073 496.052 608.165 495.616C608.256 495.18 608.208 494.729 608.021 494.265C607.834 493.8 607.515 493.338 607.063 492.88C606.621 492.432 606.164 492.104 605.691 491.894C605.219 491.685 604.754 491.613 604.299 491.68C603.843 491.746 603.421 491.971 603.032 492.354C602.628 492.753 602.392 493.188 602.324 493.659C602.259 494.127 602.33 494.6 602.535 495.078C602.744 495.554 603.055 496.002 603.47 496.423C603.896 496.854 604.34 497.169 604.802 497.368C605.264 497.562 605.721 497.621 606.174 497.546C606.628 497.467 607.054 497.23 607.453 496.836Z" fill="#D0E6A4"/>
</g>
<g id="Group 4">
<rect id="green-rectangle-4" x="366.376" y="656.997" width="204.403" height="101.314" transform="rotate(-135.005 366.376 656.997)" stroke="#D0E6A4" stroke-width="4"/>
<path id="text-4" d="M285.809 509.008L286.898 510.104L286.602 512.224L286.519 512.787L286.059 515.967L284.97 514.871L285.282 512.766L285.364 512.236L285.809 509.008ZM291.297 511.436C290.426 512.301 289.518 512.891 288.571 513.207C287.625 513.523 286.707 513.577 285.819 513.371C284.93 513.164 284.136 512.709 283.436 512.005C282.737 511.301 282.287 510.504 282.086 509.614C281.886 508.724 281.946 507.807 282.268 506.863C282.59 505.918 283.186 505.014 284.057 504.149C284.927 503.284 285.836 502.693 286.782 502.378C287.729 502.062 288.646 502.007 289.535 502.214C290.423 502.42 291.217 502.875 291.917 503.579C292.616 504.283 293.066 505.08 293.267 505.97C293.468 506.86 293.407 507.777 293.085 508.722C292.764 509.666 292.167 510.571 291.297 511.436ZM290.336 510.469C291.051 509.759 291.535 509.04 291.789 508.312C292.046 507.587 292.099 506.896 291.948 506.239C291.801 505.585 291.478 505.008 290.982 504.509C290.485 504.009 289.909 503.681 289.253 503.527C288.6 503.375 287.909 503.423 287.18 503.673C286.453 503.925 285.732 504.406 285.018 505.116C284.303 505.826 283.817 506.544 283.56 507.269C283.306 507.996 283.253 508.687 283.401 509.341C283.551 509.998 283.875 510.576 284.372 511.076C284.868 511.576 285.443 511.902 286.096 512.054C286.752 512.209 287.443 512.16 288.17 511.908C288.899 511.659 289.621 511.179 290.336 510.469ZM295.119 518.475L298.779 514.839L299.724 515.79L293.533 521.941L292.588 520.99L293.636 519.949L293.572 519.885C293.113 520.052 292.621 520.092 292.097 520.004C291.575 519.914 291.081 519.635 290.617 519.168C290.232 518.781 289.975 518.353 289.846 517.884C289.719 517.412 289.742 516.919 289.915 516.405C290.091 515.889 290.442 515.369 290.968 514.846L294.902 510.937L295.847 511.889L291.978 515.733C291.527 516.182 291.292 516.666 291.274 517.185C291.259 517.707 291.448 518.166 291.84 518.561C292.075 518.798 292.375 518.978 292.738 519.102C293.105 519.229 293.496 519.252 293.911 519.17C294.329 519.091 294.732 518.86 295.119 518.475ZM296.929 525.65C296.539 525.257 296.259 524.828 296.089 524.361C295.922 523.892 295.886 523.423 295.981 522.955C296.079 522.484 296.33 522.048 296.733 521.647C297.088 521.295 297.444 521.079 297.804 521C298.165 520.918 298.526 520.931 298.884 521.04C299.243 521.148 299.593 521.313 299.935 521.533C300.283 521.754 300.618 521.99 300.941 522.24C301.364 522.568 301.703 522.837 301.959 523.046C302.221 523.256 302.436 523.384 302.605 523.43C302.776 523.479 302.938 523.427 303.092 523.275L303.124 523.243C303.521 522.848 303.722 522.432 303.726 521.996C303.733 521.562 303.519 521.126 303.084 520.688C302.633 520.234 302.18 519.976 301.724 519.916C301.269 519.856 300.877 519.885 300.547 520.005L299.972 518.781C300.509 518.569 301.015 518.493 301.492 518.553C301.974 518.614 302.415 518.762 302.816 518.999C303.222 519.236 303.58 519.511 303.89 519.823C304.088 520.021 304.29 520.274 304.498 520.58C304.712 520.886 304.866 521.232 304.961 521.618C305.059 522.007 305.042 522.427 304.909 522.879C304.776 523.332 304.464 523.802 303.972 524.29L299.893 528.343L298.948 527.392L299.786 526.559L299.738 526.511C299.54 526.58 299.289 526.615 298.987 526.617C298.684 526.618 298.355 526.548 297.999 526.404C297.643 526.261 297.287 526.01 296.929 525.65ZM297.927 524.946C298.301 525.322 298.69 525.566 299.094 525.677C299.501 525.791 299.887 525.797 300.251 525.697C300.618 525.599 300.931 525.422 301.189 525.165L302.06 524.3C301.971 524.308 301.839 524.263 301.662 524.166C301.491 524.069 301.303 523.947 301.097 523.799C300.897 523.651 300.703 523.504 300.516 523.359C300.334 523.214 300.186 523.097 300.071 523.008C299.793 522.793 299.511 522.614 299.225 522.471C298.944 522.328 298.667 522.262 298.394 522.272C298.126 522.281 297.871 522.406 297.63 522.647C297.299 522.975 297.171 523.346 297.244 523.758C297.323 524.171 297.551 524.567 297.927 524.946ZM310.818 522.829L302.563 531.031L301.618 530.079L309.873 521.878L310.818 522.829ZM304.294 532.773L310.485 526.622L311.43 527.573L305.239 533.724L304.294 532.773ZM311.998 526.08C311.813 525.895 311.718 525.672 311.711 525.412C311.706 525.155 311.792 524.939 311.97 524.762C312.147 524.586 312.364 524.501 312.621 524.507C312.881 524.516 313.103 524.613 313.287 524.799C313.472 524.984 313.566 525.205 313.571 525.463C313.578 525.722 313.493 525.94 313.315 526.117C313.138 526.293 312.919 526.377 312.66 526.368C312.403 526.361 312.182 526.266 311.998 526.08ZM315.836 532.008L315.03 532.809L311.843 529.6L312.649 528.799L315.836 532.008ZM315.061 528.261L316.006 529.212L310.105 535.075C309.837 535.342 309.674 535.581 309.617 535.792C309.565 536.004 309.578 536.194 309.655 536.363C309.738 536.532 309.848 536.686 309.987 536.826C310.091 536.931 310.182 537.011 310.26 537.068C310.34 537.122 310.404 537.165 310.452 537.197L309.79 538.24C309.701 538.199 309.588 538.133 309.449 538.042C309.307 537.953 309.148 537.82 308.972 537.642C308.705 537.374 308.501 537.053 308.36 536.68C308.222 536.31 308.187 535.923 308.256 535.519C308.327 535.117 308.542 534.737 308.902 534.38L315.061 528.261ZM309.354 542.509C309.194 542.348 309.064 542.191 308.966 542.038C308.865 541.887 308.802 541.776 308.778 541.704L309.857 541.112C310.027 541.402 310.209 541.628 310.401 541.789C310.593 541.951 310.829 542.029 311.107 542.024C311.386 542.025 311.74 541.927 312.169 541.731L312.829 541.427L316.778 532.955L317.803 533.987L314.567 540.597L314.631 540.662L321.263 537.469L322.288 538.501L312.583 542.921C312.146 543.121 311.735 543.237 311.352 543.271C310.967 543.307 310.608 543.26 310.276 543.131C309.947 543.004 309.64 542.796 309.354 542.509ZM320.98 549.568L319.939 548.52L331.205 543.349L332.231 544.381L326.987 555.614L325.946 554.566L330.444 545.195L330.38 545.13L320.98 549.568ZM324.589 546.751L328.786 550.975L327.899 551.856L323.703 547.632L324.589 546.751ZM337.298 556.382L336.207 555.768C336.296 555.573 336.356 555.356 336.386 555.118C336.422 554.879 336.396 554.628 336.308 554.362C336.221 554.097 336.04 553.826 335.765 553.549C335.388 553.17 334.987 552.941 334.561 552.862C334.141 552.783 333.798 552.875 333.532 553.14C333.296 553.375 333.194 553.646 333.228 553.954C333.262 554.262 333.415 554.645 333.686 555.101L334.374 556.244C334.789 556.931 334.994 557.548 334.986 558.094C334.982 558.638 334.764 559.125 334.331 559.555C333.976 559.907 333.558 560.12 333.075 560.193C332.596 560.269 332.095 560.206 331.573 560.004C331.052 559.801 330.552 559.459 330.074 558.978C329.447 558.347 329.064 557.688 328.927 557.002C328.79 556.316 328.93 555.656 329.348 555.023L330.47 555.701C330.223 556.118 330.134 556.529 330.205 556.934C330.279 557.341 330.509 557.74 330.896 558.129C331.337 558.573 331.781 558.831 332.228 558.905C332.68 558.979 333.039 558.883 333.305 558.619C333.52 558.406 333.626 558.151 333.621 557.857C333.62 557.559 333.5 557.219 333.263 556.835L332.48 555.563C332.051 554.863 331.845 554.239 331.863 553.693C331.886 553.146 332.111 552.661 332.539 552.237C332.888 551.89 333.294 551.681 333.758 551.61C334.224 551.542 334.704 551.602 335.196 551.791C335.691 551.983 336.154 552.297 336.587 552.732C337.196 553.344 337.539 553.959 337.617 554.575C337.698 555.194 337.592 555.797 337.298 556.382ZM343.19 562.312L342.099 561.698C342.188 561.503 342.248 561.286 342.278 561.048C342.314 560.809 342.288 560.558 342.2 560.292C342.113 560.027 341.931 559.756 341.656 559.479C341.28 559.1 340.879 558.871 340.453 558.792C340.033 558.713 339.69 558.806 339.424 559.07C339.187 559.305 339.086 559.576 339.12 559.884C339.154 560.193 339.306 560.575 339.578 561.031L340.266 562.174C340.681 562.861 340.885 563.478 340.878 564.024C340.874 564.568 340.655 565.055 340.223 565.485C339.868 565.837 339.449 566.05 338.967 566.123C338.487 566.2 337.987 566.136 337.465 565.934C336.943 565.731 336.444 565.389 335.966 564.908C335.338 564.277 334.956 563.618 334.819 562.932C334.682 562.246 334.822 561.586 335.239 560.953L336.362 561.631C336.114 562.048 336.026 562.459 336.097 562.864C336.171 563.271 336.401 563.67 336.788 564.059C337.229 564.503 337.672 564.761 338.12 564.835C338.572 564.909 338.931 564.814 339.197 564.549C339.412 564.336 339.517 564.082 339.513 563.787C339.511 563.49 339.392 563.149 339.155 562.765L338.371 561.493C337.942 560.793 337.737 560.169 337.755 559.623C337.778 559.077 338.003 558.591 338.43 558.167C338.78 557.82 339.186 557.611 339.65 557.54C340.116 557.472 340.595 557.532 341.088 557.721C341.582 557.913 342.046 558.227 342.479 558.662C343.087 559.275 343.431 559.889 343.509 560.505C343.59 561.124 343.484 561.727 343.19 562.312ZM346.328 570.017L349.988 566.381L350.933 567.332L344.742 573.483L343.797 572.532L344.845 571.491L344.781 571.426C344.322 571.594 343.83 571.634 343.306 571.546C342.784 571.456 342.29 571.177 341.826 570.71C341.441 570.323 341.184 569.895 341.055 569.426C340.928 568.954 340.951 568.461 341.124 567.947C341.299 567.431 341.651 566.911 342.177 566.388L346.111 562.479L347.056 563.431L343.187 567.275C342.735 567.724 342.501 568.208 342.483 568.727C342.468 569.249 342.657 569.708 343.049 570.103C343.284 570.34 343.584 570.52 343.947 570.644C344.314 570.771 344.705 570.794 345.12 570.712C345.538 570.633 345.941 570.402 346.328 570.017ZM346.473 575.226L352.664 569.075L353.577 569.994L352.642 570.923L352.706 570.987C353.124 570.796 353.576 570.753 354.06 570.859C354.545 570.965 354.971 571.203 355.34 571.574C355.409 571.644 355.494 571.733 355.596 571.84C355.697 571.948 355.772 572.031 355.82 572.09L354.853 573.051C354.829 573.011 354.767 572.925 354.669 572.793C354.575 572.662 354.466 572.533 354.34 572.407C354.041 572.106 353.711 571.9 353.35 571.789C352.994 571.678 352.638 571.663 352.282 571.745C351.93 571.827 351.615 572.007 351.336 572.284L347.418 576.177L346.473 575.226ZM352.334 581.415C351.944 581.022 351.664 580.593 351.494 580.126C351.327 579.657 351.291 579.188 351.386 578.72C351.484 578.249 351.735 577.813 352.138 577.413C352.492 577.06 352.849 576.844 353.208 576.765C353.57 576.683 353.93 576.697 354.289 576.805C354.648 576.913 354.998 577.078 355.34 577.298C355.688 577.519 356.023 577.755 356.346 578.005C356.768 578.333 357.108 578.602 357.364 578.812C357.626 579.021 357.841 579.149 358.01 579.195C358.181 579.244 358.343 579.192 358.496 579.04L358.529 579.008C358.926 578.613 359.127 578.197 359.131 577.761C359.138 577.327 358.924 576.891 358.489 576.453C358.037 575.999 357.584 575.741 357.129 575.681C356.674 575.621 356.282 575.65 355.952 575.77L355.377 574.546C355.913 574.334 356.42 574.258 356.897 574.318C357.378 574.379 357.82 574.528 358.221 574.765C358.627 575.002 358.985 575.276 359.295 575.588C359.493 575.786 359.695 576.039 359.903 576.345C360.116 576.651 360.271 576.997 360.366 577.383C360.464 577.772 360.446 578.192 360.314 578.644C360.181 579.097 359.869 579.567 359.377 580.056L355.298 584.108L354.353 583.157L355.191 582.324L355.143 582.276C354.945 582.345 354.694 582.38 354.391 582.382C354.089 582.383 353.76 582.313 353.404 582.17C353.048 582.026 352.691 581.775 352.334 581.415ZM353.332 580.711C353.706 581.087 354.095 581.331 354.499 581.442C354.906 581.556 355.291 581.562 355.656 581.462C356.023 581.364 356.336 581.187 356.594 580.93L357.464 580.065C357.376 580.073 357.244 580.029 357.067 579.932C356.896 579.835 356.708 579.712 356.502 579.564C356.301 579.416 356.108 579.27 355.921 579.124C355.739 578.979 355.591 578.862 355.476 578.773C355.198 578.558 354.916 578.379 354.63 578.236C354.349 578.093 354.072 578.027 353.799 578.037C353.531 578.047 353.276 578.172 353.034 578.412C352.704 578.74 352.575 579.111 352.649 579.523C352.728 579.936 352.956 580.332 353.332 580.711ZM361.692 583.095L357.968 586.796L357.023 585.844L363.214 579.693L364.127 580.612L363.16 581.573L363.24 581.654C363.698 581.487 364.17 581.456 364.654 581.562C365.141 581.666 365.617 581.951 366.082 582.419C366.498 582.838 366.777 583.29 366.917 583.775C367.06 584.258 367.045 584.759 366.872 585.278C366.702 585.794 366.353 586.314 365.826 586.837L361.892 590.746L360.947 589.794L364.817 585.95C365.303 585.467 365.557 584.964 365.577 584.442C365.6 583.917 365.393 583.434 364.955 582.993C364.653 582.69 364.318 582.484 363.949 582.376C363.582 582.27 363.204 582.274 362.816 582.388C362.427 582.502 362.052 582.738 361.692 583.095ZM365.989 595.127C365.413 594.547 365.053 593.911 364.911 593.219C364.768 592.528 364.826 591.83 365.082 591.127C365.339 590.423 365.776 589.764 366.394 589.15C367.023 588.525 367.693 588.09 368.403 587.843C369.119 587.596 369.82 587.546 370.505 587.693C371.196 587.84 371.819 588.193 372.374 588.752C372.807 589.187 373.116 589.659 373.302 590.169C373.487 590.678 373.546 591.189 373.477 591.7C373.409 592.212 373.208 592.686 372.874 593.125L371.929 592.173C372.139 591.82 372.229 591.411 372.198 590.945C372.173 590.479 371.952 590.036 371.536 589.617C371.167 589.246 370.747 589.017 370.276 588.93C369.81 588.843 369.325 588.895 368.821 589.086C368.323 589.277 367.839 589.605 367.372 590.069C366.893 590.545 366.552 591.034 366.347 591.537C366.144 592.042 366.082 592.531 366.161 593.002C366.242 593.477 366.47 593.902 366.844 594.278C367.089 594.525 367.355 594.707 367.642 594.823C367.928 594.939 368.221 594.987 368.521 594.967C368.821 594.946 369.113 594.853 369.398 594.688L370.343 595.639C369.924 595.949 369.463 596.143 368.959 596.222C368.46 596.3 367.953 596.252 367.437 596.076C366.926 595.9 366.443 595.584 365.989 595.127ZM372.369 601.548C371.776 600.951 371.396 600.306 371.23 599.612C371.069 598.918 371.11 598.217 371.353 597.511C371.602 596.805 372.043 596.136 372.678 595.506C373.312 594.876 373.985 594.437 374.699 594.187C375.417 593.938 376.119 593.886 376.804 594.033C377.495 594.18 378.118 594.533 378.673 595.092C378.994 595.414 379.256 595.786 379.461 596.207C379.666 596.629 379.776 597.088 379.79 597.587C379.807 598.082 379.694 598.603 379.452 599.148C379.209 599.694 378.799 600.254 378.221 600.828L377.818 601.228L373.076 596.456L373.899 595.639L377.679 599.444C378.028 599.097 378.27 598.717 378.406 598.305C378.544 597.896 378.565 597.485 378.47 597.072C378.378 596.662 378.161 596.285 377.819 595.941C377.442 595.562 377.023 595.328 376.56 595.238C376.102 595.148 375.65 595.177 375.205 595.326C374.76 595.474 374.367 595.718 374.026 596.057L373.478 596.602C373.01 597.066 372.694 597.541 372.529 598.025C372.369 598.509 372.349 598.981 372.468 599.439C372.59 599.895 372.841 600.315 373.223 600.699C373.471 600.949 373.731 601.14 374.001 601.272C374.276 601.404 374.559 601.473 374.848 601.48C375.14 601.483 375.433 601.419 375.728 601.286L376.383 602.461C375.976 602.674 375.54 602.784 375.077 602.79C374.616 602.794 374.153 602.693 373.687 602.488C373.225 602.281 372.785 601.967 372.369 601.548Z" fill="#D0E6A4"/>
</g>
<g id="Group 2">
<rect id="green-rectangle-2" x="586.43" y="437.457" width="204.403" height="101.314" transform="rotate(-135.425 586.43 437.457)" stroke="#D0E6A4" stroke-width="4"/>
<path id="text-2" d="M501.78 292.119L499.249 289.572L507.504 281.37L510.147 284.031C510.943 284.831 511.458 285.681 511.694 286.579C511.932 287.474 511.894 288.379 511.581 289.294C511.27 290.207 510.687 291.087 509.832 291.936C508.973 292.791 508.08 293.373 507.155 293.683C506.233 293.991 505.314 294.018 504.399 293.763C503.486 293.505 502.613 292.958 501.78 292.119ZM501.129 289.69L502.603 291.174C503.281 291.856 503.975 292.291 504.684 292.478C505.393 292.665 506.1 292.627 506.806 292.364C507.511 292.102 508.2 291.636 508.871 290.969C509.538 290.307 510.003 289.628 510.268 288.933C510.535 288.234 510.583 287.541 510.411 286.852C510.242 286.16 509.837 285.492 509.197 284.847L507.611 283.251L501.129 289.69ZM508.892 299.567C508.502 299.175 508.222 298.745 508.052 298.278C507.885 297.809 507.849 297.34 507.944 296.872C508.042 296.401 508.293 295.965 508.696 295.565C509.05 295.212 509.407 294.996 509.767 294.917C510.128 294.835 510.489 294.849 510.847 294.957C511.206 295.065 511.556 295.23 511.898 295.45C512.246 295.671 512.581 295.907 512.904 296.157C513.326 296.485 513.666 296.754 513.922 296.964C514.184 297.173 514.399 297.301 514.568 297.347C514.739 297.396 514.901 297.344 515.054 297.192L515.087 297.16C515.484 296.765 515.685 296.349 515.689 295.913C515.696 295.479 515.482 295.043 515.047 294.605C514.596 294.151 514.142 293.894 513.687 293.833C513.232 293.773 512.84 293.802 512.51 293.922L511.935 292.698C512.472 292.486 512.978 292.41 513.455 292.47C513.937 292.531 514.378 292.68 514.779 292.917C515.185 293.154 515.543 293.428 515.853 293.74C516.051 293.939 516.253 294.191 516.461 294.497C516.675 294.803 516.829 295.149 516.924 295.535C517.022 295.924 517.004 296.344 516.872 296.796C516.739 297.249 516.427 297.719 515.935 298.208L511.856 302.26L510.911 301.309L511.749 300.476L511.701 300.428C511.503 300.497 511.252 300.532 510.95 300.534C510.647 300.535 510.318 300.465 509.962 300.322C509.606 300.179 509.249 299.927 508.892 299.567ZM509.89 298.863C510.264 299.239 510.653 299.483 511.057 299.594C511.464 299.708 511.85 299.714 512.214 299.614C512.581 299.516 512.894 299.339 513.152 299.082L514.023 298.217C513.934 298.225 513.802 298.181 513.625 298.084C513.454 297.987 513.266 297.864 513.06 297.716C512.86 297.568 512.666 297.422 512.479 297.276C512.297 297.131 512.149 297.014 512.034 296.925C511.756 296.71 511.474 296.531 511.188 296.388C510.907 296.245 510.63 296.179 510.357 296.189C510.089 296.199 509.834 296.324 509.592 296.564C509.262 296.892 509.133 297.263 509.207 297.676C509.286 298.088 509.514 298.484 509.89 298.863ZM522.447 300.538L521.641 301.339L518.453 298.13L519.259 297.329L522.447 300.538ZM521.672 296.791L522.617 297.742L516.716 303.605C516.447 303.872 516.285 304.111 516.228 304.322C516.176 304.534 516.189 304.724 516.266 304.893C516.348 305.062 516.459 305.216 516.598 305.356C516.702 305.461 516.793 305.542 516.87 305.598C516.95 305.652 517.015 305.695 517.063 305.727L516.4 306.77C516.312 306.729 516.199 306.663 516.06 306.572C515.918 306.483 515.759 306.35 515.583 306.173C515.316 305.904 515.112 305.583 514.971 305.21C514.833 304.84 514.798 304.453 514.866 304.049C514.937 303.647 515.153 303.268 515.513 302.91L521.672 296.791ZM519.343 310.086C518.953 309.694 518.673 309.264 518.503 308.797C518.336 308.328 518.3 307.859 518.395 307.391C518.493 306.92 518.744 306.484 519.147 306.084C519.501 305.731 519.858 305.515 520.218 305.436C520.579 305.354 520.94 305.368 521.298 305.476C521.657 305.584 522.007 305.749 522.349 305.969C522.697 306.19 523.032 306.426 523.355 306.676C523.777 307.004 524.117 307.273 524.373 307.483C524.635 307.692 524.85 307.82 525.019 307.866C525.19 307.915 525.352 307.863 525.505 307.711L525.538 307.679C525.935 307.284 526.136 306.868 526.14 306.432C526.147 305.998 525.933 305.562 525.498 305.124C525.047 304.67 524.593 304.413 524.138 304.352C523.683 304.292 523.291 304.321 522.961 304.441L522.386 303.217C522.923 303.005 523.429 302.929 523.906 302.989C524.388 303.05 524.829 303.199 525.23 303.436C525.636 303.673 525.994 303.947 526.304 304.259C526.502 304.458 526.704 304.71 526.912 305.016C527.126 305.322 527.28 305.668 527.375 306.054C527.473 306.443 527.455 306.863 527.323 307.315C527.19 307.768 526.878 308.238 526.386 308.727L522.307 312.779L521.362 311.828L522.2 310.995L522.152 310.947C521.954 311.016 521.703 311.051 521.401 311.053C521.098 311.054 520.769 310.984 520.413 310.841C520.057 310.698 519.7 310.446 519.343 310.086ZM520.341 309.382C520.715 309.758 521.104 310.002 521.508 310.113C521.915 310.227 522.301 310.233 522.665 310.133C523.032 310.035 523.345 309.858 523.603 309.601L524.474 308.736C524.385 308.744 524.253 308.7 524.076 308.603C523.905 308.506 523.717 308.383 523.511 308.235C523.311 308.087 523.117 307.941 522.93 307.795C522.748 307.65 522.6 307.533 522.485 307.444C522.207 307.229 521.925 307.05 521.639 306.907C521.358 306.764 521.081 306.698 520.808 306.708C520.54 306.718 520.285 306.843 520.043 307.083C519.713 307.411 519.585 307.782 519.658 308.195C519.737 308.607 519.965 309.003 520.341 309.382ZM527.332 317.837L535.587 309.635L540.536 314.617L539.65 315.498L535.693 311.516L532.904 314.287L536.604 318.011L535.717 318.892L532.017 315.168L529.212 317.955L533.232 322.002L532.346 322.883L527.332 317.837ZM538.613 321.742L534.889 325.443L533.943 324.491L540.135 318.34L541.048 319.259L540.08 320.22L540.16 320.301C540.619 320.134 541.09 320.103 541.575 320.209C542.062 320.312 542.538 320.598 543.002 321.065C543.419 321.485 543.697 321.937 543.838 322.422C543.981 322.905 543.966 323.406 543.793 323.925C543.622 324.441 543.274 324.961 542.747 325.484L538.813 329.393L537.868 328.441L541.737 324.597C542.224 324.114 542.477 323.611 542.498 323.089C542.521 322.564 542.313 322.081 541.876 321.64C541.574 321.337 541.238 321.131 540.869 321.022C540.502 320.917 540.125 320.921 539.736 321.035C539.347 321.149 538.973 321.385 538.613 321.742ZM540.572 336.065C540.116 335.605 539.782 335.151 539.572 334.703C539.359 334.258 539.239 333.83 539.211 333.421C539.183 333.016 539.212 332.643 539.299 332.3L540.584 332.529C540.556 332.727 540.535 332.964 540.521 333.24C540.504 333.519 540.555 333.825 540.675 334.161C540.794 334.501 541.04 334.858 541.411 335.232C541.907 335.731 542.438 336.024 543.003 336.109C543.568 336.194 544.108 335.98 544.624 335.467L545.882 334.218L545.801 334.137C545.619 334.179 545.381 334.219 545.086 334.255C544.797 334.292 544.469 334.255 544.102 334.144C543.741 334.033 543.36 333.776 542.959 333.372C542.463 332.873 542.135 332.306 541.977 331.674C541.821 331.044 541.854 330.389 542.075 329.71C542.3 329.033 542.735 328.374 543.379 327.733C544.014 327.103 544.677 326.666 545.368 326.422C546.063 326.175 546.737 326.122 547.39 326.264C548.046 326.402 548.632 326.732 549.15 327.254C549.551 327.657 549.801 328.043 549.902 328.413C550.008 328.783 550.039 329.115 549.995 329.41C549.957 329.704 549.918 329.94 549.88 330.116L549.977 330.213L550.96 329.236L551.873 330.155L545.505 336.482C544.973 337.011 544.42 337.32 543.846 337.409C543.273 337.504 542.707 337.426 542.148 337.175C541.589 336.929 541.063 336.559 540.572 336.065ZM543.942 332.652C544.321 333.034 544.729 333.27 545.165 333.36C545.601 333.449 546.052 333.4 546.516 333.211C546.98 333.023 547.44 332.701 547.897 332.247C548.343 331.804 548.67 331.346 548.878 330.873C549.085 330.399 549.155 329.935 549.087 329.479C549.019 329.024 548.792 328.602 548.408 328.215C548.008 327.812 547.572 327.578 547.101 327.512C546.632 327.449 546.159 327.521 545.682 327.728C545.207 327.939 544.76 328.252 544.341 328.668C543.911 329.095 543.597 329.54 543.4 330.003C543.209 330.466 543.151 330.924 543.227 331.377C543.309 331.829 543.547 332.255 543.942 332.652ZM547.412 338.047L553.603 331.896L554.548 332.848L548.357 338.999L547.412 338.047ZM555.115 331.355C554.931 331.169 554.836 330.947 554.828 330.687C554.824 330.43 554.91 330.213 555.088 330.037C555.265 329.861 555.482 329.776 555.739 329.782C555.999 329.791 556.221 329.888 556.405 330.073C556.589 330.259 556.684 330.48 556.688 330.737C556.696 330.997 556.61 331.215 556.433 331.391C556.256 331.567 556.037 331.651 555.777 331.642C555.52 331.636 555.3 331.54 555.115 331.355ZM554.757 337.992L551.033 341.692L550.088 340.741L556.279 334.59L557.192 335.509L556.225 336.47L556.305 336.551C556.763 336.383 557.235 336.353 557.719 336.459C558.207 336.562 558.682 336.848 559.147 337.315C559.563 337.734 559.842 338.186 559.982 338.672C560.125 339.154 560.11 339.655 559.937 340.174C559.767 340.691 559.418 341.21 558.892 341.734L554.958 345.642L554.013 344.691L557.882 340.847C558.368 340.363 558.622 339.861 558.642 339.338C558.665 338.813 558.458 338.331 558.02 337.89C557.718 337.586 557.383 337.38 557.014 337.272C556.647 337.166 556.269 337.17 555.881 337.284C555.492 337.398 555.118 337.634 554.757 337.992ZM559.135 350.104C558.542 349.508 558.162 348.862 557.996 348.168C557.835 347.474 557.876 346.774 558.119 346.067C558.368 345.361 558.809 344.693 559.443 344.063C560.078 343.433 560.751 342.993 561.465 342.743C562.183 342.494 562.885 342.443 563.57 342.59C564.261 342.736 564.884 343.089 565.439 343.648C565.76 343.971 566.022 344.342 566.227 344.764C566.432 345.185 566.542 345.645 566.556 346.143C566.573 346.638 566.46 347.159 566.218 347.705C565.975 348.25 565.564 348.81 564.987 349.384L564.584 349.784L559.842 345.012L560.664 344.195L564.445 348C564.794 347.653 565.036 347.274 565.172 346.861C565.31 346.452 565.331 346.041 565.236 345.628C565.143 345.218 564.926 344.841 564.585 344.497C564.208 344.118 563.788 343.884 563.325 343.794C562.868 343.704 562.416 343.734 561.971 343.882C561.526 344.031 561.133 344.274 560.792 344.613L560.243 345.158C559.776 345.623 559.46 346.097 559.295 346.581C559.135 347.066 559.115 347.537 559.234 347.995C559.356 348.451 559.607 348.871 559.989 349.255C560.237 349.505 560.497 349.696 560.767 349.828C561.042 349.96 561.324 350.03 561.614 350.036C561.906 350.04 562.199 349.975 562.494 349.842L563.149 351.017C562.742 351.23 562.306 351.34 561.843 351.346C561.382 351.35 560.919 351.25 560.453 351.045C559.991 350.837 559.551 350.523 559.135 350.104ZM565.698 356.711C565.105 356.114 564.726 355.469 564.559 354.774C564.398 354.08 564.439 353.38 564.683 352.673C564.931 351.967 565.373 351.299 566.007 350.669C566.641 350.039 567.315 349.599 568.028 349.35C568.747 349.1 569.449 349.049 570.134 349.196C570.824 349.343 571.447 349.696 572.003 350.254C572.323 350.577 572.586 350.949 572.791 351.37C572.995 351.791 573.105 352.251 573.12 352.749C573.137 353.245 573.024 353.765 572.781 354.311C572.538 354.856 572.128 355.416 571.55 355.99L571.147 356.391L566.406 351.618L567.228 350.801L571.008 354.606C571.358 354.259 571.6 353.88 571.735 353.468C571.873 353.058 571.895 352.647 571.799 352.235C571.707 351.824 571.49 351.447 571.148 351.103C570.772 350.725 570.352 350.49 569.889 350.4C569.431 350.31 568.98 350.34 568.535 350.488C568.09 350.637 567.696 350.881 567.355 351.22L566.807 351.764C566.339 352.229 566.023 352.703 565.858 353.188C565.699 353.672 565.678 354.143 565.797 354.602C565.919 355.057 566.171 355.477 566.553 355.862C566.801 356.111 567.06 356.302 567.33 356.435C567.606 356.567 567.888 356.636 568.177 356.642C568.469 356.646 568.763 356.581 569.058 356.448L569.713 357.623C569.305 357.836 568.869 357.946 568.406 357.953C567.945 357.957 567.482 357.856 567.017 357.651C566.554 357.443 566.115 357.13 565.698 356.711ZM569.812 360.593L576.003 354.442L576.916 355.361L575.981 356.29L576.045 356.354C576.463 356.163 576.915 356.12 577.399 356.226C577.884 356.332 578.31 356.571 578.679 356.941C578.748 357.011 578.833 357.1 578.935 357.207C579.036 357.315 579.111 357.398 579.159 357.457L578.192 358.418C578.168 358.378 578.106 358.292 578.008 358.161C577.914 358.029 577.805 357.9 577.679 357.774C577.38 357.473 577.05 357.267 576.689 357.156C576.333 357.045 575.977 357.03 575.621 357.112C575.269 357.194 574.954 357.374 574.675 357.652L570.757 361.544L569.812 360.593ZM574.008 364.816L580.199 358.665L581.144 359.616L574.953 365.767L574.008 364.816ZM581.711 358.123C581.527 357.938 581.431 357.715 581.424 357.456C581.419 357.198 581.506 356.982 581.683 356.806C581.861 356.629 582.078 356.544 582.335 356.551C582.595 356.559 582.817 356.657 583.001 356.842C583.185 357.027 583.279 357.249 583.284 357.506C583.291 357.766 583.206 357.984 583.029 358.16C582.851 358.336 582.633 358.42 582.373 358.411C582.116 358.405 581.895 358.309 581.711 358.123ZM581.353 364.76L577.629 368.461L576.684 367.509L582.875 361.358L583.788 362.277L582.82 363.238L582.901 363.319C583.359 363.152 583.831 363.121 584.315 363.227C584.802 363.331 585.278 363.616 585.743 364.084C586.159 364.503 586.437 364.955 586.578 365.44C586.721 365.923 586.706 366.424 586.533 366.943C586.362 367.459 586.014 367.979 585.487 368.502L581.553 372.411L580.608 371.46L584.478 367.615C584.964 367.132 585.217 366.629 585.238 366.107C585.261 365.582 585.054 365.099 584.616 364.659C584.314 364.355 583.979 364.149 583.609 364.041C583.243 363.935 582.865 363.939 582.476 364.053C582.088 364.167 581.713 364.403 581.353 364.76ZM583.312 379.083C582.856 378.623 582.523 378.17 582.312 377.722C582.1 377.276 581.979 376.849 581.951 376.439C581.923 376.034 581.952 375.661 582.039 375.318L583.324 375.547C583.296 375.745 583.276 375.982 583.261 376.258C583.244 376.537 583.296 376.844 583.415 377.179C583.534 377.519 583.78 377.876 584.151 378.25C584.647 378.75 585.178 379.042 585.743 379.127C586.308 379.212 586.848 378.998 587.364 378.485L588.622 377.236L588.542 377.155C588.359 377.197 588.121 377.237 587.826 377.273C587.537 377.31 587.209 377.273 586.842 377.162C586.481 377.051 586.1 376.794 585.7 376.391C585.203 375.891 584.875 375.325 584.717 374.692C584.561 374.062 584.594 373.407 584.816 372.728C585.04 372.051 585.475 371.392 586.12 370.751C586.754 370.121 587.417 369.684 588.109 369.44C588.803 369.193 589.477 369.14 590.13 369.282C590.786 369.42 591.373 369.75 591.891 370.272C592.291 370.675 592.542 371.061 592.642 371.431C592.748 371.801 592.779 372.133 592.735 372.428C592.697 372.722 592.659 372.958 592.621 373.135L592.717 373.231L593.7 372.254L594.613 373.173L588.245 379.501C587.713 380.029 587.16 380.338 586.587 380.427C586.013 380.522 585.447 380.444 584.888 380.193C584.329 379.947 583.804 379.577 583.312 379.083ZM586.682 375.671C587.061 376.052 587.469 376.288 587.905 376.378C588.342 376.467 588.792 376.418 589.256 376.229C589.72 376.041 590.18 375.719 590.637 375.266C591.083 374.822 591.41 374.364 591.618 373.891C591.826 373.417 591.895 372.953 591.827 372.497C591.759 372.042 591.533 371.62 591.148 371.234C590.748 370.83 590.312 370.596 589.841 370.53C589.372 370.467 588.899 370.539 588.422 370.747C587.947 370.957 587.5 371.27 587.081 371.686C586.651 372.114 586.337 372.559 586.14 373.021C585.949 373.484 585.891 373.942 585.967 374.395C586.049 374.848 586.287 375.273 586.682 375.671Z" fill="#D0E6A4"/>
</g>
</g>
<defs>
<clipPath id="clip0_1_2">
<rect width="878" height="879" fill="white"/>
</clipPath>
</defs>
</svg>
