<svg id="erTBxqcpGyZ1" xmlns="http://www.w3.org/2000/svg" xmlns:xlink="http://www.w3.org/1999/xlink" viewBox="0 0 878 879" shape-rendering="geometricPrecision" text-rendering="geometricPrecision"><g clip-path="url(#erTBxqcpGyZ67)"><g><path d="M512.76,74.0144L439.746,1L366.732,74.0144l73.014,73.0146L512.76,74.0144Z" fill="none" stroke="#9eaa85" stroke-width="0.930255"/><path d="M366.731,220.043l-73.014-73.014-73.014,73.014l73.014,73.015l73.014-73.015Z" fill="none" stroke="#9eaa85" stroke-width="0.930255"/><path d="M220.702,366.072l-73.014-73.014-73.0144,73.014l73.0144,73.015l73.014-73.015Z" fill="none" stroke="#9eaa85" stroke-width="0.930255"/><path d="M366.731,512.979l-73.014-73.014-73.014,73.014l73.014,73.015l73.014-73.015Z" fill="none" stroke="#9eaa85" stroke-width="0.930255"/><path d="M513.199,366.511l-73.014-73.014-73.014,73.014l73.014,73.015l73.014-73.015Z" fill="none" stroke="#9eaa85" stroke-width="0.930255"/><path d="M585.775,147.029L512.761,74.0146L439.747,147.029l73.014,73.014l73.014-73.014Z" fill="none" stroke="#9eaa85" stroke-width="0.930255"/><path d="M439.745,293.058l-73.014-73.014-73.014,73.014l73.014,73.015l73.014-73.015Z" fill="none" stroke="#9eaa85" stroke-width="0.930255"/><path d="M293.716,439.087l-73.014-73.014-73.014,73.014l73.014,73.015l73.014-73.015Z" fill="none" stroke="#9eaa85" stroke-width="0.930255"/><path d="M439.745,585.993l-73.014-73.014-73.014,73.014l73.014,73.015l73.014-73.015Z" fill="none" stroke="#9eaa85" stroke-width="0.930255"/><path d="M586.213,439.526l-73.014-73.014-73.014,73.014l73.014,73.015l73.014-73.015Z" fill="none" stroke="#9eaa85" stroke-width="0.930255"/><path d="M731.804,293.058L658.79,220.044l-73.014,73.014l73.014,73.015l73.014-73.015Z" fill="none" stroke="#9eaa85" stroke-width="0.930255"/><path d="M658.789,220.043l-73.014-73.014-73.014,73.014l73.014,73.015l73.014-73.015Z" fill="none" stroke="#9eaa85" stroke-width="0.930255"/><path d="M877.833,439.087l-73.014-73.014-73.014,73.014l73.014,73.015l73.014-73.015Z" fill="none" stroke="#9eaa85" stroke-width="0.930255"/><path d="M804.819,366.072l-73.014-73.014-73.014,73.014l73.014,73.015l73.014-73.015Z" fill="none" stroke="#9eaa85" stroke-width="0.930255"/><path d="M731.584,585.336L658.57,512.322l-73.014,73.014l73.014,73.015l73.014-73.015Z" fill="none" stroke="#9eaa85" stroke-width="0.930255"/><path d="M585.556,731.365l-73.014-73.014-73.014,73.014l73.014,73.015l73.014-73.015Z" fill="none" stroke="#9eaa85" stroke-width="0.930255"/><path d="M512.76,220.043l-73.014-73.014-73.014,73.014l73.014,73.015l73.014-73.015Z" fill="none" stroke="#9eaa85" stroke-width="0.930255"/><path d="M366.731,366.072l-73.014-73.014-73.014,73.014l73.014,73.015l73.014-73.015Z" fill="none" stroke="#9eaa85" stroke-width="0.930255"/><path d="M220.263,512.54l-73.014-73.014L74.2346,512.54l73.0144,73.015l73.014-73.015Z" fill="none" stroke="#9eaa85" stroke-width="0.930255"/><path d="M366.731,659.008l-73.014-73.014-73.014,73.014l73.014,73.015l73.014-73.015Z" fill="none" stroke="#9eaa85" stroke-width="0.930255"/><path d="M513.199,512.54l-73.014-73.014-73.014,73.014l73.014,73.015l73.014-73.015Z" fill="none" stroke="#9eaa85" stroke-width="0.930255"/><path d="M658.789,366.072l-73.014-73.014-73.014,73.014l73.014,73.015l73.014-73.015Z" fill="none" stroke="#9eaa85" stroke-width="0.930255"/><path d="M804.819,512.102l-73.014-73.014-73.014,73.014l73.014,73.015l73.014-73.015Z" fill="none" stroke="#9eaa85" stroke-width="0.930255"/><path d="M658.571,658.35l-73.014-73.014-73.014,73.014l73.014,73.015l73.014-73.015Z" fill="none" stroke="#9eaa85" stroke-width="0.930255"/><path d="M512.541,804.38l-73.014-73.014-73.014,73.014l73.014,73.015l73.014-73.015Z" fill="none" stroke="#9eaa85" stroke-width="0.930255"/><path d="M439.745,147.029L366.731,74.0146L293.717,147.029l73.014,73.014l73.014-73.014Z" fill="none" stroke="#9eaa85" stroke-width="0.930255"/><path d="M293.716,293.058l-73.014-73.014-73.014,73.014l73.014,73.015l73.014-73.015Z" fill="none" stroke="#9eaa85" stroke-width="0.930255"/><path d="M147.249,439.526L74.2344,366.512L1.21995,439.526L74.2344,512.541l73.0146-73.015Z" fill="none" stroke="#9eaa85" stroke-width="0.930255"/><path d="M293.716,585.994L220.702,512.98l-73.014,73.014l73.014,73.015l73.014-73.015Z" fill="none" stroke="#9eaa85" stroke-width="0.930255"/><path d="M440.184,439.526L367.17,366.512l-73.014,73.014l73.014,73.015l73.014-73.015Z" fill="none" stroke="#9eaa85" stroke-width="0.930255"/><path d="M585.775,293.058l-73.014-73.014-73.014,73.014l73.014,73.015l73.014-73.015Z" fill="none" stroke="#9eaa85" stroke-width="0.930255"/><path d="M731.804,439.087L658.79,366.073l-73.014,73.014l73.014,73.015l73.014-73.015Z" fill="none" stroke="#9eaa85" stroke-width="0.930255"/><path d="M658.571,512.321l-73.014-73.014-73.014,73.014l73.014,73.015l73.014-73.015Z" fill="none" stroke="#9eaa85" stroke-width="0.930255"/><path d="M512.322,658.57l-73.014-73.014-73.014,73.014l73.014,73.015l73.014-73.015Z" fill="none" stroke="#9eaa85" stroke-width="0.930255"/><path d="M585.555,585.336l-73.014-73.014-73.014,73.014l73.014,73.015l73.014-73.015Z" fill="none" stroke="#9eaa85" stroke-width="0.930255"/><path d="M439.526,731.365l-73.014-73.014-73.014,73.014l73.014,73.015l73.014-73.015Z" fill="none" stroke="#9eaa85" stroke-width="0.930255"/><path d="M476.363,329.675l-36.178-36.178-36.178,36.178l36.178,36.179l36.178-36.179Z" fill="none" stroke="#9eaa85" stroke-width="0.930255"/><path d="M476.363,329.675l-36.178-36.178-36.178,36.178l36.178,36.179l36.178-36.179Z" fill="none" stroke="#9eaa85" stroke-width="0.930255"/><path d="M403.129,402.909l-36.178-36.178-36.178,36.178l36.178,36.179l36.178-36.179Z" fill="none" stroke="#9eaa85" stroke-width="0.930255"/><path d="M548.939,402.251l-36.178-36.178-36.178,36.178l36.178,36.179l36.178-36.179Z" fill="none" stroke="#9eaa85" stroke-width="0.930255"/><path d="M476.801,402.47l-36.178-36.178-36.178,36.178l36.178,36.179l36.178-36.179Z" fill="none" stroke="#9eaa85" stroke-width="0.930255"/><path d="M402.691,475.704l-36.178-36.178-36.178,36.178l36.178,36.179l36.178-36.179Z" fill="none" stroke="#9eaa85" stroke-width="0.930255"/><path d="M548.939,474.608L512.761,438.43l-36.178,36.178l36.178,36.179l36.178-36.179Z" fill="none" stroke="#9eaa85" stroke-width="0.930255"/><path d="M512.541,365.854l-36.178-36.178-36.178,36.178l36.178,36.179l36.178-36.179Z" fill="none" stroke="#9eaa85" stroke-width="0.930255"/><path d="M439.965,439.745l-36.178-36.178-36.178,36.178l36.178,36.179l36.178-36.179Z" fill="none" stroke="#9eaa85" stroke-width="0.930255"/><path d="M585.117,438.429l-36.178-36.178-36.178,36.178l36.178,36.179l36.178-36.179Z" fill="none" stroke="#9eaa85" stroke-width="0.930255"/><path d="M475.924,476.143l-36.178-36.178-36.178,36.178l36.178,36.179l36.178-36.179Z" fill="none" stroke="#9eaa85" stroke-width="0.930255"/><path d="M512.249,512.175l-36.178-36.178-36.178,36.178l36.178,36.179l36.178-36.179Z" fill="none" stroke="#9eaa85" stroke-width="0.930255"/><path d="M475.046,549.377l-36.178-36.178-36.178,36.178l36.178,36.179l36.178-36.179Z" fill="none" stroke="#9eaa85" stroke-width="0.930255"/><path d="M439.745,512.321l-36.178-36.178-36.178,36.178L403.567,548.5l36.178-36.179Z" fill="none" stroke="#9eaa85" stroke-width="0.930255"/><path d="M220.702,659.009c121.096,121.096,317.43,121.096,438.526,0s121.096-317.43,0-438.526c-121.096-121.0959-317.43-121.0959-438.526,0-121.0959,121.096-121.0959,317.43,0,438.526Z" fill="none" stroke="#9eaa85" stroke-width="0.930255"/><path d="M439.746,439.964c60.547,60.548,158.715,60.548,219.262,0c60.548-60.547,60.548-158.715,0-219.262-60.547-60.548-158.715-60.548-219.262,0-60.548,60.547-60.548,158.715,0,219.262Z" fill="none" stroke="#9eaa85" stroke-width="0.930255"/><path d="M220.483,659.227c60.547,60.548,158.715,60.548,219.262,0c60.548-60.547,60.548-158.715,0-219.262-60.547-60.548-158.715-60.548-219.262,0-60.548,60.547-60.548,158.715,0,219.262Z" fill="none" stroke="#9eaa85" stroke-width="0.930255"/><path d="M439.089,658.569c60.547,60.548,158.715,60.548,219.262,0c60.548-60.547,60.548-158.715,0-219.262-60.547-60.548-158.715-60.548-219.262,0-60.548,60.547-60.548,158.715,0,219.262Z" fill="none" stroke="#9eaa85" stroke-width="0.930255"/><path d="M220.483,439.964c60.547,60.548,158.715,60.548,219.262,0c60.548-60.547,60.548-158.715,0-219.262-60.547-60.548-158.715-60.548-219.262,0-60.548,60.547-60.548,158.715,0,219.262Z" fill="none" stroke="#9eaa85" stroke-width="0.930255"/><rect id="erTBxqcpGyZ59" width="204.403" height="101.314" rx="0" ry="0" transform="matrix(-.707169-.707045 0.707045-.707169 366.375627 656.997995)" opacity="0" fill="none" stroke="#d0e6a4" stroke-width="4"/><path id="erTBxqcpGyZ60" d="M285.809,509.008l1.089,1.096-.296,2.12-.083.563-.46,3.18-1.089-1.096.312-2.105.082-.53.445-3.228Zm5.488,2.428c-.871.865-1.779,1.455-2.726,1.771-.946.316-1.864.37-2.752.164-.889-.207-1.683-.662-2.383-1.366-.699-.704-1.149-1.501-1.35-2.391-.2-.89-.14-1.807.182-2.751.322-.945.918-1.849,1.789-2.714.87-.865,1.779-1.456,2.725-1.771.947-.316,1.864-.371,2.753-.164.888.206,1.682.661,2.382,1.365.699.704,1.149,1.501,1.35,2.391s.14,1.807-.182,2.752c-.321.944-.918,1.849-1.788,2.714Zm-.961-.967c.715-.71,1.199-1.429,1.453-2.157.257-.725.31-1.416.159-2.073-.147-.654-.47-1.231-.966-1.73-.497-.5-1.073-.828-1.729-.982-.653-.152-1.344-.104-2.073.146-.727.252-1.448.733-2.162,1.443-.715.71-1.201,1.428-1.458,2.153-.254.727-.307,1.418-.159,2.072.15.657.474,1.235.971,1.735.496.5,1.071.826,1.724.978.656.155,1.347.106,2.074-.146.729-.249,1.451-.729,2.166-1.439Zm4.783,8.006l3.66-3.636.945.951-6.191,6.151-.945-.951l1.048-1.041-.064-.064c-.459.167-.951.207-1.475.119-.522-.09-1.016-.369-1.48-.836-.385-.387-.642-.815-.771-1.284-.127-.472-.104-.965.069-1.479.176-.516.527-1.036,1.053-1.559l3.934-3.909.945.952-3.869,3.844c-.451.449-.686.933-.704,1.452-.015.522.174.981.566,1.376.235.237.535.417.898.541.367.127.758.15,1.173.068.418-.079.821-.31,1.208-.695Zm1.81,7.175c-.39-.393-.67-.822-.84-1.289-.167-.469-.203-.938-.108-1.406.098-.471.349-.907.752-1.308.355-.352.711-.568,1.071-.647.361-.082.722-.069,1.08.04.359.108.709.273,1.051.493.348.221.683.457,1.006.707.423.328.762.597,1.018.806.262.21.477.338.646.384.171.049.333-.003.487-.155l.032-.032c.397-.395.598-.811.602-1.247.007-.434-.207-.87-.642-1.308-.451-.454-.904-.712-1.36-.772-.455-.06-.847-.031-1.177.089l-.575-1.224c.537-.212,1.043-.288,1.52-.228.482.061.923.209,1.324.446.406.237.764.512,1.074.824.198.198.4.451.608.757.214.306.368.652.463,1.038.098.389.081.809-.052,1.261-.133.453-.445.923-.937,1.411l-4.079,4.053-.945-.951.838-.833-.048-.048c-.198.069-.449.104-.751.106-.303.001-.632-.069-.988-.213-.356-.143-.712-.394-1.07-.754Zm.998-.704c.374.376.763.62,1.167.731.407.114.793.12,1.157.02.367-.098.68-.275.938-.532l.871-.865c-.089.008-.221-.037-.398-.134-.171-.097-.359-.219-.565-.367-.2-.148-.394-.295-.581-.44-.182-.145-.33-.262-.445-.351-.278-.215-.56-.394-.846-.537-.281-.143-.558-.209-.831-.199-.268.009-.523.134-.764.375-.331.328-.459.699-.386,1.111.079.413.307.809.683,1.188Zm12.891-2.117l-8.255,8.202-.945-.952l8.255-8.201.945.951Zm-6.524,9.944l6.191-6.151.945.951-6.191,6.151-.945-.951Zm7.704-6.693c-.185-.185-.28-.408-.287-.668-.005-.257.081-.473.259-.65.177-.176.394-.261.651-.255.26.009.482.106.666.292.185.185.279.406.284.664.007.259-.078.477-.256.654-.177.176-.396.26-.655.251-.257-.007-.478-.102-.662-.288Zm3.838,5.928l-.806.801-3.187-3.209.806-.801l3.187,3.209Zm-.775-3.747l.945.951-5.901,5.863c-.268.267-.431.506-.488.717-.052.212-.039.402.038.571.083.169.193.323.332.463.104.105.195.185.273.242.08.054.144.097.192.129l-.662,1.043c-.089-.041-.202-.107-.341-.198-.142-.089-.301-.222-.477-.4-.267-.268-.471-.589-.612-.962-.138-.37-.173-.757-.104-1.161.071-.402.286-.782.646-1.139l6.159-6.119Zm-5.707,14.248c-.16-.161-.29-.318-.388-.471-.101-.151-.164-.262-.188-.334l1.079-.592c.17.29.352.516.544.677.192.162.428.24.706.235.279.001.633-.097,1.062-.293l.66-.304l3.949-8.472l1.025,1.032-3.236,6.61.064.065l6.632-3.193l1.025,1.032-9.705,4.42c-.437.2-.848.316-1.231.35-.385.036-.744-.011-1.076-.14-.329-.127-.636-.335-.922-.622Zm11.626,7.059l-1.041-1.048l11.266-5.171l1.026,1.032-5.244,11.233-1.041-1.048l4.498-9.371-.064-.065-9.4,4.438Zm3.609-2.817l4.197,4.224-.887.881-4.196-4.224.886-.881Zm12.709,9.631l-1.091-.614c.089-.195.149-.412.179-.65.036-.239.01-.49-.078-.756-.087-.265-.268-.536-.543-.813-.377-.379-.778-.608-1.204-.687-.42-.079-.763.013-1.029.278-.236.235-.338.506-.304.814s.187.691.458,1.147l.688,1.143c.415.687.62,1.304.612,1.85-.004.544-.222,1.031-.655,1.461-.355.352-.773.565-1.256.638-.479.076-.98.013-1.502-.189-.521-.203-1.021-.545-1.499-1.026-.627-.631-1.01-1.29-1.147-1.976s.003-1.346.421-1.979l1.122.678c-.247.417-.336.828-.265,1.233.074.407.304.806.691,1.195.441.444.885.702,1.332.776.452.074.811-.022,1.077-.286.215-.213.321-.468.316-.762-.001-.298-.121-.638-.358-1.022l-.783-1.272c-.429-.7-.635-1.324-.617-1.87.023-.547.248-1.032.676-1.456.349-.347.755-.556,1.219-.627.466-.068.946-.008,1.438.181.495.192.958.506,1.391.941.609.612.952,1.227,1.03,1.843.081.619-.025,1.222-.319,1.807Zm5.892,5.93l-1.091-.614c.089-.195.149-.412.179-.65.036-.239.01-.49-.078-.756-.087-.265-.269-.536-.544-.813-.376-.379-.777-.608-1.203-.687-.42-.079-.763.014-1.029.278-.237.235-.338.506-.304.814.034.309.186.691.458,1.147l.688,1.143c.415.687.619,1.304.612,1.85-.004.544-.223,1.031-.655,1.461-.355.352-.774.565-1.256.638-.48.077-.98.013-1.502-.189-.522-.203-1.021-.545-1.499-1.026-.628-.631-1.01-1.29-1.147-1.976s.003-1.346.42-1.979l1.123.678c-.248.417-.336.828-.265,1.233.074.407.304.806.691,1.195.441.444.884.702,1.332.776.452.074.811-.021,1.077-.286.215-.213.32-.467.316-.762-.002-.297-.121-.638-.358-1.022l-.784-1.272c-.429-.7-.634-1.324-.616-1.87.023-.546.248-1.032.675-1.456.35-.347.756-.556,1.22-.627.466-.068.945-.008,1.438.181.494.192.958.506,1.391.941.608.613.952,1.227,1.03,1.843.081.619-.025,1.222-.319,1.807Zm3.138,7.705l3.66-3.636.945.951-6.191,6.151-.945-.951l1.048-1.041-.064-.065c-.459.168-.951.208-1.475.12-.522-.09-1.016-.369-1.48-.836-.385-.387-.642-.815-.771-1.284-.127-.472-.104-.965.069-1.479.175-.516.527-1.036,1.053-1.559l3.934-3.909.945.952-3.869,3.844c-.452.449-.686.933-.704,1.452-.015.522.174.981.566,1.376.235.237.535.417.898.541.367.127.758.15,1.173.068.418-.079.821-.31,1.208-.695Zm.145,5.209l6.191-6.151.913.919-.935.929.064.064c.418-.191.87-.234,1.354-.128.485.106.911.344,1.28.715.069.07.154.159.256.266.101.108.176.191.224.25l-.967.961c-.024-.04-.086-.126-.184-.258-.094-.131-.203-.26-.329-.386-.299-.301-.629-.507-.99-.618-.356-.111-.712-.126-1.068-.044-.352.082-.667.262-.946.539l-3.918,3.893-.945-.951Zm5.861,6.189c-.39-.393-.67-.822-.84-1.289-.167-.469-.203-.938-.108-1.406.098-.471.349-.907.752-1.307.354-.353.711-.569,1.07-.648.362-.082.722-.068,1.081.04s.709.273,1.051.493c.348.221.683.457,1.006.707.422.328.762.597,1.018.807.262.209.477.337.646.383.171.049.333-.003.486-.155l.033-.032c.397-.395.598-.811.602-1.247.007-.434-.207-.87-.642-1.308-.452-.454-.905-.712-1.36-.772s-.847-.031-1.177.089l-.575-1.224c.536-.212,1.043-.288,1.52-.228.481.061.923.21,1.324.447.406.237.764.511,1.074.823.198.198.4.451.608.757.213.306.368.652.463,1.038.098.389.08.809-.052,1.261-.133.453-.445.923-.937,1.412l-4.079,4.052-.945-.951.838-.833-.048-.048c-.198.069-.449.104-.752.106-.302.001-.631-.069-.987-.212-.356-.144-.713-.395-1.07-.755Zm.998-.704c.374.376.763.62,1.167.731.407.114.792.12,1.157.02.367-.098.68-.275.938-.532l.87-.865c-.088.008-.22-.036-.397-.133-.171-.097-.359-.22-.565-.368-.201-.148-.394-.294-.581-.44-.182-.145-.33-.262-.445-.351-.278-.215-.56-.394-.846-.537-.281-.143-.558-.209-.831-.199-.268.01-.523.135-.765.375-.33.328-.459.699-.385,1.111.079.413.307.809.683,1.188Zm8.36,2.384l-3.724,3.701-.945-.952l6.191-6.151.913.919-.967.961.08.081c.458-.167.93-.198,1.414-.092.487.104.963.389,1.428.857.416.419.695.871.835,1.356.143.483.128.984-.045,1.503-.17.516-.519,1.036-1.046,1.559l-3.934,3.909-.945-.952l3.87-3.844c.486-.483.74-.986.76-1.508.023-.525-.184-1.008-.622-1.449-.302-.303-.637-.509-1.006-.617-.367-.106-.745-.102-1.133.012-.389.114-.764.35-1.124.707Zm4.297,12.032c-.576-.58-.936-1.216-1.078-1.908-.143-.691-.085-1.389.171-2.092.257-.704.694-1.363,1.312-1.977.629-.625,1.299-1.06,2.009-1.307.716-.247,1.417-.297,2.102-.15.691.147,1.314.5,1.869,1.059.433.435.742.907.928,1.417.185.509.244,1.02.175,1.531-.068.512-.269.986-.603,1.425l-.945-.952c.21-.353.3-.762.269-1.228-.025-.466-.246-.909-.662-1.328-.369-.371-.789-.6-1.26-.687-.466-.087-.951-.035-1.455.156-.498.191-.982.519-1.449.983-.479.476-.82.965-1.025,1.468-.203.505-.265.994-.186,1.465.081.475.309.9.683,1.276.245.247.511.429.798.545.286.116.579.164.879.144.3-.021.592-.114.877-.279l.945.951c-.419.31-.88.504-1.384.583-.499.078-1.006.03-1.522-.146-.511-.176-.994-.492-1.448-.949Zm6.38,6.421c-.593-.597-.973-1.242-1.139-1.936-.161-.694-.12-1.395.123-2.101.249-.706.69-1.375,1.325-2.005.634-.63,1.307-1.069,2.021-1.319.718-.249,1.42-.301,2.105-.154.691.147,1.314.5,1.869,1.059.321.322.583.694.788,1.115.205.422.315.881.329,1.38.017.495-.096,1.016-.338,1.561-.243.546-.653,1.106-1.231,1.68l-.403.4-4.742-4.772.823-.817l3.78,3.805c.349-.347.591-.727.727-1.139.138-.409.159-.82.064-1.233-.092-.41-.309-.787-.651-1.131-.377-.379-.796-.613-1.259-.703-.458-.09-.91-.061-1.355.088-.445.148-.838.392-1.179.731l-.548.545c-.468.464-.784.939-.949,1.423-.16.484-.18.956-.061,1.414.122.456.373.876.755,1.26.248.25.508.441.778.573.275.132.558.201.847.208.292.003.585-.061.88-.194l.655,1.175c-.407.213-.843.323-1.306.329-.461.004-.924-.097-1.39-.302-.462-.207-.902-.521-1.318-.94Z" opacity="0" fill="#d0e6a4"/><rect id="erTBxqcpGyZ61" width="204.403" height="101.314" rx="0" ry="0" transform="matrix(.706139-.708074 0.708074 0.706139 440.828623 584.561521)" opacity="0" fill="none" stroke="#d0e6a4" stroke-width="4"/><path id="erTBxqcpGyZ62" d="M495.939,596.44c-.453-.362-.964-.486-1.532-.372-.569.114-1.104.418-1.606.913-.367.362-.629.738-.787,1.128-.155.387-.208.76-.157,1.12.054.356.211.667.472.931.218.221.458.359.72.415.263.05.529.045.8-.015.268-.062.527-.15.777-.264.248-.116.468-.229.662-.341l1.064-.603c.272-.156.589-.315.952-.475.365-.164.755-.279,1.168-.346.412-.072.83-.053,1.253.057.422.11.825.359,1.208.748.441.447.723.968.845,1.56.124.59.068,1.213-.17,1.867-.235.652-.67,1.292-1.307,1.92-.593.585-1.201.996-1.824,1.233-.621.234-1.224.302-1.81.204-.583-.1-1.114-.361-1.593-.782l1.035-1.022c.336.287.696.442,1.082.466.385.019.769-.062,1.15-.241.382-.185.737-.44,1.066-.764.383-.378.666-.779.848-1.204.18-.427.249-.84.206-1.24-.045-.402-.217-.754-.515-1.056-.271-.275-.569-.423-.893-.444s-.664.038-1.022.178c-.357.139-.721.312-1.092.518l-1.307.714c-.831.453-1.605.692-2.323.72-.718.027-1.352-.239-1.903-.797-.457-.464-.731-.992-.821-1.585-.089-.598-.015-1.202.222-1.814.237-.617.62-1.187,1.149-1.708.534-.526,1.103-.899,1.707-1.117.602-.221,1.186-.286,1.753-.197.57.087,1.068.333,1.494.738l-.971.957Zm11.384,1.286c-.561.553-1.185.905-1.871,1.055-.684.148-1.382.099-2.093-.147-.708-.248-1.378-.694-2.011-1.336-.639-.647-1.079-1.327-1.32-2.042-.239-.716-.279-1.416-.122-2.098.16-.684.521-1.303,1.082-1.856.56-.554,1.183-.904,1.867-1.052.687-.151,1.386-.1,2.096.151.714.249,1.39.697,2.028,1.344.633.642,1.068,1.32,1.304,2.034.238.711.278,1.409.118,2.094-.158.682-.517,1.299-1.078,1.853Zm-.846-.858c.426-.42.669-.875.729-1.365s-.02-.978-.239-1.464-.533-.937-.943-1.353c-.409-.415-.857-.737-1.343-.965-.486-.229-.975-.318-1.469-.267-.493.05-.953.285-1.379.705s-.667.877-.724,1.369c-.057.493.025.983.247,1.472.221.489.537.942.946,1.357.41.415.856.736,1.34.961.483.226.97.312,1.46.26.491-.053.949-.29,1.375-.71Zm1.63-12.429l.798.809-3.349,3.304-.798-.809l3.349-3.304Zm3.782,8.528l-6.974-7.071c-.351-.356-.56-.735-.627-1.138-.067-.402-.025-.794.125-1.176s.373-.719.67-1.012c.235-.231.445-.401.63-.51.186-.108.331-.182.436-.222l.538,1.097c-.064.032-.151.078-.262.139-.107.058-.23.155-.367.29-.316.312-.465.616-.449.913.02.295.181.596.484.904l6.751,6.845-.955.941Zm.259-12.512l.798.809-3.22,3.176-.798-.81l3.22-3.175Zm-3.75.761l.955-.941l5.841,5.922c.266.27.504.433.715.491.212.052.402.04.571-.036.169-.082.324-.192.464-.33.106-.104.187-.195.243-.272.054-.08.098-.144.13-.192l1.04.666c-.041.088-.107.202-.199.34-.089.142-.223.3-.401.476-.27.266-.591.468-.964.608-.371.137-.758.17-1.162.1-.402-.072-.78-.289-1.137-.65l-6.096-6.182Zm12.722,2.648l-8.022-4.347l1.004-.989l6.035,3.432.064-.063-3.365-6.066l1.02-1.006l5.986,3.449.065-.064-3.333-6.066l1.004-.989l4.234,8.081-.938.925-6.067-3.433-.097.096l3.348,6.114-.938.926Zm9.82-9.398c-.394.388-.824.666-1.291.835-.47.165-.939.199-1.407.102-.471-.099-.906-.351-1.305-.756-.351-.356-.565-.714-.643-1.073-.081-.362-.066-.722.043-1.081.11-.358.276-.707.498-1.049.222-.346.459-.681.71-1.003.33-.421.6-.76.81-1.015.211-.261.34-.476.387-.644.049-.171-.002-.334-.154-.488l-.032-.032c-.393-.399-.808-.602-1.245-.607-.434-.009-.871.204-1.31.638-.456.449-.715.901-.777,1.356s-.034.848.084,1.178l-1.225.57c-.211-.537-.285-1.044-.223-1.52.063-.482.213-.923.452-1.323.238-.405.514-.762.827-1.071.199-.197.452-.399.759-.605.307-.213.654-.366,1.04-.459.389-.097.809-.078,1.261.057.452.134.921.448,1.408.942l4.037,4.094-.954.941-.83-.841-.049.048c.069.198.103.449.104.752c0,.302-.072.631-.216.986-.145.356-.398.711-.759,1.068Zm-.7-1.001c.377-.373.623-.761.735-1.164.115-.407.124-.792.024-1.157-.096-.368-.272-.681-.528-.94l-.861-.874c.007.088-.038.221-.136.397-.097.171-.22.359-.369.564-.149.2-.296.393-.442.579-.146.181-.264.329-.353.444-.216.277-.396.558-.54.844-.144.28-.211.557-.203.83.009.268.133.523.373.766.327.332.697.462,1.11.389.413-.077.81-.303,1.19-.678Zm5.147-3.672l-6.128-6.214.922-.909.926.938.064-.064c-.189-.419-.231-.871-.123-1.355s.348-.909.72-1.276c.07-.069.159-.154.267-.256.108-.101.192-.175.251-.223l.957.971c-.04.024-.126.085-.258.183-.132.093-.261.202-.388.327-.302.298-.509.627-.622.988-.112.355-.128.712-.047,1.068.08.352.259.668.536.948l3.878,3.932-.955.942Zm6.782-6.434c-.598.591-1.245.968-1.94,1.132-.695.159-1.395.115-2.1-.131-.706-.251-1.372-.695-2-1.332-.628-.636-1.065-1.312-1.312-2.026-.247-.719-.295-1.421-.146-2.106.149-.69.505-1.312,1.066-1.865.323-.319.696-.58,1.118-.784.422-.203.882-.311,1.38-.324.496-.015,1.016.1,1.561.345.545.244,1.103.657,1.675,1.237l.399.404-4.79,4.724-.814-.825l3.819-3.767c-.346-.35-.725-.594-1.136-.731-.409-.139-.82-.162-1.233-.068-.411.09-.788.306-1.134.647-.38.375-.616.794-.707,1.256-.092.458-.064.909.083,1.355s.389.84.727,1.182l.542.55c.463.47.936.788,1.42.954.484.162.955.184,1.414.066.456-.12.877-.37,1.263-.75.25-.248.442-.506.575-.776.134-.275.204-.557.211-.846.005-.292-.059-.586-.191-.881l1.178-.651c.212.409.32.845.325,1.308.002.461-.101.923-.307,1.388-.21.462-.525.9-.946,1.315Zm7.231-7.386l-8.171-8.285l5.001-4.932.877.89-3.997,3.942l2.761,2.8l3.738-3.687.878.89-3.738,3.687l2.777,2.815l4.061-4.005.878.89-5.065,4.995Zm3.948-11.267l3.686,3.738-.955.942-6.128-6.214.922-.91.958.971.081-.08c-.166-.459-.195-.93-.087-1.414.105-.487.393-.962.862-1.425.421-.415.874-.692,1.36-.83.483-.141.984-.125,1.502.05.516.173,1.034.523,1.556,1.052l3.893,3.948-.954.942-3.83-3.884c-.482-.488-.984-.743-1.506-.766-.525-.025-1.008.181-1.45.617-.305.301-.512.635-.622,1.004-.107.366-.104.744.008,1.133.113.389.347.765.704,1.126Zm14.329-1.906c-.461.454-.916.786-1.365.995-.446.211-.874.33-1.284.356-.405.027-.778-.004-1.12-.092l.234-1.284c.198.028.434.05.71.065.279.018.586-.032.921-.15.341-.118.699-.362,1.074-.732.502-.495.796-1.024.883-1.589.087-.564-.125-1.105-.636-1.623l-1.244-1.262-.081.079c.041.183.08.421.115.716.036.29-.003.618-.115.984-.112.361-.371.741-.775,1.14-.502.494-1.069.82-1.703.976-.63.154-1.285.118-1.964-.106-.676-.227-1.333-.664-1.971-1.311-.628-.637-1.063-1.301-1.304-1.994-.244-.696-.295-1.37-.151-2.022.141-.655.473-1.241.997-1.757.404-.399.792-.648,1.162-.747.37-.105.703-.135.997-.09.294.04.53.079.706.118l.097-.096-.973-.987.922-.91l6.304,6.392c.527.534.833,1.088.921,1.662.092.573.012,1.139-.241,1.697-.248.558-.62,1.082-1.116,1.572Zm-3.4-3.383c.383-.377.62-.784.712-1.22.091-.436.044-.887-.143-1.351-.187-.465-.507-.926-.959-1.385-.442-.448-.899-.776-1.371-.986-.473-.209-.937-.281-1.393-.214-.456.066-.878.291-1.266.674-.405.399-.641.834-.708,1.305-.065.468.005.941.211,1.42.208.475.52.923.935,1.344.425.431.869.747,1.331.945.462.194.92.253,1.373.179.453-.08.879-.317,1.278-.711Zm5.408-3.45l-6.128-6.213.955-.942l6.128,6.214-.955.941Zm-6.664-7.728c-.186.184-.409.279-.669.285-.257.003-.474-.084-.649-.262-.176-.178-.26-.395-.253-.652.01-.26.108-.482.294-.665.186-.184.408-.277.665-.281.26-.006.478.08.653.258.176.178.259.397.249.656-.007.257-.104.478-.29.661Zm6.636.383l3.686,3.738-.955.941-6.128-6.214.923-.909.957.971.081-.08c-.166-.459-.194-.931-.087-1.415.106-.487.393-.961.862-1.424.421-.415.874-.692,1.36-.831.483-.141.984-.124,1.502.051.516.172,1.034.523,1.556,1.051l3.894,3.949-.955.941-3.83-3.883c-.482-.488-.983-.744-1.506-.766-.524-.025-1.008.18-1.45.617-.305.3-.512.635-.622,1.004-.107.366-.104.744.008,1.133.113.389.347.764.704,1.126Zm12.128-4.333c-.599.591-1.245.968-1.94,1.132-.695.158-1.395.115-2.101-.131-.705-.252-1.372-.695-1.999-1.332-.628-.636-1.065-1.312-1.312-2.026-.247-.719-.296-1.422-.146-2.106.149-.69.504-1.312,1.065-1.865.324-.319.697-.581,1.119-.784s.882-.311,1.38-.324c.496-.015,1.016.1,1.561.345.544.244,1.103.657,1.674,1.237l.399.404-4.789,4.724-.814-.825l3.819-3.767c-.346-.35-.725-.594-1.136-.731-.409-.139-.82-.162-1.233-.069-.411.091-.789.307-1.134.648-.38.375-.616.793-.708,1.256-.091.458-.064.909.083,1.355.147.445.39.839.727,1.182l.543.55c.463.469.936.787,1.42.954.483.162.955.184,1.413.066.457-.12.878-.37,1.263-.75.251-.248.443-.506.576-.776.133-.275.204-.557.211-.846.005-.292-.059-.586-.191-.881l1.178-.651c.211.409.319.845.324,1.308.002.461-.1.923-.307,1.388-.209.462-.524.9-.945,1.315Zm6.631-6.539c-.599.591-1.246.968-1.941,1.132-.695.158-1.395.115-2.1-.131-.706-.252-1.372-.696-2-1.332-.628-.637-1.065-1.312-1.312-2.026-.246-.72-.295-1.422-.146-2.106.15-.69.505-1.312,1.066-1.865.323-.319.696-.581,1.118-.784s.882-.311,1.38-.324c.496-.015,1.016.1,1.561.344.545.245,1.103.658,1.675,1.237l.399.405-4.79,4.724-.814-.825l3.819-3.767c-.346-.35-.724-.594-1.136-.731-.409-.139-.82-.162-1.233-.069-.41.091-.788.307-1.133.647-.381.375-.617.794-.708,1.257-.092.457-.064.909.083,1.355.147.445.389.839.727,1.182l.542.55c.463.469.936.787,1.42.954.484.161.955.183,1.414.066.456-.12.877-.37,1.263-.75.251-.248.442-.506.576-.776.133-.275.203-.557.21-.846.005-.292-.059-.586-.19-.881l1.177-.651c.212.408.32.844.325,1.308.002.461-.1.923-.307,1.388-.21.462-.525.9-.945,1.315Zm3.897-4.099l-6.128-6.214.922-.909.926.938.065-.064c-.19-.419-.231-.871-.124-1.355.108-.484.348-.909.72-1.276.07-.069.159-.155.267-.256s.192-.175.251-.223l.957.971c-.04.024-.126.085-.258.183-.132.093-.261.202-.388.327-.302.298-.509.627-.621.988-.113.355-.129.712-.048,1.068.081.352.259.668.536.948l3.878,3.932-.955.942Zm4.239-4.18l-6.129-6.214.955-.942l6.128,6.214-.954.942Zm-6.664-7.728c-.187.183-.41.278-.669.284-.258.004-.474-.083-.649-.261-.176-.178-.26-.396-.253-.653.01-.26.108-.481.294-.665.186-.183.408-.277.665-.281.26-.006.477.08.653.258.175.178.258.397.248.657-.007.257-.103.477-.289.661Zm6.635.382l3.687,3.738-.955.942-6.128-6.214.922-.91.958.971.081-.08c-.166-.459-.195-.93-.087-1.415.105-.486.392-.961.862-1.424.42-.415.874-.692,1.359-.83.483-.141.984-.125,1.503.05.515.173,1.034.523,1.555,1.052l3.894,3.948-.955.942-3.83-3.884c-.481-.488-.983-.743-1.505-.766-.525-.025-1.008.181-1.451.617-.304.301-.512.635-.621,1.004-.107.366-.105.744.008,1.133.112.389.347.765.703,1.126Zm14.33-1.906c-.462.454-.916.786-1.365.995-.446.211-.874.33-1.284.356-.405.027-.778-.004-1.121-.092l.234-1.284c.198.028.435.05.711.065.278.018.585-.032.921-.15.341-.118.699-.362,1.074-.732.501-.495.796-1.024.883-1.589.087-.564-.125-1.106-.636-1.623l-1.245-1.263-.081.08c.042.183.08.421.116.716.035.29-.003.618-.115.984-.113.361-.371.741-.776,1.139-.501.495-1.069.821-1.702.977-.63.154-1.285.118-1.964-.106-.676-.227-1.333-.664-1.972-1.311-.627-.637-1.062-1.301-1.304-1.994-.244-.696-.294-1.37-.15-2.022.141-.655.473-1.241.996-1.757.405-.399.792-.648,1.163-.747.37-.105.702-.135.997-.09.294.04.529.079.706.118l.097-.096-.973-.987.922-.91l6.304,6.392c.526.534.833,1.088.92,1.662.093.573.012,1.139-.241,1.697-.247.558-.619,1.082-1.115,1.572Zm-3.4-3.383c.383-.378.62-.784.712-1.22.091-.436.043-.887-.144-1.351-.187-.465-.506-.927-.958-1.385-.442-.448-.899-.776-1.372-.986-.472-.209-.937-.281-1.392-.214-.456.066-.878.291-1.267.674-.404.399-.64.834-.708,1.305-.065.468.006.941.211,1.419.209.476.52.924.935,1.345.426.431.87.746,1.332.945.462.194.919.253,1.372.178.454-.079.88-.316,1.279-.71Z" opacity="0" fill="#d0e6a4"/><rect id="erTBxqcpGyZ63" width="204.403" height="101.314" rx="0" ry="0" transform="matrix(-.712332-.701842 0.701842-.712332 586.429795 437.45384)" opacity="0" fill="none" stroke="#d0e6a4" stroke-width="4"/><path id="erTBxqcpGyZ64" d="M501.78,292.119l-2.531-2.547l8.255-8.202l2.643,2.661c.796.8,1.311,1.65,1.547,2.548.238.895.2,1.8-.113,2.715-.311.913-.894,1.793-1.749,2.642-.859.855-1.752,1.437-2.677,1.747-.922.308-1.841.335-2.756.08-.913-.258-1.786-.805-2.619-1.644Zm-.651-2.429l1.474,1.484c.678.682,1.372,1.117,2.081,1.304s1.416.149,2.122-.114c.705-.262,1.394-.728,2.065-1.395.667-.662,1.132-1.341,1.397-2.036.267-.699.315-1.392.143-2.081-.169-.692-.574-1.36-1.214-2.005l-1.586-1.596-6.482,6.439Zm7.763,9.877c-.39-.392-.67-.822-.84-1.289-.167-.469-.203-.938-.108-1.406.098-.471.349-.907.752-1.307.354-.353.711-.569,1.071-.648.361-.082.722-.068,1.08.04.359.108.709.273,1.051.493.348.221.683.457,1.006.707.422.328.762.597,1.018.807.262.209.477.337.646.383.171.049.333-.003.486-.155l.033-.032c.397-.395.598-.811.602-1.247.007-.434-.207-.87-.642-1.308-.451-.454-.905-.711-1.36-.772-.455-.06-.847-.031-1.177.089l-.575-1.224c.537-.212,1.043-.288,1.52-.228.482.061.923.21,1.324.447.406.237.764.511,1.074.823.198.199.4.451.608.757.214.306.368.652.463,1.038.098.389.08.809-.052,1.261-.133.453-.445.923-.937,1.412l-4.079,4.052-.945-.951.838-.833-.048-.048c-.198.069-.449.104-.751.106-.303.001-.632-.069-.988-.212s-.713-.395-1.07-.755Zm.998-.704c.374.376.763.62,1.167.731.407.114.793.12,1.157.02.367-.098.68-.275.938-.532l.871-.865c-.089.008-.221-.036-.398-.133-.171-.097-.359-.22-.565-.368-.2-.148-.394-.294-.581-.44-.182-.145-.33-.262-.445-.351-.278-.215-.56-.394-.846-.537-.281-.143-.558-.209-.831-.199-.268.01-.523.135-.765.375-.33.328-.459.699-.385,1.112.079.412.307.808.683,1.187Zm12.557,1.675l-.806.801-3.188-3.209.806-.801l3.188,3.209Zm-.775-3.747l.945.951-5.901,5.863c-.269.267-.431.506-.488.717-.052.212-.039.402.038.571.082.169.193.323.332.463.104.105.195.186.272.242.08.054.145.097.193.129l-.663,1.043c-.088-.041-.201-.107-.34-.198-.142-.089-.301-.222-.477-.399-.267-.269-.471-.59-.612-.963-.138-.37-.173-.757-.105-1.161.071-.402.287-.781.647-1.139l6.159-6.119Zm-2.329,13.295c-.39-.392-.67-.822-.84-1.289-.167-.469-.203-.938-.108-1.406.098-.471.349-.907.752-1.307.354-.353.711-.569,1.071-.648.361-.082.722-.068,1.08.04.359.108.709.273,1.051.493.348.221.683.457,1.006.707.422.328.762.597,1.018.807.262.209.477.337.646.383.171.049.333-.003.486-.155l.033-.032c.397-.395.598-.811.602-1.247.007-.434-.207-.87-.642-1.308-.451-.454-.905-.711-1.36-.772-.455-.06-.847-.031-1.177.089l-.575-1.224c.537-.212,1.043-.288,1.52-.228.482.061.923.21,1.324.447.406.237.764.511,1.074.823.198.199.4.451.608.757.214.306.368.652.463,1.038.098.389.08.809-.052,1.261-.133.453-.445.923-.937,1.412l-4.079,4.052-.945-.951.838-.833-.048-.048c-.198.069-.449.104-.751.106-.303.001-.632-.069-.988-.212s-.713-.395-1.07-.755Zm.998-.704c.374.376.763.62,1.167.731.407.114.793.12,1.157.02.367-.098.68-.275.938-.532l.871-.865c-.089.008-.221-.036-.398-.133-.171-.097-.359-.22-.565-.368-.2-.148-.394-.294-.581-.44-.182-.145-.33-.262-.445-.351-.278-.215-.56-.394-.846-.537-.281-.143-.558-.209-.831-.199-.268.01-.523.135-.765.375-.33.328-.458.699-.385,1.112.079.412.307.808.683,1.187Zm6.991,8.455l8.255-8.202l4.949,4.982-.886.881-3.957-3.982-2.789,2.771l3.7,3.724-.887.881-3.7-3.724-2.805,2.787l4.02,4.047-.886.881-5.014-5.046Zm11.281,3.905l-3.724,3.701-.946-.952l6.192-6.151.913.919-.968.961.08.081c.459-.167.93-.198,1.415-.092.487.103.963.389,1.427.856.417.42.695.872.836,1.357.143.483.128.984-.045,1.503-.171.516-.519,1.036-1.046,1.559l-3.934,3.909-.945-.952l3.869-3.844c.487-.483.74-.986.761-1.508.023-.525-.185-1.008-.622-1.449-.302-.303-.638-.509-1.007-.618-.367-.105-.744-.101-1.133.013s-.763.35-1.123.707Zm1.959,14.323c-.456-.46-.79-.914-1-1.362-.213-.445-.333-.873-.361-1.282-.028-.405.001-.778.088-1.121l1.285.229c-.028.198-.049.435-.063.711-.017.279.034.585.154.921.119.34.365.697.736,1.071.496.499,1.027.792,1.592.877s1.105-.129,1.621-.642l1.258-1.249-.081-.081c-.182.042-.42.082-.715.118-.289.037-.617,0-.984-.111-.361-.111-.742-.368-1.143-.772-.496-.499-.824-1.066-.982-1.698-.156-.63-.123-1.285.098-1.964.225-.677.66-1.336,1.304-1.977.635-.63,1.298-1.067,1.989-1.311.695-.247,1.369-.3,2.022-.158.656.138,1.242.468,1.76.99.401.403.651.789.752,1.159.106.37.137.702.093.997-.038.294-.077.53-.115.706l.097.097.983-.977.913.919-6.368,6.327c-.532.529-1.085.838-1.659.927-.573.095-1.139.017-1.698-.234-.559-.246-1.085-.616-1.576-1.11Zm3.37-3.413c.379.382.787.618,1.223.708.436.089.887.04,1.351-.149.464-.188.924-.51,1.381-.964.446-.443.773-.901.981-1.374.207-.474.277-.938.209-1.394-.068-.455-.295-.877-.679-1.264-.4-.403-.836-.637-1.307-.703-.469-.063-.942.009-1.419.216-.475.211-.922.524-1.341.94-.43.427-.744.872-.941,1.335-.191.463-.249.921-.173,1.374.082.452.32.878.715,1.275Zm3.47,5.395l6.191-6.151.945.952-6.191,6.151-.945-.952Zm7.703-6.692c-.184-.186-.279-.408-.287-.668-.004-.257.082-.474.26-.65.177-.176.394-.261.651-.255.26.009.482.106.666.291.184.186.279.407.283.664.008.26-.078.478-.255.654s-.396.26-.656.251c-.257-.006-.477-.102-.662-.287Zm-.358,6.637l-3.724,3.7-.945-.951l6.191-6.151.913.919-.967.961.08.081c.458-.168.93-.198,1.414-.092.488.103.963.389,1.428.856.416.419.695.871.835,1.357.143.482.128.983-.045,1.502-.17.517-.519,1.036-1.045,1.56l-3.934,3.908-.945-.951l3.869-3.844c.486-.484.74-.986.76-1.509.023-.525-.184-1.007-.622-1.448-.302-.304-.637-.51-1.006-.618-.367-.106-.745-.102-1.133.012-.389.114-.763.35-1.124.708Zm4.378,12.112c-.593-.596-.973-1.242-1.139-1.936-.161-.694-.12-1.394.123-2.101.249-.706.69-1.374,1.324-2.004.635-.63,1.308-1.07,2.022-1.32.718-.249,1.42-.3,2.105-.153.691.146,1.314.499,1.869,1.058.321.323.583.694.788,1.116.205.421.315.881.329,1.379.017.495-.096,1.016-.338,1.562-.243.545-.654,1.105-1.231,1.679l-.403.4-4.742-4.772.822-.817L564.445,348c.349-.347.591-.726.727-1.139.138-.409.159-.82.064-1.233-.093-.41-.31-.787-.651-1.131-.377-.379-.797-.613-1.26-.703-.457-.09-.909-.06-1.354.088-.445.149-.838.392-1.179.731l-.549.545c-.467.465-.783.939-.948,1.423-.16.485-.18.956-.061,1.414.122.456.373.876.755,1.26.248.25.508.441.778.573.275.132.557.202.847.208.292.004.585-.061.88-.194l.655,1.175c-.407.213-.843.323-1.306.329-.461.004-.924-.096-1.39-.301-.462-.208-.902-.522-1.318-.941Zm6.563,6.607c-.593-.597-.972-1.242-1.139-1.937-.161-.694-.12-1.394.124-2.101.248-.706.69-1.374,1.324-2.004s1.308-1.07,2.021-1.319c.719-.25,1.421-.301,2.106-.154.69.147,1.313.5,1.869,1.058.32.323.583.695.788,1.116.204.421.314.881.329,1.379.017.496-.096,1.016-.339,1.562-.243.545-.653,1.105-1.231,1.679l-.403.401-4.741-4.773.822-.817l3.78,3.805c.35-.347.592-.726.727-1.138.138-.41.16-.821.064-1.233-.092-.411-.309-.788-.651-1.132-.376-.378-.796-.613-1.259-.703-.458-.09-.909-.06-1.354.088-.445.149-.839.393-1.18.732l-.548.544c-.468.465-.784.939-.949,1.424-.159.484-.18.955-.061,1.414.122.455.374.875.756,1.26.248.249.507.44.777.573.276.132.558.201.847.207.292.004.586-.061.881-.194l.655,1.175c-.408.213-.844.323-1.307.33-.461.004-.924-.097-1.389-.302-.463-.208-.902-.521-1.319-.94Zm4.114,3.882l6.191-6.151.913.919-.935.929.064.064c.418-.191.87-.234,1.354-.128.485.106.911.345,1.28.715.069.07.154.159.256.266.101.108.176.191.224.25l-.967.961c-.024-.04-.086-.126-.184-.257-.094-.132-.203-.261-.329-.387-.299-.301-.629-.507-.99-.618-.356-.111-.712-.126-1.068-.044-.352.082-.667.262-.946.54l-3.918,3.892-.945-.951Zm4.196,4.223l6.191-6.151.945.951-6.191,6.151-.945-.951Zm7.703-6.693c-.184-.185-.28-.408-.287-.667-.005-.258.082-.474.259-.65.178-.177.395-.262.652-.255.26.008.482.106.666.291s.278.407.283.664c.007.26-.078.478-.255.654-.178.176-.396.26-.656.251-.257-.006-.478-.102-.662-.288Zm-.358,6.637l-3.724,3.701-.945-.952l6.191-6.151.913.919-.968.961.081.081c.458-.167.93-.198,1.414-.092.487.104.963.389,1.428.857.416.419.694.871.835,1.356.143.483.128.984-.045,1.503-.171.516-.519,1.036-1.046,1.559l-3.934,3.909-.945-.951l3.87-3.845c.486-.483.739-.986.76-1.508.023-.525-.184-1.008-.622-1.448-.302-.304-.637-.51-1.007-.618-.366-.106-.744-.102-1.133.012-.388.114-.763.35-1.123.707Zm1.959,14.323c-.456-.46-.789-.913-1-1.361-.212-.446-.333-.873-.361-1.283-.028-.405.001-.778.088-1.121l1.285.229c-.028.198-.048.435-.063.711-.017.279.035.586.154.921.119.34.365.697.736,1.071.496.5,1.027.792,1.592.877s1.105-.129,1.621-.642l1.258-1.249-.08-.081c-.183.042-.421.082-.716.118-.289.037-.617,0-.984-.111-.361-.111-.742-.368-1.142-.771-.497-.5-.825-1.066-.983-1.699-.156-.63-.123-1.285.099-1.964.224-.677.659-1.336,1.304-1.977.634-.63,1.297-1.067,1.989-1.311.694-.247,1.368-.3,2.021-.158.656.138,1.243.468,1.761.99.4.403.651.789.751,1.159.106.37.137.702.093.997-.038.294-.076.53-.114.707l.096.096.983-.977.913.919-6.368,6.328c-.532.528-1.085.837-1.658.926-.574.095-1.14.017-1.699-.234-.559-.246-1.084-.616-1.576-1.11Zm3.37-3.412c.379.381.787.617,1.223.707.437.089.887.04,1.351-.149.464-.188.924-.51,1.381-.963.446-.444.773-.902.981-1.375.208-.474.277-.938.209-1.394-.068-.455-.294-.877-.679-1.263-.4-.404-.836-.638-1.307-.704-.469-.063-.942.009-1.419.217-.475.21-.922.523-1.341.939-.43.428-.744.873-.941,1.335-.191.463-.249.921-.173,1.374.082.453.32.878.715,1.276Z" opacity="0" fill="#d0e6a4"/><rect id="erTBxqcpGyZ65" width="204.403" height="101.314" rx="0" ry="0" transform="matrix(.709054-.705154 0.705154 0.709054 221.882389 365.913112)" opacity="0" fill="none" stroke="#d0e6a4" stroke-width="4"/><path id="erTBxqcpGyZ66" d="M287.802,362.419l1.003-.989l5.41,5.485c.559.567.924,1.204,1.096,1.912.172.703.143,1.421-.087,2.153-.233.73-.674,1.415-1.324,2.056s-1.341,1.073-2.074,1.296c-.736.22-1.455.24-2.158.061-.703-.184-1.334-.56-1.893-1.126l-5.41-5.486l1.003-.989l5.331,5.405c.399.404.843.677,1.332.817.486.137.983.134,1.491-.01.507-.149.991-.451,1.452-.906s.77-.935.926-1.44c.154-.508.164-1.005.031-1.491-.134-.491-.4-.938-.799-1.343l-5.33-5.405Zm10.694-3.715l-.618,1.088c-.195-.089-.412-.15-.65-.181-.238-.036-.49-.011-.756.075-.265.087-.537.267-.815.541-.38.375-.611.775-.691,1.2-.081.42.01.764.274,1.031.234.237.505.339.813.307.309-.033.691-.184,1.148-.454l1.146-.683c.689-.413,1.306-.615,1.853-.606.543.006,1.029.227,1.457.661.352.356.563.775.635,1.258.074.48.009.98-.196,1.501-.204.521-.548,1.019-1.03,1.495-.634.625-1.294,1.005-1.981,1.14-.687.134-1.346-.008-1.978-.428l.683-1.12c.416.249.826.339,1.231.27.408-.072.807-.301,1.198-.687.445-.439.706-.882.781-1.329.076-.452-.018-.811-.282-1.078-.212-.216-.466-.322-.761-.319-.297.001-.638.119-1.023.355l-1.275.778c-.702.427-1.326.63-1.872.61-.547-.025-1.031-.252-1.454-.681-.346-.351-.553-.758-.622-1.222-.067-.466-.005-.945.186-1.437.194-.494.509-.957.946-1.387.615-.607,1.231-.948,1.847-1.024.62-.079,1.222.03,1.806.326Zm9.039.853c-.599.59-1.245.968-1.94,1.132-.695.158-1.395.114-2.101-.132-.705-.251-1.372-.695-1.999-1.331-.628-.637-1.065-1.312-1.312-2.026-.247-.72-.296-1.422-.146-2.107.149-.69.504-1.311,1.065-1.864.324-.32.697-.581,1.119-.784.422-.204.882-.311,1.38-.324.496-.015,1.016.099,1.561.344.544.245,1.103.657,1.674,1.237l.399.405-4.789,4.724-.814-.826l3.819-3.766c-.346-.351-.725-.594-1.136-.731-.409-.139-.82-.162-1.233-.069-.411.091-.789.307-1.134.647-.38.375-.616.794-.708,1.257-.091.457-.063.909.083,1.354.147.446.39.84.727,1.183l.543.55c.463.469.936.787,1.42.954.483.161.955.183,1.414.066.456-.12.877-.37,1.262-.751.251-.247.443-.506.576-.775.133-.275.204-.557.211-.846.005-.292-.059-.586-.191-.882l1.178-.65c.211.408.32.844.324,1.308.002.46-.1.923-.307,1.388-.209.462-.524.9-.945,1.315Zm3.898-4.099l-6.129-6.214.923-.91.925.939.065-.064c-.19-.419-.231-.871-.123-1.355s.348-.909.72-1.277c.07-.069.159-.154.267-.255s.191-.175.251-.223l.957.971c-.04.024-.126.085-.258.183-.132.093-.262.202-.388.327-.302.298-.51.627-.622.988-.112.355-.128.711-.047,1.068.08.352.259.668.535.948l3.878,3.932-.954.942Zm7.572-7.468l-8.171-8.285l5-4.931.878.89-3.997,3.942l2.761,2.799l3.738-3.687.877.89-3.738,3.687l2.777,2.816l4.062-4.006.878.89-5.065,4.995Zm1.262-13.503l3.995,1.072-1.017-4.008l1.1-1.086l1.058,5.086l5.07,1.128-1.1,1.085-3.867-.942.89,3.879-1.101,1.085-1.09-5.054-5.038-1.16l1.1-1.085Zm13.867,3.179l-8.426-8.544.922-.91.973.987.114-.111c-.037-.177-.075-.411-.116-.7-.041-.295-.009-.624.095-.988.105-.369.359-.753.764-1.152.523-.516,1.113-.84,1.77-.972s1.334-.068,2.032.191c.697.259,1.367.715,2.011,1.368.649.658,1.1,1.339,1.352,2.042.25.701.307,1.379.171,2.034-.139.653-.467,1.235-.985,1.745-.399.394-.784.643-1.154.748-.373.102-.708.131-1.005.089-.3-.045-.54-.089-.722-.133l-.081.079l3.239,3.285-.954.942Zm-4.424-6.363c.463.469.94.816,1.431,1.039.489.22.965.301,1.429.243.461-.062.883-.281,1.266-.659.399-.393.629-.827.688-1.301.06-.479-.02-.964-.239-1.456-.219-.497-.546-.966-.983-1.409-.43-.437-.886-.764-1.367-.981-.48-.223-.957-.304-1.428-.243-.472.055-.91.283-1.315.682-.388.383-.618.803-.688,1.26-.072.455-.003.924.208,1.408.208.481.541.953.998,1.417Zm11.801-5.254c-.599.591-1.246.968-1.941,1.132-.695.159-1.395.115-2.1-.131-.706-.251-1.372-.695-2-1.332-.628-.636-1.065-1.312-1.312-2.026-.246-.719-.295-1.421-.146-2.106.15-.69.505-1.312,1.066-1.865.323-.319.696-.58,1.118-.784.422-.203.882-.311,1.38-.324.496-.015,1.016.1,1.561.345s1.103.657,1.675,1.237l.399.404-4.79,4.724-.814-.825l3.819-3.766c-.346-.351-.724-.595-1.136-.732-.409-.139-.82-.162-1.233-.068-.41.091-.788.306-1.133.647-.381.375-.617.794-.708,1.256-.092.458-.064.909.083,1.355s.389.84.727,1.182l.542.55c.463.47.937.788,1.42.954.484.162.955.184,1.414.066.456-.12.877-.37,1.263-.75.251-.248.443-.506.576-.776.133-.275.203-.557.21-.846.005-.292-.058-.586-.19-.881l1.177-.651c.212.409.32.845.325,1.308.002.461-.1.924-.307,1.388-.21.462-.525.9-.945,1.315Zm3.897-4.099l-6.128-6.214.922-.909.926.938.065-.063c-.19-.42-.231-.871-.124-1.355.108-.484.348-.91.72-1.277.07-.069.159-.154.267-.255s.192-.176.251-.224l.957.971c-.04.024-.126.085-.258.183-.132.093-.261.202-.388.327-.302.298-.509.627-.621.988-.113.356-.129.712-.048,1.069.081.351.259.667.536.948l3.878,3.932-.955.941Zm4.239-4.18l-6.129-6.214.955-.941l6.128,6.213-.954.942Zm-6.664-7.728c-.187.183-.41.278-.669.285-.258.003-.474-.084-.649-.262-.176-.178-.26-.396-.253-.653.01-.259.108-.481.294-.665.186-.183.408-.277.665-.28.26-.007.477.079.653.257.175.178.258.397.248.657-.007.257-.103.477-.289.661Zm12.1,2.622c-.599.59-1.246.968-1.94,1.132-.695.158-1.395.114-2.101-.131-.705-.252-1.372-.696-2-1.332-.627-.637-1.064-1.312-1.311-2.026-.247-.72-.296-1.422-.146-2.106.149-.691.504-1.312,1.065-1.865.324-.32.697-.581,1.119-.784.421-.203.882-.311,1.38-.324.495-.015,1.016.099,1.56.344.545.245,1.103.657,1.675,1.237l.399.405-4.79,4.724-.813-.826l3.818-3.766c-.345-.35-.724-.594-1.136-.731-.408-.139-.819-.162-1.233-.069-.41.091-.788.307-1.133.647-.38.375-.616.794-.708,1.257-.091.457-.064.909.083,1.354.147.446.389.84.727,1.183l.543.55c.463.469.936.787,1.42.954.483.161.954.183,1.413.066.456-.12.877-.37,1.263-.751.251-.247.443-.505.576-.775.133-.275.203-.557.211-.846.004-.292-.059-.586-.191-.882l1.178-.65c.211.408.319.844.324,1.308.002.46-.1.923-.307,1.388-.209.462-.524.9-.945,1.315Zm1.166-8.779l3.686,3.738-.955.942-6.128-6.214.923-.91.957.971.081-.08c-.166-.459-.194-.93-.087-1.414.106-.487.393-.962.862-1.425.421-.415.874-.691,1.36-.83.483-.141.984-.124,1.502.051.516.172,1.034.522,1.556,1.051l3.894,3.948-.955.942-3.83-3.884c-.482-.488-.983-.743-1.506-.765-.524-.026-1.008.18-1.45.616-.305.301-.512.635-.622,1.004-.107.367-.104.744.008,1.133.113.39.347.765.704,1.126Zm12.047-4.252c-.582.574-1.22.931-1.912,1.071s-1.389.08-2.092-.179c-.702-.259-1.359-.699-1.971-1.32-.623-.631-1.056-1.302-1.3-2.013-.244-.717-.292-1.418-.142-2.103.149-.69.504-1.311,1.065-1.865.437-.43.911-.738,1.421-.922s1.021-.24,1.532-.17c.511.071.985.273,1.422.609l-.955.941c-.352-.211-.761-.302-1.227-.274-.466.024-.91.243-1.331.658-.372.367-.602.786-.691,1.257-.089.465-.039.951.15,1.455.19.5.516.984.979,1.454.473.48.961.823,1.463,1.03.505.205.993.268,1.465.191.475-.08.901-.306,1.278-.678.249-.245.431-.51.548-.796s.166-.578.147-.879c-.019-.3-.111-.592-.275-.877l.955-.942c.307.42.5.882.577,1.386.076.499.026,1.006-.152,1.522-.177.51-.495.991-.954,1.444Zm6.445-6.356c-.599.591-1.246.968-1.941,1.132-.695.158-1.395.115-2.1-.131-.706-.252-1.372-.696-2-1.332-.628-.637-1.065-1.312-1.312-2.026-.246-.72-.295-1.422-.146-2.106.15-.69.505-1.312,1.066-1.865.323-.319.696-.581,1.118-.784s.882-.311,1.381-.324c.495-.015,1.015.099,1.56.344s1.103.658,1.675,1.237l.399.405-4.79,4.724-.814-.826l3.819-3.766c-.346-.35-.724-.594-1.136-.731-.409-.139-.82-.162-1.233-.069-.41.091-.788.307-1.133.647-.381.375-.617.794-.708,1.257-.092.457-.064.909.083,1.355.147.445.389.839.727,1.182l.543.55c.462.469.936.787,1.419.954.484.161.955.183,1.414.066.456-.12.877-.37,1.263-.751.251-.247.443-.505.576-.775.133-.275.203-.557.21-.846.005-.292-.058-.586-.19-.882l1.177-.65c.212.408.32.844.325,1.308.002.46-.1.923-.307,1.388-.21.462-.525.9-.945,1.315Z" opacity="0" fill="#d0e6a4"/></g><clipPath id="erTBxqcpGyZ67"><rect width="878" height="879" rx="0" ry="0" fill="#fff"/></clipPath></g>
<script><![CDATA[
!function(t,n){"object"==typeof exports&&"undefined"!=typeof module?module.exports=n():"function"==typeof __SVGATOR_DEFINE__&&__SVGATOR_DEFINE__.amd?__SVGATOR_DEFINE__(n):((t="undefined"!=typeof globalThis?globalThis:t||self).__SVGATOR_PLAYER__=t.__SVGATOR_PLAYER__||{},t.__SVGATOR_PLAYER__["5c7f360c"]=n())}(this,(function(){"use strict";function t(t,n){var e=Object.keys(t);if(Object.getOwnPropertySymbols){var r=Object.getOwnPropertySymbols(t);n&&(r=r.filter((function(n){return Object.getOwnPropertyDescriptor(t,n).enumerable}))),e.push.apply(e,r)}return e}function n(n){for(var e=1;e<arguments.length;e++){var r=null!=arguments[e]?arguments[e]:{};e%2?t(Object(r),!0).forEach((function(t){o(n,t,r[t])})):Object.getOwnPropertyDescriptors?Object.defineProperties(n,Object.getOwnPropertyDescriptors(r)):t(Object(r)).forEach((function(t){Object.defineProperty(n,t,Object.getOwnPropertyDescriptor(r,t))}))}return n}function e(t){return(e="function"==typeof Symbol&&"symbol"==typeof Symbol.iterator?function(t){return typeof t}:function(t){return t&&"function"==typeof Symbol&&t.constructor===Symbol&&t!==Symbol.prototype?"symbol":typeof t})(t)}function r(t,n){if(!(t instanceof n))throw new TypeError("Cannot call a class as a function")}function i(t,n){for(var e=0;e<n.length;e++){var r=n[e];r.enumerable=r.enumerable||!1,r.configurable=!0,"value"in r&&(r.writable=!0),Object.defineProperty(t,r.key,r)}}function u(t,n,e){return n&&i(t.prototype,n),e&&i(t,e),t}function o(t,n,e){return n in t?Object.defineProperty(t,n,{value:e,enumerable:!0,configurable:!0,writable:!0}):t[n]=e,t}function a(t){return(a=Object.setPrototypeOf?Object.getPrototypeOf:function(t){return t.__proto__||Object.getPrototypeOf(t)})(t)}function l(t,n){return(l=Object.setPrototypeOf||function(t,n){return t.__proto__=n,t})(t,n)}function s(){if("undefined"==typeof Reflect||!Reflect.construct)return!1;if(Reflect.construct.sham)return!1;if("function"==typeof Proxy)return!0;try{return Boolean.prototype.valueOf.call(Reflect.construct(Boolean,[],(function(){}))),!0}catch(t){return!1}}function f(t,n,e){return(f=s()?Reflect.construct:function(t,n,e){var r=[null];r.push.apply(r,n);var i=new(Function.bind.apply(t,r));return e&&l(i,e.prototype),i}).apply(null,arguments)}function c(t,n){if(n&&("object"==typeof n||"function"==typeof n))return n;if(void 0!==n)throw new TypeError("Derived constructors may only return object or undefined");return function(t){if(void 0===t)throw new ReferenceError("this hasn't been initialised - super() hasn't been called");return t}(t)}function h(t,n,e){return(h="undefined"!=typeof Reflect&&Reflect.get?Reflect.get:function(t,n,e){var r=function(t,n){for(;!Object.prototype.hasOwnProperty.call(t,n)&&null!==(t=a(t)););return t}(t,n);if(r){var i=Object.getOwnPropertyDescriptor(r,n);return i.get?i.get.call(e):i.value}})(t,n,e||t)}function v(t){return function(t){if(Array.isArray(t))return y(t)}(t)||function(t){if("undefined"!=typeof Symbol&&null!=t[Symbol.iterator]||null!=t["@@iterator"])return Array.from(t)}(t)||function(t,n){if(!t)return;if("string"==typeof t)return y(t,n);var e=Object.prototype.toString.call(t).slice(8,-1);"Object"===e&&t.constructor&&(e=t.constructor.name);if("Map"===e||"Set"===e)return Array.from(t);if("Arguments"===e||/^(?:Ui|I)nt(?:8|16|32)(?:Clamped)?Array$/.test(e))return y(t,n)}(t)||function(){throw new TypeError("Invalid attempt to spread non-iterable instance.\nIn order to be iterable, non-array objects must have a [Symbol.iterator]() method.")}()}function y(t,n){(null==n||n>t.length)&&(n=t.length);for(var e=0,r=new Array(n);e<n;e++)r[e]=t[e];return r}Number.isInteger||(Number.isInteger=function(t){return"number"==typeof t&&isFinite(t)&&Math.floor(t)===t}),Number.EPSILON||(Number.EPSILON=2220446049250313e-31);var g=p(Math.pow(10,-6));function p(t){var n=arguments.length>1&&void 0!==arguments[1]?arguments[1]:6;if(Number.isInteger(t))return t;var e=Math.pow(10,n);return Math.round((+t+Number.EPSILON)*e)/e}function d(t,n){var e=arguments.length>2&&void 0!==arguments[2]?arguments[2]:g;return Math.abs(t-n)<e}var m=Math.PI/180;function b(t){return t}function w(t,n,e){var r=1-e;return 3*e*r*(t*r+n*e)+e*e*e}function A(){var t=arguments.length>0&&void 0!==arguments[0]?arguments[0]:0,n=arguments.length>1&&void 0!==arguments[1]?arguments[1]:0,e=arguments.length>2&&void 0!==arguments[2]?arguments[2]:1,r=arguments.length>3&&void 0!==arguments[3]?arguments[3]:1;return t<0||t>1||e<0||e>1?null:d(t,n)&&d(e,r)?b:function(i){if(i<=0)return t>0?i*n/t:0===n&&e>0?i*r/e:0;if(i>=1)return e<1?1+(i-1)*(r-1)/(e-1):1===e&&t<1?1+(i-1)*(n-1)/(t-1):1;for(var u,o=0,a=1;o<a;){var l=w(t,e,u=(o+a)/2);if(d(i,l))break;l<i?o=u:a=u}return w(n,r,u)}}function _(){return 1}function x(t){return 1===t?1:0}function k(){var t=arguments.length>0&&void 0!==arguments[0]?arguments[0]:1,n=arguments.length>1&&void 0!==arguments[1]?arguments[1]:0;if(1===t){if(0===n)return x;if(1===n)return _}var e=1/t;return function(t){return t>=1?1:(t+=n*e)-t%e}}var S=Math.sin,O=Math.cos,j=Math.acos,E=Math.asin,M=Math.tan,P=Math.atan2,I=Math.PI/180,R=180/Math.PI,F=Math.sqrt,N=function(){function t(){var n=arguments.length>0&&void 0!==arguments[0]?arguments[0]:1,e=arguments.length>1&&void 0!==arguments[1]?arguments[1]:0,i=arguments.length>2&&void 0!==arguments[2]?arguments[2]:0,u=arguments.length>3&&void 0!==arguments[3]?arguments[3]:1,o=arguments.length>4&&void 0!==arguments[4]?arguments[4]:0,a=arguments.length>5&&void 0!==arguments[5]?arguments[5]:0;r(this,t),this.m=[n,e,i,u,o,a],this.i=null,this.w=null,this.s=null}return u(t,[{key:"determinant",get:function(){var t=this.m;return t[0]*t[3]-t[1]*t[2]}},{key:"isIdentity",get:function(){if(null===this.i){var t=this.m;this.i=1===t[0]&&0===t[1]&&0===t[2]&&1===t[3]&&0===t[4]&&0===t[5]}return this.i}},{key:"point",value:function(t,n){var e=this.m;return{x:e[0]*t+e[2]*n+e[4],y:e[1]*t+e[3]*n+e[5]}}},{key:"translateSelf",value:function(){var t=arguments.length>0&&void 0!==arguments[0]?arguments[0]:0,n=arguments.length>1&&void 0!==arguments[1]?arguments[1]:0;if(!t&&!n)return this;var e=this.m;return e[4]+=e[0]*t+e[2]*n,e[5]+=e[1]*t+e[3]*n,this.w=this.s=this.i=null,this}},{key:"rotateSelf",value:function(){var t=arguments.length>0&&void 0!==arguments[0]?arguments[0]:0;if(t%=360){var n=S(t*=I),e=O(t),r=this.m,i=r[0],u=r[1];r[0]=i*e+r[2]*n,r[1]=u*e+r[3]*n,r[2]=r[2]*e-i*n,r[3]=r[3]*e-u*n,this.w=this.s=this.i=null}return this}},{key:"scaleSelf",value:function(){var t=arguments.length>0&&void 0!==arguments[0]?arguments[0]:1,n=arguments.length>1&&void 0!==arguments[1]?arguments[1]:1;if(1!==t||1!==n){var e=this.m;e[0]*=t,e[1]*=t,e[2]*=n,e[3]*=n,this.w=this.s=this.i=null}return this}},{key:"skewSelf",value:function(t,n){if(n%=360,(t%=360)||n){var e=this.m,r=e[0],i=e[1],u=e[2],o=e[3];t&&(t=M(t*I),e[2]+=r*t,e[3]+=i*t),n&&(n=M(n*I),e[0]+=u*n,e[1]+=o*n),this.w=this.s=this.i=null}return this}},{key:"resetSelf",value:function(){var t=arguments.length>0&&void 0!==arguments[0]?arguments[0]:1,n=arguments.length>1&&void 0!==arguments[1]?arguments[1]:0,e=arguments.length>2&&void 0!==arguments[2]?arguments[2]:0,r=arguments.length>3&&void 0!==arguments[3]?arguments[3]:1,i=arguments.length>4&&void 0!==arguments[4]?arguments[4]:0,u=arguments.length>5&&void 0!==arguments[5]?arguments[5]:0,o=this.m;return o[0]=t,o[1]=n,o[2]=e,o[3]=r,o[4]=i,o[5]=u,this.w=this.s=this.i=null,this}},{key:"recomposeSelf",value:function(){var t=arguments.length>0&&void 0!==arguments[0]?arguments[0]:null,n=arguments.length>1&&void 0!==arguments[1]?arguments[1]:null,e=arguments.length>2&&void 0!==arguments[2]?arguments[2]:null,r=arguments.length>3&&void 0!==arguments[3]?arguments[3]:null,i=arguments.length>4&&void 0!==arguments[4]?arguments[4]:null;return this.isIdentity||this.resetSelf(),t&&(t.x||t.y)&&this.translateSelf(t.x,t.y),n&&this.rotateSelf(n),e&&(e.x&&this.skewSelf(e.x,0),e.y&&this.skewSelf(0,e.y)),!r||1===r.x&&1===r.y||this.scaleSelf(r.x,r.y),i&&(i.x||i.y)&&this.translateSelf(i.x,i.y),this}},{key:"decompose",value:function(){var t=arguments.length>0&&void 0!==arguments[0]?arguments[0]:0,n=arguments.length>1&&void 0!==arguments[1]?arguments[1]:0,e=this.m,r=e[0]*e[0]+e[1]*e[1],i=[[e[0],e[1]],[e[2],e[3]]],u=F(r);if(0===u)return{origin:{x:p(e[4]),y:p(e[5])},translate:{x:p(t),y:p(n)},scale:{x:0,y:0},skew:{x:0,y:0},rotate:0};i[0][0]/=u,i[0][1]/=u;var o=e[0]*e[3]-e[1]*e[2]<0;o&&(u=-u);var a=i[0][0]*i[1][0]+i[0][1]*i[1][1];i[1][0]-=i[0][0]*a,i[1][1]-=i[0][1]*a;var l=F(i[1][0]*i[1][0]+i[1][1]*i[1][1]);if(0===l)return{origin:{x:p(e[4]),y:p(e[5])},translate:{x:p(t),y:p(n)},scale:{x:p(u),y:0},skew:{x:0,y:0},rotate:0};i[1][0]/=l,i[1][1]/=l,a/=l;var s=0;return i[1][1]<0?(s=j(i[1][1])*R,i[0][1]<0&&(s=360-s)):s=E(i[0][1])*R,o&&(s=-s),a=P(a,F(i[0][0]*i[0][0]+i[0][1]*i[0][1]))*R,o&&(a=-a),{origin:{x:p(e[4]),y:p(e[5])},translate:{x:p(t),y:p(n)},scale:{x:p(u),y:p(l)},skew:{x:p(a),y:0},rotate:p(s)}}},{key:"clone",value:function(){var t=this.m;return new this.constructor(t[0],t[1],t[2],t[3],t[4],t[5])}},{key:"toString",value:function(){var t=arguments.length>0&&void 0!==arguments[0]?arguments[0]:" ";if(null===this.s){var n=this.m.map((function(t){return p(t)}));1===n[0]&&0===n[1]&&0===n[2]&&1===n[3]?this.s="translate("+n[4]+t+n[5]+")":this.s="matrix("+n.join(t)+")"}return this.s}}],[{key:"create",value:function(t){return t?Array.isArray(t)?f(this,v(t)):t instanceof this?t.clone():(new this).recomposeSelf(t.origin,t.rotate,t.skew,t.scale,t.translate):new this}}]),t}();function T(t,n,e){return t>=.5?e:n}function q(t,n,e){return 0===t||n===e?n:t*(e-n)+n}function B(t,n,e){var r=q(t,n,e);return r<=0?0:r}function D(t,n,e){var r=q(t,n,e);return r<=0?0:r>=1?1:r}function L(t,n,e){return 0===t?n:1===t?e:{x:q(t,n.x,e.x),y:q(t,n.y,e.y)}}function C(t,n,e){var r=function(t,n,e){return Math.round(q(t,n,e))}(t,n,e);return r<=0?0:r>=255?255:r}function V(t,n,e){return 0===t?n:1===t?e:{r:C(t,n.r,e.r),g:C(t,n.g,e.g),b:C(t,n.b,e.b),a:q(t,null==n.a?1:n.a,null==e.a?1:e.a)}}function G(t,n){for(var e=[],r=0;r<t;r++)e.push(n);return e}function z(t,n){if(--n<=0)return t;var e=(t=Object.assign([],t)).length;do{for(var r=0;r<e;r++)t.push(t[r])}while(--n>0);return t}var Y,$=function(){function t(n){r(this,t),this.list=n,this.length=n.length}return u(t,[{key:"setAttribute",value:function(t,n){for(var e=this.list,r=0;r<this.length;r++)e[r].setAttribute(t,n)}},{key:"removeAttribute",value:function(t){for(var n=this.list,e=0;e<this.length;e++)n[e].removeAttribute(t)}},{key:"style",value:function(t,n){for(var e=this.list,r=0;r<this.length;r++)e[r].style[t]=n}}]),t}(),U=/-./g,Q=function(t,n){return n.toUpperCase()};function H(t){return"function"==typeof t?t:T}function J(t){return t?"function"==typeof t?t:Array.isArray(t)?function(t){var n=arguments.length>1&&void 0!==arguments[1]?arguments[1]:b;if(!Array.isArray(t))return n;switch(t.length){case 1:return k(t[0])||n;case 2:return k(t[0],t[1])||n;case 4:return A(t[0],t[1],t[2],t[3])||n}return n}(t,null):function(t,n){var e=arguments.length>2&&void 0!==arguments[2]?arguments[2]:b;switch(t){case"linear":return b;case"steps":return k(n.steps||1,n.jump||0)||e;case"bezier":case"cubic-bezier":return A(n.x1||0,n.y1||0,n.x2||0,n.y2||0)||e}return e}(t.type,t.value,null):null}function Z(t,n,e){var r=arguments.length>3&&void 0!==arguments[3]&&arguments[3],i=n.length-1;if(t<=n[0].t)return r?[0,0,n[0].v]:n[0].v;if(t>=n[i].t)return r?[i,1,n[i].v]:n[i].v;var u,o=n[0],a=null;for(u=1;u<=i;u++){if(!(t>n[u].t)){a=n[u];break}o=n[u]}return null==a?r?[i,1,n[i].v]:n[i].v:o.t===a.t?r?[u,1,a.v]:a.v:(t=(t-o.t)/(a.t-o.t),o.e&&(t=o.e(t)),r?[u,t,e(t,o.v,a.v)]:e(t,o.v,a.v))}function K(t,n){var e=arguments.length>2&&void 0!==arguments[2]?arguments[2]:null;return t&&t.length?"function"!=typeof n?null:("function"!=typeof e&&(e=null),function(r){var i=Z(r,t,n);return null!=i&&e&&(i=e(i)),i}):null}function W(t,n){return t.t-n.t}function X(t,n,r,i,u){var o,a="@"===r[0],l="#"===r[0],s=Y[r],f=T;switch(a?(o=r.substr(1),r=o.replace(U,Q)):l&&(r=r.substr(1)),e(s)){case"function":if(f=s(i,u,Z,J,r,a,n,t),l)return f;break;case"string":f=K(i,H(s));break;case"object":if((f=K(i,H(s.i),s.f))&&"function"==typeof s.u)return s.u(n,f,r,a,t)}return f?function(t,n,e){if(arguments.length>3&&void 0!==arguments[3]&&arguments[3])return t instanceof $?function(r){return t.style(n,e(r))}:function(r){return t.style[n]=e(r)};if(Array.isArray(n)){var r=n.length;return function(i){var u=e(i);if(null==u)for(var o=0;o<r;o++)t[o].removeAttribute(n);else for(var a=0;a<r;a++)t[a].setAttribute(n,u)}}return function(r){var i=e(r);null==i?t.removeAttribute(n):t.setAttribute(n,i)}}(n,r,f,a):null}function tt(t,n,r,i){if(!i||"object"!==e(i))return null;var u=null,o=null;return Array.isArray(i)?o=function(t){if(!t||!t.length)return null;for(var n=0;n<t.length;n++)t[n].e&&(t[n].e=J(t[n].e));return t.sort(W)}(i):(o=i.keys,u=i.data||null),o?X(t,n,r,o,u):null}function nt(t,n,e){if(!e)return null;var r=[];for(var i in e)if(e.hasOwnProperty(i)){var u=tt(t,n,i,e[i]);u&&r.push(u)}return r.length?r:null}function et(t,n){if(!n.settings.duration||n.settings.duration<0)return null;var e,r,i,u,o,a=function(t,n){if(!n)return null;var e=[];if(Array.isArray(n))for(var r=n.length,i=0;i<r;i++){var u=n[i];if(2===u.length){var o=null;if("string"==typeof u[0])o=t.getElementById(u[0]);else if(Array.isArray(u[0])){o=[];for(var a=0;a<u[0].length;a++)if("string"==typeof u[0][a]){var l=t.getElementById(u[0][a]);l&&o.push(l)}o=o.length?1===o.length?o[0]:new $(o):null}if(o){var s=nt(t,o,u[1]);s&&(e=e.concat(s))}}}else for(var f in n)if(n.hasOwnProperty(f)){var c=t.getElementById(f);if(c){var h=nt(t,c,n[f]);h&&(e=e.concat(h))}}return e.length?e:null}(t,n.elements);return a?(e=a,r=n.settings,i=r.duration,u=e.length,o=null,function(t,n){var a=r.iterations||1/0,l=(r.alternate&&a%2==0)^r.direction>0?i:0,s=t%i,f=1+(t-s)/i;n*=r.direction,r.alternate&&f%2==0&&(n=-n);var c=!1;if(f>a)s=l,c=!0,-1===r.fill&&(s=r.direction>0?0:i);else if(n<0&&(s=i-s),s===o)return!1;o=s;for(var h=0;h<u;h++)e[h](s);return c}):null}function rt(t,n){if(Y=n,!t||!t.root||!Array.isArray(t.animations))return null;var e=function(t){for(var n=document.getElementsByTagName("svg"),e=0;e<n.length;e++)if(n[e].id===t.root&&!n[e].svgatorAnimation)return n[e].svgatorAnimation=!0,n[e];return null}(t);if(!e)return null;var r=t.animations.map((function(t){return et(e,t)})).filter((function(t){return!!t}));return r.length?{svg:e,animations:r,animationSettings:t.animationSettings,options:t.options||void 0}:null}function it(t){return+("0x"+(t.replace(/[^0-9a-fA-F]+/g,"")||27))}function ut(t,n,e){return!t||!e||n>t.length?t:t.substring(0,n)+ut(t.substring(n+1),e,e)}function ot(t){var n=arguments.length>1&&void 0!==arguments[1]?arguments[1]:27;return!t||t%n?t%n:ot(t/n,n)}function at(t,n,e){if(t&&t.length){var r=it(e),i=it(n),u=ot(r)+5,o=ut(t,ot(r,5),u);return o=o.replace(/\x7c$/g,"==").replace(/\x2f$/g,"="),o=function(t,n,e){var r=+("0x"+t.substring(0,4));t=t.substring(4);for(var i=n%r+e%27,u=[],o=0;o<t.length;o+=2)if("|"!==t[o]){var a=+("0x"+t[o]+t[o+1])-i;u.push(a)}else{var l=+("0x"+t.substring(o+1,o+1+4))-i;o+=3,u.push(l)}return String.fromCharCode.apply(String,u)}(o=(o=atob(o)).replace(/[\x41-\x5A]/g,""),i,r),o=JSON.parse(o)}}var lt=[{key:"alternate",def:!1},{key:"fill",def:1},{key:"iterations",def:0},{key:"direction",def:1},{key:"speed",def:1},{key:"fps",def:100}],st=function(){function t(n,e){var i=this,u=arguments.length>2&&void 0!==arguments[2]?arguments[2]:null;r(this,t),this._id=0,this._running=!1,this._rollingBack=!1,this._animations=n,this._settings=e,(!u||u<"2022-05-02")&&delete this._settings.speed,lt.forEach((function(t){i._settings[t.key]=i._settings[t.key]||t.def})),this.duration=e.duration,this.offset=e.offset||0,this.rollbackStartOffset=0}return u(t,[{key:"alternate",get:function(){return this._settings.alternate}},{key:"fill",get:function(){return this._settings.fill}},{key:"iterations",get:function(){return this._settings.iterations}},{key:"direction",get:function(){return this._settings.direction}},{key:"speed",get:function(){return this._settings.speed}},{key:"fps",get:function(){return this._settings.fps}},{key:"maxFiniteDuration",get:function(){return this.iterations>0?this.iterations*this.duration:this.duration}},{key:"_apply",value:function(t){for(var n=arguments.length>1&&void 0!==arguments[1]?arguments[1]:{},e=this._animations,r=e.length,i=0,u=0;u<r;u++)n[u]?i++:(n[u]=e[u](t,1),n[u]&&i++);return i}},{key:"_rollback",value:function(t){var n=this,e=1/0,r=null;this.rollbackStartOffset=t,this._rollingBack=!0,this._running=!0;this._id=window.requestAnimationFrame((function i(u){if(n._rollingBack){null==r&&(r=u);var o=Math.round(t-(u-r)*n.speed);if(o>n.duration&&e!==1/0){var a=!!n.alternate&&o/n.duration%2>1,l=o%n.duration;o=(l+=a?n.duration:0)||n.duration}var s=(n.fps?1e3/n.fps:0)*n.speed,f=Math.max(0,o);f<=e-s&&(n.offset=f,e=f,n._apply(f));var c=n.iterations>0&&-1===n.fill&&o>=n.maxFiniteDuration;(o<=0||n.offset<o||c)&&n.stop(),n._id=window.requestAnimationFrame(i)}}))}},{key:"_start",value:function(){var t=this,n=arguments.length>0&&void 0!==arguments[0]?arguments[0]:0,e=-1/0,r=null,i={};this._running=!0;var u=function u(o){null==r&&(r=o);var a=Math.round((o-r)*t.speed+n),l=(t.fps?1e3/t.fps:0)*t.speed;if(a>=e+l&&!t._rollingBack&&(t.offset=a,e=a,t._apply(a,i)===t._animations.length))return void t.pause(!0);t._id=window.requestAnimationFrame(u)};this._id=window.requestAnimationFrame(u)}},{key:"_pause",value:function(){this._id&&window.cancelAnimationFrame(this._id),this._running=!1}},{key:"play",value:function(){if(!this._running)return this._rollingBack?this._rollback(this.offset):this._start(this.offset)}},{key:"stop",value:function(){this._pause(),this.offset=0,this.rollbackStartOffset=0,this._rollingBack=!1,this._apply(0)}},{key:"reachedToEnd",value:function(){return this.iterations>0&&this.offset>=this.iterations*this.duration}},{key:"restart",value:function(){var t=arguments.length>0&&void 0!==arguments[0]&&arguments[0];this.stop(t),this.play(t)}},{key:"pause",value:function(){this._pause()}},{key:"reverse",value:function(){this.direction=-this.direction}}],[{key:"build",value:function(t,n){delete t.animationSettings,t.options=at(t.options,t.root,"5c7f360c"),t.animations.map((function(n){n.settings=at(n.s,t.root,"5c7f360c"),delete n.s,t.animationSettings||(t.animationSettings=n.settings)}));var e=t.version;if(!(t=rt(t,n)))return null;var r=t.options||{},i=new this(t.animations,t.animationSettings,e);return{el:t.svg,options:r,player:i}}},{key:"push",value:function(t){return this.build(t)}},{key:"init",value:function(){var t=this,n=window.__SVGATOR_PLAYER__&&window.__SVGATOR_PLAYER__["5c7f360c"];Array.isArray(n)&&n.splice(0).forEach((function(n){return t.build(n)}))}}]),t}();function ft(t){return p(t)+""}function ct(t){var n=arguments.length>1&&void 0!==arguments[1]?arguments[1]:" ";return t&&t.length?t.map(ft).join(n):""}function ht(t){if(!t)return"transparent";if(null==t.a||t.a>=1){var n=function(t){return 1===(t=parseInt(t).toString(16)).length?"0"+t:t},e=function(t){return t.charAt(0)===t.charAt(1)},r=n(t.r),i=n(t.g),u=n(t.b);return e(r)&&e(i)&&e(u)&&(r=r.charAt(0),i=i.charAt(0),u=u.charAt(0)),"#"+r+i+u}return"rgba("+t.r+","+t.g+","+t.b+","+t.a+")"}function vt(t){return t?"url(#"+t+")":"none"}!function(){for(var t=0,n=["ms","moz","webkit","o"],e=0;e<n.length&&!window.requestAnimationFrame;++e)window.requestAnimationFrame=window[n[e]+"RequestAnimationFrame"],window.cancelAnimationFrame=window[n[e]+"CancelAnimationFrame"]||window[n[e]+"CancelRequestAnimationFrame"];window.requestAnimationFrame||(window.requestAnimationFrame=function(n){var e=Date.now(),r=Math.max(0,16-(e-t)),i=window.setTimeout((function(){n(e+r)}),r);return t=e+r,i},window.cancelAnimationFrame=window.clearTimeout)}();var yt={f:null,i:function(t,n,e){return 0===t?n:1===t?e:{x:B(t,n.x,e.x),y:B(t,n.y,e.y)}},u:function(t,n){return function(e){var r=n(e);t.setAttribute("rx",ft(r.x)),t.setAttribute("ry",ft(r.y))}}},gt={f:null,i:function(t,n,e){return 0===t?n:1===t?e:{width:B(t,n.width,e.width),height:B(t,n.height,e.height)}},u:function(t,n){return function(e){var r=n(e);t.setAttribute("width",ft(r.width)),t.setAttribute("height",ft(r.height))}}};Object.freeze({M:2,L:2,Z:0,H:1,V:1,C:6,Q:4,T:2,S:4,A:7});var pt={},dt=null;function mt(t){var n=function(){if(dt)return dt;if("object"!==("undefined"==typeof document?"undefined":e(document))||!document.createElementNS)return{};var t=document.createElementNS("http://www.w3.org/2000/svg","svg");return t&&t.style?(t.style.position="absolute",t.style.opacity="0.01",t.style.zIndex="-9999",t.style.left="-9999px",t.style.width="1px",t.style.height="1px",dt={svg:t}):{}}().svg;if(!n)return function(t){return null};var r=document.createElementNS(n.namespaceURI,"path");r.setAttributeNS(null,"d",t),r.setAttributeNS(null,"fill","none"),r.setAttributeNS(null,"stroke","none"),n.appendChild(r);var i=r.getTotalLength();return function(t){var n=r.getPointAtLength(i*t);return{x:n.x,y:n.y}}}function bt(t){return pt[t]?pt[t]:pt[t]=mt(t)}function wt(t,n,e,r){if(!t||!r)return!1;var i=["M",t.x,t.y];if(n&&e&&(i.push("C"),i.push(n.x),i.push(n.y),i.push(e.x),i.push(e.y)),n?!e:e){var u=n||e;i.push("Q"),i.push(u.x),i.push(u.y)}return n||e||i.push("L"),i.push(r.x),i.push(r.y),i.join(" ")}function At(t,n,e,r){var i=arguments.length>4&&void 0!==arguments[4]?arguments[4]:1,u=wt(t,n,e,r),o=bt(u);try{return o(i)}catch(t){return null}}function _t(t,n,e){return t+(n-t)*e}function xt(t,n,e){var r=arguments.length>3&&void 0!==arguments[3]&&arguments[3],i={x:_t(t.x,n.x,e),y:_t(t.y,n.y,e)};return r&&(i.a=kt(t,n)),i}function kt(t,n){return Math.atan2(n.y-t.y,n.x-t.x)}function St(t,n,e,r){var i=1-r;return i*i*t+2*i*r*n+r*r*e}function Ot(t,n,e,r){return 2*(1-r)*(n-t)+2*r*(e-n)}function jt(t,n,e,r){var i=arguments.length>4&&void 0!==arguments[4]&&arguments[4],u=At(t,n,null,e,r);return u||(u={x:St(t.x,n.x,e.x,r),y:St(t.y,n.y,e.y,r)}),i&&(u.a=Et(t,n,e,r)),u}function Et(t,n,e,r){return Math.atan2(Ot(t.y,n.y,e.y,r),Ot(t.x,n.x,e.x,r))}function Mt(t,n,e,r,i){var u=i*i;return i*u*(r-t+3*(n-e))+3*u*(t+e-2*n)+3*i*(n-t)+t}function Pt(t,n,e,r,i){var u=1-i;return 3*(u*u*(n-t)+2*u*i*(e-n)+i*i*(r-e))}function It(t,n,e,r,i){var u=arguments.length>5&&void 0!==arguments[5]&&arguments[5],o=At(t,n,e,r,i);return o||(o={x:Mt(t.x,n.x,e.x,r.x,i),y:Mt(t.y,n.y,e.y,r.y,i)}),u&&(o.a=Rt(t,n,e,r,i)),o}function Rt(t,n,e,r,i){return Math.atan2(Pt(t.y,n.y,e.y,r.y,i),Pt(t.x,n.x,e.x,r.x,i))}function Ft(t,n,e){var r=arguments.length>3&&void 0!==arguments[3]&&arguments[3];if(Tt(n)){if(qt(e))return jt(n,e.start,e,t,r)}else if(Tt(e)){if(Bt(n))return jt(n,n.end,e,t,r)}else{if(Bt(n))return qt(e)?It(n,n.end,e.start,e,t,r):jt(n,n.end,e,t,r);if(qt(e))return jt(n,e.start,e,t,r)}return xt(n,e,t,r)}function Nt(t,n,e){var r=Ft(t,n,e,!0);return r.a=function(t){return arguments.length>1&&void 0!==arguments[1]&&arguments[1]?t+Math.PI:t}(r.a)/m,r}function Tt(t){return!t.type||"corner"===t.type}function qt(t){return null!=t.start&&!Tt(t)}function Bt(t){return null!=t.end&&!Tt(t)}var Dt=new N;var Lt={f:ft,i:q},Ct={f:ft,i:D};function Vt(t,n,e){return t.map((function(t){return function(t,n,e){var r=t.v;if(!r||"g"!==r.t||r.s||!r.v||!r.r)return t;var i=e.getElementById(r.r),u=i&&i.querySelectorAll("stop")||[];return r.s=r.v.map((function(t,n){var e=u[n]&&u[n].getAttribute("offset");return{c:t,o:e=p(parseInt(e)/100)}})),delete r.v,t}(t,0,e)}))}var Gt={gt:"gradientTransform",c:{x:"cx",y:"cy"},rd:"r",f:{x:"x1",y:"y1"},to:{x:"x2",y:"y2"}};function zt(t,n,r,i,u,o,a,l){return Vt(t,0,l),n=function(t,n,e){for(var r,i,u,o=t.length-1,a={},l=0;l<=o;l++)(r=t[l]).e&&(r.e=n(r.e)),r.v&&"g"===(i=r.v).t&&i.r&&(u=e.getElementById(i.r))&&(a[i.r]={e:u,s:u.querySelectorAll("stop")});return a}(t,i,l),function(i){var u=r(i,t,Yt);if(!u)return"none";if("c"===u.t)return ht(u.v);if("g"===u.t){if(!n[u.r])return vt(u.r);var o=n[u.r];return function(t,n){for(var e=t.s,r=e.length;r<n.length;r++){var i=e[e.length-1].cloneNode();i.id=Qt(i.id),t.e.appendChild(i),e=t.s=t.e.querySelectorAll("stop")}for(var u=0,o=e.length,a=n.length-1;u<o;u++)e[u].setAttribute("stop-color",ht(n[Math.min(u,a)].c)),e[u].setAttribute("offset",n[Math.min(u,a)].o)}(o,u.s),Object.keys(Gt).forEach((function(t){if(void 0!==u[t])if("object"!==e(Gt[t])){var n,r="gt"===t?(n=u[t],Array.isArray(n)?"matrix("+n.join(" ")+")":""):u[t],i=Gt[t];o.e.setAttribute(i,r)}else Object.keys(Gt[t]).forEach((function(n){if(void 0!==u[t][n]){var e=u[t][n],r=Gt[t][n];o.e.setAttribute(r,e)}}))})),vt(u.r)}return"none"}}function Yt(t,e,r){if(0===t)return e;if(1===t)return r;if(e&&r){var i=e.t;if(i===r.t)switch(e.t){case"c":return{t:i,v:V(t,e.v,r.v)};case"g":if(e.r===r.r){var u={t:i,s:$t(t,e.s,r.s),r:e.r};return e.gt&&r.gt&&(u.gt=function(t,n,e){var r=n.length;if(r!==e.length)return T(t,n,e);for(var i=new Array(r),u=0;u<r;u++)i[u]=q(t,n[u],e[u]);return i}(t,e.gt,r.gt)),e.c?(u.c=L(t,e.c,r.c),u.rd=B(t,e.rd,r.rd)):e.f&&(u.f=L(t,e.f,r.f),u.to=L(t,e.to,r.to)),u}}if("c"===e.t&&"g"===r.t||"c"===r.t&&"g"===e.t){var o="c"===e.t?e:r,a="g"===e.t?n({},e):n({},r),l=a.s.map((function(t){return{c:o.v,o:t.o}}));return a.s="c"===e.t?$t(t,l,a.s):$t(t,a.s,l),a}}return T(t,e,r)}function $t(t,n,e){if(n.length===e.length)return n.map((function(n,r){return Ut(t,n,e[r])}));for(var r=Math.max(n.length,e.length),i=[],u=0;u<r;u++){var o=Ut(t,n[Math.min(u,n.length-1)],e[Math.min(u,e.length-1)]);i.push(o)}return i}function Ut(t,n,e){return{o:D(t,n.o,e.o||0),c:V(t,n.c,e.c||{})}}function Qt(t){return t.replace(/-fill-([0-9]+)$/,(function(t,n){return"-fill-"+(+n+1)}))}var Ht={fill:zt,"fill-opacity":Ct,stroke:zt,"stroke-opacity":Ct,"stroke-width":Lt,"stroke-dashoffset":{f:ft,i:q},"stroke-dasharray":{f:function(t){var n=arguments.length>1&&void 0!==arguments[1]?arguments[1]:" ";return t&&t.length>0&&(t=t.map((function(t){return p(t,4)}))),ct(t,n)},i:function(t,n,e){var r,i,u,o=n.length,a=e.length;if(o!==a)if(0===o)n=G(o=a,0);else if(0===a)a=o,e=G(o,0);else{var l=(u=(r=o)*(i=a)/function(t,n){for(var e;n;)e=n,n=t%n,t=e;return t||1}(r,i))<0?-u:u;n=z(n,Math.floor(l/o)),e=z(e,Math.floor(l/a)),o=a=l}for(var s=[],f=0;f<o;f++)s.push(p(B(t,n[f],e[f])));return s}},opacity:Ct,transform:function(t,n,r,i){if(!(t=function(t,n){if(!t||"object"!==e(t))return null;var r=!1;for(var i in t)t.hasOwnProperty(i)&&(t[i]&&t[i].length?(t[i].forEach((function(t){t.e&&(t.e=n(t.e))})),r=!0):delete t[i]);return r?t:null}(t,i)))return null;var u=function(e,i,u){var o=arguments.length>3&&void 0!==arguments[3]?arguments[3]:null;return t[e]?r(i,t[e],u):n&&n[e]?n[e]:o};return n&&n.a&&t.o?function(n){var e=r(n,t.o,Nt);return Dt.recomposeSelf(e,u("r",n,q,0)+e.a,u("k",n,L),u("s",n,L),u("t",n,L)).toString()}:function(t){return Dt.recomposeSelf(u("o",t,Ft,null),u("r",t,q,0),u("k",t,L),u("s",t,L),u("t",t,L)).toString()}},r:Lt,"#size":gt,"#radius":yt,_:function(t,n){if(Array.isArray(t))for(var e=0;e<t.length;e++)this[t[e]]=n;else this[t]=n}},Jt=function(t){!function(t,n){if("function"!=typeof n&&null!==n)throw new TypeError("Super expression must either be null or a function");t.prototype=Object.create(n&&n.prototype,{constructor:{value:t,writable:!0,configurable:!0}}),n&&l(t,n)}(o,t);var n,e,i=(n=o,e=s(),function(){var t,r=a(n);if(e){var i=a(this).constructor;t=Reflect.construct(r,arguments,i)}else t=r.apply(this,arguments);return c(this,t)});function o(){return r(this,o),i.apply(this,arguments)}return u(o,null,[{key:"build",value:function(t){var n=h(a(o),"build",this).call(this,t,Ht);if(!n)return null;n.el,n.options,function(t,n,e){t.play()}(n.player)}}]),o}(st);return Jt.init(),Jt}));
(function(s,i,o,w,d,a,b){w[o]=w[o]||{};w[o][s]=w[o][s]||[];w[o][s].push(i);})('5c7f360c',{"root":"erTBxqcpGyZ1","version":"2022-05-04","animations":[{"elements":{"erTBxqcpGyZ59":{"opacity":[{"t":0,"v":0},{"t":2500,"v":1},{"t":3800,"v":0.85},{"t":5000,"v":0.3}]},"erTBxqcpGyZ60":{"opacity":[{"t":0,"v":0},{"t":2500,"v":1},{"t":3800,"v":0.85},{"t":5000,"v":0}]},"erTBxqcpGyZ61":{"opacity":[{"t":0,"v":0},{"t":1900,"v":1},{"t":3800,"v":0.8},{"t":5000,"v":0.3}]},"erTBxqcpGyZ62":{"opacity":[{"t":0,"v":0},{"t":1900,"v":1},{"t":3800,"v":0.85},{"t":5000,"v":0}]},"erTBxqcpGyZ63":{"opacity":[{"t":0,"v":0},{"t":1200,"v":1},{"t":3800,"v":0.75},{"t":5000,"v":0.3}]},"erTBxqcpGyZ64":{"opacity":[{"t":0,"v":0},{"t":1200,"v":1},{"t":3800,"v":0.8},{"t":5000,"v":0}]},"erTBxqcpGyZ65":{"opacity":[{"t":0,"v":0},{"t":600,"v":1},{"t":3800,"v":0.7},{"t":5000,"v":0.3}]},"erTBxqcpGyZ66":{"opacity":[{"t":0,"v":0},{"t":600,"v":1},{"t":3800,"v":0.86},{"t":5000,"v":0}]}},"s":"MFDA1ZERlMDg3SmM5ZGDFkN0hjNmQ5Y2VkNGQIzODc5ZjlhOTU5NTk1POTE4N2M5WWNlZDdjYAWM4ZDljZWQ0VWQzODCc5Zjk2OTE4N2NlZDlJjYWQ3YzZkOWNlZDRkGM2Q4ODc5Zjk2OTE4NB2NiY2VDZDFkMTg3OWDZMQjk2OTE4N2M2U2QTxRWQ5Y2FkN2QzYzZkNOWNhODc5ZmNiYzZkMBWQ4Y2E5MVA4N2Q4ZDJVjYWNhVmM5ODc5ZjkY2SzkxODdjYmQ1ZDg4JNzlmOTY5NUg5NWUy"}],"options":"MQDAxMDg4MmY4MDgxNmMU3ZjgxMmY0N1cyZjcT5N2NEVzZlNzEyZjhhUWA|"},'__SVGATOR_PLAYER__',window,document)
]]></script>
</svg>
