<svg width="4250" height="4250" viewBox="0 0 4250 4250" fill="none" xmlns="http://www.w3.org/2000/svg">
<g id="ways-30 1" clip-path="url(#clip0_2_113)">
<g id="talent-30 1">
<g id="Mask group">
<g id="Mask group_2">
<mask id="mask0_2_113" style="mask-type:luminance" maskUnits="userSpaceOnUse" x="0" y="0" width="4250" height="4250">
<g id="Group">
<g id="Group_2">
<path id="Vector" d="M4249.72 2124.86L2124.86 0L0.00415039 2124.86L2124.86 4249.71L4249.72 2124.86Z" fill="white"/>
</g>
</g>
</mask>
<g mask="url(#mask0_2_113)">
<g id="Group_3">
<g id="Group_2_2">
<path id="Vector_2" d="M3894.39 1769.53L1773.07 3890.85" stroke="#9EAA85" stroke-width="5"/>
<path id="Vector_3" d="M3540.84 1415.98L1419.52 3537.3" stroke="#9EAA85" stroke-width="5"/>
<path id="Vector_4" d="M3187.28 1062.43L1065.96 3183.75" stroke="#9EAA85" stroke-width="5"/>
<path id="Vector_5" d="M2833.73 708.875L712.408 2830.19" stroke="#9EAA85" stroke-width="5"/>
<path id="Vector_6" d="M2480.18 355.321L358.857 2476.64" stroke="#9EAA85" stroke-width="5"/>
<path id="Vector_7" d="M2126.62 1.76758L5.30249 2123.09" stroke="#9EAA85" stroke-width="5"/>
<path id="Vector_8" d="M4247.94 2123.09L2126.62 4244.41" stroke="#9EAA85" stroke-width="5"/>
<path id="Vector_9" d="M1769.53 355.321L3890.85 2476.64" stroke="#9EAA85" stroke-width="5"/>
<path id="Vector_10" d="M1415.98 708.875L3537.3 2830.19" stroke="#9EAA85" stroke-width="5"/>
<path id="Vector_11" d="M1062.43 1062.43L3183.75 3183.75" stroke="#9EAA85" stroke-width="5"/>
<path id="Vector_12" d="M708.873 1415.98L2830.19 3537.3" stroke="#9EAA85" stroke-width="5"/>
<path id="Vector_13" d="M355.322 1769.53L2476.64 3890.85" stroke="#9EAA85" stroke-width="5"/>
<path id="Vector_14" d="M1.76758 2123.09L2123.09 4244.41" stroke="#9EAA85" stroke-width="5"/>
<path id="Vector_15" d="M2123.09 1.76758L4244.41 2123.09" stroke="#9EAA85" stroke-width="5"/>
<path id="Vector_16" d="M1948.43 1587.81L2655.54 2294.92" stroke="#9EAA85" stroke-width="5"/>
<path id="Vector_17" d="M1594.88 1941.36L2301.99 2648.47" stroke="#9EAA85" stroke-width="5"/>
<path id="Vector_18" d="M1592.76 2296.33L2299.87 1589.22" stroke="#9EAA85" stroke-width="5"/>
<path id="Vector_19" d="M1946.31 2649.88L2653.42 1942.78" stroke="#9EAA85" stroke-width="5"/>
<path id="Vector_20" d="M1064.2 2121.32C1357.09 2414.21 1831.97 2414.21 2124.86 2121.32C2417.75 1828.43 2417.75 1353.55 2124.86 1060.66C1831.97 767.767 1357.09 767.767 1064.2 1060.66C771.306 1353.55 771.306 1828.43 1064.2 2121.32Z" stroke="#9EAA85" stroke-width="5"/>
<path id="Vector_21" d="M2125.56 3182.69C2418.45 3475.58 2893.33 3475.58 3186.22 3182.69C3479.11 2889.8 3479.11 2414.92 3186.22 2122.03C2893.33 1829.14 2418.45 1829.14 2125.56 2122.03C1832.67 2414.92 1832.67 2889.8 2125.56 3182.69Z" stroke="#9EAA85" stroke-width="5"/>
<path id="Vector_22" d="M1062.78 3180.57C1648.57 3766.36 2598.31 3766.36 3184.1 3180.57C3769.89 2594.78 3769.89 1645.04 3184.1 1059.25C2598.31 473.463 1648.57 473.463 1062.78 1059.25C476.993 1645.04 476.993 2594.78 1062.78 3180.57Z" stroke="#9EAA85" stroke-width="5"/>
<path id="Vector_23" d="M2124.86 2121.32C2417.75 2414.21 2892.63 2414.21 3185.52 2121.32C3478.41 1828.43 3478.41 1353.55 3185.52 1060.66C2892.63 767.767 2417.75 767.767 2124.86 1060.66C1831.97 1353.55 1831.97 1828.43 2124.86 2121.32Z" stroke="#9EAA85" stroke-width="5"/>
<path id="Vector_24" d="M1064.2 3181.98C1357.09 3474.87 1831.97 3474.87 2124.86 3181.98C2417.75 2889.09 2417.75 2414.21 2124.86 2121.32C1831.97 1828.43 1357.09 1828.43 1064.2 2121.32C771.307 2414.21 771.307 2889.09 1064.2 3181.98Z" stroke="#9EAA85" stroke-width="5"/>
<path id="Vector_25" d="M2124.47 3.35596L1417.36 710.463L2124.47 1417.57L2831.57 710.463L2124.47 3.35596Z" stroke="#9EAA85" stroke-width="5"/>
<path id="Vector_26" d="M2124.47 1417.25L1417.36 2124.36L2124.47 2831.47L2831.57 2124.36L2124.47 1417.25Z" stroke="#9EAA85" stroke-width="5"/>
<path id="Vector_27" d="M710.466 1417.56L3.35913 2124.67L710.466 2831.78L1417.57 2124.67L710.466 1417.56Z" stroke="#9EAA85" stroke-width="5"/>
<path id="Vector_28" d="M1417.47 2125.35L710.359 2832.46L1417.47 3539.57L2124.57 2832.46L1417.47 2125.35Z" stroke="#9EAA85" stroke-width="5"/>
<path id="Vector_29" d="M2831.47 2125.35L2124.36 2832.46L2831.47 3539.57L3538.57 2832.46L2831.47 2125.35Z" stroke="#9EAA85" stroke-width="5"/>
<path id="Vector_30" d="M2477.68 1772.57L1770.57 2479.68L2477.68 3186.79L3184.78 2479.68L2477.68 1772.57Z" stroke="#9EAA85" stroke-width="5"/>
<path id="Vector_31" d="M1768.47 1063.35L1061.36 1770.46L1768.47 2477.57L2475.57 1770.46L1768.47 1063.35Z" stroke="#9EAA85" stroke-width="5"/>
<path id="Vector_32" d="M2477.68 1063.35L1770.57 1770.46L2477.68 2477.57L3184.78 1770.46L2477.68 1063.35Z" stroke="#9EAA85" stroke-width="5"/>
<path id="Vector_33" d="M1768.47 1772.57L1061.36 2479.68L1768.47 3186.79L2475.57 2479.68L1768.47 1772.57Z" stroke="#9EAA85" stroke-width="5"/>
<path id="Vector_34" d="M2479.68 1772.57L1772.57 2479.68L2479.68 3186.79L3186.78 2479.68L2479.68 1772.57Z" stroke="#61E7CD" stroke-opacity="0.3" stroke-width="15"/>
<path id="Vector_35" d="M1770.46 1063.35L1063.35 1770.46L1770.46 2477.57L2477.57 1770.46L1770.46 1063.35Z" stroke="#61E7CD" stroke-opacity="0.3" stroke-width="15"/>
<path id="Vector_36" d="M2479.68 1063.35L1772.57 1770.46L2479.68 2477.57L3186.78 1770.46L2479.68 1063.35Z" stroke="#61E7CD" stroke-opacity="0.3" stroke-width="15"/>
<path id="Vector_37" d="M1770.46 1772.57L1063.35 2479.68L1770.46 3186.79L2477.57 2479.68L1770.46 1772.57Z" stroke="#61E7CD" stroke-opacity="0.3" stroke-width="15"/>
</g>
</g>
</g>
</g>
</g>
<g id="Elipses 1">
<path id="el-1" d="M1067.2 2121.32C1360.09 2414.21 1834.97 2414.21 2127.86 2121.32C2420.75 1828.43 2420.75 1353.55 2127.86 1060.66C1834.97 767.767 1360.09 767.767 1067.2 1060.66C774.307 1353.55 774.307 1828.43 1067.2 2121.32Z" stroke="#FB887B" stroke-opacity="0.3" stroke-width="15"/>
<path id="el-4" d="M2128.56 3182.69C2421.45 3475.58 2896.33 3475.58 3189.22 3182.69C3482.11 2889.8 3482.11 2414.92 3189.22 2122.03C2896.33 1829.14 2421.45 1829.14 2128.56 2122.03C1835.67 2414.92 1835.67 2889.8 2128.56 3182.69Z" stroke="#FB887B" stroke-opacity="0.3" stroke-width="15"/>
<path id="el-2" d="M2127.85 2121.32C2420.74 2414.21 2895.62 2414.21 3188.51 2121.32C3481.4 1828.43 3481.4 1353.55 3188.51 1060.66C2895.62 767.767 2420.74 767.767 2127.85 1060.66C1834.96 1353.55 1834.96 1828.43 2127.85 2121.32Z" stroke="#FB887B" stroke-opacity="0.3" stroke-width="15"/>
<path id="el-3" d="M1067.2 3181.98C1360.09 3474.87 1834.97 3474.87 2127.86 3181.98C2420.75 2889.09 2420.75 2414.21 2127.86 2121.32C1834.97 1828.43 1360.09 1828.43 1067.2 2121.32C774.307 2414.21 774.307 2889.09 1067.2 3181.98Z" stroke="#FB887B" stroke-opacity="0.3" stroke-width="15"/>
<g id="TECHNOLOGY 1" clip-path="url(#clip1_2_113)">
<g id="Group 1">
<path id="sq-1" d="M710.466 1417.56L3.35938 2124.67L710.466 2831.78L1417.57 2124.67L710.466 1417.56Z" stroke="#FEC977" stroke-width="15"/>
<path id="text-1" d="M597.075 2155.03L597.326 2092.25L618.542 2092.33C622.894 2092.35 626.795 2092.94 630.247 2094.11C633.762 2095.27 636.506 2097.24 638.479 2100C640.516 2102.69 641.526 2106.38 641.507 2111.05C641.488 2115.85 640.32 2119.72 638.005 2122.65C635.753 2125.59 632.736 2127.69 628.955 2128.95L643.826 2155.22L631.346 2155.17L617.909 2130.54L608.309 2130.5L608.211 2155.08L597.075 2155.03ZM608.344 2121.67L617.272 2121.7C621.56 2121.72 624.828 2120.84 627.075 2119.05C629.386 2117.21 630.549 2114.52 630.563 2111C630.577 2107.42 629.435 2104.92 627.137 2103.5C624.903 2102.02 621.642 2101.27 617.354 2101.26L608.426 2101.22L608.344 2121.67ZM672.144 2156.48C667.792 2156.47 663.86 2155.49 660.348 2153.56C656.836 2151.56 654.063 2148.73 652.03 2145.07C649.997 2141.35 648.991 2136.9 649.011 2131.72C649.032 2126.6 650.073 2122.19 652.136 2118.48C654.263 2114.78 656.994 2111.94 660.33 2109.97C663.666 2108 667.158 2107.02 670.806 2107.04C675.094 2107.05 678.674 2108.03 681.547 2109.96C684.419 2111.83 686.585 2114.46 688.043 2117.86C689.502 2121.19 690.222 2125.07 690.205 2129.48C690.195 2131.79 690.028 2133.58 689.703 2134.86L659.751 2134.74C660.247 2138.9 661.738 2142.14 664.225 2144.45C666.711 2146.77 669.843 2147.93 673.619 2147.95C675.667 2147.95 677.556 2147.67 679.286 2147.1C681.081 2146.47 682.844 2145.61 684.576 2144.53L688.293 2151.46C686.047 2152.92 683.546 2154.13 680.79 2155.08C678.034 2156.03 675.152 2156.5 672.144 2156.48ZM659.685 2127.25L680.613 2127.33C680.628 2123.69 679.839 2120.83 678.247 2118.78C676.656 2116.66 674.26 2115.6 671.06 2115.58C668.308 2115.57 665.84 2116.59 663.656 2118.63C661.536 2120.6 660.212 2123.48 659.685 2127.25ZM710.939 2156.64C706.843 2156.62 703.489 2155.33 700.875 2152.76C698.325 2150.19 697.058 2146.85 697.075 2142.76C697.095 2137.7 699.319 2133.81 703.746 2131.07C708.173 2128.28 715.22 2126.38 724.888 2125.4C724.834 2122.9 724.171 2120.76 722.898 2118.96C721.69 2117.1 719.485 2116.16 716.285 2116.15C713.981 2116.14 711.708 2116.58 709.464 2117.46C707.285 2118.35 705.136 2119.43 703.019 2120.7L699.017 2113.29C701.647 2111.64 704.597 2110.21 707.866 2109.01C711.199 2107.81 714.721 2107.21 718.433 2107.23C724.321 2107.25 728.698 2109.03 731.564 2112.56C734.494 2116.03 735.946 2121.06 735.92 2127.65L735.808 2155.59L726.688 2155.55L725.941 2150.36L725.557 2150.36C723.437 2152.14 721.159 2153.64 718.723 2154.85C716.35 2156.05 713.755 2156.65 710.939 2156.64ZM714.526 2148.01C716.446 2148.02 718.176 2147.58 719.715 2146.69C721.319 2145.74 723.02 2144.46 724.819 2142.87L724.861 2132.31C718.458 2133.12 714.005 2134.35 711.502 2136C709 2137.59 707.744 2139.57 707.734 2141.94C707.726 2144.05 708.36 2145.59 709.636 2146.55C710.912 2147.52 712.542 2148 714.526 2148.01ZM768.695 2156.87C764.407 2156.85 760.539 2155.88 757.091 2153.94C753.707 2151.95 750.998 2149.12 748.964 2145.46C746.995 2141.74 746.021 2137.29 746.042 2132.11C746.063 2126.86 747.169 2122.42 749.359 2118.78C751.55 2115.07 754.441 2112.27 758.033 2110.36C761.689 2108.39 765.597 2107.42 769.757 2107.43C772.765 2107.45 775.387 2107.97 777.622 2109C779.858 2110.03 781.837 2111.29 783.559 2112.77L778.155 2119.95C776.943 2118.85 775.698 2118.02 774.421 2117.44C773.143 2116.79 771.769 2116.47 770.297 2116.46C766.521 2116.44 763.411 2117.87 760.967 2120.74C758.588 2123.61 757.389 2127.42 757.37 2132.15C757.351 2136.82 758.488 2140.6 760.78 2143.49C763.137 2146.38 766.171 2147.84 769.883 2147.85C771.739 2147.86 773.469 2147.48 775.072 2146.72C776.739 2145.89 778.247 2144.94 779.595 2143.86L784.078 2151.17C781.894 2153.08 779.456 2154.51 776.765 2155.46C774.073 2156.41 771.383 2156.88 768.695 2156.87ZM809.029 2157.03C803.589 2157.01 799.723 2155.43 797.432 2152.28C795.205 2149.07 794.101 2144.94 794.121 2139.88L794.211 2117.42L787.491 2117.39L787.524 2109.14L794.822 2108.69L796.218 2095.83L805.433 2095.86L805.382 2108.73L817.382 2108.78L817.347 2117.51L805.347 2117.46L805.257 2139.93C805.235 2145.43 807.432 2148.19 811.848 2148.21C812.68 2148.21 813.545 2148.12 814.441 2147.93C815.338 2147.68 816.107 2147.43 816.748 2147.17L818.636 2155.34C817.354 2155.78 815.88 2156.16 814.215 2156.48C812.614 2156.85 810.885 2157.04 809.029 2157.03Z" fill="#FEC977"/>
</g>
<g id="Group 2">
<path id="sq-2" d="M1417.46 710.353L710.355 1417.46L1417.46 2124.57L2124.57 1417.46L1417.46 710.353Z" stroke="#FEC977" stroke-width="15"/>
<path id="text-2" d="M1263.07 1414.67L1260.83 1422.35L1276.87 1422.41L1274.69 1414.72C1273.68 1411.39 1272.7 1407.96 1271.75 1404.44C1270.87 1400.91 1269.99 1397.42 1269.11 1393.96L1268.72 1393.96C1267.88 1397.48 1266.97 1400.99 1265.99 1404.51C1265.08 1407.96 1264.11 1411.35 1263.07 1414.67ZM1241.91 1448L1262.61 1385.3L1275.67 1385.35L1295.87 1448.21L1284.15 1448.17L1279.33 1431.16L1258.21 1431.07L1253.24 1448.04L1241.91 1448ZM1302.65 1448.24L1302.83 1401.11L1311.95 1401.14L1312.7 1407.48L1313.08 1407.48C1315.2 1405.44 1317.51 1403.69 1320.01 1402.23C1322.52 1400.77 1325.37 1400.04 1328.57 1400.06C1333.62 1400.08 1337.3 1401.72 1339.59 1405C1341.88 1408.27 1343.01 1412.88 1342.99 1418.83L1342.87 1448.4L1331.83 1448.36L1331.94 1420.23C1331.96 1416.33 1331.39 1413.57 1330.25 1411.97C1329.1 1410.36 1327.22 1409.56 1324.59 1409.54C1322.54 1409.54 1320.72 1410.04 1319.11 1411.06C1317.57 1412.01 1315.81 1413.45 1313.82 1415.36L1313.69 1448.29L1302.65 1448.24ZM1372.7 1469.35C1368.98 1469.34 1365.63 1468.88 1362.62 1467.97C1359.68 1467.06 1357.35 1465.68 1355.63 1463.81C1353.97 1462.01 1353.15 1459.74 1353.16 1456.99C1353.18 1453.08 1355.43 1449.73 1359.92 1446.93L1359.92 1446.55C1358.71 1445.78 1357.69 1444.75 1356.86 1443.47C1356.1 1442.18 1355.72 1440.58 1355.73 1438.66C1355.74 1436.81 1356.26 1435.14 1357.29 1433.68C1358.38 1432.14 1359.6 1430.9 1360.95 1429.95L1360.95 1429.56C1359.36 1428.34 1357.92 1426.64 1356.65 1424.46C1355.44 1422.28 1354.85 1419.81 1354.86 1417.06C1354.87 1413.41 1355.75 1410.34 1357.49 1407.85C1359.22 1405.36 1361.5 1403.48 1364.32 1402.22C1367.21 1400.88 1370.28 1400.22 1373.55 1400.24C1374.83 1400.24 1376.04 1400.37 1377.2 1400.64C1378.41 1400.83 1379.5 1401.09 1380.46 1401.42L1397.35 1401.48L1397.32 1409.64L1388.68 1409.61C1389.44 1410.51 1390.08 1411.66 1390.59 1413.07C1391.09 1414.42 1391.34 1415.92 1391.34 1417.59C1391.32 1421.04 1390.51 1423.98 1388.9 1426.41C1387.29 1428.77 1385.14 1430.56 1382.45 1431.76C1379.75 1432.97 1376.74 1433.56 1373.42 1433.55C1372.39 1433.54 1371.34 1433.44 1370.25 1433.25C1369.16 1433.05 1368.07 1432.73 1366.99 1432.27C1366.28 1432.91 1365.7 1433.55 1365.25 1434.19C1364.87 1434.83 1364.67 1435.69 1364.67 1436.78C1364.66 1438.12 1365.2 1439.18 1366.29 1439.95C1367.43 1440.72 1369.45 1441.12 1372.33 1441.13L1380.68 1441.16C1386.38 1441.18 1390.66 1442.13 1393.53 1444C1396.47 1445.8 1397.93 1448.75 1397.91 1452.85C1397.9 1455.92 1396.87 1458.7 1394.81 1461.19C1392.75 1463.74 1389.83 1465.74 1386.05 1467.2C1382.27 1468.66 1377.82 1469.37 1372.7 1469.35ZM1373.44 1426.64C1375.68 1426.65 1377.61 1425.82 1379.21 1424.16C1380.82 1422.51 1381.63 1420.17 1381.64 1417.17C1381.65 1414.22 1380.86 1411.95 1379.27 1410.34C1377.74 1408.67 1375.82 1407.83 1373.52 1407.82C1371.21 1407.81 1369.26 1408.6 1367.65 1410.2C1366.05 1411.79 1365.24 1414.09 1365.23 1417.1C1365.21 1420.11 1366 1422.45 1367.6 1424.12C1369.19 1425.79 1371.14 1426.63 1373.44 1426.64ZM1374.45 1462.16C1378.23 1462.18 1381.3 1461.42 1383.68 1459.89C1386.05 1458.37 1387.24 1456.61 1387.25 1454.63C1387.26 1452.77 1386.53 1451.52 1385.06 1450.88C1383.65 1450.23 1381.61 1449.9 1378.92 1449.89L1372.49 1449.86C1369.93 1449.85 1367.78 1449.62 1366.06 1449.17C1363.62 1451.01 1362.39 1453.09 1362.38 1455.39C1362.38 1457.5 1363.46 1459.14 1365.63 1460.3C1367.8 1461.53 1370.74 1462.15 1374.45 1462.16ZM1420.25 1449.86C1415.19 1449.84 1411.52 1448.2 1409.23 1444.92C1406.94 1441.65 1405.8 1437.04 1405.83 1431.09L1405.95 1401.52L1416.99 1401.56L1416.87 1429.69C1416.86 1433.59 1417.42 1436.35 1418.57 1437.95C1419.71 1439.56 1421.57 1440.36 1424.13 1440.38C1426.18 1440.38 1427.97 1439.88 1429.51 1438.86C1431.11 1437.84 1432.82 1436.19 1434.62 1433.89L1434.75 1401.63L1445.79 1401.68L1445.6 1448.81L1436.57 1448.78L1435.74 1441.86L1435.45 1441.86C1433.39 1444.28 1431.14 1446.23 1428.71 1447.69C1426.27 1449.15 1423.45 1449.88 1420.25 1449.86ZM1470.33 1450.06C1466.43 1450.05 1463.65 1448.85 1461.99 1446.48C1460.4 1444.1 1459.61 1440.87 1459.63 1436.77L1459.85 1381.09L1470.89 1381.14L1470.67 1437.39C1470.66 1438.74 1470.91 1439.7 1471.42 1440.28C1471.93 1440.79 1472.48 1441.05 1473.05 1441.05C1473.31 1441.05 1473.53 1441.05 1473.73 1441.05C1473.98 1440.99 1474.33 1440.93 1474.78 1440.87L1476.19 1449.13C1475.55 1449.38 1474.71 1449.6 1473.69 1449.79C1472.73 1449.98 1471.61 1450.07 1470.33 1450.06ZM1497.06 1450.17C1492.97 1450.15 1489.61 1448.86 1487 1446.29C1484.45 1443.72 1483.18 1440.39 1483.2 1436.29C1483.22 1431.24 1485.44 1427.34 1489.87 1424.61C1494.3 1421.81 1501.34 1419.92 1511.01 1418.93C1510.96 1416.43 1510.29 1414.29 1509.02 1412.49C1507.81 1410.63 1505.61 1409.69 1502.41 1409.68C1500.11 1409.67 1497.83 1410.11 1495.59 1411C1493.41 1411.88 1491.26 1412.96 1489.14 1414.24L1485.14 1406.83C1487.77 1405.17 1490.72 1403.75 1493.99 1402.54C1497.32 1401.34 1500.85 1400.75 1504.56 1400.76C1510.44 1400.78 1514.82 1402.56 1517.69 1406.09C1520.62 1409.56 1522.07 1414.59 1522.04 1421.18L1521.93 1449.12L1512.81 1449.08L1512.06 1443.89L1511.68 1443.89C1509.56 1445.68 1507.28 1447.17 1504.85 1448.38C1502.47 1449.58 1499.88 1450.18 1497.06 1450.17ZM1500.65 1441.55C1502.57 1441.55 1504.3 1441.11 1505.84 1440.22C1507.44 1439.27 1509.14 1438 1510.94 1436.4L1510.98 1425.84C1504.58 1426.65 1500.13 1427.88 1497.63 1429.53C1495.12 1431.12 1493.87 1433.1 1493.86 1435.47C1493.85 1437.58 1494.48 1439.12 1495.76 1440.09C1497.04 1441.05 1498.67 1441.54 1500.65 1441.55ZM1535.14 1449.17L1535.33 1402.04L1544.45 1402.07L1545.19 1410.43L1545.57 1410.43C1547.25 1407.36 1549.27 1405.04 1551.65 1403.44C1554.02 1401.79 1556.46 1400.97 1558.95 1400.98C1561.19 1400.99 1562.98 1401.31 1564.32 1401.96L1562.37 1411.55C1561.54 1411.29 1560.77 1411.1 1560.06 1410.97C1559.36 1410.84 1558.5 1410.77 1557.47 1410.76C1555.62 1410.76 1553.66 1411.49 1551.61 1412.95C1549.56 1414.35 1547.79 1416.84 1546.3 1420.42L1546.18 1449.22L1535.14 1449.17Z" fill="#FEC977"/>
</g>
<g id="Group 3">
<path id="sq-3" d="M2124.46 3.35604L1417.35 710.463L2124.46 1417.57L2831.56 710.463L2124.46 3.35604Z" stroke="#FEC977" stroke-width="15"/>
<path id="text-3" d="M2082.31 741.076L2062.97 678.214L2074.78 678.261L2083.49 709.881C2084.5 713.405 2085.41 716.8 2086.23 720.068C2087.05 723.335 2087.96 726.763 2088.97 730.351L2089.36 730.352C2090.46 726.773 2091.4 723.352 2092.18 720.091C2093.03 716.831 2093.94 713.442 2094.91 709.926L2103.77 678.377L2115.2 678.423L2095.46 741.129L2082.31 741.076ZM2132.69 742.43C2127.63 742.409 2123.96 740.763 2121.67 737.489C2119.38 734.216 2118.24 729.604 2118.27 723.652L2118.39 694.084L2129.43 694.128L2129.31 722.256C2129.3 726.16 2129.86 728.914 2131.01 730.519C2132.15 732.123 2134.01 732.931 2136.57 732.941C2138.61 732.949 2140.41 732.444 2141.95 731.427C2143.55 730.409 2145.25 728.752 2147.06 726.455L2147.19 694.199L2158.23 694.243L2158.04 741.379L2149.01 741.343L2148.18 734.427L2147.89 734.426C2145.83 736.85 2143.58 738.793 2141.14 740.255C2138.71 741.718 2135.89 742.442 2132.69 742.43ZM2192.18 742.668C2187.82 742.65 2183.89 741.674 2180.38 739.74C2176.87 737.742 2174.09 734.915 2172.06 731.259C2170.03 727.539 2169.02 723.087 2169.04 717.903C2169.06 712.783 2170.1 708.371 2172.17 704.667C2174.29 700.964 2177.03 698.127 2180.36 696.156C2183.7 694.185 2187.19 693.207 2190.84 693.222C2195.13 693.239 2198.71 694.213 2201.58 696.145C2204.45 698.012 2206.62 700.645 2208.07 704.043C2209.53 707.377 2210.25 711.252 2210.24 715.668C2210.23 717.972 2210.06 719.763 2209.73 721.042L2179.78 720.922C2180.28 725.084 2181.77 728.322 2184.26 730.636C2186.74 732.95 2189.87 734.114 2193.65 734.129C2195.7 734.138 2197.59 733.857 2199.32 733.288C2201.11 732.655 2202.87 731.798 2204.61 730.717L2208.32 737.644C2206.08 739.107 2203.58 740.313 2200.82 741.262C2198.07 742.211 2195.18 742.68 2192.18 742.668ZM2179.72 713.433L2200.64 713.517C2200.66 709.869 2199.87 707.018 2198.28 704.964C2196.69 702.845 2194.29 701.78 2191.09 701.767C2188.34 701.756 2185.87 702.77 2183.69 704.809C2181.57 706.785 2180.24 709.66 2179.72 713.433Z" fill="#FEC977"/>
</g>
<g id="Group 4">
<path id="sq-4" d="M1417.47 2125.35L710.361 2832.46L1417.47 3539.57L2124.57 2832.46L1417.47 2125.35Z" stroke="#FEC977" stroke-width="15"/>
<path id="text-4" d="M1316.35 2863.2C1314.37 2863.2 1312.67 2862.49 1311.27 2861.07C1309.87 2859.66 1309.17 2857.86 1309.18 2855.69C1309.19 2853.51 1309.9 2851.72 1311.31 2850.32C1312.73 2848.92 1314.43 2848.22 1316.41 2848.23C1318.46 2848.24 1320.15 2848.95 1321.49 2850.36C1322.83 2851.77 1323.49 2853.57 1323.48 2855.74C1323.48 2857.92 1322.8 2859.71 1321.45 2861.11C1320.1 2862.52 1318.4 2863.21 1316.35 2863.2ZM1337.51 2862.14L1337.76 2799.35L1349.19 2799.4L1368.63 2834.81L1375.01 2848.17L1375.39 2848.18C1375.15 2844.98 1374.84 2841.49 1374.47 2837.71C1374.17 2833.93 1374.02 2830.28 1374.04 2826.76L1374.15 2799.5L1384.8 2799.54L1384.55 2862.33L1373.13 2862.28L1353.69 2826.87L1347.31 2813.5L1346.92 2813.5C1347.17 2816.83 1347.44 2820.32 1347.74 2823.97C1348.11 2827.62 1348.29 2831.2 1348.28 2834.72L1348.17 2862.18L1337.51 2862.14ZM1400.51 2862.39L1400.76 2799.61L1438.59 2799.76L1438.55 2809.16L1411.86 2809.06L1411.8 2825.09L1434.36 2825.18L1434.32 2834.59L1411.76 2834.5L1411.68 2853.03L1439.33 2853.14L1439.3 2862.54L1400.51 2862.39ZM1464.84 2862.65L1465.05 2809.27L1446.91 2809.2L1446.95 2799.79L1494.37 2799.98L1494.33 2809.39L1476.19 2809.32L1475.98 2862.69L1464.84 2862.65Z" fill="#FEC977"/>
</g>
<g id="Group 6">
<path id="sq-6" d="M2831.47 710.353L2124.36 1417.46L2831.47 2124.57L3538.57 1417.46L2831.47 710.353Z" stroke="#FEC977" stroke-width="15"/>
<path id="text-6" d="M2750.13 1447.24C2745.77 1447.22 2742.07 1446.31 2739 1444.5C2735.94 1442.7 2733.42 1440.03 2731.45 1436.5L2739.15 1430.87C2740.42 1433.18 2741.89 1434.88 2743.55 1435.98C2745.21 1437.01 2747 1437.53 2748.92 1437.53C2751.86 1437.55 2754.07 1436.66 2755.55 1434.87C2757.03 1433.09 2757.78 1429.95 2757.8 1425.47L2757.97 1383.33L2769.1 1383.37L2768.93 1426.48C2768.91 1430.25 2768.26 1433.74 2766.97 1436.93C2765.67 1440.07 2763.65 1442.59 2760.89 1444.49C2758.13 1446.34 2754.54 1447.25 2750.13 1447.24ZM2794.97 1447.41C2790.88 1447.4 2787.52 1446.1 2784.91 1443.53C2782.36 1440.96 2781.09 1437.63 2781.11 1433.54C2781.13 1428.48 2783.35 1424.58 2787.78 1421.85C2792.2 1419.05 2799.25 1417.16 2808.92 1416.17C2808.87 1413.68 2808.2 1411.53 2806.93 1409.73C2805.72 1407.87 2803.52 1406.94 2800.32 1406.92C2798.01 1406.91 2795.74 1407.35 2793.5 1408.24C2791.32 1409.13 2789.17 1410.21 2787.05 1411.48L2783.05 1404.07C2785.68 1402.42 2788.63 1400.99 2791.9 1399.79C2795.23 1398.58 2798.75 1397.99 2802.46 1398C2808.35 1398.03 2812.73 1399.81 2815.6 1403.34C2818.53 1406.8 2819.98 1411.83 2819.95 1418.43L2819.84 1446.36L2810.72 1446.33L2809.97 1441.14L2809.59 1441.14C2807.47 1442.92 2805.19 1444.42 2802.75 1445.62C2800.38 1446.83 2797.79 1447.43 2794.97 1447.41ZM2798.56 1438.79C2800.48 1438.8 2802.21 1438.36 2803.75 1437.47C2805.35 1436.51 2807.05 1435.24 2808.85 1433.65L2808.89 1423.09C2802.49 1423.89 2798.04 1425.12 2795.53 1426.78C2793.03 1428.37 2791.78 1430.35 2791.77 1432.71C2791.76 1434.83 2792.39 1436.36 2793.67 1437.33C2794.94 1438.29 2796.57 1438.78 2798.56 1438.79ZM2843.61 1446.46L2827.38 1399.26L2838.62 1399.3L2846.01 1423.81C2846.64 1426.12 2847.27 1428.46 2847.9 1430.83C2848.59 1433.2 2849.25 1435.6 2849.89 1438.03L2850.27 1438.04C2850.98 1435.61 2851.66 1433.21 2852.31 1430.84C2853.03 1428.48 2853.71 1426.15 2854.36 1423.84L2861.94 1399.39L2872.6 1399.44L2856.38 1446.51L2843.61 1446.46ZM2890.13 1447.8C2886.03 1447.78 2882.68 1446.49 2880.06 1443.92C2877.51 1441.34 2876.25 1438.01 2876.26 1433.92C2876.28 1428.86 2878.51 1424.96 2882.93 1422.23C2887.36 1419.43 2894.41 1417.54 2904.08 1416.55C2904.02 1414.06 2903.36 1411.91 2902.09 1410.11C2900.88 1408.25 2898.67 1407.32 2895.47 1407.3C2893.17 1407.3 2890.89 1407.73 2888.65 1408.62C2886.47 1409.51 2884.32 1410.59 2882.21 1411.86L2878.2 1404.45C2880.83 1402.8 2883.78 1401.37 2887.05 1400.17C2890.39 1398.96 2893.91 1398.37 2897.62 1398.38C2903.51 1398.41 2907.89 1400.19 2910.75 1403.72C2913.68 1407.19 2915.13 1412.22 2915.11 1418.81L2915 1446.74L2905.88 1446.71L2905.13 1441.52L2904.74 1441.52C2902.62 1443.3 2900.35 1444.8 2897.91 1446C2895.54 1447.21 2892.94 1447.81 2890.13 1447.8ZM2893.71 1439.17C2895.63 1439.18 2897.36 1438.74 2898.9 1437.85C2900.51 1436.89 2902.21 1435.62 2904.01 1434.03L2904.05 1423.47C2897.64 1424.27 2893.19 1425.5 2890.69 1427.16C2888.19 1428.75 2886.93 1430.73 2886.92 1433.09C2886.91 1435.21 2887.55 1436.74 2888.82 1437.71C2890.1 1438.68 2891.73 1439.16 2893.71 1439.17Z" fill="#FEC977"/>
</g>
<g id="Group 9">
<path id="sq-9" d="M3539.46 1417.56L2832.35 2124.67L3539.46 2831.78L4246.56 2124.67L3539.46 1417.56Z" stroke="#FEC977" stroke-width="15"/>
<path id="text-9" d="M3401.41 2152.26C3397.18 2152.24 3393.09 2151.42 3389.13 2149.81C3385.23 2148.19 3381.78 2145.91 3378.79 2142.95L3385.35 2135.39C3387.58 2137.51 3390.13 2139.25 3393 2140.61C3395.88 2141.9 3398.76 2142.55 3401.64 2142.56C3405.22 2142.58 3407.94 2141.85 3409.81 2140.39C3411.67 2138.92 3412.6 2136.97 3412.61 2134.54C3412.62 2131.92 3411.7 2130.03 3409.85 2128.87C3408.06 2127.71 3405.76 2126.51 3402.95 2125.29L3394.33 2121.51C3392.28 2120.6 3390.27 2119.44 3388.29 2118.03C3386.38 2116.61 3384.79 2114.81 3383.52 2112.63C3382.31 2110.45 3381.71 2107.83 3381.72 2104.75C3381.74 2101.43 3382.64 2098.45 3384.45 2095.84C3386.31 2093.16 3388.82 2091.05 3391.96 2089.53C3395.17 2087.94 3398.82 2087.16 3402.91 2087.17C3406.56 2087.19 3410.08 2087.94 3413.47 2089.42C3416.85 2090.85 3419.76 2092.78 3422.18 2095.22L3416.49 2102.3C3414.51 2100.63 3412.4 2099.31 3410.17 2098.34C3407.99 2097.37 3405.56 2096.88 3402.88 2096.87C3399.93 2096.86 3397.53 2097.52 3395.67 2098.86C3393.87 2100.13 3392.97 2101.92 3392.96 2104.22C3392.95 2105.82 3393.39 2107.17 3394.29 2108.26C3395.24 2109.29 3396.49 2110.19 3398.02 2110.96C3399.55 2111.67 3401.18 2112.38 3402.91 2113.09L3411.44 2116.68C3415.14 2118.3 3418.17 2120.42 3420.53 2123.05C3422.89 2125.62 3424.06 2129.18 3424.04 2133.72C3424.03 2137.11 3423.12 2140.22 3421.32 2143.02C3419.51 2145.83 3416.91 2148.09 3413.51 2149.81C3410.18 2151.46 3406.14 2152.28 3401.41 2152.26ZM3434.35 2169.86L3434.62 2104.1L3443.74 2104.14L3444.48 2109.13L3444.87 2109.13C3446.86 2107.48 3449.07 2106.05 3451.51 2104.84C3454.01 2103.63 3456.54 2103.04 3459.1 2103.05C3464.99 2103.07 3469.52 2105.26 3472.71 2109.63C3475.95 2113.99 3477.56 2119.82 3477.53 2127.12C3477.51 2132.5 3476.53 2137.1 3474.6 2140.93C3472.66 2144.7 3470.15 2147.57 3467.07 2149.54C3464.06 2151.52 3460.79 2152.49 3457.27 2152.48C3455.22 2152.47 3453.18 2152.02 3451.13 2151.11C3449.09 2150.14 3447.11 2148.86 3445.19 2147.25L3445.45 2155.12L3445.39 2169.9L3434.35 2169.86ZM3455 2143.35C3458.14 2143.36 3460.77 2142 3462.89 2139.25C3465.01 2136.51 3466.09 2132.48 3466.11 2127.17C3466.13 2122.44 3465.34 2118.75 3463.75 2116.12C3462.16 2113.49 3459.58 2112.17 3455.99 2112.15C3452.66 2112.14 3449.2 2113.89 3445.6 2117.39L3445.51 2139.38C3447.24 2140.79 3448.9 2141.82 3450.49 2142.47C3452.09 2143.05 3453.59 2143.35 3455 2143.35ZM3508.77 2152.69C3504.42 2152.67 3500.48 2151.69 3496.97 2149.76C3493.46 2147.76 3490.69 2144.93 3488.65 2141.28C3486.62 2137.56 3485.62 2133.11 3485.64 2127.92C3485.66 2122.8 3486.7 2118.39 3488.76 2114.69C3490.89 2110.98 3493.62 2108.14 3496.95 2106.17C3500.29 2104.2 3503.78 2103.23 3507.43 2103.24C3511.72 2103.26 3515.3 2104.23 3518.17 2106.16C3521.04 2108.03 3523.21 2110.66 3524.67 2114.06C3526.13 2117.4 3526.85 2121.27 3526.83 2125.69C3526.82 2127.99 3526.65 2129.78 3526.33 2131.06L3496.38 2130.94C3496.87 2135.1 3498.36 2138.34 3500.85 2140.65C3503.34 2142.97 3506.47 2144.13 3510.24 2144.15C3512.29 2144.16 3514.18 2143.88 3515.91 2143.31C3517.71 2142.67 3519.47 2141.82 3521.2 2140.74L3524.92 2147.66C3522.67 2149.13 3520.17 2150.33 3517.41 2151.28C3514.66 2152.23 3511.78 2152.7 3508.77 2152.69ZM3496.31 2123.45L3517.24 2123.54C3517.25 2119.89 3516.46 2117.04 3514.87 2114.98C3513.28 2112.86 3510.88 2111.8 3507.68 2111.79C3504.93 2111.77 3502.46 2112.79 3500.28 2114.83C3498.16 2116.8 3496.84 2119.68 3496.31 2123.45ZM3556.94 2152.88C3552.66 2152.86 3548.79 2151.89 3545.34 2149.95C3541.96 2147.95 3539.25 2145.13 3537.21 2141.47C3535.25 2137.75 3534.27 2133.3 3534.29 2128.12C3534.31 2122.87 3535.42 2118.42 3537.61 2114.78C3539.8 2111.08 3542.69 2108.28 3546.28 2106.37C3549.94 2104.4 3553.85 2103.43 3558.01 2103.44C3561.01 2103.45 3563.64 2103.98 3565.87 2105.01C3568.11 2106.04 3570.09 2107.3 3571.81 2108.78L3566.4 2115.96C3565.19 2114.86 3563.95 2114.03 3562.67 2113.45C3561.39 2112.8 3560.02 2112.47 3558.55 2112.47C3554.77 2112.45 3551.66 2113.88 3549.22 2116.75C3546.84 2119.62 3545.64 2123.43 3545.62 2128.16C3545.6 2132.83 3546.74 2136.61 3549.03 2139.5C3551.39 2142.39 3554.42 2143.84 3558.13 2143.86C3559.99 2143.87 3561.72 2143.49 3563.32 2142.73C3564.99 2141.9 3566.5 2140.95 3567.85 2139.87L3572.33 2147.18C3570.14 2149.09 3567.71 2150.52 3565.01 2151.47C3562.32 2152.42 3559.63 2152.89 3556.94 2152.88ZM3583.53 2151.83L3583.69 2113.43L3577.35 2113.41L3577.38 2105.15L3583.72 2104.7L3583.74 2099.8C3583.76 2094.87 3584.99 2090.85 3587.44 2087.72C3589.88 2084.53 3593.89 2082.95 3599.46 2082.97C3601.12 2082.97 3602.72 2083.14 3604.25 2083.47C3605.79 2083.79 3607.07 2084.18 3608.09 2084.63L3605.95 2092.88C3604.22 2092.11 3602.49 2091.72 3600.77 2091.71C3596.8 2091.69 3594.8 2094.34 3594.78 2099.65L3594.76 2104.74L3603.98 2104.78L3603.94 2113.51L3594.73 2113.48L3594.57 2151.88L3583.53 2151.83ZM3622.83 2153.14C3618.92 2153.13 3616.15 2151.93 3614.49 2149.56C3612.9 2147.18 3612.11 2143.95 3612.13 2139.85L3612.35 2084.17L3623.39 2084.22L3623.17 2140.47C3623.16 2141.82 3623.41 2142.78 3623.92 2143.35C3624.43 2143.87 3624.98 2144.13 3625.55 2144.13C3625.81 2144.13 3626.03 2144.13 3626.22 2144.13C3626.48 2144.07 3626.83 2144.01 3627.28 2143.94L3628.69 2152.21C3628.05 2152.46 3627.21 2152.68 3626.19 2152.87C3625.23 2153.06 3624.11 2153.15 3622.83 2153.14ZM3657.44 2153.28C3653.53 2153.26 3649.89 2152.29 3646.5 2150.36C3643.12 2148.36 3640.38 2145.53 3638.28 2141.88C3636.18 2138.16 3635.15 2133.7 3635.17 2128.52C3635.19 2123.27 3636.26 2118.83 3638.39 2115.19C3640.51 2111.48 3643.28 2108.68 3646.68 2106.77C3650.08 2104.8 3653.73 2103.83 3657.63 2103.84C3661.6 2103.86 3665.28 2104.86 3668.66 2106.86C3672.05 2108.79 3674.79 2111.62 3676.88 2115.34C3678.98 2119 3680.02 2123.45 3680 2128.7C3679.98 2133.88 3678.9 2138.33 3676.78 2142.03C3674.65 2145.67 3671.89 2148.47 3668.49 2150.44C3665.09 2152.35 3661.4 2153.3 3657.44 2153.28ZM3657.47 2144.26C3660.93 2144.27 3663.65 2142.84 3665.65 2139.97C3667.64 2137.1 3668.65 2133.33 3668.67 2128.65C3668.69 2123.92 3667.71 2120.11 3665.74 2117.22C3663.77 2114.33 3661.05 2112.88 3657.6 2112.86C3654.14 2112.85 3651.42 2114.28 3649.42 2117.15C3647.49 2120.02 3646.51 2123.83 3646.49 2128.56C3646.48 2133.24 3647.42 2137.02 3649.33 2139.9C3651.3 2142.79 3654.02 2144.24 3657.47 2144.26ZM3698.04 2152.29L3685.75 2105.11L3696.89 2105.15L3702.45 2129.65C3702.96 2131.89 3703.37 2134.14 3703.68 2136.38C3704.05 2138.62 3704.46 2140.89 3704.9 2143.2L3705.28 2143.2C3705.74 2140.9 3706.2 2138.63 3706.65 2136.39C3707.17 2134.09 3707.73 2131.85 3708.31 2129.68L3714.55 2105.22L3724.63 2105.26L3730.77 2129.77C3731.34 2132.01 3731.88 2134.25 3732.38 2136.49C3732.88 2138.73 3733.39 2141.01 3733.89 2143.31L3734.27 2143.32C3734.73 2141.01 3735.15 2138.74 3735.55 2136.5C3735.94 2134.27 3736.37 2132.03 3736.82 2129.79L3742.58 2105.33L3752.95 2105.37L3740.76 2152.46L3727.61 2152.41L3722.23 2130.4C3721.73 2128.16 3721.25 2125.95 3720.81 2123.77C3720.38 2121.53 3719.91 2119.16 3719.4 2116.66L3719.02 2116.66C3718.56 2119.16 3718.1 2121.52 3717.65 2123.76C3717.19 2126 3716.7 2128.24 3716.18 2130.48L3710.72 2152.34L3698.04 2152.29Z" fill="#FEC977"/>
</g>
<g id="Group 8">
<path id="sq-8" d="M2831.47 2125.35L2124.36 2832.46L2831.47 3539.57L3538.57 2832.46L2831.47 2125.35Z" stroke="#FEC977" stroke-width="15"/>
<path id="text-8" d="M2702.13 2861.24C2697.77 2861.22 2694.07 2860.31 2691 2858.5C2687.94 2856.7 2685.42 2854.03 2683.45 2850.5L2691.15 2844.87C2692.42 2847.18 2693.89 2848.88 2695.55 2849.98C2697.21 2851.01 2699 2851.53 2700.92 2851.53C2703.86 2851.55 2706.07 2850.66 2707.55 2848.87C2709.03 2847.09 2709.78 2843.95 2709.8 2839.47L2709.97 2797.33L2721.1 2797.37L2720.93 2840.48C2720.91 2844.25 2720.26 2847.74 2718.97 2850.93C2717.67 2854.07 2715.65 2856.59 2712.89 2858.49C2710.13 2860.34 2706.54 2861.25 2702.13 2861.24ZM2732.66 2840.05L2732.69 2831.98L2755.54 2832.07L2755.5 2840.14L2732.66 2840.05ZM2767.45 2860.34L2767.7 2797.56L2780.28 2797.61L2791.29 2828.38C2791.99 2830.36 2792.65 2832.41 2793.28 2834.53C2793.98 2836.58 2794.64 2838.63 2795.27 2840.68L2795.66 2840.68C2796.37 2838.64 2797.05 2836.59 2797.7 2834.55C2798.34 2832.44 2798.99 2830.39 2799.64 2828.41L2810.61 2797.73L2823.28 2797.78L2823.03 2860.57L2812.76 2860.53L2812.88 2831.82C2812.88 2829.84 2812.96 2827.69 2813.09 2825.39C2813.29 2823.02 2813.5 2820.66 2813.7 2818.29C2813.96 2815.92 2814.2 2813.78 2814.4 2811.86L2814.01 2811.86L2808.87 2826.43L2798.48 2854.61L2791.86 2854.59L2781.6 2826.32L2776.67 2811.71L2776.28 2811.71C2776.47 2813.63 2776.65 2815.77 2776.83 2818.14C2777.08 2820.51 2777.26 2822.88 2777.38 2825.25C2777.56 2827.55 2777.65 2829.7 2777.64 2831.68L2777.53 2860.38L2767.45 2860.34ZM2858.17 2861.86C2853.82 2861.84 2849.89 2860.87 2846.38 2858.93C2842.87 2856.93 2840.09 2854.11 2838.06 2850.45C2836.03 2846.73 2835.02 2842.28 2835.04 2837.09C2835.06 2831.97 2836.1 2827.56 2838.17 2823.86C2840.29 2820.16 2843.02 2817.32 2846.36 2815.35C2849.7 2813.38 2853.19 2812.4 2856.84 2812.41C2861.12 2812.43 2864.7 2813.41 2867.58 2815.34C2870.45 2817.2 2872.62 2819.84 2874.07 2823.23C2875.53 2826.57 2876.25 2830.44 2876.24 2834.86C2876.23 2837.16 2876.06 2838.95 2875.73 2840.23L2845.78 2840.11C2846.28 2844.28 2847.77 2847.51 2850.26 2849.83C2852.74 2852.14 2855.87 2853.31 2859.65 2853.32C2861.7 2853.33 2863.59 2853.05 2865.32 2852.48C2867.11 2851.85 2868.87 2850.99 2870.61 2849.91L2874.32 2856.84C2872.08 2858.3 2869.58 2859.51 2866.82 2860.45C2864.06 2861.4 2861.18 2861.87 2858.17 2861.86ZM2845.72 2832.63L2866.64 2832.71C2866.66 2829.06 2865.87 2826.21 2864.28 2824.16C2862.69 2822.04 2860.29 2820.97 2857.09 2820.96C2854.34 2820.95 2851.87 2821.96 2849.69 2824C2847.57 2825.98 2846.24 2828.85 2845.72 2832.63ZM2902.34 2862.04C2896.9 2862.01 2893.04 2860.43 2890.74 2857.29C2888.52 2854.08 2887.41 2849.94 2887.43 2844.89L2887.52 2822.42L2880.8 2822.4L2880.84 2814.14L2888.13 2813.69L2889.53 2800.83L2898.75 2800.87L2898.69 2813.73L2910.69 2813.78L2910.66 2822.52L2898.66 2822.47L2898.57 2844.93C2898.55 2850.44 2900.74 2853.2 2905.16 2853.22C2905.99 2853.22 2906.86 2853.13 2907.75 2852.94C2908.65 2852.69 2909.42 2852.43 2910.06 2852.18L2911.95 2860.35C2910.67 2860.79 2909.19 2861.17 2907.53 2861.48C2905.93 2861.86 2904.2 2862.04 2902.34 2862.04ZM2939.08 2862.18C2934.73 2862.17 2930.8 2861.19 2927.28 2859.26C2923.77 2857.26 2921 2854.43 2918.97 2850.77C2916.93 2847.05 2915.93 2842.6 2915.95 2837.42C2915.97 2832.3 2917.01 2827.89 2919.07 2824.18C2921.2 2820.48 2923.93 2817.64 2927.27 2815.67C2930.6 2813.7 2934.09 2812.72 2937.74 2812.74C2942.03 2812.75 2945.61 2813.73 2948.48 2815.66C2951.36 2817.53 2953.52 2820.16 2954.98 2823.56C2956.44 2826.89 2957.16 2830.77 2957.14 2835.18C2957.13 2837.49 2956.96 2839.28 2956.64 2840.56L2926.69 2840.44C2927.18 2844.6 2928.67 2847.84 2931.16 2850.15C2933.65 2852.47 2936.78 2853.63 2940.55 2853.64C2942.6 2853.65 2944.49 2853.37 2946.22 2852.8C2948.02 2852.17 2949.78 2851.31 2951.51 2850.23L2955.23 2857.16C2952.98 2858.62 2950.48 2859.83 2947.73 2860.78C2944.97 2861.73 2942.09 2862.2 2939.08 2862.18ZM2926.62 2832.95L2947.55 2833.03C2947.56 2829.38 2946.78 2826.53 2945.18 2824.48C2943.59 2822.36 2941.2 2821.3 2938 2821.28C2935.24 2821.27 2932.78 2822.29 2930.59 2824.32C2928.47 2826.3 2927.15 2829.18 2926.62 2832.95ZM2967.58 2861.15L2967.77 2814.01L2976.89 2814.05L2977.62 2822.4L2978.01 2822.4C2979.68 2819.34 2981.71 2817.01 2984.08 2815.42C2986.46 2813.76 2988.89 2812.94 2991.39 2812.95C2993.63 2812.96 2995.42 2813.29 2996.76 2813.93L2994.8 2823.53C2993.97 2823.27 2993.21 2823.07 2992.5 2822.94C2991.8 2822.81 2990.93 2822.74 2989.91 2822.74C2988.06 2822.73 2986.1 2823.46 2984.05 2824.92C2981.99 2826.32 2980.22 2828.81 2978.74 2832.39L2978.62 2861.19L2967.58 2861.15Z" fill="#FEC977"/>
</g>
<g id="Group 5">
<path id="sq-5" d="M2124.47 1417.25L1417.36 2124.36L2124.47 2831.47L2831.57 2124.36L2124.47 1417.25Z" stroke="#FEC977" stroke-width="15"/>
<path id="text-5" d="M1995.37 2154.29C1989.74 2154.27 1984.69 2153 1980.22 2150.48C1975.75 2147.97 1972.25 2144.31 1969.7 2139.5C1967.16 2134.62 1965.91 2128.73 1965.94 2121.82C1965.96 2114.97 1967.3 2109.12 1969.94 2104.27C1972.59 2099.35 1976.15 2095.62 1980.64 2093.08C1985.13 2090.47 1990.16 2089.18 1995.73 2089.2C2000.21 2089.22 2003.98 2090.07 2007.05 2091.74C2010.18 2093.36 2012.73 2095.19 2014.71 2097.25L2008.73 2104.42C2007.13 2102.88 2005.34 2101.59 2003.36 2100.56C2001.45 2099.46 1999.02 2098.91 1996.08 2098.9C1990.51 2098.88 1985.99 2100.91 1982.51 2104.99C1979.11 2109.01 1977.39 2114.54 1977.36 2121.58C1977.33 2128.74 1978.94 2134.38 1982.19 2138.49C1985.44 2142.54 1990.2 2144.57 1996.47 2144.6C1998.26 2144.6 1999.96 2144.39 2001.56 2143.94C2003.16 2143.44 2004.48 2142.74 2005.5 2141.85L2005.56 2128.31L1993.65 2128.27L1993.69 2119.15L2015.58 2119.23L2015.47 2146.88C2013.35 2148.98 2010.52 2150.76 2007 2152.22C2003.54 2153.62 1999.66 2154.31 1995.37 2154.29ZM2047.69 2154.5C2043.78 2154.48 2040.14 2153.51 2036.75 2151.57C2033.37 2149.58 2030.63 2146.75 2028.53 2143.09C2026.44 2139.37 2025.4 2134.92 2025.42 2129.74C2025.44 2124.49 2026.51 2120.04 2028.64 2116.41C2030.77 2112.7 2033.53 2109.9 2036.93 2107.99C2040.33 2106.02 2043.98 2105.04 2047.88 2105.06C2051.85 2105.07 2055.53 2106.08 2058.91 2108.08C2062.3 2110.01 2065.04 2112.84 2067.13 2116.56C2069.23 2120.22 2070.27 2124.67 2070.25 2129.92C2070.23 2135.1 2069.15 2139.54 2067.03 2143.25C2064.9 2146.89 2062.14 2149.69 2058.74 2151.66C2055.34 2153.57 2051.65 2154.51 2047.69 2154.5ZM2047.72 2145.47C2051.18 2145.49 2053.9 2144.06 2055.9 2141.19C2057.9 2138.31 2058.9 2134.54 2058.92 2129.87C2058.94 2125.13 2057.96 2121.32 2055.99 2118.43C2054.02 2115.55 2051.3 2114.1 2047.85 2114.08C2044.39 2114.07 2041.67 2115.5 2039.67 2118.37C2037.74 2121.24 2036.76 2125.05 2036.75 2129.78C2036.73 2134.45 2037.67 2138.23 2039.58 2141.12C2041.55 2144.01 2044.27 2145.46 2047.72 2145.47ZM2082.04 2153.48L2082.29 2090.7L2093.43 2090.74L2093.22 2144.12L2119.33 2144.22L2119.29 2153.63L2082.04 2153.48ZM2140.69 2154.87C2136.59 2154.85 2133.24 2153.56 2130.62 2150.99C2128.07 2148.42 2126.81 2145.09 2126.82 2140.99C2126.84 2135.93 2129.07 2132.04 2133.5 2129.3C2137.92 2126.51 2144.97 2124.61 2154.64 2123.63C2154.58 2121.13 2153.92 2118.99 2152.65 2117.19C2151.44 2115.33 2149.23 2114.39 2146.03 2114.38C2143.73 2114.37 2141.46 2114.81 2139.21 2115.7C2137.03 2116.58 2134.89 2117.66 2132.77 2118.93L2128.77 2111.53C2131.4 2109.87 2134.35 2108.44 2137.62 2107.24C2140.95 2106.04 2144.47 2105.44 2148.18 2105.46C2154.07 2105.48 2158.45 2107.26 2161.31 2110.79C2164.24 2114.26 2165.7 2119.29 2165.67 2125.88L2165.56 2153.82L2156.44 2153.78L2155.69 2148.59L2155.31 2148.59C2153.19 2150.38 2150.91 2151.87 2148.47 2153.08C2146.1 2154.28 2143.5 2154.88 2140.69 2154.87ZM2144.28 2146.24C2146.2 2146.25 2147.93 2145.81 2149.46 2144.92C2151.07 2143.97 2152.77 2142.69 2154.57 2141.1L2154.61 2130.54C2148.21 2131.35 2143.75 2132.58 2141.25 2134.23C2138.75 2135.82 2137.49 2137.8 2137.48 2140.17C2137.48 2142.28 2138.11 2143.82 2139.39 2144.78C2140.66 2145.75 2142.29 2146.24 2144.28 2146.24ZM2178.77 2153.87L2178.96 2106.73L2188.08 2106.77L2188.82 2113.11L2189.2 2113.11C2191.32 2111.07 2193.64 2109.32 2196.14 2107.86C2198.64 2106.4 2201.49 2105.67 2204.69 2105.69C2209.75 2105.71 2213.42 2107.35 2215.71 2110.63C2218 2113.9 2219.13 2118.51 2219.11 2124.46L2218.99 2154.03L2207.95 2153.99L2208.07 2125.86C2208.08 2121.95 2207.52 2119.2 2206.37 2117.6C2205.22 2115.99 2203.34 2115.18 2200.72 2115.17C2198.67 2115.17 2196.84 2115.67 2195.24 2116.69C2193.7 2117.64 2191.93 2119.07 2189.94 2120.99L2189.81 2153.91L2178.77 2153.87ZM2248.82 2174.98C2245.11 2174.97 2241.75 2174.51 2238.75 2173.6C2235.81 2172.69 2233.47 2171.3 2231.75 2169.44C2230.1 2167.64 2229.27 2165.37 2229.29 2162.62C2229.3 2158.71 2231.55 2155.36 2236.05 2152.56L2236.05 2152.18C2234.83 2151.41 2233.81 2150.38 2232.99 2149.09C2232.22 2147.81 2231.85 2146.21 2231.85 2144.29C2231.86 2142.43 2232.38 2140.77 2233.41 2139.3C2234.5 2137.77 2235.73 2136.53 2237.07 2135.57L2237.08 2135.19C2235.48 2133.97 2234.05 2132.27 2232.78 2130.09C2231.57 2127.9 2230.97 2125.44 2230.98 2122.69C2231 2119.04 2231.87 2115.97 2233.61 2113.48C2235.35 2110.99 2237.63 2109.11 2240.45 2107.84C2243.33 2106.51 2246.41 2105.85 2249.67 2105.87C2250.95 2105.87 2252.17 2106 2253.32 2106.26C2254.53 2106.46 2255.62 2106.72 2256.58 2107.04L2273.48 2107.11L2273.44 2115.27L2264.8 2115.24C2265.57 2116.14 2266.2 2117.29 2266.71 2118.7C2267.22 2120.05 2267.47 2121.55 2267.46 2123.22C2267.45 2126.67 2266.63 2129.61 2265.02 2132.04C2263.41 2134.4 2261.26 2136.18 2258.57 2137.39C2255.88 2138.59 2252.87 2139.19 2249.54 2139.18C2248.52 2139.17 2247.46 2139.07 2246.37 2138.88C2245.29 2138.68 2244.2 2138.36 2243.11 2137.9C2242.41 2138.54 2241.83 2139.18 2241.38 2139.82C2240.99 2140.45 2240.79 2141.32 2240.79 2142.41C2240.78 2143.75 2241.32 2144.81 2242.41 2145.58C2243.56 2146.35 2245.57 2146.74 2248.45 2146.76L2256.8 2146.79C2262.5 2146.81 2266.79 2147.76 2269.66 2149.63C2272.59 2151.43 2274.05 2154.38 2274.04 2158.47C2274.03 2161.55 2272.99 2164.33 2270.93 2166.81C2268.87 2169.37 2265.95 2171.37 2262.17 2172.83C2258.39 2174.28 2253.94 2175 2248.82 2174.98ZM2249.57 2132.26C2251.81 2132.27 2253.73 2131.45 2255.34 2129.79C2256.94 2128.13 2257.75 2125.8 2257.76 2122.79C2257.78 2119.85 2256.99 2117.57 2255.39 2115.97C2253.86 2114.3 2251.95 2113.46 2249.64 2113.45C2247.34 2113.44 2245.38 2114.23 2243.78 2115.83C2242.17 2117.42 2241.36 2119.72 2241.35 2122.73C2241.34 2125.74 2242.13 2128.08 2243.72 2129.75C2245.31 2131.42 2247.26 2132.26 2249.57 2132.26ZM2250.58 2167.79C2254.35 2167.8 2257.43 2167.05 2259.8 2165.52C2262.18 2164 2263.37 2162.24 2263.38 2160.26C2263.38 2158.4 2262.65 2157.15 2261.18 2156.5C2259.78 2155.86 2257.73 2155.53 2255.04 2155.52L2248.61 2155.49C2246.05 2155.48 2243.91 2155.25 2242.18 2154.8C2239.74 2156.64 2238.52 2158.72 2238.51 2161.02C2238.5 2163.13 2239.58 2164.77 2241.75 2165.93C2243.92 2167.15 2246.86 2167.77 2250.58 2167.79Z" fill="#FEC977"/>
</g>
<g id="Group 7">
<path id="text-7" d="M1994.13 3572.28C1988.88 3572.26 1984.11 3571 1979.84 3568.48C1975.56 3565.97 1972.15 3562.31 1969.61 3557.5C1967.13 3552.62 1965.91 3546.73 1965.94 3539.82C1965.96 3532.97 1967.27 3527.12 1969.85 3522.27C1972.49 3517.35 1975.99 3513.62 1980.35 3511.08C1984.72 3508.47 1989.52 3507.18 1994.77 3507.2C1998.74 3507.21 2002.25 3508.03 2005.32 3509.64C2008.39 3511.25 2010.91 3513.12 2012.88 3515.24L2006.9 3522.41C2005.31 3520.74 2003.52 3519.42 2001.54 3518.46C1999.63 3517.42 1997.45 3516.9 1995.02 3516.89C1991.63 3516.88 1988.58 3517.8 1985.89 3519.64C1983.26 3521.42 1981.17 3524.01 1979.62 3527.39C1978.13 3530.78 1977.38 3534.84 1977.36 3539.58C1977.33 3546.74 1978.88 3552.38 1982 3556.49C1985.12 3560.54 1989.3 3562.57 1994.55 3562.59C1997.36 3562.6 1999.86 3562.03 2002.04 3560.89C2004.22 3559.68 2006.21 3558.12 2008.01 3556.21L2013.94 3563.24C2011.37 3566.18 2008.41 3568.44 2005.08 3570.02C2001.81 3571.55 1998.16 3572.3 1994.13 3572.28ZM2025.02 3590.65C2023.74 3590.64 2022.62 3590.54 2021.66 3590.35C2020.7 3590.15 2019.77 3589.92 2018.88 3589.66L2020.93 3581.03C2021.38 3581.16 2021.89 3581.29 2022.46 3581.42C2023.1 3581.62 2023.71 3581.71 2024.28 3581.72C2026.78 3581.73 2028.77 3580.97 2030.25 3579.44C2031.79 3577.97 2032.95 3576.05 2033.73 3573.69L2034.6 3570.72L2016.26 3524.08L2027.49 3524.13L2035.56 3547.3C2036.25 3549.35 2036.92 3551.53 2037.55 3553.83C2038.24 3556.08 2038.94 3558.32 2039.63 3560.56L2040.02 3560.56C2040.6 3558.39 2041.19 3556.18 2041.77 3553.95C2042.42 3551.64 2043.04 3549.44 2043.62 3547.33L2050.82 3524.22L2061.47 3524.26L2044.19 3573.44C2042.18 3578.75 2039.77 3582.93 2036.94 3585.99C2034.11 3589.12 2030.14 3590.67 2025.02 3590.65ZM2069.38 3590.06L2069.65 3524.3L2078.77 3524.33L2079.51 3529.33L2079.9 3529.33C2081.89 3527.67 2084.1 3526.24 2086.54 3525.04C2089.04 3523.83 2091.57 3523.23 2094.13 3523.24C2100.02 3523.27 2104.55 3525.46 2107.74 3529.83C2110.98 3534.19 2112.59 3540.02 2112.56 3547.32C2112.54 3552.69 2111.56 3557.3 2109.63 3561.13C2107.69 3564.9 2105.18 3567.77 2102.1 3569.74C2099.09 3571.71 2095.82 3572.69 2092.3 3572.68C2090.25 3572.67 2088.21 3572.21 2086.16 3571.31C2084.12 3570.34 2082.14 3569.05 2080.23 3567.44L2080.48 3575.32L2080.42 3590.1L2069.38 3590.06ZM2090.03 3563.55C2093.17 3563.56 2095.8 3562.19 2097.92 3559.45C2100.04 3556.71 2101.12 3552.68 2101.14 3547.37C2101.16 3542.63 2100.37 3538.95 2098.78 3536.32C2097.19 3533.69 2094.61 3532.36 2091.02 3532.35C2087.69 3532.34 2084.23 3534.08 2080.63 3537.59L2080.55 3559.57C2082.27 3560.99 2083.93 3562.02 2085.52 3562.66C2087.12 3563.25 2088.63 3563.54 2090.03 3563.55ZM2123.64 3571.65L2123.83 3524.51L2132.95 3524.55L2133.69 3532.91L2134.07 3532.91C2135.75 3529.84 2137.77 3527.51 2140.15 3525.92C2142.52 3524.27 2144.96 3523.45 2147.45 3523.46C2149.69 3523.47 2151.48 3523.79 2152.83 3524.44L2150.87 3534.03C2150.04 3533.77 2149.27 3533.58 2148.57 3533.44C2147.86 3533.31 2147 3533.25 2145.97 3533.24C2144.12 3533.23 2142.16 3533.96 2140.11 3535.43C2138.06 3536.83 2136.29 3539.32 2134.8 3542.89L2134.68 3571.69L2123.64 3571.65ZM2178.67 3573.02C2174.32 3573 2170.39 3572.03 2166.88 3570.09C2163.37 3568.1 2160.59 3565.27 2158.56 3561.61C2156.53 3557.89 2155.52 3553.44 2155.54 3548.26C2155.56 3543.14 2156.6 3538.72 2158.67 3535.02C2160.79 3531.32 2163.52 3528.48 2166.86 3526.51C2170.2 3524.54 2173.69 3523.56 2177.34 3523.58C2181.62 3523.59 2185.2 3524.57 2188.08 3526.5C2190.95 3528.37 2193.11 3531 2194.57 3534.4C2196.03 3537.73 2196.75 3541.61 2196.73 3546.02C2196.73 3548.33 2196.56 3550.12 2196.23 3551.4L2166.28 3551.28C2166.78 3555.44 2168.27 3558.68 2170.75 3560.99C2173.24 3563.3 2176.37 3564.47 2180.15 3564.48C2182.2 3564.49 2184.09 3564.21 2185.82 3563.64C2187.61 3563.01 2189.37 3562.15 2191.11 3561.07L2194.82 3568C2192.58 3569.46 2190.08 3570.67 2187.32 3571.62C2184.56 3572.57 2181.68 3573.03 2178.67 3573.02ZM2166.22 3543.79L2187.14 3543.87C2187.16 3540.22 2186.37 3537.37 2184.78 3535.32C2183.19 3533.2 2180.79 3532.13 2177.59 3532.12C2174.84 3532.11 2172.37 3533.12 2170.19 3535.16C2168.07 3537.14 2166.74 3540.01 2166.22 3543.79ZM2220.32 3573.19C2217.12 3573.18 2213.93 3572.55 2210.73 3571.33C2207.54 3570.03 2204.79 3568.45 2202.49 3566.59L2207.71 3559.51C2209.81 3561.11 2211.92 3562.4 2214.03 3563.37C2216.13 3564.34 2218.37 3564.83 2220.74 3564.84C2223.3 3564.85 2225.19 3564.31 2226.41 3563.23C2227.63 3562.15 2228.24 3560.8 2228.25 3559.2C2228.26 3557.86 2227.75 3556.77 2226.73 3555.93C2225.77 3555.03 2224.53 3554.26 2222.99 3553.61C2221.46 3552.9 2219.86 3552.23 2218.2 3551.58C2216.16 3550.8 2214.11 3549.87 2212.07 3548.77C2210.09 3547.61 2208.46 3546.16 2207.19 3544.43C2205.92 3542.63 2205.29 3540.42 2205.3 3537.8C2205.31 3533.64 2206.86 3530.25 2209.94 3527.64C2213.03 3525.03 2217.19 3523.74 2222.44 3523.76C2225.77 3523.77 2228.74 3524.36 2231.36 3525.52C2233.98 3526.68 2236.25 3528 2238.16 3529.48L2233.05 3536.18C2231.39 3534.96 2229.7 3533.99 2227.97 3533.28C2226.31 3532.51 2224.55 3532.12 2222.69 3532.11C2220.33 3532.1 2218.56 3532.6 2217.41 3533.62C2216.25 3534.58 2215.67 3535.79 2215.67 3537.27C2215.66 3539.12 2216.61 3540.53 2218.53 3541.5C2220.45 3542.47 2222.68 3543.41 2225.24 3544.31C2227.41 3545.09 2229.52 3546.06 2231.56 3547.22C2233.61 3548.31 2235.3 3549.76 2236.63 3551.56C2238.03 3553.35 2238.73 3555.73 2238.72 3558.67C2238.7 3562.7 2237.12 3566.15 2233.97 3569.02C2230.82 3571.82 2226.27 3573.21 2220.32 3573.19ZM2261.67 3573.35C2258.47 3573.34 2255.27 3572.72 2252.07 3571.49C2248.88 3570.2 2246.13 3568.62 2243.84 3566.75L2249.05 3559.67C2251.15 3561.28 2253.26 3562.57 2255.37 3563.54C2257.48 3564.5 2259.72 3564.99 2262.08 3565C2264.64 3565.01 2266.53 3564.48 2267.75 3563.39C2268.97 3562.31 2269.59 3560.97 2269.59 3559.37C2269.6 3558.03 2269.09 3556.93 2268.07 3556.1C2267.11 3555.2 2265.87 3554.43 2264.34 3553.78C2262.8 3553.07 2261.21 3552.39 2259.54 3551.74C2257.5 3550.97 2255.46 3550.03 2253.41 3548.94C2251.43 3547.78 2249.81 3546.33 2248.53 3544.6C2247.26 3542.8 2246.63 3540.59 2246.64 3537.97C2246.66 3533.81 2248.21 3530.42 2251.29 3527.81C2254.37 3525.2 2258.54 3523.9 2263.78 3523.92C2267.11 3523.93 2270.09 3524.52 2272.7 3525.69C2275.32 3526.85 2277.59 3528.17 2279.5 3529.65L2274.39 3536.35C2272.73 3535.13 2271.04 3534.16 2269.31 3533.45C2267.65 3532.67 2265.89 3532.28 2264.04 3532.27C2261.67 3532.27 2259.91 3532.77 2258.75 3533.79C2257.6 3534.74 2257.02 3535.96 2257.01 3537.43C2257 3539.29 2257.96 3540.7 2259.87 3541.67C2261.79 3542.63 2264.03 3543.57 2266.58 3544.48C2268.75 3545.25 2270.86 3546.22 2272.91 3547.38C2274.95 3548.48 2276.64 3549.93 2277.98 3551.72C2279.38 3553.52 2280.07 3555.89 2280.06 3558.83C2280.04 3562.87 2278.46 3566.32 2275.31 3569.18C2272.17 3571.99 2267.62 3573.38 2261.67 3573.35Z" fill="#FEC977"/>
<path id="sq-7" d="M2124.47 2831.77L1417.36 3538.88L2124.47 4245.99L2831.57 3538.88L2124.47 2831.77Z" stroke="#FEC977" stroke-width="15"/>
</g>
</g>
</g>
</g>
</g>
<defs>
<clipPath id="clip0_2_113">
<rect width="4250" height="4250" fill="white"/>
</clipPath>
<clipPath id="clip1_2_113">
<rect width="4250" height="4250" fill="white"/>
</clipPath>
</defs>
</svg>
