<?xml version="1.0" encoding="UTF-8" standalone="no" ?>
<!DOCTYPE svg PUBLIC "-//W3C//DTD SVG 1.1//EN" "http://www.w3.org/Graphics/SVG/1.1/DTD/svg11.dtd">
<svg xmlns="http://www.w3.org/2000/svg" xmlns:xlink="http://www.w3.org/1999/xlink" version="1.1" width="1080" height="1080" viewBox="0 0 1080 1080" xml:space="preserve">
<desc>Created with Fabric.js 5.2.4</desc>
<defs>
</defs>
<g transform="matrix(1 0 0 1 540 540)" id="d35d6048-ab77-4384-b731-4a4eed669161"  >
<rect style="stroke: none; stroke-width: 1; stroke-dasharray: none; stroke-linecap: butt; stroke-dashoffset: 0; stroke-linejoin: miter; stroke-miterlimit: 4; fill: rgb(255,255,255); fill-opacity: 0; fill-rule: nonzero; opacity: 1;" vector-effect="non-scaling-stroke"  x="-540" y="-540" rx="0" ry="0" width="1080" height="1080" />
</g>
<g transform="matrix(1 0 0 1 540 540)" id="144cb692-0d32-4656-bce1-d865d83122de"  >
</g>
<g transform="matrix(1 0 0 1 540 540)"  >
<g style="" vector-effect="non-scaling-stroke"   >
		<g transform="matrix(0.71 0.71 -0.71 0.71 -0.11 -365.62)"  >
<rect style="stroke: rgb(158,170,133); stroke-width: 0.930255; stroke-dasharray: none; stroke-linecap: butt; stroke-dashoffset: 0; stroke-linejoin: miter; stroke-miterlimit: 4; fill: none; fill-rule: nonzero; opacity: 1;" vector-effect="non-scaling-stroke"  x="-51.629" y="-51.629" rx="0" ry="0" width="103.258" height="103.258" />
</g>
		<g transform="matrix(0.71 0.71 -0.71 0.71 -146.14 -219.59)"  >
<rect style="stroke: rgb(158,170,133); stroke-width: 0.930255; stroke-dasharray: none; stroke-linecap: butt; stroke-dashoffset: 0; stroke-linejoin: miter; stroke-miterlimit: 4; fill: none; fill-rule: nonzero; opacity: 1;" vector-effect="non-scaling-stroke"  x="-51.629" y="-51.629" rx="0" ry="0" width="103.258" height="103.258" />
</g>
		<g transform="matrix(0.71 0.71 -0.71 0.71 -292.17 -73.56)"  >
<rect style="stroke: rgb(158,170,133); stroke-width: 0.930255; stroke-dasharray: none; stroke-linecap: butt; stroke-dashoffset: 0; stroke-linejoin: miter; stroke-miterlimit: 4; fill: none; fill-rule: nonzero; opacity: 1;" vector-effect="non-scaling-stroke"  x="-51.629" y="-51.629" rx="0" ry="0" width="103.258" height="103.258" />
</g>
		<g transform="matrix(0.71 0.71 -0.71 0.71 -146.14 73.34)"  >
<rect style="stroke: rgb(158,170,133); stroke-width: 0.930255; stroke-dasharray: none; stroke-linecap: butt; stroke-dashoffset: 0; stroke-linejoin: miter; stroke-miterlimit: 4; fill: none; fill-rule: nonzero; opacity: 1;" vector-effect="non-scaling-stroke"  x="-51.629" y="-51.629" rx="0" ry="0" width="103.258" height="103.258" />
</g>
		<g transform="matrix(0.71 0.71 -0.71 0.71 0.33 -73.12)"  >
<rect style="stroke: rgb(158,170,133); stroke-width: 0.930255; stroke-dasharray: none; stroke-linecap: butt; stroke-dashoffset: 0; stroke-linejoin: miter; stroke-miterlimit: 4; fill: none; fill-rule: nonzero; opacity: 1;" vector-effect="non-scaling-stroke"  x="-51.629" y="-51.629" rx="0" ry="0" width="103.258" height="103.258" />
</g>
		<g transform="matrix(0.71 0.71 -0.71 0.71 72.91 -292.61)"  >
<rect style="stroke: rgb(158,170,133); stroke-width: 0.930255; stroke-dasharray: none; stroke-linecap: butt; stroke-dashoffset: 0; stroke-linejoin: miter; stroke-miterlimit: 4; fill: none; fill-rule: nonzero; opacity: 1;" vector-effect="non-scaling-stroke"  x="-51.629" y="-51.629" rx="0" ry="0" width="103.258" height="103.258" />
</g>
		<g transform="matrix(0.71 0.71 -0.71 0.71 -73.12 -146.58)"  >
<rect style="stroke: rgb(158,170,133); stroke-width: 0.930255; stroke-dasharray: none; stroke-linecap: butt; stroke-dashoffset: 0; stroke-linejoin: miter; stroke-miterlimit: 4; fill: none; fill-rule: nonzero; opacity: 1;" vector-effect="non-scaling-stroke"  x="-51.629" y="-51.629" rx="0" ry="0" width="103.258" height="103.258" />
</g>
		<g transform="matrix(0.71 0.71 -0.71 0.71 -219.15 -0.55)"  >
<rect style="stroke: rgb(158,170,133); stroke-width: 0.930255; stroke-dasharray: none; stroke-linecap: butt; stroke-dashoffset: 0; stroke-linejoin: miter; stroke-miterlimit: 4; fill: none; fill-rule: nonzero; opacity: 1;" vector-effect="non-scaling-stroke"  x="-51.629" y="-51.629" rx="0" ry="0" width="103.258" height="103.258" />
</g>
		<g transform="matrix(0.71 0.71 -0.71 0.71 -73.12 146.36)"  >
<rect style="stroke: rgb(158,170,133); stroke-width: 0.930255; stroke-dasharray: none; stroke-linecap: butt; stroke-dashoffset: 0; stroke-linejoin: miter; stroke-miterlimit: 4; fill: none; fill-rule: nonzero; opacity: 1;" vector-effect="non-scaling-stroke"  x="-51.629" y="-51.629" rx="0" ry="0" width="103.258" height="103.258" />
</g>
		<g transform="matrix(0.71 0.71 -0.71 0.71 73.34 -0.11)"  >
<rect style="stroke: rgb(158,170,133); stroke-width: 0.930255; stroke-dasharray: none; stroke-linecap: butt; stroke-dashoffset: 0; stroke-linejoin: miter; stroke-miterlimit: 4; fill: none; fill-rule: nonzero; opacity: 1;" vector-effect="non-scaling-stroke"  x="-51.629" y="-51.629" rx="0" ry="0" width="103.258" height="103.258" />
</g>
		<g transform="matrix(0.71 0.71 -0.71 0.71 218.93 -146.58)"  >
<rect style="stroke: rgb(158,170,133); stroke-width: 0.930255; stroke-dasharray: none; stroke-linecap: butt; stroke-dashoffset: 0; stroke-linejoin: miter; stroke-miterlimit: 4; fill: none; fill-rule: nonzero; opacity: 1;" vector-effect="non-scaling-stroke"  x="-51.629" y="-51.629" rx="0" ry="0" width="103.258" height="103.258" />
</g>
		<g transform="matrix(0.71 0.71 -0.71 0.71 145.92 -219.59)"  >
<rect style="stroke: rgb(158,170,133); stroke-width: 0.930255; stroke-dasharray: none; stroke-linecap: butt; stroke-dashoffset: 0; stroke-linejoin: miter; stroke-miterlimit: 4; fill: none; fill-rule: nonzero; opacity: 1;" vector-effect="non-scaling-stroke"  x="-51.629" y="-51.629" rx="0" ry="0" width="103.258" height="103.258" />
</g>
		<g transform="matrix(0.71 0.71 -0.71 0.71 364.96 -0.55)"  >
<rect style="stroke: rgb(158,170,133); stroke-width: 0.930255; stroke-dasharray: none; stroke-linecap: butt; stroke-dashoffset: 0; stroke-linejoin: miter; stroke-miterlimit: 4; fill: none; fill-rule: nonzero; opacity: 1;" vector-effect="non-scaling-stroke"  x="-51.629" y="-51.629" rx="0" ry="0" width="103.258" height="103.258" />
</g>
		<g transform="matrix(0.71 0.71 -0.71 0.71 291.95 -73.56)"  >
<rect style="stroke: rgb(158,170,133); stroke-width: 0.930255; stroke-dasharray: none; stroke-linecap: butt; stroke-dashoffset: 0; stroke-linejoin: miter; stroke-miterlimit: 4; fill: none; fill-rule: nonzero; opacity: 1;" vector-effect="non-scaling-stroke"  x="-51.629" y="-51.629" rx="0" ry="0" width="103.258" height="103.258" />
</g>
		<g transform="matrix(0.71 0.71 -0.71 0.71 218.71 145.7)"  >
<rect style="stroke: rgb(158,170,133); stroke-width: 0.930255; stroke-dasharray: none; stroke-linecap: butt; stroke-dashoffset: 0; stroke-linejoin: miter; stroke-miterlimit: 4; fill: none; fill-rule: nonzero; opacity: 1;" vector-effect="non-scaling-stroke"  x="-51.629" y="-51.629" rx="0" ry="0" width="103.258" height="103.258" />
</g>
		<g transform="matrix(0.71 0.71 -0.71 0.71 72.69 291.73)"  >
<rect style="stroke: rgb(158,170,133); stroke-width: 0.930255; stroke-dasharray: none; stroke-linecap: butt; stroke-dashoffset: 0; stroke-linejoin: miter; stroke-miterlimit: 4; fill: none; fill-rule: nonzero; opacity: 1;" vector-effect="non-scaling-stroke"  x="-51.629" y="-51.629" rx="0" ry="0" width="103.258" height="103.258" />
</g>
		<g transform="matrix(0.71 0.71 -0.71 0.71 -0.11 -219.59)"  >
<rect style="stroke: rgb(158,170,133); stroke-width: 0.930255; stroke-dasharray: none; stroke-linecap: butt; stroke-dashoffset: 0; stroke-linejoin: miter; stroke-miterlimit: 4; fill: none; fill-rule: nonzero; opacity: 1;" vector-effect="non-scaling-stroke"  x="-51.629" y="-51.629" rx="0" ry="0" width="103.258" height="103.258" />
</g>
		<g transform="matrix(0.71 0.71 -0.71 0.71 -146.14 -73.56)"  >
<rect style="stroke: rgb(158,170,133); stroke-width: 0.930255; stroke-dasharray: none; stroke-linecap: butt; stroke-dashoffset: 0; stroke-linejoin: miter; stroke-miterlimit: 4; fill: none; fill-rule: nonzero; opacity: 1;" vector-effect="non-scaling-stroke"  x="-51.629" y="-51.629" rx="0" ry="0" width="103.258" height="103.258" />
</g>
		<g transform="matrix(0.71 0.71 -0.71 0.71 -292.61 72.9)"  >
<rect style="stroke: rgb(158,170,133); stroke-width: 0.930255; stroke-dasharray: none; stroke-linecap: butt; stroke-dashoffset: 0; stroke-linejoin: miter; stroke-miterlimit: 4; fill: none; fill-rule: nonzero; opacity: 1;" vector-effect="non-scaling-stroke"  x="-51.629" y="-51.629" rx="0" ry="0" width="103.258" height="103.258" />
</g>
		<g transform="matrix(0.71 0.71 -0.71 0.71 -146.14 219.37)"  >
<rect style="stroke: rgb(158,170,133); stroke-width: 0.930255; stroke-dasharray: none; stroke-linecap: butt; stroke-dashoffset: 0; stroke-linejoin: miter; stroke-miterlimit: 4; fill: none; fill-rule: nonzero; opacity: 1;" vector-effect="non-scaling-stroke"  x="-51.629" y="-51.629" rx="0" ry="0" width="103.258" height="103.258" />
</g>
		<g transform="matrix(0.71 0.71 -0.71 0.71 0.33 72.9)"  >
<rect style="stroke: rgb(158,170,133); stroke-width: 0.930255; stroke-dasharray: none; stroke-linecap: butt; stroke-dashoffset: 0; stroke-linejoin: miter; stroke-miterlimit: 4; fill: none; fill-rule: nonzero; opacity: 1;" vector-effect="non-scaling-stroke"  x="-51.629" y="-51.629" rx="0" ry="0" width="103.258" height="103.258" />
</g>
		<g transform="matrix(0.71 0.71 -0.71 0.71 145.92 -73.56)"  >
<rect style="stroke: rgb(158,170,133); stroke-width: 0.930255; stroke-dasharray: none; stroke-linecap: butt; stroke-dashoffset: 0; stroke-linejoin: miter; stroke-miterlimit: 4; fill: none; fill-rule: nonzero; opacity: 1;" vector-effect="non-scaling-stroke"  x="-51.629" y="-51.629" rx="0" ry="0" width="103.258" height="103.258" />
</g>
		<g transform="matrix(0.71 0.71 -0.71 0.71 291.95 72.47)"  >
<rect style="stroke: rgb(158,170,133); stroke-width: 0.930255; stroke-dasharray: none; stroke-linecap: butt; stroke-dashoffset: 0; stroke-linejoin: miter; stroke-miterlimit: 4; fill: none; fill-rule: nonzero; opacity: 1;" vector-effect="non-scaling-stroke"  x="-51.629" y="-51.629" rx="0" ry="0" width="103.258" height="103.258" />
</g>
		<g transform="matrix(0.71 0.71 -0.71 0.71 145.7 218.71)"  >
<rect style="stroke: rgb(158,170,133); stroke-width: 0.930255; stroke-dasharray: none; stroke-linecap: butt; stroke-dashoffset: 0; stroke-linejoin: miter; stroke-miterlimit: 4; fill: none; fill-rule: nonzero; opacity: 1;" vector-effect="non-scaling-stroke"  x="-51.629" y="-51.629" rx="0" ry="0" width="103.258" height="103.258" />
</g>
		<g transform="matrix(0.71 0.71 -0.71 0.71 -0.33 364.74)"  >
<rect style="stroke: rgb(158,170,133); stroke-width: 0.930255; stroke-dasharray: none; stroke-linecap: butt; stroke-dashoffset: 0; stroke-linejoin: miter; stroke-miterlimit: 4; fill: none; fill-rule: nonzero; opacity: 1;" vector-effect="non-scaling-stroke"  x="-51.629" y="-51.629" rx="0" ry="0" width="103.258" height="103.258" />
</g>
		<g transform="matrix(0.71 0.71 -0.71 0.71 -73.12 -292.61)"  >
<rect style="stroke: rgb(158,170,133); stroke-width: 0.930255; stroke-dasharray: none; stroke-linecap: butt; stroke-dashoffset: 0; stroke-linejoin: miter; stroke-miterlimit: 4; fill: none; fill-rule: nonzero; opacity: 1;" vector-effect="non-scaling-stroke"  x="-51.629" y="-51.629" rx="0" ry="0" width="103.258" height="103.258" />
</g>
		<g transform="matrix(0.71 0.71 -0.71 0.71 -219.15 -146.58)"  >
<rect style="stroke: rgb(158,170,133); stroke-width: 0.930255; stroke-dasharray: none; stroke-linecap: butt; stroke-dashoffset: 0; stroke-linejoin: miter; stroke-miterlimit: 4; fill: none; fill-rule: nonzero; opacity: 1;" vector-effect="non-scaling-stroke"  x="-51.629" y="-51.629" rx="0" ry="0" width="103.258" height="103.258" />
</g>
		<g transform="matrix(0.71 0.71 -0.71 0.71 -365.62 -0.11)"  >
<rect style="stroke: rgb(158,170,133); stroke-width: 0.930255; stroke-dasharray: none; stroke-linecap: butt; stroke-dashoffset: 0; stroke-linejoin: miter; stroke-miterlimit: 4; fill: none; fill-rule: nonzero; opacity: 1;" vector-effect="non-scaling-stroke"  x="-51.629" y="-51.629" rx="0" ry="0" width="103.258" height="103.258" />
</g>
		<g transform="matrix(0.71 0.71 -0.71 0.71 -219.15 146.36)"  >
<rect style="stroke: rgb(158,170,133); stroke-width: 0.930255; stroke-dasharray: none; stroke-linecap: butt; stroke-dashoffset: 0; stroke-linejoin: miter; stroke-miterlimit: 4; fill: none; fill-rule: nonzero; opacity: 1;" vector-effect="non-scaling-stroke"  x="-51.629" y="-51.629" rx="0" ry="0" width="103.258" height="103.258" />
</g>
		<g transform="matrix(0.71 0.71 -0.71 0.71 -72.69 -0.11)"  >
<rect style="stroke: rgb(158,170,133); stroke-width: 0.930255; stroke-dasharray: none; stroke-linecap: butt; stroke-dashoffset: 0; stroke-linejoin: miter; stroke-miterlimit: 4; fill: none; fill-rule: nonzero; opacity: 1;" vector-effect="non-scaling-stroke"  x="-51.629" y="-51.629" rx="0" ry="0" width="103.258" height="103.258" />
</g>
		<g transform="matrix(0.71 0.71 -0.71 0.71 72.91 -146.58)"  >
<rect style="stroke: rgb(158,170,133); stroke-width: 0.930255; stroke-dasharray: none; stroke-linecap: butt; stroke-dashoffset: 0; stroke-linejoin: miter; stroke-miterlimit: 4; fill: none; fill-rule: nonzero; opacity: 1;" vector-effect="non-scaling-stroke"  x="-51.629" y="-51.629" rx="0" ry="0" width="103.258" height="103.258" />
</g>
		<g transform="matrix(0.71 0.71 -0.71 0.71 218.93 -0.55)"  >
<rect style="stroke: rgb(158,170,133); stroke-width: 0.930255; stroke-dasharray: none; stroke-linecap: butt; stroke-dashoffset: 0; stroke-linejoin: miter; stroke-miterlimit: 4; fill: none; fill-rule: nonzero; opacity: 1;" vector-effect="non-scaling-stroke"  x="-51.629" y="-51.629" rx="0" ry="0" width="103.258" height="103.258" />
</g>
		<g transform="matrix(0.71 0.71 -0.71 0.71 145.7 72.69)"  >
<rect style="stroke: rgb(158,170,133); stroke-width: 0.930255; stroke-dasharray: none; stroke-linecap: butt; stroke-dashoffset: 0; stroke-linejoin: miter; stroke-miterlimit: 4; fill: none; fill-rule: nonzero; opacity: 1;" vector-effect="non-scaling-stroke"  x="-51.629" y="-51.629" rx="0" ry="0" width="103.258" height="103.258" />
</g>
		<g transform="matrix(0.71 0.71 -0.71 0.71 -0.55 218.93)"  >
<rect style="stroke: rgb(158,170,133); stroke-width: 0.930255; stroke-dasharray: none; stroke-linecap: butt; stroke-dashoffset: 0; stroke-linejoin: miter; stroke-miterlimit: 4; fill: none; fill-rule: nonzero; opacity: 1;" vector-effect="non-scaling-stroke"  x="-51.629" y="-51.629" rx="0" ry="0" width="103.258" height="103.258" />
</g>
		<g transform="matrix(0.71 0.71 -0.71 0.71 72.69 145.7)"  >
<rect style="stroke: rgb(158,170,133); stroke-width: 0.930255; stroke-dasharray: none; stroke-linecap: butt; stroke-dashoffset: 0; stroke-linejoin: miter; stroke-miterlimit: 4; fill: none; fill-rule: nonzero; opacity: 1;" vector-effect="non-scaling-stroke"  x="-51.629" y="-51.629" rx="0" ry="0" width="103.258" height="103.258" />
</g>
		<g transform="matrix(0.71 0.71 -0.71 0.71 -73.34 291.73)"  >
<rect style="stroke: rgb(158,170,133); stroke-width: 0.930255; stroke-dasharray: none; stroke-linecap: butt; stroke-dashoffset: 0; stroke-linejoin: miter; stroke-miterlimit: 4; fill: none; fill-rule: nonzero; opacity: 1;" vector-effect="non-scaling-stroke"  x="-51.629" y="-51.629" rx="0" ry="0" width="103.258" height="103.258" />
</g>
		<g transform="matrix(0.71 0.71 -0.71 0.71 0.33 -109.96)"  >
<rect style="stroke: rgb(158,170,133); stroke-width: 0.930255; stroke-dasharray: none; stroke-linecap: butt; stroke-dashoffset: 0; stroke-linejoin: miter; stroke-miterlimit: 4; fill: none; fill-rule: nonzero; opacity: 1;" vector-effect="non-scaling-stroke"  x="-25.582" y="-25.582" rx="0" ry="0" width="51.164" height="51.164" />
</g>
		<g transform="matrix(0.71 0.71 -0.71 0.71 0.33 -109.96)"  >
<rect style="stroke: rgb(158,170,133); stroke-width: 0.930255; stroke-dasharray: none; stroke-linecap: butt; stroke-dashoffset: 0; stroke-linejoin: miter; stroke-miterlimit: 4; fill: none; fill-rule: nonzero; opacity: 1;" vector-effect="non-scaling-stroke"  x="-25.582" y="-25.582" rx="0" ry="0" width="51.164" height="51.164" />
</g>
		<g transform="matrix(0.71 0.71 -0.71 0.71 -72.9 -36.73)"  >
<rect style="stroke: rgb(158,170,133); stroke-width: 0.930255; stroke-dasharray: none; stroke-linecap: butt; stroke-dashoffset: 0; stroke-linejoin: miter; stroke-miterlimit: 4; fill: none; fill-rule: nonzero; opacity: 1;" vector-effect="non-scaling-stroke"  x="-25.582" y="-25.582" rx="0" ry="0" width="51.164" height="51.164" />
</g>
		<g transform="matrix(0.71 0.71 -0.71 0.71 72.91 -37.38)"  >
<rect style="stroke: rgb(158,170,133); stroke-width: 0.930255; stroke-dasharray: none; stroke-linecap: butt; stroke-dashoffset: 0; stroke-linejoin: miter; stroke-miterlimit: 4; fill: none; fill-rule: nonzero; opacity: 1;" vector-effect="non-scaling-stroke"  x="-25.582" y="-25.582" rx="0" ry="0" width="51.164" height="51.164" />
</g>
		<g transform="matrix(0.71 0.71 -0.71 0.71 0.77 -37.17)"  >
<rect style="stroke: rgb(158,170,133); stroke-width: 0.930255; stroke-dasharray: none; stroke-linecap: butt; stroke-dashoffset: 0; stroke-linejoin: miter; stroke-miterlimit: 4; fill: none; fill-rule: nonzero; opacity: 1;" vector-effect="non-scaling-stroke"  x="-25.582" y="-25.582" rx="0" ry="0" width="51.164" height="51.164" />
</g>
		<g transform="matrix(0.71 0.71 -0.71 0.71 -73.34 36.07)"  >
<rect style="stroke: rgb(158,170,133); stroke-width: 0.930255; stroke-dasharray: none; stroke-linecap: butt; stroke-dashoffset: 0; stroke-linejoin: miter; stroke-miterlimit: 4; fill: none; fill-rule: nonzero; opacity: 1;" vector-effect="non-scaling-stroke"  x="-25.582" y="-25.582" rx="0" ry="0" width="51.164" height="51.164" />
</g>
		<g transform="matrix(0.71 0.71 -0.71 0.71 72.91 34.97)"  >
<rect style="stroke: rgb(158,170,133); stroke-width: 0.930255; stroke-dasharray: none; stroke-linecap: butt; stroke-dashoffset: 0; stroke-linejoin: miter; stroke-miterlimit: 4; fill: none; fill-rule: nonzero; opacity: 1;" vector-effect="non-scaling-stroke"  x="-25.582" y="-25.582" rx="0" ry="0" width="51.164" height="51.164" />
</g>
		<g transform="matrix(0.71 0.71 -0.71 0.71 36.51 -73.78)"  >
<rect style="stroke: rgb(158,170,133); stroke-width: 0.930255; stroke-dasharray: none; stroke-linecap: butt; stroke-dashoffset: 0; stroke-linejoin: miter; stroke-miterlimit: 4; fill: none; fill-rule: nonzero; opacity: 1;" vector-effect="non-scaling-stroke"  x="-25.582" y="-25.582" rx="0" ry="0" width="51.164" height="51.164" />
</g>
		<g transform="matrix(0.71 0.71 -0.71 0.71 -36.07 0.11)"  >
<rect style="stroke: rgb(158,170,133); stroke-width: 0.930255; stroke-dasharray: none; stroke-linecap: butt; stroke-dashoffset: 0; stroke-linejoin: miter; stroke-miterlimit: 4; fill: none; fill-rule: nonzero; opacity: 1;" vector-effect="non-scaling-stroke"  x="-25.582" y="-25.582" rx="0" ry="0" width="51.164" height="51.164" />
</g>
		<g transform="matrix(0.71 0.71 -0.71 0.71 109.08 -1.21)"  >
<rect style="stroke: rgb(158,170,133); stroke-width: 0.930255; stroke-dasharray: none; stroke-linecap: butt; stroke-dashoffset: 0; stroke-linejoin: miter; stroke-miterlimit: 4; fill: none; fill-rule: nonzero; opacity: 1;" vector-effect="non-scaling-stroke"  x="-25.582" y="-25.582" rx="0" ry="0" width="51.164" height="51.164" />
</g>
		<g transform="matrix(0.71 0.71 -0.71 0.71 -0.11 36.51)"  >
<rect style="stroke: rgb(158,170,133); stroke-width: 0.930255; stroke-dasharray: none; stroke-linecap: butt; stroke-dashoffset: 0; stroke-linejoin: miter; stroke-miterlimit: 4; fill: none; fill-rule: nonzero; opacity: 1;" vector-effect="non-scaling-stroke"  x="-25.582" y="-25.582" rx="0" ry="0" width="51.164" height="51.164" />
</g>
		<g transform="matrix(0.71 0.71 -0.71 0.71 36.22 72.54)"  >
<rect style="stroke: rgb(158,170,133); stroke-width: 0.930255; stroke-dasharray: none; stroke-linecap: butt; stroke-dashoffset: 0; stroke-linejoin: miter; stroke-miterlimit: 4; fill: none; fill-rule: nonzero; opacity: 1;" vector-effect="non-scaling-stroke"  x="-25.582" y="-25.582" rx="0" ry="0" width="51.164" height="51.164" />
</g>
		<g transform="matrix(0.71 0.71 -0.71 0.71 -0.99 109.74)"  >
<rect style="stroke: rgb(158,170,133); stroke-width: 0.930255; stroke-dasharray: none; stroke-linecap: butt; stroke-dashoffset: 0; stroke-linejoin: miter; stroke-miterlimit: 4; fill: none; fill-rule: nonzero; opacity: 1;" vector-effect="non-scaling-stroke"  x="-25.582" y="-25.582" rx="0" ry="0" width="51.164" height="51.164" />
</g>
		<g transform="matrix(0.71 0.71 -0.71 0.71 -36.29 72.69)"  >
<rect style="stroke: rgb(158,170,133); stroke-width: 0.930255; stroke-dasharray: none; stroke-linecap: butt; stroke-dashoffset: 0; stroke-linejoin: miter; stroke-miterlimit: 4; fill: none; fill-rule: nonzero; opacity: 1;" vector-effect="non-scaling-stroke"  x="-25.582" y="-25.582" rx="0" ry="0" width="51.164" height="51.164" />
</g>
		<g transform="matrix(0.71 0.71 -0.71 0.71 0.11 0.11)"  >
<circle style="stroke: rgb(158,170,133); stroke-width: 0.930255; stroke-dasharray: none; stroke-linecap: butt; stroke-dashoffset: 0; stroke-linejoin: miter; stroke-miterlimit: 4; fill: none; fill-rule: nonzero; opacity: 1;" vector-effect="non-scaling-stroke"  cx="0" cy="0" r="310.085" />
</g>
		<g transform="matrix(0.71 0.71 -0.71 0.71 109.52 -109.3)"  >
<circle style="stroke: rgb(158,170,133); stroke-width: 0.930255; stroke-dasharray: none; stroke-linecap: butt; stroke-dashoffset: 0; stroke-linejoin: miter; stroke-miterlimit: 4; fill: none; fill-rule: nonzero; opacity: 1;" vector-effect="non-scaling-stroke"  cx="0" cy="0" r="155.042" />
</g>
		<g transform="matrix(0.71 0.71 -0.71 0.71 -109.74 109.96)"  >
<circle style="stroke: rgb(158,170,133); stroke-width: 0.930255; stroke-dasharray: none; stroke-linecap: butt; stroke-dashoffset: 0; stroke-linejoin: miter; stroke-miterlimit: 4; fill: none; fill-rule: nonzero; opacity: 1;" vector-effect="non-scaling-stroke"  cx="0" cy="0" r="155.042" />
</g>
		<g transform="matrix(0.71 0.71 -0.71 0.71 108.86 109.3)"  >
<circle style="stroke: rgb(158,170,133); stroke-width: 0.930255; stroke-dasharray: none; stroke-linecap: butt; stroke-dashoffset: 0; stroke-linejoin: miter; stroke-miterlimit: 4; fill: none; fill-rule: nonzero; opacity: 1;" vector-effect="non-scaling-stroke"  cx="0" cy="0" r="155.042" />
</g>
		<g transform="matrix(0.71 0.71 -0.71 0.71 -109.74 -109.3)"  >
<circle style="stroke: rgb(158,170,133); stroke-width: 0.930255; stroke-dasharray: none; stroke-linecap: butt; stroke-dashoffset: 0; stroke-linejoin: miter; stroke-miterlimit: 4; fill: none; fill-rule: nonzero; opacity: 1;" vector-effect="non-scaling-stroke"  cx="0" cy="0" r="155.042" />
</g>
</g>
</g>
<g transform="matrix(1.86 -1.86 1.86 1.86 249.03 540)" id="fced4268-9a5a-4f15-b857-83218f30f525"  >
<path style="stroke: rgb(254,221,149); stroke-width: 1; stroke-dasharray: none; stroke-linecap: butt; stroke-dashoffset: 0; stroke-linejoin: miter; stroke-miterlimit: 4; fill: rgb(254,221,149); fill-rule: nonzero; opacity: 1;" vector-effect="non-scaling-stroke"  transform=" translate(-50, -50)" d="M 90.375 90.375 L 9.625 90.375 L 9.625 9.625 L 90.375 9.625 L 90.375 90.375 z M 11.625 88.375 L 88.375 88.375 L 88.375 11.625 L 11.625 11.625 L 11.625 88.375 z" stroke-linecap="round" />
</g>
<g transform="matrix(NaN NaN NaN NaN 0 0)"  >
<g style=""   >
</g>
</g>
<g transform="matrix(NaN NaN NaN NaN 0 0)"  >
<g style=""   >
</g>
</g>
<g transform="matrix(1.86 -1.86 1.86 1.86 395.6 393.09)"  >
<path style="stroke: rgb(254,221,149); stroke-width: 1; stroke-dasharray: none; stroke-linecap: butt; stroke-dashoffset: 0; stroke-linejoin: miter; stroke-miterlimit: 4; fill: rgb(254,221,149); fill-rule: nonzero; opacity: 1;" vector-effect="non-scaling-stroke"  transform=" translate(-50, -50)" d="M 90.375 90.375 L 9.625 90.375 L 9.625 9.625 L 90.375 9.625 L 90.375 90.375 z M 11.625 88.375 L 88.375 88.375 L 88.375 11.625 L 11.625 11.625 L 11.625 88.375 z" stroke-linecap="round" />
</g>
<g transform="matrix(1.86 -1.86 1.86 1.86 542 246.18)"  >
<path style="stroke: rgb(254,221,149); stroke-width: 1; stroke-dasharray: none; stroke-linecap: butt; stroke-dashoffset: 0; stroke-linejoin: miter; stroke-miterlimit: 4; fill: rgb(254,221,149); fill-rule: nonzero; opacity: 1;" vector-effect="non-scaling-stroke"  transform=" translate(-50, -50)" d="M 90.375 90.375 L 9.625 90.375 L 9.625 9.625 L 90.375 9.625 L 90.375 90.375 z M 11.625 88.375 L 88.375 88.375 L 88.375 11.625 L 11.625 11.625 L 11.625 88.375 z" stroke-linecap="round" />
</g>
<g transform="matrix(1.86 -1.86 1.86 1.86 688.91 393.66)"  >
<path style="stroke: rgb(254,221,149); stroke-width: 1; stroke-dasharray: none; stroke-linecap: butt; stroke-dashoffset: 0; stroke-linejoin: miter; stroke-miterlimit: 4; fill: rgb(254,221,149); fill-rule: nonzero; opacity: 1;" vector-effect="non-scaling-stroke"  transform=" translate(-50, -50)" d="M 90.375 90.375 L 9.625 90.375 L 9.625 9.625 L 90.375 9.625 L 90.375 90.375 z M 11.625 88.375 L 88.375 88.375 L 88.375 11.625 L 11.625 11.625 L 11.625 88.375 z" stroke-linecap="round" />
</g>
<g transform="matrix(1.86 -1.86 1.86 1.86 834.24 540)"  >
<path style="stroke: rgb(254,221,149); stroke-width: 1; stroke-dasharray: none; stroke-linecap: butt; stroke-dashoffset: 0; stroke-linejoin: miter; stroke-miterlimit: 4; fill: rgb(254,221,149); fill-rule: nonzero; opacity: 1;" vector-effect="non-scaling-stroke"  transform=" translate(-50, -50)" d="M 90.375 90.375 L 9.625 90.375 L 9.625 9.625 L 90.375 9.625 L 90.375 90.375 z M 11.625 88.375 L 88.375 88.375 L 88.375 11.625 L 11.625 11.625 L 11.625 88.375 z" stroke-linecap="round" />
</g>
<g transform="matrix(1.86 -1.86 1.86 1.86 687.33 686.76)"  >
<path style="stroke: rgb(254,221,149); stroke-width: 1; stroke-dasharray: none; stroke-linecap: butt; stroke-dashoffset: 0; stroke-linejoin: miter; stroke-miterlimit: 4; fill: rgb(254,221,149); fill-rule: nonzero; opacity: 1;" vector-effect="non-scaling-stroke"  transform=" translate(-50, -50)" d="M 90.375 90.375 L 9.625 90.375 L 9.625 9.625 L 90.375 9.625 L 90.375 90.375 z M 11.625 88.375 L 88.375 88.375 L 88.375 11.625 L 11.625 11.625 L 11.625 88.375 z" stroke-linecap="round" />
</g>
<g transform="matrix(1.86 -1.86 1.86 1.86 540 833.52)"  >
<path style="stroke: rgb(254,221,149); stroke-width: 1; stroke-dasharray: none; stroke-linecap: butt; stroke-dashoffset: 0; stroke-linejoin: miter; stroke-miterlimit: 4; fill: rgb(254,221,149); fill-rule: nonzero; opacity: 1;" vector-effect="non-scaling-stroke"  transform=" translate(-50, -50)" d="M 90.375 90.375 L 9.625 90.375 L 9.625 9.625 L 90.375 9.625 L 90.375 90.375 z M 11.625 88.375 L 88.375 88.375 L 88.375 11.625 L 11.625 11.625 L 11.625 88.375 z" stroke-linecap="round" />
</g>
<g transform="matrix(1.86 -1.86 1.86 1.86 396.37 685.9)"  >
<path style="stroke: rgb(254,221,149); stroke-width: 1; stroke-dasharray: none; stroke-linecap: butt; stroke-dashoffset: 0; stroke-linejoin: miter; stroke-miterlimit: 4; fill: rgb(254,221,149); fill-rule: nonzero; opacity: 1;" vector-effect="non-scaling-stroke"  transform=" translate(-50, -50)" d="M 90.375 90.375 L 9.625 90.375 L 9.625 9.625 L 90.375 9.625 L 90.375 90.375 z M 11.625 88.375 L 88.375 88.375 L 88.375 11.625 L 11.625 11.625 L 11.625 88.375 z" stroke-linecap="round" />
</g>
<g transform="matrix(1 0 0 1 241.65 540)" style="" id="27de0e5e-85ae-4e51-a040-e806d557caff"  >
		<text xml:space="preserve" font-family="Lato" font-size="35" font-style="normal" font-weight="400" style="stroke: none; stroke-width: 1; stroke-dasharray: none; stroke-linecap: butt; stroke-dashoffset: 0; stroke-linejoin: miter; stroke-miterlimit: 4; fill: rgb(254,221,149); fill-rule: nonzero; opacity: 1; white-space: pre;" ><tspan x="-54.93" y="10.99" >Testing</tspan></text>
</g>
<g transform="matrix(1 0 0 1 396.64 387.27)" style=""  >
		<text xml:space="preserve" font-family="Lato" font-size="35" font-style="normal" font-weight="400" style="stroke: none; stroke-width: 1; stroke-dasharray: none; stroke-linecap: butt; stroke-dashoffset: 0; stroke-linejoin: miter; stroke-miterlimit: 4; fill: rgb(254,221,149); fill-rule: nonzero; opacity: 1; white-space: pre;" ><tspan x="-54.93" y="10.99" >Testing</tspan></text>
</g>
<g transform="matrix(1 0 0 1 540 234.53)" style=""  >
		<text xml:space="preserve" font-family="Lato" font-size="35" font-style="normal" font-weight="400" style="stroke: none; stroke-width: 1; stroke-dasharray: none; stroke-linecap: butt; stroke-dashoffset: 0; stroke-linejoin: miter; stroke-miterlimit: 4; fill: rgb(254,221,149); fill-rule: nonzero; opacity: 1; white-space: pre;" ><tspan x="-54.93" y="10.99" >Testing</tspan></text>
</g>
<g transform="matrix(1 0 0 1 692.03 389.51)" style=""  >
		<text xml:space="preserve" font-family="Lato" font-size="35" font-style="normal" font-weight="400" style="stroke: none; stroke-width: 1; stroke-dasharray: none; stroke-linecap: butt; stroke-dashoffset: 0; stroke-linejoin: miter; stroke-miterlimit: 4; fill: rgb(254,221,149); fill-rule: nonzero; opacity: 1; white-space: pre;" ><tspan x="-54.93" y="10.99" >Testing</tspan></text>
</g>
<g transform="matrix(1 0 0 1 838.14 540)" style=""  >
		<text xml:space="preserve" font-family="Lato" font-size="35" font-style="normal" font-weight="400" style="stroke: none; stroke-width: 1; stroke-dasharray: none; stroke-linecap: butt; stroke-dashoffset: 0; stroke-linejoin: miter; stroke-miterlimit: 4; fill: rgb(254,221,149); fill-rule: nonzero; opacity: 1; white-space: pre;" ><tspan x="-54.93" y="10.99" >Testing</tspan></text>
</g>
<g transform="matrix(1 0 0 1 682.44 686.11)" style=""  >
		<text xml:space="preserve" font-family="Lato" font-size="35" font-style="normal" font-weight="400" style="stroke: none; stroke-width: 1; stroke-dasharray: none; stroke-linecap: butt; stroke-dashoffset: 0; stroke-linejoin: miter; stroke-miterlimit: 4; fill: rgb(254,221,149); fill-rule: nonzero; opacity: 1; white-space: pre;" ><tspan x="-54.93" y="10.99" >Testing</tspan></text>
</g>
<g transform="matrix(1 0 0 1 540 832.22)" style=""  >
		<text xml:space="preserve" font-family="Lato" font-size="35" font-style="normal" font-weight="400" style="stroke: none; stroke-width: 1; stroke-dasharray: none; stroke-linecap: butt; stroke-dashoffset: 0; stroke-linejoin: miter; stroke-miterlimit: 4; fill: rgb(254,221,149); fill-rule: nonzero; opacity: 1; white-space: pre;" ><tspan x="-54.93" y="10.99" >Testing</tspan></text>
</g>
<g transform="matrix(1 0 0 1 410.93 673.57)" style=""  >
		<text xml:space="preserve" font-family="Lato" font-size="35" font-style="normal" font-weight="400" style="stroke: none; stroke-width: 1; stroke-dasharray: none; stroke-linecap: butt; stroke-dashoffset: 0; stroke-linejoin: miter; stroke-miterlimit: 4; fill: rgb(254,221,149); fill-rule: nonzero; opacity: 1; white-space: pre;" ><tspan x="-54.93" y="10.99" >Testing</tspan></text>
</g>
</svg>