<svg width="878" height="879" viewBox="0 0 878 879" fill="none" xmlns="http://www.w3.org/2000/svg">
<g id="tech-30 1" clip-path="url(#clip0_2_2)">
<g id="Clip path group">
<mask id="mask0_2_2" style="mask-type:luminance" maskUnits="userSpaceOnUse" x="0" y="0" width="878" height="879">
<g id="clip0_1_2">
<path id="Vector" d="M878 0H0V879H878V0Z" fill="white"/>
</g>
</mask>
<g mask="url(#mask0_2_2)">
<g id="Group">
<g id="Mask group">
<mask id="mask1_2_2" style="mask-type:luminance" maskUnits="userSpaceOnUse" x="0" y="0" width="878" height="879">
<g id="Group_2">
<path id="Vector_2" d="M878 7.62939e-06H0V879H878V7.62939e-06Z" fill="white"/>
</g>
</mask>
<g mask="url(#mask1_2_2)">
<g id="Group_3">
<g id="Mask group_2">
<mask id="mask2_2_2" style="mask-type:luminance" maskUnits="userSpaceOnUse" x="0" y="0" width="878" height="879">
<g id="Group_4">
<path id="Vector_3" d="M878 7.62939e-06H0V879H878V7.62939e-06Z" fill="white"/>
</g>
</mask>
<g mask="url(#mask2_2_2)">
<g id="Group_5">
<path id="Vector_4" d="M512.76 74.0144L439.746 1.00001L366.732 74.0144L439.746 147.029L512.76 74.0144Z" stroke="#9EAA85" stroke-width="0.930255"/>
<path id="Vector_5" d="M366.731 220.043L293.717 147.029L220.703 220.043L293.717 293.058L366.731 220.043Z" stroke="#9EAA85" stroke-width="0.930255"/>
<path id="Vector_6" d="M220.702 366.072L147.688 293.058L74.6736 366.072L147.688 439.087L220.702 366.072Z" stroke="#9EAA85" stroke-width="0.930255"/>
<path id="Vector_7" d="M366.731 512.979L293.717 439.965L220.703 512.979L293.717 585.994L366.731 512.979Z" stroke="#9EAA85" stroke-width="0.930255"/>
<path id="Vector_8" d="M513.199 366.511L440.185 293.497L367.171 366.511L440.185 439.526L513.199 366.511Z" stroke="#9EAA85" stroke-width="0.930255"/>
<path id="Vector_9" d="M585.775 147.029L512.761 74.0146L439.747 147.029L512.761 220.043L585.775 147.029Z" stroke="#9EAA85" stroke-width="0.930255"/>
<path id="Vector_10" d="M439.745 293.058L366.731 220.044L293.717 293.058L366.731 366.073L439.745 293.058Z" stroke="#9EAA85" stroke-width="0.930255"/>
<path id="Vector_11" d="M293.716 439.087L220.702 366.073L147.688 439.087L220.702 512.102L293.716 439.087Z" stroke="#9EAA85" stroke-width="0.930255"/>
<path id="Vector_12" d="M439.745 585.993L366.731 512.979L293.717 585.993L366.731 659.008L439.745 585.993Z" stroke="#9EAA85" stroke-width="0.930255"/>
<path id="Vector_13" d="M586.213 439.526L513.199 366.512L440.185 439.526L513.199 512.541L586.213 439.526Z" stroke="#9EAA85" stroke-width="0.930255"/>
<path id="Vector_14" d="M731.804 293.058L658.79 220.044L585.776 293.058L658.79 366.073L731.804 293.058Z" stroke="#9EAA85" stroke-width="0.930255"/>
<path id="Vector_15" d="M658.789 220.043L585.775 147.029L512.761 220.043L585.775 293.058L658.789 220.043Z" stroke="#9EAA85" stroke-width="0.930255"/>
<path id="Vector_16" d="M877.833 439.087L804.819 366.073L731.805 439.087L804.819 512.102L877.833 439.087Z" stroke="#9EAA85" stroke-width="0.930255"/>
<path id="Vector_17" d="M804.819 366.072L731.805 293.058L658.791 366.072L731.805 439.087L804.819 366.072Z" stroke="#9EAA85" stroke-width="0.930255"/>
<path id="Vector_18" d="M731.584 585.336L658.57 512.322L585.556 585.336L658.57 658.351L731.584 585.336Z" stroke="#9EAA85" stroke-width="0.930255"/>
<path id="Vector_19" d="M585.556 731.365L512.542 658.351L439.528 731.365L512.542 804.38L585.556 731.365Z" stroke="#9EAA85" stroke-width="0.930255"/>
<path id="Vector_20" d="M512.76 220.043L439.746 147.029L366.732 220.043L439.746 293.058L512.76 220.043Z" stroke="#9EAA85" stroke-width="0.930255"/>
<path id="Vector_21" d="M366.731 366.072L293.717 293.058L220.703 366.072L293.717 439.087L366.731 366.072Z" stroke="#9EAA85" stroke-width="0.930255"/>
<path id="Vector_22" d="M220.263 512.54L147.249 439.526L74.2346 512.54L147.249 585.555L220.263 512.54Z" stroke="#9EAA85" stroke-width="0.930255"/>
<path id="Vector_23" d="M366.731 659.008L293.717 585.994L220.703 659.008L293.717 732.023L366.731 659.008Z" stroke="#9EAA85" stroke-width="0.930255"/>
<path id="Vector_24" d="M513.199 512.54L440.185 439.526L367.171 512.54L440.185 585.555L513.199 512.54Z" stroke="#9EAA85" stroke-width="0.930255"/>
<path id="Vector_25" d="M658.789 366.072L585.775 293.058L512.761 366.072L585.775 439.087L658.789 366.072Z" stroke="#9EAA85" stroke-width="0.930255"/>
<path id="Vector_26" d="M804.819 512.102L731.805 439.088L658.791 512.102L731.805 585.117L804.819 512.102Z" stroke="#9EAA85" stroke-width="0.930255"/>
<path id="Vector_27" d="M658.571 658.35L585.557 585.336L512.543 658.35L585.557 731.365L658.571 658.35Z" stroke="#9EAA85" stroke-width="0.930255"/>
<path id="Vector_28" d="M512.541 804.38L439.527 731.366L366.513 804.38L439.527 877.395L512.541 804.38Z" stroke="#9EAA85" stroke-width="0.930255"/>
<path id="Vector_29" d="M439.745 147.029L366.731 74.0146L293.717 147.029L366.731 220.043L439.745 147.029Z" stroke="#9EAA85" stroke-width="0.930255"/>
<path id="Vector_30" d="M293.716 293.058L220.702 220.044L147.688 293.058L220.702 366.073L293.716 293.058Z" stroke="#9EAA85" stroke-width="0.930255"/>
<path id="Vector_31" d="M147.249 439.526L74.2344 366.512L1.21997 439.526L74.2344 512.541L147.249 439.526Z" stroke="#9EAA85" stroke-width="0.930255"/>
<path id="Vector_32" d="M293.716 585.994L220.702 512.98L147.688 585.994L220.702 659.009L293.716 585.994Z" stroke="#9EAA85" stroke-width="0.930255"/>
<path id="Vector_33" d="M440.184 439.526L367.17 366.512L294.156 439.526L367.17 512.541L440.184 439.526Z" stroke="#9EAA85" stroke-width="0.930255"/>
<path id="Vector_34" d="M585.775 293.058L512.761 220.044L439.747 293.058L512.761 366.073L585.775 293.058Z" stroke="#9EAA85" stroke-width="0.930255"/>
<path id="Vector_35" d="M731.804 439.087L658.79 366.073L585.776 439.087L658.79 512.102L731.804 439.087Z" stroke="#9EAA85" stroke-width="0.930255"/>
<path id="Vector_36" d="M658.571 512.321L585.557 439.307L512.543 512.321L585.557 585.336L658.571 512.321Z" stroke="#9EAA85" stroke-width="0.930255"/>
<path id="Vector_37" d="M512.322 658.57L439.308 585.556L366.294 658.57L439.308 731.585L512.322 658.57Z" stroke="#9EAA85" stroke-width="0.930255"/>
<path id="Vector_38" d="M585.555 585.336L512.541 512.322L439.527 585.336L512.541 658.351L585.555 585.336Z" stroke="#9EAA85" stroke-width="0.930255"/>
<path id="Vector_39" d="M439.526 731.365L366.512 658.351L293.498 731.365L366.512 804.38L439.526 731.365Z" stroke="#9EAA85" stroke-width="0.930255"/>
<path id="Vector_40" d="M476.363 329.675L440.185 293.497L404.007 329.675L440.185 365.854L476.363 329.675Z" stroke="#9EAA85" stroke-width="0.930255"/>
<path id="Vector_41" d="M476.363 329.675L440.185 293.497L404.007 329.675L440.185 365.854L476.363 329.675Z" stroke="#9EAA85" stroke-width="0.930255"/>
<path id="Vector_42" d="M403.129 402.909L366.951 366.731L330.773 402.909L366.951 439.088L403.129 402.909Z" stroke="#9EAA85" stroke-width="0.930255"/>
<path id="Vector_43" d="M548.939 402.251L512.761 366.073L476.583 402.251L512.761 438.43L548.939 402.251Z" stroke="#9EAA85" stroke-width="0.930255"/>
<path id="Vector_44" d="M476.801 402.47L440.623 366.292L404.445 402.47L440.623 438.649L476.801 402.47Z" stroke="#9EAA85" stroke-width="0.930255"/>
<path id="Vector_45" d="M402.691 475.704L366.513 439.526L330.335 475.704L366.513 511.883L402.691 475.704Z" stroke="#9EAA85" stroke-width="0.930255"/>
<path id="Vector_46" d="M548.939 474.608L512.761 438.43L476.583 474.608L512.761 510.787L548.939 474.608Z" stroke="#9EAA85" stroke-width="0.930255"/>
<path id="Vector_47" d="M512.541 365.854L476.363 329.676L440.185 365.854L476.363 402.033L512.541 365.854Z" stroke="#9EAA85" stroke-width="0.930255"/>
<path id="Vector_48" d="M439.965 439.745L403.787 403.567L367.609 439.745L403.787 475.924L439.965 439.745Z" stroke="#9EAA85" stroke-width="0.930255"/>
<path id="Vector_49" d="M585.117 438.429L548.939 402.251L512.761 438.429L548.939 474.608L585.117 438.429Z" stroke="#9EAA85" stroke-width="0.930255"/>
<path id="Vector_50" d="M475.924 476.143L439.746 439.965L403.568 476.143L439.746 512.322L475.924 476.143Z" stroke="#9EAA85" stroke-width="0.930255"/>
<path id="Vector_51" d="M512.249 512.175L476.071 475.997L439.893 512.175L476.071 548.354L512.249 512.175Z" stroke="#9EAA85" stroke-width="0.930255"/>
<path id="Vector_52" d="M475.046 549.377L438.868 513.199L402.69 549.377L438.868 585.556L475.046 549.377Z" stroke="#9EAA85" stroke-width="0.930255"/>
<path id="Vector_53" d="M439.745 512.321L403.567 476.143L367.389 512.321L403.567 548.5L439.745 512.321Z" stroke="#9EAA85" stroke-width="0.930255"/>
<path id="Vector_54" d="M220.702 659.009C341.798 780.105 538.132 780.105 659.228 659.009C780.324 537.913 780.324 341.579 659.228 220.483C538.132 99.3871 341.798 99.3871 220.702 220.483C99.6061 341.579 99.6061 537.913 220.702 659.009Z" stroke="#9EAA85" stroke-width="0.930255"/>
<path id="Vector_55" d="M439.746 439.964C500.293 500.512 598.461 500.512 659.008 439.964C719.556 379.417 719.556 281.249 659.008 220.702C598.461 160.154 500.293 160.154 439.746 220.702C379.198 281.249 379.198 379.417 439.746 439.964Z" stroke="#9EAA85" stroke-width="0.930255"/>
<path id="Vector_56" d="M220.483 659.227C281.03 719.775 379.198 719.775 439.745 659.227C500.293 598.68 500.293 500.512 439.745 439.965C379.198 379.417 281.03 379.417 220.483 439.965C159.935 500.512 159.935 598.68 220.483 659.227Z" stroke="#9EAA85" stroke-width="0.930255"/>
<path id="Vector_57" d="M439.089 658.569C499.636 719.117 597.804 719.117 658.351 658.569C718.899 598.022 718.899 499.854 658.351 439.307C597.804 378.759 499.636 378.759 439.089 439.307C378.541 499.854 378.541 598.022 439.089 658.569Z" stroke="#9EAA85" stroke-width="0.930255"/>
<path id="Vector_58" d="M220.483 439.964C281.03 500.512 379.198 500.512 439.745 439.964C500.293 379.417 500.293 281.249 439.745 220.702C379.198 160.154 281.03 160.154 220.483 220.702C159.935 281.249 159.935 379.417 220.483 439.964Z" stroke="#9EAA85" stroke-width="0.930255"/>
<path id="Vector_59" d="M440.827 293.998L586.43 437.457L657.536 365.288L511.934 221.829L440.827 293.998Z" stroke="#D0E6A4" stroke-opacity="0.3" stroke-width="4"/>
<path id="Vector_60" d="M221.829 512.475L366.376 656.997L438.01 585.351L293.462 440.829L221.829 512.475Z" stroke="#D0E6A4" stroke-opacity="0.3" stroke-width="4"/>
<path id="Vector_61" d="M366.815 221.777L221.882 365.913L293.324 437.75L438.257 293.614L366.815 221.777Z" stroke="#D0E6A4" stroke-opacity="0.3" stroke-width="4"/>
<path id="Vector_62" d="M585.165 439.829L440.828 584.561L512.566 656.103L656.903 511.37L585.165 439.829Z" stroke="#D0E6A4" stroke-opacity="0.3" stroke-width="4"/>
<path id="Vector_63" d="M331 485C416.604 485 486 415.604 486 330C486 244.396 416.604 175 331 175C245.396 175 176 244.396 176 330C176 415.604 245.396 485 331 485Z" stroke="#FB887B" stroke-opacity="0.3" stroke-width="4"/>
<path id="Vector_64" d="M549 485C634.604 485 704 415.604 704 330C704 244.396 634.604 175 549 175C463.396 175 394 244.396 394 330C394 415.604 463.396 485 549 485Z" stroke="#FB887B" stroke-opacity="0.3" stroke-width="4"/>
<path id="Vector_65" d="M330 704C415.604 704 485 634.604 485 549C485 463.396 415.604 394 330 394C244.396 394 175 463.396 175 549C175 634.604 244.396 704 330 704Z" stroke="#FB887B" stroke-opacity="0.3" stroke-width="4"/>
<path id="Vector_66" d="M549 704C634.604 704 704 634.604 704 549C704 463.396 634.604 394 549 394C463.396 394 394 463.396 394 549C394 634.604 463.396 704 549 704Z" stroke="#FB887B" stroke-opacity="0.3" stroke-width="4"/>
</g>
</g>
</g>
</g>
</g>
</g>
<path id="Vector_67" d="M145.921 292.933L0 440.148L147.215 586.069L293.135 438.854L145.921 292.933Z" stroke="#FEDD95" stroke-width="4"/>
<path id="Vector_68" d="M292.921 146L147 293.215L294.215 439.136L440.135 291.921L292.921 146Z" stroke="#FEDD95" stroke-width="4"/>
<path id="Vector_69" d="M439.078 -1.00089L292.999 146.057L440.057 292.136L586.136 145.078L439.078 -1.00089Z" stroke="#FEDD95" stroke-width="4"/>
<path id="Vector_70" d="M294.079 439L148 586.058L295.058 732.137L441.137 585.079L294.079 439Z" stroke="#FEDD95" stroke-width="4"/>
<path id="Vector_71" d="M441.079 292L295 439.058L442.058 585.137L588.137 438.079L441.079 292Z" stroke="#FEDD95" stroke-width="4"/>
<path id="Vector_72" d="M587.079 146L441 293.058L588.058 439.137L734.137 292.079L587.079 146Z" stroke="#FEDD95" stroke-width="4"/>
<path id="Vector_73" d="M439.079 586L293 733.058L440.058 879.137L586.137 732.079L439.079 586Z" stroke="#FEDD95" stroke-width="4"/>
<path id="Vector_74" d="M587.079 439L441 586.058L588.058 732.137L734.137 585.079L587.079 439Z" stroke="#FEDD95" stroke-width="4"/>
<path id="Vector_75" d="M732.6 292L586 438.539L732.539 585.139L879.138 438.6L732.6 292Z" stroke="#FEDD95" stroke-width="4"/>
</g>
</g>
</g>
<circle id="cycle-1" cx="440.5" cy="441.5" r="309.5" stroke="#CDABDA" stroke-width="5" stroke-dasharray="8 8"/>
<path id="taxt-1" d="M24.4091 430.364H26.0909L30.0455 440.023H30.1818L34.1364 430.364H35.8182V442H34.5V433.159H34.3864L30.75 442H29.4773L25.8409 433.159H25.7273V442H24.4091V430.364ZM41.0298 442.205C40.4768 442.205 39.9749 442.1 39.5241 441.892C39.0734 441.68 38.7154 441.375 38.4503 440.977C38.1851 440.576 38.0526 440.091 38.0526 439.523C38.0526 439.023 38.151 438.617 38.348 438.307C38.545 437.992 38.8082 437.746 39.1378 437.568C39.4673 437.39 39.831 437.258 40.2287 437.17C40.6302 437.08 41.0336 437.008 41.4389 436.955C41.9692 436.886 42.3991 436.835 42.7287 436.801C43.062 436.763 43.3045 436.701 43.456 436.614C43.6113 436.527 43.6889 436.375 43.6889 436.159V436.114C43.6889 435.553 43.5355 435.117 43.2287 434.807C42.9257 434.496 42.4654 434.341 41.848 434.341C41.2079 434.341 40.706 434.481 40.3423 434.761C39.9787 435.042 39.723 435.341 39.5753 435.659L38.3026 435.205C38.5298 434.674 38.8329 434.261 39.2116 433.966C39.5942 433.667 40.0109 433.458 40.4616 433.341C40.9162 433.22 41.3632 433.159 41.8026 433.159C42.0829 433.159 42.4048 433.193 42.7685 433.261C43.1359 433.326 43.4901 433.46 43.831 433.665C44.1757 433.869 44.4616 434.178 44.6889 434.591C44.9162 435.004 45.0298 435.557 45.0298 436.25V442H43.6889V440.818H43.6207C43.5298 441.008 43.3783 441.21 43.1662 441.426C42.9541 441.642 42.6719 441.826 42.3196 441.977C41.9673 442.129 41.5374 442.205 41.0298 442.205ZM41.2344 441C41.7647 441 42.2116 440.896 42.5753 440.688C42.9427 440.479 43.2192 440.21 43.4048 439.881C43.5942 439.551 43.6889 439.205 43.6889 438.841V437.614C43.6321 437.682 43.5071 437.744 43.3139 437.801C43.1245 437.854 42.9048 437.902 42.6548 437.943C42.4086 437.981 42.1681 438.015 41.9332 438.045C41.7022 438.072 41.5147 438.095 41.3707 438.114C41.0223 438.159 40.6965 438.233 40.3935 438.335C40.0942 438.434 39.8518 438.583 39.6662 438.784C39.4844 438.981 39.3935 439.25 39.3935 439.591C39.3935 440.057 39.5658 440.409 39.9105 440.648C40.259 440.883 40.7003 441 41.2344 441ZM48.8182 436.75V442H47.4773V433.273H48.7727V434.636H48.8864C49.0909 434.193 49.4015 433.837 49.8182 433.568C50.2348 433.295 50.7727 433.159 51.4318 433.159C52.0227 433.159 52.5398 433.28 52.983 433.523C53.4261 433.761 53.7708 434.125 54.017 434.614C54.2633 435.098 54.3864 435.712 54.3864 436.455V442H53.0455V436.545C53.0455 435.86 52.8674 435.326 52.5114 434.943C52.1553 434.557 51.6667 434.364 51.0455 434.364C50.6174 434.364 50.2348 434.456 49.8977 434.642C49.5644 434.828 49.3011 435.098 49.108 435.455C48.9148 435.811 48.8182 436.242 48.8182 436.75ZM60.3821 442.182C59.5639 442.182 58.8594 441.989 58.2685 441.602C57.6776 441.216 57.223 440.684 56.9048 440.006C56.5866 439.328 56.4276 438.553 56.4276 437.682C56.4276 436.795 56.5904 436.013 56.9162 435.335C57.2457 434.653 57.7041 434.121 58.2912 433.739C58.8821 433.352 59.5715 433.159 60.3594 433.159C60.973 433.159 61.526 433.273 62.0185 433.5C62.5109 433.727 62.9143 434.045 63.2287 434.455C63.5431 434.864 63.7382 435.341 63.8139 435.886H62.473C62.3707 435.489 62.1435 435.136 61.7912 434.83C61.4427 434.519 60.973 434.364 60.3821 434.364C59.8594 434.364 59.401 434.5 59.0071 434.773C58.617 435.042 58.312 435.422 58.0923 435.915C57.8764 436.403 57.7685 436.977 57.7685 437.636C57.7685 438.311 57.8745 438.898 58.0866 439.398C58.3026 439.898 58.6056 440.286 58.9957 440.562C59.3897 440.839 59.8518 440.977 60.3821 440.977C60.7306 440.977 61.0469 440.917 61.331 440.795C61.6151 440.674 61.8556 440.5 62.0526 440.273C62.2495 440.045 62.3897 439.773 62.473 439.455H63.8139C63.7382 439.97 63.5507 440.434 63.2514 440.847C62.956 441.256 62.5639 441.581 62.0753 441.824C61.5904 442.062 61.026 442.182 60.3821 442.182ZM67.1151 436.75V442H65.7741V430.364H67.1151V434.636H67.2287C67.4332 434.186 67.7401 433.828 68.1491 433.562C68.562 433.294 69.1113 433.159 69.7969 433.159C70.3916 433.159 70.9124 433.278 71.3594 433.517C71.8063 433.752 72.1529 434.114 72.3991 434.602C72.6491 435.087 72.7741 435.705 72.7741 436.455V442H71.4332V436.545C71.4332 435.852 71.2533 435.316 70.8935 434.938C70.5374 434.555 70.0431 434.364 69.4105 434.364C68.9711 434.364 68.5772 434.456 68.2287 434.642C67.884 434.828 67.6113 435.098 67.4105 435.455C67.2135 435.811 67.1151 436.242 67.1151 436.75ZM78.8864 442.182C78.0455 442.182 77.3201 441.996 76.7102 441.625C76.1042 441.25 75.6364 440.727 75.3068 440.057C74.9811 439.383 74.8182 438.598 74.8182 437.705C74.8182 436.811 74.9811 436.023 75.3068 435.341C75.6364 434.655 76.0947 434.121 76.6818 433.739C77.2727 433.352 77.9621 433.159 78.75 433.159C79.2045 433.159 79.6534 433.235 80.0966 433.386C80.5398 433.538 80.9432 433.784 81.3068 434.125C81.6705 434.462 81.9602 434.909 82.1761 435.466C82.392 436.023 82.5 436.708 82.5 437.523V438.091H75.7727V436.932H81.1364C81.1364 436.439 81.0379 436 80.8409 435.614C80.6477 435.227 80.3712 434.922 80.0114 434.699C79.6553 434.475 79.2348 434.364 78.75 434.364C78.2159 434.364 77.7538 434.496 77.3636 434.761C76.9773 435.023 76.6799 435.364 76.4716 435.784C76.2633 436.205 76.1591 436.655 76.1591 437.136V437.909C76.1591 438.568 76.2727 439.127 76.5 439.585C76.7311 440.04 77.0511 440.386 77.4602 440.625C77.8693 440.86 78.3447 440.977 78.8864 440.977C79.2386 440.977 79.5568 440.928 79.8409 440.83C80.1288 440.727 80.3769 440.576 80.5852 440.375C80.7936 440.17 80.9545 439.917 81.0682 439.614L82.3636 439.977C82.2273 440.417 81.9981 440.803 81.6761 441.136C81.3542 441.466 80.9564 441.723 80.483 441.909C80.0095 442.091 79.4773 442.182 78.8864 442.182ZM90.7216 435.227L89.517 435.568C89.4413 435.367 89.3295 435.172 89.1818 434.983C89.0379 434.79 88.8409 434.631 88.5909 434.506C88.3409 434.381 88.0208 434.318 87.6307 434.318C87.0966 434.318 86.6515 434.441 86.2955 434.688C85.9432 434.93 85.767 435.239 85.767 435.614C85.767 435.947 85.8883 436.21 86.1307 436.403C86.3731 436.597 86.7519 436.758 87.267 436.886L88.5625 437.205C89.3428 437.394 89.9242 437.684 90.3068 438.074C90.6894 438.46 90.8807 438.958 90.8807 439.568C90.8807 440.068 90.7367 440.515 90.4489 440.909C90.1648 441.303 89.767 441.614 89.2557 441.841C88.7443 442.068 88.1496 442.182 87.4716 442.182C86.5814 442.182 85.8447 441.989 85.2614 441.602C84.678 441.216 84.3087 440.652 84.1534 439.909L85.4261 439.591C85.5473 440.061 85.7765 440.413 86.1136 440.648C86.4545 440.883 86.8996 441 87.4489 441C88.0739 441 88.5701 440.867 88.9375 440.602C89.3087 440.333 89.4943 440.011 89.4943 439.636C89.4943 439.333 89.3883 439.08 89.1761 438.875C88.964 438.667 88.6383 438.511 88.1989 438.409L86.7443 438.068C85.9451 437.879 85.358 437.585 84.983 437.188C84.6117 436.786 84.4261 436.284 84.4261 435.682C84.4261 435.189 84.5644 434.754 84.8409 434.375C85.1212 433.996 85.5019 433.699 85.983 433.483C86.4678 433.267 87.017 433.159 87.6307 433.159C88.4943 433.159 89.1723 433.348 89.6648 433.727C90.161 434.106 90.5133 434.606 90.7216 435.227ZM96.6946 433.273V434.409H92.1719V433.273H96.6946ZM93.4901 431.182H94.831V439.5C94.831 439.879 94.8859 440.163 94.9957 440.352C95.1094 440.538 95.2533 440.663 95.4276 440.727C95.6056 440.788 95.7931 440.818 95.9901 440.818C96.1378 440.818 96.259 440.811 96.3537 440.795C96.4484 440.777 96.5241 440.761 96.581 440.75L96.8537 441.955C96.7628 441.989 96.6359 442.023 96.473 442.057C96.3101 442.095 96.1037 442.114 95.8537 442.114C95.4749 442.114 95.1037 442.032 94.7401 441.869C94.3802 441.706 94.081 441.458 93.8423 441.125C93.6075 440.792 93.4901 440.371 93.4901 439.864V431.182ZM102.277 442.182C101.436 442.182 100.711 441.996 100.101 441.625C99.4948 441.25 99.027 440.727 98.6974 440.057C98.3717 439.383 98.2088 438.598 98.2088 437.705C98.2088 436.811 98.3717 436.023 98.6974 435.341C99.027 434.655 99.4853 434.121 100.072 433.739C100.663 433.352 101.353 433.159 102.141 433.159C102.595 433.159 103.044 433.235 103.487 433.386C103.93 433.538 104.334 433.784 104.697 434.125C105.061 434.462 105.351 434.909 105.567 435.466C105.783 436.023 105.891 436.708 105.891 437.523V438.091H99.1634V436.932H104.527C104.527 436.439 104.429 436 104.232 435.614C104.038 435.227 103.762 434.922 103.402 434.699C103.046 434.475 102.625 434.364 102.141 434.364C101.607 434.364 101.144 434.496 100.754 434.761C100.368 435.023 100.071 435.364 99.8622 435.784C99.6539 436.205 99.5497 436.655 99.5497 437.136V437.909C99.5497 438.568 99.6634 439.127 99.8906 439.585C100.122 440.04 100.442 440.386 100.851 440.625C101.26 440.86 101.735 440.977 102.277 440.977C102.629 440.977 102.947 440.928 103.232 440.83C103.519 440.727 103.768 440.576 103.976 440.375C104.184 440.17 104.345 439.917 104.459 439.614L105.754 439.977C105.618 440.417 105.389 440.803 105.067 441.136C104.745 441.466 104.347 441.723 103.874 441.909C103.4 442.091 102.868 442.182 102.277 442.182ZM107.93 442V433.273H109.226V434.591H109.317C109.476 434.159 109.764 433.809 110.18 433.54C110.597 433.271 111.067 433.136 111.589 433.136C111.688 433.136 111.811 433.138 111.959 433.142C112.107 433.146 112.218 433.152 112.294 433.159V434.523C112.249 434.511 112.144 434.494 111.982 434.472C111.822 434.445 111.654 434.432 111.476 434.432C111.052 434.432 110.673 434.521 110.339 434.699C110.01 434.873 109.749 435.116 109.555 435.426C109.366 435.733 109.271 436.083 109.271 436.477V442H107.93Z" fill="#CDABDA"/>
<path id="taxt-4" d="M412.773 799.614V798.364H421.5V799.614H417.841V810H416.432V799.614H412.773ZM427.805 806.432V801.273H429.146V810H427.805V808.523H427.714C427.51 808.966 427.192 809.343 426.76 809.653C426.328 809.96 425.783 810.114 425.124 810.114C424.578 810.114 424.093 809.994 423.669 809.756C423.245 809.513 422.911 809.15 422.669 808.665C422.427 808.176 422.305 807.561 422.305 806.818V801.273H423.646V806.727C423.646 807.364 423.824 807.871 424.18 808.25C424.54 808.629 424.999 808.818 425.555 808.818C425.889 808.818 426.228 808.733 426.572 808.562C426.921 808.392 427.213 808.131 427.447 807.778C427.686 807.426 427.805 806.977 427.805 806.432ZM432.943 804.75V810H431.602V801.273H432.898V802.636H433.011C433.216 802.193 433.527 801.837 433.943 801.568C434.36 801.295 434.898 801.159 435.557 801.159C436.148 801.159 436.665 801.28 437.108 801.523C437.551 801.761 437.896 802.125 438.142 802.614C438.388 803.098 438.511 803.712 438.511 804.455V810H437.17V804.545C437.17 803.86 436.992 803.326 436.636 802.943C436.28 802.557 435.792 802.364 435.17 802.364C434.742 802.364 434.36 802.456 434.023 802.642C433.689 802.828 433.426 803.098 433.233 803.455C433.04 803.811 432.943 804.242 432.943 804.75ZM440.962 810V801.273H442.303V810H440.962ZM441.643 799.818C441.382 799.818 441.157 799.729 440.967 799.551C440.782 799.373 440.689 799.159 440.689 798.909C440.689 798.659 440.782 798.445 440.967 798.267C441.157 798.089 441.382 798 441.643 798C441.905 798 442.128 798.089 442.314 798.267C442.503 798.445 442.598 798.659 442.598 798.909C442.598 799.159 442.503 799.373 442.314 799.551C442.128 799.729 441.905 799.818 441.643 799.818ZM448.304 810.182C447.486 810.182 446.781 809.989 446.19 809.602C445.599 809.216 445.145 808.684 444.827 808.006C444.509 807.328 444.349 806.553 444.349 805.682C444.349 804.795 444.512 804.013 444.838 803.335C445.168 802.653 445.626 802.121 446.213 801.739C446.804 801.352 447.493 801.159 448.281 801.159C448.895 801.159 449.448 801.273 449.94 801.5C450.433 801.727 450.836 802.045 451.151 802.455C451.465 802.864 451.66 803.341 451.736 803.886H450.395C450.293 803.489 450.065 803.136 449.713 802.83C449.365 802.519 448.895 802.364 448.304 802.364C447.781 802.364 447.323 802.5 446.929 802.773C446.539 803.042 446.234 803.422 446.014 803.915C445.798 804.403 445.69 804.977 445.69 805.636C445.69 806.311 445.796 806.898 446.009 807.398C446.224 807.898 446.527 808.286 446.918 808.562C447.312 808.839 447.774 808.977 448.304 808.977C448.652 808.977 448.969 808.917 449.253 808.795C449.537 808.674 449.777 808.5 449.974 808.273C450.171 808.045 450.312 807.773 450.395 807.455H451.736C451.66 807.97 451.473 808.434 451.173 808.847C450.878 809.256 450.486 809.581 449.997 809.824C449.512 810.062 448.948 810.182 448.304 810.182ZM453.696 810V801.273H455.037V810H453.696ZM454.378 799.818C454.116 799.818 453.891 799.729 453.702 799.551C453.516 799.373 453.423 799.159 453.423 798.909C453.423 798.659 453.516 798.445 453.702 798.267C453.891 798.089 454.116 798 454.378 798C454.639 798 454.863 798.089 455.048 798.267C455.238 798.445 455.332 798.659 455.332 798.909C455.332 799.159 455.238 799.373 455.048 799.551C454.863 799.729 454.639 799.818 454.378 799.818ZM460.061 810.205C459.508 810.205 459.006 810.1 458.555 809.892C458.105 809.68 457.747 809.375 457.482 808.977C457.216 808.576 457.084 808.091 457.084 807.523C457.084 807.023 457.182 806.617 457.379 806.307C457.576 805.992 457.839 805.746 458.169 805.568C458.499 805.39 458.862 805.258 459.26 805.17C459.661 805.08 460.065 805.008 460.47 804.955C461 804.886 461.43 804.835 461.76 804.801C462.093 804.763 462.336 804.701 462.487 804.614C462.643 804.527 462.72 804.375 462.72 804.159V804.114C462.72 803.553 462.567 803.117 462.26 802.807C461.957 802.496 461.497 802.341 460.879 802.341C460.239 802.341 459.737 802.481 459.374 802.761C459.01 803.042 458.754 803.341 458.607 803.659L457.334 803.205C457.561 802.674 457.864 802.261 458.243 801.966C458.625 801.667 459.042 801.458 459.493 801.341C459.947 801.22 460.394 801.159 460.834 801.159C461.114 801.159 461.436 801.193 461.8 801.261C462.167 801.326 462.521 801.46 462.862 801.665C463.207 801.869 463.493 802.178 463.72 802.591C463.947 803.004 464.061 803.557 464.061 804.25V810H462.72V808.818H462.652C462.561 809.008 462.41 809.21 462.197 809.426C461.985 809.642 461.703 809.826 461.351 809.977C460.999 810.129 460.569 810.205 460.061 810.205ZM460.266 809C460.796 809 461.243 808.896 461.607 808.688C461.974 808.479 462.25 808.21 462.436 807.881C462.625 807.551 462.72 807.205 462.72 806.841V805.614C462.663 805.682 462.538 805.744 462.345 805.801C462.156 805.854 461.936 805.902 461.686 805.943C461.44 805.981 461.199 806.015 460.964 806.045C460.733 806.072 460.546 806.095 460.402 806.114C460.054 806.159 459.728 806.233 459.425 806.335C459.125 806.434 458.883 806.583 458.697 806.784C458.516 806.981 458.425 807.25 458.425 807.591C458.425 808.057 458.597 808.409 458.942 808.648C459.29 808.883 459.732 809 460.266 809Z" fill="#CDABDA"/>
<path id="taxt-3" d="M779.409 445V433.364H783.477C784.288 433.364 784.956 433.504 785.483 433.784C786.009 434.061 786.402 434.434 786.659 434.903C786.917 435.369 787.045 435.886 787.045 436.455C787.045 436.955 786.956 437.367 786.778 437.693C786.604 438.019 786.373 438.277 786.085 438.466C785.801 438.655 785.492 438.795 785.159 438.886V439C785.515 439.023 785.873 439.148 786.233 439.375C786.593 439.602 786.894 439.928 787.136 440.352C787.379 440.777 787.5 441.295 787.5 441.909C787.5 442.492 787.367 443.017 787.102 443.483C786.837 443.949 786.419 444.318 785.847 444.591C785.275 444.864 784.53 445 783.614 445H779.409ZM780.818 443.75H783.614C784.534 443.75 785.188 443.572 785.574 443.216C785.964 442.856 786.159 442.42 786.159 441.909C786.159 441.515 786.059 441.152 785.858 440.818C785.657 440.481 785.371 440.212 785 440.011C784.629 439.807 784.189 439.705 783.682 439.705H780.818V443.75ZM780.818 438.477H783.432C783.856 438.477 784.239 438.394 784.58 438.227C784.924 438.061 785.197 437.826 785.398 437.523C785.602 437.22 785.705 436.864 785.705 436.455C785.705 435.943 785.527 435.509 785.17 435.153C784.814 434.794 784.25 434.614 783.477 434.614H780.818V438.477ZM795.134 441.432V436.273H796.474V445H795.134V443.523H795.043C794.838 443.966 794.52 444.343 794.088 444.653C793.656 444.96 793.111 445.114 792.452 445.114C791.906 445.114 791.421 444.994 790.997 444.756C790.573 444.513 790.24 444.15 789.997 443.665C789.755 443.176 789.634 442.561 789.634 441.818V436.273H790.974V441.727C790.974 442.364 791.152 442.871 791.509 443.25C791.868 443.629 792.327 443.818 792.884 443.818C793.217 443.818 793.556 443.733 793.901 443.562C794.249 443.392 794.541 443.131 794.776 442.778C795.014 442.426 795.134 441.977 795.134 441.432ZM800.271 433.364V445H798.93V433.364H800.271ZM806.25 448.455C805.602 448.455 805.045 448.371 804.58 448.205C804.114 448.042 803.725 447.826 803.415 447.557C803.108 447.292 802.864 447.008 802.682 446.705L803.75 445.955C803.871 446.114 804.025 446.295 804.21 446.5C804.396 446.708 804.65 446.888 804.972 447.04C805.297 447.195 805.723 447.273 806.25 447.273C806.955 447.273 807.536 447.102 807.994 446.761C808.453 446.42 808.682 445.886 808.682 445.159V443.386H808.568C808.47 443.545 808.33 443.742 808.148 443.977C807.97 444.208 807.712 444.415 807.375 444.597C807.042 444.775 806.591 444.864 806.023 444.864C805.318 444.864 804.686 444.697 804.125 444.364C803.568 444.03 803.127 443.545 802.801 442.909C802.479 442.273 802.318 441.5 802.318 440.591C802.318 439.697 802.475 438.919 802.79 438.256C803.104 437.589 803.542 437.074 804.102 436.71C804.663 436.343 805.311 436.159 806.045 436.159C806.614 436.159 807.064 436.254 807.398 436.443C807.735 436.629 807.992 436.841 808.17 437.08C808.352 437.314 808.492 437.508 808.591 437.659H808.727V436.273H810.023V445.25C810.023 446 809.852 446.61 809.511 447.08C809.174 447.553 808.72 447.9 808.148 448.119C807.58 448.343 806.947 448.455 806.25 448.455ZM806.205 443.659C806.742 443.659 807.197 443.536 807.568 443.29C807.939 443.044 808.222 442.689 808.415 442.227C808.608 441.765 808.705 441.212 808.705 440.568C808.705 439.939 808.61 439.384 808.42 438.903C808.231 438.422 807.951 438.045 807.58 437.773C807.208 437.5 806.75 437.364 806.205 437.364C805.636 437.364 805.163 437.508 804.784 437.795C804.409 438.083 804.127 438.47 803.938 438.955C803.752 439.439 803.659 439.977 803.659 440.568C803.659 441.174 803.754 441.71 803.943 442.176C804.136 442.638 804.42 443.002 804.795 443.267C805.174 443.528 805.644 443.659 806.205 443.659ZM815.045 445.205C814.492 445.205 813.991 445.1 813.54 444.892C813.089 444.68 812.731 444.375 812.466 443.977C812.201 443.576 812.068 443.091 812.068 442.523C812.068 442.023 812.167 441.617 812.364 441.307C812.561 440.992 812.824 440.746 813.153 440.568C813.483 440.39 813.847 440.258 814.244 440.17C814.646 440.08 815.049 440.008 815.455 439.955C815.985 439.886 816.415 439.835 816.744 439.801C817.078 439.763 817.32 439.701 817.472 439.614C817.627 439.527 817.705 439.375 817.705 439.159V439.114C817.705 438.553 817.551 438.117 817.244 437.807C816.941 437.496 816.481 437.341 815.864 437.341C815.223 437.341 814.722 437.481 814.358 437.761C813.994 438.042 813.739 438.341 813.591 438.659L812.318 438.205C812.545 437.674 812.848 437.261 813.227 436.966C813.61 436.667 814.027 436.458 814.477 436.341C814.932 436.22 815.379 436.159 815.818 436.159C816.098 436.159 816.42 436.193 816.784 436.261C817.152 436.326 817.506 436.46 817.847 436.665C818.191 436.869 818.477 437.178 818.705 437.591C818.932 438.004 819.045 438.557 819.045 439.25V445H817.705V443.818H817.636C817.545 444.008 817.394 444.21 817.182 444.426C816.97 444.642 816.688 444.826 816.335 444.977C815.983 445.129 815.553 445.205 815.045 445.205ZM815.25 444C815.78 444 816.227 443.896 816.591 443.688C816.958 443.479 817.235 443.21 817.42 442.881C817.61 442.551 817.705 442.205 817.705 441.841V440.614C817.648 440.682 817.523 440.744 817.33 440.801C817.14 440.854 816.92 440.902 816.67 440.943C816.424 440.981 816.184 441.015 815.949 441.045C815.718 441.072 815.53 441.095 815.386 441.114C815.038 441.159 814.712 441.233 814.409 441.335C814.11 441.434 813.867 441.583 813.682 441.784C813.5 441.981 813.409 442.25 813.409 442.591C813.409 443.057 813.581 443.409 813.926 443.648C814.275 443.883 814.716 444 815.25 444ZM821.493 445V436.273H822.788V437.591H822.879C823.038 437.159 823.326 436.809 823.743 436.54C824.16 436.271 824.629 436.136 825.152 436.136C825.25 436.136 825.374 436.138 825.521 436.142C825.669 436.146 825.781 436.152 825.857 436.159V437.523C825.811 437.511 825.707 437.494 825.544 437.472C825.385 437.445 825.216 437.432 825.038 437.432C824.614 437.432 824.235 437.521 823.902 437.699C823.572 437.873 823.311 438.116 823.118 438.426C822.929 438.733 822.834 439.083 822.834 439.477V445H821.493ZM827.446 445V436.273H828.787V445H827.446ZM828.128 434.818C827.866 434.818 827.641 434.729 827.452 434.551C827.266 434.373 827.173 434.159 827.173 433.909C827.173 433.659 827.266 433.445 827.452 433.267C827.641 433.089 827.866 433 828.128 433C828.389 433 828.613 433.089 828.798 433.267C828.988 433.445 829.082 433.659 829.082 433.909C829.082 434.159 828.988 434.373 828.798 434.551C828.613 434.729 828.389 434.818 828.128 434.818ZM833.811 445.205C833.258 445.205 832.756 445.1 832.305 444.892C831.855 444.68 831.497 444.375 831.232 443.977C830.966 443.576 830.834 443.091 830.834 442.523C830.834 442.023 830.932 441.617 831.129 441.307C831.326 440.992 831.589 440.746 831.919 440.568C832.249 440.39 832.612 440.258 833.01 440.17C833.411 440.08 833.815 440.008 834.22 439.955C834.75 439.886 835.18 439.835 835.51 439.801C835.843 439.763 836.086 439.701 836.237 439.614C836.393 439.527 836.47 439.375 836.47 439.159V439.114C836.47 438.553 836.317 438.117 836.01 437.807C835.707 437.496 835.247 437.341 834.629 437.341C833.989 437.341 833.487 437.481 833.124 437.761C832.76 438.042 832.504 438.341 832.357 438.659L831.084 438.205C831.311 437.674 831.614 437.261 831.993 436.966C832.375 436.667 832.792 436.458 833.243 436.341C833.697 436.22 834.144 436.159 834.584 436.159C834.864 436.159 835.186 436.193 835.55 436.261C835.917 436.326 836.271 436.46 836.612 436.665C836.957 436.869 837.243 437.178 837.47 437.591C837.697 438.004 837.811 438.557 837.811 439.25V445H836.47V443.818H836.402C836.311 444.008 836.16 444.21 835.947 444.426C835.735 444.642 835.453 444.826 835.101 444.977C834.749 445.129 834.319 445.205 833.811 445.205ZM834.016 444C834.546 444 834.993 443.896 835.357 443.688C835.724 443.479 836 443.21 836.186 442.881C836.375 442.551 836.47 442.205 836.47 441.841V440.614C836.413 440.682 836.288 440.744 836.095 440.801C835.906 440.854 835.686 440.902 835.436 440.943C835.19 440.981 834.949 441.015 834.714 441.045C834.483 441.072 834.296 441.095 834.152 441.114C833.804 441.159 833.478 441.233 833.175 441.335C832.875 441.434 832.633 441.583 832.447 441.784C832.266 441.981 832.175 442.25 832.175 442.591C832.175 443.057 832.347 443.409 832.692 443.648C833.04 443.883 833.482 444 834.016 444Z" fill="#CDABDA"/>
<path id="taxt-2" d="M411.818 66.3636V78H410.409V66.3636H411.818ZM420.643 71.2273L419.439 71.5682C419.363 71.3674 419.251 71.1723 419.104 70.983C418.96 70.7898 418.763 70.6307 418.513 70.5057C418.263 70.3807 417.943 70.3182 417.553 70.3182C417.018 70.3182 416.573 70.4413 416.217 70.6875C415.865 70.9299 415.689 71.2386 415.689 71.6136C415.689 71.947 415.81 72.2102 416.053 72.4034C416.295 72.5966 416.674 72.7576 417.189 72.8864L418.484 73.2045C419.265 73.3939 419.846 73.6837 420.229 74.0739C420.611 74.4602 420.803 74.9583 420.803 75.5682C420.803 76.0682 420.659 76.5152 420.371 76.9091C420.087 77.303 419.689 77.6136 419.178 77.8409C418.666 78.0682 418.071 78.1818 417.393 78.1818C416.503 78.1818 415.767 77.9886 415.183 77.6023C414.6 77.2159 414.231 76.6515 414.075 75.9091L415.348 75.5909C415.469 76.0606 415.698 76.4129 416.036 76.6477C416.376 76.8826 416.821 77 417.371 77C417.996 77 418.492 76.8674 418.859 76.6023C419.231 76.3333 419.416 76.0114 419.416 75.6364C419.416 75.3333 419.31 75.0795 419.098 74.875C418.886 74.6667 418.56 74.5114 418.121 74.4091L416.666 74.0682C415.867 73.8788 415.28 73.5852 414.905 73.1875C414.534 72.786 414.348 72.2841 414.348 71.6818C414.348 71.1894 414.486 70.7538 414.763 70.375C415.043 69.9962 415.424 69.6989 415.905 69.483C416.39 69.267 416.939 69.1591 417.553 69.1591C418.416 69.1591 419.094 69.3485 419.587 69.7273C420.083 70.1061 420.435 70.6061 420.643 71.2273ZM426.616 69.2727V70.4091H422.094V69.2727H426.616ZM423.412 67.1818H424.753V75.5C424.753 75.8788 424.808 76.1629 424.918 76.3523C425.031 76.5379 425.175 76.6629 425.349 76.7273C425.527 76.7879 425.715 76.8182 425.912 76.8182C426.06 76.8182 426.181 76.8106 426.276 76.7955C426.37 76.7765 426.446 76.7614 426.503 76.75L426.776 77.9545C426.685 77.9886 426.558 78.0227 426.395 78.0568C426.232 78.0947 426.026 78.1136 425.776 78.1136C425.397 78.1136 425.026 78.0322 424.662 77.8693C424.302 77.7064 424.003 77.4583 423.764 77.125C423.529 76.7917 423.412 76.3712 423.412 75.8636V67.1818ZM431.202 78.2045C430.649 78.2045 430.147 78.1004 429.696 77.892C429.245 77.6799 428.887 77.375 428.622 76.9773C428.357 76.5758 428.224 76.0909 428.224 75.5227C428.224 75.0227 428.323 74.6174 428.52 74.3068C428.717 73.9924 428.98 73.7462 429.31 73.5682C429.639 73.3902 430.003 73.2576 430.401 73.1705C430.802 73.0795 431.205 73.0076 431.611 72.9545C432.141 72.8864 432.571 72.8352 432.901 72.8011C433.234 72.7633 433.476 72.7008 433.628 72.6136C433.783 72.5265 433.861 72.375 433.861 72.1591V72.1136C433.861 71.553 433.707 71.1174 433.401 70.8068C433.098 70.4962 432.637 70.3409 432.02 70.3409C431.38 70.3409 430.878 70.4811 430.514 70.7614C430.151 71.0417 429.895 71.3409 429.747 71.6591L428.474 71.2045C428.702 70.6742 429.005 70.2614 429.384 69.9659C429.766 69.6667 430.183 69.4583 430.634 69.3409C431.088 69.2197 431.535 69.1591 431.974 69.1591C432.255 69.1591 432.577 69.1932 432.94 69.2614C433.308 69.3258 433.662 69.4602 434.003 69.6648C434.348 69.8693 434.634 70.178 434.861 70.5909C435.088 71.0038 435.202 71.5568 435.202 72.25V78H433.861V76.8182H433.793C433.702 77.0076 433.55 77.2102 433.338 77.4261C433.126 77.642 432.844 77.8258 432.491 77.9773C432.139 78.1288 431.709 78.2045 431.202 78.2045ZM431.406 77C431.937 77 432.384 76.8958 432.747 76.6875C433.115 76.4792 433.391 76.2102 433.577 75.8807C433.766 75.5511 433.861 75.2045 433.861 74.8409V73.6136C433.804 73.6818 433.679 73.7443 433.486 73.8011C433.296 73.8542 433.077 73.9015 432.827 73.9432C432.58 73.9811 432.34 74.0152 432.105 74.0455C431.874 74.072 431.687 74.0947 431.543 74.1136C431.194 74.1591 430.868 74.233 430.565 74.3352C430.266 74.4337 430.024 74.5833 429.838 74.7841C429.656 74.9811 429.565 75.25 429.565 75.5909C429.565 76.0568 429.738 76.4091 430.082 76.6477C430.431 76.8826 430.872 77 431.406 77ZM438.99 72.75V78H437.649V69.2727H438.945V70.6364H439.058C439.263 70.1932 439.573 69.8371 439.99 69.5682C440.407 69.2955 440.945 69.1591 441.604 69.1591C442.195 69.1591 442.712 69.2803 443.155 69.5227C443.598 69.7614 443.943 70.125 444.189 70.6136C444.435 71.0985 444.558 71.7121 444.558 72.4545V78H443.217V72.5455C443.217 71.8598 443.039 71.3258 442.683 70.9432C442.327 70.5568 441.839 70.3636 441.217 70.3636C440.789 70.3636 440.407 70.4564 440.07 70.642C439.736 70.8277 439.473 71.0985 439.28 71.4545C439.087 71.8106 438.99 72.2424 438.99 72.75ZM447.19 78V66.3636H448.531V70.6591H448.645C448.743 70.5076 448.88 70.3144 449.054 70.0795C449.232 69.8409 449.486 69.6288 449.815 69.4432C450.149 69.2538 450.599 69.1591 451.168 69.1591C451.902 69.1591 452.55 69.3428 453.111 69.7102C453.671 70.0777 454.109 70.5985 454.423 71.2727C454.738 71.947 454.895 72.7424 454.895 73.6591C454.895 74.5833 454.738 75.3845 454.423 76.0625C454.109 76.7367 453.673 77.2595 453.116 77.6307C452.56 77.9981 451.918 78.1818 451.19 78.1818C450.63 78.1818 450.181 78.089 449.844 77.9034C449.507 77.714 449.247 77.5 449.065 77.2614C448.884 77.0189 448.743 76.8182 448.645 76.6591H448.486V78H447.19ZM448.509 73.6364C448.509 74.2955 448.605 74.8769 448.798 75.3807C448.991 75.8807 449.274 76.2727 449.645 76.5568C450.016 76.8371 450.471 76.9773 451.009 76.9773C451.569 76.9773 452.037 76.8295 452.412 76.5341C452.791 76.2348 453.075 75.8333 453.264 75.3295C453.457 74.822 453.554 74.2576 453.554 73.6364C453.554 73.0227 453.459 72.4697 453.27 71.9773C453.084 71.4811 452.802 71.089 452.423 70.8011C452.048 70.5095 451.577 70.3636 451.009 70.3636C450.463 70.3636 450.005 70.5019 449.634 70.7784C449.262 71.0511 448.982 71.4337 448.793 71.9261C448.603 72.4148 448.509 72.9848 448.509 73.6364ZM462.446 74.4318V69.2727H463.787V78H462.446V76.5227H462.355C462.151 76.9659 461.832 77.3428 461.401 77.6534C460.969 77.9602 460.423 78.1136 459.764 78.1136C459.219 78.1136 458.734 77.9943 458.31 77.7557C457.885 77.5133 457.552 77.1496 457.31 76.6648C457.067 76.1761 456.946 75.5606 456.946 74.8182V69.2727H458.287V74.7273C458.287 75.3636 458.465 75.8712 458.821 76.25C459.181 76.6288 459.639 76.8182 460.196 76.8182C460.529 76.8182 460.868 76.733 461.213 76.5625C461.562 76.392 461.853 76.1307 462.088 75.7784C462.327 75.4261 462.446 74.9773 462.446 74.4318ZM467.584 66.3636V78H466.243V66.3636H467.584Z" fill="#CDABDA"/>
</g>
<defs>
<clipPath id="clip0_2_2">
<rect width="878" height="879" fill="white"/>
</clipPath>
</defs>
</svg>
