<svg width="878" height="879" viewBox="0 0 878 879" fill="none" xmlns="http://www.w3.org/2000/svg">
<g id="ways-30 1" clip-path="url(#clip0_1_2)">
<g id="Clip path group">
<mask id="mask0_1_2" style="mask-type:luminance" maskUnits="userSpaceOnUse" x="0" y="0" width="878" height="879">
<g id="clip0_1_2">
<path id="Vector" d="M878 0H0V879H878V0Z" fill="white"/>
</g>
</mask>
<g mask="url(#mask0_1_2)">
<g id="talent-30 1">
<g id="Clip path group_2">
<g id="Mask group">
<mask id="mask1_1_2" style="mask-type:luminance" maskUnits="userSpaceOnUse" x="0" y="0" width="878" height="879">
<g id="Group">
<g id="clip0_1_2_2">
<path id="Vector_2" d="M878 0H0V879H878V0Z" fill="white"/>
</g>
</g>
</mask>
<g mask="url(#mask1_1_2)">
<g id="Group_2">
<g id="main-bg 1">
<path id="Vector_2_2" d="M512.76 74.0144L439.746 1L366.732 74.0144L439.746 147.029L512.76 74.0144Z" stroke="#9EAA85" stroke-width="0.930255"/>
<path id="Vector_2_2_2" d="M366.731 220.043L293.717 147.029L220.703 220.043L293.717 293.058L366.731 220.043Z" stroke="#9EAA85" stroke-width="0.930255"/>
<path id="Vector_3" d="M220.702 366.072L147.688 293.058L74.6736 366.072L147.688 439.087L220.702 366.072Z" stroke="#9EAA85" stroke-width="0.930255"/>
<path id="Vector_4" d="M366.731 512.979L293.717 439.965L220.703 512.979L293.717 585.994L366.731 512.979Z" stroke="#9EAA85" stroke-width="0.930255"/>
<path id="Vector_5" d="M513.199 366.511L440.185 293.497L367.171 366.511L440.185 439.526L513.199 366.511Z" stroke="#9EAA85" stroke-width="0.930255"/>
<path id="Vector_6" d="M585.775 147.029L512.761 74.0146L439.747 147.029L512.761 220.043L585.775 147.029Z" stroke="#9EAA85" stroke-width="0.930255"/>
<path id="Vector_7" d="M439.745 293.058L366.731 220.044L293.717 293.058L366.731 366.073L439.745 293.058Z" stroke="#9EAA85" stroke-width="0.930255"/>
<path id="Vector_8" d="M293.716 439.087L220.702 366.073L147.688 439.087L220.702 512.102L293.716 439.087Z" stroke="#9EAA85" stroke-width="0.930255"/>
<path id="Vector_9" d="M439.745 585.993L366.731 512.979L293.717 585.993L366.731 659.008L439.745 585.993Z" stroke="#9EAA85" stroke-width="0.930255"/>
<path id="Vector_10" d="M586.213 439.526L513.199 366.512L440.185 439.526L513.199 512.541L586.213 439.526Z" stroke="#9EAA85" stroke-width="0.930255"/>
<path id="Vector_11" d="M731.804 293.058L658.79 220.044L585.776 293.058L658.79 366.073L731.804 293.058Z" stroke="#9EAA85" stroke-width="0.930255"/>
<path id="Vector_12" d="M658.789 220.043L585.775 147.029L512.761 220.043L585.775 293.058L658.789 220.043Z" stroke="#9EAA85" stroke-width="0.930255"/>
<path id="Vector_13" d="M877.833 439.087L804.819 366.073L731.805 439.087L804.819 512.102L877.833 439.087Z" stroke="#9EAA85" stroke-width="0.930255"/>
<path id="Vector_14" d="M804.819 366.072L731.805 293.058L658.791 366.072L731.805 439.087L804.819 366.072Z" stroke="#9EAA85" stroke-width="0.930255"/>
<path id="Vector_15" d="M731.584 585.336L658.57 512.322L585.556 585.336L658.57 658.351L731.584 585.336Z" stroke="#9EAA85" stroke-width="0.930255"/>
<path id="Vector_16" d="M585.556 731.365L512.542 658.351L439.528 731.365L512.542 804.38L585.556 731.365Z" stroke="#9EAA85" stroke-width="0.930255"/>
<path id="Vector_17" d="M512.76 220.043L439.746 147.029L366.732 220.043L439.746 293.058L512.76 220.043Z" stroke="#9EAA85" stroke-width="0.930255"/>
<path id="Vector_18" d="M366.731 366.072L293.717 293.058L220.703 366.072L293.717 439.087L366.731 366.072Z" stroke="#9EAA85" stroke-width="0.930255"/>
<path id="Vector_19" d="M220.263 512.54L147.249 439.526L74.2346 512.54L147.249 585.555L220.263 512.54Z" stroke="#9EAA85" stroke-width="0.930255"/>
<path id="Vector_20" d="M366.731 659.008L293.717 585.994L220.703 659.008L293.717 732.023L366.731 659.008Z" stroke="#9EAA85" stroke-width="0.930255"/>
<path id="Vector_21" d="M513.199 512.54L440.185 439.526L367.171 512.54L440.185 585.555L513.199 512.54Z" stroke="#9EAA85" stroke-width="0.930255"/>
<path id="Vector_22" d="M658.789 366.072L585.775 293.058L512.761 366.072L585.775 439.087L658.789 366.072Z" stroke="#9EAA85" stroke-width="0.930255"/>
<path id="Vector_23" d="M804.819 512.102L731.805 439.088L658.791 512.102L731.805 585.117L804.819 512.102Z" stroke="#9EAA85" stroke-width="0.930255"/>
<path id="Vector_24" d="M658.571 658.35L585.557 585.336L512.543 658.35L585.557 731.365L658.571 658.35Z" stroke="#9EAA85" stroke-width="0.930255"/>
<path id="Vector_25" d="M512.541 804.38L439.527 731.366L366.513 804.38L439.527 877.395L512.541 804.38Z" stroke="#9EAA85" stroke-width="0.930255"/>
<path id="Vector_26" d="M439.745 147.029L366.731 74.0146L293.717 147.029L366.731 220.043L439.745 147.029Z" stroke="#9EAA85" stroke-width="0.930255"/>
<path id="Vector_27" d="M293.716 293.058L220.702 220.044L147.688 293.058L220.702 366.073L293.716 293.058Z" stroke="#9EAA85" stroke-width="0.930255"/>
<path id="Vector_28" d="M147.249 439.526L74.2344 366.512L1.21997 439.526L74.2344 512.541L147.249 439.526Z" stroke="#9EAA85" stroke-width="0.930255"/>
<path id="Vector_29" d="M293.716 585.994L220.702 512.98L147.688 585.994L220.702 659.009L293.716 585.994Z" stroke="#9EAA85" stroke-width="0.930255"/>
<path id="Vector_30" d="M440.184 439.526L367.17 366.512L294.156 439.526L367.17 512.541L440.184 439.526Z" stroke="#9EAA85" stroke-width="0.930255"/>
<path id="Vector_31" d="M585.775 293.058L512.761 220.044L439.747 293.058L512.761 366.073L585.775 293.058Z" stroke="#9EAA85" stroke-width="0.930255"/>
<path id="Vector_32" d="M731.804 439.087L658.79 366.073L585.776 439.087L658.79 512.102L731.804 439.087Z" stroke="#9EAA85" stroke-width="0.930255"/>
<path id="Vector_33" d="M658.571 512.321L585.557 439.307L512.543 512.321L585.557 585.336L658.571 512.321Z" stroke="#9EAA85" stroke-width="0.930255"/>
<path id="Vector_34" d="M512.322 658.57L439.308 585.556L366.294 658.57L439.308 731.585L512.322 658.57Z" stroke="#9EAA85" stroke-width="0.930255"/>
<path id="Vector_35" d="M585.555 585.336L512.541 512.322L439.527 585.336L512.541 658.351L585.555 585.336Z" stroke="#9EAA85" stroke-width="0.930255"/>
<path id="Vector_36" d="M439.526 731.365L366.512 658.351L293.498 731.365L366.512 804.38L439.526 731.365Z" stroke="#9EAA85" stroke-width="0.930255"/>
<path id="Vector_37" d="M476.363 329.675L440.185 293.497L404.007 329.675L440.185 365.854L476.363 329.675Z" stroke="#9EAA85" stroke-width="0.930255"/>
<path id="Vector_38" d="M476.363 329.675L440.185 293.497L404.007 329.675L440.185 365.854L476.363 329.675Z" stroke="#9EAA85" stroke-width="0.930255"/>
<path id="Vector_39" d="M403.129 402.909L366.951 366.731L330.773 402.909L366.951 439.088L403.129 402.909Z" stroke="#9EAA85" stroke-width="0.930255"/>
<path id="Vector_40" d="M548.939 402.251L512.761 366.073L476.583 402.251L512.761 438.43L548.939 402.251Z" stroke="#9EAA85" stroke-width="0.930255"/>
<path id="Vector_41" d="M476.801 402.47L440.623 366.292L404.445 402.47L440.623 438.649L476.801 402.47Z" stroke="#9EAA85" stroke-width="0.930255"/>
<path id="Vector_42" d="M402.691 475.704L366.513 439.526L330.335 475.704L366.513 511.883L402.691 475.704Z" stroke="#9EAA85" stroke-width="0.930255"/>
<path id="Vector_43" d="M548.939 474.608L512.761 438.43L476.583 474.608L512.761 510.787L548.939 474.608Z" stroke="#9EAA85" stroke-width="0.930255"/>
<path id="Vector_44" d="M512.541 365.854L476.363 329.676L440.185 365.854L476.363 402.033L512.541 365.854Z" stroke="#9EAA85" stroke-width="0.930255"/>
<path id="Vector_45" d="M439.965 439.745L403.787 403.567L367.609 439.745L403.787 475.924L439.965 439.745Z" stroke="#9EAA85" stroke-width="0.930255"/>
<path id="Vector_46" d="M585.117 438.429L548.939 402.251L512.761 438.429L548.939 474.608L585.117 438.429Z" stroke="#9EAA85" stroke-width="0.930255"/>
<path id="Vector_47" d="M475.924 476.143L439.746 439.965L403.568 476.143L439.746 512.322L475.924 476.143Z" stroke="#9EAA85" stroke-width="0.930255"/>
<path id="Vector_48" d="M512.249 512.175L476.071 475.997L439.893 512.175L476.071 548.354L512.249 512.175Z" stroke="#9EAA85" stroke-width="0.930255"/>
<path id="Vector_49" d="M475.046 549.377L438.868 513.199L402.69 549.377L438.868 585.556L475.046 549.377Z" stroke="#9EAA85" stroke-width="0.930255"/>
<path id="Vector_50" d="M439.745 512.321L403.567 476.143L367.389 512.321L403.567 548.5L439.745 512.321Z" stroke="#9EAA85" stroke-width="0.930255"/>
<path id="Vector_51" d="M220.702 659.009C341.798 780.105 538.132 780.105 659.228 659.009C780.324 537.913 780.324 341.579 659.228 220.483C538.132 99.3871 341.798 99.3871 220.702 220.483C99.6061 341.579 99.6061 537.913 220.702 659.009Z" stroke="#9EAA85" stroke-width="0.930255"/>
<path id="Vector_52" d="M439.746 439.964C500.293 500.512 598.461 500.512 659.008 439.964C719.556 379.417 719.556 281.249 659.008 220.702C598.461 160.154 500.293 160.154 439.746 220.702C379.198 281.249 379.198 379.417 439.746 439.964Z" stroke="#9EAA85" stroke-width="0.930255"/>
<path id="Vector_53" d="M220.483 659.227C281.03 719.775 379.198 719.775 439.745 659.227C500.293 598.68 500.293 500.512 439.745 439.965C379.198 379.417 281.03 379.417 220.483 439.965C159.935 500.512 159.935 598.68 220.483 659.227Z" stroke="#9EAA85" stroke-width="0.930255"/>
<path id="Vector_54" d="M439.089 658.569C499.636 719.117 597.804 719.117 658.351 658.569C718.899 598.022 718.899 499.854 658.351 439.307C597.804 378.759 499.636 378.759 439.089 439.307C378.541 499.854 378.541 598.022 439.089 658.569Z" stroke="#9EAA85" stroke-width="0.930255"/>
<path id="Vector_55" d="M220.483 439.964C281.03 500.512 379.198 500.512 439.745 439.964C500.293 379.417 500.293 281.249 439.745 220.702C379.198 160.154 281.03 160.154 220.483 220.702C159.935 281.249 159.935 379.417 220.483 439.964Z" stroke="#9EAA85" stroke-width="0.930255"/>
<path id="green-rectangle-2" d="M440.827 293.998L586.43 437.457L657.536 365.288L511.934 221.829L440.827 293.998Z" stroke="#D0E6A4" stroke-opacity="0.3" stroke-width="4"/>
<path id="green-rectangle-4" d="M221.829 512.475L366.376 656.997L438.01 585.351L293.462 440.829L221.829 512.475Z" stroke="#D0E6A4" stroke-opacity="0.3" stroke-width="4"/>
<path id="green-rectangle-1" d="M366.815 221.777L221.882 365.913L293.324 437.75L438.257 293.614L366.815 221.777Z" stroke="#D0E6A4" stroke-opacity="0.3" stroke-width="4"/>
<path id="green-rectangle-3" d="M585.165 439.829L440.828 584.561L512.566 656.103L656.903 511.37L585.165 439.829Z" stroke="#D0E6A4" stroke-opacity="0.3" stroke-width="4"/>
<path id="cycle-1" d="M331 485C416.604 485 486 415.604 486 330C486 244.396 416.604 175 331 175C245.396 175 176 244.396 176 330C176 415.604 245.396 485 331 485Z" stroke="#FB887B" stroke-opacity="0.3" stroke-width="4"/>
<path id="cycle-2" d="M549 485C634.604 485 704 415.604 704 330C704 244.396 634.604 175 549 175C463.396 175 394 244.396 394 330C394 415.604 463.396 485 549 485Z" stroke="#FB887B" stroke-opacity="0.3" stroke-width="4"/>
<path id="cycle-3" d="M330 704C415.604 704 485 634.604 485 549C485 463.396 415.604 394 330 394C244.396 394 175 463.396 175 549C175 634.604 244.396 704 330 704Z" stroke="#FB887B" stroke-opacity="0.3" stroke-width="4"/>
<path id="cycle-4" d="M549 704C634.604 704 704 634.604 704 549C704 463.396 634.604 394 549 394C463.396 394 394 463.396 394 549C394 634.604 463.396 704 549 704Z" stroke="#FB887B" stroke-opacity="0.3" stroke-width="4"/>
</g>
</g>
</g>
</g>
</g>
</g>
</g>
</g>
<g id="Group 1">
<rect id="rect-1" x="2.8284" y="440.136" width="204.484" height="206.121" transform="rotate(-45.2529 2.8284 440.136)" stroke="#FEDD95" stroke-width="4"/>
<path id="text-1" d="M116.114 446V428.545H122.011C123.375 428.545 124.494 428.778 125.369 429.244C126.244 429.705 126.892 430.338 127.312 431.145C127.733 431.952 127.943 432.869 127.943 433.898C127.943 434.926 127.733 435.838 127.312 436.634C126.892 437.429 126.247 438.054 125.378 438.509C124.509 438.957 123.398 439.182 122.045 439.182H117.273V437.273H121.977C122.909 437.273 123.659 437.136 124.227 436.864C124.801 436.591 125.216 436.205 125.472 435.705C125.733 435.199 125.864 434.597 125.864 433.898C125.864 433.199 125.733 432.588 125.472 432.065C125.21 431.543 124.793 431.139 124.219 430.855C123.645 430.565 122.886 430.42 121.943 430.42H118.227V446H116.114ZM124.33 438.159L128.625 446H126.17L121.943 438.159H124.33ZM136.54 446.273C135.279 446.273 134.191 445.994 133.276 445.438C132.367 444.875 131.665 444.091 131.171 443.085C130.683 442.074 130.438 440.898 130.438 439.557C130.438 438.216 130.683 437.034 131.171 436.011C131.665 434.983 132.353 434.182 133.234 433.608C134.12 433.028 135.154 432.739 136.336 432.739C137.018 432.739 137.691 432.852 138.356 433.08C139.021 433.307 139.626 433.676 140.171 434.188C140.717 434.693 141.151 435.364 141.475 436.199C141.799 437.034 141.961 438.062 141.961 439.284V440.136H131.87V438.398H139.915C139.915 437.659 139.768 437 139.472 436.42C139.183 435.841 138.768 435.384 138.228 435.048C137.694 434.713 137.063 434.545 136.336 434.545C135.535 434.545 134.842 434.744 134.256 435.142C133.677 435.534 133.231 436.045 132.918 436.676C132.606 437.307 132.45 437.983 132.45 438.705V439.864C132.45 440.852 132.62 441.69 132.961 442.378C133.308 443.06 133.788 443.58 134.401 443.938C135.015 444.29 135.728 444.466 136.54 444.466C137.069 444.466 137.546 444.392 137.972 444.244C138.404 444.091 138.776 443.864 139.089 443.562C139.401 443.256 139.643 442.875 139.813 442.42L141.756 442.966C141.552 443.625 141.208 444.205 140.725 444.705C140.242 445.199 139.646 445.585 138.935 445.864C138.225 446.136 137.427 446.273 136.54 446.273ZM148.873 446.307C148.043 446.307 147.29 446.151 146.614 445.838C145.938 445.52 145.401 445.062 145.004 444.466C144.606 443.864 144.407 443.136 144.407 442.284C144.407 441.534 144.555 440.926 144.85 440.46C145.146 439.989 145.54 439.619 146.035 439.352C146.529 439.085 147.075 438.886 147.671 438.756C148.273 438.619 148.879 438.511 149.487 438.432C150.282 438.33 150.927 438.253 151.421 438.202C151.921 438.145 152.285 438.051 152.512 437.92C152.745 437.79 152.862 437.562 152.862 437.239V437.17C152.862 436.33 152.631 435.676 152.171 435.21C151.717 434.744 151.026 434.511 150.1 434.511C149.14 434.511 148.387 434.722 147.842 435.142C147.296 435.562 146.913 436.011 146.691 436.489L144.782 435.807C145.123 435.011 145.577 434.392 146.146 433.949C146.719 433.5 147.344 433.187 148.021 433.011C148.702 432.83 149.373 432.739 150.032 432.739C150.452 432.739 150.935 432.79 151.481 432.892C152.032 432.989 152.563 433.19 153.075 433.497C153.592 433.804 154.021 434.267 154.362 434.886C154.702 435.506 154.873 436.335 154.873 437.375V446H152.862V444.227H152.759C152.623 444.511 152.396 444.815 152.077 445.139C151.759 445.463 151.336 445.739 150.808 445.966C150.279 446.193 149.634 446.307 148.873 446.307ZM149.18 444.5C149.975 444.5 150.646 444.344 151.191 444.031C151.742 443.719 152.157 443.315 152.435 442.821C152.719 442.327 152.862 441.807 152.862 441.261V439.42C152.776 439.523 152.589 439.616 152.299 439.702C152.015 439.781 151.685 439.852 151.31 439.915C150.941 439.972 150.58 440.023 150.228 440.068C149.881 440.108 149.6 440.142 149.384 440.17C148.862 440.239 148.373 440.349 147.918 440.503C147.469 440.651 147.106 440.875 146.827 441.176C146.555 441.472 146.418 441.875 146.418 442.386C146.418 443.085 146.677 443.614 147.194 443.972C147.717 444.324 148.379 444.5 149.18 444.5ZM163.862 446.273C162.635 446.273 161.578 445.983 160.692 445.403C159.805 444.824 159.124 444.026 158.646 443.009C158.169 441.991 157.93 440.83 157.93 439.523C157.93 438.193 158.175 437.02 158.663 436.003C159.158 434.98 159.845 434.182 160.726 433.608C161.612 433.028 162.646 432.739 163.828 432.739C164.749 432.739 165.578 432.909 166.317 433.25C167.055 433.591 167.661 434.068 168.132 434.682C168.604 435.295 168.896 436.011 169.01 436.83H166.999C166.845 436.233 166.504 435.705 165.976 435.244C165.453 434.778 164.749 434.545 163.862 434.545C163.078 434.545 162.391 434.75 161.8 435.159C161.214 435.562 160.757 436.134 160.428 436.872C160.104 437.605 159.942 438.466 159.942 439.455C159.942 440.466 160.101 441.347 160.419 442.097C160.743 442.847 161.197 443.429 161.783 443.844C162.374 444.259 163.067 444.466 163.862 444.466C164.385 444.466 164.859 444.375 165.286 444.193C165.712 444.011 166.072 443.75 166.368 443.409C166.663 443.068 166.874 442.659 166.999 442.182H169.01C168.896 442.955 168.615 443.651 168.166 444.27C167.723 444.884 167.135 445.372 166.402 445.736C165.675 446.094 164.828 446.273 163.862 446.273ZM177.643 432.909V434.614H170.859V432.909H177.643ZM172.837 429.773H174.848V442.25C174.848 442.818 174.93 443.244 175.095 443.528C175.266 443.807 175.482 443.994 175.743 444.091C176.01 444.182 176.291 444.227 176.587 444.227C176.808 444.227 176.99 444.216 177.132 444.193C177.274 444.165 177.388 444.142 177.473 444.125L177.882 445.932C177.746 445.983 177.555 446.034 177.311 446.085C177.067 446.142 176.757 446.17 176.382 446.17C175.814 446.17 175.257 446.048 174.712 445.804C174.172 445.56 173.723 445.188 173.365 444.688C173.013 444.188 172.837 443.557 172.837 442.795V429.773Z" fill="#FEDD95"/>
</g>
<g id="Group 2">
<rect id="rect-2" x="149.831" y="293.188" width="204.484" height="206.121" transform="rotate(-44.9099 149.831 293.188)" stroke="#FEDD95" stroke-width="4"/>
<path id="text-2" d="M255.83 302H253.614L260.023 284.545H262.205L268.614 302H266.398L261.182 287.307H261.045L255.83 302ZM256.648 295.182H265.58V297.057H256.648V295.182ZM273.071 294.125V302H271.06V288.909H273.003V290.955H273.173C273.48 290.29 273.946 289.756 274.571 289.352C275.196 288.943 276.003 288.739 276.991 288.739C277.878 288.739 278.653 288.92 279.318 289.284C279.983 289.642 280.5 290.188 280.869 290.92C281.239 291.648 281.423 292.568 281.423 293.682V302H279.412V293.818C279.412 292.79 279.145 291.989 278.611 291.415C278.077 290.835 277.344 290.545 276.412 290.545C275.77 290.545 275.196 290.685 274.69 290.963C274.19 291.241 273.795 291.648 273.506 292.182C273.216 292.716 273.071 293.364 273.071 294.125ZM290.383 307.182C289.411 307.182 288.576 307.057 287.877 306.807C287.178 306.562 286.596 306.239 286.13 305.835C285.67 305.438 285.303 305.011 285.031 304.557L286.633 303.432C286.815 303.67 287.045 303.943 287.323 304.25C287.602 304.562 287.982 304.832 288.465 305.06C288.954 305.293 289.593 305.409 290.383 305.409C291.44 305.409 292.312 305.153 292.999 304.642C293.687 304.131 294.031 303.33 294.031 302.239V299.58H293.86C293.712 299.818 293.502 300.114 293.229 300.466C292.962 300.812 292.576 301.122 292.07 301.395C291.57 301.662 290.894 301.795 290.042 301.795C288.985 301.795 288.036 301.545 287.195 301.045C286.36 300.545 285.698 299.818 285.21 298.864C284.727 297.909 284.485 296.75 284.485 295.386C284.485 294.045 284.721 292.878 285.192 291.884C285.664 290.884 286.32 290.111 287.161 289.565C288.002 289.014 288.974 288.739 290.076 288.739C290.928 288.739 291.604 288.881 292.104 289.165C292.61 289.443 292.996 289.761 293.263 290.119C293.536 290.472 293.746 290.761 293.894 290.989H294.099V288.909H296.042V302.375C296.042 303.5 295.786 304.415 295.275 305.119C294.769 305.83 294.087 306.349 293.229 306.679C292.377 307.014 291.428 307.182 290.383 307.182ZM290.315 299.989C291.121 299.989 291.803 299.804 292.36 299.435C292.917 299.065 293.34 298.534 293.63 297.841C293.92 297.148 294.065 296.318 294.065 295.352C294.065 294.409 293.923 293.577 293.638 292.855C293.354 292.134 292.934 291.568 292.377 291.159C291.82 290.75 291.133 290.545 290.315 290.545C289.462 290.545 288.752 290.761 288.184 291.193C287.621 291.625 287.198 292.205 286.914 292.932C286.636 293.659 286.496 294.466 286.496 295.352C286.496 296.261 286.638 297.065 286.923 297.764C287.212 298.457 287.638 299.003 288.201 299.401C288.769 299.793 289.474 299.989 290.315 299.989ZM307.974 296.648V288.909H309.985V302H307.974V299.784H307.837C307.531 300.449 307.053 301.014 306.406 301.48C305.758 301.94 304.94 302.17 303.951 302.17C303.133 302.17 302.406 301.991 301.769 301.634C301.133 301.27 300.633 300.724 300.269 299.997C299.906 299.264 299.724 298.341 299.724 297.227V288.909H301.735V297.091C301.735 298.045 302.002 298.807 302.536 299.375C303.076 299.943 303.763 300.227 304.599 300.227C305.099 300.227 305.607 300.099 306.124 299.844C306.647 299.588 307.085 299.196 307.437 298.668C307.795 298.139 307.974 297.466 307.974 296.648ZM315.68 284.545V302H313.669V284.545H315.68ZM323.217 302.307C322.387 302.307 321.634 302.151 320.958 301.838C320.282 301.52 319.745 301.062 319.347 300.466C318.95 299.864 318.751 299.136 318.751 298.284C318.751 297.534 318.898 296.926 319.194 296.46C319.489 295.989 319.884 295.619 320.379 295.352C320.873 295.085 321.418 294.886 322.015 294.756C322.617 294.619 323.222 294.511 323.83 294.432C324.626 294.33 325.271 294.253 325.765 294.202C326.265 294.145 326.629 294.051 326.856 293.92C327.089 293.79 327.205 293.562 327.205 293.239V293.17C327.205 292.33 326.975 291.676 326.515 291.21C326.06 290.744 325.37 290.511 324.444 290.511C323.484 290.511 322.731 290.722 322.185 291.142C321.64 291.562 321.256 292.011 321.035 292.489L319.126 291.807C319.467 291.011 319.921 290.392 320.489 289.949C321.063 289.5 321.688 289.187 322.364 289.011C323.046 288.83 323.717 288.739 324.376 288.739C324.796 288.739 325.279 288.79 325.825 288.892C326.376 288.989 326.907 289.19 327.418 289.497C327.935 289.804 328.364 290.267 328.705 290.886C329.046 291.506 329.217 292.335 329.217 293.375V302H327.205V300.227H327.103C326.967 300.511 326.739 300.815 326.421 301.139C326.103 301.463 325.68 301.739 325.151 301.966C324.623 302.193 323.978 302.307 323.217 302.307ZM323.523 300.5C324.319 300.5 324.989 300.344 325.535 300.031C326.086 299.719 326.501 299.315 326.779 298.821C327.063 298.327 327.205 297.807 327.205 297.261V295.42C327.12 295.523 326.933 295.616 326.643 295.702C326.359 295.781 326.029 295.852 325.654 295.915C325.285 295.972 324.924 296.023 324.572 296.068C324.225 296.108 323.944 296.142 323.728 296.17C323.205 296.239 322.717 296.349 322.262 296.503C321.813 296.651 321.45 296.875 321.171 297.176C320.898 297.472 320.762 297.875 320.762 298.386C320.762 299.085 321.021 299.614 321.538 299.972C322.06 300.324 322.722 300.5 323.523 300.5ZM332.888 302V288.909H334.831V290.886H334.967C335.206 290.239 335.638 289.713 336.263 289.31C336.888 288.906 337.592 288.705 338.376 288.705C338.524 288.705 338.709 288.707 338.93 288.713C339.152 288.719 339.32 288.727 339.433 288.739V290.784C339.365 290.767 339.209 290.741 338.964 290.707C338.726 290.668 338.473 290.648 338.206 290.648C337.57 290.648 337.001 290.781 336.501 291.048C336.007 291.31 335.615 291.673 335.325 292.139C335.041 292.599 334.899 293.125 334.899 293.716V302H332.888Z" fill="#FEDD95"/>
</g>
<g id="Group 3">
<rect id="rect-3" x="294.828" y="147.057" width="204.484" height="206.121" transform="rotate(-45.2529 294.828 147.057)" stroke="#FEDD95" stroke-width="4"/>
<path id="text-3" d="M418.83 134.545L424.011 149.239H424.216L429.398 134.545H431.614L425.205 152H423.023L416.614 134.545H418.83ZM442.31 146.648V138.909H444.321V152H442.31V149.784H442.173C441.866 150.449 441.389 151.014 440.741 151.48C440.094 151.94 439.276 152.17 438.287 152.17C437.469 152.17 436.741 151.991 436.105 151.634C435.469 151.27 434.969 150.724 434.605 149.997C434.241 149.264 434.06 148.341 434.06 147.227V138.909H436.071V147.091C436.071 148.045 436.338 148.807 436.872 149.375C437.412 149.943 438.099 150.227 438.935 150.227C439.435 150.227 439.943 150.099 440.46 149.844C440.983 149.588 441.42 149.196 441.773 148.668C442.131 148.139 442.31 147.466 442.31 146.648ZM453.494 152.273C452.232 152.273 451.144 151.994 450.229 151.438C449.32 150.875 448.619 150.091 448.124 149.085C447.636 148.074 447.391 146.898 447.391 145.557C447.391 144.216 447.636 143.034 448.124 142.011C448.619 140.983 449.306 140.182 450.187 139.608C451.073 139.028 452.107 138.739 453.289 138.739C453.971 138.739 454.644 138.852 455.309 139.08C455.974 139.307 456.579 139.676 457.124 140.188C457.67 140.693 458.104 141.364 458.428 142.199C458.752 143.034 458.914 144.063 458.914 145.284V146.136H448.823V144.398H456.869C456.869 143.659 456.721 143 456.425 142.42C456.136 141.841 455.721 141.384 455.181 141.048C454.647 140.713 454.016 140.545 453.289 140.545C452.488 140.545 451.795 140.744 451.21 141.142C450.63 141.534 450.184 142.045 449.871 142.676C449.559 143.307 449.403 143.983 449.403 144.705V145.864C449.403 146.852 449.573 147.69 449.914 148.378C450.261 149.06 450.741 149.58 451.354 149.938C451.968 150.29 452.681 150.466 453.494 150.466C454.022 150.466 454.499 150.392 454.925 150.244C455.357 150.091 455.729 149.864 456.042 149.563C456.354 149.256 456.596 148.875 456.766 148.42L458.71 148.966C458.505 149.625 458.161 150.205 457.678 150.705C457.195 151.199 456.599 151.585 455.888 151.864C455.178 152.136 454.38 152.273 453.494 152.273Z" fill="#FEDD95"/>
</g>
<g id="Group 4">
<rect id="rect-4" x="148.828" y="586.143" width="204.484" height="206.121" transform="rotate(-45.2867 148.828 586.143)" stroke="#FEDD95" stroke-width="4"/>
<path id="text-4" d="M267.307 595.136C266.886 595.136 266.526 594.986 266.224 594.685C265.923 594.384 265.773 594.023 265.773 593.602C265.773 593.182 265.923 592.821 266.224 592.52C266.526 592.219 266.886 592.068 267.307 592.068C267.727 592.068 268.088 592.219 268.389 592.52C268.69 592.821 268.841 593.182 268.841 593.602C268.841 593.881 268.77 594.136 268.628 594.369C268.491 594.602 268.307 594.79 268.074 594.932C267.847 595.068 267.591 595.136 267.307 595.136ZM286.564 577.545V595H284.518L275.007 581.295H274.837V595H272.723V577.545H274.768L284.314 591.284H284.484V577.545H286.564ZM290.793 595V577.545H301.327V579.42H292.907V585.318H300.782V587.193H292.907V593.125H301.464V595H290.793ZM304.183 579.42V577.545H317.273V579.42H311.785V595H309.671V579.42H304.183Z" fill="#FEDD95"/>
</g>
<g id="Group 5">
<rect id="rect-5" x="295.828" y="439.057" width="204.484" height="206.121" transform="rotate(-45.2529 295.828 439.057)" stroke="#FEDD95" stroke-width="4"/>
<path id="text-5" d="M415.159 438H413.045C412.92 437.392 412.702 436.858 412.389 436.398C412.082 435.938 411.707 435.551 411.264 435.239C410.827 434.92 410.341 434.682 409.807 434.523C409.273 434.364 408.716 434.284 408.136 434.284C407.08 434.284 406.122 434.551 405.264 435.085C404.412 435.619 403.733 436.406 403.227 437.446C402.727 438.486 402.477 439.761 402.477 441.273C402.477 442.784 402.727 444.06 403.227 445.099C403.733 446.139 404.412 446.926 405.264 447.46C406.122 447.994 407.08 448.261 408.136 448.261C408.716 448.261 409.273 448.182 409.807 448.023C410.341 447.864 410.827 447.628 411.264 447.315C411.707 446.997 412.082 446.608 412.389 446.148C412.702 445.682 412.92 445.148 413.045 444.545H415.159C415 445.437 414.71 446.236 414.29 446.94C413.869 447.645 413.347 448.244 412.722 448.739C412.097 449.227 411.395 449.599 410.616 449.855C409.844 450.111 409.017 450.239 408.136 450.239C406.648 450.239 405.324 449.875 404.165 449.148C403.006 448.42 402.094 447.386 401.429 446.045C400.764 444.705 400.432 443.114 400.432 441.273C400.432 439.432 400.764 437.841 401.429 436.5C402.094 435.159 403.006 434.125 404.165 433.398C405.324 432.67 406.648 432.307 408.136 432.307C409.017 432.307 409.844 432.435 410.616 432.69C411.395 432.946 412.097 433.321 412.722 433.815C413.347 434.304 413.869 434.901 414.29 435.605C414.71 436.304 415 437.102 415.159 438ZM423.62 450.273C422.438 450.273 421.401 449.991 420.509 449.429C419.623 448.866 418.93 448.08 418.43 447.068C417.935 446.057 417.688 444.875 417.688 443.523C417.688 442.159 417.935 440.969 418.43 439.952C418.93 438.935 419.623 438.145 420.509 437.582C421.401 437.02 422.438 436.739 423.62 436.739C424.802 436.739 425.836 437.02 426.722 437.582C427.614 438.145 428.308 438.935 428.802 439.952C429.302 440.969 429.552 442.159 429.552 443.523C429.552 444.875 429.302 446.057 428.802 447.068C428.308 448.08 427.614 448.866 426.722 449.429C425.836 449.991 424.802 450.273 423.62 450.273ZM423.62 448.466C424.518 448.466 425.256 448.236 425.836 447.776C426.415 447.315 426.844 446.71 427.123 445.96C427.401 445.21 427.54 444.398 427.54 443.523C427.54 442.648 427.401 441.832 427.123 441.077C426.844 440.321 426.415 439.71 425.836 439.244C425.256 438.778 424.518 438.545 423.62 438.545C422.722 438.545 421.984 438.778 421.404 439.244C420.825 439.71 420.396 440.321 420.117 441.077C419.839 441.832 419.7 442.648 419.7 443.523C419.7 444.398 419.839 445.21 420.117 445.96C420.396 446.71 420.825 447.315 421.404 447.776C421.984 448.236 422.722 448.466 423.62 448.466ZM432.895 450V432.545H435.009V448.125H443.122V450H432.895ZM449.974 450.307C449.145 450.307 448.392 450.151 447.716 449.838C447.04 449.52 446.503 449.062 446.105 448.466C445.707 447.864 445.509 447.136 445.509 446.284C445.509 445.534 445.656 444.926 445.952 444.46C446.247 443.989 446.642 443.619 447.136 443.352C447.631 443.085 448.176 442.886 448.773 442.756C449.375 442.619 449.98 442.511 450.588 442.432C451.384 442.33 452.028 442.253 452.523 442.202C453.023 442.145 453.386 442.051 453.614 441.92C453.847 441.79 453.963 441.562 453.963 441.239V441.17C453.963 440.33 453.733 439.676 453.273 439.21C452.818 438.744 452.128 438.511 451.202 438.511C450.241 438.511 449.489 438.722 448.943 439.142C448.398 439.562 448.014 440.011 447.793 440.489L445.884 439.807C446.224 439.011 446.679 438.392 447.247 437.949C447.821 437.5 448.446 437.187 449.122 437.011C449.804 436.83 450.474 436.739 451.134 436.739C451.554 436.739 452.037 436.79 452.582 436.892C453.134 436.989 453.665 437.19 454.176 437.497C454.693 437.804 455.122 438.267 455.463 438.886C455.804 439.506 455.974 440.335 455.974 441.375V450H453.963V448.227H453.861C453.724 448.511 453.497 448.815 453.179 449.139C452.861 449.463 452.438 449.739 451.909 449.966C451.381 450.193 450.736 450.307 449.974 450.307ZM450.281 448.5C451.077 448.5 451.747 448.344 452.293 448.031C452.844 447.719 453.259 447.315 453.537 446.821C453.821 446.327 453.963 445.807 453.963 445.261V443.42C453.878 443.523 453.69 443.616 453.401 443.702C453.116 443.781 452.787 443.852 452.412 443.915C452.043 443.972 451.682 444.023 451.33 444.068C450.983 444.108 450.702 444.142 450.486 444.17C449.963 444.239 449.474 444.349 449.02 444.503C448.571 444.651 448.207 444.875 447.929 445.176C447.656 445.472 447.52 445.875 447.52 446.386C447.52 447.085 447.778 447.614 448.295 447.972C448.818 448.324 449.48 448.5 450.281 448.5ZM461.657 442.125V450H459.646V436.909H461.589V438.955H461.759C462.066 438.29 462.532 437.756 463.157 437.352C463.782 436.943 464.589 436.739 465.577 436.739C466.464 436.739 467.239 436.92 467.904 437.284C468.569 437.642 469.086 438.188 469.455 438.92C469.825 439.648 470.009 440.568 470.009 441.682V450H467.998V441.818C467.998 440.79 467.731 439.989 467.197 439.415C466.663 438.835 465.93 438.545 464.998 438.545C464.356 438.545 463.782 438.685 463.276 438.963C462.776 439.241 462.381 439.648 462.092 440.182C461.802 440.716 461.657 441.364 461.657 442.125ZM478.969 455.182C477.997 455.182 477.162 455.057 476.463 454.807C475.764 454.562 475.182 454.239 474.716 453.835C474.256 453.438 473.889 453.011 473.616 452.557L475.219 451.432C475.401 451.67 475.631 451.943 475.909 452.25C476.188 452.562 476.568 452.832 477.051 453.06C477.54 453.293 478.179 453.409 478.969 453.409C480.026 453.409 480.898 453.153 481.585 452.642C482.273 452.131 482.616 451.33 482.616 450.239V447.58H482.446C482.298 447.818 482.088 448.114 481.815 448.466C481.548 448.812 481.162 449.122 480.656 449.395C480.156 449.662 479.48 449.795 478.628 449.795C477.571 449.795 476.622 449.545 475.781 449.045C474.946 448.545 474.284 447.818 473.795 446.864C473.313 445.909 473.071 444.75 473.071 443.386C473.071 442.045 473.307 440.878 473.778 439.884C474.25 438.884 474.906 438.111 475.747 437.565C476.588 437.014 477.56 436.739 478.662 436.739C479.514 436.739 480.19 436.881 480.69 437.165C481.196 437.443 481.582 437.761 481.849 438.119C482.122 438.472 482.332 438.761 482.48 438.989H482.685V436.909H484.628V450.375C484.628 451.5 484.372 452.415 483.861 453.119C483.355 453.83 482.673 454.349 481.815 454.679C480.963 455.014 480.014 455.182 478.969 455.182ZM478.901 447.989C479.707 447.989 480.389 447.804 480.946 447.435C481.503 447.065 481.926 446.534 482.216 445.841C482.506 445.148 482.651 444.318 482.651 443.352C482.651 442.409 482.509 441.577 482.224 440.855C481.94 440.134 481.52 439.568 480.963 439.159C480.406 438.75 479.719 438.545 478.901 438.545C478.048 438.545 477.338 438.761 476.77 439.193C476.207 439.625 475.784 440.205 475.5 440.932C475.222 441.659 475.082 442.466 475.082 443.352C475.082 444.261 475.224 445.065 475.509 445.764C475.798 446.457 476.224 447.003 476.787 447.401C477.355 447.793 478.06 447.989 478.901 447.989Z" fill="#FEDD95"/>
</g>
<g id="Group 6">
<rect id="rect-6" x="440.828" y="292.057" width="204.484" height="206.121" transform="rotate(-45.2529 440.828 292.057)" stroke="#FEDD95" stroke-width="4"/>
<path id="text-6" d="M561.795 284.545H563.909V297.023C563.909 298.136 563.705 299.082 563.295 299.861C562.886 300.639 562.31 301.23 561.565 301.634C560.821 302.037 559.943 302.239 558.932 302.239C557.977 302.239 557.128 302.065 556.384 301.719C555.639 301.366 555.054 300.866 554.628 300.219C554.202 299.571 553.989 298.801 553.989 297.909H556.068C556.068 298.403 556.19 298.835 556.435 299.205C556.685 299.568 557.026 299.852 557.457 300.057C557.889 300.261 558.381 300.364 558.932 300.364C559.54 300.364 560.057 300.236 560.483 299.98C560.909 299.724 561.233 299.349 561.455 298.855C561.682 298.355 561.795 297.744 561.795 297.023V284.545ZM571.724 302.307C570.895 302.307 570.142 302.151 569.466 301.838C568.79 301.52 568.253 301.062 567.855 300.466C567.457 299.864 567.259 299.136 567.259 298.284C567.259 297.534 567.406 296.926 567.702 296.46C567.997 295.989 568.392 295.619 568.886 295.352C569.381 295.085 569.926 294.886 570.523 294.756C571.125 294.619 571.73 294.511 572.338 294.432C573.134 294.33 573.778 294.253 574.273 294.202C574.773 294.145 575.136 294.051 575.364 293.92C575.597 293.79 575.713 293.562 575.713 293.239V293.17C575.713 292.33 575.483 291.676 575.023 291.21C574.568 290.744 573.878 290.511 572.952 290.511C571.991 290.511 571.239 290.722 570.693 291.142C570.148 291.562 569.764 292.011 569.543 292.489L567.634 291.807C567.974 291.011 568.429 290.392 568.997 289.949C569.571 289.5 570.196 289.187 570.872 289.011C571.554 288.83 572.224 288.739 572.884 288.739C573.304 288.739 573.787 288.79 574.332 288.892C574.884 288.989 575.415 289.19 575.926 289.497C576.443 289.804 576.872 290.267 577.213 290.886C577.554 291.506 577.724 292.335 577.724 293.375V302H575.713V300.227H575.611C575.474 300.511 575.247 300.815 574.929 301.139C574.611 301.463 574.188 301.739 573.659 301.966C573.131 302.193 572.486 302.307 571.724 302.307ZM572.031 300.5C572.827 300.5 573.497 300.344 574.043 300.031C574.594 299.719 575.009 299.315 575.287 298.821C575.571 298.327 575.713 297.807 575.713 297.261V295.42C575.628 295.523 575.44 295.616 575.151 295.702C574.866 295.781 574.537 295.852 574.162 295.915C573.793 295.972 573.432 296.023 573.08 296.068C572.733 296.108 572.452 296.142 572.236 296.17C571.713 296.239 571.224 296.349 570.77 296.503C570.321 296.651 569.957 296.875 569.679 297.176C569.406 297.472 569.27 297.875 569.27 298.386C569.27 299.085 569.528 299.614 570.045 299.972C570.568 300.324 571.23 300.5 572.031 300.5ZM591.631 288.909L586.79 302H584.745L579.904 288.909H582.086L585.7 299.341H585.836L589.45 288.909H591.631ZM597.74 302.307C596.911 302.307 596.158 302.151 595.482 301.838C594.805 301.52 594.268 301.062 593.871 300.466C593.473 299.864 593.274 299.136 593.274 298.284C593.274 297.534 593.422 296.926 593.717 296.46C594.013 295.989 594.408 295.619 594.902 295.352C595.396 295.085 595.942 294.886 596.538 294.756C597.141 294.619 597.746 294.511 598.354 294.432C599.149 294.33 599.794 294.253 600.288 294.202C600.788 294.145 601.152 294.051 601.379 293.92C601.612 293.79 601.729 293.562 601.729 293.239V293.17C601.729 292.33 601.499 291.676 601.038 291.21C600.584 290.744 599.893 290.511 598.967 290.511C598.007 290.511 597.254 290.722 596.709 291.142C596.163 291.562 595.78 292.011 595.558 292.489L593.649 291.807C593.99 291.011 594.445 290.392 595.013 289.949C595.587 289.5 596.212 289.187 596.888 289.011C597.57 288.83 598.24 288.739 598.899 288.739C599.32 288.739 599.803 288.79 600.348 288.892C600.899 288.989 601.43 289.19 601.942 289.497C602.459 289.804 602.888 290.267 603.229 290.886C603.57 291.506 603.74 292.335 603.74 293.375V302H601.729V300.227H601.626C601.49 300.511 601.263 300.815 600.945 301.139C600.626 301.463 600.203 301.739 599.675 301.966C599.146 302.193 598.501 302.307 597.74 302.307ZM598.047 300.5C598.842 300.5 599.513 300.344 600.058 300.031C600.609 299.719 601.024 299.315 601.303 298.821C601.587 298.327 601.729 297.807 601.729 297.261V295.42C601.643 295.523 601.456 295.616 601.166 295.702C600.882 295.781 600.553 295.852 600.178 295.915C599.808 295.972 599.447 296.023 599.095 296.068C598.749 296.108 598.467 296.142 598.251 296.17C597.729 296.239 597.24 296.349 596.786 296.503C596.337 296.651 595.973 296.875 595.695 297.176C595.422 297.472 595.286 297.875 595.286 298.386C595.286 299.085 595.544 299.614 596.061 299.972C596.584 300.324 597.246 300.5 598.047 300.5Z" fill="#FEDD95"/>
</g>
<g id="Group 7">
<rect id="rect-7" x="294.828" y="731.057" width="204.484" height="206.121" transform="rotate(-45.2529 294.828 731.057)" stroke="#FEDD95" stroke-width="4"/>
<path id="text-7" d="M410.159 727H408.045C407.92 726.392 407.702 725.858 407.389 725.398C407.082 724.938 406.707 724.551 406.264 724.239C405.827 723.92 405.341 723.682 404.807 723.523C404.273 723.364 403.716 723.284 403.136 723.284C402.08 723.284 401.122 723.551 400.264 724.085C399.412 724.619 398.733 725.406 398.227 726.446C397.727 727.486 397.477 728.761 397.477 730.273C397.477 731.784 397.727 733.06 398.227 734.099C398.733 735.139 399.412 735.926 400.264 736.46C401.122 736.994 402.08 737.261 403.136 737.261C403.716 737.261 404.273 737.182 404.807 737.023C405.341 736.864 405.827 736.628 406.264 736.315C406.707 735.997 407.082 735.608 407.389 735.148C407.702 734.682 407.92 734.148 408.045 733.545H410.159C410 734.437 409.71 735.236 409.29 735.94C408.869 736.645 408.347 737.244 407.722 737.739C407.097 738.227 406.395 738.599 405.616 738.855C404.844 739.111 404.017 739.239 403.136 739.239C401.648 739.239 400.324 738.875 399.165 738.148C398.006 737.42 397.094 736.386 396.429 735.045C395.764 733.705 395.432 732.114 395.432 730.273C395.432 728.432 395.764 726.841 396.429 725.5C397.094 724.159 398.006 723.125 399.165 722.398C400.324 721.67 401.648 721.307 403.136 721.307C404.017 721.307 404.844 721.435 405.616 721.69C406.395 721.946 407.097 722.321 407.722 722.815C408.347 723.304 408.869 723.901 409.29 724.605C409.71 725.304 410 726.102 410.159 727ZM414.597 743.909C414.256 743.909 413.952 743.881 413.685 743.824C413.418 743.773 413.234 743.722 413.131 743.67L413.643 741.898C414.131 742.023 414.563 742.068 414.938 742.034C415.313 742 415.646 741.832 415.935 741.531C416.231 741.236 416.501 740.756 416.745 740.091L417.12 739.068L412.279 725.909H414.461L418.075 736.341H418.211L421.825 725.909H424.006L418.45 740.909C418.2 741.585 417.89 742.145 417.521 742.588C417.151 743.037 416.722 743.369 416.234 743.585C415.751 743.801 415.205 743.909 414.597 743.909ZM426.661 743.909V725.909H428.604V727.989H428.843C428.991 727.761 429.195 727.472 429.457 727.119C429.724 726.761 430.104 726.443 430.599 726.165C431.099 725.881 431.775 725.739 432.627 725.739C433.729 725.739 434.701 726.014 435.542 726.565C436.383 727.116 437.039 727.898 437.511 728.909C437.982 729.92 438.218 731.114 438.218 732.489C438.218 733.875 437.982 735.077 437.511 736.094C437.039 737.105 436.386 737.889 435.55 738.446C434.715 738.997 433.752 739.273 432.661 739.273C431.82 739.273 431.147 739.134 430.641 738.855C430.136 738.571 429.746 738.25 429.474 737.892C429.201 737.528 428.991 737.227 428.843 736.989H428.673V743.909H426.661ZM428.638 732.455C428.638 733.443 428.783 734.315 429.073 735.071C429.363 735.821 429.786 736.409 430.343 736.835C430.9 737.256 431.582 737.466 432.388 737.466C433.229 737.466 433.931 737.244 434.494 736.801C435.062 736.352 435.488 735.75 435.772 734.994C436.062 734.233 436.207 733.386 436.207 732.455C436.207 731.534 436.065 730.705 435.781 729.966C435.502 729.222 435.079 728.634 434.511 728.202C433.948 727.764 433.241 727.545 432.388 727.545C431.57 727.545 430.883 727.753 430.326 728.168C429.769 728.577 429.349 729.151 429.065 729.889C428.781 730.622 428.638 731.477 428.638 732.455ZM441.286 739V725.909H443.229V727.886H443.366C443.604 727.239 444.036 726.713 444.661 726.31C445.286 725.906 445.991 725.705 446.775 725.705C446.923 725.705 447.107 725.707 447.329 725.713C447.55 725.719 447.718 725.727 447.832 725.739V727.784C447.763 727.767 447.607 727.741 447.363 727.707C447.124 727.668 446.871 727.648 446.604 727.648C445.968 727.648 445.4 727.781 444.9 728.048C444.406 728.31 444.013 728.673 443.724 729.139C443.44 729.599 443.298 730.125 443.298 730.716V739H441.286ZM455.306 739.273C454.045 739.273 452.957 738.994 452.042 738.438C451.133 737.875 450.431 737.091 449.937 736.085C449.448 735.074 449.204 733.898 449.204 732.557C449.204 731.216 449.448 730.034 449.937 729.011C450.431 727.983 451.119 727.182 451.999 726.608C452.886 726.028 453.92 725.739 455.102 725.739C455.783 725.739 456.457 725.852 457.121 726.08C457.786 726.307 458.391 726.676 458.937 727.188C459.482 727.693 459.917 728.364 460.241 729.199C460.565 730.034 460.727 731.062 460.727 732.284V733.136H450.636V731.398H458.681C458.681 730.659 458.533 730 458.238 729.42C457.948 728.841 457.533 728.384 456.994 728.048C456.46 727.713 455.829 727.545 455.102 727.545C454.3 727.545 453.607 727.744 453.022 728.142C452.442 728.534 451.996 729.045 451.684 729.676C451.371 730.307 451.215 730.983 451.215 731.705V732.864C451.215 733.852 451.386 734.69 451.727 735.378C452.073 736.06 452.553 736.58 453.167 736.938C453.781 737.29 454.494 737.466 455.306 737.466C455.835 737.466 456.312 737.392 456.738 737.244C457.17 737.091 457.542 736.864 457.854 736.562C458.167 736.256 458.408 735.875 458.579 735.42L460.522 735.966C460.317 736.625 459.974 737.205 459.491 737.705C459.008 738.199 458.411 738.585 457.701 738.864C456.991 739.136 456.192 739.273 455.306 739.273ZM473.059 728.841L471.252 729.352C471.138 729.051 470.971 728.759 470.749 728.474C470.533 728.185 470.238 727.946 469.863 727.759C469.488 727.571 469.008 727.477 468.423 727.477C467.621 727.477 466.954 727.662 466.42 728.031C465.891 728.395 465.627 728.858 465.627 729.42C465.627 729.92 465.809 730.315 466.173 730.605C466.536 730.895 467.104 731.136 467.877 731.33L469.82 731.807C470.991 732.091 471.863 732.526 472.437 733.111C473.011 733.69 473.298 734.437 473.298 735.352C473.298 736.102 473.082 736.773 472.65 737.364C472.224 737.955 471.627 738.42 470.86 738.761C470.093 739.102 469.201 739.273 468.184 739.273C466.849 739.273 465.744 738.983 464.869 738.403C463.994 737.824 463.44 736.977 463.207 735.864L465.116 735.386C465.298 736.091 465.641 736.619 466.147 736.972C466.658 737.324 467.326 737.5 468.15 737.5C469.087 737.5 469.832 737.301 470.383 736.903C470.94 736.5 471.218 736.017 471.218 735.455C471.218 735 471.059 734.619 470.741 734.312C470.423 734 469.934 733.767 469.275 733.614L467.093 733.102C465.894 732.818 465.013 732.378 464.451 731.781C463.894 731.179 463.616 730.426 463.616 729.523C463.616 728.784 463.823 728.131 464.238 727.562C464.658 726.994 465.229 726.548 465.951 726.224C466.678 725.901 467.502 725.739 468.423 725.739C469.718 725.739 470.735 726.023 471.474 726.591C472.218 727.159 472.746 727.909 473.059 728.841ZM485.598 728.841L483.791 729.352C483.678 729.051 483.51 728.759 483.288 728.474C483.072 728.185 482.777 727.946 482.402 727.759C482.027 727.571 481.547 727.477 480.962 727.477C480.161 727.477 479.493 727.662 478.959 728.031C478.43 728.395 478.166 728.858 478.166 729.42C478.166 729.92 478.348 730.315 478.712 730.605C479.075 730.895 479.643 731.136 480.416 731.33L482.359 731.807C483.53 732.091 484.402 732.526 484.976 733.111C485.55 733.69 485.837 734.437 485.837 735.352C485.837 736.102 485.621 736.773 485.189 737.364C484.763 737.955 484.166 738.42 483.399 738.761C482.632 739.102 481.74 739.273 480.723 739.273C479.388 739.273 478.283 738.983 477.408 738.403C476.533 737.824 475.979 736.977 475.746 735.864L477.655 735.386C477.837 736.091 478.18 736.619 478.686 736.972C479.197 737.324 479.865 737.5 480.689 737.5C481.626 737.5 482.371 737.301 482.922 736.903C483.479 736.5 483.757 736.017 483.757 735.455C483.757 735 483.598 734.619 483.28 734.312C482.962 734 482.473 733.767 481.814 733.614L479.632 733.102C478.433 732.818 477.553 732.378 476.99 731.781C476.433 731.179 476.155 730.426 476.155 729.523C476.155 728.784 476.362 728.131 476.777 727.562C477.197 726.994 477.768 726.548 478.49 726.224C479.217 725.901 480.041 725.739 480.962 725.739C482.257 725.739 483.274 726.023 484.013 726.591C484.757 727.159 485.286 727.909 485.598 728.841Z" fill="#FEDD95"/>
</g>
<g id="Group 8">
<rect id="rect-8" x="440.828" y="583.057" width="204.484" height="206.121" transform="rotate(-45.2529 440.828 583.057)" stroke="#FEDD95" stroke-width="4"/>
<path id="text-8" d="M549.795 578.545H551.909V591.023C551.909 592.136 551.705 593.082 551.295 593.861C550.886 594.639 550.31 595.23 549.565 595.634C548.821 596.037 547.943 596.239 546.932 596.239C545.977 596.239 545.128 596.065 544.384 595.719C543.639 595.366 543.054 594.866 542.628 594.219C542.202 593.571 541.989 592.801 541.989 591.909H544.068C544.068 592.403 544.19 592.835 544.435 593.205C544.685 593.568 545.026 593.852 545.457 594.057C545.889 594.261 546.381 594.364 546.932 594.364C547.54 594.364 548.057 594.236 548.483 593.98C548.909 593.724 549.233 593.349 549.455 592.855C549.682 592.355 549.795 591.744 549.795 591.023V578.545ZM563.372 586.335V588.21H555.736V586.335H563.372ZM567.184 578.545H569.707L575.638 593.034H575.843L581.775 578.545H584.298V596H582.32V582.739H582.15L576.695 596H574.786L569.332 582.739H569.161V596H567.184V578.545ZM593.751 596.273C592.49 596.273 591.402 595.994 590.487 595.438C589.578 594.875 588.876 594.091 588.382 593.085C587.893 592.074 587.649 590.898 587.649 589.557C587.649 588.216 587.893 587.034 588.382 586.011C588.876 584.983 589.564 584.182 590.445 583.608C591.331 583.028 592.365 582.739 593.547 582.739C594.229 582.739 594.902 582.852 595.567 583.08C596.232 583.307 596.837 583.676 597.382 584.188C597.928 584.693 598.362 585.364 598.686 586.199C599.01 587.034 599.172 588.062 599.172 589.284V590.136H589.081V588.398H597.126C597.126 587.659 596.979 587 596.683 586.42C596.393 585.841 595.979 585.384 595.439 585.048C594.905 584.713 594.274 584.545 593.547 584.545C592.746 584.545 592.053 584.744 591.467 585.142C590.888 585.534 590.442 586.045 590.129 586.676C589.817 587.307 589.661 587.983 589.661 588.705V589.864C589.661 590.852 589.831 591.69 590.172 592.378C590.518 593.06 590.999 593.58 591.612 593.938C592.226 594.29 592.939 594.466 593.751 594.466C594.28 594.466 594.757 594.392 595.183 594.244C595.615 594.091 595.987 593.864 596.3 593.562C596.612 593.256 596.854 592.875 597.024 592.42L598.967 592.966C598.763 593.625 598.419 594.205 597.936 594.705C597.453 595.199 596.857 595.585 596.146 595.864C595.436 596.136 594.638 596.273 593.751 596.273ZM607.925 582.909V584.614H601.141V582.909H607.925ZM603.118 579.773H605.129V592.25C605.129 592.818 605.212 593.244 605.376 593.528C605.547 593.807 605.763 593.994 606.024 594.091C606.291 594.182 606.572 594.227 606.868 594.227C607.089 594.227 607.271 594.216 607.413 594.193C607.555 594.165 607.669 594.142 607.754 594.125L608.163 595.932C608.027 595.983 607.837 596.034 607.592 596.085C607.348 596.142 607.038 596.17 606.663 596.17C606.095 596.17 605.538 596.048 604.993 595.804C604.453 595.56 604.004 595.188 603.646 594.688C603.294 594.188 603.118 593.557 603.118 592.795V579.773ZM616.298 596.273C615.037 596.273 613.949 595.994 613.034 595.438C612.125 594.875 611.423 594.091 610.929 593.085C610.44 592.074 610.196 590.898 610.196 589.557C610.196 588.216 610.44 587.034 610.929 586.011C611.423 584.983 612.111 584.182 612.991 583.608C613.878 583.028 614.912 582.739 616.094 582.739C616.776 582.739 617.449 582.852 618.114 583.08C618.778 583.307 619.384 583.676 619.929 584.188C620.474 584.693 620.909 585.364 621.233 586.199C621.557 587.034 621.719 588.062 621.719 589.284V590.136H611.628V588.398H619.673C619.673 587.659 619.526 587 619.23 586.42C618.94 585.841 618.526 585.384 617.986 585.048C617.452 584.713 616.821 584.545 616.094 584.545C615.293 584.545 614.599 584.744 614.014 585.142C613.435 585.534 612.989 586.045 612.676 586.676C612.364 587.307 612.207 587.983 612.207 588.705V589.864C612.207 590.852 612.378 591.69 612.719 592.378C613.065 593.06 613.545 593.58 614.159 593.938C614.773 594.29 615.486 594.466 616.298 594.466C616.827 594.466 617.304 594.392 617.73 594.244C618.162 594.091 618.534 593.864 618.847 593.562C619.159 593.256 619.401 592.875 619.571 592.42L621.514 592.966C621.31 593.625 620.966 594.205 620.483 594.705C620 595.199 619.403 595.585 618.693 595.864C617.983 596.136 617.185 596.273 616.298 596.273ZM624.778 596V582.909H626.722V584.886H626.858C627.097 584.239 627.528 583.713 628.153 583.31C628.778 582.906 629.483 582.705 630.267 582.705C630.415 582.705 630.599 582.707 630.821 582.713C631.043 582.719 631.21 582.727 631.324 582.739V584.784C631.256 584.767 631.099 584.741 630.855 584.707C630.616 584.668 630.364 584.648 630.097 584.648C629.46 584.648 628.892 584.781 628.392 585.048C627.898 585.31 627.506 585.673 627.216 586.139C626.932 586.599 626.79 587.125 626.79 587.716V596H624.778Z" fill="#FEDD95"/>
</g>
<g id="Group 9">
<rect id="rect-9" x="586.828" y="438.057" width="204.484" height="206.121" transform="rotate(-45.2529 586.828 438.057)" stroke="#FEDD95" stroke-width="4"/>
<path id="text-9" d="M698.659 436.909C698.557 436.045 698.142 435.375 697.415 434.898C696.688 434.42 695.795 434.182 694.739 434.182C693.966 434.182 693.29 434.307 692.71 434.557C692.136 434.807 691.688 435.151 691.364 435.588C691.045 436.026 690.886 436.523 690.886 437.08C690.886 437.545 690.997 437.946 691.219 438.281C691.446 438.611 691.736 438.886 692.088 439.108C692.44 439.324 692.81 439.503 693.196 439.645C693.582 439.781 693.938 439.892 694.261 439.977L696.034 440.455C696.489 440.574 696.994 440.739 697.551 440.949C698.114 441.159 698.651 441.446 699.162 441.81C699.679 442.168 700.105 442.628 700.44 443.19C700.776 443.753 700.943 444.443 700.943 445.261C700.943 446.205 700.696 447.057 700.202 447.818C699.713 448.58 698.997 449.185 698.054 449.634C697.116 450.082 695.977 450.307 694.636 450.307C693.386 450.307 692.304 450.105 691.389 449.702C690.48 449.298 689.764 448.736 689.241 448.014C688.724 447.293 688.432 446.455 688.364 445.5H690.545C690.602 446.159 690.824 446.705 691.21 447.136C691.602 447.562 692.097 447.881 692.693 448.091C693.295 448.295 693.943 448.398 694.636 448.398C695.443 448.398 696.168 448.267 696.81 448.006C697.452 447.739 697.96 447.369 698.335 446.898C698.71 446.42 698.898 445.864 698.898 445.227C698.898 444.648 698.736 444.176 698.412 443.812C698.088 443.449 697.662 443.153 697.134 442.926C696.605 442.699 696.034 442.5 695.42 442.33L693.273 441.716C691.909 441.324 690.83 440.764 690.034 440.037C689.239 439.31 688.841 438.358 688.841 437.182C688.841 436.205 689.105 435.352 689.634 434.625C690.168 433.892 690.884 433.324 691.781 432.92C692.685 432.511 693.693 432.307 694.807 432.307C695.932 432.307 696.932 432.509 697.807 432.912C698.682 433.31 699.375 433.855 699.886 434.548C700.403 435.241 700.676 436.028 700.705 436.909H698.659ZM704.146 454.909V436.909H706.089V438.989H706.327C706.475 438.761 706.68 438.472 706.941 438.119C707.208 437.761 707.589 437.443 708.083 437.165C708.583 436.881 709.259 436.739 710.112 436.739C711.214 436.739 712.185 437.014 713.026 437.565C713.867 438.116 714.523 438.898 714.995 439.909C715.467 440.92 715.702 442.114 715.702 443.489C715.702 444.875 715.467 446.077 714.995 447.094C714.523 448.105 713.87 448.889 713.035 449.446C712.2 449.997 711.237 450.273 710.146 450.273C709.305 450.273 708.631 450.134 708.126 449.855C707.62 449.571 707.231 449.25 706.958 448.892C706.685 448.528 706.475 448.227 706.327 447.989H706.157V454.909H704.146ZM706.123 443.455C706.123 444.443 706.268 445.315 706.558 446.071C706.847 446.821 707.271 447.409 707.827 447.835C708.384 448.256 709.066 448.466 709.873 448.466C710.714 448.466 711.415 448.244 711.978 447.801C712.546 447.352 712.972 446.75 713.256 445.994C713.546 445.233 713.691 444.386 713.691 443.455C713.691 442.534 713.549 441.705 713.265 440.966C712.987 440.222 712.563 439.634 711.995 439.202C711.433 438.764 710.725 438.545 709.873 438.545C709.055 438.545 708.367 438.753 707.81 439.168C707.254 439.577 706.833 440.151 706.549 440.889C706.265 441.622 706.123 442.477 706.123 443.455ZM724.259 450.273C722.998 450.273 721.91 449.994 720.995 449.438C720.086 448.875 719.384 448.091 718.89 447.085C718.401 446.074 718.157 444.898 718.157 443.557C718.157 442.216 718.401 441.034 718.89 440.011C719.384 438.983 720.072 438.182 720.952 437.608C721.839 437.028 722.873 436.739 724.055 436.739C724.737 436.739 725.41 436.852 726.075 437.08C726.739 437.307 727.344 437.676 727.89 438.188C728.435 438.693 728.87 439.364 729.194 440.199C729.518 441.034 729.68 442.062 729.68 443.284V444.136H719.589V442.398H727.634C727.634 441.659 727.487 441 727.191 440.42C726.901 439.841 726.487 439.384 725.947 439.048C725.413 438.713 724.782 438.545 724.055 438.545C723.254 438.545 722.56 438.744 721.975 439.142C721.396 439.534 720.95 440.045 720.637 440.676C720.325 441.307 720.168 441.983 720.168 442.705V443.864C720.168 444.852 720.339 445.69 720.68 446.378C721.026 447.06 721.506 447.58 722.12 447.938C722.734 448.29 723.447 448.466 724.259 448.466C724.788 448.466 725.265 448.392 725.691 448.244C726.123 448.091 726.495 447.864 726.808 447.562C727.12 447.256 727.362 446.875 727.532 446.42L729.475 446.966C729.271 447.625 728.927 448.205 728.444 448.705C727.961 449.199 727.364 449.585 726.654 449.864C725.944 450.136 725.146 450.273 724.259 450.273ZM738.058 450.273C736.83 450.273 735.773 449.983 734.887 449.403C734.001 448.824 733.319 448.026 732.842 447.009C732.364 445.991 732.126 444.83 732.126 443.523C732.126 442.193 732.37 441.02 732.859 440.003C733.353 438.98 734.04 438.182 734.921 437.608C735.808 437.028 736.842 436.739 738.023 436.739C738.944 436.739 739.773 436.909 740.512 437.25C741.251 437.591 741.856 438.068 742.327 438.682C742.799 439.295 743.092 440.011 743.205 440.83H741.194C741.04 440.233 740.7 439.705 740.171 439.244C739.648 438.778 738.944 438.545 738.058 438.545C737.273 438.545 736.586 438.75 735.995 439.159C735.41 439.562 734.952 440.134 734.623 440.872C734.299 441.605 734.137 442.466 734.137 443.455C734.137 444.466 734.296 445.347 734.614 446.097C734.938 446.847 735.393 447.429 735.978 447.844C736.569 448.259 737.262 448.466 738.058 448.466C738.58 448.466 739.055 448.375 739.481 448.193C739.907 448.011 740.268 447.75 740.563 447.409C740.859 447.068 741.069 446.659 741.194 446.182H743.205C743.092 446.955 742.81 447.651 742.362 448.27C741.918 448.884 741.33 449.372 740.597 449.736C739.87 450.094 739.023 450.273 738.058 450.273ZM751.975 436.909V438.614H744.918V436.909H751.975ZM747.032 450V435.102C747.032 434.352 747.208 433.727 747.56 433.227C747.913 432.727 748.37 432.352 748.933 432.102C749.495 431.852 750.089 431.727 750.714 431.727C751.208 431.727 751.612 431.767 751.924 431.847C752.237 431.926 752.469 432 752.623 432.068L752.043 433.807C751.941 433.773 751.799 433.73 751.617 433.679C751.441 433.628 751.208 433.602 750.918 433.602C750.254 433.602 749.773 433.77 749.478 434.105C749.188 434.44 749.043 434.932 749.043 435.58V450H747.032ZM756.805 432.545V450H754.794V432.545H756.805ZM765.808 450.273C764.626 450.273 763.589 449.991 762.697 449.429C761.81 448.866 761.117 448.08 760.617 447.068C760.123 446.057 759.876 444.875 759.876 443.523C759.876 442.159 760.123 440.969 760.617 439.952C761.117 438.935 761.81 438.145 762.697 437.582C763.589 437.02 764.626 436.739 765.808 436.739C766.989 436.739 768.023 437.02 768.91 437.582C769.802 438.145 770.495 438.935 770.989 439.952C771.489 440.969 771.739 442.159 771.739 443.523C771.739 444.875 771.489 446.057 770.989 447.068C770.495 448.08 769.802 448.866 768.91 449.429C768.023 449.991 766.989 450.273 765.808 450.273ZM765.808 448.466C766.705 448.466 767.444 448.236 768.023 447.776C768.603 447.315 769.032 446.71 769.31 445.96C769.589 445.21 769.728 444.398 769.728 443.523C769.728 442.648 769.589 441.832 769.31 441.077C769.032 440.321 768.603 439.71 768.023 439.244C767.444 438.778 766.705 438.545 765.808 438.545C764.91 438.545 764.171 438.778 763.592 439.244C763.012 439.71 762.583 440.321 762.305 441.077C762.026 441.832 761.887 442.648 761.887 443.523C761.887 444.398 762.026 445.21 762.305 445.96C762.583 446.71 763.012 447.315 763.592 447.776C764.171 448.236 764.91 448.466 765.808 448.466ZM777.33 450L773.342 436.909H775.455L778.285 446.932H778.421L781.217 436.909H783.364L786.126 446.898H786.262L789.092 436.909H791.205L787.217 450H785.239L782.376 439.943H782.171L779.308 450H777.33Z" fill="#FEDD95"/>
</g>
</g>
<defs>
<clipPath id="clip0_1_2">
<rect width="878" height="879" fill="white"/>
</clipPath>
</defs>
</svg>
