<svg width="878" height="879" viewBox="0 0 878 879" fill="none" xmlns="http://www.w3.org/2000/svg">
<g id="talent-30 1" clip-path="url(#clip0_1_2)">
<g id="Clip path group">
<mask id="mask0_1_2" style="mask-type:luminance" maskUnits="userSpaceOnUse" x="0" y="0" width="878" height="879">
<g id="clip0_1_2">
<path id="Vector" d="M878 0H0V879H878V0Z" fill="white"/>
</g>
</mask>
<g mask="url(#mask0_1_2)">
<g id="main-bg 1">
<path id="Vector_2" d="M512.76 74.0144L439.746 1L366.732 74.0144L439.746 147.029L512.76 74.0144Z" stroke="#9EAA85" stroke-width="0.930255"/>
<path id="Vector_2_2" d="M366.731 220.043L293.717 147.029L220.703 220.043L293.717 293.058L366.731 220.043Z" stroke="#9EAA85" stroke-width="0.930255"/>
<path id="Vector_3" d="M220.702 366.072L147.688 293.058L74.6736 366.072L147.688 439.087L220.702 366.072Z" stroke="#9EAA85" stroke-width="0.930255"/>
<path id="Vector_4" d="M366.731 512.979L293.717 439.965L220.703 512.979L293.717 585.994L366.731 512.979Z" stroke="#9EAA85" stroke-width="0.930255"/>
<path id="Vector_5" d="M513.199 366.511L440.185 293.497L367.171 366.511L440.185 439.526L513.199 366.511Z" stroke="#9EAA85" stroke-width="0.930255"/>
<path id="Vector_6" d="M585.775 147.029L512.761 74.0146L439.747 147.029L512.761 220.043L585.775 147.029Z" stroke="#9EAA85" stroke-width="0.930255"/>
<path id="Vector_7" d="M439.745 293.058L366.731 220.044L293.717 293.058L366.731 366.073L439.745 293.058Z" stroke="#9EAA85" stroke-width="0.930255"/>
<path id="Vector_8" d="M293.716 439.087L220.702 366.073L147.688 439.087L220.702 512.102L293.716 439.087Z" stroke="#9EAA85" stroke-width="0.930255"/>
<path id="Vector_9" d="M439.745 585.993L366.731 512.979L293.717 585.993L366.731 659.008L439.745 585.993Z" stroke="#9EAA85" stroke-width="0.930255"/>
<path id="Vector_10" d="M586.213 439.526L513.199 366.512L440.185 439.526L513.199 512.541L586.213 439.526Z" stroke="#9EAA85" stroke-width="0.930255"/>
<path id="Vector_11" d="M731.804 293.058L658.79 220.044L585.776 293.058L658.79 366.073L731.804 293.058Z" stroke="#9EAA85" stroke-width="0.930255"/>
<path id="Vector_12" d="M658.789 220.043L585.775 147.029L512.761 220.043L585.775 293.058L658.789 220.043Z" stroke="#9EAA85" stroke-width="0.930255"/>
<path id="Vector_13" d="M877.833 439.087L804.819 366.073L731.805 439.087L804.819 512.102L877.833 439.087Z" stroke="#9EAA85" stroke-width="0.930255"/>
<path id="Vector_14" d="M804.819 366.072L731.805 293.058L658.791 366.072L731.805 439.087L804.819 366.072Z" stroke="#9EAA85" stroke-width="0.930255"/>
<path id="Vector_15" d="M731.584 585.336L658.57 512.322L585.556 585.336L658.57 658.351L731.584 585.336Z" stroke="#9EAA85" stroke-width="0.930255"/>
<path id="Vector_16" d="M585.556 731.365L512.542 658.351L439.528 731.365L512.542 804.38L585.556 731.365Z" stroke="#9EAA85" stroke-width="0.930255"/>
<path id="Vector_17" d="M512.76 220.043L439.746 147.029L366.732 220.043L439.746 293.058L512.76 220.043Z" stroke="#9EAA85" stroke-width="0.930255"/>
<path id="Vector_18" d="M366.731 366.072L293.717 293.058L220.703 366.072L293.717 439.087L366.731 366.072Z" stroke="#9EAA85" stroke-width="0.930255"/>
<path id="Vector_19" d="M220.263 512.54L147.249 439.526L74.2346 512.54L147.249 585.555L220.263 512.54Z" stroke="#9EAA85" stroke-width="0.930255"/>
<path id="Vector_20" d="M366.731 659.008L293.717 585.994L220.703 659.008L293.717 732.023L366.731 659.008Z" stroke="#9EAA85" stroke-width="0.930255"/>
<path id="Vector_21" d="M513.199 512.54L440.185 439.526L367.171 512.54L440.185 585.555L513.199 512.54Z" stroke="#9EAA85" stroke-width="0.930255"/>
<path id="Vector_22" d="M658.789 366.072L585.775 293.058L512.761 366.072L585.775 439.087L658.789 366.072Z" stroke="#9EAA85" stroke-width="0.930255"/>
<path id="Vector_23" d="M804.819 512.102L731.805 439.088L658.791 512.102L731.805 585.117L804.819 512.102Z" stroke="#9EAA85" stroke-width="0.930255"/>
<path id="Vector_24" d="M658.571 658.35L585.557 585.336L512.543 658.35L585.557 731.365L658.571 658.35Z" stroke="#9EAA85" stroke-width="0.930255"/>
<path id="Vector_25" d="M512.541 804.38L439.527 731.366L366.513 804.38L439.527 877.395L512.541 804.38Z" stroke="#9EAA85" stroke-width="0.930255"/>
<path id="Vector_26" d="M439.745 147.029L366.731 74.0146L293.717 147.029L366.731 220.043L439.745 147.029Z" stroke="#9EAA85" stroke-width="0.930255"/>
<path id="Vector_27" d="M293.716 293.058L220.702 220.044L147.688 293.058L220.702 366.073L293.716 293.058Z" stroke="#9EAA85" stroke-width="0.930255"/>
<path id="Vector_28" d="M147.249 439.526L74.2344 366.512L1.21997 439.526L74.2344 512.541L147.249 439.526Z" stroke="#9EAA85" stroke-width="0.930255"/>
<path id="Vector_29" d="M293.716 585.994L220.702 512.98L147.688 585.994L220.702 659.009L293.716 585.994Z" stroke="#9EAA85" stroke-width="0.930255"/>
<path id="Vector_30" d="M440.184 439.526L367.17 366.512L294.156 439.526L367.17 512.541L440.184 439.526Z" stroke="#9EAA85" stroke-width="0.930255"/>
<path id="Vector_31" d="M585.775 293.058L512.761 220.044L439.747 293.058L512.761 366.073L585.775 293.058Z" stroke="#9EAA85" stroke-width="0.930255"/>
<path id="Vector_32" d="M731.804 439.087L658.79 366.073L585.776 439.087L658.79 512.102L731.804 439.087Z" stroke="#9EAA85" stroke-width="0.930255"/>
<path id="Vector_33" d="M658.571 512.321L585.557 439.307L512.543 512.321L585.557 585.336L658.571 512.321Z" stroke="#9EAA85" stroke-width="0.930255"/>
<path id="Vector_34" d="M512.322 658.57L439.308 585.556L366.294 658.57L439.308 731.585L512.322 658.57Z" stroke="#9EAA85" stroke-width="0.930255"/>
<path id="Vector_35" d="M585.555 585.336L512.541 512.322L439.527 585.336L512.541 658.351L585.555 585.336Z" stroke="#9EAA85" stroke-width="0.930255"/>
<path id="Vector_36" d="M439.526 731.365L366.512 658.351L293.498 731.365L366.512 804.38L439.526 731.365Z" stroke="#9EAA85" stroke-width="0.930255"/>
<path id="Vector_37" d="M476.363 329.675L440.185 293.497L404.007 329.675L440.185 365.854L476.363 329.675Z" stroke="#9EAA85" stroke-width="0.930255"/>
<path id="Vector_38" d="M476.363 329.675L440.185 293.497L404.007 329.675L440.185 365.854L476.363 329.675Z" stroke="#9EAA85" stroke-width="0.930255"/>
<path id="Vector_39" d="M403.129 402.909L366.951 366.731L330.773 402.909L366.951 439.088L403.129 402.909Z" stroke="#9EAA85" stroke-width="0.930255"/>
<path id="Vector_40" d="M548.939 402.251L512.761 366.073L476.583 402.251L512.761 438.43L548.939 402.251Z" stroke="#9EAA85" stroke-width="0.930255"/>
<path id="Vector_41" d="M476.801 402.47L440.623 366.292L404.445 402.47L440.623 438.649L476.801 402.47Z" stroke="#9EAA85" stroke-width="0.930255"/>
<path id="Vector_42" d="M402.691 475.704L366.513 439.526L330.335 475.704L366.513 511.883L402.691 475.704Z" stroke="#9EAA85" stroke-width="0.930255"/>
<path id="Vector_43" d="M548.939 474.608L512.761 438.43L476.583 474.608L512.761 510.787L548.939 474.608Z" stroke="#9EAA85" stroke-width="0.930255"/>
<path id="Vector_44" d="M512.541 365.854L476.363 329.676L440.185 365.854L476.363 402.033L512.541 365.854Z" stroke="#9EAA85" stroke-width="0.930255"/>
<path id="Vector_45" d="M439.965 439.745L403.787 403.567L367.609 439.745L403.787 475.924L439.965 439.745Z" stroke="#9EAA85" stroke-width="0.930255"/>
<path id="Vector_46" d="M585.117 438.429L548.939 402.251L512.761 438.429L548.939 474.608L585.117 438.429Z" stroke="#9EAA85" stroke-width="0.930255"/>
<path id="Vector_47" d="M475.924 476.143L439.746 439.965L403.568 476.143L439.746 512.322L475.924 476.143Z" stroke="#9EAA85" stroke-width="0.930255"/>
<path id="Vector_48" d="M512.249 512.175L476.071 475.997L439.893 512.175L476.071 548.354L512.249 512.175Z" stroke="#9EAA85" stroke-width="0.930255"/>
<path id="Vector_49" d="M475.046 549.377L438.868 513.199L402.69 549.377L438.868 585.556L475.046 549.377Z" stroke="#9EAA85" stroke-width="0.930255"/>
<path id="Vector_50" d="M439.745 512.321L403.567 476.143L367.389 512.321L403.567 548.5L439.745 512.321Z" stroke="#9EAA85" stroke-width="0.930255"/>
<path id="Vector_51" d="M220.702 659.009C341.798 780.105 538.132 780.105 659.228 659.009C780.324 537.913 780.324 341.579 659.228 220.483C538.132 99.3871 341.798 99.3871 220.702 220.483C99.6061 341.579 99.6061 537.913 220.702 659.009Z" stroke="#9EAA85" stroke-width="0.930255"/>
<path id="Vector_52" d="M439.746 439.964C500.293 500.512 598.461 500.512 659.008 439.964C719.556 379.417 719.556 281.249 659.008 220.702C598.461 160.154 500.293 160.154 439.746 220.702C379.198 281.249 379.198 379.417 439.746 439.964Z" stroke="#9EAA85" stroke-width="0.930255"/>
<path id="Vector_53" d="M220.483 659.227C281.03 719.775 379.198 719.775 439.745 659.227C500.293 598.68 500.293 500.512 439.745 439.965C379.198 379.417 281.03 379.417 220.483 439.965C159.935 500.512 159.935 598.68 220.483 659.227Z" stroke="#9EAA85" stroke-width="0.930255"/>
<path id="Vector_54" d="M439.089 658.569C499.636 719.117 597.804 719.117 658.351 658.569C718.899 598.022 718.899 499.854 658.351 439.307C597.804 378.759 499.636 378.759 439.089 439.307C378.541 499.854 378.541 598.022 439.089 658.569Z" stroke="#9EAA85" stroke-width="0.930255"/>
<path id="Vector_55" d="M220.483 439.964C281.03 500.512 379.198 500.512 439.745 439.964C500.293 379.417 500.293 281.249 439.745 220.702C379.198 160.154 281.03 160.154 220.483 220.702C159.935 281.249 159.935 379.417 220.483 439.964Z" stroke="#9EAA85" stroke-width="0.930255"/>
<path id="green-rectangle-2" d="M440.827 293.998L586.43 437.457L657.536 365.288L511.934 221.829L440.827 293.998Z" stroke="#D0E6A4" stroke-opacity="0.3" stroke-width="4"/>
<path id="green-rectangle-4" d="M221.829 512.475L366.376 656.997L438.01 585.351L293.462 440.829L221.829 512.475Z" stroke="#D0E6A4" stroke-opacity="0.3" stroke-width="4"/>
<path id="green-rectangle-1" d="M366.815 221.777L221.882 365.913L293.324 437.75L438.257 293.614L366.815 221.777Z" stroke="#D0E6A4" stroke-opacity="0.3" stroke-width="4"/>
<path id="green-rectangle-3" d="M585.165 439.829L440.828 584.561L512.566 656.103L656.903 511.37L585.165 439.829Z" stroke="#D0E6A4" stroke-opacity="0.3" stroke-width="4"/>
<g id="Group 1">
<circle id="cycle-1" cx="331" cy="330" r="155" stroke="#FB887B" stroke-width="4"/>
<path id="text-1" d="M253.114 329V311.545H263.648V313.42H255.227V319.318H263.102V321.193H255.227V327.125H263.784V329H253.114ZM269.196 321.125V329H267.185V315.909H269.128V317.955H269.298C269.605 317.29 270.071 316.756 270.696 316.352C271.321 315.943 272.128 315.739 273.116 315.739C274.003 315.739 274.778 315.92 275.443 316.284C276.108 316.642 276.625 317.188 276.994 317.92C277.364 318.648 277.548 319.568 277.548 320.682V329H275.537V320.818C275.537 319.79 275.27 318.989 274.736 318.415C274.202 317.835 273.469 317.545 272.537 317.545C271.895 317.545 271.321 317.685 270.815 317.963C270.315 318.241 269.92 318.648 269.631 319.182C269.341 319.716 269.196 320.364 269.196 321.125ZM286.508 334.182C285.536 334.182 284.701 334.057 284.002 333.807C283.303 333.562 282.721 333.239 282.255 332.835C281.795 332.438 281.428 332.011 281.156 331.557L282.758 330.432C282.94 330.67 283.17 330.943 283.448 331.25C283.727 331.562 284.107 331.832 284.59 332.06C285.079 332.293 285.718 332.409 286.508 332.409C287.565 332.409 288.437 332.153 289.124 331.642C289.812 331.131 290.156 330.33 290.156 329.239V326.58H289.985C289.837 326.818 289.627 327.114 289.354 327.466C289.087 327.812 288.701 328.122 288.195 328.395C287.695 328.662 287.019 328.795 286.167 328.795C285.11 328.795 284.161 328.545 283.32 328.045C282.485 327.545 281.823 326.818 281.335 325.864C280.852 324.909 280.61 323.75 280.61 322.386C280.61 321.045 280.846 319.878 281.317 318.884C281.789 317.884 282.445 317.111 283.286 316.565C284.127 316.014 285.099 315.739 286.201 315.739C287.053 315.739 287.729 315.881 288.229 316.165C288.735 316.443 289.121 316.761 289.388 317.119C289.661 317.472 289.871 317.761 290.019 317.989H290.224V315.909H292.167V329.375C292.167 330.5 291.911 331.415 291.4 332.119C290.894 332.83 290.212 333.349 289.354 333.679C288.502 334.014 287.553 334.182 286.508 334.182ZM286.44 326.989C287.246 326.989 287.928 326.804 288.485 326.435C289.042 326.065 289.465 325.534 289.755 324.841C290.045 324.148 290.19 323.318 290.19 322.352C290.19 321.409 290.048 320.577 289.763 319.855C289.479 319.134 289.059 318.568 288.502 318.159C287.945 317.75 287.258 317.545 286.44 317.545C285.587 317.545 284.877 317.761 284.309 318.193C283.746 318.625 283.323 319.205 283.039 319.932C282.761 320.659 282.621 321.466 282.621 322.352C282.621 323.261 282.763 324.065 283.048 324.764C283.337 325.457 283.763 326.003 284.326 326.401C284.894 326.793 285.599 326.989 286.44 326.989ZM295.849 329V315.909H297.86V329H295.849ZM296.871 313.727C296.479 313.727 296.141 313.594 295.857 313.327C295.579 313.06 295.44 312.739 295.44 312.364C295.44 311.989 295.579 311.668 295.857 311.401C296.141 311.134 296.479 311 296.871 311C297.263 311 297.599 311.134 297.877 311.401C298.161 311.668 298.303 311.989 298.303 312.364C298.303 312.739 298.161 313.06 297.877 313.327C297.599 313.594 297.263 313.727 296.871 313.727ZM303.555 321.125V329H301.544V315.909H303.487V317.955H303.658C303.964 317.29 304.43 316.756 305.055 316.352C305.68 315.943 306.487 315.739 307.476 315.739C308.362 315.739 309.138 315.92 309.803 316.284C310.467 316.642 310.984 317.188 311.354 317.92C311.723 318.648 311.908 319.568 311.908 320.682V329H309.896V320.818C309.896 319.79 309.629 318.989 309.095 318.415C308.561 317.835 307.828 317.545 306.896 317.545C306.254 317.545 305.68 317.685 305.175 317.963C304.675 318.241 304.28 318.648 303.99 319.182C303.7 319.716 303.555 320.364 303.555 321.125ZM321.072 329.273C319.81 329.273 318.722 328.994 317.808 328.438C316.898 327.875 316.197 327.091 315.702 326.085C315.214 325.074 314.969 323.898 314.969 322.557C314.969 321.216 315.214 320.034 315.702 319.011C316.197 317.983 316.884 317.182 317.765 316.608C318.651 316.028 319.685 315.739 320.867 315.739C321.549 315.739 322.222 315.852 322.887 316.08C323.552 316.307 324.157 316.676 324.702 317.188C325.248 317.693 325.683 318.364 326.006 319.199C326.33 320.034 326.492 321.062 326.492 322.284V323.136H316.401V321.398H324.447C324.447 320.659 324.299 320 324.004 319.42C323.714 318.841 323.299 318.384 322.759 318.048C322.225 317.713 321.594 317.545 320.867 317.545C320.066 317.545 319.373 317.744 318.788 318.142C318.208 318.534 317.762 319.045 317.45 319.676C317.137 320.307 316.981 320.983 316.981 321.705V322.864C316.981 323.852 317.151 324.69 317.492 325.378C317.839 326.06 318.319 326.58 318.933 326.938C319.546 327.29 320.259 327.466 321.072 327.466C321.6 327.466 322.077 327.392 322.504 327.244C322.935 327.091 323.308 326.864 323.62 326.562C323.933 326.256 324.174 325.875 324.344 325.42L326.288 325.966C326.083 326.625 325.739 327.205 325.256 327.705C324.773 328.199 324.177 328.585 323.467 328.864C322.756 329.136 321.958 329.273 321.072 329.273ZM335.04 329.273C333.779 329.273 332.691 328.994 331.776 328.438C330.867 327.875 330.165 327.091 329.671 326.085C329.183 325.074 328.938 323.898 328.938 322.557C328.938 321.216 329.183 320.034 329.671 319.011C330.165 317.983 330.853 317.182 331.734 316.608C332.62 316.028 333.654 315.739 334.836 315.739C335.518 315.739 336.191 315.852 336.856 316.08C337.521 316.307 338.126 316.676 338.671 317.188C339.217 317.693 339.651 318.364 339.975 319.199C340.299 320.034 340.461 321.062 340.461 322.284V323.136H330.37V321.398H338.415C338.415 320.659 338.268 320 337.972 319.42C337.683 318.841 337.268 318.384 336.728 318.048C336.194 317.713 335.563 317.545 334.836 317.545C334.035 317.545 333.342 317.744 332.756 318.142C332.177 318.534 331.731 319.045 331.418 319.676C331.106 320.307 330.95 320.983 330.95 321.705V322.864C330.95 323.852 331.12 324.69 331.461 325.378C331.808 326.06 332.288 326.58 332.901 326.938C333.515 327.29 334.228 327.466 335.04 327.466C335.569 327.466 336.046 327.392 336.472 327.244C336.904 327.091 337.276 326.864 337.589 326.562C337.901 326.256 338.143 325.875 338.313 325.42L340.256 325.966C340.052 326.625 339.708 327.205 339.225 327.705C338.742 328.199 338.146 328.585 337.435 328.864C336.725 329.136 335.927 329.273 335.04 329.273ZM343.521 329V315.909H345.464V317.886H345.6C345.839 317.239 346.271 316.713 346.896 316.31C347.521 315.906 348.225 315.705 349.009 315.705C349.157 315.705 349.342 315.707 349.563 315.713C349.785 315.719 349.952 315.727 350.066 315.739V317.784C349.998 317.767 349.842 317.741 349.597 317.707C349.359 317.668 349.106 317.648 348.839 317.648C348.202 317.648 347.634 317.781 347.134 318.048C346.64 318.31 346.248 318.673 345.958 319.139C345.674 319.599 345.532 320.125 345.532 320.716V329H343.521ZM352.45 329V315.909H354.462V329H352.45ZM353.473 313.727C353.081 313.727 352.743 313.594 352.459 313.327C352.18 313.06 352.041 312.739 352.041 312.364C352.041 311.989 352.18 311.668 352.459 311.401C352.743 311.134 353.081 311 353.473 311C353.865 311 354.2 311.134 354.479 311.401C354.763 311.668 354.905 311.989 354.905 312.364C354.905 312.739 354.763 313.06 354.479 313.327C354.2 313.594 353.865 313.727 353.473 313.727ZM360.157 321.125V329H358.146V315.909H360.089V317.955H360.259C360.566 317.29 361.032 316.756 361.657 316.352C362.282 315.943 363.089 315.739 364.077 315.739C364.964 315.739 365.739 315.92 366.404 316.284C367.069 316.642 367.586 317.188 367.955 317.92C368.325 318.648 368.509 319.568 368.509 320.682V329H366.498V320.818C366.498 319.79 366.231 318.989 365.697 318.415C365.163 317.835 364.43 317.545 363.498 317.545C362.856 317.545 362.282 317.685 361.776 317.963C361.276 318.241 360.881 318.648 360.592 319.182C360.302 319.716 360.157 320.364 360.157 321.125ZM377.469 334.182C376.497 334.182 375.662 334.057 374.963 333.807C374.264 333.562 373.682 333.239 373.216 332.835C372.756 332.438 372.389 332.011 372.116 331.557L373.719 330.432C373.901 330.67 374.131 330.943 374.409 331.25C374.688 331.562 375.068 331.832 375.551 332.06C376.04 332.293 376.679 332.409 377.469 332.409C378.526 332.409 379.398 332.153 380.085 331.642C380.773 331.131 381.116 330.33 381.116 329.239V326.58H380.946C380.798 326.818 380.588 327.114 380.315 327.466C380.048 327.812 379.662 328.122 379.156 328.395C378.656 328.662 377.98 328.795 377.128 328.795C376.071 328.795 375.122 328.545 374.281 328.045C373.446 327.545 372.784 326.818 372.295 325.864C371.813 324.909 371.571 323.75 371.571 322.386C371.571 321.045 371.807 319.878 372.278 318.884C372.75 317.884 373.406 317.111 374.247 316.565C375.088 316.014 376.06 315.739 377.162 315.739C378.014 315.739 378.69 315.881 379.19 316.165C379.696 316.443 380.082 316.761 380.349 317.119C380.622 317.472 380.832 317.761 380.98 317.989H381.185V315.909H383.128V329.375C383.128 330.5 382.872 331.415 382.361 332.119C381.855 332.83 381.173 333.349 380.315 333.679C379.463 334.014 378.514 334.182 377.469 334.182ZM377.401 326.989C378.207 326.989 378.889 326.804 379.446 326.435C380.003 326.065 380.426 325.534 380.716 324.841C381.006 324.148 381.151 323.318 381.151 322.352C381.151 321.409 381.009 320.577 380.724 319.855C380.44 319.134 380.02 318.568 379.463 318.159C378.906 317.75 378.219 317.545 377.401 317.545C376.548 317.545 375.838 317.761 375.27 318.193C374.707 318.625 374.284 319.205 374 319.932C373.722 320.659 373.582 321.466 373.582 322.352C373.582 323.261 373.724 324.065 374.009 324.764C374.298 325.457 374.724 326.003 375.287 326.401C375.855 326.793 376.56 326.989 377.401 326.989Z" fill="#FB887B"/>
</g>
<g id="Group 2">
<circle id="cycle-2" cx="549" cy="330" r="155" stroke="#FB887B" stroke-width="4"/>
<path id="text-2" d="M529.159 312H527.045C526.92 311.392 526.702 310.858 526.389 310.398C526.082 309.938 525.707 309.551 525.264 309.239C524.827 308.92 524.341 308.682 523.807 308.523C523.273 308.364 522.716 308.284 522.136 308.284C521.08 308.284 520.122 308.551 519.264 309.085C518.412 309.619 517.733 310.406 517.227 311.446C516.727 312.486 516.477 313.761 516.477 315.273C516.477 316.784 516.727 318.06 517.227 319.099C517.733 320.139 518.412 320.926 519.264 321.46C520.122 321.994 521.08 322.261 522.136 322.261C522.716 322.261 523.273 322.182 523.807 322.023C524.341 321.864 524.827 321.628 525.264 321.315C525.707 320.997 526.082 320.608 526.389 320.148C526.702 319.682 526.92 319.148 527.045 318.545H529.159C529 319.437 528.71 320.236 528.29 320.94C527.869 321.645 527.347 322.244 526.722 322.739C526.097 323.227 525.395 323.599 524.616 323.855C523.844 324.111 523.017 324.239 522.136 324.239C520.648 324.239 519.324 323.875 518.165 323.148C517.006 322.42 516.094 321.386 515.429 320.045C514.764 318.705 514.432 317.114 514.432 315.273C514.432 313.432 514.764 311.841 515.429 310.5C516.094 309.159 517.006 308.125 518.165 307.398C519.324 306.67 520.648 306.307 522.136 306.307C523.017 306.307 523.844 306.435 524.616 306.69C525.395 306.946 526.097 307.321 526.722 307.815C527.347 308.304 527.869 308.901 528.29 309.605C528.71 310.304 529 311.102 529.159 312ZM540.552 318.648V310.909H542.563V324H540.552V321.784H540.415C540.109 322.449 539.631 323.014 538.984 323.48C538.336 323.94 537.518 324.17 536.529 324.17C535.711 324.17 534.984 323.991 534.347 323.634C533.711 323.27 533.211 322.724 532.847 321.997C532.484 321.264 532.302 320.341 532.302 319.227V310.909H534.313V319.091C534.313 320.045 534.58 320.807 535.114 321.375C535.654 321.943 536.342 322.227 537.177 322.227C537.677 322.227 538.185 322.099 538.702 321.844C539.225 321.588 539.663 321.196 540.015 320.668C540.373 320.139 540.552 319.466 540.552 318.648ZM548.259 306.545V324H546.247V306.545H548.259ZM557.636 310.909V312.614H550.852V310.909H557.636ZM552.829 307.773H554.84V320.25C554.84 320.818 554.923 321.244 555.087 321.528C555.258 321.807 555.474 321.994 555.735 322.091C556.002 322.182 556.283 322.227 556.579 322.227C556.8 322.227 556.982 322.216 557.124 322.193C557.266 322.165 557.38 322.142 557.465 322.125L557.874 323.932C557.738 323.983 557.548 324.034 557.303 324.085C557.059 324.142 556.749 324.17 556.374 324.17C555.806 324.17 555.249 324.048 554.704 323.804C554.164 323.56 553.715 323.188 553.357 322.688C553.005 322.188 552.829 321.557 552.829 320.795V307.773ZM568.911 318.648V310.909H570.923V324H568.911V321.784H568.775C568.468 322.449 567.991 323.014 567.343 323.48C566.695 323.94 565.877 324.17 564.888 324.17C564.07 324.17 563.343 323.991 562.707 323.634C562.07 323.27 561.57 322.724 561.207 321.997C560.843 321.264 560.661 320.341 560.661 319.227V310.909H562.673V319.091C562.673 320.045 562.94 320.807 563.474 321.375C564.013 321.943 564.701 322.227 565.536 322.227C566.036 322.227 566.545 322.099 567.062 321.844C567.585 321.588 568.022 321.196 568.374 320.668C568.732 320.139 568.911 319.466 568.911 318.648ZM574.607 324V310.909H576.55V312.886H576.686C576.925 312.239 577.357 311.713 577.982 311.31C578.607 310.906 579.311 310.705 580.095 310.705C580.243 310.705 580.428 310.707 580.649 310.713C580.871 310.719 581.038 310.727 581.152 310.739V312.784C581.084 312.767 580.928 312.741 580.683 312.707C580.445 312.668 580.192 312.648 579.925 312.648C579.288 312.648 578.72 312.781 578.22 313.048C577.726 313.31 577.334 313.673 577.044 314.139C576.76 314.599 576.618 315.125 576.618 315.716V324H574.607ZM588.626 324.273C587.365 324.273 586.277 323.994 585.362 323.438C584.453 322.875 583.751 322.091 583.257 321.085C582.768 320.074 582.524 318.898 582.524 317.557C582.524 316.216 582.768 315.034 583.257 314.011C583.751 312.983 584.439 312.182 585.32 311.608C586.206 311.028 587.24 310.739 588.422 310.739C589.104 310.739 589.777 310.852 590.442 311.08C591.107 311.307 591.712 311.676 592.257 312.188C592.803 312.693 593.237 313.364 593.561 314.199C593.885 315.034 594.047 316.062 594.047 317.284V318.136H583.956V316.398H592.001C592.001 315.659 591.854 315 591.558 314.42C591.268 313.841 590.854 313.384 590.314 313.048C589.78 312.713 589.149 312.545 588.422 312.545C587.621 312.545 586.928 312.744 586.342 313.142C585.763 313.534 585.317 314.045 585.004 314.676C584.692 315.307 584.536 315.983 584.536 316.705V317.864C584.536 318.852 584.706 319.69 585.047 320.378C585.393 321.06 585.874 321.58 586.487 321.938C587.101 322.29 587.814 322.466 588.626 322.466C589.155 322.466 589.632 322.392 590.058 322.244C590.49 322.091 590.862 321.864 591.175 321.562C591.487 321.256 591.729 320.875 591.899 320.42L593.842 320.966C593.638 321.625 593.294 322.205 592.811 322.705C592.328 323.199 591.732 323.585 591.021 323.864C590.311 324.136 589.513 324.273 588.626 324.273Z" fill="#FB887B"/>
</g>
<g id="Group 3">
<circle id="cycle-3" cx="330" cy="549" r="155" stroke="#FB887B" stroke-width="4"/>
<path id="text-3" d="M256.227 555.545V573H254.114V555.545H256.227ZM262.204 565.125V573H260.192V559.909H262.136V561.955H262.306C262.613 561.29 263.079 560.756 263.704 560.352C264.329 559.943 265.136 559.739 266.124 559.739C267.011 559.739 267.786 559.92 268.451 560.284C269.116 560.642 269.633 561.188 270.002 561.92C270.371 562.648 270.556 563.568 270.556 564.682V573H268.545V564.818C268.545 563.79 268.278 562.989 267.744 562.415C267.21 561.835 266.477 561.545 265.545 561.545C264.903 561.545 264.329 561.685 263.823 561.963C263.323 562.241 262.928 562.648 262.638 563.182C262.349 563.716 262.204 564.364 262.204 565.125ZM279.925 559.909V561.614H273.141V559.909H279.925ZM275.118 556.773H277.129V569.25C277.129 569.818 277.212 570.244 277.376 570.528C277.547 570.807 277.763 570.994 278.024 571.091C278.291 571.182 278.572 571.227 278.868 571.227C279.089 571.227 279.271 571.216 279.413 571.193C279.555 571.165 279.669 571.142 279.754 571.125L280.163 572.932C280.027 572.983 279.837 573.034 279.592 573.085C279.348 573.142 279.038 573.17 278.663 573.17C278.095 573.17 277.538 573.048 276.993 572.804C276.453 572.56 276.004 572.188 275.646 571.688C275.294 571.188 275.118 570.557 275.118 569.795V556.773ZM288.298 573.273C287.037 573.273 285.949 572.994 285.034 572.438C284.125 571.875 283.423 571.091 282.929 570.085C282.44 569.074 282.196 567.898 282.196 566.557C282.196 565.216 282.44 564.034 282.929 563.011C283.423 561.983 284.111 561.182 284.991 560.608C285.878 560.028 286.912 559.739 288.094 559.739C288.776 559.739 289.449 559.852 290.114 560.08C290.778 560.307 291.384 560.676 291.929 561.188C292.474 561.693 292.909 562.364 293.233 563.199C293.557 564.034 293.719 565.062 293.719 566.284V567.136H283.628V565.398H291.673C291.673 564.659 291.526 564 291.23 563.42C290.94 562.841 290.526 562.384 289.986 562.048C289.452 561.713 288.821 561.545 288.094 561.545C287.293 561.545 286.599 561.744 286.014 562.142C285.435 562.534 284.989 563.045 284.676 563.676C284.364 564.307 284.207 564.983 284.207 565.705V566.864C284.207 567.852 284.378 568.69 284.719 569.378C285.065 570.06 285.545 570.58 286.159 570.938C286.773 571.29 287.486 571.466 288.298 571.466C288.827 571.466 289.304 571.392 289.73 571.244C290.162 571.091 290.534 570.864 290.847 570.562C291.159 570.256 291.401 569.875 291.571 569.42L293.514 569.966C293.31 570.625 292.966 571.205 292.483 571.705C292 572.199 291.403 572.585 290.693 572.864C289.983 573.136 289.185 573.273 288.298 573.273ZM298.79 555.545V573H296.778V555.545H298.79ZM304.485 555.545V573H302.474V555.545H304.485ZM308.169 573V559.909H310.18V573H308.169ZM309.192 557.727C308.8 557.727 308.462 557.594 308.178 557.327C307.899 557.06 307.76 556.739 307.76 556.364C307.76 555.989 307.899 555.668 308.178 555.401C308.462 555.134 308.8 555 309.192 555C309.584 555 309.919 555.134 310.197 555.401C310.482 555.668 310.624 555.989 310.624 556.364C310.624 556.739 310.482 557.06 310.197 557.327C309.919 557.594 309.584 557.727 309.192 557.727ZM319.148 578.182C318.177 578.182 317.342 578.057 316.643 577.807C315.944 577.562 315.362 577.239 314.896 576.835C314.435 576.438 314.069 576.011 313.796 575.557L315.398 574.432C315.58 574.67 315.81 574.943 316.089 575.25C316.367 575.562 316.748 575.832 317.231 576.06C317.719 576.293 318.359 576.409 319.148 576.409C320.205 576.409 321.077 576.153 321.765 575.642C322.452 575.131 322.796 574.33 322.796 573.239V570.58H322.626C322.478 570.818 322.268 571.114 321.995 571.466C321.728 571.812 321.342 572.122 320.836 572.395C320.336 572.662 319.66 572.795 318.808 572.795C317.751 572.795 316.802 572.545 315.961 572.045C315.126 571.545 314.464 570.818 313.975 569.864C313.492 568.909 313.251 567.75 313.251 566.386C313.251 565.045 313.487 563.878 313.958 562.884C314.43 561.884 315.086 561.111 315.927 560.565C316.768 560.014 317.739 559.739 318.842 559.739C319.694 559.739 320.37 559.881 320.87 560.165C321.376 560.443 321.762 560.761 322.029 561.119C322.302 561.472 322.512 561.761 322.66 561.989H322.864V559.909H324.808V573.375C324.808 574.5 324.552 575.415 324.04 576.119C323.535 576.83 322.853 577.349 321.995 577.679C321.143 578.014 320.194 578.182 319.148 578.182ZM319.08 570.989C319.887 570.989 320.569 570.804 321.126 570.435C321.683 570.065 322.106 569.534 322.396 568.841C322.685 568.148 322.83 567.318 322.83 566.352C322.83 565.409 322.688 564.577 322.404 563.855C322.12 563.134 321.7 562.568 321.143 562.159C320.586 561.75 319.898 561.545 319.08 561.545C318.228 561.545 317.518 561.761 316.95 562.193C316.387 562.625 315.964 563.205 315.68 563.932C315.401 564.659 315.262 565.466 315.262 566.352C315.262 567.261 315.404 568.065 315.688 568.764C315.978 569.457 316.404 570.003 316.967 570.401C317.535 570.793 318.239 570.989 319.08 570.989ZM333.978 573.273C332.717 573.273 331.629 572.994 330.714 572.438C329.805 571.875 329.103 571.091 328.609 570.085C328.12 569.074 327.876 567.898 327.876 566.557C327.876 565.216 328.12 564.034 328.609 563.011C329.103 561.983 329.79 561.182 330.671 560.608C331.558 560.028 332.592 559.739 333.773 559.739C334.455 559.739 335.129 559.852 335.793 560.08C336.458 560.307 337.063 560.676 337.609 561.188C338.154 561.693 338.589 562.364 338.913 563.199C339.237 564.034 339.398 565.062 339.398 566.284V567.136H329.308V565.398H337.353C337.353 564.659 337.205 564 336.91 563.42C336.62 562.841 336.205 562.384 335.665 562.048C335.131 561.713 334.501 561.545 333.773 561.545C332.972 561.545 332.279 561.744 331.694 562.142C331.114 562.534 330.668 563.045 330.356 563.676C330.043 564.307 329.887 564.983 329.887 565.705V566.864C329.887 567.852 330.058 568.69 330.398 569.378C330.745 570.06 331.225 570.58 331.839 570.938C332.452 571.29 333.165 571.466 333.978 571.466C334.506 571.466 334.984 571.392 335.41 571.244C335.842 571.091 336.214 570.864 336.526 570.562C336.839 570.256 337.08 569.875 337.251 569.42L339.194 569.966C338.989 570.625 338.646 571.205 338.163 571.705C337.68 572.199 337.083 572.585 336.373 572.864C335.663 573.136 334.864 573.273 333.978 573.273ZM344.469 565.125V573H342.458V559.909H344.401V561.955H344.572C344.879 561.29 345.344 560.756 345.969 560.352C346.594 559.943 347.401 559.739 348.39 559.739C349.276 559.739 350.052 559.92 350.717 560.284C351.381 560.642 351.898 561.188 352.268 561.92C352.637 562.648 352.822 563.568 352.822 564.682V573H350.81V564.818C350.81 563.79 350.543 562.989 350.009 562.415C349.475 561.835 348.742 561.545 347.81 561.545C347.168 561.545 346.594 561.685 346.089 561.963C345.589 562.241 345.194 562.648 344.904 563.182C344.614 563.716 344.469 564.364 344.469 565.125ZM361.815 573.273C360.588 573.273 359.531 572.983 358.645 572.403C357.759 571.824 357.077 571.026 356.599 570.009C356.122 568.991 355.884 567.83 355.884 566.523C355.884 565.193 356.128 564.02 356.616 563.003C357.111 561.98 357.798 561.182 358.679 560.608C359.565 560.028 360.599 559.739 361.781 559.739C362.702 559.739 363.531 559.909 364.27 560.25C365.009 560.591 365.614 561.068 366.085 561.682C366.557 562.295 366.849 563.011 366.963 563.83H364.952C364.798 563.233 364.457 562.705 363.929 562.244C363.406 561.778 362.702 561.545 361.815 561.545C361.031 561.545 360.344 561.75 359.753 562.159C359.168 562.562 358.71 563.134 358.381 563.872C358.057 564.605 357.895 565.466 357.895 566.455C357.895 567.466 358.054 568.347 358.372 569.097C358.696 569.847 359.151 570.429 359.736 570.844C360.327 571.259 361.02 571.466 361.815 571.466C362.338 571.466 362.812 571.375 363.239 571.193C363.665 571.011 364.026 570.75 364.321 570.409C364.616 570.068 364.827 569.659 364.952 569.182H366.963C366.849 569.955 366.568 570.651 366.119 571.27C365.676 571.884 365.088 572.372 364.355 572.736C363.628 573.094 362.781 573.273 361.815 573.273ZM375.392 573.273C374.131 573.273 373.043 572.994 372.128 572.438C371.219 571.875 370.517 571.091 370.023 570.085C369.534 569.074 369.29 567.898 369.29 566.557C369.29 565.216 369.534 564.034 370.023 563.011C370.517 561.983 371.205 561.182 372.085 560.608C372.972 560.028 374.006 559.739 375.188 559.739C375.869 559.739 376.543 559.852 377.207 560.08C377.872 560.307 378.477 560.676 379.023 561.188C379.568 561.693 380.003 562.364 380.327 563.199C380.651 564.034 380.812 565.062 380.812 566.284V567.136H370.722V565.398H378.767C378.767 564.659 378.619 564 378.324 563.42C378.034 562.841 377.619 562.384 377.08 562.048C376.545 561.713 375.915 561.545 375.188 561.545C374.386 561.545 373.693 561.744 373.108 562.142C372.528 562.534 372.082 563.045 371.77 563.676C371.457 564.307 371.301 564.983 371.301 565.705V566.864C371.301 567.852 371.472 568.69 371.812 569.378C372.159 570.06 372.639 570.58 373.253 570.938C373.866 571.29 374.58 571.466 375.392 571.466C375.92 571.466 376.398 571.392 376.824 571.244C377.256 571.091 377.628 570.864 377.94 570.562C378.253 570.256 378.494 569.875 378.665 569.42L380.608 569.966C380.403 570.625 380.06 571.205 379.577 571.705C379.094 572.199 378.497 572.585 377.787 572.864C377.077 573.136 376.278 573.273 375.392 573.273Z" fill="#FB887B"/>
</g>
<g id="Group 4">
<circle id="cycle-4" cx="549" cy="549" r="155" stroke="#FB887B" stroke-width="4"/>
<path id="text-4" d="M510.159 559H508.045C507.92 558.392 507.702 557.858 507.389 557.398C507.082 556.938 506.707 556.551 506.264 556.239C505.827 555.92 505.341 555.682 504.807 555.523C504.273 555.364 503.716 555.284 503.136 555.284C502.08 555.284 501.122 555.551 500.264 556.085C499.412 556.619 498.733 557.406 498.227 558.446C497.727 559.486 497.477 560.761 497.477 562.273C497.477 563.784 497.727 565.06 498.227 566.099C498.733 567.139 499.412 567.926 500.264 568.46C501.122 568.994 502.08 569.261 503.136 569.261C503.716 569.261 504.273 569.182 504.807 569.023C505.341 568.864 505.827 568.628 506.264 568.315C506.707 567.997 507.082 567.608 507.389 567.148C507.702 566.682 507.92 566.148 508.045 565.545H510.159C510 566.437 509.71 567.236 509.29 567.94C508.869 568.645 508.347 569.244 507.722 569.739C507.097 570.227 506.395 570.599 505.616 570.855C504.844 571.111 504.017 571.239 503.136 571.239C501.648 571.239 500.324 570.875 499.165 570.148C498.006 569.42 497.094 568.386 496.429 567.045C495.764 565.705 495.432 564.114 495.432 562.273C495.432 560.432 495.764 558.841 496.429 557.5C497.094 556.159 498.006 555.125 499.165 554.398C500.324 553.67 501.648 553.307 503.136 553.307C504.017 553.307 504.844 553.435 505.616 553.69C506.395 553.946 507.097 554.321 507.722 554.815C508.347 555.304 508.869 555.901 509.29 556.605C509.71 557.304 510 558.102 510.159 559ZM518.62 571.273C517.438 571.273 516.401 570.991 515.509 570.429C514.623 569.866 513.93 569.08 513.43 568.068C512.935 567.057 512.688 565.875 512.688 564.523C512.688 563.159 512.935 561.969 513.43 560.952C513.93 559.935 514.623 559.145 515.509 558.582C516.401 558.02 517.438 557.739 518.62 557.739C519.802 557.739 520.836 558.02 521.722 558.582C522.614 559.145 523.308 559.935 523.802 560.952C524.302 561.969 524.552 563.159 524.552 564.523C524.552 565.875 524.302 567.057 523.802 568.068C523.308 569.08 522.614 569.866 521.722 570.429C520.836 570.991 519.802 571.273 518.62 571.273ZM518.62 569.466C519.518 569.466 520.256 569.236 520.836 568.776C521.415 568.315 521.844 567.71 522.123 566.96C522.401 566.21 522.54 565.398 522.54 564.523C522.54 563.648 522.401 562.832 522.123 562.077C521.844 561.321 521.415 560.71 520.836 560.244C520.256 559.778 519.518 559.545 518.62 559.545C517.722 559.545 516.984 559.778 516.404 560.244C515.825 560.71 515.396 561.321 515.117 562.077C514.839 562.832 514.7 563.648 514.7 564.523C514.7 565.398 514.839 566.21 515.117 566.96C515.396 567.71 515.825 568.315 516.404 568.776C516.984 569.236 517.722 569.466 518.62 569.466ZM529.634 563.125V571H527.622V557.909H529.565V559.955H529.736C530.043 559.29 530.509 558.756 531.134 558.352C531.759 557.943 532.565 557.739 533.554 557.739C534.44 557.739 535.216 557.92 535.881 558.284C536.545 558.642 537.063 559.188 537.432 559.92C537.801 560.648 537.986 561.568 537.986 562.682V571H535.974V562.818C535.974 561.79 535.707 560.989 535.173 560.415C534.639 559.835 533.906 559.545 532.974 559.545C532.332 559.545 531.759 559.685 531.253 559.963C530.753 560.241 530.358 560.648 530.068 561.182C529.778 561.716 529.634 562.364 529.634 563.125ZM550.934 560.841L549.127 561.352C549.013 561.051 548.846 560.759 548.624 560.474C548.408 560.185 548.113 559.946 547.738 559.759C547.363 559.571 546.883 559.477 546.298 559.477C545.496 559.477 544.829 559.662 544.295 560.031C543.766 560.395 543.502 560.858 543.502 561.42C543.502 561.92 543.684 562.315 544.048 562.605C544.411 562.895 544.979 563.136 545.752 563.33L547.695 563.807C548.866 564.091 549.738 564.526 550.312 565.111C550.886 565.69 551.173 566.437 551.173 567.352C551.173 568.102 550.957 568.773 550.525 569.364C550.099 569.955 549.502 570.42 548.735 570.761C547.968 571.102 547.076 571.273 546.059 571.273C544.724 571.273 543.619 570.983 542.744 570.403C541.869 569.824 541.315 568.977 541.082 567.864L542.991 567.386C543.173 568.091 543.516 568.619 544.022 568.972C544.533 569.324 545.201 569.5 546.025 569.5C546.962 569.5 547.707 569.301 548.258 568.903C548.815 568.5 549.093 568.017 549.093 567.455C549.093 567 548.934 566.619 548.616 566.312C548.298 566 547.809 565.767 547.15 565.614L544.968 565.102C543.769 564.818 542.888 564.378 542.326 563.781C541.769 563.179 541.491 562.426 541.491 561.523C541.491 560.784 541.698 560.131 542.113 559.562C542.533 558.994 543.104 558.548 543.826 558.224C544.553 557.901 545.377 557.739 546.298 557.739C547.593 557.739 548.61 558.023 549.349 558.591C550.093 559.159 550.621 559.909 550.934 560.841ZM562.45 565.648V557.909H564.462V571H562.45V568.784H562.314C562.007 569.449 561.53 570.014 560.882 570.48C560.234 570.94 559.416 571.17 558.428 571.17C557.609 571.17 556.882 570.991 556.246 570.634C555.609 570.27 555.109 569.724 554.746 568.997C554.382 568.264 554.2 567.341 554.2 566.227V557.909H556.212V566.091C556.212 567.045 556.479 567.807 557.013 568.375C557.553 568.943 558.24 569.227 559.075 569.227C559.575 569.227 560.084 569.099 560.601 568.844C561.124 568.588 561.561 568.196 561.913 567.668C562.271 567.139 562.45 566.466 562.45 565.648ZM570.157 553.545V571H568.146V553.545H570.157ZM579.534 557.909V559.614H572.75V557.909H579.534ZM574.727 554.773H576.739V567.25C576.739 567.818 576.821 568.244 576.986 568.528C577.156 568.807 577.372 568.994 577.634 569.091C577.901 569.182 578.182 569.227 578.477 569.227C578.699 569.227 578.881 569.216 579.023 569.193C579.165 569.165 579.278 569.142 579.364 569.125L579.773 570.932C579.636 570.983 579.446 571.034 579.202 571.085C578.957 571.142 578.648 571.17 578.273 571.17C577.705 571.17 577.148 571.048 576.602 570.804C576.063 570.56 575.614 570.188 575.256 569.688C574.903 569.188 574.727 568.557 574.727 567.795V554.773ZM582.56 571V557.909H584.571V571H582.56ZM583.582 555.727C583.19 555.727 582.852 555.594 582.568 555.327C582.29 555.06 582.151 554.739 582.151 554.364C582.151 553.989 582.29 553.668 582.568 553.401C582.852 553.134 583.19 553 583.582 553C583.974 553 584.31 553.134 584.588 553.401C584.872 553.668 585.014 553.989 585.014 554.364C585.014 554.739 584.872 555.06 584.588 555.327C584.31 555.594 583.974 555.727 583.582 555.727ZM590.266 563.125V571H588.255V557.909H590.198V559.955H590.369C590.675 559.29 591.141 558.756 591.766 558.352C592.391 557.943 593.198 557.739 594.187 557.739C595.073 557.739 595.849 557.92 596.513 558.284C597.178 558.642 597.695 559.188 598.065 559.92C598.434 560.648 598.619 561.568 598.619 562.682V571H596.607V562.818C596.607 561.79 596.34 560.989 595.806 560.415C595.272 559.835 594.539 559.545 593.607 559.545C592.965 559.545 592.391 559.685 591.886 559.963C591.386 560.241 590.991 560.648 590.701 561.182C590.411 561.716 590.266 562.364 590.266 563.125ZM607.578 576.182C606.607 576.182 605.771 576.057 605.072 575.807C604.374 575.562 603.791 575.239 603.325 574.835C602.865 574.438 602.499 574.011 602.226 573.557L603.828 572.432C604.01 572.67 604.24 572.943 604.518 573.25C604.797 573.562 605.178 573.832 605.661 574.06C606.149 574.293 606.788 574.409 607.578 574.409C608.635 574.409 609.507 574.153 610.195 573.642C610.882 573.131 611.226 572.33 611.226 571.239V568.58H611.055C610.908 568.818 610.697 569.114 610.425 569.466C610.158 569.812 609.771 570.122 609.266 570.395C608.766 570.662 608.089 570.795 607.237 570.795C606.18 570.795 605.232 570.545 604.391 570.045C603.555 569.545 602.893 568.818 602.405 567.864C601.922 566.909 601.68 565.75 601.68 564.386C601.68 563.045 601.916 561.878 602.388 560.884C602.859 559.884 603.516 559.111 604.357 558.565C605.197 558.014 606.169 557.739 607.271 557.739C608.124 557.739 608.8 557.881 609.3 558.165C609.805 558.443 610.192 558.761 610.459 559.119C610.732 559.472 610.942 559.761 611.089 559.989H611.294V557.909H613.237V571.375C613.237 572.5 612.982 573.415 612.47 574.119C611.964 574.83 611.283 575.349 610.425 575.679C609.572 576.014 608.624 576.182 607.578 576.182ZM607.51 568.989C608.317 568.989 608.999 568.804 609.555 568.435C610.112 568.065 610.536 567.534 610.825 566.841C611.115 566.148 611.26 565.318 611.26 564.352C611.26 563.409 611.118 562.577 610.834 561.855C610.55 561.134 610.129 560.568 609.572 560.159C609.016 559.75 608.328 559.545 607.51 559.545C606.658 559.545 605.947 559.761 605.379 560.193C604.817 560.625 604.393 561.205 604.109 561.932C603.831 562.659 603.692 563.466 603.692 564.352C603.692 565.261 603.834 566.065 604.118 566.764C604.408 567.457 604.834 568.003 605.396 568.401C605.964 568.793 606.669 568.989 607.51 568.989Z" fill="#FB887B"/>
</g>
</g>
</g>
</g>
</g>
<defs>
<clipPath id="clip0_1_2">
<rect width="878" height="879" fill="white"/>
</clipPath>
</defs>
</svg>
