  <svg
    xmlns="http://www.w3.org/2000/svg"
    width="800"
    height="800"
    fill="none"
    viewBox="0 0 878 879"
  >
    <g clipPath="url(#clip0_1_2)">
      <g>
        <mask
          id="mask0_1_2"
          width="878"
          height="879"
          x="0"
          y="0"
          maskUnits="userSpaceOnUse"
        >
          <g id="clip0_1_2">
            <path fill="#fff" d="M878 0H0v879h878V0z"></path>
          </g>
        </mask>
        <g mask="url(#mask0_1_2)">
          <g>
            <path
              stroke="#9EAA85"
              strokeWidth="0.93"
              d="M512.76 74.014L439.746 1l-73.014 73.014 73.014 73.015 73.014-73.015z"
            ></path>
            <path
              stroke="#9EAA85"
              strokeWidth="0.93"
              d="M366.731 220.043l-73.014-73.014-73.014 73.014 73.014 73.015 73.014-73.015z"
            ></path>
            <path
              stroke="#9EAA85"
              strokeWidth="0.93"
              d="M220.702 366.072l-73.014-73.014-73.014 73.014 73.014 73.015 73.014-73.015z"
            ></path>
            <path
              stroke="#9EAA85"
              strokeWidth="0.93"
              d="M366.731 512.979l-73.014-73.014-73.014 73.014 73.014 73.015 73.014-73.015z"
            ></path>
            <path
              stroke="#9EAA85"
              strokeWidth="0.93"
              d="M513.199 366.511l-73.014-73.014-73.014 73.014 73.014 73.015 73.014-73.015z"
            ></path>
            <path
              stroke="#9EAA85"
              strokeWidth="0.93"
              d="M585.775 147.029l-73.014-73.014-73.014 73.014 73.014 73.014 73.014-73.014z"
            ></path>
            <path
              stroke="#9EAA85"
              strokeWidth="0.93"
              d="M439.745 293.058l-73.014-73.014-73.014 73.014 73.014 73.015 73.014-73.015z"
            ></path>
            <path
              stroke="#9EAA85"
              strokeWidth="0.93"
              d="M293.716 439.087l-73.014-73.014-73.014 73.014 73.014 73.015 73.014-73.015z"
            ></path>
            <path
              stroke="#9EAA85"
              strokeWidth="0.93"
              d="M439.745 585.993l-73.014-73.014-73.014 73.014 73.014 73.015 73.014-73.015z"
            ></path>
            <path
              stroke="#9EAA85"
              strokeWidth="0.93"
              d="M586.213 439.526l-73.014-73.014-73.014 73.014 73.014 73.015 73.014-73.015z"
            ></path>
            <path
              stroke="#9EAA85"
              strokeWidth="0.93"
              d="M731.804 293.058l-73.014-73.014-73.014 73.014 73.014 73.015 73.014-73.015z"
            ></path>
            <path
              stroke="#9EAA85"
              strokeWidth="0.93"
              d="M658.789 220.043l-73.014-73.014-73.014 73.014 73.014 73.015 73.014-73.015z"
            ></path>
            <path
              stroke="#9EAA85"
              strokeWidth="0.93"
              d="M877.833 439.087l-73.014-73.014-73.014 73.014 73.014 73.015 73.014-73.015z"
            ></path>
            <path
              stroke="#9EAA85"
              strokeWidth="0.93"
              d="M804.819 366.072l-73.014-73.014-73.014 73.014 73.014 73.015 73.014-73.015z"
            ></path>
            <path
              stroke="#9EAA85"
              strokeWidth="0.93"
              d="M731.584 585.336l-73.014-73.014-73.014 73.014 73.014 73.015 73.014-73.015z"
            ></path>
            <path
              stroke="#9EAA85"
              strokeWidth="0.93"
              d="M585.556 731.365l-73.014-73.014-73.014 73.014 73.014 73.015 73.014-73.015z"
            ></path>
            <path
              stroke="#9EAA85"
              strokeWidth="0.93"
              d="M512.76 220.043l-73.014-73.014-73.014 73.014 73.014 73.015 73.014-73.015z"
            ></path>
            <path
              stroke="#9EAA85"
              strokeWidth="0.93"
              d="M366.731 366.072l-73.014-73.014-73.014 73.014 73.014 73.015 73.014-73.015z"
            ></path>
            <path
              stroke="#9EAA85"
              strokeWidth="0.93"
              d="M220.263 512.54l-73.014-73.014-73.014 73.014 73.014 73.015 73.014-73.015z"
            ></path>
            <path
              stroke="#9EAA85"
              strokeWidth="0.93"
              d="M366.731 659.008l-73.014-73.014-73.014 73.014 73.014 73.015 73.014-73.015z"
            ></path>
            <path
              stroke="#9EAA85"
              strokeWidth="0.93"
              d="M513.199 512.54l-73.014-73.014-73.014 73.014 73.014 73.015 73.014-73.015z"
            ></path>
            <path
              stroke="#9EAA85"
              strokeWidth="0.93"
              d="M658.789 366.072l-73.014-73.014-73.014 73.014 73.014 73.015 73.014-73.015z"
            ></path>
            <path
              stroke="#9EAA85"
              strokeWidth="0.93"
              d="M804.819 512.102l-73.014-73.014-73.014 73.014 73.014 73.015 73.014-73.015z"
            ></path>
            <path
              stroke="#9EAA85"
              strokeWidth="0.93"
              d="M658.571 658.35l-73.014-73.014-73.014 73.014 73.014 73.015 73.014-73.015z"
            ></path>
            <path
              stroke="#9EAA85"
              strokeWidth="0.93"
              d="M512.541 804.38l-73.014-73.014-73.014 73.014 73.014 73.015 73.014-73.015z"
            ></path>
            <path
              stroke="#9EAA85"
              strokeWidth="0.93"
              d="M439.745 147.029l-73.014-73.014-73.014 73.014 73.014 73.014 73.014-73.014z"
            ></path>
            <path
              stroke="#9EAA85"
              strokeWidth="0.93"
              d="M293.716 293.058l-73.014-73.014-73.014 73.014 73.014 73.015 73.014-73.015z"
            ></path>
            <path
              stroke="#9EAA85"
              strokeWidth="0.93"
              d="M147.249 439.526l-73.015-73.014L1.22 439.526l73.014 73.015 73.015-73.015z"
            ></path>
            <path
              stroke="#9EAA85"
              strokeWidth="0.93"
              d="M293.716 585.994l-73.014-73.014-73.014 73.014 73.014 73.015 73.014-73.015z"
            ></path>
            <path
              stroke="#9EAA85"
              strokeWidth="0.93"
              d="M440.184 439.526l-73.014-73.014-73.014 73.014 73.014 73.015 73.014-73.015z"
            ></path>
            <path
              stroke="#9EAA85"
              strokeWidth="0.93"
              d="M585.775 293.058l-73.014-73.014-73.014 73.014 73.014 73.015 73.014-73.015z"
            ></path>
            <path
              stroke="#9EAA85"
              strokeWidth="0.93"
              d="M731.804 439.087l-73.014-73.014-73.014 73.014 73.014 73.015 73.014-73.015z"
            ></path>
            <path
              stroke="#9EAA85"
              strokeWidth="0.93"
              d="M658.571 512.321l-73.014-73.014-73.014 73.014 73.014 73.015 73.014-73.015z"
            ></path>
            <path
              stroke="#9EAA85"
              strokeWidth="0.93"
              d="M512.322 658.57l-73.014-73.014-73.014 73.014 73.014 73.015 73.014-73.015z"
            ></path>
            <path
              stroke="#9EAA85"
              strokeWidth="0.93"
              d="M585.555 585.336l-73.014-73.014-73.014 73.014 73.014 73.015 73.014-73.015z"
            ></path>
            <path
              stroke="#9EAA85"
              strokeWidth="0.93"
              d="M439.526 731.365l-73.014-73.014-73.014 73.014 73.014 73.015 73.014-73.015z"
            ></path>
            <path
              stroke="#9EAA85"
              strokeWidth="0.93"
              d="M476.363 329.675l-36.178-36.178-36.178 36.178 36.178 36.179 36.178-36.179z"
            ></path>
            <path
              stroke="#9EAA85"
              strokeWidth="0.93"
              d="M476.363 329.675l-36.178-36.178-36.178 36.178 36.178 36.179 36.178-36.179z"
            ></path>
            <path
              stroke="#9EAA85"
              strokeWidth="0.93"
              d="M403.129 402.909l-36.178-36.178-36.178 36.178 36.178 36.179 36.178-36.179z"
            ></path>
            <path
              stroke="#9EAA85"
              strokeWidth="0.93"
              d="M548.939 402.251l-36.178-36.178-36.178 36.178 36.178 36.179 36.178-36.179z"
            ></path>
            <path
              stroke="#9EAA85"
              strokeWidth="0.93"
              d="M476.801 402.47l-36.178-36.178-36.178 36.178 36.178 36.179 36.178-36.179z"
            ></path>
            <path
              stroke="#9EAA85"
              strokeWidth="0.93"
              d="M402.691 475.704l-36.178-36.178-36.178 36.178 36.178 36.179 36.178-36.179z"
            ></path>
            <path
              stroke="#9EAA85"
              strokeWidth="0.93"
              d="M548.939 474.608l-36.178-36.178-36.178 36.178 36.178 36.179 36.178-36.179z"
            ></path>
            <path
              stroke="#9EAA85"
              strokeWidth="0.93"
              d="M512.541 365.854l-36.178-36.178-36.178 36.178 36.178 36.179 36.178-36.179z"
            ></path>
            <path
              stroke="#9EAA85"
              strokeWidth="0.93"
              d="M439.965 439.745l-36.178-36.178-36.178 36.178 36.178 36.179 36.178-36.179z"
            ></path>
            <path
              stroke="#9EAA85"
              strokeWidth="0.93"
              d="M585.117 438.429l-36.178-36.178-36.178 36.178 36.178 36.179 36.178-36.179z"
            ></path>
            <path
              stroke="#9EAA85"
              strokeWidth="0.93"
              d="M475.924 476.143l-36.178-36.178-36.178 36.178 36.178 36.179 36.178-36.179z"
            ></path>
            <path
              stroke="#9EAA85"
              strokeWidth="0.93"
              d="M512.249 512.175l-36.178-36.178-36.178 36.178 36.178 36.179 36.178-36.179z"
            ></path>
            <path
              stroke="#9EAA85"
              strokeWidth="0.93"
              d="M475.046 549.377l-36.178-36.178-36.178 36.178 36.178 36.179 36.178-36.179z"
            ></path>
            <path
              stroke="#9EAA85"
              strokeWidth="0.93"
              d="M439.745 512.321l-36.178-36.178-36.178 36.178 36.178 36.179 36.178-36.179z"
            ></path>
            <path
              stroke="#9EAA85"
              strokeWidth="0.93"
              d="M220.702 659.009c121.096 121.096 317.43 121.096 438.526 0s121.096-317.43 0-438.526-317.43-121.096-438.526 0-121.096 317.43 0 438.526z"
            ></path>
            <path
              stroke="#9EAA85"
              strokeWidth="0.93"
              d="M439.746 439.964c60.547 60.548 158.715 60.548 219.262 0 60.548-60.547 60.548-158.715 0-219.262-60.547-60.548-158.715-60.548-219.262 0-60.548 60.547-60.548 158.715 0 219.262z"
            ></path>
            <path
              stroke="#9EAA85"
              strokeWidth="0.93"
              d="M220.483 659.227c60.547 60.548 158.715 60.548 219.262 0 60.548-60.547 60.548-158.715 0-219.262-60.547-60.548-158.715-60.548-219.262 0-60.548 60.547-60.548 158.715 0 219.262z"
            ></path>
            <path
              stroke="#9EAA85"
              strokeWidth="0.93"
              d="M439.089 658.569c60.547 60.548 158.715 60.548 219.262 0 60.548-60.547 60.548-158.715 0-219.262-60.547-60.548-158.715-60.548-219.262 0-60.548 60.547-60.548 158.715 0 219.262z"
            ></path>
            <path
              stroke="#9EAA85"
              strokeWidth="0.93"
              d="M220.483 439.964c60.547 60.548 158.715 60.548 219.262 0 60.548-60.547 60.548-158.715 0-219.262-60.547-60.548-158.715-60.548-219.262 0-60.548 60.547-60.548 158.715 0 219.262z"
            ></path>
            <path
              stroke="#D0E6A4"
              strokeOpacity="0.3"
              strokeWidth="4"
              d="M440.827 293.998L586.43 437.457l71.106-72.169-145.602-143.459-71.107 72.169z"
            ></path>
            <path
              stroke="#D0E6A4"
              strokeOpacity="0.3"
              strokeWidth="4"
              d="M221.829 512.475l144.547 144.522 71.634-71.646-144.548-144.522-71.633 71.646z"
            ></path>
            <path
              stroke="#D0E6A4"
              strokeOpacity="0.3"
              strokeWidth="4"
              d="M366.815 221.777L221.882 365.913l71.442 71.837 144.933-144.136-71.442-71.837z"
            ></path>
            <path
              stroke="#D0E6A4"
              strokeOpacity="0.3"
              strokeWidth="4"
              d="M585.165 439.829L440.828 584.561l71.738 71.542L656.903 511.37l-71.738-71.541z"
            ></path>
            <g>
              <circle
                cx="331"
                cy="330"
                r="155"
                stroke="#FB887B"
                strokeDasharray="1000"
                strokeDashoffset="1000"
                strokeWidth="4"
              >
                <animate
                  fill="freeze"
                  attributeName="stroke-dashoffset"
                  begin="0s"
                  dur="1.5s"
                  from="1000"
                  to="0"
                ></animate>
                <animate
                  fill="freeze"
                  attributeName="opacity"
                  begin="3.5s"
                  dur="1.3s"
                  from="1"
                  to="0.3"
                ></animate>
              </circle>
              <path
                fill="#FB887B"
                d="M253.114 329v-17.455h10.534v1.875h-8.421v5.898h7.875v1.875h-7.875v5.932h8.557V329h-10.67zm16.082-7.875V329h-2.011v-13.091h1.943v2.046h.17a3.744 3.744 0 011.398-1.603c.625-.409 1.432-.613 2.42-.613.887 0 1.662.181 2.327.545.665.358 1.182.904 1.551 1.636.37.728.554 1.648.554 2.762V329h-2.011v-8.182c0-1.028-.267-1.829-.801-2.403-.534-.58-1.267-.87-2.199-.87-.642 0-1.216.14-1.722.418a2.98 2.98 0 00-1.184 1.219c-.29.534-.435 1.182-.435 1.943zm17.312 13.057c-.972 0-1.807-.125-2.506-.375-.699-.245-1.281-.568-1.747-.972a5.297 5.297 0 01-1.099-1.278l1.602-1.125c.182.238.412.511.69.818.279.312.659.582 1.142.81.489.233 1.128.349 1.918.349 1.057 0 1.929-.256 2.616-.767.688-.511 1.032-1.312 1.032-2.403v-2.659h-.171c-.148.238-.358.534-.631.886-.267.346-.653.656-1.159.929-.5.267-1.176.4-2.028.4-1.057 0-2.006-.25-2.847-.75-.835-.5-1.497-1.227-1.985-2.181-.483-.955-.725-2.114-.725-3.478 0-1.341.236-2.508.707-3.502.472-1 1.128-1.773 1.969-2.319.841-.551 1.813-.826 2.915-.826.852 0 1.528.142 2.028.426.506.278.892.596 1.159.954.273.353.483.642.631.87h.205v-2.08h1.943v13.466c0 1.125-.256 2.04-.767 2.744-.506.711-1.188 1.23-2.046 1.56-.852.335-1.801.503-2.846.503zm-.068-7.193c.806 0 1.488-.185 2.045-.554.557-.37.98-.901 1.27-1.594.29-.693.435-1.523.435-2.489 0-.943-.142-1.775-.427-2.497-.284-.721-.704-1.287-1.261-1.696-.557-.409-1.244-.614-2.062-.614-.853 0-1.563.216-2.131.648-.563.432-.986 1.012-1.27 1.739-.278.727-.418 1.534-.418 2.42 0 .909.142 1.713.427 2.412.289.693.715 1.239 1.278 1.637.568.392 1.273.588 2.114.588zm9.409 2.011v-13.091h2.011V329h-2.011zm1.022-15.273a1.43 1.43 0 01-1.014-.4 1.288 1.288 0 01-.417-.963c0-.375.139-.696.417-.963a1.43 1.43 0 011.014-.401c.392 0 .728.134 1.006.401.284.267.426.588.426.963s-.142.696-.426.963a1.4 1.4 0 01-1.006.4zm6.684 7.398V329h-2.011v-13.091h1.943v2.046h.171a3.735 3.735 0 011.397-1.603c.625-.409 1.432-.613 2.421-.613.886 0 1.662.181 2.327.545.664.358 1.181.904 1.551 1.636.369.728.554 1.648.554 2.762V329h-2.012v-8.182c0-1.028-.267-1.829-.801-2.403-.534-.58-1.267-.87-2.199-.87-.642 0-1.216.14-1.721.418-.5.278-.895.685-1.185 1.219-.29.534-.435 1.182-.435 1.943zm17.517 8.148c-1.262 0-2.35-.279-3.264-.835-.91-.563-1.611-1.347-2.106-2.353-.488-1.011-.733-2.187-.733-3.528 0-1.341.245-2.523.733-3.546.495-1.028 1.182-1.829 2.063-2.403.886-.58 1.92-.869 3.102-.869.682 0 1.355.113 2.02.341.665.227 1.27.596 1.815 1.108.546.505.981 1.176 1.304 2.011.324.835.486 1.863.486 3.085v.852h-10.091v-1.738h8.046c0-.739-.148-1.398-.443-1.978a3.349 3.349 0 00-1.245-1.372c-.534-.335-1.165-.503-1.892-.503-.801 0-1.494.199-2.079.597a3.914 3.914 0 00-1.338 1.534 4.503 4.503 0 00-.469 2.029v1.159c0 .988.17 1.826.511 2.514.347.682.827 1.202 1.441 1.56.613.352 1.326.528 2.139.528.528 0 1.005-.074 1.432-.222.431-.153.804-.38 1.116-.682.313-.306.554-.687.724-1.142l1.944.546a4.317 4.317 0 01-1.032 1.739 5.038 5.038 0 01-1.789 1.159c-.711.272-1.509.409-2.395.409zm13.968 0c-1.261 0-2.349-.279-3.264-.835-.909-.563-1.611-1.347-2.105-2.353-.488-1.011-.733-2.187-.733-3.528 0-1.341.245-2.523.733-3.546.494-1.028 1.182-1.829 2.063-2.403.886-.58 1.92-.869 3.102-.869.682 0 1.355.113 2.02.341.665.227 1.27.596 1.815 1.108.546.505.98 1.176 1.304 2.011.324.835.486 1.863.486 3.085v.852H330.37v-1.738h8.045c0-.739-.147-1.398-.443-1.978a3.34 3.34 0 00-1.244-1.372c-.534-.335-1.165-.503-1.892-.503-.801 0-1.494.199-2.08.597a3.93 3.93 0 00-1.338 1.534 4.515 4.515 0 00-.468 2.029v1.159c0 .988.17 1.826.511 2.514.347.682.827 1.202 1.44 1.56.614.352 1.327.528 2.139.528.529 0 1.006-.074 1.432-.222.432-.153.804-.38 1.117-.682.312-.306.554-.687.724-1.142l1.943.546a4.303 4.303 0 01-1.031 1.739 5.033 5.033 0 01-1.79 1.159c-.71.272-1.508.409-2.395.409zm8.481-.273v-13.091h1.943v1.977h.136c.239-.647.671-1.173 1.296-1.576a3.806 3.806 0 012.113-.605c.148 0 .333.002.554.008.222.006.389.014.503.026v2.045a5.834 5.834 0 00-.469-.077 4.689 4.689 0 00-.758-.059c-.637 0-1.205.133-1.705.4a3.03 3.03 0 00-1.176 1.091 2.94 2.94 0 00-.426 1.577V329h-2.011zm8.929 0v-13.091h2.012V329h-2.012zm1.023-15.273a1.43 1.43 0 01-1.014-.4 1.285 1.285 0 01-.418-.963c0-.375.139-.696.418-.963a1.43 1.43 0 011.014-.401c.392 0 .727.134 1.006.401.284.267.426.588.426.963s-.142.696-.426.963c-.279.267-.614.4-1.006.4zm6.684 7.398V329h-2.011v-13.091h1.943v2.046h.17a3.744 3.744 0 011.398-1.603c.625-.409 1.432-.613 2.42-.613.887 0 1.662.181 2.327.545.665.358 1.182.904 1.551 1.636.37.728.554 1.648.554 2.762V329h-2.011v-8.182c0-1.028-.267-1.829-.801-2.403-.534-.58-1.267-.87-2.199-.87-.642 0-1.216.14-1.722.418a2.98 2.98 0 00-1.184 1.219c-.29.534-.435 1.182-.435 1.943zm17.312 13.057c-.972 0-1.807-.125-2.506-.375-.699-.245-1.281-.568-1.747-.972a5.324 5.324 0 01-1.1-1.278l1.603-1.125c.182.238.412.511.69.818.279.312.659.582 1.142.81.489.233 1.128.349 1.918.349 1.057 0 1.929-.256 2.616-.767.688-.511 1.031-1.312 1.031-2.403v-2.659h-.17c-.148.238-.358.534-.631.886-.267.346-.653.656-1.159.929-.5.267-1.176.4-2.028.4-1.057 0-2.006-.25-2.847-.75-.835-.5-1.497-1.227-1.986-2.181-.482-.955-.724-2.114-.724-3.478 0-1.341.236-2.508.707-3.502.472-1 1.128-1.773 1.969-2.319.841-.551 1.813-.826 2.915-.826.852 0 1.528.142 2.028.426.506.278.892.596 1.159.954.273.353.483.642.631.87h.205v-2.08h1.943v13.466c0 1.125-.256 2.04-.767 2.744-.506.711-1.188 1.23-2.046 1.56-.852.335-1.801.503-2.846.503zm-.068-7.193c.806 0 1.488-.185 2.045-.554.557-.37.98-.901 1.27-1.594.29-.693.435-1.523.435-2.489 0-.943-.142-1.775-.427-2.497-.284-.721-.704-1.287-1.261-1.696-.557-.409-1.244-.614-2.062-.614-.853 0-1.563.216-2.131.648-.563.432-.986 1.012-1.27 1.739-.278.727-.418 1.534-.418 2.42 0 .909.142 1.713.427 2.412.289.693.715 1.239 1.278 1.637.568.392 1.273.588 2.114.588z"
              >
                <animate
                  fill="freeze"
                  attributeName="opacity"
                  begin="0s"
                  dur="1.5s"
                  from="0"
                  to="1"
                ></animate>
                <animate
                  fill="freeze"
                  attributeName="opacity"
                  begin="3.5s"
                  dur="1.3s"
                  from="1"
                  to="0"
                ></animate>
              </path>
            </g>
            <g>
              <circle
                cx="549"
                cy="330"
                r="155"
                stroke="#FB887B"
                strokeDasharray="1000"
                strokeDashoffset="1000"
                strokeWidth="4"
              >
                <animate
                  fill="freeze"
                  attributeName="stroke-dashoffset"
                  begin="0.5s"
                  dur="1.5s"
                  from="1000"
                  to="0"
                ></animate>
                <animate
                  fill="freeze"
                  attributeName="opacity"
                  begin="3.8s"
                  dur="1s"
                  from="1"
                  to="0.3"
                ></animate>
              </circle>
              <path
                fill="#FB887B"
                d="M529.159 312h-2.114a4.382 4.382 0 00-.656-1.602 4.371 4.371 0 00-1.125-1.159 4.748 4.748 0 00-1.457-.716 5.825 5.825 0 00-1.671-.239c-1.056 0-2.014.267-2.872.801-.852.534-1.531 1.321-2.037 2.361-.5 1.04-.75 2.315-.75 3.827 0 1.511.25 2.787.75 3.826.506 1.04 1.185 1.827 2.037 2.361.858.534 1.816.801 2.872.801.58 0 1.137-.079 1.671-.238a4.869 4.869 0 001.457-.708 4.467 4.467 0 001.781-2.77h2.114a7.045 7.045 0 01-.869 2.395 6.56 6.56 0 01-1.568 1.799 6.885 6.885 0 01-2.106 1.116 7.832 7.832 0 01-2.48.384c-1.488 0-2.812-.364-3.971-1.091-1.159-.728-2.071-1.762-2.736-3.103-.665-1.34-.997-2.931-.997-4.772 0-1.841.332-3.432.997-4.773.665-1.341 1.577-2.375 2.736-3.102 1.159-.728 2.483-1.091 3.971-1.091a7.86 7.86 0 012.48.383 6.78 6.78 0 012.106 1.125 6.45 6.45 0 011.568 1.79c.42.699.71 1.497.869 2.395zm11.393 6.648v-7.739h2.011V324h-2.011v-2.216h-.137c-.306.665-.784 1.23-1.431 1.696-.648.46-1.466.69-2.455.69-.818 0-1.545-.179-2.182-.536-.636-.364-1.136-.91-1.5-1.637-.363-.733-.545-1.656-.545-2.77v-8.318h2.011v8.182c0 .954.267 1.716.801 2.284.54.568 1.228.852 2.063.852.5 0 1.008-.128 1.525-.383a3.328 3.328 0 001.313-1.176c.358-.529.537-1.202.537-2.02zm7.707-12.103V324h-2.012v-17.455h2.012zm9.377 4.364v1.705h-6.784v-1.705h6.784zm-4.807-3.136h2.011v12.477c0 .568.083.994.247 1.278.171.279.387.466.648.563.267.091.548.136.844.136.221 0 .403-.011.545-.034l.341-.068.409 1.807a4.06 4.06 0 01-.571.153 4.193 4.193 0 01-.929.085 4.05 4.05 0 01-1.67-.366 3.315 3.315 0 01-1.347-1.116c-.352-.5-.528-1.131-.528-1.893v-13.022zm16.082 10.875v-7.739h2.012V324h-2.012v-2.216h-.136c-.307.665-.784 1.23-1.432 1.696-.648.46-1.466.69-2.455.69-.818 0-1.545-.179-2.181-.536-.637-.364-1.137-.91-1.5-1.637-.364-.733-.546-1.656-.546-2.77v-8.318h2.012v8.182c0 .954.267 1.716.801 2.284.539.568 1.227.852 2.062.852.5 0 1.009-.128 1.526-.383.523-.256.96-.648 1.312-1.176.358-.529.537-1.202.537-2.02zm5.696 5.352v-13.091h1.943v1.977h.136c.239-.647.671-1.173 1.296-1.576a3.806 3.806 0 012.113-.605c.148 0 .333.002.554.008.222.006.389.014.503.026v2.045a5.834 5.834 0 00-.469-.077 4.689 4.689 0 00-.758-.059c-.637 0-1.205.133-1.705.4a3.03 3.03 0 00-1.176 1.091 2.94 2.94 0 00-.426 1.577V324h-2.011zm14.019.273c-1.261 0-2.349-.279-3.264-.835-.909-.563-1.611-1.347-2.105-2.353-.489-1.011-.733-2.187-.733-3.528 0-1.341.244-2.523.733-3.546.494-1.028 1.182-1.829 2.063-2.403.886-.58 1.92-.869 3.102-.869.682 0 1.355.113 2.02.341.665.227 1.27.596 1.815 1.108.546.505.98 1.176 1.304 2.011.324.835.486 1.863.486 3.085v.852h-10.091v-1.738h8.045c0-.739-.147-1.398-.443-1.978a3.347 3.347 0 00-1.244-1.372c-.534-.335-1.165-.503-1.892-.503-.801 0-1.494.199-2.08.597a3.93 3.93 0 00-1.338 1.534 4.515 4.515 0 00-.468 2.029v1.159c0 .988.17 1.826.511 2.514.346.682.827 1.202 1.44 1.56.614.352 1.327.528 2.139.528.529 0 1.006-.074 1.432-.222.432-.153.804-.38 1.117-.682.312-.306.554-.687.724-1.142l1.943.546a4.303 4.303 0 01-1.031 1.739 5.033 5.033 0 01-1.79 1.159c-.71.272-1.508.409-2.395.409z"
              >
                <animate
                  fill="freeze"
                  attributeName="opacity"
                  begin="0s"
                  dur="1.9s"
                  from="0"
                  to="1"
                ></animate>
                <animate
                  fill="freeze"
                  attributeName="opacity"
                  begin="3.8s"
                  dur="1s"
                  from="1"
                  to="0"
                ></animate>
              </path>
            </g>
            <g>
              <circle
                cx="330"
                cy="549"
                r="155"
                stroke="#FB887B"
                strokeDasharray="1000"
                strokeDashoffset="1000"
                strokeWidth="4"
              >
                <animate
                  fill="freeze"
                  attributeName="stroke-dashoffset"
                  begin="1s"
                  dur="1.5s"
                  from="1000"
                  to="0"
                ></animate>
                <animate
                  fill="freeze"
                  attributeName="opacity"
                  begin="4.1s"
                  dur="0.7s"
                  from="1"
                  to="0.3"
                ></animate>
              </circle>
              <path
                fill="#FB887B"
                d="M256.227 555.545V573h-2.113v-17.455h2.113zm5.977 9.58V573h-2.012v-13.091h1.944v2.046h.17a3.744 3.744 0 011.398-1.603c.625-.409 1.432-.613 2.42-.613.887 0 1.662.181 2.327.545.665.358 1.182.904 1.551 1.636.369.728.554 1.648.554 2.762V573h-2.011v-8.182c0-1.028-.267-1.829-.801-2.403-.534-.58-1.267-.87-2.199-.87-.642 0-1.216.14-1.722.418-.5.278-.895.685-1.185 1.219-.289.534-.434 1.182-.434 1.943zm17.721-5.216v1.705h-6.784v-1.705h6.784zm-4.807-3.136h2.011v12.477c0 .568.083.994.247 1.278.171.279.387.466.648.563.267.091.548.136.844.136.221 0 .403-.011.545-.034l.341-.068.409 1.807a4.06 4.06 0 01-.571.153 4.193 4.193 0 01-.929.085 4.05 4.05 0 01-1.67-.366 3.315 3.315 0 01-1.347-1.116c-.352-.5-.528-1.131-.528-1.893v-13.022zm13.18 16.5c-1.261 0-2.349-.279-3.264-.835-.909-.563-1.611-1.347-2.105-2.353-.489-1.011-.733-2.187-.733-3.528 0-1.341.244-2.523.733-3.546.494-1.028 1.182-1.829 2.062-2.403.887-.58 1.921-.869 3.103-.869.682 0 1.355.113 2.02.341.664.227 1.27.596 1.815 1.108.545.505.98 1.176 1.304 2.011.324.835.486 1.863.486 3.085v.852h-10.091v-1.738h8.045c0-.739-.147-1.398-.443-1.978a3.347 3.347 0 00-1.244-1.372c-.534-.335-1.165-.503-1.892-.503-.801 0-1.495.199-2.08.597a3.93 3.93 0 00-1.338 1.534 4.516 4.516 0 00-.469 2.029v1.159c0 .988.171 1.826.512 2.514.346.682.826 1.202 1.44 1.56.614.352 1.327.528 2.139.528.529 0 1.006-.074 1.432-.222.432-.153.804-.38 1.117-.682.312-.306.554-.687.724-1.142l1.943.546a4.303 4.303 0 01-1.031 1.739c-.483.494-1.08.88-1.79 1.159-.71.272-1.508.409-2.395.409zm10.492-17.728V573h-2.012v-17.455h2.012zm5.695 0V573h-2.011v-17.455h2.011zM308.169 573v-13.091h2.011V573h-2.011zm1.023-15.273a1.43 1.43 0 01-1.014-.4 1.285 1.285 0 01-.418-.963c0-.375.139-.696.418-.963a1.43 1.43 0 011.014-.401 1.4 1.4 0 011.005.401c.285.267.427.588.427.963s-.142.696-.427.963c-.278.267-.613.4-1.005.4zm9.956 20.455c-.971 0-1.806-.125-2.505-.375-.699-.245-1.281-.568-1.747-.972a5.302 5.302 0 01-1.1-1.278l1.602-1.125c.182.238.412.511.691.818.278.312.659.582 1.142.81.488.233 1.128.349 1.917.349 1.057 0 1.929-.256 2.617-.767.687-.511 1.031-1.312 1.031-2.403v-2.659h-.17c-.148.238-.358.534-.631.886-.267.346-.653.656-1.159.929-.5.267-1.176.4-2.028.4-1.057 0-2.006-.25-2.847-.75-.835-.5-1.497-1.227-1.986-2.181-.483-.955-.724-2.114-.724-3.478 0-1.341.236-2.508.707-3.502.472-1 1.128-1.773 1.969-2.319.841-.551 1.812-.826 2.915-.826.852 0 1.528.142 2.028.426.506.278.892.596 1.159.954.273.353.483.642.631.87h.204v-2.08h1.944v13.466c0 1.125-.256 2.04-.768 2.744-.505.711-1.187 1.23-2.045 1.56-.852.335-1.801.503-2.847.503zm-.068-7.193c.807 0 1.489-.185 2.046-.554.557-.37.98-.901 1.27-1.594.289-.693.434-1.523.434-2.489 0-.943-.142-1.775-.426-2.497-.284-.721-.704-1.287-1.261-1.696-.557-.409-1.245-.614-2.063-.614-.852 0-1.562.216-2.13.648-.563.432-.986 1.012-1.27 1.739-.279.727-.418 1.534-.418 2.42 0 .909.142 1.713.426 2.412.29.693.716 1.239 1.279 1.637.568.392 1.272.588 2.113.588zm14.898 2.284c-1.261 0-2.349-.279-3.264-.835-.909-.563-1.611-1.347-2.105-2.353-.489-1.011-.733-2.187-.733-3.528 0-1.341.244-2.523.733-3.546.494-1.028 1.181-1.829 2.062-2.403.887-.58 1.921-.869 3.102-.869.682 0 1.356.113 2.02.341.665.227 1.27.596 1.816 1.108.545.505.98 1.176 1.304 2.011.324.835.485 1.863.485 3.085v.852h-10.09v-1.738h8.045c0-.739-.148-1.398-.443-1.978a3.349 3.349 0 00-1.245-1.372c-.534-.335-1.164-.503-1.892-.503-.801 0-1.494.199-2.079.597a3.914 3.914 0 00-1.338 1.534 4.503 4.503 0 00-.469 2.029v1.159c0 .988.171 1.826.511 2.514.347.682.827 1.202 1.441 1.56.613.352 1.326.528 2.139.528.528 0 1.006-.074 1.432-.222a3.04 3.04 0 001.116-.682c.313-.306.554-.687.725-1.142l1.943.546a4.314 4.314 0 01-1.031 1.739c-.483.494-1.08.88-1.79 1.159-.71.272-1.509.409-2.395.409zm10.491-8.148V573h-2.011v-13.091h1.943v2.046h.171a3.742 3.742 0 011.397-1.603c.625-.409 1.432-.613 2.421-.613.886 0 1.662.181 2.327.545.664.358 1.181.904 1.551 1.636.369.728.554 1.648.554 2.762V573h-2.012v-8.182c0-1.028-.267-1.829-.801-2.403-.534-.58-1.267-.87-2.199-.87-.642 0-1.216.14-1.721.418-.5.278-.895.685-1.185 1.219-.29.534-.435 1.182-.435 1.943zm17.346 8.148c-1.227 0-2.284-.29-3.17-.87-.886-.579-1.568-1.377-2.046-2.394-.477-1.018-.715-2.179-.715-3.486 0-1.33.244-2.503.732-3.52.495-1.023 1.182-1.821 2.063-2.395.886-.58 1.92-.869 3.102-.869.921 0 1.75.17 2.489.511a4.755 4.755 0 011.815 1.432c.472.613.764 1.329.878 2.148h-2.011c-.154-.597-.495-1.125-1.023-1.586-.523-.466-1.227-.699-2.114-.699-.784 0-1.471.205-2.062.614-.585.403-1.043.975-1.372 1.713-.324.733-.486 1.594-.486 2.583 0 1.011.159 1.892.477 2.642.324.75.779 1.332 1.364 1.747.591.415 1.284.622 2.079.622.523 0 .997-.091 1.424-.273a2.933 2.933 0 001.082-.784c.295-.341.506-.75.631-1.227h2.011a4.66 4.66 0 01-.844 2.088c-.443.614-1.031 1.102-1.764 1.466-.727.358-1.574.537-2.54.537zm13.577 0c-1.261 0-2.349-.279-3.264-.835-.909-.563-1.611-1.347-2.105-2.353-.489-1.011-.733-2.187-.733-3.528 0-1.341.244-2.523.733-3.546.494-1.028 1.182-1.829 2.062-2.403.887-.58 1.921-.869 3.103-.869.681 0 1.355.113 2.019.341.665.227 1.27.596 1.816 1.108.545.505.98 1.176 1.304 2.011.324.835.485 1.863.485 3.085v.852h-10.09v-1.738h8.045c0-.739-.148-1.398-.443-1.978a3.353 3.353 0 00-1.244-1.372c-.535-.335-1.165-.503-1.892-.503-.802 0-1.495.199-2.08.597a3.914 3.914 0 00-1.338 1.534 4.503 4.503 0 00-.469 2.029v1.159c0 .988.171 1.826.511 2.514.347.682.827 1.202 1.441 1.56.613.352 1.327.528 2.139.528.528 0 1.006-.074 1.432-.222a3.04 3.04 0 001.116-.682c.313-.306.554-.687.725-1.142l1.943.546a4.314 4.314 0 01-1.031 1.739c-.483.494-1.08.88-1.79 1.159-.71.272-1.509.409-2.395.409z"
              >
                <animate
                  fill="freeze"
                  attributeName="opacity"
                  begin="0s"
                  dur="2.3s"
                  from="0"
                  to="1"
                ></animate>
                <animate
                  fill="freeze"
                  attributeName="opacity"
                  begin="4.1s"
                  dur="0.7s"
                  from="1"
                  to="0"
                ></animate>
              </path>
            </g>
            <g>
              <circle
                cx="549"
                cy="549"
                r="155"
                stroke="#FB887B"
                strokeDasharray="1000"
                strokeDashoffset="1000"
                strokeWidth="4"
              >
                <animate
                  fill="freeze"
                  attributeName="stroke-dashoffset"
                  begin="1.5s"
                  dur="1.5s"
                  from="1000"
                  to="0"
                ></animate>
                <animate
                  fill="freeze"
                  attributeName="opacity"
                  begin="4.3s"
                  dur="0.5s"
                  from="1"
                  to="0.3"
                ></animate>
              </circle>
              <path
                fill="#FB887B"
                d="M510.159 559h-2.114a4.382 4.382 0 00-.656-1.602 4.371 4.371 0 00-1.125-1.159 4.748 4.748 0 00-1.457-.716 5.825 5.825 0 00-1.671-.239c-1.056 0-2.014.267-2.872.801-.852.534-1.531 1.321-2.037 2.361-.5 1.04-.75 2.315-.75 3.827 0 1.511.25 2.787.75 3.826.506 1.04 1.185 1.827 2.037 2.361.858.534 1.816.801 2.872.801.58 0 1.137-.079 1.671-.238a4.869 4.869 0 001.457-.708 4.467 4.467 0 001.781-2.77h2.114a7.045 7.045 0 01-.869 2.395 6.56 6.56 0 01-1.568 1.799 6.885 6.885 0 01-2.106 1.116 7.832 7.832 0 01-2.48.384c-1.488 0-2.812-.364-3.971-1.091-1.159-.728-2.071-1.762-2.736-3.103-.665-1.34-.997-2.931-.997-4.772 0-1.841.332-3.432.997-4.773.665-1.341 1.577-2.375 2.736-3.102 1.159-.728 2.483-1.091 3.971-1.091a7.86 7.86 0 012.48.383 6.78 6.78 0 012.106 1.125 6.45 6.45 0 011.568 1.79c.42.699.71 1.497.869 2.395zm8.461 12.273c-1.182 0-2.219-.282-3.111-.844-.886-.563-1.579-1.349-2.079-2.361-.495-1.011-.742-2.193-.742-3.545 0-1.364.247-2.554.742-3.571.5-1.017 1.193-1.807 2.079-2.37.892-.562 1.929-.843 3.111-.843 1.182 0 2.216.281 3.102.843.892.563 1.586 1.353 2.08 2.37.5 1.017.75 2.207.75 3.571 0 1.352-.25 2.534-.75 3.545-.494 1.012-1.188 1.798-2.08 2.361-.886.562-1.92.844-3.102.844zm0-1.807c.898 0 1.636-.23 2.216-.69.579-.461 1.008-1.066 1.287-1.816.278-.75.417-1.562.417-2.437 0-.875-.139-1.691-.417-2.446-.279-.756-.708-1.367-1.287-1.833-.58-.466-1.318-.699-2.216-.699-.898 0-1.636.233-2.216.699-.579.466-1.008 1.077-1.287 1.833a7.027 7.027 0 00-.417 2.446c0 .875.139 1.687.417 2.437.279.75.708 1.355 1.287 1.816.58.46 1.318.69 2.216.69zm11.014-6.341V571h-2.012v-13.091h1.943v2.046h.171a3.744 3.744 0 011.398-1.603c.625-.409 1.431-.613 2.42-.613.886 0 1.662.181 2.327.545.664.358 1.182.904 1.551 1.636.369.728.554 1.648.554 2.762V571h-2.012v-8.182c0-1.028-.267-1.829-.801-2.403-.534-.58-1.267-.87-2.199-.87-.642 0-1.215.14-1.721.418-.5.278-.895.685-1.185 1.219-.29.534-.434 1.182-.434 1.943zm21.3-2.284l-1.807.511a3.373 3.373 0 00-.503-.878 2.44 2.44 0 00-.886-.715c-.375-.188-.855-.282-1.44-.282-.802 0-1.469.185-2.003.554-.529.364-.793.827-.793 1.389 0 .5.182.895.546 1.185.363.29.931.531 1.704.725l1.943.477c1.171.284 2.043.719 2.617 1.304.574.579.861 1.326.861 2.241 0 .75-.216 1.421-.648 2.012-.426.591-1.023 1.056-1.79 1.397-.767.341-1.659.512-2.676.512-1.335 0-2.44-.29-3.315-.87-.875-.579-1.429-1.426-1.662-2.539l1.909-.478c.182.705.525 1.233 1.031 1.586.511.352 1.179.528 2.003.528.937 0 1.682-.199 2.233-.597.557-.403.835-.886.835-1.448 0-.455-.159-.836-.477-1.143-.318-.312-.807-.545-1.466-.698l-2.182-.512c-1.199-.284-2.08-.724-2.642-1.321-.557-.602-.835-1.355-.835-2.258 0-.739.207-1.392.622-1.961.42-.568.991-1.014 1.713-1.338.727-.323 1.551-.485 2.472-.485 1.295 0 2.312.284 3.051.852.744.568 1.272 1.318 1.585 2.25zm11.516 4.807v-7.739h2.012V571h-2.012v-2.216h-.136c-.307.665-.784 1.23-1.432 1.696-.648.46-1.466.69-2.454.69-.819 0-1.546-.179-2.182-.536-.637-.364-1.137-.91-1.5-1.637-.364-.733-.546-1.656-.546-2.77v-8.318h2.012v8.182c0 .954.267 1.716.801 2.284.54.568 1.227.852 2.062.852.5 0 1.009-.128 1.526-.383.523-.256.96-.648 1.312-1.176.358-.529.537-1.202.537-2.02zm7.707-12.103V571h-2.011v-17.455h2.011zm9.377 4.364v1.705h-6.784v-1.705h6.784zm-4.807-3.136h2.012v12.477c0 .568.082.994.247 1.278.17.279.386.466.648.563.267.091.548.136.843.136.222 0 .404-.011.546-.034l.341-.068.409 1.807a4.14 4.14 0 01-.571.153 4.2 4.2 0 01-.929.085 4.058 4.058 0 01-1.671-.366 3.318 3.318 0 01-1.346-1.116c-.353-.5-.529-1.131-.529-1.893v-13.022zM582.56 571v-13.091h2.011V571h-2.011zm1.022-15.273a1.43 1.43 0 01-1.014-.4 1.288 1.288 0 01-.417-.963c0-.375.139-.696.417-.963a1.43 1.43 0 011.014-.401c.392 0 .728.134 1.006.401.284.267.426.588.426.963s-.142.696-.426.963a1.4 1.4 0 01-1.006.4zm6.684 7.398V571h-2.011v-13.091h1.943v2.046h.171a3.735 3.735 0 011.397-1.603c.625-.409 1.432-.613 2.421-.613.886 0 1.662.181 2.326.545.665.358 1.182.904 1.552 1.636.369.728.554 1.648.554 2.762V571h-2.012v-8.182c0-1.028-.267-1.829-.801-2.403-.534-.58-1.267-.87-2.199-.87-.642 0-1.216.14-1.721.418-.5.278-.895.685-1.185 1.219-.29.534-.435 1.182-.435 1.943zm17.312 13.057c-.971 0-1.807-.125-2.506-.375-.698-.245-1.281-.568-1.747-.972a5.32 5.32 0 01-1.099-1.278l1.602-1.125c.182.238.412.511.69.818.279.312.66.582 1.143.81.488.233 1.127.349 1.917.349 1.057 0 1.929-.256 2.617-.767.687-.511 1.031-1.312 1.031-2.403v-2.659h-.171c-.147.238-.358.534-.63.886-.267.346-.654.656-1.159.929-.5.267-1.177.4-2.029.4-1.057 0-2.005-.25-2.846-.75-.836-.5-1.498-1.227-1.986-2.181-.483-.955-.725-2.114-.725-3.478 0-1.341.236-2.508.708-3.502.471-1 1.128-1.773 1.969-2.319.84-.551 1.812-.826 2.914-.826.853 0 1.529.142 2.029.426.505.278.892.596 1.159.954.273.353.483.642.63.87h.205v-2.08h1.943v13.466c0 1.125-.255 2.04-.767 2.744-.506.711-1.187 1.23-2.045 1.56-.853.335-1.801.503-2.847.503zm-.068-7.193c.807 0 1.489-.185 2.045-.554.557-.37.981-.901 1.27-1.594.29-.693.435-1.523.435-2.489 0-.943-.142-1.775-.426-2.497-.284-.721-.705-1.287-1.262-1.696-.556-.409-1.244-.614-2.062-.614-.852 0-1.563.216-2.131.648-.562.432-.986 1.012-1.27 1.739-.278.727-.417 1.534-.417 2.42 0 .909.142 1.713.426 2.412.29.693.716 1.239 1.278 1.637.568.392 1.273.588 2.114.588z"
              >
                <animate
                  fill="freeze"
                  attributeName="opacity"
                  begin="0s"
                  dur="2.7s"
                  from="0"
                  to="1"
                ></animate>
                <animate
                  fill="freeze"
                  attributeName="opacity"
                  begin="4.3s"
                  dur="0.5s"
                  from="1"
                  to="0"
                ></animate>
              </path>
            </g>
          </g>
        </g>
      </g>
    </g>
    <defs>
      <clipPath id="clip0_1_2">
        <path fill="#fff" d="M0 0H878V879H0z"></path>
      </clipPath>
    </defs>
  </svg>