<svg width="174" height="201" viewBox="0 0 174 201" fill="none" xmlns="http://www.w3.org/2000/svg">
<path d="M87.2357 0.316364L173.56 50.5102L173.195 150.265L86.5061 199.826L0.182268 149.632L0.547084 49.8775L87.2357 0.316364Z" fill="#673AB8"/>
<path d="M26.1085 146.344C35.8874 159.185 71.019 148.878 104.577 123.322C138.135 97.7665 157.412 66.6398 147.633 53.7987C137.854 40.9576 102.723 51.2648 69.1645 76.8203C35.6064 102.376 16.3295 133.503 26.1085 146.344Z" stroke="white" stroke-width="16"/>
<path d="M147.294 146.787C157.166 134.018 138.118 102.751 104.747 76.9505C71.377 51.1501 36.3217 40.5863 26.4491 53.3556C16.5766 66.1248 35.6252 97.3916 68.9955 123.192C102.366 148.992 137.421 159.556 147.294 146.787Z" stroke="white" stroke-width="16"/>
<path d="M86.8226 113.32C94.1396 113.347 100.093 107.437 100.12 100.12C100.146 92.8027 94.2365 86.8494 86.9195 86.8226C79.6025 86.7959 73.6492 92.7058 73.6224 100.023C73.5957 107.34 79.5056 113.293 86.8226 113.32Z" fill="white"/>
</svg>
