<svg width="206" height="206" viewBox="0 0 206 206" fill="none" xmlns="http://www.w3.org/2000/svg">
<path d="M103 206C159.885 206 206 159.885 206 103C206 46.1147 159.885 0 103 0C46.1147 0 0 46.1147 0 103C0 159.885 46.1147 206 103 206Z" fill="#232F3E"/>
<path d="M80.529 96.3813C80.529 97.6486 80.6698 98.6746 80.9112 99.4189C81.1929 100.183 81.5349 101.008 82.0177 101.893C82.1987 102.155 82.2591 102.437 82.2591 102.678C82.2591 103.02 82.0579 103.362 81.6153 103.704L79.4628 105.132C79.2013 105.313 78.8995 105.434 78.5776 105.434C78.2356 105.434 77.8936 105.253 77.5517 104.951C77.089 104.448 76.6866 103.925 76.3245 103.342C75.9423 102.678 75.5802 102.014 75.2583 101.33C72.5827 104.488 69.2231 106.058 65.1796 106.058C62.3028 106.058 60.0095 105.233 58.3397 103.603C56.67 101.954 55.805 99.7609 55.805 97.025C55.805 94.108 56.831 91.7543 58.9231 89.9639C61.0153 88.1734 63.7915 87.2883 67.312 87.2883C68.4788 87.2883 69.6858 87.3889 70.9331 87.5699C72.2005 87.751 73.5081 88.0125 74.8761 88.3344V85.8398C74.8761 83.2447 74.3329 81.4141 73.2667 80.368C72.1804 79.3018 70.3296 78.7988 67.6942 78.7988C66.4872 78.7988 65.2601 78.9396 63.9927 79.2414C62.7253 79.5432 61.4981 79.9254 60.2911 80.4082C59.9089 80.5893 59.5065 80.7301 59.0841 80.8508C58.903 80.9111 58.722 80.9312 58.5409 80.9514C58.0581 80.9514 57.8167 80.6094 57.8167 79.8852V78.2154C57.8167 77.6723 57.877 77.2498 58.0581 77.0084C58.3196 76.7066 58.6415 76.4451 59.0237 76.2842C60.2308 75.6605 61.6591 75.1576 63.3288 74.7352C65.079 74.2926 66.8694 74.0713 68.68 74.0914C72.7638 74.0914 75.7411 75.0168 77.6522 76.8676C79.5433 78.7184 80.4888 81.5146 80.4888 85.2967V96.4014L80.529 96.3813ZM66.628 101.592C67.7546 101.592 68.9214 101.39 70.1485 100.968C71.3757 100.566 72.4821 99.8012 73.4075 98.7752C73.9507 98.1314 74.3731 97.4072 74.5743 96.5824C74.7755 95.7576 74.9163 94.7719 74.9163 93.6051V92.1768C73.8702 91.9152 72.8241 91.7342 71.7579 91.5934C70.6917 91.4525 69.6054 91.3922 68.5392 91.3922C66.2458 91.3922 64.5559 91.8348 63.4294 92.7602C62.3028 93.6855 61.7597 94.9932 61.7597 96.7031C61.7597 98.3125 62.162 99.5195 63.027 100.324C63.8518 101.189 65.0388 101.592 66.628 101.592ZM94.1282 105.293C93.5046 105.293 93.1022 105.193 92.8206 104.951C92.539 104.75 92.2976 104.267 92.0964 103.623L84.0495 77.1492C83.8886 76.7066 83.788 76.2439 83.7477 75.7813C83.7477 75.2381 84.0294 74.9162 84.5726 74.9162H87.9321C88.5759 74.9162 89.0185 75.0168 89.2599 75.2582C89.5415 75.4594 89.7427 75.9422 89.9438 76.6061L95.6974 99.2781L101.049 76.6061C101.23 75.9221 101.431 75.4795 101.692 75.2582C102.095 74.9967 102.577 74.876 103.06 74.9162H105.816C106.46 74.9162 106.923 75.0168 107.184 75.2582C107.446 75.4594 107.707 75.9422 107.828 76.6061L113.24 99.5598L119.174 76.6061C119.375 75.9221 119.617 75.4795 119.858 75.2582C120.26 74.9967 120.723 74.876 121.186 74.9162H124.384C124.928 74.9162 125.249 75.1979 125.249 75.7813C125.249 75.9623 125.209 76.1232 125.169 76.3244C125.109 76.6262 125.028 76.9078 124.928 77.1895L116.68 103.664C116.478 104.348 116.237 104.79 115.955 104.991C115.573 105.233 115.11 105.354 114.648 105.333H111.691C111.047 105.333 110.604 105.233 110.323 104.991C110.061 104.75 109.82 104.307 109.679 103.623L104.368 81.5348L99.0972 103.603C98.9161 104.287 98.7149 104.73 98.4534 104.971C98.1718 105.213 97.689 105.313 97.0854 105.313L94.1282 105.293ZM138.145 106.219C136.354 106.219 134.584 106.017 132.874 105.595C131.164 105.193 129.836 104.73 128.931 104.227C128.388 103.925 128.006 103.583 127.865 103.261C127.724 102.96 127.664 102.638 127.664 102.296V100.546C127.664 99.8213 127.945 99.4793 128.448 99.4793C128.649 99.4793 128.85 99.5195 129.072 99.5799C129.273 99.6402 129.595 99.7811 129.937 99.9219C131.104 100.445 132.371 100.847 133.699 101.129C135.067 101.411 136.394 101.531 137.783 101.531C139.935 101.531 141.625 101.149 142.792 100.405C143.918 99.7207 144.602 98.4734 144.582 97.1457C144.602 96.2605 144.28 95.3955 143.657 94.7518C143.033 94.108 141.866 93.5246 140.197 92.9613L135.228 91.4123C132.733 90.6277 130.882 89.4609 129.756 87.932C128.649 86.5037 128.046 84.7535 128.046 82.9631C128.046 81.5348 128.368 80.2674 128.971 79.1609C129.595 78.0746 130.399 77.109 131.446 76.3445C132.472 75.56 133.638 74.9766 135.006 74.5541C136.374 74.1518 137.823 73.9707 139.332 73.9707C140.076 73.9707 140.881 74.0109 141.625 74.1115C142.409 74.2121 143.134 74.3529 143.858 74.4937C144.542 74.6748 145.206 74.8357 145.809 75.0369C146.433 75.2381 146.916 75.4393 147.258 75.6605C147.66 75.8617 148.022 76.1635 148.284 76.5256C148.505 76.8676 148.606 77.2498 148.585 77.6521V79.2615C148.585 79.9857 148.304 80.368 147.801 80.368C147.338 80.3076 146.896 80.1668 146.493 79.9656C144.421 79.0603 142.188 78.5977 139.915 78.6379C137.964 78.6379 136.415 78.9396 135.348 79.6035C134.282 80.2473 133.739 81.2531 133.739 82.6412C133.739 83.6068 134.081 84.4316 134.765 85.0754C135.449 85.7191 136.716 86.383 138.527 86.9664L143.395 88.4953C145.849 89.2799 147.64 90.3863 148.706 91.7945C149.772 93.2027 150.275 94.8121 150.275 96.5824C150.275 98.051 149.974 99.3988 149.39 100.566C148.766 101.732 147.942 102.758 146.896 103.583C145.829 104.448 144.562 105.052 143.093 105.494C141.504 105.977 139.895 106.219 138.145 106.219ZM144.622 122.855C133.357 131.184 116.981 135.59 102.899 135.59C83.1643 135.59 65.3808 128.287 51.9626 116.156C50.8964 115.191 51.862 113.903 53.1294 114.648C67.654 123.077 85.5784 128.187 104.106 128.187C116.619 128.187 130.339 125.591 142.993 120.24C144.864 119.395 146.473 121.488 144.622 122.855ZM149.31 117.524C147.861 115.674 139.774 116.639 136.113 117.082C135.026 117.223 134.845 116.257 135.851 115.533C142.289 111.006 152.87 112.314 154.118 113.823C155.345 115.372 153.776 125.954 147.741 131.023C146.815 131.808 145.93 131.405 146.332 130.379C147.7 126.979 150.758 119.335 149.31 117.524Z" fill="white"/>
</svg>
