<svg width="183" height="189" viewBox="0 0 183 189" fill="none" xmlns="http://www.w3.org/2000/svg">
<path d="M0 31.5225L88 0V189L13.6829 147.69L0 31.5225Z" fill="#DE3641"/>
<path d="M88 0L179 30.9825L164.15 147.15L88 189V0Z" fill="#B13138"/>
<path d="M88.523 21L146 144H126.392L114.128 115.932H88.523V99.1991H107.188L88.523 60.5381L72.8229 99.1991H88.523V115.932H65.1413L54.158 144H33L88.523 21Z" fill="white"/>
<path d="M106.618 177.6L99 93H183L175.314 177.6L140.966 187L106.618 177.6Z" fill="#1572B6"/>
<path d="M141 180L168.537 172.336L175 100H141V180Z" fill="#33A9DC"/>
<path d="M141 130.402H154.737L155.675 119.598H141V109H141.067H167L166.732 111.872L164.186 141H141V130.402Z" fill="white"/>
<path d="M141 157.299L129.33 154.175L128.584 146H122.885H118L119.493 162.151L140.932 168L141 167.934V157.299Z" fill="#EBEBEB"/>
<path d="M153.697 140L152.434 153.966L141 157.137V168L162.072 162.063L162.205 160.308L164 140H153.697Z" fill="white"/>
<path d="M141 109V115.813V120H115.941L115.739 117.516L115.202 111.981L115 109H141Z" fill="#EBEBEB"/>
<path d="M141 130V136.813V141H129.918H129.852L129.656 138.516L129.197 132.981L129 130H141Z" fill="#EBEBEB"/>
</svg>
