<svg width="203" height="157" viewBox="0 0 203 157" fill="none" xmlns="http://www.w3.org/2000/svg">
<path d="M93.7718 148.608L141.557 140.158L141.999 140.058L117.422 110.813C109.179 101.06 100.982 91.269 92.8298 81.4402C92.8298 81.2974 118.221 11.3754 118.364 11.1327C132.412 35.1827 146.371 59.2848 160.24 83.4384L202.344 156.443L202.673 157L46.4149 156.986L93.7718 148.608ZM0 139.701C0 139.659 11.5752 119.548 25.7337 95.0135L51.4817 50.3827L81.483 25.2056C97.9823 11.3754 111.527 0 111.57 0C111.464 0.422266 111.305 0.829754 111.099 1.21318L78.5 71.0925L46.5291 139.716L23.2645 139.744C10.4619 139.759 0 139.744 0 139.701Z" fill="#0089D6"/>
</svg>
