<svg width="158" height="158" viewBox="0 0 158 158" fill="none" xmlns="http://www.w3.org/2000/svg">
<path d="M10.0897 155.546L0.00194019 155.416L0.301503 132.193L10.3892 132.323C17.657 132.417 21.2485 136.124 21.1541 143.442C21.0489 151.6 17.3574 155.639 10.0897 155.546ZM4.36375 151.733L9.48638 151.799C14.3153 151.862 16.7635 149.057 16.8367 143.382C16.899 138.551 14.5186 136.105 9.68964 136.043L4.567 135.976L4.36375 151.733ZM25.5159 155.745L21.0876 155.688L31.2648 132.592L35.9013 132.652L45.6953 156.005L41.055 155.945L38.2078 149.573L30.7533 149.477L32.2834 145.764L37.1182 145.826L33.4209 137.053L25.5159 155.745ZM43.5561 132.751L61.2149 132.978L61.1668 136.712L54.4941 136.626L54.2427 156.115L49.9311 156.06L50.1825 136.571L43.5059 136.485L43.5561 132.751ZM63.1325 156.23L58.7041 156.173L68.8833 133.077L73.5198 133.137L83.3118 156.49L78.6715 156.43L75.8243 150.058L68.3699 149.962L69.8961 146.249L74.7309 146.312L71.0335 137.538L63.1325 156.23ZM96.2604 156.657L86.1726 156.527L86.4722 133.304L96.5599 133.434C103.832 133.528 107.419 137.235 107.325 144.553C107.22 152.712 103.532 156.751 96.2604 156.657ZM90.5325 152.845L95.659 152.911C100.484 152.973 102.938 150.169 103.011 144.494C103.074 139.663 100.687 137.216 95.8623 137.154L90.7358 137.088L90.5325 152.845ZM110.235 145.256C110.337 137.382 114.287 133.496 122.076 133.596C129.746 133.695 133.529 137.681 133.427 145.555C133.326 153.383 129.443 157.253 121.772 157.154C114.327 157.056 110.486 153.089 110.235 145.256ZM121.82 153.41C126.506 153.47 128.884 150.801 128.954 145.398C129.022 140.079 126.713 137.387 122.028 137.326C117.22 137.264 114.784 139.896 114.716 145.215C114.648 150.618 117.015 153.348 121.82 153.41ZM151.394 147.97L151.324 153.405C150.325 153.653 149.431 153.768 148.651 153.758C143.375 153.69 140.777 150.869 140.849 145.293C140.916 140.145 143.746 137.608 149.329 137.68C151.663 137.711 153.826 138.172 155.822 139.065L155.872 135.166C153.877 134.384 151.604 133.973 149.053 133.94C140.7 133.833 136.471 137.594 136.372 145.234C136.268 153.297 140.324 157.389 148.537 157.495C151.363 157.531 153.715 157.149 155.601 156.349L155.757 144.2L148.793 144.11L147.287 147.913L151.395 147.966L151.394 147.97Z" fill="#632CA6"/>
<path d="M117.589 89.1135L107.412 82.2092L98.6641 96.4028L88.7423 93.363L79.8005 106.634L80.1954 110.852L127.99 102.681L125.605 72.8524L117.589 89.1135ZM73.2904 75.6964L80.9549 74.7429C82.1846 75.3151 83.0434 75.5382 84.5225 75.9346C86.8271 76.5654 89.4938 77.1775 93.4811 75.2332C94.4088 74.7881 96.3529 73.0567 97.1418 72.0651L128.558 66.7847L131.256 105.524L77.4328 114.509L73.2904 75.6964ZM131.69 62.5031L128.588 63.0524L123.437 1.56641L22.0097 12.0028L33.1815 113.414L45.0593 111.846C44.1296 110.482 42.6765 108.828 40.1869 106.703C36.7334 103.758 38.03 98.8457 40.1316 95.7606C42.9241 90.5389 57.0499 84.0396 56.3628 75.6278C56.1163 72.5688 55.6834 68.5874 52.881 65.8241C52.7595 66.9546 52.938 68.0443 52.938 68.0443C52.938 68.0443 51.7922 66.5434 51.2388 64.5114C50.6732 63.726 50.2232 63.4732 49.624 62.4268C49.1709 63.6211 49.2113 65.0143 49.2113 65.0143C49.2113 65.0143 48.2874 62.7519 48.1582 60.8498C47.5833 61.6924 47.4205 63.3048 47.4205 63.3048C47.4205 63.3048 46.2293 59.7415 46.536 57.8334C45.9935 56.1633 44.3615 52.8413 44.9309 45.3482C47.9933 47.5527 54.8048 47.127 57.5059 43.2541C58.4017 41.9702 59.0521 38.4462 57.2185 31.459C56.0411 26.9797 53.0696 20.2929 51.91 17.7551L51.7667 17.8563C52.3686 19.8968 53.609 24.1707 54.0802 26.2444C55.5047 32.5261 55.8791 34.7134 55.1359 37.5924C54.5026 40.0954 53.0403 41.7182 49.3642 43.507C45.6881 45.3016 40.8975 40.7563 40.5954 40.5053C37.0826 37.6318 34.396 32.9852 34.1196 30.7389C33.8323 28.2824 35.5841 26.8325 36.4832 24.8387C35.2281 25.1785 33.8274 25.7965 33.8274 25.7965C33.8274 25.7965 35.5124 24.0967 37.5814 22.6354C38.4385 22.0843 38.941 21.7329 39.8452 21.0015C38.5503 20.9634 37.4976 20.9868 37.4976 20.9868C37.4976 20.9868 39.6734 19.8478 41.9228 19.0268C40.2862 18.9337 38.716 18.9737 38.716 18.9737C38.716 18.9737 43.565 16.8791 47.3914 15.3471C50.0229 14.3073 52.5763 14.6573 53.9867 16.7549C55.838 19.5019 57.8007 21.0056 61.9878 21.9757C64.5813 20.8654 65.3707 20.2901 68.6222 19.447C71.5137 16.3468 73.7574 15.9712 73.7574 15.9712C73.7574 15.9712 72.6338 16.9759 72.3156 18.5727C73.9481 17.3197 75.7336 16.2787 75.7336 16.2787C75.7336 16.2787 75.0362 17.1159 74.379 18.4534L74.5239 18.677C76.425 17.5695 78.6535 16.7074 78.6535 16.7074C78.6535 16.7074 78.0092 17.5004 77.2529 18.5274C78.6767 18.5341 81.5599 18.6433 82.6785 18.7842C89.287 19.0153 90.751 11.8294 93.2987 10.9578C96.4892 9.86492 97.9178 9.19672 103.262 14.5836C107.845 19.2099 111.369 27.425 109.542 29.2318C108.011 30.7312 105.059 28.5807 101.81 24.4229C100.094 22.2202 98.8064 19.6263 98.2302 16.3433C97.7446 13.573 95.7349 11.9443 95.7349 11.9443C95.7349 11.9443 96.8777 14.5849 96.8478 16.8973C96.8315 18.1614 96.9281 22.8874 98.9204 25.5663C98.7151 25.9507 98.602 27.4801 98.3765 27.7709C96.0561 24.8913 91.0201 22.7879 90.2013 22.1763C92.9665 24.5014 99.3204 29.843 101.721 34.9177C103.994 39.7145 102.562 44.0668 103.728 45.2119C104.061 45.5391 108.666 51.4339 109.529 54.3764C111.035 59.5037 109.487 64.8543 107.389 68.1573L101.634 68.9778C100.797 68.7336 100.232 68.6096 99.4855 68.1643C99.9111 67.4345 100.759 65.6131 100.772 65.234L100.455 64.6619C98.6347 67.171 95.6099 69.5906 93.1042 70.9705C89.8248 72.7741 86.077 72.4398 83.644 71.6537C76.7403 69.427 70.2448 64.6573 68.6795 63.4059C68.6795 63.4059 68.6182 64.3874 68.9129 64.6129C70.6339 66.6075 74.5923 70.224 78.4323 72.7613L70.1688 73.5631L73.6783 103.986C71.9462 104.21 71.6743 104.329 69.7785 104.573C68.1859 98.657 65.0441 94.7671 61.584 92.4797C58.5328 90.4621 54.295 89.962 50.2239 90.7148L49.9593 91.0148C52.787 90.7576 56.1151 91.209 59.512 93.4216C62.8452 95.5907 65.4835 101.116 66.4386 104.433C67.6618 108.674 68.4865 113.205 64.9862 117.95C62.4977 121.324 55.336 123.113 49.6202 118.968C51.1285 121.465 53.1833 123.517 55.9828 123.934C60.1374 124.554 64.0967 123.881 66.8515 121.126C69.2025 118.769 70.4998 113.795 70.2428 108.536L73.9235 108.05L75.1282 117.5L136.027 110.962L131.69 62.5031ZM95.0264 36.4108C94.8522 36.7956 94.5805 37.0469 94.9649 38.3123L94.9873 38.3846L95.0494 38.5488L95.2118 38.9282C95.9143 40.4136 96.6879 41.8144 98.005 42.5433C98.3481 42.4894 98.7045 42.4551 99.0723 42.4423C100.318 42.4039 101.101 42.6105 101.593 42.8852C101.641 42.6369 101.656 42.2753 101.635 41.7401C101.562 39.8699 102.07 36.6981 98.4994 34.9792C97.152 34.3335 95.2475 34.5015 94.6033 35.2791C94.7179 35.2961 94.8207 35.3208 94.902 35.3491C95.8584 35.694 95.2046 36.0163 95.0264 36.4108ZM104.872 53.9778C104.404 53.7112 102.202 53.7858 100.651 53.9506C97.6983 54.2607 94.5015 55.2407 93.7982 55.7762C92.5175 56.7401 93.0712 58.455 93.9995 59.1692C96.6016 61.1654 98.8873 62.5118 101.321 62.2222C102.815 62.045 104.162 59.699 105.121 57.5679C105.778 56.1 105.799 54.5072 104.872 53.9778ZM78.9655 38.5163C79.8061 37.7375 74.8485 36.6368 70.9561 39.2183C68.0858 41.1225 67.9407 45.2833 70.635 47.6775C70.9042 47.9143 71.1277 48.0826 71.334 48.2214C72.1343 47.8563 73.0454 47.4907 74.0942 47.1658C75.8635 46.6167 77.3337 46.34 78.5396 46.198C79.1236 45.5617 79.8092 44.4366 79.6684 42.3807C79.4749 39.5908 77.361 40.0051 78.9655 38.5163Z" fill="#632CA6"/>
</svg>
