<svg viewBox="0 0 456 279" fill="none" xmlns="http://www.w3.org/2000/svg">
<path d="M22.2 88.1C22.2 88.7075 21.7075 89.2 21.1 89.2C20.4925 89.2 20 88.7075 20 88.1C20 87.4925 20.4925 87 21.1 87C21.7075 87 22.2 87.4925 22.2 88.1Z" fill="#FBFBFB" stroke="#F5F5F5"/>
<path d="M47.7 109.901C47.7 110.508 47.2075 111.001 46.6 111.001C45.9925 111.001 45.5 110.508 45.5 109.901C45.5 109.293 45.9925 108.801 46.6 108.801C47.2075 108.801 47.7 109.293 47.7 109.901Z" fill="#FBFBFB" stroke="#F5F5F5"/>
<path d="M35.2 72.1996C35.2 72.8071 34.7075 73.2996 34.1 73.2996C33.4925 73.2996 33 72.8071 33 72.1996C33 71.5921 33.4925 71.0996 34.1 71.0996C34.7075 71.0996 35.2 71.5921 35.2 72.1996Z" fill="#FBFBFB" stroke="#F5F5F5"/>
<path d="M105.7 100.401C105.7 101.008 105.208 101.501 104.6 101.501C103.992 101.501 103.5 101.008 103.5 100.401C103.5 99.7933 103.992 99.3008 104.6 99.3008C105.208 99.3008 105.7 99.7933 105.7 100.401Z" fill="#FBFBFB" stroke="#F5F5F5"/>
<path d="M84.0003 105.5C84.0003 106.108 83.5078 106.6 82.9003 106.6C82.2928 106.6 81.8003 106.108 81.8003 105.5C81.8003 104.893 82.2928 104.4 82.9003 104.4C83.5078 104.4 84.0003 104.893 84.0003 105.5Z" fill="#FBFBFB" stroke="#F5F5F5"/>
<path d="M75.5003 127.901C75.5003 128.508 75.0078 129.001 74.4003 129.001C73.7928 129.001 73.3003 128.508 73.3003 127.901C73.3003 127.293 73.7928 126.801 74.4003 126.801C75.0078 126.801 75.5003 127.293 75.5003 127.901Z" fill="#FBFBFB" stroke="#F5F5F5"/>
<path d="M98.5003 112.901C98.5003 113.508 98.0078 114.001 97.4003 114.001C96.7928 114.001 96.3003 113.508 96.3003 112.901C96.3003 112.293 96.7928 111.801 97.4003 111.801C98.0078 111.801 98.5003 112.293 98.5003 112.901Z" fill="#FBFBFB" stroke="#F5F5F5"/>
<path d="M107.9 122.3C107.9 123.238 107.139 124 106.2 124C105.261 124 104.5 123.238 104.5 122.3C104.5 121.361 105.261 120.6 106.2 120.6C107.139 120.6 107.9 121.361 107.9 122.3Z" fill="#FBFBFB" stroke="#F5F5F5"/>
<path d="M142.1 112.7C142.1 113.639 141.339 114.4 140.4 114.4C139.461 114.4 138.7 113.639 138.7 112.7C138.7 111.761 139.461 111 140.4 111C141.339 111 142.1 111.761 142.1 112.7Z" fill="#FBFBFB" stroke="#F5F5F5"/>
<path d="M165.1 108.1C165.1 109.039 164.339 109.8 163.4 109.8C162.461 109.8 161.7 109.039 161.7 108.1C161.7 107.162 162.461 106.4 163.4 106.4C164.339 106.4 165.1 107.162 165.1 108.1Z" fill="#FBFBFB" stroke="#F5F5F5"/>
<path d="M115.2 151.501C115.2 152.44 114.439 153.201 113.5 153.201C112.561 153.201 111.8 152.44 111.8 151.501C111.8 150.562 112.561 149.801 113.5 149.801C114.439 149.801 115.2 150.562 115.2 151.501Z" fill="#FBFBFB" stroke="#F5F5F5"/>
<path d="M155.5 121.3C155.5 122.238 154.739 123 153.8 123C152.861 123 152.1 122.238 152.1 121.3C152.1 120.361 152.861 119.6 153.8 119.6C154.739 119.6 155.5 120.361 155.5 121.3Z" fill="#FBFBFB" stroke="#F5F5F5"/>
<path d="M175.8 124.6C175.8 125.539 175.039 126.3 174.1 126.3C173.162 126.3 172.4 125.539 172.4 124.6C172.4 123.662 173.162 122.9 174.1 122.9C175.039 122.9 175.8 123.662 175.8 124.6Z" fill="#FBFBFB" stroke="#F5F5F5"/>
<path d="M114.8 110.4C114.8 111.67 113.77 112.7 112.5 112.7C111.23 112.7 110.2 111.67 110.2 110.4C110.2 109.129 111.23 108.1 112.5 108.1C113.77 108.1 114.8 109.129 114.8 110.4Z" fill="#FBFBFB" stroke="#F5F5F5"/>
<path d="M130.9 108.3C130.9 109.238 130.139 110 129.2 110C128.261 110 127.5 109.238 127.5 108.3C127.5 107.361 128.261 106.6 129.2 106.6C130.139 106.6 130.9 107.361 130.9 108.3Z" fill="#FBFBFB" stroke="#F5F5F5"/>
<path d="M142.6 61.3992C142.6 62.3381 141.839 63.0992 140.9 63.0992C139.961 63.0992 139.2 62.3381 139.2 61.3992C139.2 60.4603 139.961 59.6992 140.9 59.6992C141.839 59.6992 142.6 60.4603 142.6 61.3992Z" fill="#FBFBFB" stroke="#F5F5F5"/>
<path d="M126.9 29.8992C126.9 30.8381 126.139 31.5992 125.2 31.5992C124.261 31.5992 123.5 30.8381 123.5 29.8992C123.5 28.9603 124.261 28.1992 125.2 28.1992C126.139 28.1992 126.9 28.9603 126.9 29.8992Z" fill="#FBFBFB" stroke="#F5F5F5"/>
<path d="M186.8 28.2996C186.8 29.2385 186.039 29.9996 185.1 29.9996C184.162 29.9996 183.4 29.2385 183.4 28.2996C183.4 27.3607 184.162 26.5996 185.1 26.5996C186.039 26.5996 186.8 27.3607 186.8 28.2996Z" fill="#FBFBFB" stroke="#F5F5F5"/>
<path d="M208.4 49.2C208.4 50.1389 207.639 50.9 206.7 50.9C205.761 50.9 205 50.1389 205 49.2C205 48.2611 205.761 47.5 206.7 47.5C207.639 47.5 208.4 48.2611 208.4 49.2Z" fill="#FBFBFB" stroke="#F5F5F5"/>
<path d="M200.2 19.7C200.2 20.6389 199.439 21.4 198.5 21.4C197.561 21.4 196.8 20.6389 196.8 19.7C196.8 18.7611 197.561 18 198.5 18C199.439 18 200.2 18.7611 200.2 19.7Z" fill="#FBFBFB" stroke="#F5F5F5"/>
<path d="M194 39.5008C194 40.4397 193.239 41.2008 192.3 41.2008C191.361 41.2008 190.6 40.4397 190.6 39.5008C190.6 38.5619 191.361 37.8008 192.3 37.8008C193.239 37.8008 194 38.5619 194 39.5008Z" fill="#FBFBFB" stroke="#F5F5F5"/>
<path d="M173.2 68.1004C173.2 69.0393 172.439 69.8004 171.5 69.8004C170.561 69.8004 169.8 69.0393 169.8 68.1004C169.8 67.1615 170.561 66.4004 171.5 66.4004C172.439 66.4004 173.2 67.1615 173.2 68.1004Z" fill="#FBFBFB" stroke="#F5F5F5"/>
<path d="M165.9 38.2C165.9 39.1389 165.139 39.9 164.2 39.9C163.261 39.9 162.5 39.1389 162.5 38.2C162.5 37.2611 163.261 36.5 164.2 36.5C165.139 36.5 165.9 37.2611 165.9 38.2Z" fill="#FBFBFB" stroke="#F5F5F5"/>
<path d="M167.3 13.2996C167.3 14.2385 166.539 14.9996 165.6 14.9996C164.662 14.9996 163.9 14.2385 163.9 13.2996C163.9 12.3607 164.662 11.5996 165.6 11.5996C166.539 11.5996 167.3 12.3607 167.3 13.2996Z" fill="#FBFBFB" stroke="#F5F5F5"/>
<path d="M178.5 55.1004C178.5 56.0393 177.739 56.8004 176.8 56.8004C175.861 56.8004 175.1 56.0393 175.1 55.1004C175.1 54.1615 175.861 53.4004 176.8 53.4004C177.739 53.4004 178.5 54.1615 178.5 55.1004Z" fill="#FBFBFB" stroke="#F5F5F5"/>
<path d="M139.7 21.5008C139.7 22.4397 138.939 23.2008 138 23.2008C137.061 23.2008 136.3 22.4397 136.3 21.5008C136.3 20.5619 137.061 19.8008 138 19.8008C138.939 19.8008 139.7 20.5619 139.7 21.5008Z" fill="#FBFBFB" stroke="#F5F5F5"/>
<path d="M138.6 124.6C138.6 125.539 137.839 126.3 136.9 126.3C135.961 126.3 135.2 125.539 135.2 124.6C135.2 123.662 135.961 122.9 136.9 122.9C137.839 122.9 138.6 123.662 138.6 124.6Z" fill="#FBFBFB" stroke="#F5F5F5"/>
<path d="M136.4 185.1C136.4 186.039 135.639 186.8 134.7 186.8C133.761 186.8 133 186.039 133 185.1C133 184.162 133.761 183.4 134.7 183.4C135.639 183.4 136.4 184.162 136.4 185.1Z" fill="#FBFBFB" stroke="#F5F5F5"/>
<path d="M149.3 195.899C149.3 196.838 148.539 197.599 147.6 197.599C146.662 197.599 145.9 196.838 145.9 195.899C145.9 194.96 146.661 194.199 147.6 194.199C148.539 194.199 149.3 194.96 149.3 195.899Z" fill="#FBFBFB" stroke="#F5F5F5"/>
<path d="M146.3 243.501C146.3 244.44 145.539 245.201 144.6 245.201C143.662 245.201 142.9 244.44 142.9 243.501C142.9 242.562 143.662 241.801 144.6 241.801C145.539 241.801 146.3 242.562 146.3 243.501Z" fill="#FBFBFB" stroke="#F5F5F5"/>
<path d="M164.6 275.7C164.6 276.639 163.839 277.4 162.9 277.4C161.961 277.4 161.2 276.639 161.2 275.7C161.2 274.761 161.961 274 162.9 274C163.839 274 164.6 274.761 164.6 275.7Z" fill="#FBFBFB" stroke="#F5F5F5"/>
<path d="M168.4 189.6C168.4 190.539 167.639 191.3 166.7 191.3C165.761 191.3 165 190.539 165 189.6C165 188.662 165.761 187.9 166.7 187.9C167.639 187.9 168.4 188.662 168.4 189.6Z" fill="#FBFBFB" stroke="#F5F5F5"/>
<path d="M233.5 139.001C233.5 139.94 232.739 140.701 231.8 140.701C230.861 140.701 230.1 139.94 230.1 139.001C230.1 138.062 230.861 137.301 231.8 137.301C232.739 137.301 233.5 138.062 233.5 139.001Z" fill="#FBFBFB" stroke="#F5F5F5"/>
<path d="M217.1 127.2C217.1 128.139 216.339 128.9 215.4 128.9C214.461 128.9 213.7 128.139 213.7 127.2C213.7 126.261 214.461 125.5 215.4 125.5C216.339 125.5 217.1 126.261 217.1 127.2Z" fill="#FBFBFB" stroke="#F5F5F5"/>
<path d="M255.9 142.7C255.9 143.639 255.139 144.4 254.2 144.4C253.261 144.4 252.5 143.639 252.5 142.7C252.5 141.761 253.261 141 254.2 141C255.139 141 255.9 141.761 255.9 142.7Z" fill="#FBFBFB" stroke="#F5F5F5"/>
<path d="M235.7 110.399C235.7 111.338 234.939 112.099 234 112.099C233.061 112.099 232.3 111.338 232.3 110.399C232.3 109.46 233.061 108.699 234 108.699C234.939 108.699 235.7 109.46 235.7 110.399Z" fill="#FBFBFB" stroke="#F5F5F5"/>
<path d="M265 69.2996C265 70.2385 264.239 70.9996 263.3 70.9996C262.361 70.9996 261.6 70.2385 261.6 69.2996C261.6 68.3607 262.361 67.5996 263.3 67.5996C264.239 67.5996 265 68.3607 265 69.2996Z" fill="#FBFBFB" stroke="#F5F5F5"/>
<path d="M260.3 107.001C260.3 107.94 259.539 108.701 258.6 108.701C257.661 108.701 256.9 107.94 256.9 107.001C256.9 106.062 257.661 105.301 258.6 105.301C259.539 105.301 260.3 106.062 260.3 107.001Z" fill="#FBFBFB" stroke="#F5F5F5"/>
<path d="M291.8 74.8992C291.8 75.8381 291.039 76.5992 290.1 76.5992C289.161 76.5992 288.4 75.8381 288.4 74.8992C288.4 73.9603 289.161 73.1992 290.1 73.1992C291.039 73.1992 291.8 73.9603 291.8 74.8992Z" fill="#FBFBFB" stroke="#F5F5F5"/>
<path d="M300.2 36.0008C300.2 36.9397 299.439 37.7008 298.5 37.7008C297.561 37.7008 296.8 36.9397 296.8 36.0008C296.8 35.0619 297.561 34.3008 298.5 34.3008C299.439 34.3008 300.2 35.0619 300.2 36.0008Z" fill="#FBFBFB" stroke="#F5F5F5"/>
<path d="M331.3 70.6004C331.3 71.5393 330.539 72.3004 329.6 72.3004C328.661 72.3004 327.9 71.5393 327.9 70.6004C327.9 69.6615 328.661 68.9004 329.6 68.9004C330.539 68.9004 331.3 69.6615 331.3 70.6004Z" fill="#FBFBFB" stroke="#F5F5F5"/>
<path d="M377.5 64.2996C377.5 65.2385 376.739 65.9996 375.8 65.9996C374.861 65.9996 374.1 65.2385 374.1 64.2996C374.1 63.3607 374.861 62.5996 375.8 62.5996C376.739 62.5996 377.5 63.3607 377.5 64.2996Z" fill="#FBFBFB" stroke="#F5F5F5"/>
<path d="M398.6 140.501C398.6 141.44 397.839 142.201 396.9 142.201C395.961 142.201 395.2 141.44 395.2 140.501C395.2 139.562 395.961 138.801 396.9 138.801C397.839 138.801 398.6 139.562 398.6 140.501Z" fill="#FBFBFB" stroke="#F5F5F5"/>
<path d="M369.6 84.8992C369.6 85.8381 368.839 86.5992 367.9 86.5992C366.961 86.5992 366.2 85.8381 366.2 84.8992C366.2 83.9603 366.961 83.1992 367.9 83.1992C368.839 83.1992 369.6 83.9603 369.6 84.8992Z" fill="#FBFBFB" stroke="#F5F5F5"/>
<path d="M311.7 155.001C311.7 155.94 310.939 156.701 310 156.701C309.061 156.701 308.3 155.94 308.3 155.001C308.3 154.062 309.061 153.301 310 153.301C310.939 153.301 311.7 154.062 311.7 155.001Z" fill="#FBFBFB" stroke="#F5F5F5"/>
<path d="M356.2 158.001C356.2 158.94 355.439 159.701 354.5 159.701C353.561 159.701 352.8 158.94 352.8 158.001C352.8 157.062 353.561 156.301 354.5 156.301C355.439 156.301 356.2 157.062 356.2 158.001Z" fill="#FBFBFB" stroke="#F5F5F5"/>
<path d="M372.3 175.7C372.3 176.639 371.539 177.4 370.6 177.4C369.661 177.4 368.9 176.639 368.9 175.7C368.9 174.761 369.661 174 370.6 174C371.539 174 372.3 174.761 372.3 175.7Z" fill="#FBFBFB" stroke="#F5F5F5"/>
<path d="M369 160.8C369 161.738 368.239 162.5 367.3 162.5C366.361 162.5 365.6 161.738 365.6 160.8C365.6 159.861 366.361 159.1 367.3 159.1C368.239 159.1 369 159.861 369 160.8Z" fill="#FBFBFB" stroke="#F5F5F5"/>
<path d="M404.1 197.7C404.1 198.639 403.339 199.4 402.4 199.4C401.461 199.4 400.7 198.639 400.7 197.7C400.7 196.761 401.461 196 402.4 196C403.339 196 404.1 196.761 404.1 197.7Z" fill="#FBFBFB" stroke="#F5F5F5"/>
<path d="M422 223.7C422 224.639 421.239 225.4 420.3 225.4C419.361 225.4 418.6 224.639 418.6 223.7C418.6 222.761 419.361 222 420.3 222C421.239 222 422 222.761 422 223.7Z" fill="#FBFBFB" stroke="#F5F5F5"/>
<path d="M449.9 228.501C449.9 229.44 449.139 230.201 448.2 230.201C447.261 230.201 446.5 229.44 446.5 228.501C446.5 227.562 447.261 226.801 448.2 226.801C449.139 226.801 449.9 227.562 449.9 228.501Z" fill="#FBFBFB" stroke="#F5F5F5"/>
<path d="M455.3 243.1C455.3 244.592 454.092 245.8 452.6 245.8C451.109 245.8 449.9 244.592 449.9 243.1C449.9 241.609 451.109 240.4 452.6 240.4C454.092 240.4 455.3 241.609 455.3 243.1Z" fill="#FBFBFB" stroke="#F5F5F5"/>
<path d="M436.6 266.8C436.6 267.738 435.839 268.5 434.9 268.5C433.961 268.5 433.2 267.738 433.2 266.8C433.2 265.861 433.961 265.1 434.9 265.1C435.839 265.1 436.6 265.861 436.6 266.8Z" fill="#FBFBFB" stroke="#F5F5F5"/>
<path d="M366.1 188.2C366.1 189.139 365.339 189.9 364.4 189.9C363.461 189.9 362.7 189.139 362.7 188.2C362.7 187.261 363.461 186.5 364.4 186.5C365.339 186.5 366.1 187.261 366.1 188.2Z" fill="#FBFBFB" stroke="#F5F5F5"/>
<path d="M371.6 220.399C371.6 221.338 370.839 222.099 369.9 222.099C368.961 222.099 368.2 221.338 368.2 220.399C368.2 219.46 368.961 218.699 369.9 218.699C370.839 218.699 371.6 219.46 371.6 220.399Z" fill="#FBFBFB" stroke="#F5F5F5"/>
<path d="M307.9 105.6C307.9 106.539 307.139 107.3 306.2 107.3C305.261 107.3 304.5 106.539 304.5 105.6C304.5 104.662 305.261 103.9 306.2 103.9C307.139 103.9 307.9 104.662 307.9 105.6Z" fill="#FBFBFB" stroke="#F5F5F5"/>
<path d="M339.7 130.899C339.7 131.838 338.939 132.599 338 132.599C337.061 132.599 336.3 131.838 336.3 130.899C336.3 129.96 337.061 129.199 338 129.199C338.939 129.199 339.7 129.96 339.7 130.899Z" fill="#FBFBFB" stroke="#F5F5F5"/>
<path d="M386.4 195.6C386.4 196.539 385.639 197.3 384.7 197.3C383.761 197.3 383 196.539 383 195.6C383 194.662 383.761 193.9 384.7 193.9C385.639 193.9 386.4 194.662 386.4 195.6Z" fill="#FBFBFB" stroke="#F5F5F5"/>
<path d="M383.6 209.6C383.6 210.539 382.839 211.3 381.9 211.3C380.961 211.3 380.2 210.539 380.2 209.6C380.2 208.662 380.961 207.9 381.9 207.9C382.839 207.9 383.6 208.662 383.6 209.6Z" fill="#FBFBFB" stroke="#F5F5F5"/>
<path d="M408.6 219.8C408.6 220.738 407.839 221.5 406.9 221.5C405.961 221.5 405.2 220.738 405.2 219.8C405.2 218.861 405.961 218.1 406.9 218.1C407.839 218.1 408.6 218.861 408.6 219.8Z" fill="#FBFBFB" stroke="#F5F5F5"/>
<path d="M438.8 244.7C438.8 245.639 438.039 246.4 437.1 246.4C436.161 246.4 435.4 245.639 435.4 244.7C435.4 243.761 436.161 243 437.1 243C438.039 243 438.8 243.761 438.8 244.7Z" fill="#FBFBFB" stroke="#F5F5F5"/>
<path d="M404.7 232.501C404.7 233.44 403.939 234.201 403 234.201C402.061 234.201 401.3 233.44 401.3 232.501C401.3 231.562 402.061 230.801 403 230.801C403.939 230.801 404.7 231.562 404.7 232.501Z" fill="#FBFBFB" stroke="#F5F5F5"/>
<path d="M390.5 217.6C390.5 218.208 390.008 218.7 389.4 218.7C388.793 218.7 388.3 218.208 388.3 217.6C388.3 216.992 388.793 216.5 389.4 216.5C390.008 216.5 390.5 216.992 390.5 217.6Z" fill="#FBFBFB" stroke="#F5F5F5"/>
<path d="M401.8 208.799C401.8 209.407 401.308 209.899 400.7 209.899C400.093 209.899 399.6 209.407 399.6 208.799C399.6 208.192 400.093 207.699 400.7 207.699C401.308 207.699 401.8 208.192 401.8 208.799Z" fill="#FBFBFB" stroke="#F5F5F5"/>
<path d="M417.7 210.401C417.7 211.008 417.208 211.501 416.6 211.501C415.992 211.501 415.5 211.008 415.5 210.401C415.5 209.793 415.992 209.301 416.6 209.301C417.208 209.301 417.7 209.793 417.7 210.401Z" fill="#FBFBFB" stroke="#F5F5F5"/>
<path d="M435.5 231.5C435.5 232.108 435.008 232.6 434.4 232.6C433.793 232.6 433.3 232.108 433.3 231.5C433.3 230.893 433.793 230.4 434.4 230.4C435.008 230.4 435.5 230.893 435.5 231.5Z" fill="#FBFBFB" stroke="#F5F5F5"/>
<path d="M420.2 263.7C420.2 264.307 419.708 264.8 419.1 264.8C418.492 264.8 418 264.307 418 263.7C418 263.092 418.492 262.6 419.1 262.6C419.708 262.6 420.2 263.092 420.2 263.7Z" fill="#FBFBFB" stroke="#F5F5F5"/>
<path d="M331.3 147.7C331.3 148.639 330.539 149.4 329.6 149.4C328.661 149.4 327.9 148.639 327.9 147.7C327.9 146.761 328.661 146 329.6 146C330.539 146 331.3 146.761 331.3 147.7Z" fill="#FBFBFB" stroke="#F5F5F5"/>
<path d="M388.9 181.901C388.9 183.337 387.736 184.501 386.3 184.501C384.864 184.501 383.7 183.337 383.7 181.901C383.7 180.465 384.864 179.301 386.3 179.301C387.736 179.301 388.9 180.465 388.9 181.901Z" fill="#FBFBFB" stroke="#F5F5F5"/>
<path d="M385.8 231.6C385.8 233.036 384.636 234.2 383.2 234.2C381.764 234.2 380.6 233.036 380.6 231.6C380.6 230.164 381.764 229 383.2 229C384.636 229 385.8 230.164 385.8 231.6Z" fill="#FBFBFB" stroke="#F5F5F5"/>
<path d="M339.7 164.3C339.7 165.238 338.939 166 338 166C337.061 166 336.3 165.238 336.3 164.3C336.3 163.361 337.061 162.6 338 162.6C338.939 162.6 339.7 163.361 339.7 164.3Z" fill="#FBFBFB" stroke="#F5F5F5"/>
<path d="M345.5 186.001C345.5 186.94 344.739 187.701 343.8 187.701C342.861 187.701 342.1 186.94 342.1 186.001C342.1 185.062 342.861 184.301 343.8 184.301C344.739 184.301 345.5 185.062 345.5 186.001Z" fill="#FBFBFB" stroke="#F5F5F5"/>
<path d="M351.4 142.7C351.4 143.639 350.639 144.4 349.7 144.4C348.761 144.4 348 143.639 348 142.7C348 141.761 348.761 141 349.7 141C350.639 141 351.4 141.761 351.4 142.7Z" fill="#FBFBFB" stroke="#F5F5F5"/>
<path d="M407.1 88.2C407.1 89.1389 406.339 89.9 405.4 89.9C404.461 89.9 403.7 89.1389 403.7 88.2C403.7 87.2611 404.461 86.5 405.4 86.5C406.339 86.5 407.1 87.2611 407.1 88.2Z" fill="#FBFBFB" stroke="#F5F5F5"/>
<path d="M454.6 68.2996C454.6 69.2385 453.839 69.9996 452.9 69.9996C451.961 69.9996 451.2 69.2385 451.2 68.2996C451.2 67.3607 451.961 66.5996 452.9 66.5996C453.839 66.5996 454.6 67.3607 454.6 68.2996Z" fill="#FBFBFB" stroke="#F5F5F5"/>
<path d="M401.9 116.2C401.9 117.139 401.139 117.9 400.2 117.9C399.261 117.9 398.5 117.139 398.5 116.2C398.5 115.261 399.261 114.5 400.2 114.5C401.139 114.5 401.9 115.261 401.9 116.2Z" fill="#FBFBFB" stroke="#F5F5F5"/>
<path d="M264.9 129.7C264.9 130.639 264.139 131.4 263.2 131.4C262.261 131.4 261.5 130.639 261.5 129.7C261.5 128.761 262.261 128 263.2 128C264.139 128 264.9 128.761 264.9 129.7Z" fill="#FBFBFB" stroke="#F5F5F5"/>
<path d="M273.7 147.7C273.7 148.639 272.939 149.4 272 149.4C271.061 149.4 270.3 148.639 270.3 147.7C270.3 146.761 271.061 146 272 146C272.939 146 273.7 146.761 273.7 147.7Z" fill="#FBFBFB" stroke="#F5F5F5"/>
<path d="M289.6 158.001C289.6 158.94 288.839 159.701 287.9 159.701C286.961 159.701 286.2 158.94 286.2 158.001C286.2 157.062 286.961 156.301 287.9 156.301C288.839 156.301 289.6 157.062 289.6 158.001Z" fill="#FBFBFB" stroke="#F5F5F5"/>
<path d="M156.7 227.6C156.7 228.539 155.939 229.3 155 229.3C154.061 229.3 153.3 228.539 153.3 227.6C153.3 226.662 154.061 225.9 155 225.9C155.939 225.9 156.7 226.662 156.7 227.6Z" fill="#FBFBFB" stroke="#F5F5F5"/>
<path d="M188.1 188.7C188.1 189.639 187.339 190.4 186.4 190.4C185.461 190.4 184.7 189.639 184.7 188.7C184.7 187.761 185.461 187 186.4 187C187.339 187 188.1 187.761 188.1 188.7Z" fill="#FBFBFB" stroke="#F5F5F5"/>
<path d="M211.3 174.1C211.3 175.039 210.539 175.8 209.6 175.8C208.661 175.8 207.9 175.039 207.9 174.1C207.9 173.162 208.662 172.4 209.6 172.4C210.539 172.4 211.3 173.162 211.3 174.1Z" fill="#FBFBFB" stroke="#F5F5F5"/>
<path d="M246.9 173.6C246.9 174.539 246.139 175.3 245.2 175.3C244.261 175.3 243.5 174.539 243.5 173.6C243.5 172.662 244.261 171.9 245.2 171.9C246.139 171.9 246.9 172.662 246.9 173.6Z" fill="#FBFBFB" stroke="#F5F5F5"/>
<path d="M273.7 189.2C273.7 190.139 272.939 190.9 272 190.9C271.061 190.9 270.3 190.139 270.3 189.2C270.3 188.261 271.061 187.5 272 187.5C272.939 187.5 273.7 188.261 273.7 189.2Z" fill="#FBFBFB" stroke="#F5F5F5"/>
<path d="M288.5 224.899C288.5 225.838 287.739 226.599 286.8 226.599C285.861 226.599 285.1 225.838 285.1 224.899C285.1 223.96 285.861 223.199 286.8 223.199C287.739 223.199 288.5 223.96 288.5 224.899Z" fill="#FBFBFB" stroke="#F5F5F5"/>
<path d="M24.9001 73.4C24.9001 74.1732 24.2733 74.8 23.5001 74.8C22.7269 74.8 22.1001 74.1732 22.1001 73.4C22.1001 72.6268 22.7269 72 23.5001 72C24.2733 72 24.9001 72.6268 24.9001 73.4Z" fill="#FBFBFB" stroke="#F5F5F5"/>
<path d="M38.1003 97.3004C38.1003 98.0736 37.4735 98.7004 36.7003 98.7004C35.9271 98.7004 35.3003 98.0736 35.3003 97.3004C35.3003 96.5272 35.9271 95.9004 36.7003 95.9004C37.4735 95.9004 38.1003 96.5272 38.1003 97.3004Z" fill="#FBFBFB" stroke="#F5F5F5"/>
<path d="M63.8 77.9C63.8 78.6732 63.1732 79.3 62.4 79.3C61.6268 79.3 61 78.6732 61 77.9C61 77.1268 61.6268 76.5 62.4 76.5C63.1732 76.5 63.8 77.1268 63.8 77.9Z" fill="#FBFBFB" stroke="#F5F5F5"/>
<path d="M96.9001 93.0992C96.9001 93.8724 96.2733 94.4992 95.5001 94.4992C94.7269 94.4992 94.1001 93.8724 94.1001 93.0992C94.1001 92.326 94.7269 91.6992 95.5001 91.6992C96.2733 91.6992 96.9001 92.326 96.9001 93.0992Z" fill="#FBFBFB" stroke="#F5F5F5"/>
<path d="M100.4 139C100.4 139.773 99.7733 140.4 99.0001 140.4C98.2269 140.4 97.6001 139.773 97.6001 139C97.6001 138.226 98.2269 137.6 99.0001 137.6C99.7733 137.6 100.4 138.226 100.4 139Z" fill="#FBFBFB" stroke="#F5F5F5"/>
<path d="M120.6 170.4C120.6 171.173 119.973 171.8 119.2 171.8C118.427 171.8 117.8 171.173 117.8 170.4C117.8 169.627 118.427 169 119.2 169C119.973 169 120.6 169.627 120.6 170.4Z" fill="#FBFBFB" stroke="#F5F5F5"/>
<path d="M74.5002 65.3004C74.5002 66.0736 73.8734 66.7004 73.1002 66.7004C72.327 66.7004 71.7002 66.0736 71.7002 65.3004C71.7002 64.5272 72.327 63.9004 73.1002 63.9004C73.8734 63.9004 74.5002 64.5272 74.5002 65.3004Z" fill="#FBFBFB" stroke="#F5F5F5"/>
<path d="M89.0003 53.6C89.0003 54.7598 88.0601 55.7 86.9003 55.7C85.7405 55.7 84.8003 54.7598 84.8003 53.6C84.8003 52.4402 85.7405 51.5 86.9003 51.5C88.0601 51.5 89.0003 52.4402 89.0003 53.6Z" fill="#FBFBFB" stroke="#F5F5F5"/>
<path d="M104.5 83.3004C104.5 84.0736 103.873 84.7004 103.1 84.7004C102.327 84.7004 101.7 84.0736 101.7 83.3004C101.7 82.5272 102.327 81.9004 103.1 81.9004C103.873 81.9004 104.5 82.5272 104.5 83.3004Z" fill="#FBFBFB" stroke="#F5F5F5"/>
<path d="M96.9001 64.2008C96.9001 64.974 96.2733 65.6008 95.5001 65.6008C94.7269 65.6008 94.1001 64.974 94.1001 64.2008C94.1001 63.4276 94.7269 62.8008 95.5001 62.8008C96.2733 62.8008 96.9001 63.4276 96.9001 64.2008Z" fill="#FBFBFB" stroke="#F5F5F5"/>
<path d="M138 38.9C138 39.6732 137.373 40.3 136.6 40.3C135.827 40.3 135.2 39.6732 135.2 38.9C135.2 38.1268 135.827 37.5 136.6 37.5C137.373 37.5 138 38.1268 138 38.9Z" fill="#FBFBFB" stroke="#F5F5F5"/>
<path d="M173.7 27.9996C173.7 28.7728 173.074 29.3996 172.3 29.3996C171.527 29.3996 170.9 28.7728 170.9 27.9996C170.9 27.2264 171.527 26.5996 172.3 26.5996C173.074 26.5996 173.7 27.2264 173.7 27.9996Z" fill="#FBFBFB" stroke="#F5F5F5"/>
<path d="M151.3 36.8004C151.3 37.5736 150.673 38.2004 149.9 38.2004C149.127 38.2004 148.5 37.5736 148.5 36.8004C148.5 36.0272 149.127 35.4004 149.9 35.4004C150.673 35.4004 151.3 36.0272 151.3 36.8004Z" fill="#FBFBFB" stroke="#F5F5F5"/>
<path d="M172.8 1.9C172.8 2.6732 172.173 3.3 171.4 3.3C170.627 3.3 170 2.6732 170 1.9C170 1.1268 170.627 0.5 171.4 0.5C172.173 0.5 172.8 1.12681 172.8 1.9Z" fill="#FBFBFB" stroke="#F5F5F5"/>
<path d="M83.0002 91.5992C83.0002 92.3724 82.3734 92.9992 81.6002 92.9992C80.827 92.9992 80.2002 92.3724 80.2002 91.5992C80.2002 90.826 80.827 90.1992 81.6002 90.1992C82.3734 90.1992 83.0002 90.826 83.0002 91.5992Z" fill="#FBFBFB" stroke="#F5F5F5"/>
<path d="M47.3004 58.6004C47.3004 58.987 46.987 59.3004 46.6004 59.3004C46.2138 59.3004 45.9004 58.987 45.9004 58.6004C45.9004 58.2138 46.2138 57.9004 46.6004 57.9004C46.987 57.9004 47.3004 58.2138 47.3004 58.6004Z" fill="#FBFBFB" stroke="#F5F5F5"/>
<path d="M59.6002 97.2996C59.6002 97.9623 59.0629 98.4996 58.4002 98.4996C57.7375 98.4996 57.2002 97.9623 57.2002 97.2996C57.2002 96.6369 57.7375 96.0996 58.4002 96.0996C59.0629 96.0996 59.6002 96.6369 59.6002 97.2996Z" fill="#FBFBFB" stroke="#F5F5F5"/>
<path d="M34.7003 117.3C34.7003 118.791 33.4915 120 32.0003 120C30.5091 120 29.3003 118.791 29.3003 117.3C29.3003 115.808 30.5091 114.6 32.0003 114.6C33.4915 114.6 34.7003 115.808 34.7003 117.3Z" fill="#FBFBFB" stroke="#F5F5F5"/>
<path d="M47.0001 70.6004C47.0001 70.987 46.6867 71.3004 46.3001 71.3004C45.9135 71.3004 45.6001 70.987 45.6001 70.6004C45.6001 70.2138 45.9135 69.9004 46.3001 69.9004C46.6867 69.9004 47.0001 70.2138 47.0001 70.6004Z" fill="#FBFBFB" stroke="#F5F5F5"/>
<path d="M58.7004 64.4996C58.7004 65.2728 58.0736 65.8996 57.3004 65.8996C56.5272 65.8996 55.9004 65.2728 55.9004 64.4996C55.9004 63.7264 56.5272 63.0996 57.3004 63.0996C58.0736 63.0996 58.7004 63.7264 58.7004 64.4996Z" fill="#FBFBFB" stroke="#F5F5F5"/>
<path d="M86.4 71.6004C86.4 71.987 86.0866 72.3004 85.7 72.3004C85.3134 72.3004 85 71.987 85 71.6004C85 71.2138 85.3134 70.9004 85.7 70.9004C86.0866 70.9004 86.4 71.2138 86.4 71.6004Z" fill="#FBFBFB" stroke="#F5F5F5"/>
<path d="M99.7003 50.8992C99.7003 51.2858 99.3869 51.5992 99.0003 51.5992C98.6137 51.5992 98.3003 51.2858 98.3003 50.8992C98.3003 50.5126 98.6137 50.1992 99.0003 50.1992C99.3869 50.1992 99.7003 50.5126 99.7003 50.8992Z" fill="#FBFBFB" stroke="#F5F5F5"/>
<path d="M96.6002 74.7C96.6002 75.0866 96.2868 75.4 95.9002 75.4C95.5136 75.4 95.2002 75.0866 95.2002 74.7C95.2002 74.3134 95.5136 74 95.9002 74C96.2868 74 96.6002 74.3134 96.6002 74.7Z" fill="#FBFBFB" stroke="#F5F5F5"/>
<path d="M110.4 69.4992C110.4 70.2172 109.818 70.7992 109.1 70.7992C108.382 70.7992 107.8 70.2172 107.8 69.4992C107.8 68.7812 108.382 68.1992 109.1 68.1992C109.818 68.1992 110.4 68.7813 110.4 69.4992Z" fill="#FBFBFB" stroke="#F5F5F5"/>
<path d="M132.2 82.7004C132.2 83.4184 131.618 84.0004 130.9 84.0004C130.182 84.0004 129.6 83.4184 129.6 82.7004C129.6 81.9824 130.182 81.4004 130.9 81.4004C131.618 81.4004 132.2 81.9824 132.2 82.7004Z" fill="#FBFBFB" stroke="#F5F5F5"/>
<path d="M91.8 81.9996C91.8 83.0489 90.9493 83.8996 89.9 83.8996C88.8507 83.8996 88 83.0489 88 81.9996C88 80.9503 88.8507 80.0996 89.9 80.0996C90.9493 80.0996 91.8 80.9503 91.8 81.9996Z" fill="#FBFBFB" stroke="#F5F5F5"/>
<path d="M87.1002 117.3C87.1002 117.686 86.7868 118 86.4002 118C86.0136 118 85.7002 117.686 85.7002 117.3C85.7002 116.913 86.0136 116.6 86.4002 116.6C86.7868 116.6 87.1002 116.913 87.1002 117.3Z" fill="#FBFBFB" stroke="#F5F5F5"/>
<path d="M76.3004 79.2996C76.3004 79.6862 75.987 79.9996 75.6004 79.9996C75.2138 79.9996 74.9004 79.6862 74.9004 79.2996C74.9004 78.913 75.2138 78.5996 75.6004 78.5996C75.987 78.5996 76.3004 78.913 76.3004 79.2996Z" fill="#FBFBFB" stroke="#F5F5F5"/>
<path d="M113.2 93.1004C113.2 93.487 112.887 93.8004 112.5 93.8004C112.114 93.8004 111.8 93.487 111.8 93.1004C111.8 92.7138 112.114 92.4004 112.5 92.4004C112.887 92.4004 113.2 92.7138 113.2 93.1004Z" fill="#FBFBFB" stroke="#F5F5F5"/>
<path d="M129.2 56.0008C129.2 56.3874 128.887 56.7008 128.5 56.7008C128.114 56.7008 127.8 56.3874 127.8 56.0008C127.8 55.6142 128.114 55.3008 128.5 55.3008C128.887 55.3008 129.2 55.6142 129.2 56.0008Z" fill="#FBFBFB" stroke="#F5F5F5"/>
<path d="M114.3 22.8992C114.3 23.2858 113.987 23.5992 113.6 23.5992C113.214 23.5992 112.9 23.2858 112.9 22.8992C112.9 22.5126 113.214 22.1992 113.6 22.1992C113.987 22.1992 114.3 22.5126 114.3 22.8992Z" fill="#FBFBFB" stroke="#F5F5F5"/>
<path d="M152 12.7008C152 13.1978 151.597 13.6008 151.1 13.6008C150.603 13.6008 150.2 13.1978 150.2 12.7008C150.2 12.2037 150.603 11.8008 151.1 11.8008C151.597 11.8008 152 12.2037 152 12.7008Z" fill="#FBFBFB" stroke="#F5F5F5"/>
<path d="M177.5 15.5008C177.5 15.8874 177.187 16.2008 176.8 16.2008C176.414 16.2008 176.1 15.8874 176.1 15.5008C176.1 15.1142 176.414 14.8008 176.8 14.8008C177.187 14.8008 177.5 15.1142 177.5 15.5008Z" fill="#FBFBFB" stroke="#F5F5F5"/>
<path d="M178.1 42.2996C178.1 42.6862 177.787 42.9996 177.4 42.9996C177.014 42.9996 176.7 42.6862 176.7 42.2996C176.7 41.913 177.014 41.5996 177.4 41.5996C177.787 41.5996 178.1 41.913 178.1 42.2996Z" fill="#FBFBFB" stroke="#F5F5F5"/>
<path d="M186.9 50.0008C186.9 50.3874 186.587 50.7008 186.2 50.7008C185.813 50.7008 185.5 50.3874 185.5 50.0008C185.5 49.6142 185.813 49.3008 186.2 49.3008C186.587 49.3008 186.9 49.6142 186.9 50.0008Z" fill="#FBFBFB" stroke="#F5F5F5"/>
<path d="M202.6 77.0008C202.6 77.3874 202.287 77.7008 201.9 77.7008C201.514 77.7008 201.2 77.3874 201.2 77.0008C201.2 76.6142 201.514 76.3008 201.9 76.3008C202.287 76.3008 202.6 76.6142 202.6 77.0008Z" fill="#FBFBFB" stroke="#F5F5F5"/>
<path d="M197.5 122.3C197.5 122.686 197.187 123 196.8 123C196.414 123 196.1 122.686 196.1 122.3C196.1 121.913 196.414 121.6 196.8 121.6C197.187 121.6 197.5 121.913 197.5 122.3Z" fill="#FBFBFB" stroke="#F5F5F5"/>
<path d="M180.9 82.7C180.9 83.0866 180.587 83.4 180.2 83.4C179.813 83.4 179.5 83.0866 179.5 82.7C179.5 82.3134 179.813 82 180.2 82C180.587 82 180.9 82.3134 180.9 82.7Z" fill="#FBFBFB" stroke="#F5F5F5"/>
<path d="M172.6 85.8992C172.6 86.2858 172.287 86.5992 171.9 86.5992C171.514 86.5992 171.2 86.2858 171.2 85.8992C171.2 85.5126 171.514 85.1992 171.9 85.1992C172.287 85.1992 172.6 85.5126 172.6 85.8992Z" fill="#FBFBFB" stroke="#F5F5F5"/>
<path d="M157.4 24.7C157.4 25.0866 157.087 25.4 156.7 25.4C156.313 25.4 156 25.0866 156 24.7C156 24.3134 156.313 24 156.7 24C157.087 24 157.4 24.3134 157.4 24.7Z" fill="#FBFBFB" stroke="#F5F5F5"/>
<path d="M189.2 14.8992C189.2 15.2858 188.887 15.5992 188.5 15.5992C188.114 15.5992 187.8 15.2858 187.8 14.8992C187.8 14.5126 188.114 14.1992 188.5 14.1992C188.887 14.1992 189.2 14.5126 189.2 14.8992Z" fill="#FBFBFB" stroke="#F5F5F5"/>
<path d="M228.3 14.1004C228.3 14.487 227.987 14.8004 227.6 14.8004C227.214 14.8004 226.9 14.487 226.9 14.1004C226.9 13.7138 227.214 13.4004 227.6 13.4004C227.987 13.4004 228.3 13.7138 228.3 14.1004Z" fill="#FBFBFB" stroke="#F5F5F5"/>
<path d="M239.1 36.0008C239.1 36.3874 238.787 36.7008 238.4 36.7008C238.014 36.7008 237.7 36.3874 237.7 36.0008C237.7 35.6142 238.014 35.3008 238.4 35.3008C238.787 35.3008 239.1 35.6142 239.1 36.0008Z" fill="#FBFBFB" stroke="#F5F5F5"/>
<path d="M96.2003 127.899C96.2003 128.286 95.8869 128.599 95.5003 128.599C95.1137 128.599 94.8003 128.286 94.8003 127.899C94.8003 127.513 95.1137 127.199 95.5003 127.199C95.8869 127.199 96.2003 127.513 96.2003 127.899Z" fill="#FBFBFB" stroke="#F5F5F5"/>
<path d="M112 134.899C112 135.286 111.687 135.599 111.3 135.599C110.914 135.599 110.6 135.286 110.6 134.899C110.6 134.513 110.914 134.199 111.3 134.199C111.687 134.199 112 134.513 112 134.899Z" fill="#FBFBFB" stroke="#F5F5F5"/>
<path d="M103.7 158.399C103.7 158.786 103.387 159.099 103 159.099C102.614 159.099 102.3 158.786 102.3 158.399C102.3 158.013 102.614 157.699 103 157.699C103.387 157.699 103.7 158.013 103.7 158.399Z" fill="#FBFBFB" stroke="#F5F5F5"/>
<path d="M138 170.401C138 171.008 137.508 171.501 136.9 171.501C136.293 171.501 135.8 171.008 135.8 170.401C135.8 169.793 136.293 169.301 136.9 169.301C137.508 169.301 138 169.793 138 170.401Z" fill="#FBFBFB" stroke="#F5F5F5"/>
<path d="M120 121.3C120 121.686 119.687 122 119.3 122C118.914 122 118.6 121.686 118.6 121.3C118.6 120.913 118.914 120.6 119.3 120.6C119.687 120.6 120 120.913 120 121.3Z" fill="#FBFBFB" stroke="#F5F5F5"/>
<path d="M141.1 137.001C141.1 137.387 140.787 137.701 140.4 137.701C140.014 137.701 139.7 137.387 139.7 137.001C139.7 136.614 140.014 136.301 140.4 136.301C140.787 136.301 141.1 136.614 141.1 137.001Z" fill="#FBFBFB" stroke="#F5F5F5"/>
<path d="M132.8 150.3C132.8 150.686 132.487 151 132.1 151C131.714 151 131.4 150.686 131.4 150.3C131.4 149.913 131.714 149.6 132.1 149.6C132.487 149.6 132.8 149.913 132.8 150.3Z" fill="#FBFBFB" stroke="#F5F5F5"/>
<path d="M150.5 182.899C150.5 183.286 150.187 183.599 149.8 183.599C149.414 183.599 149.1 183.286 149.1 182.899C149.1 182.513 149.413 182.199 149.8 182.199C150.187 182.199 150.5 182.513 150.5 182.899Z" fill="#FBFBFB" stroke="#F5F5F5"/>
<path d="M168.9 179.399C168.9 179.786 168.587 180.099 168.2 180.099C167.813 180.099 167.5 179.786 167.5 179.399C167.5 179.013 167.813 178.699 168.2 178.699C168.587 178.699 168.9 179.013 168.9 179.399Z" fill="#FBFBFB" stroke="#F5F5F5"/>
<path d="M228.7 174.399C228.7 174.786 228.387 175.099 228 175.099C227.614 175.099 227.3 174.786 227.3 174.399C227.3 174.013 227.614 173.699 228 173.699C228.387 173.699 228.7 174.013 228.7 174.399Z" fill="#FBFBFB" stroke="#F5F5F5"/>
<path d="M245.9 204.7C245.9 205.087 245.587 205.4 245.2 205.4C244.813 205.4 244.5 205.087 244.5 204.7C244.5 204.313 244.813 204 245.2 204C245.587 204 245.9 204.313 245.9 204.7Z" fill="#FBFBFB" stroke="#F5F5F5"/>
<path d="M291.5 237.2C291.5 237.587 291.187 237.9 290.8 237.9C290.413 237.9 290.1 237.587 290.1 237.2C290.1 236.813 290.414 236.5 290.8 236.5C291.187 236.5 291.5 236.813 291.5 237.2Z" fill="#FBFBFB" stroke="#F5F5F5"/>
<path d="M164.8 201.001C164.8 201.387 164.487 201.701 164.1 201.701C163.714 201.701 163.4 201.387 163.4 201.001C163.4 200.614 163.714 200.301 164.1 200.301C164.487 200.301 164.8 200.614 164.8 201.001Z" fill="#FBFBFB" stroke="#F5F5F5"/>
<path d="M180.9 201.001C180.9 201.387 180.587 201.701 180.2 201.701C179.813 201.701 179.5 201.387 179.5 201.001C179.5 200.614 179.813 200.301 180.2 200.301C180.587 200.301 180.9 200.614 180.9 201.001Z" fill="#FBFBFB" stroke="#F5F5F5"/>
<path d="M179.7 223.6C179.7 223.987 179.387 224.3 179 224.3C178.614 224.3 178.3 223.987 178.3 223.6C178.3 223.214 178.614 222.9 179 222.9C179.387 222.9 179.7 223.214 179.7 223.6Z" fill="#FBFBFB" stroke="#F5F5F5"/>
<path d="M139.9 228.399C139.9 228.786 139.587 229.099 139.2 229.099C138.813 229.099 138.5 228.786 138.5 228.399C138.5 228.013 138.813 227.699 139.2 227.699C139.587 227.699 139.9 228.013 139.9 228.399Z" fill="#FBFBFB" stroke="#F5F5F5"/>
<path d="M163.6 244.1C163.6 244.487 163.287 244.8 162.9 244.8C162.514 244.8 162.2 244.487 162.2 244.1C162.2 243.714 162.514 243.4 162.9 243.4C163.287 243.4 163.6 243.714 163.6 244.1Z" fill="#FBFBFB" stroke="#F5F5F5"/>
<path d="M149.3 276.899C149.3 277.286 148.987 277.599 148.6 277.599C148.214 277.599 147.9 277.286 147.9 276.899C147.9 276.513 148.214 276.199 148.6 276.199C148.987 276.199 149.3 276.513 149.3 276.899Z" fill="#FBFBFB" stroke="#F5F5F5"/>
<path d="M121.9 101.501C121.9 101.887 121.587 102.201 121.2 102.201C120.813 102.201 120.5 101.887 120.5 101.501C120.5 101.114 120.813 100.801 121.2 100.801C121.587 100.801 121.9 101.114 121.9 101.501Z" fill="#FBFBFB" stroke="#F5F5F5"/>
<path d="M154.5 83.6004C154.5 83.987 154.187 84.3004 153.8 84.3004C153.414 84.3004 153.1 83.987 153.1 83.6004C153.1 83.2138 153.414 82.9004 153.8 82.9004C154.187 82.9004 154.5 83.2138 154.5 83.6004Z" fill="#FBFBFB" stroke="#F5F5F5"/>
<path d="M154.8 96.8008C154.8 97.3531 154.353 97.8008 153.8 97.8008C153.248 97.8008 152.8 97.3531 152.8 96.8008C152.8 96.2485 153.248 95.8008 153.8 95.8008C154.353 95.8008 154.8 96.2485 154.8 96.8008Z" fill="#FBFBFB" stroke="#F5F5F5"/>
<path d="M143.6 79C143.6 79.5523 143.152 80 142.6 80C142.048 80 141.6 79.5523 141.6 79C141.6 78.4477 142.048 78 142.6 78C143.152 78 143.6 78.4477 143.6 79Z" fill="#FBFBFB" stroke="#F5F5F5"/>
<path d="M161 130.899C161 131.286 160.687 131.599 160.3 131.599C159.914 131.599 159.6 131.286 159.6 130.899C159.6 130.513 159.914 130.199 160.3 130.199C160.687 130.199 161 130.513 161 130.899Z" fill="#FBFBFB" stroke="#F5F5F5"/>
<path d="M138.9 98.7C138.9 99.0866 138.587 99.4 138.2 99.4C137.813 99.4 137.5 99.0866 137.5 98.7C137.5 98.3134 137.813 98 138.2 98C138.587 98 138.9 98.3134 138.9 98.7Z" fill="#FBFBFB" stroke="#F5F5F5"/>
<path d="M68.3003 87.0996C68.3003 87.6519 67.8526 88.0996 67.3003 88.0996C66.748 88.0996 66.3003 87.6519 66.3003 87.0996C66.3003 86.5473 66.748 86.0996 67.3003 86.0996C67.8526 86.0996 68.3003 86.5473 68.3003 87.0996Z" fill="#FBFBFB" stroke="#F5F5F5"/>
<path d="M34.6002 81.7996C34.6002 82.4623 34.0629 82.9996 33.4002 82.9996C32.7375 82.9996 32.2002 82.4623 32.2002 81.7996C32.2002 81.1369 32.7375 80.5996 33.4002 80.5996C34.0629 80.5996 34.6002 81.1369 34.6002 81.7996Z" fill="#FBFBFB" stroke="#F5F5F5"/>
<path d="M48.7003 94.5008C48.7003 95.1635 48.163 95.7008 47.5003 95.7008C46.8376 95.7008 46.3003 95.1635 46.3003 94.5008C46.3003 93.838 46.8376 93.3008 47.5003 93.3008C48.163 93.3008 48.7003 93.838 48.7003 94.5008Z" fill="#FBFBFB" stroke="#F5F5F5"/>
<path d="M6.5 71.8008C6.5 73.4576 5.15685 74.8008 3.5 74.8008C1.84315 74.8008 0.5 73.4576 0.5 71.8008C0.5 70.1439 1.84315 68.8008 3.5 68.8008C5.15685 68.8008 6.5 70.1439 6.5 71.8008Z" fill="#FBFBFB" stroke="#F5F5F5"/>
<path d="M136.8 8.5C136.8 9.88071 135.681 11 134.3 11C132.92 11 131.8 9.88071 131.8 8.5C131.8 7.11929 132.92 6 134.3 6C135.681 6 136.8 7.11929 136.8 8.5Z" fill="#FBFBFB" stroke="#F5F5F5"/>
<path d="M165.9 52.0996C165.9 53.4803 164.781 54.5996 163.4 54.5996C162.02 54.5996 160.9 53.4803 160.9 52.0996C160.9 50.7189 162.02 49.5996 163.4 49.5996C164.781 49.5996 165.9 50.7189 165.9 52.0996Z" fill="#FBFBFB" stroke="#F5F5F5"/>
<path d="M196.3 63.8008C196.3 65.1815 195.181 66.3008 193.8 66.3008C192.42 66.3008 191.3 65.1815 191.3 63.8008C191.3 62.4201 192.42 61.3008 193.8 61.3008C195.181 61.3008 196.3 62.4201 196.3 63.8008Z" fill="#FBFBFB" stroke="#F5F5F5"/>
<path d="M216.3 11C216.3 12.3807 215.181 13.5 213.8 13.5C212.42 13.5 211.3 12.3807 211.3 11C211.3 9.61929 212.42 8.5 213.8 8.5C215.181 8.5 216.3 9.61929 216.3 11Z" fill="#FBFBFB" stroke="#F5F5F5"/>
<path d="M211.4 26.8008C211.4 28.1815 210.281 29.3008 208.9 29.3008C207.52 29.3008 206.4 28.1815 206.4 26.8008C206.4 25.4201 207.52 24.3008 208.9 24.3008C210.281 24.3008 211.4 25.4201 211.4 26.8008Z" fill="#FBFBFB" stroke="#F5F5F5"/>
<path d="M256.5 24.6992C256.5 26.0799 255.381 27.1992 254 27.1992C252.619 27.1992 251.5 26.0799 251.5 24.6992C251.5 23.3185 252.619 22.1992 254 22.1992C255.381 22.1992 256.5 23.3185 256.5 24.6992Z" fill="#FBFBFB" stroke="#F5F5F5"/>
<path d="M51.1003 81.4996C51.1003 83.1012 49.8019 84.3996 48.2003 84.3996C46.5987 84.3996 45.3003 83.1012 45.3003 81.4996C45.3003 79.898 46.5987 78.5996 48.2003 78.5996C49.8019 78.5996 51.1003 79.898 51.1003 81.4996Z" fill="#FBFBFB" stroke="#F5F5F5"/>
<path d="M75.1 100.7C75.1 101.971 74.0703 103 72.8 103C71.5297 103 70.5 101.971 70.5 100.7C70.5 99.4301 71.5297 98.4004 72.8 98.4004C74.0703 98.4004 75.1 99.4301 75.1 100.7Z" fill="#FBFBFB" stroke="#F5F5F5"/>
<path d="M84.3002 147.499C84.3002 148.769 83.2705 149.799 82.0002 149.799C80.7299 149.799 79.7002 148.769 79.7002 147.499C79.7002 146.229 80.7299 145.199 82.0002 145.199C83.2705 145.199 84.3002 146.229 84.3002 147.499Z" fill="#FBFBFB" stroke="#F5F5F5"/>
<path d="M152.5 210.601C152.5 211.871 151.471 212.901 150.2 212.901C148.93 212.901 147.9 211.871 147.9 210.601C147.9 209.331 148.93 208.301 150.2 208.301C151.471 208.301 152.5 209.331 152.5 210.601Z" fill="#FBFBFB" stroke="#F5F5F5"/>
<path d="M228.6 158.601C228.6 159.871 227.57 160.901 226.3 160.901C225.03 160.901 224 159.871 224 158.601C224 157.331 225.03 156.301 226.3 156.301C227.57 156.301 228.6 157.331 228.6 158.601Z" fill="#FBFBFB" stroke="#F5F5F5"/>
<path d="M245.3 122.3C245.3 123.57 244.27 124.6 243 124.6C241.73 124.6 240.7 123.57 240.7 122.3C240.7 121.03 241.73 120 243 120C244.27 120 245.3 121.03 245.3 122.3Z" fill="#FBFBFB" stroke="#F5F5F5"/>
<path d="M207.4 102.3C207.4 103.57 206.371 104.6 205.1 104.6C203.83 104.6 202.8 103.57 202.8 102.3C202.8 101.03 203.83 100 205.1 100C206.371 100 207.4 101.03 207.4 102.3Z" fill="#FBFBFB" stroke="#F5F5F5"/>
<path d="M241.1 74.3996C241.1 75.6699 240.07 76.6996 238.8 76.6996C237.53 76.6996 236.5 75.6698 236.5 74.3996C236.5 73.1293 237.53 72.0996 238.8 72.0996C240.07 72.0996 241.1 73.1293 241.1 74.3996Z" fill="#FBFBFB" stroke="#F5F5F5"/>
<path d="M289.1 173.3C289.1 174.57 288.07 175.6 286.8 175.6C285.53 175.6 284.5 174.57 284.5 173.3C284.5 172.03 285.53 171 286.8 171C288.07 171 289.1 172.03 289.1 173.3Z" fill="#FBFBFB" stroke="#F5F5F5"/>
<path d="M298.9 141.4C298.9 142.67 297.871 143.7 296.6 143.7C295.33 143.7 294.3 142.67 294.3 141.4C294.3 140.129 295.33 139.1 296.6 139.1C297.871 139.1 298.9 140.129 298.9 141.4Z" fill="#FBFBFB" stroke="#F5F5F5"/>
<path d="M315.5 172.9C315.5 174.17 314.471 175.2 313.2 175.2C311.93 175.2 310.9 174.17 310.9 172.9C310.9 171.629 311.93 170.6 313.2 170.6C314.471 170.6 315.5 171.629 315.5 172.9Z" fill="#FBFBFB" stroke="#F5F5F5"/>
<path d="M269.8 215.4C269.8 216.67 268.77 217.7 267.5 217.7C266.23 217.7 265.2 216.67 265.2 215.4C265.2 214.129 266.23 213.1 267.5 213.1C268.77 213.1 269.8 214.129 269.8 215.4Z" fill="#FBFBFB" stroke="#F5F5F5"/>
<path d="M259.2 193.601C259.2 194.871 258.17 195.901 256.9 195.901C255.63 195.901 254.6 194.871 254.6 193.601C254.6 192.331 255.63 191.301 256.9 191.301C258.17 191.301 259.2 192.331 259.2 193.601Z" fill="#FBFBFB" stroke="#F5F5F5"/>
<path d="M289.1 204.7C289.1 205.971 288.07 207 286.8 207C285.53 207 284.5 205.971 284.5 204.7C284.5 203.43 285.53 202.4 286.8 202.4C288.07 202.4 289.1 203.43 289.1 204.7Z" fill="#FBFBFB" stroke="#F5F5F5"/>
<path d="M242.1 188.7C242.1 189.971 241.07 191 239.8 191C238.53 191 237.5 189.971 237.5 188.7C237.5 187.43 238.53 186.4 239.8 186.4C241.07 186.4 242.1 187.43 242.1 188.7Z" fill="#FBFBFB" stroke="#F5F5F5"/>
<path d="M130.9 247.499C130.9 248.769 129.871 249.799 128.6 249.799C127.33 249.799 126.3 248.769 126.3 247.499C126.3 246.229 127.33 245.199 128.6 245.199C129.871 245.199 130.9 246.229 130.9 247.499Z" fill="#FBFBFB" stroke="#F5F5F5"/>
<path d="M172.1 214.7C172.1 215.971 171.07 217 169.8 217C168.53 217 167.5 215.971 167.5 214.7C167.5 213.43 168.53 212.4 169.8 212.4C171.07 212.4 172.1 213.43 172.1 214.7Z" fill="#FBFBFB" stroke="#F5F5F5"/>
<path d="M129.3 138.999C129.3 140.269 128.27 141.299 127 141.299C125.73 141.299 124.7 140.269 124.7 138.999C124.7 137.729 125.73 136.699 127 136.699C128.27 136.699 129.3 137.729 129.3 138.999Z" fill="#FBFBFB" stroke="#F5F5F5"/>
<path d="M156.9 170.401C156.9 172.113 155.512 173.501 153.8 173.501C152.088 173.501 150.7 172.113 150.7 170.401C150.7 168.689 152.088 167.301 153.8 167.301C155.512 167.301 156.9 168.689 156.9 170.401Z" fill="#FBFBFB" stroke="#F5F5F5"/>
<path d="M208.2 152.7C208.2 154.412 206.812 155.8 205.1 155.8C203.388 155.8 202 154.412 202 152.7C202 150.988 203.388 149.6 205.1 149.6C206.812 149.6 208.2 150.988 208.2 152.7Z" fill="#FBFBFB" stroke="#F5F5F5"/>
<path d="M250.6 91.6996C250.6 93.4117 249.212 94.7996 247.5 94.7996C245.788 94.7996 244.4 93.4117 244.4 91.6996C244.4 89.9875 245.788 88.5996 247.5 88.5996C249.212 88.5996 250.6 89.9875 250.6 91.6996Z" fill="#FBFBFB" stroke="#F5F5F5"/>
<path d="M318.3 128.701C318.3 130.855 316.554 132.601 314.4 132.601C312.246 132.601 310.5 130.855 310.5 128.701C310.5 126.547 312.246 124.801 314.4 124.801C316.554 124.801 318.3 126.547 318.3 128.701Z" fill="#FBFBFB" stroke="#F5F5F5"/>
<path d="M311.6 59.9C311.6 62.0539 309.854 63.8 307.7 63.8C305.546 63.8 303.8 62.0539 303.8 59.9C303.8 57.7461 305.546 56 307.7 56C309.854 56 311.6 57.7461 311.6 59.9Z" fill="#FBFBFB" stroke="#F5F5F5"/>
<path d="M282.9 116.2C282.9 117.912 281.512 119.3 279.8 119.3C278.088 119.3 276.7 117.912 276.7 116.2C276.7 114.488 278.088 113.1 279.8 113.1C281.512 113.1 282.9 114.488 282.9 116.2Z" fill="#FBFBFB" stroke="#F5F5F5"/>
<path d="M291 96.7992C291 98.5113 289.612 99.8992 287.9 99.8992C286.188 99.8992 284.8 98.5113 284.8 96.7992C284.8 95.0871 286.188 93.6992 287.9 93.6992C289.612 93.6992 291 95.0871 291 96.7992Z" fill="#FBFBFB" stroke="#F5F5F5"/>
<path d="M334.9 106.1C334.9 107.812 333.512 109.2 331.8 109.2C330.088 109.2 328.7 107.812 328.7 106.1C328.7 104.388 330.088 103 331.8 103C333.512 103 334.9 104.388 334.9 106.1Z" fill="#FBFBFB" stroke="#F5F5F5"/>
<path d="M360.7 109.401C360.7 111.113 359.312 112.501 357.6 112.501C355.888 112.501 354.5 111.113 354.5 109.401C354.5 107.689 355.888 106.301 357.6 106.301C359.312 106.301 360.7 107.689 360.7 109.401Z" fill="#FBFBFB" stroke="#F5F5F5"/>
<path d="M346.9 83.6C346.9 85.3121 345.512 86.7 343.8 86.7C342.088 86.7 340.7 85.3121 340.7 83.6C340.7 81.8879 342.088 80.5 343.8 80.5C345.512 80.5 346.9 81.8879 346.9 83.6Z" fill="#FBFBFB" stroke="#F5F5F5"/>
<path d="M392.5 77.1996C392.5 78.9117 391.112 80.2996 389.4 80.2996C387.688 80.2996 386.3 78.9117 386.3 77.1996C386.3 75.4875 387.688 74.0996 389.4 74.0996C391.112 74.0996 392.5 75.4875 392.5 77.1996Z" fill="#FBFBFB" stroke="#F5F5F5"/>
<path d="M371.6 134C371.6 135.712 370.212 137.1 368.5 137.1C366.788 137.1 365.4 135.712 365.4 134C365.4 132.288 366.788 130.9 368.5 130.9C370.212 130.9 371.6 132.288 371.6 134Z" fill="#FBFBFB" stroke="#F5F5F5"/>
<path d="M361.4 175.299C361.4 177.011 360.012 178.399 358.3 178.399C356.588 178.399 355.2 177.011 355.2 175.299C355.2 173.587 356.588 172.199 358.3 172.199C360.012 172.199 361.4 173.587 361.4 175.299Z" fill="#FBFBFB" stroke="#F5F5F5"/>
<path d="M416.2 243.1C416.2 244.812 414.812 246.2 413.1 246.2C411.388 246.2 410 244.812 410 243.1C410 241.388 411.388 240 413.1 240C414.812 240 416.2 241.388 416.2 243.1Z" fill="#FBFBFB" stroke="#F5F5F5"/>
<path d="M437.6 80.0004C437.6 81.7125 436.212 83.1004 434.5 83.1004C432.788 83.1004 431.4 81.7125 431.4 80.0004C431.4 78.2883 432.788 76.9004 434.5 76.9004C436.212 76.9004 437.6 78.2883 437.6 80.0004Z" fill="#FBFBFB" stroke="#F5F5F5"/>
<path d="M384.3 107.799C384.3 109.511 382.912 110.899 381.2 110.899C379.488 110.899 378.1 109.511 378.1 107.799C378.1 106.087 379.488 104.699 381.2 104.699C382.912 104.699 384.3 106.087 384.3 107.799Z" fill="#FBFBFB" stroke="#F5F5F5"/>
<path d="M338.4 44.6C338.4 46.3121 337.012 47.7 335.3 47.7C333.588 47.7 332.2 46.3121 332.2 44.6C332.2 42.8879 333.588 41.5 335.3 41.5C337.012 41.5 338.4 42.8879 338.4 44.6Z" fill="#FBFBFB" stroke="#F5F5F5"/>
<path d="M312.2 83.6C312.2 85.3121 310.812 86.7 309.1 86.7C307.388 86.7 306 85.3121 306 83.6C306 81.8879 307.388 80.5 309.1 80.5C310.812 80.5 312.2 81.8879 312.2 83.6Z" fill="#FBFBFB" stroke="#F5F5F5"/>
<path d="M286.4 55.1C286.4 56.8121 285.012 58.2 283.3 58.2C281.588 58.2 280.2 56.8121 280.2 55.1C280.2 53.3879 281.588 52 283.3 52C285.012 52 286.4 53.3879 286.4 55.1Z" fill="#FBFBFB" stroke="#F5F5F5"/>
<path d="M356.4 59.0004C356.4 60.7125 355.012 62.1004 353.3 62.1004C351.588 62.1004 350.2 60.7125 350.2 59.0004C350.2 57.2883 351.588 55.9004 353.3 55.9004C355.012 55.9004 356.4 57.2883 356.4 59.0004Z" fill="#FBFBFB" stroke="#F5F5F5"/>
<path d="M409.9 65.7992C409.9 67.5113 408.512 68.8992 406.8 68.8992C405.088 68.8992 403.7 67.5113 403.7 65.7992C403.7 64.0871 405.088 62.6992 406.8 62.6992C408.512 62.6992 409.9 64.0871 409.9 65.7992Z" fill="#FBFBFB" stroke="#F5F5F5"/>
<path d="M439.1 49.1996C439.1 50.9117 437.712 52.2996 436 52.2996C434.288 52.2996 432.9 50.9117 432.9 49.1996C432.9 47.4875 434.288 46.0996 436 46.0996C437.712 46.0996 439.1 47.4875 439.1 49.1996Z" fill="#FBFBFB" stroke="#F5F5F5"/>
<path d="M271.5 87.1C271.5 88.8121 270.112 90.2 268.4 90.2C266.688 90.2 265.3 88.8121 265.3 87.1C265.3 85.3879 266.688 84 268.4 84C270.112 84 271.5 85.3879 271.5 87.1Z" fill="#FBFBFB" stroke="#F5F5F5"/>
<path d="M249.2 155C249.2 156.712 247.812 158.1 246.1 158.1C244.388 158.1 243 156.712 243 155C243 153.288 244.388 151.9 246.1 151.9C247.812 151.9 249.2 153.288 249.2 155Z" fill="#FBFBFB" stroke="#F5F5F5"/>
<path d="M267 172.901C267 174.613 265.612 176.001 263.9 176.001C262.188 176.001 260.8 174.613 260.8 172.901C260.8 171.189 262.188 169.801 263.9 169.801C265.612 169.801 267 171.189 267 172.901Z" fill="#FBFBFB" stroke="#F5F5F5"/>
<path d="M250.6 227.2C250.6 228.912 249.212 230.3 247.5 230.3C245.788 230.3 244.4 228.912 244.4 227.2C244.4 225.488 245.788 224.1 247.5 224.1C249.212 224.1 250.6 225.488 250.6 227.2Z" fill="#FBFBFB" stroke="#F5F5F5"/>
<path d="M154.5 257.799C154.5 259.511 153.112 260.899 151.4 260.899C149.688 260.899 148.3 259.511 148.3 257.799C148.3 256.087 149.688 254.699 151.4 254.699C153.112 254.699 154.5 256.087 154.5 257.799Z" fill="#FBFBFB" stroke="#F5F5F5"/>
<path d="M118.8 81.1992C118.8 82.3038 117.905 83.1992 116.8 83.1992C115.696 83.1992 114.8 82.3038 114.8 81.1992C114.8 80.0946 115.696 79.1992 116.8 79.1992C117.905 79.1992 118.8 80.0946 118.8 81.1992Z" fill="#FBFBFB" stroke="#F5F5F5"/>
<path d="M131.8 70.5996C131.8 71.7042 130.905 72.5996 129.8 72.5996C128.696 72.5996 127.8 71.7042 127.8 70.5996C127.8 69.495 128.696 68.5996 129.8 68.5996C130.905 68.5996 131.8 69.495 131.8 70.5996Z" fill="#FBFBFB" stroke="#F5F5F5"/>
<path d="M124.7 45.0996C124.7 46.4803 123.581 47.5996 122.2 47.5996C120.819 47.5996 119.7 46.4803 119.7 45.0996C119.7 43.7189 120.819 42.5996 122.2 42.5996C123.581 42.5996 124.7 43.7189 124.7 45.0996Z" fill="#FBFBFB" stroke="#F5F5F5"/>
<path d="M3.5 71.8008L23.5 73.4008L33.4 81.8008L21.1 88.1008L32 117.301" stroke="#F5F5F5" stroke-width="0.5" stroke-miterlimit="10"/>
<path d="M36.7004 97.3008L33.4004 81.8008H47.5004V94.3008" stroke="#F5F5F5" stroke-width="0.5" stroke-miterlimit="10"/>
<path d="M46.3001 70.5996L34.1001 72.1996" stroke="#F5F5F5" stroke-width="0.5" stroke-miterlimit="10"/>
<path d="M58.4 97.3008L46.6 109.901L32 117.301L36.7 97.3008" stroke="#F5F5F5" stroke-width="0.5" stroke-miterlimit="10"/>
<path d="M47.5002 94.5L36.7002 97.3" stroke="#F5F5F5" stroke-width="0.5" stroke-miterlimit="10"/>
<path d="M57.6002 64.5996L62.4002 77.8996L48.2002 81.4996" stroke="#F5F5F5" stroke-width="0.5" stroke-miterlimit="10"/>
<path d="M46.3003 70.5996L48.2003 81.4996L58.2003 97.2996L47.9003 94.4996" stroke="#F5F5F5" stroke-width="0.5" stroke-miterlimit="10" stroke-linecap="round" stroke-linejoin="round"/>
<path d="M58.8001 97.2996L67.3001 87.0996L62.8001 78.0996L73.5001 65.2996L57.3001 64.4996L46.3001 70.5996L46.6001 58.5996L34.1001 71.7996" stroke="#F5F5F5" stroke-width="0.5" stroke-miterlimit="10"/>
<path d="M72.8003 101L81.6003 92.0996" stroke="#F5F5F5" stroke-width="0.5" stroke-miterlimit="10"/>
<path d="M75.6001 79.3008L81.6001 91.6008" stroke="#F5F5F5" stroke-width="0.5" stroke-miterlimit="10"/>
<path d="M73.5001 65.3008L85.7001 71.6008L75.6001 79.3008L73.1001 65.3008" stroke="#F5F5F5" stroke-width="0.5" stroke-miterlimit="10"/>
<path d="M90.2002 81.9992L95.8002 75.1992" stroke="#F5F5F5" stroke-width="0.5" stroke-miterlimit="10"/>
<path d="M75.6001 79.3008L89.7001 81.5008L86.1001 71.8008L95.9001 74.7008" stroke="#F5F5F5" stroke-width="0.5" stroke-miterlimit="10"/>
<path d="M83.2004 105.9L86.4004 117.3L97.4004 112.9L82.9004 105.9" stroke="#F5F5F5" stroke-width="0.5" stroke-miterlimit="10"/>
<path d="M73.1001 101.501L82.9001 105.501L82.0001 91.6008L89.7001 81.8008L95.5001 93.1008" stroke="#F5F5F5" stroke-width="0.5" stroke-miterlimit="10"/>
<path d="M95.5 93.0996L97.4 112.9L106.2 122.3L87 117.6L95.5 127.9H74L86.4 117.6" stroke="#F5F5F5" stroke-width="0.5" stroke-miterlimit="10"/>
<path d="M112.6 92.8008L103.1 83.3008L95.9004 93.1008" stroke="#F5F5F5" stroke-width="0.5" stroke-miterlimit="10"/>
<path d="M82 147.5L74 127.9L99 139L95.5 127.9L111.3 134.9L106.5 122.5L112.5 110.4L97.7 112.9" stroke="#F5F5F5" stroke-width="0.5" stroke-miterlimit="10"/>
<path d="M82 147.5L99.3 139" stroke="#F5F5F5" stroke-width="0.5" stroke-miterlimit="10"/>
<path d="M105.7 122.5L119.3 121.3L112.5 110.4L104.6 100.4L112.5 93.0996L113 109.9L121.2 101.5L129.2 108.3L119.7 121.3L127.4 139" stroke="#F5F5F5" stroke-width="0.5" stroke-miterlimit="10"/>
<path d="M99 138.4L111.3 134.9" stroke="#F5F5F5" stroke-width="0.5" stroke-miterlimit="10"/>
<path d="M86.9004 54.0004L98.6004 50.9004L95.5004 64.2004L109.1 69.5004L116.8 81.2004L95.9004 74.7004L108.8 69.8004" stroke="#F5F5F5" stroke-width="0.5" stroke-miterlimit="10"/>
<path d="M85.7002 71.5996L95.5002 64.1996L86.5002 53.5996L85.7002 71.5996Z" stroke="#F5F5F5" stroke-width="0.5" stroke-miterlimit="10"/>
<path d="M82 147.5L103 158.4L113.5 151.5L82 147.5Z" stroke="#F5F5F5" stroke-width="0.5" stroke-miterlimit="10"/>
<path d="M103 158.4L119.2 170.4H136.9L113.5 151.5L111.3 134.9L127 139L113.5 151.5L99 139.2" stroke="#F5F5F5" stroke-width="0.5" stroke-miterlimit="10"/>
<path d="M119.2 170.4L113.5 151.5" stroke="#F5F5F5" stroke-width="0.5" stroke-miterlimit="10"/>
<path d="M132.1 150.3L140.4 137L127.4 139L132.1 150.3ZM132.1 150.3L114.3 151.5" stroke="#F5F5F5" stroke-width="0.5" stroke-miterlimit="10"/>
<path d="M116.8 80.9004L128.5 56.0004L109.1 69.5004L99 50.9004" stroke="#F5F5F5" stroke-width="0.5" stroke-miterlimit="10"/>
<path d="M95.5 74.7L103.1 83.3L116.8 81.2L129.8 70.6L128.5 56L140.9 61.4L130.9 82.7L117.2 81.2L112.5 93.1H95.9L104.6 100.4L97.4 112.9" stroke="#F5F5F5" stroke-width="0.5" stroke-miterlimit="10"/>
<path d="M140.9 61.4004L129.8 70.6004" stroke="#F5F5F5" stroke-width="0.5" stroke-miterlimit="10"/>
<path d="M142.6 79.0004L141.1 61.4004L153.8 83.6004L142.6 79.0004ZM142.6 79.0004L130.9 82.7004" stroke="#F5F5F5" stroke-width="0.5" stroke-miterlimit="10"/>
<path d="M128.5 56.0004L122.2 45.1004L136.6 38.9004L128.5 56.0004Z" stroke="#F5F5F5" stroke-width="0.5" stroke-miterlimit="10" stroke-linecap="round" stroke-linejoin="round"/>
<path d="M136.6 38.9004L125.2 29.9004L113.6 22.9004L134.3 8.50039L125.7 29.0004L138 21.5004L135.3 7.90039" stroke="#F5F5F5" stroke-width="0.5" stroke-miterlimit="10" stroke-linecap="round" stroke-linejoin="round"/>
<path d="M138.5 21.6992L136.9 38.8992" stroke="#F5F5F5" stroke-width="0.5" stroke-miterlimit="10" stroke-linecap="round" stroke-linejoin="round"/>
<path d="M121.8 44.7004L125.2 29.9004" stroke="#F5F5F5" stroke-width="0.5" stroke-miterlimit="10" stroke-linecap="round" stroke-linejoin="round"/>
<path d="M134.3 8.50039L151.1 12.7004L171.4 1.90039L165.6 13.3004H151.1L138 21.5004L156.7 24.7004L151.5 12.9004" stroke="#F5F5F5" stroke-width="0.5" stroke-miterlimit="10" stroke-linecap="round" stroke-linejoin="round"/>
<path d="M171.4 1.90039L188.5 14.9004L176.8 15.5004L171.4 2.30039" stroke="#F5F5F5" stroke-width="0.5" stroke-miterlimit="10" stroke-linecap="round" stroke-linejoin="round"/>
<path d="M149.9 37.3008L163.7 52.1008L164.2 38.2008L149.9 36.8008L156.7 24.7008L172.3 28.0008L165.6 13.3008L176.8 15.5008L172.3 28.0008" stroke="#F5F5F5" stroke-width="0.5" stroke-miterlimit="10" stroke-linecap="round" stroke-linejoin="round"/>
<path d="M165.6 13.3008L156.7 24.7008" stroke="#F5F5F5" stroke-width="0.5" stroke-miterlimit="10" stroke-linecap="round" stroke-linejoin="round"/>
<path d="M172.1 67.9L176.8 55.5L193.8 63.8L180.2 82.7L171.5 68.1L163.4 52.1L176.8 55.1L177.4 42.3L164.2 38.2L172.3 28L188.5 14.9L198.5 19.7L213.8 11L227.6 14.1L208.9 26.8L198.5 20.4L185.1 28.3L188.5 15.5" stroke="#F5F5F5" stroke-width="0.5" stroke-miterlimit="10" stroke-linecap="round" stroke-linejoin="round"/>
<path d="M171.5 68.0996L171.9 85.8996L180.2 82.6996" stroke="#F5F5F5" stroke-width="0.5" stroke-miterlimit="10" stroke-linecap="round" stroke-linejoin="round"/>
<path d="M213.8 11L208.9 26.8L192.3 39.5L206.7 49.2L208.9 27.7L185.1 28.3L177.4 42.3L186.2 50L176.8 55.5" stroke="#F5F5F5" stroke-width="0.5" stroke-miterlimit="10" stroke-linecap="round" stroke-linejoin="round"/>
<path d="M172.3 28L185.1 28.3L192.3 39.5L193.8 63.8L206.7 49.2L201.9 77L193.8 64.9L186.2 50L191.4 39.5" stroke="#F5F5F5" stroke-width="0.5" stroke-miterlimit="10" stroke-linecap="round" stroke-linejoin="round"/>
<path d="M136.9 170.4H153.8L168.2 179.4L186.4 188.7L180.2 201L166.7 189.6L168.2 180L149.8 182.9L153.8 171.4" stroke="#F5F5F5" stroke-width="0.5" stroke-miterlimit="10"/>
<path d="M136.6 170.4L134.7 185.1L149.8 182.9L147.6 195.9L166.7 189.6L164.1 201L169.8 214.7L180.2 201" stroke="#F5F5F5" stroke-width="0.5" stroke-miterlimit="10"/>
<path d="M134.7 185.1L150.2 210.6L147.6 195.9L135 185.1" stroke="#F5F5F5" stroke-width="0.5" stroke-miterlimit="10"/>
<path d="M139.2 228.4L128.6 247.5L151.4 257.8" stroke="#F5F5F5" stroke-width="0.5" stroke-miterlimit="10"/>
<path d="M128.6 247.5L144.1 243.5L139.2 228.4H155.5L151.4 257.8L144.6 243.5L155 227.6L169.8 214.7L150.2 210.6L164.1 201" stroke="#F5F5F5" stroke-width="0.5" stroke-miterlimit="10"/>
<path d="M139.2 228.4L150.2 210.6L155 227.6L162.9 244.1" stroke="#F5F5F5" stroke-width="0.5" stroke-miterlimit="10"/>
<path d="M153.8 121.301L137.5 124.601" stroke="#F5F5F5" stroke-width="0.5" stroke-miterlimit="10"/>
<path d="M163.4 108.101L174.1 124.601L160.3 130.901L153.8 121.301L163.4 108.101ZM163.4 108.101L160.3 130.901L140.4 137.001L153.8 121.301L140.4 112.701L138.2 98.7008L163.4 108.101ZM163.4 108.101L153.8 96.8008L138.2 98.7008L129.2 108.301L140.4 112.701L136.9 124.601" stroke="#F5F5F5" stroke-width="0.5" stroke-miterlimit="10"/>
<path d="M231.8 140L226.3 158.6L253.7 143.4L246.1 155L263.9 174.4L272 189.2L286.8 173.3L263.9 172.9L254.2 142.7L231.8 139L205.1 152.7L209.6 174.1L225.9 159.3L205.8 153.1" stroke="#F5F5F5" stroke-width="0.5" stroke-miterlimit="10"/>
<path d="M245.2 204.7L256.9 193.6" stroke="#F5F5F5" stroke-width="0.5" stroke-miterlimit="10"/>
<path d="M263.9 172.9L256.9 193.6L267.5 215.4L272 189.2L286.8 204.7" stroke="#F5F5F5" stroke-width="0.5" stroke-miterlimit="10"/>
<path d="M267.5 215.399L286.8 204.699V224.899L290.8 237.199" stroke="#F5F5F5" stroke-width="0.5" stroke-miterlimit="10"/>
<path d="M231.8 138.999L215.4 127.199L234 110.399L243 122.299L247.5 91.6992L258.6 106.999L243.9 123.399L232.5 138.999L263.2 129.699L254.2 142.699L272 147.699L287.9 157.999L313.2 172.899L329.6 147.699L310 154.999L313.2 171.399" stroke="#F5F5F5" stroke-width="0.5" stroke-miterlimit="10"/>
<path d="M238.8 74.4008L263.3 69.3008L247.5 90.7008" stroke="#F5F5F5" stroke-width="0.5" stroke-miterlimit="10"/>
<path d="M335.3 45.5996L329.6 70.5996L352.3 59.8996L343.8 83.5996L375.8 64.2996L353.3 58.9996L335.3 44.5996L307.7 59.8996L290.1 74.8996L268.4 87.0996L263.3 69.2996" stroke="#F5F5F5" stroke-width="0.5" stroke-miterlimit="10"/>
<path d="M307.7 59.9004L328.7 70.6004L309.1 83.6004L290.1 74.9004L287.9 96.8004L268.4 87.1004" stroke="#F5F5F5" stroke-width="0.5" stroke-miterlimit="10"/>
<path d="M279.8 116.2L287.9 96.7996L309.1 83.5996L306.2 105.6L329.6 70.5996L343.8 83.5996L331.8 106.1L314.4 128.7L305.5 105.6L279.8 116.2Z" stroke="#F5F5F5" stroke-width="0.5" stroke-miterlimit="10"/>
<path d="M306.2 105.6L331.8 106.1L357.6 109.4L343.8 83.5996" stroke="#F5F5F5" stroke-width="0.5" stroke-miterlimit="10"/>
<path d="M314.4 128.699L338 130.899L357.6 109.699" stroke="#F5F5F5" stroke-width="0.5" stroke-miterlimit="10"/>
<path d="M338 130.901L349.7 142.701L368.5 134.001L381.2 107.801L405.4 88.2008L389.4 77.2008L367.9 84.9008L375.8 64.3008L406.8 65.8008L434.5 80.0008L406.2 88.2008L406.8 67.0008L390.1 76.4008" stroke="#F5F5F5" stroke-width="0.5" stroke-miterlimit="10"/>
<path d="M354.5 158L368.5 134L357.6 109.4L367.9 84.9004L381.2 107.8L399.2 116.2L396.9 140.5" stroke="#F5F5F5" stroke-width="0.5" stroke-miterlimit="10"/>
<path d="M338.9 163.199L349.7 143.099L354.5 157.999L338 164.299L329.6 147.699L348.6 142.699" stroke="#F5F5F5" stroke-width="0.5" stroke-miterlimit="10"/>
<path d="M354.5 158L367.3 160.8L358.3 175.3L370.6 175.7L367.9 160.8" stroke="#F5F5F5" stroke-width="0.5" stroke-miterlimit="10"/>
<path d="M419.6 223.699L407.5 219.799L416 210.899L400.7 208.799L402.3 198.399L384.7 195.599L386.3 182.499L364.4 188.199L370.6 175.699L386.3 181.899L402.4 197.699L416.6 210.399L420.3 223.699L413.1 243.099L403 232.499L406.9 219.799L413.1 240.899" stroke="#F5F5F5" stroke-width="0.5" stroke-miterlimit="10"/>
<path d="M358.3 175.301L363.8 188.201L343.8 186.001L357.1 176.001" stroke="#F5F5F5" stroke-width="0.5" stroke-miterlimit="10"/>
<path d="M364.4 188.199L384.1 195.599" stroke="#F5F5F5" stroke-width="0.5" stroke-miterlimit="10"/>
<path d="M406.9 219.801L400.7 208.801" stroke="#F5F5F5" stroke-width="0.5" stroke-miterlimit="10"/>
<path d="M369.9 220.4L389.4 217.6" stroke="#F5F5F5" stroke-width="0.5" stroke-miterlimit="10"/>
<path d="M447.3 228.5L453 243.1L434.9 266.8L419.1 263.7L437.1 244.7L434.7 265.7" stroke="#F5F5F5" stroke-width="0.5" stroke-miterlimit="10"/>
<path d="M437.9 244.7L451.7 243.1" stroke="#F5F5F5" stroke-width="0.5" stroke-miterlimit="10"/>
<path d="M437.1 245.2L448.2 228.5L434.4 231.5L437.1 245.2Z" stroke="#F5F5F5" stroke-width="0.5" stroke-miterlimit="10"/>
<path d="M413.1 243.1L437.1 244.8" stroke="#F5F5F5" stroke-width="0.5" stroke-miterlimit="10"/>
<path d="M215.4 127.201L205.1 102.301L196.8 122.301" stroke="#F5F5F5" stroke-width="0.5" stroke-miterlimit="10"/>
<path d="M227.6 14.0996L254 24.6996L238.4 35.9996" stroke="#F5F5F5" stroke-width="0.5" stroke-miterlimit="10"/>
<path d="M23.5 73.3992L34.1 72.1992L33.4 81.4992" stroke="#F5F5F5" stroke-width="0.5" stroke-miterlimit="10"/>
<path d="M434.5 79.9992L436 49.1992L407.6 64.2992" stroke="#F5F5F5" stroke-width="0.5" stroke-miterlimit="10"/>
<path d="M290.1 74.9L283.3 55.1L298.5 35.5" stroke="#F5F5F5" stroke-width="0.5" stroke-miterlimit="10"/>
<path d="M128.6 247.5L148.6 276.9L151.4 257.8" stroke="#F5F5F5" stroke-width="0.5" stroke-miterlimit="10"/>
<path d="M247.5 227.6L267.5 215.4" stroke="#F5F5F5" stroke-width="0.5" stroke-miterlimit="10"/>
<path d="M383.2 232.501H403L389.4 217.601L400.7 208.801L381.9 209.601L369.9 220.401L383.2 231.601L389.4 217.601L382.5 210.401" stroke="#F5F5F5" stroke-width="0.5" stroke-miterlimit="10"/>
<path d="M436 49.1992L452.9 68.2992L435.2 79.9992" stroke="#F5F5F5" stroke-width="0.5" stroke-miterlimit="10"/>
<path d="M239.8 188.7L245.2 204.7L247.5 227.2L256.9 193.6L245.8 173.6L246.1 155L226.3 158.6L228 175L239.8 188.7ZM239.8 188.7L245.2 173.6L228 174.4L209.6 174.1" stroke="#F5F5F5" stroke-width="0.5" stroke-miterlimit="10"/>
<path d="M103.1 83.2996L89.9004 82.0996L82.9004 105.5L95.9004 93.0996" stroke="#F5F5F5" stroke-width="0.5" stroke-miterlimit="10"/>
<path d="M279.8 116.199L296.6 141.399L310 154.999" stroke="#F5F5F5" stroke-width="0.5" stroke-miterlimit="10"/>
<path d="M329.6 70.5996L331.8 106.1L337.5 130.8L329.6 147.7L314.4 128.7L310 155L287.9 158L296.6 141.4L272 147.7L263.2 129.7L258.6 107L279.8 116.2L263.9 129.5L297.3 140.5L314.4 128.7L281.6 116.2L268.4 87.0996L247.5 91.6996L238.8 74.3996L234 110.4L205.1 102.3" stroke="#F5F5F5" stroke-width="0.5" stroke-miterlimit="10"/>
<path d="M267.5 88.8008L258.6 107.001" stroke="#F5F5F5" stroke-width="0.5" stroke-miterlimit="10"/>
<path d="M243 122.301L263.2 129.701" stroke="#F5F5F5" stroke-width="0.5" stroke-miterlimit="10"/>
<path d="M46.6001 58.5996L57.3001 64.4996" stroke="#F5F5F5" stroke-width="0.5" stroke-miterlimit="10"/>
<path d="M162.9 244.099L179 223.599L169.8 214.699L162.9 244.099ZM162.9 244.099L152.2 257.799L162.9 275.699L148.6 276.899" stroke="#F5F5F5" stroke-width="0.5" stroke-miterlimit="10"/>
<path d="M111.3 134.901L119.3 121.301L136.9 124.601L129.2 108.301" stroke="#F5F5F5" stroke-width="0.5" stroke-miterlimit="10"/>
<path d="M140.4 137L136.9 124.6L127 139" stroke="#F5F5F5" stroke-width="0.5" stroke-miterlimit="10"/>
<path d="M46.6001 109.9L36.7001 97.2996L21.1001 88.0996" stroke="#F5F5F5" stroke-width="0.5" stroke-miterlimit="10"/>
<path d="M47.5003 94.5L46.3003 109.5" stroke="#F5F5F5" stroke-width="0.5" stroke-miterlimit="10"/>
<path d="M62.8004 78.0996L75.6004 79.2996L67.3004 87.0996L72.8004 100.7L58.4004 97.2996" stroke="#F5F5F5" stroke-width="0.5" stroke-miterlimit="10"/>
</svg>
